<svg xmlns="http://www.w3.org/2000/svg" viewBox="0 0 691.83 688.75"><defs><style>.cls-1{fill:#7cd0a4}.cls-2{fill:#4abe81}.cls-3{fill:#f99552}.cls-4{fill:#fed572}.cls-5{fill:#976c4f}.cls-10{fill:#799b81}.cls-11{fill:#8d5023}.cls-12{fill:#c9b976}.cls-13{fill:#703f1e}.cls-14{fill:#a89e78}.cls-16{fill:#988c6a}</style></defs><g id="图层_2" data-name="图层 2"><g id="图层_1-2" data-name="图层 1"><path class="cls-1" d="M203.93 447.53a14.18 14.18 0 0 0-.36 11c.45 1.3 10.61 31.45 39 56.26a124.43 124.43 0 0 0 50.35 27c22.59 6.08 47.63 6.08 74.57.18a12.62 12.62 0 0 0 8.44-6.55 13 13 0 0 0 .45-10.86c-.45-1.22-12.25-30.24-38.1-55.05C313.79 445.94 272 422 211.46 441a12.27 12.27 0 0 0-7.53 6.55z"/><path class="cls-1" d="m437.61 611.75.73 1.31.9 1.12 1.09.94 1.18.75 1.27.56 1.36.37 1.36.19 1.36-.09 1.37-.28 1.36-.57 1.27-.74 1.08-.94.91-1.12.73-1.22.54-1.31.37-1.4.18-1.41-.1-1.41-.27-1.4-.54-1.4-.28-.57L453 602l-.28-.56-.27-.56-.27-.56-.27-.56-.28-.57-.54-1.12-.27-.56-.28-.57-.27-.55-.27-.57-.27-.56-.27-.56-.28-.56-.54-1.13-.27-.56-.27-.56.36-.09-.28-.57-.27-.56-.27-.56-.27-.56-.37-.55-.54-1.13-.27-.56-.27-.56-.28-.56-.27-.56-.27-.56-.27-.56-.28-.57-.53-1.12-.28-.56-.27-.57-.27-.56-.27-.56-.28-.56-.27-.56-.27-.56-.54-1.13-.28-.56-.27-.56-.27-.56-.27-.56-.28-.56-.54-1.13-.27-.56-.27-.56-.28-.57-.27-.56-.27-.56-.27-.56-.28-.56-.36-.56-1.81-2.81-.37-.56-.36-.47-.36-.47-.37-.47-.72-.93-.37-.47-.35-.47-.37-.47-.72-.93-.37-.47-.36-.47-.36-.47-.73-.93-.36-.47-.37-.47-.36-.47-.36-.47-.36-.46-.37-.48-.36-.46-.36-.47-.73-.93-.45-.48-.46-.46-.45-.47-.45-.47-.46-.47-.81-.84-.46-.47-.45-.47-.46-.46-.45-.47-.45-.47-.45-.47-.46-.47-.45-.37-.91-.75-.45-.37-.46-.38-.45-.37-.9-.75-.46-.38-.45-.37-.46-.38-.45-.37-.45-.37-.46-.38-.45-.37-.46-.38-.9-.75-.46-.37-.45-.38-.45-.37-.91-.75-.45-.38-.46-.37-.45-.37-.54-.38-3.27-2.25-.55-.28-.54-.28-.54-.28-.55-.28-.54-.28-.55-.28-1.01-.56-.54-.28-.54-.28-.55-.29-.54-.27-.55-.29-1.08-.56-.55-.28-.54-.28-.55-.28-.54-.28-.54-.28-.55-.28-.54-.29-1.09-.55-.55-.29-.54-.28-.54-.28-.55-.28-.54-.28-.58-.3-.36.19-.55-.29-1.09-.55-.54-.29-.54-.28-.55-.28-.54-.28-.55-.28-.54-.28-.55-.29-1.09-.55-.54-.29-.54-.28-.55-.28-.54-.28-.54-.28-1.09-.56-.55-.28-.54-.28-.55-.29-.54-.27-.54-.29-.55-.28-.54-.28-.55-.28-1.09-.46-2.35-.38-2.82.09-2.63.94-2.17 1.78-1.65 2.43-.81 2.9.09 2.91.9 2.71 1.73 2.25 2.36 1.68 1.08.47.55.28.54.29.55.28.54.28 1.09.56.55.28.54.28.54.28.55.28.54.28.55.28.54.29 1.09.55.54.29.55.28.54.28.55.28.54.28 1.09.56.55.28.54.28.54.29.54.27.55.29.46.28.45.28.45.28.46.28.45.28.45.28.46.28.45.28.45.29.46.27.45.29.91.56.45.28.45.28.46.28.45.28.45.28.46.28.45.28.46.28.45.28.45.29.46.28.45.28.46.28.45.28.45.28.46.28.45.28.45.28.45.29.46.27.45.29.46.28.45.28.9.56.46.28.45.28.46.28.45.28.45.29.46.27.45.28.46.29.36.28.36.28.36.28.37.28.36.28.36.28.73.56.36.28.36.28.37.29.36.28.36.28.36.37.37.37 3.27 3.38.36.28.72.75 2.18 2.25.36.37 1.09 1.12.36.38.28.37.27.38.27.37.27.38.28.37.27.37.27.38.27.38.27.36.27.38.28.38.27.37.27.47.27.47.28.46.27.47.27.47.27.47.28.47.27.46.27.48.27.46.27.47.54.93.28.48.27.46.27.47.27.47.28.46.27.48.27.46.27.47.27.47.28.47.27.47.27.46.27.47.28.47.27.47.27.47.27.46.27.48.28.46.27.47.27.47.27.46.28.48.54.93.27.47.27.46.28.48.27.46.27.47.27.47.28.47.27.47.27.55.27.57.27.56.28.56.27.56.27.57.27.56.28.56.27.56.27.56.27.56.27.56.28.57.27.56.27.56.54 1.13.28.55.27.57.27.56.27.56.28.56.27.57.27.56.27.56.27.56.28.56.27.56zm252.92-206.82a14.25 14.25 0 0 1 .36 10.95c-.46 1.32-10.62 31.46-39 56.27a124.57 124.57 0 0 1-50.34 27c-22.6 6.08-47.63 6.08-74.57.19a12.64 12.64 0 0 1-8.44-6.56 13 13 0 0 1-.45-10.86c.45-1.22 12.24-30.24 38.1-55.05 24.49-23.5 66.31-47.47 126.82-28.47a11.62 11.62 0 0 1 7.53 6.56z"/><path class="cls-1" d="m456.66 569.53-.73 1.31L455 572l-1.09.93-1.18.75-1.27.57-1.36.37-1.36.19-1.45-.1-1.45-.28-1.36-.56-1.27-.75-1.09-.94-.91-1.12-.72-1.22-.55-1.3-.36-1.41-.18-1.41.09-1.49.27-1.5.54-1.4.27-.57.28-.56.27-.56.27-.56.27-.56.28-.57.27-.56.27-.56.27-.56.27-.56.28-.56.27-.57.27-.56.54-1.12.28-.56.27-.56.27-.57.27-.56.28-.56.27-.56.27-.56.54-1.13.28-.56.27-.56.27-.56.27-.56.28-.57.27-.56.27-.56.27-.56.27-.56.28-.56.27-.57.27-.56.27-.56.28-.56.54-1.13.27-.55.27-.57.28-.56.27-.56.27-.56.27-.57.28-.56.54-1.12.27-.56.27-.56.28-.56.27-.57.27-.55.27-.56.28-.56.27-.57.27-.55.27-.57 1.45-2.25.36-.56.37-.56.36-.56 1.45-2.25.36-.46.37-.48.36-.46.36-.47.37-.47.36-.46.36-.48.36-.46.37-.47.72-.93.37-.48.36-.46.36-.47.73-.94.36-.47.37-.46.35-.47.73-.94.36-.47.46-.46.45-.48.45-.46.46-.47.45-.47.46-.46.81-.85.45-.47.46-.46.45-.47.46-.47.45-.47.45-.47.46-.46.45-.47.46-.38.45-.37.45-.37.46-.38.45-.37.45-.38.91-.75.45-.37.46-.38.45-.37.91-.75.45-.38.45-.37.46-.37.9-.75.46-.38.45-.37.46-.38.9-.75 2.18-1.5.55-.37.54-.37.54-.38 1.64-1.12.54-.28 1.09-.56.54-.29.55-.27.54-.29.55-.28.54-.28 1.09-.56.54-.28.55-.28.54-.28.55-.31.55-.29.54-.28.55-.28 1.09-.56.54-.28.55-.28.54-.28.54-.28.55-.28.54-.28.55-.29 1.09-.55.54-.29.55-.28.54-.28.54-.28.55-.28 1.09-.56.54-.28.55-.28.54-.29.54-.27.55-.29.54-.28.55-.28 1.09-.56.54-.28.55-.28.54-.28.54-.28.55-.29.54-.28.54-.28 1.09-.56.55-.28.54-.28.54-.28.55-.28 1.09-.47 2.81-.84 2.81.09 2.64.94 2.24 1.76 1.63 2.52.82 2.91-.09 2.9-.91 2.71-1.72 2.34-2.45 1.69-1.09.47-.54.28-.55.28-.54.28-1.09.56-.54.28-.55.28-.54.29-.55.28-.54.28-1.09.56-.54.28-.55.28-.54.28-.55.28-.54.28-.54.28-.55.29-1.09.55-.54.29-.55.28-.54.28-.54.28-.55.28-.54.28-.55.29-1.09.55-.54.29-.45.28-.46.28-.45.28-.45.28-.46.28-.45.28-.46.28-.45.28-.45.28-1 .57-.45.28-.46.28-.45.28-.45.28-.46.28-.45.28-.45.28-.46.28-.45.28-.46.28-.45.29-.45.28-.46.27-.45.29-.46.28-.45.28-.45.28-.46.28-.45.28-.45.28-.46.28-.45.28-.45.29-.46.28-.45.28-.45.28-.46.28-.45.28-.45.28-.46.28-.45.28-.45.28-.46.28-.45.29-.37.28-.36.28-.72.56-.37.28-.36.28-.36.28-.37.28-.36.29-.36.37-.36.37-3.63 3.75-.36.37-.37.37-3.63 3.75-.36.38-.36.37-.36.37-.28.38-.27.37-.27.38-.27.37-.28.38-.54.75-.27.37-.27.38-.28.37-.27.47-.27.46-.27.48-.27.46-.28.47-.27.47-.27.46-.27.48-.28.46-.27.47-.27.47-.27.46-.27.48-.28.46-.27.47-.27.47-.27.47-.28.47-.27.46-.27.47-.54.94-.28.47-.27.46-.27.47-.27.47-.28.47-.27.47-.27.46-.27.47-.27.47-.28.47-.27.47-.27.46-.27.48-.28.46-.23.48-.27.47-.27.47-.27.47-.28.46-.27.47-.27.47-.27.47-.28.47-.27.46-.27.57-.27.56-.27.56-.28.56-.27.56-.27.56-.54 1.13-.27.56-.28.56-.27.56-.27.57-.27.55-.28.57-.27.56-.54 1.12-.27.56-.28.57-.27.56-.27.56-.27.56-.27.56-.28.56-.54 1.13-.27.56-.27.56-.28.57-.27.55z"/><path class="cls-2" d="M443.42 672.32a10.54 10.54 0 0 0 10.43-10.76V356.81H433v304.75a10.54 10.54 0 0 0 10.43 10.76z"/><path class="cls-3" d="m411.85 132.57 3.54 12.27c1.18 5 2.08 10 2.81 15.26a10 10 0 0 1-2.36 7.86 9.29 9.29 0 0 1-7.35 3.19 106.08 106.08 0 0 1-22.31-3.94l-4.9-1.49 9.07 8.8q5 5.47 9.8 11.79a9.58 9.58 0 0 1 1.72 8 10 10 0 0 1-4.81 6.56 117.18 117.18 0 0 1-21.22 8.13l-4.9 1.22 12.06 2.9c4.72 1.41 9.43 3.19 14.24 5.15a9.65 9.65 0 0 1 5.36 6 10.28 10.28 0 0 1-1 8.14 114.49 114.49 0 0 1-14.42 18l-3.72 3.59 11.88-3.64a147.09 147.09 0 0 1 14.79-2.91 9.25 9.25 0 0 1 7.61 2.44 9.85 9.85 0 0 1 3.09 7.58 115.88 115.88 0 0 1-3.81 23l-1.45 5.06 8.53-9.36q5.29-5.2 11.42-10.12a8.87 8.87 0 0 1 7.72-1.78 9.83 9.83 0 0 1 6.35 5 126.88 126.88 0 0 1 7.89 21.92l1.18 5.05 2.81-12.45c1.36-4.87 3.08-9.74 5-14.7a9.56 9.56 0 0 1 5.81-5.53 9.44 9.44 0 0 1 7.89 1 113.06 113.06 0 0 1 17.42 14.89l3.53 3.84-3.53-12.26c-1.18-5-2.09-10-2.82-15.27a10 10 0 0 1 2.36-7.86 9.27 9.27 0 0 1 7.35-3.18 106.22 106.22 0 0 1 22.31 3.93l4.9 1.5-9.07-8.81q-5-5.46-9.8-11.79a9.61 9.61 0 0 1-1.72-8 10 10 0 0 1 4.81-6.55 117.42 117.42 0 0 1 21.23-8.15l4.9-1.21-12.04-2.85a150.29 150.29 0 0 1-14.24-5.15 9.63 9.63 0 0 1-5.36-6 10.27 10.27 0 0 1 1-8.14 115.12 115.12 0 0 1 14.43-18l3.72-3.65-11.89 3.65a148 148 0 0 1-14.78 2.9 9.27 9.27 0 0 1-7.62-2.43 9.88 9.88 0 0 1-3.09-7.59 115.88 115.88 0 0 1 3.81-23l1.45-5-8.52 9.36q-5.31 5.19-11.44 10.11a8.84 8.84 0 0 1-7.71 1.78 9.75 9.75 0 0 1-6.34-5 124.72 124.72 0 0 1-7.9-21.91l-1.18-5.06-2.81 12.45c-1.36 4.87-3.08 9.74-5 14.71a9.53 9.53 0 0 1-5.8 5.52 9.43 9.43 0 0 1-7.9-1 112.06 112.06 0 0 1-17.41-14.89zM400.33 9.45a9.54 9.54 0 0 1 7.89 1.22c.91.47 21.14 12.27 35.2 37.17a104.75 104.75 0 0 1 8.71 20.23l.9 3.84 1.46-7.12c5.26-19.38 17.23-39.79 42.18-56.55A8.88 8.88 0 0 1 504 6.93a9.76 9.76 0 0 1 6.25 5.15c.55.84 12.43 21.53 12.52 50.37a103.5 103.5 0 0 1-2.27 22l-1.09 3.74 4.72-5.43C538 68.72 558.35 57.2 588 55.61a9 9 0 0 1 7 2.72 10.4 10.4 0 0 1 2.91 7.67 109.17 109.17 0 0 1-13.61 50.09A98.63 98.63 0 0 1 571.6 134l-2.72 2.71 6.71-2.24c18.87-5 42.09-4.5 68.49 9.45a9.79 9.79 0 0 1 4.72 5.9 10.36 10.36 0 0 1-1.18 8.15c-.46.93-11.89 21.81-36 36.32a97.23 97.23 0 0 1-19.59 9l-3.72.94 6.89 1.5c18.78 5.42 38.56 17.79 54.79 43.53a10.08 10.08 0 0 1 1.28 7.59 10 10 0 0 1-5 6.46c-.81.56-20.86 12.82-48.8 12.92a94.46 94.46 0 0 1-21.32-2.35l-3.63-1.12 5.27 4.87c13.6 14.33 24.76 35.3 26.3 65.91a9.9 9.9 0 0 1-2.63 7.21 9.68 9.68 0 0 1-7.44 3c-1 0-24.31.29-48.53-14a95.29 95.29 0 0 1-17.32-13.11l-2.63-2.8 2.17 6.92c4.81 19.48 4.36 43.45-9.16 70.69a9.31 9.31 0 0 1-13.63 3.55c-.9-.46-21.13-12.26-35.2-37.17a106.43 106.43 0 0 1-8.7-20.22l-.91-3.83-1.45 7.11c-5.26 19.38-17.24 39.79-42.18 56.55a9.28 9.28 0 0 1-7.35 1.31 9.81 9.81 0 0 1-6.26-5.15c-.54-.84-12.43-21.53-12.52-50.37a103.43 103.43 0 0 1 2.27-22l1.08-3.75-4.7 5.45c-13.88 14.05-34.2 25.56-63.87 27.15a9.29 9.29 0 0 1-7-2.71 10.38 10.38 0 0 1-2.9-7.68 109.28 109.28 0 0 1 13.6-50.09 99 99 0 0 1 12.7-17.88l2.73-2.72-6.72 2.25c-18.87 5-42.09 4.5-68.49-9.46a9.76 9.76 0 0 1-4.71-5.89 10.35 10.35 0 0 1 1.18-8.15c.45-.93 11.88-21.81 36-36.33a97.74 97.74 0 0 1 19.59-9l3.72-.94L318 210c-18.78-5.43-38.56-17.79-54.8-43.54a9.71 9.71 0 0 1-1.26-7.58 10 10 0 0 1 5-6.46c.54-.37 8.52-5.24 21.31-8.89a105.62 105.62 0 0 1 27.49-4 89.51 89.51 0 0 1 21.26 2.41l4.08 1.49-5.62-5.24c-13.61-14.32-24.77-35.29-26.31-65.91a9.63 9.63 0 0 1 2.63-7.21 9 9 0 0 1 4.22-2.62 18.41 18.41 0 0 1 3.18-.47c1 0 24.31-.28 48.53 14.05A96.11 96.11 0 0 1 385 89.13l2.63 2.81-2.18-6.94c-4.81-19.47-4.36-43.44 9.16-70.69a9.63 9.63 0 0 1 5.72-4.87z"/><path class="cls-4" d="m425.27 121.43.1 12.83c-.28 5.05-.73 10.21-1.54 15.45a9.74 9.74 0 0 1-4.45 6.83 9 9 0 0 1-7.89.84 113.37 113.37 0 0 1-20.32-10.29l-4.27-2.91 6.26 11a153.55 153.55 0 0 1 6.17 14.23 9.81 9.81 0 0 1-.54 8.15 9.53 9.53 0 0 1-6.44 4.87 115.89 115.89 0 0 1-22.59 1.59l-5.08-.28 10.79 6.36c4.08 2.72 8.17 5.81 12.25 9.08a9.93 9.93 0 0 1 3.54 7.4 9.4 9.4 0 0 1-3.27 7.49 121.05 121.05 0 0 1-18.77 13l-4.54 2.34 12.42-.09a141 141 0 0 1 15 1.59 9.47 9.47 0 0 1 6.62 4.59 9.83 9.83 0 0 1 .81 8.14 121.28 121.28 0 0 1-10 21l-2.81 4.4 10.71-6.46a145.53 145.53 0 0 1 13.79-6.37 9 9 0 0 1 7.89.57 9.8 9.8 0 0 1 4.72 6.64 128.12 128.12 0 0 1 1.54 23.31l-.28 5.25 6.17-11.14c2.63-4.22 5.63-8.43 8.8-12.64a9.41 9.41 0 0 1 7.17-3.66 8.89 8.89 0 0 1 7.26 3.38 125.24 125.24 0 0 1 12.6 19.38l2.27 4.68-.09-12.83a155.06 155.06 0 0 1 1.54-15.45 9.76 9.76 0 0 1 4.45-6.83 9 9 0 0 1 7.89-.84 114.6 114.6 0 0 1 20.32 10.3l4.27 2.89-6.27-11c-2.26-4.49-4.26-9.27-6.16-14.23a9.81 9.81 0 0 1 .54-8.15 9.56 9.56 0 0 1 6.44-4.87 115.89 115.89 0 0 1 22.59-1.59l5.08.28-10.8-6.36c-4.08-2.72-8.16-5.81-12.24-9.09a9.88 9.88 0 0 1-3.54-7.39 9.39 9.39 0 0 1 3.27-7.49 120.09 120.09 0 0 1 18.77-13L530 184l-12.43.1a140.53 140.53 0 0 1-15-1.59 9.4 9.4 0 0 1-6.62-4.59 9.85 9.85 0 0 1-.81-8.15 121.39 121.39 0 0 1 10-21l2.8-4.4-10.7 6.46a145.53 145.53 0 0 1-13.79 6.37 9 9 0 0 1-7.89-.56 9.84 9.84 0 0 1-4.72-6.65 127 127 0 0 1-1.54-23.32l.27-5.24-6.16 11.14c-2.64 4.22-5.63 8.43-8.81 12.64a9.35 9.35 0 0 1-7.16 3.65 8.84 8.84 0 0 1-7.26-3.37 125 125 0 0 1-12.61-19.37zM448.23 0a9.67 9.67 0 0 1 7.25 3.47c.73.75 17 18 23.5 46a101 101 0 0 1 2.72 22l-.18 3.93 3.36-6.4c10.34-17 27.48-33.14 56-41.85a9 9 0 0 1 7.43.94 10.22 10.22 0 0 1 4.63 6.74c.27 1 6 24.25-1.91 52a102.21 102.21 0 0 1-8.25 20.41l-2.08 3.37 6-3.74c17.15-9.36 39.92-14.52 68.76-7.31a9.71 9.71 0 0 1 6 4.59 10.52 10.52 0 0 1 .73 8.24c-.28 1-6.62 24.06-26.85 44a98.13 98.13 0 0 1-17.06 13.38l-3.35 1.78 7-.19c19.41.75 41.55 8.06 63 29.12a9.83 9.83 0 0 1 2.91 7.12 10.27 10.27 0 0 1-3.36 7.49c-.72.74-17.41 17.5-44.54 24.25a91.59 91.59 0 0 1-21.32 2.8l-3.81-.18 6.17 3.46c16.51 10.68 32.12 28.37 40.55 57.77a9.88 9.88 0 0 1-7.44 12.45c-1 .28-23.49 6.18-50.34-2a95.81 95.81 0 0 1-19.78-8.53l-3.3-2.11 3.62 6.18c9.07 17.7 14.06 41.2 7.08 71a10 10 0 0 1-4.45 6.18 9.64 9.64 0 0 1-8 .75c-1-.28-23.31-6.84-42.64-27.72a100.81 100.81 0 0 1-13-17.6l-1.72-3.46.18 7.21c-.73 20-7.8 42.88-28.21 65.07a9.29 9.29 0 0 1-6.9 3 9.7 9.7 0 0 1-7.25-3.46c-.73-.75-17-18-23.5-46a100.8 100.8 0 0 1-2.72-22l.18-3.93-3.34 6.32c-10.35 17-27.49 33.14-56 41.85a9.07 9.07 0 0 1-7.43-.93 10.25 10.25 0 0 1-4.63-6.74c-.27-1-6-24.25 1.9-52a102.5 102.5 0 0 1 8.26-20.4l2.08-3.38-6 3.74c-17.15 9.37-39.92 14.52-68.76 7.31a9.65 9.65 0 0 1-6-4.59 10.56 10.56 0 0 1-.73-8.24c.28-1 6.62-24.06 26.85-44a98.2 98.2 0 0 1 17.06-13.39L320 242l-7 .19c-19.41-.75-41.54-8.05-63.05-29.12a9.85 9.85 0 0 1-2.9-7.11 10.27 10.27 0 0 1 3.36-7.49c.72-.75 17.41-17.51 44.54-24.25a91.6 91.6 0 0 1 21.32-2.81l3.81.19-6.08-3.45c-16.51-10.67-32.12-28.37-40.55-57.77a9.89 9.89 0 0 1 7.44-12.45 86.7 86.7 0 0 1 22.86-2.24 100.66 100.66 0 0 1 27.45 4.21 95.78 95.78 0 0 1 19.8 8.52l3.54 2.62-4-6.65c-9.07-17.7-14.07-41.19-7.08-71a9.92 9.92 0 0 1 4.45-6.17 8.91 8.91 0 0 1 4.71-1.32 10.87 10.87 0 0 1 3.18.57c1 .28 23.31 6.83 42.63 27.71a100.36 100.36 0 0 1 13 17.6l1.72 3.46-.18-7.2c.72-20 7.8-42.88 28.21-65.08a10.37 10.37 0 0 1 7.08-3z"/><path class="cls-3" d="M349.53 209.35c0-58.71 46.08-106.27 103-106.27s103 47.56 103 106.27-46.08 106.26-103 106.26-103-47.56-103-106.26z"/><path class="cls-5" d="M377.65 208.88c0-42.42 33.47-76.78 74.84-76.78s74.84 34.36 74.84 76.78-33.47 76.77-74.84 76.77-74.84-34.36-74.84-76.77z"/><path class="cls-1" d="M93.34 503.6a10.68 10.68 0 0 0-.33 9c.41 1.08 9.64 25.91 35.42 46.35a117.12 117.12 0 0 0 45.73 22.2c20.51 5 43.25 5 67.72.16a11.35 11.35 0 0 0 7.67-5.4A9.81 9.81 0 0 0 250 567c-.41-1-11.12-24.91-34.6-45.35-22.25-19.35-60.23-39.09-115.18-23.44a10.89 10.89 0 0 0-6.84 5.4z"/><path class="cls-1" d="m305.57 638.85.66 1.09.82.92 1 .77 1.07.62 1.16.46 1.23.31 1.24.15 1.23-.07 1.24-.24 1.24-.46 1.15-.61 1-.77.82-.93.66-1 .5-1.08.33-1.16.16-1.16-.08-1.15-.25-1.16-.49-1.16-.25-.46-.49-.93-.25-.46-.25-.46-.25-.46-.24-.47-.25-.46-.49-.92-.25-.47-.25-.46-.25-.46-.24-.46-.25-.47-.25-.46-.25-.46-.49-.93-.25-.46-.24-.46.33-.08-.25-.46-.25-.47-.25-.46-.24-.46-.25-.46-.49-.93-.25-.46-.25-.46-.25-.47-.24-.46-.25-.46-.25-.46-.25-.47-.49-.92-.25-.47-.24-.46-.25-.46-.25-.47-.25-.45-.24-.47-.25-.46-.49-.93-.25-.46-.25-.46-.25-.47-.24-.46-.25-.46-.49-.93-.25-.46-.25-.46-.25-.46-.24-.47-.25-.46-.25-.46-.25-.46-.32-.47-1.65-2.31-.33-.46-.33-.39-.33-.38-.33-.39-.66-.77-.33-.39-.33-.38-.33-.39-.66-.77-.33-.38-.33-.39-.33-.39-.66-.76-.33-.39-.33-.39-.33-.38-.32-.39-.33-.38-.33-.39-.33-.38-.33-.39-.66-.77-.41-.39-.42-.38-.41-.39-.41-.38-.41-.39-.74-.69-.41-.39-.42-.39-.41-.38-.41-.38-.41-.39-.41-.39-.42-.38-.41-.31-.82-.62-.41-.31-.41-.3-.42-.31-.82-.62-.41-.31-.41-.31-.42-.31-.41-.31-.41-.3-.41-.31-.41-.31-.42-.31-.82-.61-.41-.31-.41-.31-.42-.31-.82-.62-.41-.31-.41-.31-.42-.3-.49-.31-3-1.85-.49-.23-.49-.24-.5-.22-.49-.24-.5-.23-.49-.23-1-.46-.5-.23-.49-.23-.49-.24-.5-.23-.49-.23-1-.46-.5-.23-.49-.23-.5-.24-.49-.23-.49-.23-.5-.23-.49-.23-1-.46-.5-.24-.49-.23-.49-.23-.5-.23-.49-.23-.5-.23-.33.15-.49-.23-1-.46-.49-.23-.5-.23-.49-.24-.49-.23-.5-.23-.49-.23-.5-.23-1-.46-.49-.24-.5-.23-.49-.23-.49-.23-.5-.23-1-.46-.49-.23-.49-.23-.5-.24-.49-.23-.5-.23-.49-.23-.5-.23-.49-.23-1-.39-2.14-.31-2.56.08-2.39.77-2 1.47-1.49 2-.74 2.39.08 2.39.83 2.24 1.56 1.85 2.15 1.38 1 .39.5.23.49.24.5.23.49.23 1 .46.5.23.49.23.49.24.5.22.49.24.5.23.49.23 1 .46.49.23.5.23.49.24.5.23.49.23 1 .46.5.23.49.23.49.24.5.23.49.23.41.23.41.23.42.23.41.23.41.24.41.23.41.23.42.23.41.23.41.23.41.24.83.45.41.24.41.23.41.23.41.23.41.23.42.23.41.23.41.24.41.23.41.23.42.23.41.23.41.23.41.24.41.23.42.23.41.23.41.23.41.23.41.23.42.23.41.24.41.23.82.46.42.23.41.23.41.23.41.23.41.24.42.23.41.23.41.23.33.23.33.23.33.23.33.24.33.23.33.23.66.46.33.23.33.23.33.24.33.23.32.23.33.31.33.3 3 2.78.33.23.66.62 2 1.85.33.31 1 .92.32.31.25.31.25.31.25.31.24.31.25.3.25.31.25.31.24.31.25.31.25.31.24.3.25.31.25.39.24.38.25.39.25.39.25.38.24.39.25.38.25.39.24.38.25.39.25.39.49.76.25.39.25.39.24.38.25.39.25.38.25.39.24.38.25.39.24.39.25.38.25.39.25.38.24.39.25.38.25.39.25.39.24.38.25.39.25.38.24.38.25.39.25.39.25.39.49.76.25.39.24.38.25.39.25.39.25.38.24.39.25.38.25.39.24.46.25.46.25.47.25.46.24.46.25.46.25.47.25.46.24.46.25.46.25.47.24.46.25.46.25.47.25.46.49.93.25.46.24.46.25.46.25.47.25.46.24.46.25.46.25.47.24.46.25.46.25.46zm229.7-170.34a10.68 10.68 0 0 1 .33 9c-.41 1.08-9.64 25.91-35.43 46.35a117.17 117.17 0 0 1-45.72 22.21c-20.52 5-43.26 5-67.73.15a11.35 11.35 0 0 1-7.66-5.4 9.81 9.81 0 0 1-.41-8.94c.41-1 11.12-24.91 34.6-45.34 22.25-19.36 60.23-39.1 115.18-23.45a10.3 10.3 0 0 1 6.84 5.4z"/><path class="cls-1" d="m322.87 604.08-.66 1.08-.82.92-1 .77-1.07.62-1.15.46-1.24.31-1.23.16-1.32-.08-1.32-.23-1.24-.47-1.15-.61-1-.77-.82-.93-.66-1-.5-1.08-.33-1.16-.16-1.16.08-1.23.25-1.23.49-1.16.25-.46.25-.46.24-.47.25-.46.25-.46.25-.47.24-.46.25-.46.25-.46.24-.46.25-.47.25-.46.25-.46.49-.93.25-.46.24-.46.25-.47.25-.46.28-.5.24-.46.25-.47.49-.92.25-.46.25-.47.25-.46.24-.46.25-.47.25-.46.25-.46.24-.47.25-.45.25-.47.24-.46.25-.46.25-.47.25-.46.49-.93.25-.46.24-.46.25-.46.25-.47.25-.46.24-.46.25-.47.49-.92.25-.46.25-.46.25-.47.24-.46.25-.46.25-.47.25-.46.24-.46.25-.46.25-.47 1.32-1.85.32-.46.33-.46.33-.46 1.32-1.86.33-.38.33-.39.33-.38.33-.39.33-.38.33-.39.32-.39.34-.38.32-.39.67-.77.32-.38.33-.39.33-.39.66-.76.33-.39.33-.39.33-.38.66-.77.33-.39.41-.38.41-.39.41-.38.42-.39.41-.39.41-.38.74-.7.41-.38.42-.39.41-.38.41-.39.41-.39.41-.38.42-.38.41-.39.41-.31.41-.31.41-.3.42-.31.41-.31.41-.31.82-.62.42-.31.41-.3.41-.31.82-.62.42-.31.41-.31.41-.3.82-.62.42-.31.41-.31.41-.31.82-.61 2-1.24.5-.3.49-.31.49-.31 1.49-.93.49-.23 1-.46.5-.24.49-.22.49-.24.5-.23.49-.23 1-.46.5-.23.49-.23.5-.24.49-.23.49-.23.5-.23.49-.23 1-.46.49-.24.5-.23.49-.23.5-.23.49-.23.5-.23.49-.24 1-.45.49-.24.5-.23.49-.23.49-.23.5-.24 1-.45.49-.24.5-.23.49-.23.49-.23.5-.23.49-.23.5-.24 1-.46.49-.23.5-.23.49-.23.49-.23.5-.24.49-.23.5-.23 1-.46.49-.23.5-.23.49-.23.49-.23 1-.39 2.56-.69 2.55.07 2.39.77 2.06 1.47 1.48 2.08.74 2.39-.08 2.39-.82 2.24-1.57 1.92-2.22 1.39-1 .39-.49.23-.5.23-.49.24-1 .45-.5.24-.49.23-.49.23-.5.23-.49.23-1 .46-.5.24-.49.23-.5.23-.49.23-.49.23-.5.23-.49.24-1 .46-.5.23-.49.23-.5.23-.49.23-.49.23-.5.24-.49.23-1 .46-.5.23-.41.23-.41.23-.41.23-.41.24-.42.23-.41.23-.41.23-.41.23-.41.23-.91.47-.41.23-.41.23-.42.23-.41.23-.41.23-.41.23-.41.24-.42.23-.41.23-.41.23-.41.23-.41.23-.42.23-.45.32-.41.22-.41.24-.41.23-.41.23-.41.23-.42.23-.41.23-.41.23-.41.24-.41.23-.42.23-.41.23-.41.23-.41.23-.41.23-.42.24-.41.23-.41.23-.41.23-.41.23-.33.23-.33.24-.66.45-.33.24-.33.23-.33.23-.33.23-.33.23-.33.31-.33.31-3.3 3.09-.32.3-.33.31-3.3 3.09-.33.31-.33.3-.33.31-.25.31-.24.31-.25.31-.25.3-.25.31-.49.62-.25.31-.24.31-.25.31-.25.38-.25.38-.24.39-.25.39-.25.38-.24.39-.25.38-.25.39-.25.38-.24.39-.25.39-.25.38-.24.39-.25.38-.25.39-.25.38-.24.39-.23.33-.25.38-.25.39-.49.77-.25.38-.24.39-.25.39-.25.38-.25.38-.24.39-.25.39-.25.38-.24.39-.25.38-.25.39-.25.38-.24.39-.25.39-.25.38-.24.39-.25.38-.25.39-.25.38-.24.39-.25.39-.25.38-.25.39-.24.38-.25.46-.25.47-.24.46-.25.46-.24.46-.26.47-.49.92-.24.47-.25.46-.25.46-.25.47-.24.45-.25.47-.25.46-.49.93-.25.46-.25.46-.24.47-.25.46-.25.46-.24.46-.25.46-.49.93-.25.46-.25.47-.25.46-.24.46z"/><path class="cls-2" d="M310.84 688.75c5.28 0 9.48-3.94 9.48-8.87v-251h-18.95v251c0 4.93 4.2 8.87 9.47 8.87z"/><path class="cls-3" d="m282.17 244.19 3.22 10.11a121.87 121.87 0 0 1 2.55 12.56 7.69 7.69 0 0 1-2.14 6.48 8.85 8.85 0 0 1-6.68 2.62 105 105 0 0 1-20.26-3.24l-4.45-1.23 8.23 7.25c3.05 3 6 6.25 8.9 9.71a7.32 7.32 0 0 1 1.57 6.56 8.39 8.39 0 0 1-4.37 5.4 112.45 112.45 0 0 1-19.27 6.7l-4.45 1 10.98 2.4c4.28 1.16 8.57 2.62 12.94 4.24a8.26 8.26 0 0 1 4.86 4.94 7.74 7.74 0 0 1-.91 6.7 95.94 95.94 0 0 1-13.1 14.81l-3.38 3 10.8-3c4.36-1 8.81-1.78 13.43-2.39a9 9 0 0 1 6.92 2 7.8 7.8 0 0 1 2.8 6.25 87.28 87.28 0 0 1-3.46 19l-1.32 4.16 7.74-7.71q4.83-4.28 10.38-8.33a8.69 8.69 0 0 1 7-1.46 8.86 8.86 0 0 1 5.77 4.08 99.38 99.38 0 0 1 7.17 18.05l1.07 4.17 2.55-10.26a126.62 126.62 0 0 1 4.53-12.11 8.38 8.38 0 0 1 5.27-4.55 9.34 9.34 0 0 1 7.17.85A100.44 100.44 0 0 1 360 365.18l3.21 3.16-3.21-10.1a122.6 122.6 0 0 1-2.55-12.57 7.71 7.71 0 0 1 2.14-6.48 8.85 8.85 0 0 1 6.67-2.62 105.88 105.88 0 0 1 20.27 3.24l4.45 1.24-8.24-7.25q-4.57-4.51-8.9-9.72a7.32 7.32 0 0 1-1.57-6.55 8.4 8.4 0 0 1 4.37-5.4 113.27 113.27 0 0 1 19.36-6.71l4.45-1-11-2.39c-4.28-1.16-8.57-2.63-12.93-4.25a8.26 8.26 0 0 1-4.87-4.93 7.76 7.76 0 0 1 .91-6.71 96.15 96.15 0 0 1 13.1-14.8l3.38-3-10.79 3c-4.37 1-8.82 1.77-13.43 2.39a9 9 0 0 1-6.92-2 7.72 7.72 0 0 1-2.8-6.25 87.34 87.34 0 0 1 3.46-19l1.32-4.17-7.75 7.71q-4.81 4.29-10.38 8.33a8.69 8.69 0 0 1-7 1.47 8.8 8.8 0 0 1-5.76-4.09 97 97 0 0 1-7.17-18l-1.07-4.16-2.55 10.26a128.16 128.16 0 0 1-4.53 12.1 8.37 8.37 0 0 1-5.28 4.55 9.3 9.3 0 0 1-7.17-.84 101.1 101.1 0 0 1-15.81-12.27zm-10.46-101.4a9.38 9.38 0 0 1 7.17 1 90.56 90.56 0 0 1 32 30.61 81.31 81.31 0 0 1 7.91 16.66l.83 3.16 1.32-5.86c4.78-16 15.65-32.77 38.31-46.58a8.78 8.78 0 0 1 6.67-1.07 8.69 8.69 0 0 1 5.68 4.24c.5.69 11.29 17.73 11.37 41.48a78.09 78.09 0 0 1-2.06 18.13l-1 3.08 4.29-4.47c12.61-11.57 31.06-21 58-22.36a8.6 8.6 0 0 1 6.34 2.23 8.06 8.06 0 0 1 2.64 6.32 83.2 83.2 0 0 1-12.36 41.26 81.42 81.42 0 0 1-11.53 14.73l-2.47 2.24 6.1-1.86c17.13-4.08 38.22-3.7 62.2 7.79a8.25 8.25 0 0 1 4.28 4.86 7.88 7.88 0 0 1-1.07 6.71c-.41.77-10.79 18-32.71 29.92a93.54 93.54 0 0 1-17.8 7.4l-3.37.77 6.26 1.24c17.06 4.47 35 14.65 49.76 35.86a7.65 7.65 0 0 1 1.16 6.24 8.44 8.44 0 0 1-4.54 5.32c-.74.47-18.95 10.57-44.32 10.64a94.67 94.67 0 0 1-19.36-1.92l-3.3-.93 4.78 4c12.36 11.8 22.49 29.07 23.89 54.29a7.73 7.73 0 0 1-2.39 5.93 9.28 9.28 0 0 1-6.75 2.47 98.85 98.85 0 0 1-44.08-11.57A86.56 86.56 0 0 1 387.8 404l-2.39-2.31 2 5.7c4.37 16 4 35.78-8.32 58.22a8.53 8.53 0 0 1-5.19 4 9.38 9.38 0 0 1-7.17-1 90.63 90.63 0 0 1-32-30.61 84.14 84.14 0 0 1-7.9-16.66l-.83-3.16-1.31 5.82c-4.78 16-15.66 32.77-38.32 46.58a9.16 9.16 0 0 1-6.67 1.08 8.7 8.7 0 0 1-5.68-4.25c-.5-.69-11.29-17.73-11.38-41.48a78.15 78.15 0 0 1 2.06-18.13l1-3.08-4.28 4.47c-12.6 11.57-31.06 21.06-58 22.37a9 9 0 0 1-6.35-2.24 8.07 8.07 0 0 1-2.63-6.32 83.2 83.2 0 0 1 12.36-41.26A81.42 81.42 0 0 1 218.32 367l2.47-2.24-6.09 1.86c-17.14 4.08-38.23 3.7-62.21-7.79a8.25 8.25 0 0 1-4.28-4.86 7.88 7.88 0 0 1 1.07-6.71c.41-.77 10.79-18 32.71-29.92a93.45 93.45 0 0 1 17.79-7.4l3.38-.77-6.26-1.17c-17.05-4.48-35-14.66-49.76-35.87a7.33 7.33 0 0 1-1.15-6.24 8.41 8.41 0 0 1 4.53-5.32 84.16 84.16 0 0 1 19.36-7.33 104.92 104.92 0 0 1 25-3.31 90 90 0 0 1 19.36 2l3.71 1.24-5.11-4.32c-12.36-11.8-22.49-29.07-23.89-54.29a7.46 7.46 0 0 1 2.39-5.93 8.31 8.31 0 0 1 3.79-2.17 17.87 17.87 0 0 1 2.88-.38 98.85 98.85 0 0 1 44.08 11.57 86.64 86.64 0 0 1 15.74 10.79l2.38 2.31-2-5.7c-4.37-16-4-35.78 8.32-58.22a8.5 8.5 0 0 1 5.19-4z"/><path class="cls-4" d="m294.36 235 .09 10.56a116.5 116.5 0 0 1-1.4 12.73 8 8 0 0 1-4 5.62 8.92 8.92 0 0 1-7.17.7 110.07 110.07 0 0 1-18.45-8.49l-3.88-2.39 5.69 9.1a121 121 0 0 1 5.6 11.73 7.4 7.4 0 0 1-.49 6.7 8.6 8.6 0 0 1-5.85 4 114 114 0 0 1-20.52 1.31l-4.61-.23 9.81 5.25c3.7 2.23 7.41 4.78 11.11 7.47a7.91 7.91 0 0 1 3.22 6.1 7.45 7.45 0 0 1-3 6.17 110.54 110.54 0 0 1-17.05 10.71l-4.13 1.96 11.29-.07c4.45.23 9 .61 13.59 1.31a8.56 8.56 0 0 1 6 3.78 7.47 7.47 0 0 1 .74 6.7A96.66 96.66 0 0 1 261.9 353l-2.55 3.62 9.72-5.32c4-1.93 8.16-3.62 12.53-5.24a8.89 8.89 0 0 1 7.17.46 8.17 8.17 0 0 1 4.28 5.48 94.7 94.7 0 0 1 1.4 19.2l-.25 4.32 5.6-9.18c2.39-3.47 5.11-6.94 8-10.41a8.87 8.87 0 0 1 6.51-3 8.42 8.42 0 0 1 6.6 2.78 102.81 102.81 0 0 1 11.44 16l2.06 3.86-.09-10.57a116.05 116.05 0 0 1 1.4-12.72 8 8 0 0 1 4-5.63 8.92 8.92 0 0 1 7.17-.7 110.07 110.07 0 0 1 18.45 8.49l3.88 2.38-5.69-9.09A121.91 121.91 0 0 1 358 336a7.41 7.41 0 0 1 .49-6.71 8.6 8.6 0 0 1 5.85-4 115.22 115.22 0 0 1 20.52-1.31l4.61.23-9.8-5.24c-3.71-2.24-7.42-4.79-11.13-7.49a7.9 7.9 0 0 1-3.21-6.09 7.45 7.45 0 0 1 3-6.17 110.12 110.12 0 0 1 17.05-10.72l4.12-1.92-11.29.07c-4.45-.23-9-.61-13.59-1.31a8.54 8.54 0 0 1-6-3.78 7.43 7.43 0 0 1-.74-6.71 95.89 95.89 0 0 1 9.06-17.27l2.55-3.62-9.72 5.32c-3.95 1.93-8.16 3.62-12.52 5.24A8.89 8.89 0 0 1 340 264a8.16 8.16 0 0 1-4.29-5.48 95.47 95.47 0 0 1-1.4-19.2l.25-4.31-5.6 9.17c-2.39 3.47-5.11 6.94-8 10.41a8.87 8.87 0 0 1-6.51 3 8.4 8.4 0 0 1-6.59-2.78 102.87 102.87 0 0 1-11.46-16zm20.85-100a9.13 9.13 0 0 1 6.59 2.85 85.34 85.34 0 0 1 21.34 37.86 75.82 75.82 0 0 1 2.47 18.13l-.16 3.23 3.05-5.24c9.39-14 25-27.29 50.83-34.47a9 9 0 0 1 6.75.77 8.46 8.46 0 0 1 4.21 5.56 81.28 81.28 0 0 1-1.74 42.79 80.21 80.21 0 0 1-7.49 16.82l-1.9 2.77 5.44-3.07c15.57-7.71 36.25-12 62.45-6a8.74 8.74 0 0 1 5.44 3.78 8 8 0 0 1 .66 6.79c-.25.84-6 19.81-24.39 36.24a87.92 87.92 0 0 1-15.49 11l-3 1.47 6.34-.16c17.63.62 37.73 6.64 57.26 24a7.73 7.73 0 0 1 2.64 5.86 8.22 8.22 0 0 1-3.05 6.17c-.66.61-15.82 14.42-40.46 20a90.72 90.72 0 0 1-19.36 2.31l-3.46-.15 5.6 2.85c15 8.79 29.17 23.37 36.83 47.58a7.53 7.53 0 0 1-.82 6.33 9.06 9.06 0 0 1-5.93 3.93 98.61 98.61 0 0 1-45.73-1.62 92.71 92.71 0 0 1-18-7l-3-1.77 3.3 5.09c8.24 14.57 12.77 33.93 6.42 58.45a8.28 8.28 0 0 1-4 5.09 9.56 9.56 0 0 1-7.25.61A94.73 94.73 0 0 1 358.88 431a84 84 0 0 1-11.79-14.5l-1.56-2.85.16 5.94c-.66 16.5-7.08 35.31-25.62 53.59a8.82 8.82 0 0 1-6.26 2.47 9.13 9.13 0 0 1-6.59-2.86 85.19 85.19 0 0 1-21.34-37.86 75.74 75.74 0 0 1-2.47-18.12l.16-3.24-3 5.24c-9.4 14-25 27.3-50.84 34.47a9 9 0 0 1-6.76-.77 8.38 8.38 0 0 1-4.19-5.55c-.25-.85-5.44-20 1.72-42.8a80.6 80.6 0 0 1 7.5-16.8l1.89-2.78-5.43 3.08c-15.57 7.71-36.26 11.95-62.45 6a8.74 8.74 0 0 1-5.44-3.78 8 8 0 0 1-.66-6.79c.25-.85 6-19.81 24.39-36.24a88.12 88.12 0 0 1 15.49-11l3-1.46-6.34.15c-17.63-.62-37.73-6.63-57.26-24a7.75 7.75 0 0 1-2.64-5.86 8.22 8.22 0 0 1 3-6.17c.66-.62 15.82-14.42 40.46-20a91.38 91.38 0 0 1 19.36-2.32l3.46.16-5.61-2.86c-15-8.79-29.16-23.36-36.82-47.57a7.49 7.49 0 0 1 .82-6.33 9.06 9.06 0 0 1 5.93-3.93 86.93 86.93 0 0 1 20.85-1.85 100.56 100.56 0 0 1 25 3.47 92.32 92.32 0 0 1 18 7l3.21 2.15-3.73-5.43c-8.24-14.58-12.77-33.93-6.43-58.45a8.29 8.29 0 0 1 4-5.09 8.81 8.81 0 0 1 4.28-1.08 11.09 11.09 0 0 1 2.89.46A94.81 94.81 0 0 1 270 179.65a83.44 83.44 0 0 1 11.78 14.49l1.57 2.86-.17-5.94c.66-16.5 7.09-35.32 25.62-53.59a9.94 9.94 0 0 1 6.43-2.47z"/><path class="cls-3" d="M225.57 307.42c0-48.35 41.85-87.52 93.51-87.52s93.51 39.17 93.51 87.52S370.74 395 319.08 395s-93.51-39.18-93.51-87.53z"/><path class="cls-5" d="M251.11 307c0-34.94 30.4-63.23 68-63.23s68 28.29 68 63.23-30.4 63.23-68 63.23-68-28.3-68-63.23z"/><path class="cls-1" d="m95.82 635.26.37.7.45.61.55.5.59.4.64.3.69.2.68.1.68-.05.69-.15.68-.3.64-.4.55-.5.46-.61.36-.65.28-.7.18-.75.09-.75-.05-.76-.13-.75-.28-.75-.14-.3-.27-.6-.14-.3-.13-.3-.14-.3-.14-.3-.13-.3-.28-.61-.13-.3-.14-.3-.14-.3-.13-.3-.14-.3-.14-.3-.14-.3-.27-.6-.14-.31-.13-.29.18-.06-.14-.3-.11-.28-.14-.3-.14-.3-.14-.3-.27-.6-.13-.3-.14-.3-.14-.3-.13-.31-.14-.29-.14-.31-.14-.3-.27-.6-.14-.3-.13-.3-.14-.3-.14-.3-.13-.3-.14-.3-.14-.3-.27-.61-.14-.3-.13-.3-.14-.3-.14-.3-.14-.3-.27-.6-.14-.3-.13-.3-.14-.3-.14-.31-.13-.29-.14-.3-.14-.31-.18-.3-.91-1.5-.19-.3-.18-.25-.18-.25-.18-.26-.37-.49-.18-.26-.18-.25-.19-.25-.36-.5-.18-.25-.19-.25-.18-.25-.36-.5-.19-.25-.18-.25-.18-.26-.18-.24-.18-.25-.19-.26-.18-.25-.18-.25-.37-.5-.23-.25-.23-.25-.22-.25-.23-.25-.23-.25-.41-.45-.23-.25-.23-.26-.23-.24-.22-.25-.23-.26-.23-.25-.23-.25-.23-.2-.45-.4-.23-.2-.23-.2-.23-.2-.45-.4-.23-.2-.23-.2-.23-.2-.22-.21-.23-.19-.23-.2-.23-.2-.23-.21-.45-.4-.23-.2-.23-.2-.23-.2-.45-.4-.23-.2-.23-.2-.23-.2-.27-.2-1.65-1.21-.27-.14-.27-.16-.28-.15-.27-.17-.27-.15-.28-.15-.55-.3-.27-.15-.27-.15-.28-.15-.27-.15-.27-.15-.55-.3-.28-.15-.27-.15-.27-.15-.28-.15-.27-.15-.27-.15-.28-.16-.55-.29-.27-.15-.25-.15-.28-.16-.27-.15-.27-.15-.28-.15-.18.1-.27-.15-.55-.3-.28-.15-.27-.15-.27-.15-.28-.15-.27-.15-.27-.15-.28-.15-.55-.3-.27-.15-.27-.15-.28-.15-.27-.15-.27-.15-.55-.3-.32-.14-.27-.15-.27-.16-.28-.15-.27-.15-.27-.15-.28-.15-.27-.15-.55-.25-1.19-.2h-1.41l-1.32.5-1.1 1-.82 1.3-.41 1.55v1.56l.46 1.45.87 1.2 1.19.91.54.25.27.15.28.15.27.15.28.15.54.3.28.15.27.15.28.15.27.15.27.15.28.15.27.15.55.3.27.15.28.15.27.15.27.15.28.16.55.29.27.16.27.15.28.15.27.15.27.15.23.15.23.15.23.15.23.15.22.15.23.15.23.15.23.15.23.15.22.15.23.15.46.3.23.15.23.15.22.15.23.15.23.16.23.15.23.14.23.16.22.15.23.15.23.15.23.15.23.15.22.15.23.15.23.15.23.15.23.15.22.15.23.15.23.15.23.15.23.15.45.3.23.15.23.15.23.15.23.15.22.16.23.15.23.14.23.16.18.15.18.15.19.15.18.15.18.15.18.15.37.3.18.15.18.15.19.15.18.15.18.15.18.2.19.2 1.64 1.81.18.15.37.4 1.09 1.2.18.2.55.6.18.2.14.2.14.21.13.2.14.2.14.2.13.2.14.2.14.2.13.2.14.2.14.2.14.2.13.25.14.25.14.25.13.25.14.25.14.26.13.25.14.24.14.26.13.25.14.25.27.5.21.23.14.25.14.25.13.25.14.25.14.25.14.25.13.26.14.25.13.24.14.26.14.25.13.25.14.25.14.25.14.25.13.25.14.25.14.25.13.25.14.25.14.25.14.26.27.49.13.26.14.25.14.25.13.25.14.25.14.25.14.25.13.25.14.3.14.3.13.3.14.3.14.31.13.3.14.3.14.3.13.3.14.3.14.3.13.3.14.3.14.3.14.3.27.61.14.29.13.31.14.3.14.3.13.3.14.3.14.3.14.3.13.3.14.3.14.3zM223 524.52a8.08 8.08 0 0 1 .19 5.87 76.37 76.37 0 0 1-19.63 30.13A61.41 61.41 0 0 1 178.27 575c-11.36 3.26-24 3.26-37.51.1a6.42 6.42 0 0 1-4.24-3.51 7.38 7.38 0 0 1-.23-5.81 93.63 93.63 0 0 1 19.17-29.48c12.32-12.58 33.35-25.42 63.79-15.24a6 6 0 0 1 3.78 3.51z"/><path class="cls-1" d="m105.4 612.65-.36.71-.46.6-.55.5-.59.4-.64.3-.68.2-.69.1-.73-.05-.73-.15-.68-.3-.64-.4-.55-.5-.45-.6-.37-.66-.27-.7-.19-.75-.09-.75v-.81l.14-.8.27-.75.14-.3.13-.3.14-.3.14-.3.13-.3.14-.3.14-.31.13-.29.14-.31.14-.3.14-.3.13-.3.14-.3.27-.6.14-.3.14-.3.13-.3.14-.3.14-.3.13-.31.14-.3.27-.6.14-.3.14-.3.14-.3.13-.3.14-.3.14-.3.13-.3.14-.31.14-.29.13-.3.14-.31.14-.3.13-.3.14-.3.27-.6.14-.3.14-.3.14-.3.13-.3.14-.3.14-.31.13-.3.28-.6.13-.3.14-.3.14-.3.13-.3.14-.3.14-.3.14-.3.13-.31.14-.29.14-.3.73-1.21.18-.3.18-.3.18-.3.73-1.2.19-.25.18-.26.18-.25.18-.25.19-.25.18-.25.18-.25.18-.25.19-.25.36-.5.18-.25.19-.25.18-.25.36-.5.19-.26.18-.25.18-.25.37-.5.18-.25.23-.25.22-.25.23-.25.23-.25.23-.25.23-.25.41-.46.23-.24.23-.25.22-.26.23-.25.23-.25.23-.25.23-.25.22-.25.23-.2.23-.2.23-.2.23-.2.22-.2.23-.2.46-.4.23-.2.22-.2.23-.21.46-.4.23-.2.23-.2.22-.2.46-.4.23-.2.23-.2.23-.2.45-.4 1.1-.8.27-.2.27-.2.28-.2.82-.61.27-.15.55-.3.27-.15.28-.15.27-.15.27-.15.28-.15.55-.3.27-.15.27-.15.28-.15.27-.15.27-.15.28-.15.27-.15.55-.3.27-.15.28-.15.27-.16.27-.15.28-.15.27-.15.28-.15.54-.3.28-.15.27-.15.27-.15.28-.15.27-.15.55-.3.27-.15.28-.15.27-.15.27-.15.28-.15.27-.15.28-.15.54-.3.28-.15.27-.15.27-.16.28-.14.27-.16.28-.15.27-.15.55-.3.27-.15.28-.15.27-.15.27-.15.55-.25 1.42-.45h1.41l1.32.5 1.14 1 .82 1.36.42 1.55-.05 1.55-.46 1.46-.86 1.25-1.24.9-.54.25-.28.16-.27.15-.27.15-.55.3-.28.15-.27.15-.27.15-.28.15-.27.15-.55.3-.27.15-.28.15-.27.15-.27.15-.28.15-.27.15-.27.15-.55.3-.28.15-.27.15-.27.16-.28.14-.27.16-.27.15-.28.15-.55.3-.27.15-.23.15-.23.15-.22.15-.23.15-.23.15-.23.15-.23.15-.22.15-.23.15-.51.3-.22.15-.23.15-.23.15-.23.15-.23.15-.22.15-.23.15-.23.15-.23.16-.23.15-.22.15-.23.15-.23.15-.23.15-.23.15-.23.15-.22.15-.23.15-.23.15-.23.15-.23.15-.22.15-.23.15-.23.15-.23.15-.23.15-.22.15-.23.15-.23.15-.23.15-.23.15-.22.15-.23.15-.23.16-.18.15-.19.15-.36.3-.18.15-.19.15-.18.15-.18.15-.18.15-.19.2-.18.2-1.83 2-.18.2-.18.19-1.83 2-.18.2-.18.2-.18.2-.14.2-.14.2-.13.2-.14.21-.14.2-.27.4-.14.2-.13.2-.14.2-.14.25-.14.25-.13.25-.14.25-.14.25-.13.25-.14.25-.14.25-.13.25-.14.26-.14.25-.13.24-.14.26-.14.25-.13.25-.14.25-.14.25-.14.25-.13.25-.14.25-.27.5-.14.25-.14.25-.13.26-.14.25-.14.24-.13.26-.14.25-.14.25-.13.25-.14.25-.14.25-.14.25-.13.25-.14.25-.14.25-.13.25-.14.25-.14.26-.13.25-.14.24-.14.26-.13.25-.14.25-.14.25-.13.3-.14.3-.14.3-.14.3-.13.3-.14.3-.27.61-.14.3-.14.3-.13.3-.14.3-.14.3-.13.3-.14.3-.27.6-.14.3-.14.3-.14.31-.13.3-.14.29-.14.31-.13.3-.28.6-.13.3-.14.3-.14.3-.13.3z"/><path class="cls-2" d="M98.74 667.7a5.5 5.5 0 0 0 5.25-5.77V498.75h-10.5v163.18a5.5 5.5 0 0 0 5.25 5.77z"/><path class="cls-3" d="m82.86 378.69 1.78 6.56c.59 2.66 1 5.37 1.42 8.18a5.59 5.59 0 0 1-1.19 4.21 4.55 4.55 0 0 1-3.7 1.7A50.26 50.26 0 0 1 70 397.23l-2.47-.8 4.57 4.72c1.69 2 3.33 4.06 4.93 6.31a5.41 5.41 0 0 1 .86 4.26 5.32 5.32 0 0 1-2.42 3.51 56.12 56.12 0 0 1-10.67 4.36l-2.47.66 6.07 1.55a72.54 72.54 0 0 1 7.17 2.76 5.05 5.05 0 0 1 2.69 3.21 5.8 5.8 0 0 1-.5 4.36 61.6 61.6 0 0 1-7.26 9.62l-1.87 2 6-2A70.49 70.49 0 0 1 82 440.2a4.49 4.49 0 0 1 3.83 1.3 5.48 5.48 0 0 1 1.55 4.06 65.85 65.85 0 0 1-1.92 12.33l-.73 2.71 4.29-5c1.78-1.86 3.7-3.66 5.75-5.42a4.26 4.26 0 0 1 3.88-.95 5 5 0 0 1 3.19 2.66 69.13 69.13 0 0 1 4 11.73l.6 2.71 1.41-6.67c.69-2.61 1.55-5.21 2.51-7.87a4.94 4.94 0 0 1 2.92-3 4.5 4.5 0 0 1 4 .55 57.85 57.85 0 0 1 8.76 8l1.78 2.06-1.82-6.57c-.59-2.66-1-5.36-1.41-8.17a5.53 5.53 0 0 1 1.18-4.21 4.56 4.56 0 0 1 3.7-1.71 50.17 50.17 0 0 1 11.22 2.11l2.47.8-4.57-4.71c-1.68-2-3.33-4.06-4.92-6.32a5.5 5.5 0 0 1 1.55-7.77 57.26 57.26 0 0 1 10.67-4.36l2.47-.65-6.07-1.55a76.64 76.64 0 0 1-7.16-2.76 5.09 5.09 0 0 1-2.7-3.21 5.8 5.8 0 0 1 .51-4.36 60.71 60.71 0 0 1 7.25-9.63l1.87-1.95-6 1.95a71 71 0 0 1-7.44 1.56 4.48 4.48 0 0 1-3.84-1.31 5.47 5.47 0 0 1-1.55-4.06 66 66 0 0 1 1.92-12.33l.73-2.71-4.29 5a80.746 80.746 0 0 1-5.75 5.41 4.25 4.25 0 0 1-3.88.95 5 5 0 0 1-3.19-2.65 69.45 69.45 0 0 1-4-11.74l-.59-2.7-1.42 6.66c-.68 2.61-1.55 5.22-2.51 7.88a4.9 4.9 0 0 1-2.92 2.95 4.5 4.5 0 0 1-4-.55 57.2 57.2 0 0 1-8.76-8zm-5.79-65.93a4.58 4.58 0 0 1 4 .65 54 54 0 0 1 17.7 19.91 57.42 57.42 0 0 1 4.38 10.82l.46 2.06.73-3.81C107 332 113 321.08 125.52 312.11a4.28 4.28 0 0 1 3.7-.7 5 5 0 0 1 3.15 2.76 60.53 60.53 0 0 1 6.3 27 58.83 58.83 0 0 1-1.15 11.78l-.54 2 2.37-2.91c7-7.52 17.2-13.68 32.12-14.53a4.39 4.39 0 0 1 3.52 1.45 5.8 5.8 0 0 1 1.46 4.11 61.61 61.61 0 0 1-6.85 26.82 52.41 52.41 0 0 1-6.39 9.58l-1.37 1.45 3.38-1.2c9.49-2.66 21.17-2.41 34.45 5.06a5.18 5.18 0 0 1 2.37 3.16 5.82 5.82 0 0 1-.59 4.36 54.63 54.63 0 0 1-18.11 19.45 48.11 48.11 0 0 1-9.86 4.82l-1.87.5 3.47.8c9.44 2.91 19.39 9.52 27.56 23.31a5.72 5.72 0 0 1 .64 4.06 5.27 5.27 0 0 1-2.52 3.46 47.84 47.84 0 0 1-24.54 6.92 45.12 45.12 0 0 1-10.73-1.25l-1.82-.61 2.65 2.61c6.84 7.67 12.45 18.9 13.23 35.29a5.53 5.53 0 0 1-1.33 3.86 4.69 4.69 0 0 1-3.74 1.61 48.82 48.82 0 0 1-33.12-14.54l-1.32-1.5 1.09 3.71c2.42 10.42 2.19 23.26-4.61 37.85a4.91 4.91 0 0 1-2.87 2.6 4.57 4.57 0 0 1-4-.65c-.46-.25-10.63-6.57-17.71-19.9a59.9 59.9 0 0 1-4.38-10.83l-.45-2-.73 3.8c-2.65 10.38-8.67 21.31-21.22 30.28a4.42 4.42 0 0 1-3.7.71 5.06 5.06 0 0 1-3.14-2.76 60.22 60.22 0 0 1-6.3-27 58.83 58.83 0 0 1 1.14-11.78l.55-2-2.35 2.88c-7 7.52-17.2 13.68-32.12 14.54a4.52 4.52 0 0 1-3.51-1.46 5.75 5.75 0 0 1-1.46-4.11 61.55 61.55 0 0 1 6.84-26.82 53 53 0 0 1 6.39-9.57l1.37-1.46-3.38 1.21C36 461 24.32 460.7 11 453.23a5.18 5.18 0 0 1-2.37-3.16 5.87 5.87 0 0 1 .59-4.36 54.6 54.6 0 0 1 18.12-19.45 48 48 0 0 1 9.85-4.81l1.88-.5-3.47-.8c-9.45-2.91-19.4-9.53-27.56-23.32a5.46 5.46 0 0 1-.64-4.06 5.3 5.3 0 0 1 2.6-3.46 43.22 43.22 0 0 1 10.72-4.76 50.42 50.42 0 0 1 13.83-2.16 42.65 42.65 0 0 1 10.72 1.31l2.05.8-2.83-2.81C37.6 374 32 362.8 31.21 346.4a5.36 5.36 0 0 1 1.32-3.86 4.54 4.54 0 0 1 2.1-1.4 9.3 9.3 0 0 1 1.6-.25 48.08 48.08 0 0 1 24.41 7.52 48.74 48.74 0 0 1 8.72 7l1.32 1.51-1.1-3.71c-2.41-10.43-2.19-23.26 4.61-37.85a4.92 4.92 0 0 1 2.88-2.61z"/><path class="cls-4" d="M89.61 372.72v6.87c-.14 2.7-.36 5.46-.77 8.27a5.27 5.27 0 0 1-2.24 3.66 4.32 4.32 0 0 1-4 .45 56.5 56.5 0 0 1-10.22-5.51l-2.15-1.56 3.15 5.92c1.14 2.4 2.15 5 3.11 7.62a5.54 5.54 0 0 1-.28 4.36 4.85 4.85 0 0 1-3.24 2.61 54.64 54.64 0 0 1-11.36.85l-2.55-.15 5.43 3.41c2.05 1.45 4.1 3.11 6.15 4.86a5.41 5.41 0 0 1 1.78 4 5.15 5.15 0 0 1-1.64 4 61.41 61.41 0 0 1-9.44 7l-2.28 1.25 6.25-.05a66.76 66.76 0 0 1 7.53.85 4.8 4.8 0 0 1 3.33 2.46 5.6 5.6 0 0 1 .41 4.36 67.21 67.21 0 0 1-5 11.23l-1.42 2.36 5.39-3.46a68.62 68.62 0 0 1 6.93-3.41 4.29 4.29 0 0 1 4 .3 5.26 5.26 0 0 1 2.38 3.56 72.74 72.74 0 0 1 .77 12.48l-.14 2.81 3.11-6c1.32-2.26 2.83-4.52 4.42-6.77a4.63 4.63 0 0 1 3.61-2 4.36 4.36 0 0 1 3.65 1.81 68.19 68.19 0 0 1 6.34 10.37l1.14 2.51-.05-6.87c.14-2.71.37-5.46.78-8.27a5.27 5.27 0 0 1 2.24-3.66 4.29 4.29 0 0 1 4-.45 55.72 55.72 0 0 1 10.27 5.54l2.14 1.55-3.2-5.88c-1.14-2.4-2.14-5-3.1-7.62a5.58 5.58 0 0 1 .27-4.36 4.9 4.9 0 0 1 3.24-2.61 55.57 55.57 0 0 1 11.36-.85l2.56.15-5.43-3.41c-2.05-1.45-4.11-3.1-6.16-4.86a5.48 5.48 0 0 1-1.78-4 5.22 5.22 0 0 1 1.64-4 61.82 61.82 0 0 1 9.45-7l2.28-1.25-6.25.05a66.5 66.5 0 0 1-7.53-.85 4.75 4.75 0 0 1-3.33-2.46 5.56 5.56 0 0 1-.41-4.36 66.81 66.81 0 0 1 5-11.23l1.41-2.36-5.38 3.46a71 71 0 0 1-6.94 3.41 4.29 4.29 0 0 1-4-.3 5.25 5.25 0 0 1-2.37-3.56 73.19 73.19 0 0 1-.78-12.48l.14-2.81-3.1 6c-1.32 2.25-2.83 4.51-4.43 6.76a4.61 4.61 0 0 1-3.6 2 4.33 4.33 0 0 1-3.65-1.81 67.26 67.26 0 0 1-6.34-10.37zm11.55-65a4.8 4.8 0 0 1 3.65 1.85A59.42 59.42 0 0 1 118 346l-.09 2.1 1.68-3.4c5.2-9.13 13.83-17.75 28.16-22.41a4.34 4.34 0 0 1 3.74.5 5.58 5.58 0 0 1 2.33 3.61 61.67 61.67 0 0 1-1 27.82 56.11 56.11 0 0 1-4.15 10.93l-1 1.8 3-2c8.63-5 20.08-7.77 34.59-3.91a4.9 4.9 0 0 1 3 2.46 6 6 0 0 1 .37 4.41 58.2 58.2 0 0 1-13.51 23.56 49.48 49.48 0 0 1-8.58 7.17l-1.68 1 3.51-.1c9.76.4 20.9 4.31 31.71 15.59a5.45 5.45 0 0 1 1.46 3.81 5.64 5.64 0 0 1-1.69 4 50.22 50.22 0 0 1-22.4 13 43.71 43.71 0 0 1-10.72 1.5l-1.92-.1 3.1 1.86c8.31 5.71 16.16 15.19 20.4 30.93a5.6 5.6 0 0 1-.46 4.11 5 5 0 0 1-3.28 2.55 47.12 47.12 0 0 1-35.27-5.61l-1.64-1.15 1.82 3.31c4.56 9.47 7.07 22.05 3.56 38a5.3 5.3 0 0 1-2.24 3.3 4.51 4.51 0 0 1-4 .4 50.78 50.78 0 0 1-21.45-14.83 53.36 53.36 0 0 1-6.52-9.43l-.87-1.85.09 3.86c-.36 10.72-3.92 23-14.19 34.84a4.52 4.52 0 0 1-3.47 1.6 4.82 4.82 0 0 1-3.65-1.85 57.93 57.93 0 0 1-11.81-24.62 56.62 56.62 0 0 1-1.37-11.78l.09-2.1-1.65 3.3c-5.2 9.13-13.83 17.75-28.15 22.41a4.3 4.3 0 0 1-3.74-.5 5.48 5.48 0 0 1-2.33-3.61 61.58 61.58 0 0 1 1-27.82 56.76 56.76 0 0 1 4.15-10.93l1-1.8-3 2c-8.63 5-20.08 7.77-34.59 3.91a4.9 4.9 0 0 1-3-2.46 6 6 0 0 1-.37-4.41 58.2 58.2 0 0 1 13.51-23.56 49.86 49.86 0 0 1 8.52-7.17l1.69-.95-3.52.1c-9.76-.4-20.89-4.31-31.71-15.59A5.45 5.45 0 0 1 0 418a5.64 5.64 0 0 1 1.69-4 50.22 50.22 0 0 1 22.4-13 43.73 43.73 0 0 1 10.73-1.5l1.91.1-3.1-1.85c-8.31-5.72-16.15-15.19-20.4-30.94a5.61 5.61 0 0 1 .46-4.11 5 5 0 0 1 3.31-2.56 41 41 0 0 1 11.5-1.21 48.15 48.15 0 0 1 13.83 2.26 47.22 47.22 0 0 1 10 4.56l1.78 1.4-2-3.55c-4.56-9.48-7.08-22.06-3.56-38a5.32 5.32 0 0 1 2.23-3.31 4.27 4.27 0 0 1 2.38-.7 5.34 5.34 0 0 1 1.6.3 50.89 50.89 0 0 1 21.44 14.83 53.36 53.36 0 0 1 6.52 9.43l.78 1.85-.09-3.86c.37-10.72 3.92-23 14.19-34.84a5.06 5.06 0 0 1 3.56-1.6z"/><path class="cls-3" d="M51.51 419.79c0-31.43 23.18-56.9 51.79-56.9s51.79 25.47 51.79 56.9-23.18 56.9-51.79 56.9-51.79-25.46-51.79-56.9z"/><path class="cls-5" d="M65.66 419.54c0-22.71 16.84-41.11 37.64-41.11s37.7 18.4 37.7 41.11-16.84 41.11-37.65 41.11-37.64-18.4-37.64-41.11z"/><path d="M536.18 681.33a4.4 4.4 0 0 1-1.85-.49 4.35 4.35 0 0 1-1.75-5.68c14.06-28.47-9-105.35-9.27-106.14a4.21 4.21 0 0 1 2.63-5.26 3.93 3.93 0 0 1 5 2.75c1 3.33 24.24 81 8.68 112.59a3.56 3.56 0 0 1-3.44 2.23z" style="fill:#444c44"/><path d="M536.18 681.63a4.86 4.86 0 0 1-1.95-.5 4.64 4.64 0 0 1-1.84-6c14-28.28-9-105.16-9.26-105.94a4.38 4.38 0 0 1 2.72-5.56 4.1 4.1 0 0 1 5.29 2.85c1 3.33 24.33 81.09 8.68 112.78a4 4 0 0 1-3.64 2.37zm-8.94-117.77a4.46 4.46 0 0 0-1.12.19 4 4 0 0 0-2.43 5c.27.79 23.23 77.77 9.17 106.34a4.16 4.16 0 0 0 1.65 5.38 3.8 3.8 0 0 0 5.12-1.74c15.56-31.4-7.76-109.07-8.68-112.39a4.13 4.13 0 0 0-3.71-2.78z" style="fill:#383d39"/><path d="M522.51 488.51s-81.46 23.49-83.82 31.73c4.64 3.34 9.39 2.48 9.38 4.92s-.77 4.88-3.93 5.75c-4.65 0-22 15.55-22 21.31s2.28 12.32-.05 14-13.38 20.47-17.3 24.56 15.62 1.72 15.61 3.38-9.47 20.48-10.24 27.9c3.17-1.64 22.73-10.56 25-4.79.72 6.55-6.24 4.08-6.26 9.07v10.65c0 2.44-5.48-1.69-4.67 4.86s0 9.09-1.65 17.29 17.16 10.72 29.75 1.78 14.95-18.8 22.78-22.1 23.55-31.17 23.55-32.73c34.43-4.76 40.7-16.26 50.09-14.57 3.17-4.09 3.93-8.19 6.26-8.18s11 1.7 14-3.27 0-6.54 2.36-9.08 18.83-10.57 19.61-21.32-3.13-9.1-3.1-15.64 7.84-7.4 6.29-14.73c.15-14.1-29.44-32.3-71.66-30.79z" style="fill:#2d342d"/><path d="M434.14 667c-3.91 0-7.35-.81-9.67-2.38-2-1.47-3-3.33-2.49-5.58.19-1.07.38-2 .57-2.83 1.24-6 1.71-8.59 1.08-14.26-.18-1.76 0-3 .67-3.71a3.34 3.34 0 0 1 2.79-.87 4.37 4.37 0 0 0 1.21-.09.47.47 0 0 0 .09-.3v-10.64c0-2.54 1.78-3.42 3.27-4.1 1.77-.87 3.36-1.64 3-4.77a2 2 0 0 0-1.39-1.18c-5.11-2-20.29 4.91-23.09 6.36l-.74.39.09-.88c.58-4.88 4.61-14.25 7.61-21.17 1.22-2.83 2.44-5.76 2.63-6.54-.65-.29-3.53-.31-5.76-.31-5.86 0-9.67-.24-10.22-1.7-.19-.49 0-1.08.56-1.76 2-2 5.61-7.6 9.16-13.06 3.75-5.75 7-10.72 8.23-11.59s.85-4 .4-7.23a45.82 45.82 0 0 1-.53-6.26c0-6 17.28-21.62 22.4-21.8 2.32-.67 3.54-2.33 3.55-5.26 0-.88-.92-1.17-2.87-1.77a19.17 19.17 0 0 1-6.22-2.76l-.28-.19.09-.39c2.45-8.4 80.83-31.06 84.09-32h.1c31.71-1.15 56.22 9 66.5 19.5 3.8 3.92 5.83 7.93 5.82 11.65.82 4.2-1.14 6.44-3.11 8.58-1.58 1.76-3.17 3.41-3.18 6.24a9.59 9.59 0 0 0 1.37 5.28c1 2 2.22 4.12 1.73 10.37-.68 8.5-10.94 15.39-16.44 19.18a30.11 30.11 0 0 0-3.35 2.43c-.94 1-.85 1.76-.76 2.93a8.63 8.63 0 0 1-1.51 6c-2.81 4.39-9.41 3.87-12.94 3.57-.65 0-1.12-.1-1.49-.11-1.21 0-2 1.46-3.08 3.51a37.74 37.74 0 0 1-2.81 4.58l-.18.2h-.28c-3.81-.7-7.17.94-12.29 3.37-7 3.39-17.61 8.43-37.42 11.19-1.51 3.9-16 29.54-23.75 32.83-3.72 1.55-6.25 4.67-9.33 8.66s-6.92 8.87-13.35 13.44a37.93 37.93 0 0 1-18.48 5.23zm-7.43-28.65a2.67 2.67 0 0 0-1.77.48c-.46.48-.56 1.46-.38 2.93.63 5.86.15 8.6-1.08 14.55-.19.88-.38 1.86-.57 2.83a4.45 4.45 0 0 0 2.13 4.6c5.28 3.74 17.93 3.1 26.88-3.31 6.25-4.47 9.89-9.15 13.16-13.24 3.09-3.9 5.7-7.31 9.71-8.95 7.73-3.2 23.09-30.89 23.28-32.35v-.39h.37c19.91-2.76 30.44-7.8 37.42-11.19 5.13-2.43 8.58-4.07 12.57-3.47a39.11 39.11 0 0 0 2.62-4.19c1.22-2.25 2.16-4 3.92-4a10 10 0 0 1 1.58.1c3.35.31 9.67.82 12.1-3.08a7.91 7.91 0 0 0 1.42-5.47 4 4 0 0 1 1-3.61 22.08 22.08 0 0 1 3.46-2.52c5.4-3.6 15.38-10.4 16-18.41.48-6-.62-7.92-1.55-9.87a10.92 10.92 0 0 1-1.46-5.77c0-3.23 1.78-5.08 3.46-6.93 1.87-2 3.65-4 2.92-7.7v-.1c0-3.52-1.93-7.24-5.54-11-10.1-10.29-34.42-20.25-65.76-19.2-22.25 6.46-79.6 24.32-83.35 31a19.23 19.23 0 0 0 5.67 2.47c2 .59 3.62 1.09 3.61 2.75 0 3.42-1.41 5.46-4.3 6.23h-.09c-4.47 0-21.54 15.46-21.56 20.83a45.87 45.87 0 0 0 .53 6.16c.55 3.71.9 7-.77 8.2-1.12.78-4.58 6.14-8 11.3-3.56 5.46-7.3 11.11-9.26 13.16-.37.39-.37.58-.37.68.36 1.08 6 1.1 9.38 1.11 5 0 6.79.12 6.79 1.2 0 .68-.94 2.73-2.82 7.12-2.63 6-6.47 15-7.33 20 4.47-2.23 17.88-7.94 23-6a3.63 3.63 0 0 1 1.95 1.77v.1c.45 3.91-1.79 5-3.56 5.84-1.49.78-2.7 1.26-2.71 3.22v10.65a1.14 1.14 0 0 1-.37 1c-.47.49-1.12.39-1.86.39z" style="fill:#5f7464"/><path class="cls-10" d="m432.74 666.67-.18-.39c10.9-5.92 21.35-39.68 30.67-69.45 7.34-23.61 14.31-46 20.56-51.9 2.48-14.74 37.13-31.31 38.53-32l.18.49c-.37.19-36 17.25-38.34 31.7v.1l-.09.1c-6.16 5.74-13.13 28.08-20.47 51.7-9.32 29.77-19.86 63.74-30.86 69.65zM587.43 558.13l-.38-.3c8.61-13.35-19.13-53-19.41-53.42l.37-.29c1.11 1.67 28.12 40.36 19.42 54.01z"/><path class="cls-10" d="m584.44 561.34-.37-.29c8.69-11.89-22.39-54.61-22.76-55l.37-.29c1.32 1.76 31.64 43.4 22.76 55.58z"/><path class="cls-10" d="m578.64 568.55-.37-.3c9.25-11.2-16.73-49.5-17-49.89l.37-.29c1.1 1.57 26.44 38.99 17 50.48z"/><path class="cls-10" d="m570.82 571-.37-.29c11.6-16.08-12.84-47.14-13.11-47.44l.37-.29c.29.35 24.89 31.71 13.11 48.02z"/><path class="cls-10" d="m563.71 583.34-.28-.39c10-8.85-5.94-51-6.12-51.51l.46-.2c.65 1.76 16.23 43.06 5.94 52.1z"/><path class="cls-10" d="M561.2 583.33h-.28V583c.79-12.11-10.6-48.89-10.78-49.19l.46-.19c.09.39 11.39 36.68 10.79 49.19a3.69 3.69 0 0 0 3.07-1.75c5.8-9.07-10.22-49.28-10.32-49.67l.47-.2c.64 1.67 16.21 40.9 10.32 50.16a4.28 4.28 0 0 1-3.73 1.98zM553.48 584.09l-.47-.2c6.87-20.88-9.66-49.77-9.75-50.06l.37-.29c.18.39 16.72 29.46 9.85 50.55z"/><path class="cls-10" d="m545.55 591.48-.37-.39c10.54-8.85-3.43-51.89-3.62-52.29l.47-.19c.64 1.76 14.34 43.83 3.52 52.87z"/><path class="cls-10" d="m543.41 591.86-.37-.29c8.51-14.82-9-52.4-9.2-52.8l.38-.19c.78 1.57 17.78 38.17 9.19 53.28zM531.58 597.19l-.37-.29c13.18-19.2-2-53.65-2.12-54l.46-.19c.09.29 15.45 34.99 2.03 54.48z"/><path class="cls-10" d="m529.24 599.63-.37-.3c7.67-10.42-2.14-47.88-2.23-48.27l.46-.1c.46 1.47 9.99 38.04 2.14 48.67zM522.26 600.77l-.37-.29c4.59-6.92.18-46.61.18-47l.47-.09c.08 1.66 4.4 40.27-.28 47.38zM514.91 602.89l-.37-.29c4.39-6.34-3.44-48.77-3.53-49.16l.46-.1c.37 1.76 8.02 43.02 3.44 49.55zM503.18 605.39l-.37-.39c7.47-7.89 1.94-45.53 1.85-45.92l.47-.09c.36 1.66 5.71 38.32-1.95 46.4zM484.59 629.55l-.37-.3c3.83-5.16.2-54 .11-54.51h.46c.21 1.95 3.72 49.45-.2 54.81zM477.49 637.44l-.28-.4c9.23-7 .24-61.84.15-62.33l.46-.1c.36 2.25 9.09 55.53-.33 62.83zM472.18 640.54l-.47-.2c3.77-11.41-2.95-53.84-3-54.23l.47-.1c.27 1.66 6 37.93 3.61 52 6.11-16.39 1.42-55.58 1.43-56l.46-.09c-.05.5 5.18 43.9-2.5 58.62zM453.88 659.82l-.19-.49c7.64-2.71 12.49-54.77 12.58-55.25h.47c-.2 2.24-4.95 52.92-12.86 55.74zM444.37 665.06l-.09-.49c7.54-.85 13.24-33.07 13.24-33.37l.46.1c-.19 1.37-5.79 32.91-13.61 33.76zM455.42 621.62c-7.15-3.35-.34-34.29 0-35.66l.47.1c-.1.29-7 31.82-.23 35.07zM453.44 627.77c-5.11-2.07-6.6-24.35-6.69-25.33h.46c0 .2 1.5 22.87 6.42 24.94zM449.87 636.35c-2.41-.89-5.23-17.21-5.59-19.07l.46-.1c1.18 7.24 3.65 18.19 5.23 18.78zM448.37 641.33c-5.48-1.58-7.2-14.59-7.29-15.07l.46-.1c0 .1 1.72 13.2 6.92 14.68zM438.9 660.44a2.33 2.33 0 0 1-1.67-1.08c-3.23-4.41-.94-21.69-.84-22.47l.46.1c0 .19-2.39 17.77.76 22.08a2.19 2.19 0 0 0 1.39.93zM418.17 610.63l-.46-.19c4-11.42 51.75-38.5 53.8-39.56l.19.39c-.47.29-49.7 28.04-53.53 39.36zM417.41 613.86H417c0-3.32 18.46-12.24 20.51-13.3l.18.49c-8.15 3.86-20.27 10.46-20.28 12.81zM447.22 577.13l-.37-.29c3.92-4.87 27.3-15.92 28.33-16.4l.18.49c-.28-.01-24.31 11.33-28.14 16.2zM421.38 597.46h-.46c0-5 18.94-16.14 19.77-16.53l.19.39c-.19.09-19.48 11.35-19.5 16.14zM413.6 590.88l-.47-.1c1.61-7.42 61.88-33.76 64.39-34.93l.18.49c-.65.2-62.59 27.32-64.1 34.54zM419.06 571.26l-.37-.29c12.53-16.27 58.41-26.06 58.87-26.16l.09.49c-.37.1-46.16 9.79-58.59 25.96zM460.58 559.11l-.27-.39c3.91-3.31 18.25-7.94 18.91-8.23l.18.49c-.28.09-14.99 4.92-18.82 8.13zM411.21 583.54l-.37-.19c2.34-5 29.55-19.14 30.66-19.72l.19.39c-.28.1-28.14 14.74-30.48 19.52zM423.33 549.2h-.46c.2-3.13 23.85-13.2 26.55-14.26l.19.48c-10.43 4.26-26.08 11.63-26.28 13.78zM422.74 557.4h-.46c.48-4.78 27.59-17.09 28.71-17.57l.18.49c-9.69 4.26-28.04 13.47-28.43 17.08zM423.28 562.19h-.46c.2-5 21-12.23 21.9-12.52l.18.49c-.28 0-21.32 7.34-21.62 12.03zM443.52 522.8l-.46-.2c1.6-5 27.37-8.1 28.39-8.29l.09.49c-.28.09-26.54 3.31-28.02 8z"/><path class="cls-11" d="M554 350.48a1 1 0 0 0-1.4-.3c-5.22 3-32.9 20.69-27.79 47.28 5.65 29.04 42.5-25.73 29.19-46.98z"/><path class="cls-12" d="M531.37 406.08a3.24 3.24 0 0 1-1-.1c-2.79-.59-4.73-3.44-5.64-8.42-5.1-26.69 22.3-44.27 27.89-47.57a1.27 1.27 0 0 1 1.68.39c6.74 10.78.91 29.42-7.32 42.28-5.45 8.34-11.33 13.44-15.61 13.42zm21.79-55.8a.52.52 0 0 0-.37.1c-5.5 3.2-32.72 20.68-27.71 47.08.92 4.79 2.67 7.44 5.27 8 4.28.9 10.43-4.16 16.14-13 8.42-13.15 13.61-31.7 7.32-41.79a.62.62 0 0 0-.65-.39z"/><path class="cls-13" d="M537.47 442.55s61.77-7.19 64.77 34.74c-32.01 5.64-61.68-17.53-64.77-34.74z"/><path class="cls-12" d="M592.1 478.42a64.41 64.41 0 0 1-33.16-9.7c-11.78-7.18-20-17.18-21.66-26.17l-.09-.29h.28c.37 0 35.72-4 54.07 12.12 6.58 5.79 10.27 13.43 11 22.91v.19h-.19a51.46 51.46 0 0 1-10.25.94zm-54.36-35.67c3.38 17.5 33.24 39.69 64.22 34.34q-1.07-13.79-10.79-22.32c-17.33-15.21-50.17-12.3-53.43-12.02z"/><path class="cls-13" d="M516.28 463s-5.74 66.51 20.84 70.72c18.12-20.46-2.06-70.66-20.84-70.72z"/><path class="cls-12" d="M537.21 534h-.09c-11-1.7-18.08-14.63-20.6-37.21a195.74 195.74 0 0 1-.43-33.8v-.2h.19c8 0 16.89 9.25 22.79 23.44 6.45 15.46 8.32 36.18-1.86 47.77zm-20.65-70.72c-.3 4.3-4.62 66 20.56 70.23 9.9-11.29 7.93-31.82 1.57-47.09-5.8-13.99-14.41-23.01-22.13-23.14z"/><path class="cls-13" d="M482.7 465.2s-25.77 4.11-27.49 14.95 1.21 23.64-3.55 29.59 18.89-2.67 26.91-8.79c7.02-11.8 12.61-15.29 4.13-35.75z"/><path class="cls-12" d="M452.3 511.89a1.92 1.92 0 0 1-1.48-.4c-.37-.39-.19-1.07.47-1.95 3-3.6 2.92-10.05 2.95-16.79a80.13 80.13 0 0 1 .6-12.61c1.72-10.93 26.65-15 27.68-15.13h.18l.09.19c7.47 17.91 4.29 22.88-1.51 31.75-.84 1.37-1.78 2.73-2.71 4.19l-.1.1c-5.69 4.28-21.15 10.67-26.17 10.65zm30.22-46.49c-2.24.38-25.59 4.59-27.12 14.75a80.54 80.54 0 0 0-.61 12.5c.07 6.84 0 13.39-3 17.09-.28.39-.75 1-.47 1.27 1.48 1.66 19.74-4.91 27.1-10.36.94-1.56 1.78-2.82 2.62-4.19 5.57-8.67 8.75-13.46 1.48-31.06z"/><path class="cls-13" d="M399.9 427.18s47.1-37.64 78.23-6.25-57.96 31.07-78.23 6.25z"/><path class="cls-12" d="M454.6 445.46c-20.73-.08-45.54-6.72-54.79-18.09l-.19-.2.19-.19A102.86 102.86 0 0 1 427.3 412c14.34-5 34.9-7.59 51 8.69 5.28 5.3 7.4 10 6.36 13.9-1.13 4.1-5.79 7.31-13.43 9.13a72.61 72.61 0 0 1-16.63 1.74zm-54.33-18.19c12.13 14.51 49.58 21 70.89 16 7.54-1.72 12-4.74 13-8.74 1-3.71-1.08-8.31-6.27-13.41-16-16.08-36.31-13.52-50.55-8.59a103.3 103.3 0 0 0-27.07 14.74z"/><path class="cls-11" d="M478 458s-24.25-5-36.77 8.94-5.62 35.35-13.44 37 25.85 1.76 33.7-9S484.16 472.73 478 458z"/><path class="cls-12" d="M429.55 504.77a8.4 8.4 0 0 1-2.88-.31.36.36 0 0 1-.28-.39c0-.29.28-.39 1.4-.68 3.35-.67 3.83-5.26 4.5-11.61.87-7.81 1.84-17.58 8.75-25.17 12.51-13.83 36.76-9.05 37-8.95h.09l.1.1c5 11.84-3.53 21.68-11 30.35-2 2.33-3.92 4.57-5.6 6.81-5.57 7.6-24.63 9.88-32.08 9.85zm-2.42-.6c3.25.5 27.62-.58 34.16-9.44 1.69-2.24 3.56-4.48 5.61-6.82 7.38-8.57 15.69-18.21 11-29.76-1.85-.4-24.53-4.29-36.48 8.85-6.82 7.5-7.79 17.17-8.65 24.88-.68 6.35-1.16 11.33-4.88 12.1-.39.1-.66.09-.76.19z"/><path class="cls-11" d="M488.86 459.56s-16.48 30.32-19.12 38.52c-16.44 19.67 7.61 30.42 2.47 37s15.53.06 23.31-17.2c8.67-6.48 16.7-62.33-6.66-58.32z"/><path class="cls-12" d="M472.66 537.86c-.74 0-1.21-.2-1.39-.69s0-1.27.75-2.25c1.78-2.24-.17-5.08-2.57-8.7-4.44-6.56-10.45-15.58.11-28.24 2.63-8.19 18.93-38.22 19.12-38.52l.09-.09h.09c6.05-1.06 10.5 1.89 13.08 8.35 6 15.07.11 45.53-6.24 50.39-5.81 12.89-18.95 19.76-23.04 19.75zm16.39-78c-1 2-16.58 30.52-19 38.43v.1c-10.37 12.36-4.45 21.18-.1 27.64 2.59 3.83 4.53 6.76 2.56 9.3-.65.78-.84 1.36-.75 1.75a1.19 1.19 0 0 0 1 .4c4 0 16.95-6.78 22.67-19.56l.09-.09c6.25-4.67 12-34.93 6.14-49.81-2.58-6.47-6.85-9.12-12.61-8.17z"/><path class="cls-11" d="M505.28 470.37s-13.44 37.76-5.67 48.44 15.56 16.47 11.63 21.44 12.59-9 13.4-27.11 8.85-51.75-19.36-42.77z"/><path class="cls-12" d="M510.77 541.42c-.18 0-.18-.1-.28-.1-.09-.19-.09-.39.66-1.26 2.71-3.41-.53-7.33-5.53-13.41-1.85-2.25-4-4.8-6.11-7.74-7.77-10.68 5.11-47.17 5.68-48.73v-.1h.09c7.35-2.32 12.56-2 16.18 1.13 6.76 5.89 5.4 20.35 4.24 33-.29 3.23-.58 6.26-.68 8.89-.71 15.53-12.94 28-14.06 28.28zm-5.31-70.85c-.84 2.34-13.07 37.95-5.67 48.14 2.13 2.94 4.26 5.49 6.11 7.75 5.09 6.17 8.52 10.29 5.53 14l-.19.19c2.71-2.33 12.51-13.73 13.12-27.4.11-2.74.4-5.77.69-9 1.16-12 2.52-26.86-4.06-32.55-3.24-3.04-8.36-3.35-15.53-1.13z"/><path class="cls-11" d="M524.91 468.3s-4 27.14 5.36 32.06 21.92 5.85 25.81 12.41 3.23-19.72.11-29.6c-8.61-10.68-10.19-17.24-31.28-14.87z"/><path class="cls-12" d="M557.09 514.14c-.37 0-.83-.39-1.29-1.17-2.41-4-8.26-5.9-14.39-8a81.12 81.12 0 0 1-11.33-4.44c-9.37-5-5.64-31.19-5.45-32.36V468h.19c18.51-2.08 22 2.63 28.41 11.05.92 1.28 1.94 2.55 3 3.92v.1c2.57 8.12 3.7 29.62 1.09 30.88-.04.1-.13.19-.23.19zm-32-45.65c-.29 2.44-3.45 27.05 5.28 31.68a65.53 65.53 0 0 0 11.23 4.34c6.22 2.08 12.17 3.95 14.66 8.17.28.39.65 1.07 1 .88 2-1 1.48-21.29-1.28-30.2-1.11-1.37-2-2.64-3-3.92-6.32-8.32-9.75-12.93-27.89-10.95z"/><path class="cls-11" d="M532.84 436.77s35.93 15.77 41.37 26.44 11.6 32.09 11.56 41.18-64.77-26.63-52.93-67.62z"/><path class="cls-12" d="M583.63 506c-5.4 0-19.41-7.5-31-18.29-10.29-9.52-26.58-28.73-20.08-51.08l.09-.29.28.1c1.49.69 36 15.86 41.47 26.53C580 474.17 586 495.4 586 504.29a1.31 1.31 0 0 1-.85 1.36 2.27 2.27 0 0 1-1.52.35zm-50.7-69c-6.22 22 9.89 40.88 20 50.3 13.53 12.46 28.66 19.45 31.92 17.9a1 1 0 0 0 .56-1c0-8.6-6-30.12-11.56-41-4.99-9.88-37.76-24.76-40.92-26.14z"/><path class="cls-11" d="M543.83 431.83s36.77-11.39 45.41-8.92 13.24 15.69 17.14 16.48-11 13.15-31.29 12.2c-20.45-.77-33.74-3.26-31.26-19.76z"/><path class="cls-12" d="M577 452h-2c-14.6-.65-24.64-2.25-29.08-7.93-2.31-2.94-3.13-6.95-2.37-12.13v-.19h.19c1.49-.48 37-11.39 45.5-8.91 5.11 1.48 8.9 6.67 11.86 10.89 2 2.84 3.8 5.29 5.28 5.59a.94.94 0 0 1 .84 1C606.83 443.3 594 452.05 577 452zm-33-20c-.67 5 .05 8.8 2.28 11.64 4.35 5.58 14.29 7.19 28.79 7.73 18.23.85 31.47-8.77 31.76-11.21 0-.2 0-.39-.47-.49-1.67-.4-3.43-2.75-5.56-5.79-3-4.11-6.65-9.31-11.58-10.69-8.22-2.36-42.69 8.06-45.22 8.81z"/><path class="cls-11" d="M540 418.72c18-4.82 26.69-24.52 39.24-22 8.65 0 17.16 9.94 20.33 9.17s-8.71 14.72-10.2 17.25c-1.72 2.31-57.49 21.15-49.37-4.42z"/><path class="cls-12" d="M552.76 432.15c-3.72 0-7.07-.51-9.48-1.79-4.18-2.17-5.37-6.08-3.49-11.74v-.1h.09c8.47-2.31 14.91-7.95 20.6-12.91 6.44-5.64 12-10.51 18.63-9.11 5 0 10 3.36 14 6.11 2.69 1.77 4.92 3.34 6.13 3.05.46-.1.65 0 .74.2.65 1.07-2.62 6.05-8.61 14.42-1 1.37-1.77 2.54-2.15 3-1.01 1.72-22.05 8.93-36.46 8.87zm-12.6-13.23c-1.69 5.36-.5 9.08 3.31 11.05 12.15 6.3 44.65-5.69 45.59-7.15.37-.49 1.12-1.66 2.15-3 2.52-3.51 9.16-12.87 8.61-13.85h-.19c-1.4.39-3.62-1.18-6.5-3.05-4-2.65-8.9-6-13.83-6-6.5-1.3-12 3.47-18.35 9-5.88 5.08-12.32 10.68-20.79 13z"/><path class="cls-11" d="M579.21 372s-25.82-9.18-46.44 33.83c-16.38 28.43 51.01 9.74 46.44-33.83z"/><path class="cls-12" d="M538.11 419.59c-3.07 0-5.48-.8-6.87-2.47s-2.31-5.09 1.35-11.52c10.68-22.24 22.8-30.3 31.09-33.1 9-3.09 15.53-.82 15.62-.82l.19.1v.22c2.33 22-13.54 37.57-27.7 44.16a34.48 34.48 0 0 1-13.68 3.43zm35.15-48.13a29.37 29.37 0 0 0-9.49 1.63c-8.2 2.8-20.22 10.76-30.81 32.9-2.81 4.88-3.29 8.69-1.44 10.94 2.87 3.43 11.05 3 20-1.19 14.06-6.5 29.65-21.78 27.5-43.47a19 19 0 0 0-5.76-.81z"/><path class="cls-11" d="M493.53 333.05s-18.76 18.79-12.59 34.44 15.38 37 25.9 35.47c12.09-1.81 14.7-26.22 6.42-50.88-6.26-13.21-17.71-13.25-19.73-19.03z"/><path class="cls-12" d="M505.63 403.25c-9.58 0-18-17.95-25-35.66-6.17-15.65 12.5-34.54 12.68-34.73l.28-.29.09.39c.83 2.25 3.15 3.62 6.12 5.39 4.36 2.56 9.84 5.71 13.62 13.64 6 18 6.46 36.27 1 45.53-2 3.31-4.57 5.26-7.64 5.73zm-12.2-69.81c-2.14 2.24-18 19.57-12.31 34 4.61 11.54 14 35.32 24.6 35.36a3.32 3.32 0 0 0 1-.09c3-.48 5.49-2.33 7.36-5.54 5.34-9.17 4.85-27.24-1.13-45.05-3.59-7.73-9.07-10.88-13.34-13.34-2.94-1.71-5.26-3.09-6.18-5.34z"/><path class="cls-11" d="M533.2 342.29s-39.92 7.27-19 58.26c18.8 4.95 33.86-52.44 19-58.26z"/><path class="cls-12" d="M516.42 401a9.23 9.23 0 0 1-2.32-.3h-.1v-.1c-7.19-17.51-8.07-31.78-2.54-42.41 6.84-13.36 21.54-16.14 21.73-16.13h.19c7.8 3 7.45 19.27 3.21 33.72-4.03 13.11-11.59 25.3-20.17 25.22zm-2-.69c9.2 2.28 17.43-10.68 21.67-24.73 4.14-13.86 4.48-30.08-2.85-33-1 .1-14.8 3.17-21.36 15.85-5.47 10.57-4.59 24.57 2.5 41.92z"/><path class="cls-11" d="M449.47 351.84s23.43 1.75 31.2 13.31S497.77 390.71 497 398s-51 24.47-47.53-46.16z"/><path class="cls-12" d="M479.4 405.5a20.19 20.19 0 0 1-2.33-.11 25.83 25.83 0 0 1-19.85-12.09c-6.1-9.21-8.75-23.19-7.93-41.56v-.29h.28c.28 0 23.61 1.85 31.38 13.41 7.21 10.77 17.19 25.46 16.33 33.08-.39 3.23-8.59 7.59-17.88 7.56zM449.66 352c-.82 18.17 1.83 31.95 7.84 41.06A25.63 25.63 0 0 0 477 405c10.32.92 19.45-4 19.74-7 .77-7.42-9-22.12-16.24-32.79s-28.33-12.97-30.84-13.21z"/><path class="cls-11" d="M423.49 386.23s11-9 20.38-4.81 22.7-3.23 32.77 14.88-13.41 29.55-35.31 17.16c-14-10.8-8.45-25.53-17.84-27.23z"/><path class="cls-12" d="M459.82 418.9a38.52 38.52 0 0 1-18.58-5.25c-7.51-5.69-9.44-12.44-11-17.92-1.47-4.89-2.48-8.51-6.75-9.21l-.56-.1.37-.39c.1-.09 11.2-9 20.57-4.9 2.88 1.28 6.23 1.49 9.67 1.6 7.62.42 16.27.84 23.2 13.38 3.5 6.36 3.2 12.32-.81 16.8-3.18 3.6-9.05 6.02-16.11 5.99zM424.05 386c4.18 1 5.28 4.8 6.66 9.5 1.56 5.38 3.49 12 10.81 17.63 14.29 8.16 28.34 5.77 34.13-.65 3.92-4.29 4.22-10 .81-16.22-6.84-12.34-15.39-12.76-22.83-13.18-3.53-.21-6.88-.32-9.85-1.7-8.08-3.38-17.59 3.1-19.73 4.62z"/><path class="cls-11" d="M479.61 448.09s-41.43-13.34-57.83-2.66-11.07 24.58-18.88 23c-7.9-1.8 68.73 23.11 76.71-20.34z"/><path class="cls-12" d="M437.85 474.22c-18.32-.07-35.5-5.32-35.78-5.81l-.09-.09.09-.2c.09-.19.28-.19.84 0 3.34.7 4.09-1.45 5.41-5.35 1.6-4.68 4.14-11.71 13.27-17.53 16.41-10.59 57.64 2.56 58 2.66l.18.1v.19c-2.37 13.18-11.24 21.45-26.22 24.62a83.2 83.2 0 0 1-15.7 1.41zm-33.64-5.5c7.52 2.37 38.18 9.62 58.2.71 9.41-4.17 15.11-11.28 17-21.24-3.16-1-41.89-12.66-57.46-2.66-9 5.83-11.48 12.76-13.08 17.34-1.31 3.42-2.06 5.76-4.66 5.85z"/><path class="cls-11" d="M478.39 424.25s-10.08-14-25.25-10.75-32.13 14.64-41.43 13 49.57 48.59 66.68-2.25z"/><path class="cls-12" d="M451 447.3a40.93 40.93 0 0 1-12.08-2c-15-4.55-28.95-16.23-28.39-18.67.1-.29.38-.59 1.21-.48 5.21.89 13.12-2.4 21.41-6 6.52-2.81 13.32-5.62 19.93-7.06 15.17-3.26 25.44 10.75 25.53 10.85l.09.1v.09c-6.14 18.08-17.04 23.21-27.7 23.17zm-39.63-20.67c-.19 0-.28 0-.37.1-.38 1.66 12.22 13.24 28.1 18.08 13.29 4.06 30.86 3.74 39.14-20.56-.93-1.27-10.74-13.62-25-10.55-6.51 1.34-13.31 4.25-19.83 7.06-8.38 3.58-16.3 7-21.69 6a.65.65 0 0 0-.38-.13z"/><path class="cls-14" d="M501.57 394.83a.21.21 0 0 1-.19-.19c-2.19-10.37-4-26.4-4-26.59s.1-.3.19-.3.28.1.28.2 1.89 16.13 4 26.49a1.35 1.35 0 0 1-.28.39zM513.94 394.59c-.19 0-.28-.2-.19-.3 2-11.62 12.86-32.19 13-32.39s.18-.19.28-.09.18.19.09.29-11 20.77-13 32.29a.21.21 0 0 1-.18.2zM530.65 401c-.19-.1-.28-.2-.18-.29 3.75-9.47 16.37-26.32 16.56-26.42s.18-.09.37 0 .09.2 0 .39-12.72 17-16.47 26.32c-.09-.1-.19 0-.28 0zM537.42 406.79c-.1 0-.1 0-.19-.1a.32.32 0 0 1 0-.39c7.84-7.69 20.52-16.43 20.62-16.53s.27 0 .27.1 0 .29-.09.29-12.77 8.84-20.61 16.53c.09.1.09.1 0 .1zM546.38 421.29a.21.21 0 0 1-.18-.2.18.18 0 0 1 .09-.29c10.62-4.36 30.16-7.9 30.34-7.9s.28.1.28.2-.09.29-.18.29-19.64 3.54-30.35 7.9c.09-.1.09 0 0 0zM571.15 435.55c-.18 0-14.21-2.7-22.12-2.53-.09 0-.18-.1-.28-.2s.1-.29.19-.29c7.91-.16 22 2.53 22.12 2.53s.19.19.19.29 0 .2-.1.2zM593.25 468.26a.2.2 0 0 1-.18-.19c-.92-2.55-11.22-8.35-29-16.53-.1-.1-.19-.19-.1-.29s.19-.2.28-.1c12.63 5.72 28 13.3 29.23 16.72 0 .2 0 .39-.19.39zM570.23 483.12a.3.3 0 0 1-.28-.29c0-2.54-9.06-12.54-24.91-27.55a.32.32 0 0 1 0-.39.28.28 0 0 1 .38 0c9.35 8.83 25.1 24.13 25.09 27.85-.09.26-.19.39-.28.38zM546.92 499.25a.2.2 0 0 1-.18-.19c-.64-5.08-12.3-20-17.2-26.06a.32.32 0 0 1 0-.39.29.29 0 0 1 .37 0c5 6.18 16.75 21.07 17.38 26.35-.18.2-.28.29-.37.29zM509.86 512.5c-.09 0-.19 0-.19-.1-2.86-4.21 0-22.67 2-33.21 0-.1.19-.2.28-.2s.19.2.19.3c-1.62 8.49-4.95 28.61-2.08 32.82.09.1.09.29-.1.29a.09.09 0 0 1-.1.1zM478.53 510.72a.31.31 0 0 1-.28-.3c0-7.71 9-27.12 12.88-35.22.09-.1.18-.19.28-.09s.18.19.09.29c-3.85 8-12.85 27.4-12.88 34.93.19.29.1.39-.09.39zM441.68 492.4l.38-1c3.57-9.56 26.31-23 27.33-23.54l.28.39c-1.86 1.56-3.64 3-5.32 4.38-7.92 6.51-13.71 11.18-21.92 19.06zm24.92-22.27c-6.16 3.88-19.86 13.11-23.61 20.33 7.75-7.4 13.35-12 21.09-18.19.84-.68 1.68-1.37 2.52-2.14zM433.82 457.1a12.67 12.67 0 0 1-5.2-.8c-.1-.1-.19-.19-.1-.29s.19-.2.28-.1c7.62 3.26 38.71-5.52 39-5.61.09 0 .28 0 .28.19s0 .3-.19.3c-1.04.28-22.63 6.36-34.07 6.31zM462.1 430c-11.25 0-24.45-1.56-24.64-1.56s-.18-.1-.18-.29.09-.2.28-.19 19.15 2.12 31 1.38c.09 0 .28.1.28.2s-.1.29-.19.29c-2.18.17-4.32.17-6.55.17zM468 408c-.09 0-.18 0-.18-.1-3.05-5.58-22.29-9-22.47-9s-.19-.2-.19-.3.1-.19.28-.19c.84.1 19.7 3.49 22.84 9.27.09.1 0 .29-.09.29zM483 399.06a.21.21 0 0 1-.18-.2c-1.45-8.89-16.1-21.16-16.29-21.26s-.09-.2 0-.39.18-.1.37 0c.65.49 14.92 12.56 16.47 21.56a1.39 1.39 0 0 0-.38.29z"/><ellipse cx="508.57" cy="436.68" rx="42.7" ry="40.64" transform="rotate(-89.78 508.585 436.675)" style="fill:#664431"/><path class="cls-12" d="M508.4 479.66c-22.59-.08-40.84-19.4-40.75-43.14s18.49-42.92 41.08-42.83 40.84 19.4 40.75 43.14-18.48 42.92-41.08 42.83zm.33-85.48c-22.32-.09-40.52 18.89-40.61 42.34s18 42.57 40.29 42.66 40.52-18.9 40.61-42.35-17.97-42.57-40.29-42.65z"/><ellipse class="cls-16" cx="508.79" cy="403.16" rx="2.44" ry="2.32" transform="rotate(-89.78 508.801 403.16)"/><ellipse class="cls-16" cx="508.75" cy="412.84" rx="1.47" ry="1.39" transform="rotate(-89.78 508.765 412.834)"/><ellipse class="cls-16" cx="508.73" cy="417.62" rx=".98" ry=".93" transform="rotate(-89.78 508.744 417.623)"/><ellipse class="cls-16" cx="508.77" cy="407.95" rx="1.66" ry="1.58" transform="rotate(-89.78 508.79 407.95)"/><ellipse class="cls-16" cx="508.72" cy="422.51" rx=".49" ry=".46" transform="rotate(-89.78 508.728 422.508)"/><ellipse class="cls-16" cx="497.81" cy="405.08" rx="2.44" ry="2.32" transform="rotate(-89.78 497.824 405.075)"/><ellipse class="cls-16" cx="500.94" cy="414.18" rx="1.47" ry="1.39" transform="rotate(-89.78 500.947 414.177)"/><ellipse class="cls-16" cx="502.5" cy="418.77" rx=".98" ry=".93" transform="rotate(-89.78 502.509 418.773)"/><ellipse class="cls-16" cx="499.37" cy="409.67" rx="1.66" ry="1.58" transform="rotate(-89.78 499.386 409.671)"/><ellipse class="cls-16" cx="504.06" cy="423.27" rx=".49" ry=".46" transform="rotate(-89.78 504.076 423.273)"/><ellipse class="cls-16" cx="488.21" cy="410.9" rx="2.44" ry="2.32" transform="rotate(-89.78 488.221 410.9)"/><ellipse class="cls-16" cx="494.04" cy="418.35" rx="1.47" ry="1.39" transform="rotate(-89.78 494.052 418.348)"/><ellipse class="cls-16" cx="497" cy="421.98" rx=".98" ry=".93" transform="rotate(-89.78 497.01 421.974)"/><ellipse class="cls-16" cx="491.17" cy="414.63" rx="1.66" ry="1.58" transform="rotate(-89.78 491.18 414.626)"/><ellipse class="cls-16" cx="499.96" cy="425.7" rx=".49" ry=".46" transform="rotate(-89.78 499.977 425.7)"/><ellipse class="cls-16" cx="481.02" cy="419.77" rx="2.44" ry="2.32" transform="rotate(-89.78 481.03 419.766)"/><ellipse class="cls-16" cx="488.99" cy="424.58" rx="1.47" ry="1.39" transform="rotate(-89.78 489.01 424.585)"/><ellipse class="cls-16" cx="492.98" cy="427.04" rx=".98" ry=".93" transform="rotate(-89.78 492.992 427.042)"/><ellipse class="cls-16" cx="485" cy="422.22" rx="1.66" ry="1.58" transform="rotate(-89.78 485.012 422.223)"/><ellipse class="cls-16" cx="496.88" cy="429.5" rx=".49" ry=".46" transform="rotate(-89.78 496.894 429.499)"/><ellipse class="cls-16" cx="477.16" cy="430.69" rx="2.44" ry="2.32" transform="rotate(-89.78 477.173 430.694)"/><ellipse class="cls-16" cx="486.27" cy="432.39" rx="1.47" ry="1.39" transform="rotate(-89.78 486.284 432.39)"/><ellipse class="cls-16" cx="490.73" cy="433.29" rx=".98" ry=".93" transform="rotate(-89.78 490.74 433.288)"/><ellipse class="cls-16" cx="481.71" cy="431.49" rx="1.66" ry="1.58" transform="rotate(-89.78 481.728 431.492)"/><ellipse class="cls-16" cx="495.28" cy="434.09" rx=".49" ry=".46" transform="rotate(-89.78 495.295 434.086)"/><ellipse class="cls-16" cx="477.12" cy="442.32" rx="2.44" ry="2.32" transform="rotate(-89.78 477.13 442.322)"/><ellipse class="cls-16" cx="486.14" cy="440.69" rx="1.47" ry="1.39" transform="rotate(-89.78 486.155 440.691)"/><ellipse class="cls-16" cx="490.7" cy="439.83" rx=".98" ry=".93" transform="rotate(-89.78 490.712 439.83)"/><ellipse class="cls-16" cx="481.68" cy="441.46" rx="1.66" ry="1.58" transform="rotate(-89.78 481.687 441.461)"/><ellipse class="cls-16" cx="495.26" cy="439.07" rx=".49" ry=".46" transform="rotate(-89.78 495.274 439.066)"/><ellipse class="cls-16" cx="480.89" cy="453.28" rx="2.44" ry="2.32" transform="rotate(-89.78 480.899 453.275)"/><ellipse class="cls-16" cx="488.81" cy="448.52" rx="1.47" ry="1.39" transform="rotate(-89.78 488.825 448.521)"/><ellipse class="cls-16" cx="492.82" cy="446.09" rx=".98" ry=".93" transform="rotate(-89.78 492.833 446.094)"/><ellipse class="cls-16" cx="484.9" cy="450.85" rx="1.66" ry="1.58" transform="rotate(-89.78 484.907 450.848)"/><ellipse class="cls-16" cx="496.83" cy="443.67" rx=".49" ry=".46" transform="rotate(-89.78 496.84 443.666)"/><ellipse class="cls-16" cx="487.92" cy="462.29" rx="2.44" ry="2.32" transform="rotate(-89.78 487.934 462.294)"/><ellipse class="cls-16" cx="493.9" cy="454.89" rx="1.47" ry="1.39" transform="rotate(-89.78 493.912 454.889)"/><ellipse class="cls-16" cx="496.89" cy="451.19" rx=".98" ry=".93" transform="rotate(-89.78 496.905 451.19)"/><ellipse class="cls-16" cx="490.91" cy="458.59" rx="1.66" ry="1.58" transform="rotate(-89.78 490.923 458.591)"/><ellipse class="cls-16" cx="499.79" cy="447.49" rx=".49" ry=".46" transform="rotate(-89.78 499.799 447.483)"/><ellipse class="cls-16" cx="497.48" cy="468.09" rx="2.44" ry="2.32" transform="rotate(-89.78 497.489 468.092)"/><ellipse class="cls-16" cx="500.67" cy="459.02" rx="1.47" ry="1.39" transform="rotate(-89.78 500.688 459.019)"/><ellipse class="cls-16" cx="502.27" cy="454.53" rx=".98" ry=".93" transform="rotate(-89.78 502.287 454.532)"/><ellipse class="cls-16" cx="499.07" cy="463.61" rx="1.66" ry="1.58" transform="rotate(-89.78 499.088 463.605)"/><ellipse class="cls-16" cx="503.87" cy="449.95" rx=".49" ry=".46" transform="rotate(-89.78 503.881 449.95)"/><ellipse class="cls-16" cx="508.44" cy="470.19" rx="2.44" ry="2.32" transform="rotate(-89.78 508.454 470.185)"/><ellipse class="cls-16" cx="508.48" cy="460.52" rx="1.47" ry="1.39" transform="rotate(-89.78 508.49 460.511)"/><ellipse class="cls-16" cx="508.5" cy="455.73" rx=".98" ry=".93" transform="rotate(-89.78 508.506 455.727)"/><ellipse class="cls-16" cx="508.46" cy="465.4" rx="1.66" ry="1.58" transform="rotate(-89.78 508.48 465.4)"/><ellipse class="cls-16" cx="508.51" cy="450.84" rx=".49" ry=".46" transform="rotate(-89.78 508.527 450.838)"/><ellipse class="cls-16" cx="519.33" cy="468.28" rx="2.44" ry="2.32" transform="rotate(-89.78 519.341 468.27)"/><ellipse class="cls-16" cx="516.2" cy="459.18" rx="1.47" ry="1.39" transform="rotate(-89.78 516.213 459.174)"/><ellipse class="cls-16" cx="514.64" cy="454.58" rx=".98" ry=".93" transform="rotate(-89.78 514.651 454.578)"/><ellipse class="cls-16" cx="517.76" cy="463.68" rx="1.66" ry="1.58" transform="rotate(-89.78 517.78 463.675)"/><ellipse class="cls-16" cx="513.07" cy="450.08" rx=".49" ry=".46" transform="rotate(-89.78 513.084 450.078)"/><ellipse class="cls-16" cx="528.93" cy="462.45" rx="2.44" ry="2.32" transform="rotate(-89.78 528.944 462.446)"/><ellipse class="cls-16" cx="523.1" cy="455" rx="1.47" ry="1.39" transform="rotate(-89.78 523.108 455.003)"/><ellipse class="cls-16" cx="520.14" cy="451.28" rx=".98" ry=".93" transform="rotate(-89.78 520.15 451.276)"/><ellipse class="cls-16" cx="526.06" cy="458.73" rx="1.66" ry="1.58" transform="rotate(-89.78 526.07 458.724)"/><ellipse class="cls-16" cx="517.17" cy="447.65" rx=".49" ry=".46" transform="rotate(-89.78 517.188 447.655)"/><ellipse class="cls-16" cx="536.12" cy="453.59" rx="2.44" ry="2.32" transform="rotate(-89.78 536.135 453.58)"/><ellipse class="cls-16" cx="528.14" cy="448.67" rx="1.47" ry="1.39" transform="rotate(-89.78 528.156 448.671)"/><ellipse class="cls-16" cx="524.25" cy="446.31" rx=".98" ry=".93" transform="rotate(-89.78 524.259 446.309)"/><ellipse class="cls-16" cx="532.13" cy="451.13" rx="1.66" ry="1.58" transform="rotate(-89.78 532.148 451.128)"/><ellipse class="cls-16" cx="520.26" cy="443.85" rx=".49" ry=".46" transform="rotate(-89.78 520.266 443.852)"/><ellipse class="cls-16" cx="539.98" cy="442.66" rx="2.44" ry="2.32" transform="rotate(-89.78 539.987 442.657)"/><ellipse class="cls-16" cx="530.96" cy="440.96" rx="1.47" ry="1.39" transform="rotate(-89.78 530.976 440.96)"/><ellipse class="cls-16" cx="526.41" cy="440.07" rx=".98" ry=".93" transform="rotate(-89.78 526.42 440.063)"/><ellipse class="cls-16" cx="535.42" cy="441.76" rx="1.66" ry="1.58" transform="rotate(-89.78 535.436 441.764)"/><ellipse class="cls-16" cx="521.86" cy="439.27" rx=".49" ry=".46" transform="rotate(-89.78 521.866 439.265)"/><ellipse class="cls-16" cx="540.02" cy="431.03" rx="2.44" ry="2.32" transform="rotate(-89.78 540.03 431.03)"/><ellipse class="cls-16" cx="530.99" cy="432.66" rx="1.47" ry="1.39" transform="rotate(-89.78 531.005 432.66)"/><ellipse class="cls-16" cx="526.43" cy="433.52" rx=".98" ry=".93" transform="rotate(-89.78 526.448 433.52)"/><ellipse class="cls-16" cx="535.46" cy="431.8" rx="1.66" ry="1.58" transform="rotate(-89.78 535.477 431.795)"/><ellipse class="cls-16" cx="521.88" cy="434.28" rx=".49" ry=".46" transform="rotate(-89.78 521.886 434.285)"/><ellipse class="cls-16" cx="536.34" cy="420.07" rx="2.44" ry="2.32" transform="rotate(-89.78 536.357 420.07)"/><ellipse class="cls-16" cx="528.33" cy="424.83" rx="1.47" ry="1.39" transform="rotate(-89.78 528.34 424.835)"/><ellipse class="cls-16" cx="524.32" cy="427.26" rx=".98" ry=".93" transform="rotate(-89.78 524.332 427.262)"/><ellipse class="cls-16" cx="532.34" cy="422.4" rx="1.66" ry="1.58" transform="rotate(-89.78 532.348 422.407)"/><ellipse class="cls-16" cx="520.31" cy="429.69" rx=".49" ry=".46" transform="rotate(-89.78 520.33 429.684)"/><ellipse class="cls-16" cx="529.22" cy="411.06" rx="2.44" ry="2.32" transform="rotate(-89.78 529.226 411.057)"/><ellipse class="cls-16" cx="523.24" cy="418.46" rx="1.47" ry="1.39" transform="rotate(-89.78 523.248 418.462)"/><ellipse class="cls-16" cx="520.34" cy="422.16" rx=".98" ry=".93" transform="rotate(-89.78 520.355 422.16)"/><ellipse class="cls-16" cx="526.23" cy="414.76" rx="1.66" ry="1.58" transform="rotate(-89.78 526.237 414.76)"/><ellipse class="cls-16" cx="517.35" cy="425.86" rx=".49" ry=".46" transform="rotate(-89.78 517.366 425.863)"/><ellipse class="cls-16" cx="519.66" cy="405.26" rx="2.44" ry="2.32" transform="rotate(-89.78 519.671 405.259)"/><ellipse class="cls-16" cx="516.47" cy="414.33" rx="1.47" ry="1.39" transform="rotate(-89.78 516.477 414.327)"/><ellipse class="cls-16" cx="514.87" cy="418.82" rx=".98" ry=".93" transform="rotate(-89.78 514.883 418.819)"/><ellipse class="cls-16" cx="518.06" cy="409.75" rx="1.66" ry="1.58" transform="rotate(-89.78 518.072 409.745)"/><ellipse class="cls-16" cx="513.27" cy="423.31" rx=".49" ry=".46" transform="rotate(-89.78 513.283 423.306)"/></g></g></svg>