<svg xmlns="http://www.w3.org/2000/svg" viewBox="0 0 132.88 74.31"><defs><style>.cls-1{fill:#e6f0ed}.cls-2{fill:#c0c0b7}</style></defs><g id="图层_2" data-name="图层 2"><g id="图层_1-2" data-name="图层 1"><path class="cls-1" d="M113 24.94a.52.52 0 0 1-.45-.25c-.06-.1-6.79-11-13.84-10-.13 0-13.1 2-21.79-13.87a.62.62 0 0 1 0-.69.32.32 0 0 1 .18-.13.39.39 0 0 1 .37.12S82 4.29 90.07 1.61a22.59 22.59 0 0 0 2.51-1 3 3 0 0 1 .75-.33c2.21-.74 8.07-.71 16.53 13.91a15.62 15.62 0 0 1 0-6.46 8.46 8.46 0 0 1 5.91-6.27 16.22 16.22 0 0 1 3.62-.72c.08 0 8.9.72 12.86-.07a.41.41 0 0 1 .39.19.85.85 0 0 1 .16.56c0 .25-.7 6.57-10.46 9.82l-.65.22a15.17 15.17 0 0 0-8.42 13.12.36.36 0 0 1-.24.36H113z"/><path class="cls-2" d="M77.29.6s4.64 4.37 13 1.59a22.31 22.31 0 0 0 2.56-1 3.47 3.47 0 0 1 .69-.31c2-.67 8.36-.92 17.59 16.41 0 0-4.69-12.07 4.87-15.26a15.72 15.72 0 0 1 3.55-.7s8.9.72 12.93-.09c0 0-.57 6.23-10.22 9.45l-.65.22s-8 3.28-8.66 13.48c0 0-6.88-11.34-14.27-10.25 0 0-12.76 2.19-21.37-13.52"/><path class="cls-1" d="M48 74.3a.67.67 0 0 1-.6-.23c-.07-.1-8.25-11.25-18.29-9.31-.18.06-18.65 3.74-29-12.63a.58.58 0 0 1 .07-.76.55.55 0 0 1 .22-.16.6.6 0 0 1 .51.09s5.92 4 17.55.14c1.18-.39 2.42-.85 3.64-1.39a5.85 5.85 0 0 1 1.08-.44c3.2-1.07 11.43-1.72 21.62 13.3a13.81 13.81 0 0 1 .79-7.08c1.43-3.47 4.49-6 9-7.55a30.81 30.81 0 0 1 5.18-1.22h.07C60 47 72.31 46.79 78 45.46a.55.55 0 0 1 .53.16.72.72 0 0 1 .16.59c-.07.28-1.76 7.27-15.86 12l-.93.32c-.07 0-11.37 4.52-13.38 15.34a.52.52 0 0 1-.37.42c-.09.04-.15 0-.15.01z"/><path class="cls-2" d="M.61 51.83s6 4.25 18.05.23c1.19-.4 2.43-.85 3.72-1.41a6 6 0 0 1 1-.43c2.91-1 11.85-2 22.81 15.9 0 0-5.19-12.66 8.62-17.27a31.16 31.16 0 0 1 5.07-1.17s12.43-.26 18.2-1.62c0 0-1.53 6.89-15.48 11.55l-.93.31S50 62.45 47.92 73.68c0 0-8.34-11.6-18.85-9.55-.07.02-18.2 3.87-28.46-12.3"/></g></g></svg>