<svg xmlns="http://www.w3.org/2000/svg" viewBox="0 0 505.73 320.6"><defs><linearGradient id="b" x1="-.04" y1="160.5" x2="505.68" y2="160.5" gradientUnits="userSpaceOnUse"><stop offset="0" stop-color="#5ca2ff"/><stop offset=".13" stop-color="#6383d0"/><stop offset=".25" stop-color="#6a6aa9"/><stop offset=".37" stop-color="#6e578c"/><stop offset=".47" stop-color="#714c7b"/><stop offset=".54" stop-color="#724875"/><stop offset=".63" stop-color="#7d4f75"/><stop offset=".8" stop-color="#9c6375"/><stop offset="1" stop-color="#c87f75"/></linearGradient><clipPath id="a" transform="translate(.04 -.2)"><path style="fill:none" d="M0 0h505.79v321.2H0z"/></clipPath></defs><g data-name="图层 2"><g style="clip-path:url(#a)" data-name="图层 1"><path d="M14.9 101.42C3.29 111.57 0 130.73 0 144.25v27.55l9 7.64v-27.56a71.59 71.59 0 0 1 7.84-30.54 126.06 126.06 0 0 0-1.45 19c0 16.19 12.55 48.93 14.51 53.44L4.09 225.92l6.09 93.66v1.23H42v-5l-7.25-44.28 2.76-9.16 22.78-13.58 25.17 72.06h31.77v-4.89L95.5 271.19l.44-9 33.22-22.9L140.7 203h26.84l69.94 12.29v11.61l27.93 93.1v.69h32v-4.89l-16-44.65v-9.47l7.62-23.51 41.2 82.6H362v-5.19L336.5 271l-1.5-9.35 5.59-35.88 16.9-36.64a33.42 33.42 0 0 0 14.51 3.51h12.48a86.06 86.06 0 0 0 45.19-13.74l16.76-6.64 35.26 9.54 24-58v-.92l-16.39-6.11-3.48 3.06-12.48-6.49a85.33 85.33 0 0 0-.58-27.25l-5.15-9.54-.61 2.28a137.1 137.1 0 0 1-8.34 26l-25.31-15.24-20.67-24-6.46-12 20.6-52.09.51-1.3H416l-16.16 8.63 2.9-7.63.51-1h-11.54l-13.06 7.64H269.83l-95.76 14.73h-47c-43.53 0-79.8 22.9-98.23 60.61a55.17 55.17 0 0 1-13.94 18.24z" transform="translate(.04 -.2)" style="fill:url(#b)"/></g></g></svg>