<svg xmlns="http://www.w3.org/2000/svg" xmlns:xlink="http://www.w3.org/1999/xlink" viewBox="0 0 269.01 585"><defs><linearGradient id="未命名的渐变_515" x1="106.38" y1="5.19" x2="139.73" y2="62.96" gradientUnits="userSpaceOnUse"><stop offset="0" stop-color="#ff842f"/><stop offset=".08" stop-color="#d9773d"/><stop offset=".26" stop-color="#78565f"/><stop offset=".36" stop-color="#3e4274"/><stop offset=".6" stop-color="#3f395d"/><stop offset="1" stop-color="#41272d"/></linearGradient><linearGradient id="未命名的渐变_515-2" x1="113.09" y1="21.58" x2="126" y2="43.95" xlink:href="#未命名的渐变_515"/><linearGradient id="未命名的渐变_447" x1="2140.53" y1="4644.18" x2="2141.09" y2="4651.84" gradientTransform="rotate(-180 1043.415 2187.39) scale(.93)" gradientUnits="userSpaceOnUse"><stop offset="0" stop-color="#641016"/><stop offset=".4" stop-color="#550e10"/><stop offset="1" stop-color="#370b05"/></linearGradient><linearGradient id="未命名的渐变_447-2" x1="2119.69" y1="4644.62" x2="2120.26" y2="4652.28" xlink:href="#未命名的渐变_447"/><linearGradient id="未命名的渐变_3" x1="1978.63" y1="4527.49" x2="1985.13" y2="4510.31" gradientTransform="rotate(-169.25 850.837 2378.414)" gradientUnits="userSpaceOnUse"><stop offset="0" stop-color="#db6b51"/><stop offset=".18" stop-color="#d45e4d"/><stop offset="1" stop-color="#b5263c"/></linearGradient><linearGradient id="未命名的渐变_4" x1="1978.06" y1="4527.73" x2="1984.67" y2="4510.24" gradientTransform="rotate(-169.25 850.837 2378.414)" gradientUnits="userSpaceOnUse"><stop offset="0" stop-color="#db6b51"/><stop offset="1" stop-color="#b84122"/></linearGradient><linearGradient id="未命名的渐变_5" x1="231.05" y1="4167.83" x2="231.09" y2="4167.83" gradientTransform="matrix(1 0 0 -1 0 4752.71)" gradientUnits="userSpaceOnUse"><stop offset="0" stop-color="#37345f"/><stop offset="1" stop-color="#ef93a5"/></linearGradient><linearGradient id="未命名的渐变_545" x1="40.36" y1="131" x2="185.28" y2="382.02" gradientUnits="userSpaceOnUse"><stop offset="0" stop-color="#ff8463"/><stop offset=".11" stop-color="#d97f6f"/><stop offset=".35" stop-color="#78718e"/><stop offset=".49" stop-color="#3e69a0"/><stop offset=".65" stop-color="#386389"/><stop offset="1" stop-color="#29544d"/></linearGradient><linearGradient id="未命名的渐变_545-2" x1="155.43" y1="128.38" x2="205.22" y2="214.62" xlink:href="#未命名的渐变_545"/><linearGradient id="未命名的渐变_446" x1="53.75" y1="4428.9" x2="82.1" y2="4428.9" gradientTransform="matrix(1 0 0 -1 0 4752.71)" gradientUnits="userSpaceOnUse"><stop offset="0" stop-color="#efc4a5"/><stop offset=".99" stop-color="#f3ce97"/></linearGradient><style>.cls-3{fill:#f2c0b4}.cls-7{fill:#624497}.cls-11{fill:#b6dbed}.cls-13{fill:#efc4a5}.cls-19{fill:#f2c5ad}</style></defs><g id="图层_2" data-name="图层 2"><g id="图层_1-2" data-name="图层 1"><path d="M178.2 416.33c-6.58-1.95-14.18 5.14-17 15.85s.27 21 6.86 22.92 14.18-5.15 17-15.85-.27-20.97-6.86-22.92z" style="fill:#9962a4"/><path d="M140.7 62.41c.13-4.37 3.35-8 7-10.09s7.79-2.85 11.7-4.24c3.6-1.27 7.63-4.06 7.22-8-.3-3-2.91-4.89-4.94-7s-3.62-5.6-1.75-7.81a8.48 8.48 0 0 1 2.73-1.78c4.59-2.47 7.24-8.43 6.13-13.76S162.9.19 157.74 0c-8.31-.3-14.57 8.42-22.75 10.06-5.77 1.15-11.55-1.38-17.19-3.1S105.44 4.54 101 8.59c-5.8 5.25-4.53 15.2-8.36 22.19C90 35.6 85.13 38.59 81.94 43c-6.75 9.36-3.68 24.8 6.06 30.47s23.68.16 27.53-10.89" style="fill:url(#未命名的渐变_515)"/><path class="cls-3" d="m130.34 96-.21-8.3s19.2 5.24 20-12.63c1.47-31.14 3.56-39.49-8.07-49.55S99 27.67 99.78 53.84Q98.16 76.93 96.52 100c1.53 2.42 6.07 8.87 14.14 11 5.88 1.57 16.29 1.56 19.58-5.19 1.76-3.61.76-7.75.1-9.81z"/><path class="cls-3" d="M90.16 56.15a9.08 9.08 0 0 1 10.72-7.31 9.4 9.4 0 0 1 7 11.16 9.08 9.08 0 0 1-10.72 7.32 9.43 9.43 0 0 1-7-11.17z"/><path d="M145.44 27c-1.05 5.05-6 8.19-10.87 9.33s-9.92.89-14.7 2.26-9.54 5.09-9.91 10.24c-.1 1.4.11 2.91-.55 4.15a3.67 3.67 0 0 1-3.83 1.7 6.54 6.54 0 0 1-3.71-2.33 14.43 14.43 0 0 1-3-11.3 24.09 24.09 0 0 1 4.78-10.92c4.55-6.14 11.2-10.73 18.56-11.93a22.66 22.66 0 0 1 20.38 6.87" style="fill:url(#未命名的渐变_515-2)"/><path d="M124.74 53.84a2 2 0 1 0 2-2.46 2.28 2.28 0 0 0-2 2.46z" style="fill:url(#未命名的渐变_447)"/><path d="M144.09 54.22a2 2 0 1 0 3.89.05 2 2 0 1 0-3.89-.05z" style="fill:url(#未命名的渐变_447-2)"/><path class="cls-3" d="M134.91 53.59a15.51 15.51 0 0 0 1.66 6.61c1.34 2.44 3.41 4.06 3.16 4.59-.17.38-1.36-.12-1.42.12s.16.27.42.45a7.39 7.39 0 0 1-3.95-.93 3.73 3.73 0 0 1-1.67-1.7c-1.11-2.19-.42-5.92 1.8-9.14zM113.25 59.14c-.52 1.66.65 3.57 2.6 4.26s4-.11 4.48-1.78a3.65 3.65 0 0 0-2.61-4.25c-1.95-.68-3.96.11-4.47 1.77zM146.17 61.37c.39 1.63 2.23 2.53 4.16 2.07.22-2.07.38-4.17.46-6.27a4.22 4.22 0 0 0-1.79.11c-2 .57-3.26 2.4-2.83 4.09z"/><path class="cls-7" d="M121.54 45.45a.77.77 0 0 0 .53-.09c2.8-1.68 6.55-.37 6.58-.35a.8.8 0 0 0 1-.54.87.87 0 0 0-.5-1.09c-.17-.06-4.46-1.58-7.9.48A.89.89 0 0 0 121 45a.83.83 0 0 0 .54.45zM149.41 46.17a.71.71 0 0 0 .34-.08.88.88 0 0 0 .41-1.13c-1-2.39-4.26-1.91-6-1.25a.86.86 0 0 0-.49 1.09.79.79 0 0 0 1 .53c.88-.33 3.49-1 4 .32a.79.79 0 0 0 .74.52z"/><path d="M141 71.88c-1.33-.48-2.76-.95-4.26-1.38a63.1 63.1 0 0 0-6.91-1.57s-.7 5.65 2.49 8.28a4.68 4.68 0 0 0 3 1.24c2.36-.02 4.76-2.62 5.68-6.57z" style="fill:url(#未命名的渐变_3)"/><path d="M138.29 77a4.59 4.59 0 0 1-3 1.43 4.74 4.74 0 0 1-3-1.24c-1.87-1.55-2.4-4.12-2.52-6 4.03-.77 7.56 1.52 8.52 5.81z" style="fill:url(#未命名的渐变_4)"/><path class="cls-3" d="M98.19 54.85s-5.08-1.54-4 2.71 4.36 4.63 4.36 4.63M129.75 86.14l-12.7-4.64 12.7 18.54.38-12.37"/><path d="M231.09 584.77c-.02.32 0 .3 0 0z" style="fill:url(#未命名的渐变_5)"/><path class="cls-11" d="M89.4 95.2c-3 1-7.47 4.14-7.47 4.14v10.44l60.84 3.15-3-13.09s-36.52-9.11-50.37-4.64z"/><path style="fill:#191316" d="M37.58 388.35 6.77 538.48l101.78 4.65 12.4-108.23 32.72 106.24 80.14-11.44-25.68-166.05-170.55 24.7z"/><path class="cls-3" d="m269 297.2-53.4-110.69-28 31.15s35.79 89.82 51.66 98.44"/><path class="cls-13" d="M42.25 254.12H11.13S-18 306.93 21.84 305.61"/><path d="M59.68 161.32s-21 58.66-26.14 103.4" style="fill:none;stroke:#e25c9c;stroke-miterlimit:10;stroke-width:2.57px"/><path class="cls-11" d="M113.53 363.16c-29.22 6.1-66.59.13-79.64-1.63l.12 33s119-27.34 149.85-15.91 31.74-7.95 31.74-7.95l-2-13.44c-22.93-1.37-75.41.77-100.07 5.93z"/><path d="m195.12 235.14-17.33-114.59-42.94-10.44-54-2.48s-.72.45-2 1.26c-8.57 5.51-42.19 27.42-44.09 33.2-2.15 6.63-26.42 116.17-26.42 116.17l25.21 6.47.2 55.8c-3.15 11.47-10.14 39.85-2.69 40.64.74.08 1.71.21 2.84.36 13 1.76 50.41 7.73 79.63 1.63 24.67-5.15 77.15-7.3 100.05-6 6.57.38 10.71 1 11.06 2 1.17 3.29-19.47-82.37-29.52-124.02z" style="fill:url(#未命名的渐变_545)"/><path d="M187.91 224.62s35.79-34.8 39.21-32.15l-47.93-72.24h-9.64l-2.81 87.82 17.12 16.57z" style="fill:url(#未命名的渐变_545-2)"/><path d="M79.86 381.72a9.92 9.92 0 0 1-1-.3 5 5 0 0 0 1 .3z" style="fill:#112d47"/><path class="cls-13" d="M6.77 266.28s-15.6 32.32.56 46.18 57 46.16 59.14 46.16 15.86-20.47 15.86-26.14-62.39-57.17-62.39-57.17z"/><path d="M61.22 328.13s17.41 11.61 20.64 3-26.72-17.82-26.72-17.82L53.75 326z" style="fill:url(#未命名的渐变_446)"/><path class="cls-19" d="M66.56 357.59a1.94 1.94 0 0 0 .94 2.33c3.17 1.61 10.76 4.83 13 .13s-6.28-7.15-10.18-8a2.1 2.1 0 0 0-2.44 1.46zM73.91 337.25l1.09-2.88a1.8 1.8 0 0 1 2.18-1.11c4.2 1.31 15.19 5.26 13 10.16s-12.7.28-16.46-1.59a1.67 1.67 0 0 1-.77-2.14z"/><path class="cls-19" d="m75.93 327.85 1.41-1.69a2.08 2.08 0 0 1 2-.73c4.08.9 16.87 4.22 14.17 10.32s-14.06-.75-17.82-3.21a2 2 0 0 1-.75-2.26l.57-1.72a2.14 2.14 0 0 1 .42-.71zM70.14 345.81l.57-1.32a2.73 2.73 0 0 1 2.69-1.64c4.81.41 16.75 2.2 12.7 9.69-4 7.32-12.85 1.61-16.46-1.14a2.53 2.53 0 0 1-.68-3.11z"/></g></g></svg>