<svg xmlns="http://www.w3.org/2000/svg" xmlns:xlink="http://www.w3.org/1999/xlink" viewBox="0 0 451.44 437.92"><defs><linearGradient id="未命名的渐变_1023" x1="286.28" y1="16.82" x2="362.86" y2="149.47" gradientUnits="userSpaceOnUse"><stop offset="0" stop-color="#4bffdd"/><stop offset=".23" stop-color="#faa489"/><stop offset=".59" stop-color="#ffd967"/><stop offset="1" stop-color="#ffde00"/></linearGradient><linearGradient id="未命名的渐变_1023-2" x1="331.31" y1="143.23" x2="409.9" y2="279.35" xlink:href="#未命名的渐变_1023"/><linearGradient id="未命名的渐变_1023-3" x1="344.82" y1="150.31" x2="408.51" y2="260.63" xlink:href="#未命名的渐变_1023"/><style>.cls-2,.cls-9{fill-rule:evenodd}.cls-2{fill:#ffd6c2}.cls-9{fill:#ff803a}</style></defs><g id="图层_2" data-name="图层 2"><g id="图层_1-2" data-name="图层 1"><g id="人物_男性_8" data-name="人物/男性/8"><g id="人物:男性:8"><g id="头型1_" data-name="头型1"><path id="圆角矩形_5" data-name="圆角矩形 5" d="M429.43 88.45c6.37 3.46 8.84 10.7 5.52 16.18l-17.74 32.68c-1.62 3.86-5.61 6.38-10.3 6.52A14.09 14.09 0 0 1 395 138a10.31 10.31 0 0 1-.38-11.79l17.77-32.71c2.78-5.75 10.4-8 17-5z" style="fill-rule:evenodd;fill:#ffba99"/><path id="形状_16" data-name="形状 16" class="cls-2" d="M403.9 69.63a207.7 207.7 0 0 0-16.85 31.05c-2.36 6.47 2.1 9.32 2.1 9.32a23.18 23.18 0 0 0 7.52 3.71 29.37 29.37 0 0 0 9.29.44 45.1 45.1 0 0 0 8.3-2.12 53.82 53.82 0 0 0 10.06-5.38l4.54-4s28.72-25.52-4.71-39.62c-12.36-5.19-20.25 6.6-20.25 6.6zm29.39 24.87a11.51 11.51 0 0 1 7.42-.48c4 2.27 1.1 6.76 1.1 6.76a7.33 7.33 0 0 1-4.54 4 28.9 28.9 0 0 1-12 .26z"/><path id="形状_17" data-name="形状 17" d="M423.69 81.47s-13.39-4-18.8-9.27a11.74 11.74 0 0 1-3.08-11.88 20.34 20.34 0 0 1 6.31-7.24 18.75 18.75 0 0 1 8.3-2.13 14 14 0 0 1 8.4 2.08 11 11 0 0 1 3.87 6 34.9 34.9 0 0 0 4.86 8.61 14.91 14.91 0 0 0 7.51 3.71 14.35 14.35 0 0 1 9.51 8.84 22.32 22.32 0 0 1-3.23 19.12 66 66 0 0 1-10 9.58 19.73 19.73 0 0 1-9.19 3.75 4.05 4.05 0 0 1-3.76-1.85 2.26 2.26 0 0 1 0-2.07 2.45 2.45 0 0 1 1.76-1.21l3.65-2.34s7.39 3.67 12.84-6.09c.89-1.6-2.88-3.49-2.88-3.49a6.33 6.33 0 0 0-4.64-.22 21.42 21.42 0 0 0-4.54 4s3.53-8.35 1.57-11.66a19.22 19.22 0 0 0-8.52-6.27z" style="fill:#3a1200;fill-rule:evenodd"/></g><g id="裤子"><path id="形状_30_拷贝_2" data-name="形状 30 拷贝 2" d="M65.32 381.6 44 393.86 0 348a16.15 16.15 0 0 1 13.39-2.16C22 347.73 30 358.5 30 358.5a17.29 17.29 0 0 0 6.94 4.85c3.08 1 19.54-2.31 19.54-2.31z" style="fill:#1d1f36;fill-rule:evenodd"/><path id="形状_50_拷贝" data-name="形状 50 拷贝" d="M335.26 296.17s-23.92 30.5-51.92 31.54c-38.8 1.44-92.17-22.74-92.17-22.74a75.91 75.91 0 0 1-21.12 18.59c-35.37 20.59-107.24 60.22-107.24 60.22l-12-22.45 121.33-102.17 127.51-10.73z" style="fill:#2633a4;fill-rule:evenodd"/><path id="形状_30" data-name="形状 30" d="m101.87 425.66-21.34 12.26-44-45.9a16.15 16.15 0 0 1 13.39-2.16c8.6 1.92 16.6 12.69 16.6 12.69a17.1 17.1 0 0 0 6.94 4.85 68 68 0 0 0 10.31 1.6z"/><path id="形状_50" data-name="形状 50" d="M381.36 293.27S365.9 328.34 339.31 335c-36.84 9.22-93.9-4.05-93.9-4.05a71.82 71.82 0 0 1-15.7 22.69C200.85 381.18 100.8 428.8 100.8 428.8L83.77 409 216 289.33l119.59-36.27z" style="fill:#3644be;fill-rule:evenodd"/></g><g id="衣服"><path id="形状_26_拷贝" data-name="形状 26 拷贝" class="cls-2" d="M286.93 25.7S279.1 15.5 276.49 12c-2.16-2.87-3.7 2.59-3.7 2.59a6 6 0 0 1-3.45-3.48 53.68 53.68 0 0 1-1.87-7 5 5 0 0 0-1.33-2.6s-6.73-5.92-12.42 5.17c-3.15 6.15 10.09 28.56 10.09 28.56z"/><path id="形状_44" data-name="形状 44" d="m393.61 131.72-65.14-36a30.84 30.84 0 0 1-5.17-3.87 8.34 8.34 0 0 1-2.91-3.95l-32.51-61.85-26.68 5.25 34.09 72a93.58 93.58 0 0 0 9 13.9c4 4.66 39.48 33 39.48 33z" style="fill:url(#未命名的渐变_1023);fill-rule:evenodd"/><path id="形状_24" data-name="形状 24" d="M396.39 125.66a20.88 20.88 0 0 0-1.66 7.41 9.54 9.54 0 0 0 1.94 5.08 71.9 71.9 0 0 0 15.49-2.63 34.9 34.9 0 0 0 9.94-5.36l17.9 23.26a31.53 31.53 0 0 1 6.71 13.58 23 23 0 0 1-2.45 13.2l-62.34 115.3-92.49-45.77 63.21-116.89a31.43 31.43 0 0 1 17.16-10 52.18 52.18 0 0 1 26.59 2.86z" style="fill:url(#未命名的渐变_1023-2);fill-rule:evenodd"/><path id="形状_26" data-name="形状 26" class="cls-2" d="M298.19 178.4a147.42 147.42 0 0 0-15.73-7c-3.93-1.18-.27 4.07-.27 4.07a7.77 7.77 0 0 1-5.33-1c-2.5-1.43-4.91-3-7.25-4.63a7.82 7.82 0 0 0-3.14-1.4s-9.65-1.2-4 10.81c3.16 6.67 26.8 19 26.8 19z"/><path id="形状_52" data-name="形状 52" class="cls-9" d="m407.23 161.44-25.68 40.28-55.45-11.95-4.63 1.92 77.45 40.5 21.46-62.75-13.15-8z"/><path id="形状_53" data-name="形状 53" class="cls-9" d="m310.41 212.44 84.9 53.55 6.77-8.19-89.52-51.63-2.15 6.27z"/><path id="形状_51" data-name="形状 51" d="m445.25 177.94-30.37 77.23a15.87 15.87 0 0 1-5.7 5.06 16.33 16.33 0 0 1-8.18.7l-113.32-63.27 11.06-20.74 89.19 41 19.3-56.48" style="fill:url(#未命名的渐变_1023-3);fill-rule:evenodd"/></g></g></g></g></g></svg>