<svg xmlns="http://www.w3.org/2000/svg" viewBox="0 0 199.54 270.29"><defs><style>.cls-1{fill:#7cd0a4}.cls-3{fill:#f99552}</style></defs><g id="图层_2" data-name="图层 2"><g id="图层_1-2" data-name="图层 1"><path class="cls-1" d="M.53 179.92a5.65 5.65 0 0 0-.15 4.4 56.76 56.76 0 0 0 15.91 22.62 51.07 51.07 0 0 0 20.54 10.84c9.21 2.45 19.43 2.45 30.41.08a5.13 5.13 0 0 0 3.63-7 69.46 69.46 0 0 0-15.54-22.14c-10-9.44-27-19.08-51.73-11.44a5 5 0 0 0-3.07 2.64z"/><path class="cls-1" d="m95.85 245.93.29.53.37.45.45.38.48.3.52.23.55.15.55.07h.56l.56-.12.55-.22.52-.3.44-.38.37-.45.3-.49.22-.53.15-.56.07-.57v-.56l-.11-.57-.22-.56-.11-.23-.22-.45-.11-.22-.11-.23-.11-.23-.11-.22-.12-.23-.22-.45-.11-.23-.11-.22-.11-.23-.11-.22-.11-.23-.11-.23-.12-.22-.22-.45-.11-.23-.11-.22h.15l-.11-.23-.11-.22-.11-.23-.11-.22-.12-.23-.22-.45-.11-.23-.11-.22-.11-.23-.11-.23-.11-.22-.11-.23-.12-.22-.22-.46-.11-.22-.11-.23-.11-.22-.18-.3-.11-.22-.11-.23-.11-.23-.23-.45-.11-.22-.11-.23-.11-.23-.11-.22-.11-.23-.22-.45-.11-.22-.11-.23-.12-.23-.11-.22-.11-.23-.11-.22-.11-.23-.15-.23-.74-1.13-.15-.22-.14-.19-.15-.19-.15-.19-.3-.37-.11-.19-.15-.19-.15-.21-.3-.37-.14-.19-.15-.19-.15-.19-.3-.37-.14-.19-.15-.19-.15-.19-.15-.19-.15-.18-.14-.19-.15-.19-.15-.19-.3-.37-.18-.19-.19-.19-.18-.19-.19-.19-.18-.19-.33-.34-.19-.18-.18-.19-.19-.19-.18-.19-.19-.17-.18-.18-.19-.19-.19-.15-.36-.3-.19-.15-.18-.16-.19-.15-.37-.3-.18-.15-.19-.15-.19-.15-.18-.15-.18-.15-.19-.15-.18-.15-.19-.15-.37-.3-.18-.15-.19-.15-.19-.15-.36-.31-.19-.15-.18-.15-.19-.15-.22-.15-1.33-.9-.23-.11-.22-.12-.22-.11-.22-.11-.22-.12-.23-.11-.44-.22-.22-.12-.22-.11-.22-.11-.23-.12-.22-.11-.44-.22-.23-.12-.22-.11-.22-.11-.22-.12-.22-.11-.22-.11-.23-.12-.44-.22-.22-.11-.23-.12-.22-.11-.22-.11-.22-.12-.22-.11-.15.08-.22-.12-.45-.22-.22-.11-.22-.12-.22-.11-.22-.11-.23-.12-.22-.11-.22-.11-.45-.23-.22-.11-.22-.11-.22-.12-.22-.11-.23-.11-.44-.23-.22-.11-.22-.11-.23-.12-.22-.11-.22-.11-.22-.12-.22-.11-.23-.11-.44-.19-1-.15h-1.15l-1.07.37-.89.72-.67 1-.24 1.18V213l.37 1.09.7.91 1 .67.45.19.22.11.22.12.22.11.23.11.44.23.22.11.22.11.23.12.22.11.22.11.22.12.22.11.45.22.22.12.22.11.22.11.23.12.22.11.44.22.22.12.22.11.23.11.22.12.22.11.19.11.18.12.19.11.18.11.19.11.18.12.19.11.18.11.19.12.18.11.19.11.37.23.18.11.19.11.18.12.19.11.18.11.19.12.18.11.19.11.18.11.19.12.18.11.19.11.18.12.19.11.18.11.19.11.18.12.19.11.18.11.19.12.18.11.19.11.18.12.37.22.19.11.18.12.19.11.18.11.19.12.18.11.19.11.18.11.15.12.15.11.15.11.14.12.15.11.15.11.3.23.14.11.15.11.15.12.15.11.14.11.15.15.15.15 1.33 1.36.15.11.3.3.89.91.14.15.45.45.14.15.12.15.11.15.11.15.11.15.11.15.11.15.11.15.11.15.11.15.12.15.11.15.11.15.11.19.11.19.11.19.11.19.11.19.11.19.12.18.11.19.11.19.02.2.11.19.22.37.11.19.11.19.11.19.11.18.12.19.11.19.11.19.11.19.11.19.11.18.11.19.11.19.11.19.12.19.11.18.11.19.11.19.11.19.11.19.11.18.11.19.11.19.11.19.23.38.11.19.11.18.11.19.11.19.11.19.11.19.11.18.11.19.11.23.12.22.11.23.11.23.11.22.11.23.11.22.11.23.11.23.11.22.12.23.11.22.11.23.11.22.11.23.22.45.11.23.11.22.11.23.11.23.12.22.11.23.11.22.11.23.11.22.11.23.11.23zM199 162.79a5.55 5.55 0 0 1 .15 4.4 56.71 56.71 0 0 1-15.91 22.63 51.09 51.09 0 0 1-20.53 10.84c-9.22 2.44-19.43 2.44-30.42.07a5.13 5.13 0 0 1-3.62-7 69.36 69.36 0 0 1 15.54-22.13c10-9.45 27-19.09 51.72-11.45a4.7 4.7 0 0 1 3.07 2.64z"/><path class="cls-1" d="m103.62 229-.3.53-.37.45-.44.37-.48.31-.52.22-.51.12-.55.08h-.59l-.6-.11-.55-.23-.52-.3-.49-.44-.37-.45-.3-.49-.22-.52-.15-.57-.07-.56v-.61l.11-.6.23-.56.11-.23.11-.22.11-.23.11-.23.11-.22.11-.23.11-.22.11-.23.12-.22.11-.23.11-.23.11-.22.11-.23.22-.45.11-.22.11-.23.11-.23.11-.22.12-.23.11-.22.11-.23.22-.45.11-.23.11-.22.11-.23.11-.23.12-.22.11-.23.11-.22.11-.23.11-.22.11-.23.11-.23.11-.22.11-.23.12-.22.22-.46.11-.22.11-.23.11-.22.11-.23.11-.22.11-.23.11-.23.22-.45.12-.22.11-.23.11-.23.11-.22.11-.23.11-.22.11-.23.11-.23.11-.22.12-.23.59-.9.14-.23.15-.22.15-.23.59-.9.15-.19.15-.19.15-.18.15-.19.14-.19.15-.19.15-.19.15-.19.14-.19.3-.37.15-.19.15-.19.15-.19.29-.37.15-.19.15-.19.14-.19.3-.37.15-.19.19-.19.18-.19.18-.19.19-.18.18-.19.19-.19.33-.34.2-.22.18-.18.19-.19.18-.19.19-.19.18-.19.19-.19.18-.19.19-.15.18-.15.19-.15.18-.15.19-.15.18-.15.37-.3.19-.15.18-.15.19-.15.37-.3.18-.15.19-.15.18-.15.37-.3.19-.15.18-.16.19-.15.37-.3.89-.6.22-.15.22-.15.22-.15.67-.45.22-.12.44-.22.23-.12.22-.11.22-.11.22-.11.22-.12.45-.22.22-.12.22-.11.22-.11.22-.11.23-.12.22-.11.22-.11.45-.23.22-.11.22-.11.22-.12.22-.11.23-.11.22-.12.22-.11.44-.22.23-.12.22-.11.22-.11.22-.12.22-.11.45-.22.22-.12.22-.11.22-.11.22-.12.23-.11.22-.11.22-.12.45-.22.22-.11.22-.12.22-.11.22-.11.23-.12.22-.11.22-.11.44-.23.23-.11.22-.11.22-.12.22-.11.45-.19 1.14-.34h1.15l1.07.38.93.71.66 1 .34 1.17v1.16l-.37 1.09-.7.94-1 .68-.45.19-.22.11-.22.12-.22.11-.45.22-.22.12-.22.11-.22.11-.22.12-.23.11-.44.23-.22.11-.22.11-.23.12-.22.11-.22.11-.22.11-.22.12-.45.22-.22.12-.22.11-.23.11-.22.11-.22.12-.22.11-.22.11-.45.23-.22.11-.18.11-.19.12-.18.11-.19.11-.18.12-.19.11-.18.11-.19.11-.18.12-.41.22-.19.12-.18.11-.19.11-.18.11-.19.12-.18.11-.18.11-.19.12-.18.11-.19.11-.19.12-.18.11-.19.11-.18.11-.19.12-.18.11-.18.11-.19.12-.18.11-.19.11-.19.11-.18.12-.19.11-.18.11-.19.12-.18.11-.18.11-.19.12-.19.11-.18.11-.19.11-.18.12-.19.11-.18.11-.15.12-.15.11-.29.22-.15.12-.15.11-.15.11-.15.12-.14.11-.15.15-.15.15-1.48 1.51-.15.15-.14.15-1.49 1.5-.14.15-.15.15-.15.15-.11.15-.11.15-.11.16-.11.15-.11.15-.22.3-.12.15-.11.15-.11.15-.11.19-.11.19-.11.18-.11.19-.11.19-.11.19-.12.19-.11.19-.11.18-.11.19-.11.19-.11.19-.11.19-.11.18-.11.19-.12.19-.11.19-.11.19-.11.18-.11.19-.22.38-.11.19-.11.19-.11.19-.11.18-.12.19-.11.19-.11.19-.11.19-.11.18-.11.19-.11.19-.11.19-.11.19-.12.18-.11.19-.11.19-.11.19-.11.19-.11.19-.11.18-.11.19-.11.19-.11.19-.11.19-.11.22-.12.23-.11.22-.11.23-.11.22-.11.23-.22.45-.11.23-.11.23-.12.22-.11.23-.11.22-.11.23-.11.22-.22.46-.11.22-.11.23-.12.22-.11.23-.11.22-.11.23-.11.23-.22.45-.11.22-.11.23-.11.23-.11.22z"/><path d="M98.21 270.29a4.27 4.27 0 0 0 4.26-4.33V143.44H94V266a4.27 4.27 0 0 0 4.25 4.33z" style="fill:#4abe81"/><path class="cls-3" d="m85.34 53.3 1.44 4.93c.48 2 .85 4 1.15 6.13a4 4 0 0 1-1 3.16 3.79 3.79 0 0 1-3 1.28 43.19 43.19 0 0 1-9.1-1.58l-2-.6 3.7 3.54q2.06 2.2 4 4.74a3.79 3.79 0 0 1 .71 3.2 4.06 4.06 0 0 1-2 2.64A48.83 48.83 0 0 1 70.65 84l-2 .49 4.92 1.17c1.92.56 3.85 1.28 5.81 2.07a3.86 3.86 0 0 1 2.18 2.41 4 4 0 0 1-.4 3.27 46 46 0 0 1-5.89 7.23l-1.51 1.47 4.84-1.47a60.65 60.65 0 0 1 6-1.17 3.82 3.82 0 0 1 3.11 1 3.93 3.93 0 0 1 1.29 3.04 45.9 45.9 0 0 1-1.55 9.26l-.59 2 3.47-3.77c1.45-1.4 3-2.75 4.66-4.07a3.65 3.65 0 0 1 3.15-.71 4 4 0 0 1 2.59 2 50.47 50.47 0 0 1 3.22 8.81l.48 2 1.15-5c.55-2 1.26-3.91 2-5.9a3.8 3.8 0 0 1 5.59-1.81 45.31 45.31 0 0 1 7.1 6l1.45 1.55-1.42-4.87c-.48-2-.85-4-1.14-6.14a3.94 3.94 0 0 1 1-3.16 3.78 3.78 0 0 1 3-1.28 44.08 44.08 0 0 1 9.1 1.58l2 .6-3.74-3.6a59.41 59.41 0 0 1-4-4.74 3.81 3.81 0 0 1-.7-3.2 4 4 0 0 1 2-2.63 47.13 47.13 0 0 1 8.66-3.28l2-.49-4.92-1.16c-1.92-.57-3.85-1.28-5.81-2.07a3.89 3.89 0 0 1-2.18-2.41 4.1 4.1 0 0 1 .41-3.28 46.28 46.28 0 0 1 5.88-7.22l1.52-1.47-4.85 1.47a60.65 60.65 0 0 1-6 1.16 3.82 3.82 0 0 1-3.11-1 4 4 0 0 1-1.26-3 46.16 46.16 0 0 1 1.56-9.26l.59-2-3.48 3.77c-1.44 1.39-3 2.75-4.66 4.06a3.65 3.65 0 0 1-3.15.72 4 4 0 0 1-2.59-2 49.7 49.7 0 0 1-3.21-8.8l-.49-2-1.14 5c-.56 2-1.26 3.91-2 5.91A3.81 3.81 0 0 1 94 60.89a46.28 46.28 0 0 1-7.1-6zm-4.7-49.5a4 4 0 0 1 3.22.49 42.29 42.29 0 0 1 17.91 23.07l.37 1.55.59-2.86c2.15-7.79 7-16 17.2-22.74a3.67 3.67 0 0 1 3-.52 3.94 3.94 0 0 1 2.55 2.07 42.61 42.61 0 0 1 5.11 20.24 41.15 41.15 0 0 1-.93 8.85l-.44 1.51 1.92-2.19c5.67-5.64 14-10.27 26.05-10.91a3.68 3.68 0 0 1 2.81 1.09 4.13 4.13 0 0 1 1.19 3.08 43.4 43.4 0 0 1-5.55 20.14 39.83 39.83 0 0 1-5.18 7.19L149.39 55l2.74-.9c7.69-2 17.16-1.81 27.93 3.8a4 4 0 0 1 1.94 2.32 4.1 4.1 0 0 1-.48 3.28 42 42 0 0 1-14.69 14.6 39.51 39.51 0 0 1-8 3.61l-1.52.38 2.82.6c7.66 2.19 15.72 7.16 22.34 17.51a3.93 3.93 0 0 1 .52 3 4 4 0 0 1-2 2.59A41 41 0 0 1 161 111a39.76 39.76 0 0 1-8.69-.94l-1.48-.46 2.14 2c5.55 5.76 10.1 14.19 10.73 26.5a3.89 3.89 0 0 1-4.1 4.1 41.52 41.52 0 0 1-19.8-5.65 39.11 39.11 0 0 1-7.07-5.26l-1.07-1.13.89 2.78c2 7.83 1.77 17.47-3.74 28.42a3.9 3.9 0 0 1-2.33 2 4 4 0 0 1-3.22-.49 42.19 42.19 0 0 1-17.91-23.08l-.37-1.54-.59 2.86c-2.15 7.79-7 16-17.2 22.74a3.83 3.83 0 0 1-3 .52 3.92 3.92 0 0 1-2.55-2.07 42.67 42.67 0 0 1-5.07-20.3 41.12 41.12 0 0 1 .92-8.84l.45-1.51-1.94 2.2c-5.66 5.64-14 10.27-26.05 10.91a3.81 3.81 0 0 1-2.84-1.09 4.14 4.14 0 0 1-1.19-3.09 43.4 43.4 0 0 1 5.55-20.13 39.34 39.34 0 0 1 5.18-7.19l1.11-1.1-2.74.91c-7.69 2-17.16 1.81-27.93-3.8a3.92 3.92 0 0 1-1.92-2.37 4.09 4.09 0 0 1 .48-3.28A42 42 0 0 1 40.34 89a40.45 40.45 0 0 1 8-3.62l1.51-.38-2.85-.57c-7.66-2.19-15.72-7.16-22.35-17.51a3.85 3.85 0 0 1-.51-3.05 4 4 0 0 1 2-2.59 36.21 36.21 0 0 1 8.7-3.58 43.73 43.73 0 0 1 11.21-1.62 36.94 36.94 0 0 1 8.69 1l1.67.6-2.3-2.11c-5.55-5.75-10.1-14.18-10.73-26.49a3.86 3.86 0 0 1 1.08-2.9 3.78 3.78 0 0 1 1.7-1.06 7 7 0 0 1 1.29-.18 41.45 41.45 0 0 1 19.8 5.64 39.64 39.64 0 0 1 7.07 5.27L75.46 37l-.89-2.78c-2-7.83-1.78-17.47 3.74-28.42a3.9 3.9 0 0 1 2.33-2z"/><path d="M90.81 48.82v5.15a58.78 58.78 0 0 1-.63 6.22 3.88 3.88 0 0 1-1.81 2.74 3.73 3.73 0 0 1-3.22.34 46.63 46.63 0 0 1-8.29-4.14L75.16 58l2.56 4.45a59.77 59.77 0 0 1 2.51 5.72 3.92 3.92 0 0 1-2.85 5.23 47.71 47.71 0 0 1-9.21.64l-2.07-.11 4.4 2.56c1.67 1.09 3.33 2.33 5 3.65a4 4 0 0 1 1.45 3 3.76 3.76 0 0 1-1.33 3A49.67 49.67 0 0 1 68 91.31l-1.85.94h5.07a56.93 56.93 0 0 1 6.1.64A3.82 3.82 0 0 1 80 94.7a3.91 3.91 0 0 1 .31 3.3 50.07 50.07 0 0 1-4.07 8.44l-1.15 1.77 4.37-2.6a59.09 59.09 0 0 1 5.62-2.61 3.68 3.68 0 0 1 3.22.23 3.91 3.91 0 0 1 1.92 2.67 49.86 49.86 0 0 1 .63 9.37l-.11 2.11 2.52-4.48c1.07-1.7 2.29-3.39 3.58-5.08a3.86 3.86 0 0 1 2.93-1.47 3.65 3.65 0 0 1 3 1.35 50.26 50.26 0 0 1 5.14 7.8l.93 1.88v-5.16a61.64 61.64 0 0 1 .63-6.21 3.9 3.9 0 0 1 1.81-2.75 3.76 3.76 0 0 1 3.22-.34 48.34 48.34 0 0 1 8.29 4.14l1.74 1.17-2.56-4.44c-.92-1.81-1.73-3.73-2.51-5.72a3.91 3.91 0 0 1 2.85-5.23 46.78 46.78 0 0 1 9.21-.64l2.07.11-4.4-2.56c-1.67-1.09-3.33-2.33-5-3.65a4 4 0 0 1-1.44-3 3.79 3.79 0 0 1 1.33-3 50.51 50.51 0 0 1 7.66-5.23l1.85-.94h-5.07a56.66 56.66 0 0 1-6.1-.64 3.91 3.91 0 0 1-3-5.12 49.42 49.42 0 0 1 4.08-8.43l1.02-1.74-4.36 2.6a60.44 60.44 0 0 1-5.63 2.56 3.75 3.75 0 0 1-3.22-.23 3.91 3.91 0 0 1-1.92-2.67 49.86 49.86 0 0 1-.63-9.37l.11-2.11-2.52 4.48c-1.07 1.69-2.29 3.38-3.59 5.08a3.85 3.85 0 0 1-2.92 1.47 3.67 3.67 0 0 1-3-1.36 49.85 49.85 0 0 1-5.14-7.79zM100.18 0a4 4 0 0 1 3 1.39 42.6 42.6 0 0 1 9.58 18.48 40.31 40.31 0 0 1 1.11 8.85l-.08 1.58 1.37-2.56c4.22-6.85 11.21-13.32 22.83-16.83a3.79 3.79 0 0 1 3 .38 4.11 4.11 0 0 1 1.88 2.71 42.76 42.76 0 0 1-.77 20.89 40.69 40.69 0 0 1-3.37 8.21l-.85 1.35 2.44-1.5c7-3.77 16.28-5.84 28.05-2.94a4 4 0 0 1 2.44 1.85 4.23 4.23 0 0 1 .3 3.31 43 43 0 0 1-11 17.69 39.68 39.68 0 0 1-7 5.38l-1.37.71 2.85-.07c7.91.3 16.94 3.24 25.71 11.71a3.9 3.9 0 0 1 1.19 2.86 4.16 4.16 0 0 1-1.37 3A41.43 41.43 0 0 1 162 96.21a37.87 37.87 0 0 1-8.7 1.12l-1.55-.07 2.52 1.39c6.73 4.29 13.1 11.41 16.54 23.23a4 4 0 0 1-.37 3.08 4.05 4.05 0 0 1-2.67 1.92 40.65 40.65 0 0 1-20.53-.79 39.3 39.3 0 0 1-8.07-3.42l-1.33-.87 1.48 2.49c3.7 7.11 5.73 16.56 2.88 28.53a3.85 3.85 0 0 1-5.06 2.78 41.69 41.69 0 0 1-17.39-11.14 40.6 40.6 0 0 1-5.3-7.08l-.7-1.39.07 2.9c-.29 8.05-3.18 17.24-11.5 26.16a3.8 3.8 0 0 1-2.81 1.2 4 4 0 0 1-3-1.39A42.44 42.44 0 0 1 87 146.38a40.31 40.31 0 0 1-1.11-8.85L86 136l-1.37 2.56c-4.22 6.85-11.21 13.33-22.83 16.83a3.75 3.75 0 0 1-3-.38 4.09 4.09 0 0 1-1.88-2.71 43 43 0 0 1 .77-20.89 41.54 41.54 0 0 1 3.37-8.2l.85-1.36-2.44 1.51c-7 3.76-16.28 5.83-28 2.93a4 4 0 0 1-2.44-1.84 4.17 4.17 0 0 1-.29-3.31 42.65 42.65 0 0 1 11-17.69 39.26 39.26 0 0 1 7-5.39l1.37-.71-3.11.02c-7.91-.3-16.94-3.24-25.71-11.7a3.94 3.94 0 0 1-1.19-2.86 4.11 4.11 0 0 1 1.37-3 41.32 41.32 0 0 1 18.17-9.75 37.34 37.34 0 0 1 8.7-1.13l1.55.07-2.48-1.4c-6.73-4.29-13.09-11.4-16.53-23.22a3.94 3.94 0 0 1 .36-3.09 4.05 4.05 0 0 1 2.67-1.92 35.82 35.82 0 0 1 9.32-.9 41.93 41.93 0 0 1 11.21 1.69 39.89 39.89 0 0 1 8.07 3.43l1.44 1L60.33 42c-3.7-7.12-5.74-16.56-2.89-28.53A4 4 0 0 1 59.25 11a3.77 3.77 0 0 1 1.93-.52 4.75 4.75 0 0 1 1.29.22 41.69 41.69 0 0 1 17.39 11.09 40.42 40.42 0 0 1 5.29 7.08l.71 1.39-.08-2.9c.3-8 3.18-17.24 11.51-26.16a4.25 4.25 0 0 1 2.89-1.2z" style="fill:#fed572"/><path class="cls-3" d="M59.92 84.16c0-23.6 18.79-42.72 42-42.72s42 19.12 42 42.72-18.8 42.72-42 42.72-42-19.12-42-42.72z"/><path d="M71.39 84a30.53 30.53 0 1 1 30.52 30.87A30.68 30.68 0 0 1 71.39 84z" style="fill:#976c4f"/></g></g></svg>