<svg xmlns="http://www.w3.org/2000/svg" xmlns:xlink="http://www.w3.org/1999/xlink" viewBox="0 0 180 468.8"><defs><linearGradient id="未命名的渐变_127" x1="-2154.79" y1="396.95" x2="-2129.27" y2="396.95" gradientTransform="matrix(-1.15 0 0 1 -2400.98 0)" gradientUnits="userSpaceOnUse"><stop offset="0" stop-color="#e3c1a0"/><stop offset="1" stop-color="#f7e0ec"/></linearGradient><linearGradient id="未命名的渐变_127-2" x1="-2184.03" y1="393.81" x2="-2156.16" y2="393.81" xlink:href="#未命名的渐变_127"/><linearGradient id="未命名的渐变_127-3" x1="-2153.72" y1="140.36" x2="-2153.72" y2="113.44" xlink:href="#未命名的渐变_127"/><linearGradient id="未命名的渐变_127-4" x1="-2145.41" y1="118.82" x2="-2145.41" y2="43.46" xlink:href="#未命名的渐变_127"/><linearGradient id="未命名的渐变_145" x1="-2215.35" y1="43.26" x2="-2129.27" y2="43.26" gradientTransform="matrix(-1.15 0 0 1 -2400.98 0)" gradientUnits="userSpaceOnUse"><stop offset="0" stop-color="#f8c641"/><stop offset="1" stop-color="#ae7d6c"/></linearGradient><linearGradient id="未命名的渐变_138" x1="-2129.27" y1="75.76" x2="-2129.27" y2="5.78" gradientTransform="matrix(-1.15 0 0 1 -2400.98 0)" gradientUnits="userSpaceOnUse"><stop offset="0" stop-color="#b2bccc"/><stop offset=".99" stop-color="#dea779"/></linearGradient><linearGradient id="未命名的渐变_145-2" x1="-2201.89" y1="124.2" x2="-2201.89" y2="108.06" xlink:href="#未命名的渐变_145"/><linearGradient id="未命名的渐变_145-3" x1="-2214.35" y1="70.73" x2="-2166.92" y2="70.73" xlink:href="#未命名的渐变_145"/><linearGradient id="未命名的渐变_138-2" x1="-2143.64" y1="127.95" x2="-2149.4" y2="113.62" xlink:href="#未命名的渐变_138"/><linearGradient id="未命名的渐变_138-3" x1="-2158.65" y1="124.2" x2="-2158.65" y2="26.91" xlink:href="#未命名的渐变_138"/><linearGradient id="未命名的渐变_147" x1="-2115.82" y1="86.52" x2="-2115.82" y2="75.76" gradientTransform="matrix(-1.15 0 0 1 -2400.98 0)" gradientUnits="userSpaceOnUse"><stop offset="0" stop-color="#231815"/><stop offset="1" stop-color="#15261e"/></linearGradient><linearGradient id="未命名的渐变_138-4" x1="-1898.83" y1="1797.87" x2="-1898.83" y2="1783.14" gradientTransform="matrix(.58 .5 .7 -.6 -137.87 2157.19)" xlink:href="#未命名的渐变_138"/><linearGradient id="未命名的渐变_138-5" x1="-2101.95" y1="140.63" x2="-2101.95" y2="129.59" xlink:href="#未命名的渐变_138"/><linearGradient id="未命名的渐变_138-6" x1="-1821.71" y1="36.41" x2="-1821.71" y2="23.65" gradientTransform="matrix(-1.07 -.37 -.43 .93 -1904.64 -567.87)" xlink:href="#未命名的渐变_138"/><linearGradient id="未命名的渐变_138-7" x1="-2115.67" y1="149.52" x2="-2121.55" y2="134.9" xlink:href="#未命名的渐变_138"/><linearGradient id="未命名的渐变_138-8" x1="-2125.57" y1="145.64" x2="-2131.84" y2="130.03" xlink:href="#未命名的渐变_138"/><linearGradient id="未命名的渐变_145-4" x1="-2226.09" y1="113.78" x2="-2226.09" y2="102.67" xlink:href="#未命名的渐变_145"/><linearGradient id="未命名的渐变_145-5" x1="-2222.06" y1="120.51" x2="-2222.06" y2="108.06" xlink:href="#未命名的渐变_145"/><linearGradient id="未命名的渐变_145-6" x1="-2216.28" y1="125.3" x2="-2216.28" y2="113.5" xlink:href="#未命名的渐变_145"/><linearGradient id="未命名的渐变_145-7" x1="-2209.96" y1="124.45" x2="-2209.96" y2="113.44" xlink:href="#未命名的渐变_145"/><linearGradient id="未命名的渐变_145-8" x1="-2230.75" y1="108.06" x2="-2230.75" y2="91.3" xlink:href="#未命名的渐变_145"/><linearGradient id="未命名的渐变_138-9" x1="-2134.82" y1="138.26" x2="-2141.33" y2="122.09" xlink:href="#未命名的渐变_138"/><linearGradient id="未命名的渐变_189" x1="70.84" y1="235.27" x2="45.83" y2="222.75" gradientUnits="userSpaceOnUse"><stop offset="0" stop-color="#4b9975"/><stop offset="1" stop-color="#468f6d"/></linearGradient><linearGradient id="未命名的渐变_189-2" x1="129.1" y1="317.25" x2="129.1" y2="133.27" xlink:href="#未命名的渐变_189"/><style>.cls-4{fill:#4b9975}.cls-28{fill:#468f6d}.cls-31{fill:#fff}.cls-32{fill:#ce8b89}</style></defs><g id="图层_2" data-name="图层 2"><g id="图层_1-2" data-name="图层 1"><path d="M60.23 465.14c4.33-.13 9.16-.13 13.28-.13h8.29c-.69-6.58.69-13.16.88-19.64.11-1.66.24-3.31.38-5s.32-3.29.5-4.92c.17-2 .33-3.93.44-5.89A80.59 80.59 0 0 0 84 418c0-2-.16-4-.31-5.92s-.3-3.94-.47-5.91V382.66c0-8.79 1.22-18 1.56-26.82.09-2.21.12-4.4 0-6.56 3.92-16.49-14.7-26.66-25.74-16.49-2.58 2.24-3.25 5.93-3.17 10.28 0 1.45.14 3 .28 4.54.15 3.16.25 6.34.33 9.53q.06 2.4.09 4.8c1.78 14.51 3.16 28.26 1.83 42.51a225.687 225.687 0 0 0-.6 10.49v6c0 3.54.1 7.05.32 10.55.11 1.75.24 3.5.37 5.24a175.47 175.47 0 0 1 1.78 26.43c-.01 1.29-.04 1.98-.04 1.98z" style="fill:url(#未命名的渐变_127)"/><path d="M91.4 463.22c3.7.48 6.46-.71 9.88-.63 1.66-.11 3.3-.21 4.92-.24a41.77 41.77 0 0 1 4.77.16c-.69-1.2-.69-3-.83-4.47 0-1.48.28-2.94.42-4.35.36-1.94.67-3.87 1-5.78.55-2 1-3.93 1.4-5.91a68.73 68.73 0 0 1 1.56-10.37c2.07-17.94-6.2-35.88-.89-53.42.14-1.87.31-3.77.5-5.68s.4-3.8.6-5.7c1.17-12.35 7.38-24.31 2.55-36.87-2.76-6.58-11-6.58-18-4.26-1.6.47-3.19 1-4.7 1.64s-3 1.23-4.24 1.79a15.42 15.42 0 0 0-2.31 4.6c-2.62 8.29.33 19.45.77 29v4.18c.06 1.73.12 3.47.17 5.21s.08 3.49.11 5.24q.09 3 .12 6t0 6c.45 15.9-.93 32.05.25 48 .09 1.84.19 3.66.31 5.48.35 5.46.85 10.9 1.56 16.29.09 2.62.08 4.09.08 4.09z" style="fill:url(#未命名的渐变_127-2)"/><path d="M88.77 136.56c-.8 1.62 1.2 3.24 3 2.41 4.28-2 8.72-5.61 7.23-7.34a3.62 3.62 0 0 1-.57-.85l-2.23-5.52a2.66 2.66 0 0 1 0-2c2.09-5.29-4.44-9.82-8.74-9.82h-.62c-5.13 0-9.36 3.48-9.7 7.86a1.69 1.69 0 0 1-.45 1l-7.31 7.7a1.76 1.76 0 0 0 .78 2.92c4.15 1.53 13.18 6.88 16.74 7.4.91.17 2.24-4.5 1.87-3.76z" style="fill:url(#未命名的渐变_127-3)"/><path class="cls-4" d="m70.34 346.51 29 9.16c4.55 0 68.28-26.91 68.28-46.84L117.93 142c0-3.94-12.41-16.14-12.41-10.76l-18 5.38c0-5.38-19.21-9.33-19.21-5.38L0 307.23c7.3 25.98 67 43.04 70.34 39.28z"/><ellipse cx="74.48" cy="81.14" rx="43.45" ry="37.68" style="fill:url(#未命名的渐变_127-4)"/><path d="M55.88 59.21c0 32.71 7.45 26.92 43.45 26.92s55.86 5.79 55.86-26.92S126 0 90 0 55.88 26.51 55.88 59.21z" style="fill:url(#未命名的渐变_145)"/><ellipse cx="55.86" cy="40.77" rx="37.24" ry="34.99" style="fill:url(#未命名的渐变_138)"/><path d="M130.34 113.44c0 3 9 10.76 12.42 10.76s6.21-7.79 6.21-10.76-2.78-5.38-6.21-5.38-12.42 2.41-12.42 5.38z" style="fill:url(#未命名的渐变_145-2)"/><path d="M99.31 86.08c0 32.7 11.25 40.88 43.45 26.91 24.83-10.76 0-32.29 6.21-59.21 7.39-32.07 6.2-10.76-15.52-26.91-27.33-20.32-34.14 26.51-34.14 59.21z" style="fill:url(#未命名的渐变_145-3)"/><path d="M68.28 124.2c0 4.46 12.41 5.39 12.41 5.39 1.71 0 6.21-6.31 6.21-10.77s-10.7-5.38-12.42-5.38c-12.41 0-6.2 5.38-6.2 10.76z" style="fill:url(#未命名的渐变_138-2)"/><path d="M61.6 89.22c36.59-16 28.51-67.35 43.45-61.91 19 6.9 18.62 67.77 18.62 48.45s-4.26 48.44-24.83 48.44S41.71 97.93 61.6 89.22z" style="fill:url(#未命名的渐变_138-3)"/><ellipse cx="108.62" cy="59.61" rx="58.97" ry="48.45" style="fill:#8e6548"/><path d="M49.66 54.46c-.53 26.75 26.4 48.45 59 48.45s59-21.7 59-48.45S141 9.31 108.63 6C80.43 3.14 50.2 27.35 49.66 54.46z" style="fill:#b1825d"/><path d="M93.1 38.08c0 4.46 12.42 9.84 12.42 5.38s-4.17-8.07-9.31-8.07-3.11-1.77-3.11 2.69z" style="fill:#804f21"/><ellipse cx="105.52" cy="46.15" rx="6.21" ry="5.38" style="fill:#946134"/><ellipse cx="40.34" cy="81.14" rx="3.1" ry="5.38" style="fill:url(#未命名的渐变_147)"/><path d="M22.3 133.29c3.1-2.69 1.17-9.09-3.68-9.09-12.41 0-12.41-10.76-12.41 0 0 5.7 0 6 4.26 8.58 3.99 2.39 8.72 3.22 11.83.51z" style="fill:url(#未命名的渐变_138-4)"/><path d="M24.83 129.59c-6.21 0-12.42 5.38 0 10.76 3.06 1.33 6.2-2.41 6.2-5.38 0-5.38-2.77-5.38-6.2-5.38z" style="fill:url(#未命名的渐变_138-5)"/><path d="M24.83 140.35c-1.54 2.66.71 3.89 3.89 5s7.31 3.14 8.59.39 3.11-9.66-.07-10.77-6.24-5.38-12.41 5.38z" style="fill:url(#未命名的渐变_138-6)"/><path d="M37.31 145.74c.12 3.34 2.22 3.49 4.26 4.26 2.27.85 6.29-2.79 8.09-4.26 1-.8 0-4.19 0-5.69 0-4.46.35-5.08-5.86-5.08-6.49.03-6.8 2.69-6.49 10.77z" style="fill:url(#未命名的渐变_138-7)"/><path d="M49.66 140.05c0 7.61 2.77 5.38 6.2 5.38s12.42-5.08 6.21-10.46c-3.64-3.15-2.78-5.69-6.21-5.69-12.41 0-6.2 5.39-6.2 10.77z" style="fill:url(#未命名的渐变_138-8)"/><path d="M161.38 110.75c0 4.46 2.78 2.69 6.21 2.69s6.2 1.77 6.2-2.69-2.78-8.08-6.2-8.08-6.21 3.62-6.21 8.08z" style="fill:url(#未命名的渐变_145-4)"/><path d="M155.17 118.82c0 3 .29.45 6.21 0 0 0 1.82 3.81 6.21 0 6.2-5.38 2.57-10.76-6.21-10.76-6.21 0-6.21 7.79-6.21 10.76z" style="fill:url(#未命名的渐变_145-5)"/><path d="M149.25 122c.92 4.62 6.21 2.69 6.21 2.69 2.42 2.11 4-1.51 6.21-2.69 5.92-3.14-3.78-10.18-6.21-8.07-6.22 5.33-7.08 3.64-6.21 8.07z" style="fill:url(#未命名的渐变_145-6)"/><path d="M142.76 121.51c0 4.46 2.78 2.52 6.21 2.52s6.2 1.94 6.2-2.52-2.78-8.07-6.2-8.07-6.21 3.61-6.21 8.07z" style="fill:url(#未命名的渐变_145-7)"/><path d="M167.59 100c-5.12.43 2.78 8.08 6.2 8.08S180 104.44 180 100s-7.89-10.66-6.21-8.07c2.36 3.61.07 7.53-6.2 8.07z" style="fill:url(#未命名的渐变_145-8)"/><path d="M56.4 131.54a29.1 29.1 0 0 0 11.88 8.81c.46-2.94 6.74-4.35 6.74-8.81s1.89-5.23-.54-7.34c-6.2-5.38-20.93 3.63-18.08 7.34z" style="fill:url(#未命名的渐变_138-9)"/><path class="cls-4" d="M84.86 138a300.69 300.69 0 0 1-8.37 68.18C71.41 227.9 65 249.32 61.65 271.37a168.12 168.12 0 0 0-1.83 37.09 2.56 2.56 0 0 0 2.5 2.5 2.52 2.52 0 0 0 2.5-2.5c-1.61-22.07 2.5-43.91 7.64-65.27 5.28-21.89 11.54-43.56 14.63-65.91A291.09 291.09 0 0 0 89.86 138c0-3.22-5-3.23-5 0z"/><path class="cls-28" d="M75.05 335.18c-1.14 6.26 3.59 7.6-.57 12.82 1.71 1.53 6 1.71 8.43 1.78 4.22.11 10.19 1.22 11.23 4.57-1.67-8.37-1.44-16.93-1.26-25.42q2.06-94.32-4.83-188.58c-2 53.9-3.84 110.82-5.79 164.72-.18 4.9-.38 9.87-2.16 14.52-1.26 3.28-4.43 12.18-5.05 15.59zM94.16 354.41c0 .21.08.42.13.64a2.6 2.6 0 0 0-.13-.64z"/><path d="M38.42 320c3.84-3.78 10.28-4.58 16-5.33 6.43-.84 12.94-3.51 19.36-4.35.45-57.21.27-117 .73-174.18Q53.07 227.55 38.42 320z" style="fill:url(#未命名的渐变_189)"/><path d="m107.34 136.38-7.65-3.11c6 5.28 2.82 12.15 2.43 19.57-2 37 5.49 73.83 12.91 110.31q4.66 22.86 9.31 45.72c3.13 1.36 6.06 5.18 7.49 7.95 2.94 1.36 6.24-.87 9.15-2.28 5.3-2.56 13.77-4.87 17.52-9-1.22-16-8.86-31.09-15.69-46a531.62 531.62 0 0 1-30.51-85.16c-3.3-12.51-6.11-25.26-4.96-38z" style="fill:url(#未命名的渐变_189-2)"/><circle class="cls-31" cx="43.45" cy="75.76"/><path class="cls-31" d="M37.7 78.2c-.11.29-.36.69-.16.94a.83.83 0 0 0 .58.4h.53a.12.12 0 0 0 .1 0l.51-.27a1 1 0 0 0 .4-.29.74.74 0 0 0 .09-.46 4.76 4.76 0 0 0-.32-1.52h-1c-.1 0-.13.17-.17.25a1.07 1.07 0 0 1-.31.45.62.62 0 0 1-.12.35l-.07.08a.42.42 0 0 0-.06.07z"/><path class="cls-32" d="M97 468.72h12.41a2.92 2.92 0 0 0 3.1-2.69v-10.77a2.91 2.91 0 0 0-3.1-2.69H97c-5.12 0-9.31.94-9.31 5.38l-6.21 5.38c.03 4.45-6.18 5.39 15.52 5.39z"/><rect class="cls-32" x="93.1" y="463.33" width="6.21" transform="rotate(180 96.205 463.335)"/><path d="M65.64 468.8h12.92a3 3 0 0 0 3.23-2.8v-8.4c0-5.6 0-5.6-6.46-5.6h-9.69c-16.14 0-3-.23-16.14 11.2v5.6z" style="fill:#cc7e86"/></g></g></svg>