<svg width="409" height="753" viewBox="0 0 409 753" fill="none" xmlns="http://www.w3.org/2000/svg">
<g clip-path="url(#clip0_308_3935)">
<path d="M-0.872482 65.5C-0.981548 64 -0.763416 62.2 0.545384 61.2C3.38112 59.1 7.63472 61.8 10.0342 63.2C14.615 65.9 18.6504 69.2 22.1406 73L21.5952 72.4C24.54 75.6 28.1393 79 29.4481 83.1C30.2115 85.5 29.5571 87.4 29.5571 89.8C29.5571 91.1 30.6478 93.3 29.8843 94.6C31.4112 92 32.9382 89.4 34.5742 86.8C35.5558 85.3 37.8462 82.7 37.519 80.8C37.0827 78.5 33.4835 77.6 31.6294 76.4C23.8857 71.6 19.0867 60.4 18.5414 52.1C18.4323 50.2 18.2142 46.4 20.1774 44.9C22.795 42.8 26.3942 46.1 28.2483 47.8C32.611 52.1 35.9921 57.1 38.1734 62.5C39.4822 65.2 40.2456 68 40.6819 70.9C41.0091 74.1 38.9368 76.6 39.0459 79.6C41.0091 76.6 43.1905 73.8 45.3718 70.9C46.7897 68.8 49.5163 66.1 48.971 63.5C48.7529 62.1 47.5531 61.1 46.4625 60.2C40.2457 55.3 34.1379 51 30.7569 43.8C29.5571 41.2 28.1392 36.3 30.975 34.1C33.8107 31.8 37.6281 35.3 39.7003 37.1C43.0814 40.3 45.9171 43.8 48.2075 47.7C49.8435 50.3 51.4795 53.3 51.6977 56.3C51.9158 59.1 50.1707 61.5 50.1707 64.3C55.6241 57.3 54.7515 50.3 57.0419 42.2C58.3507 37.6 64.1313 14.2 72.6385 17.7C79.6187 20.5 75.0379 34.1 73.511 38.6C72.0931 43 69.8027 47 66.6398 50.6C64.3494 52.9 61.8409 54.9 58.8961 56.6C55.515 58.7 54.5334 61.7 52.0249 64.3C57.6963 58.5 65.6582 55 74.1654 54.6C77.3283 54.5 88.235 54.8 88.7803 58.9C88.7803 61 86.2718 62.4 84.6358 63.4C79.2915 66.5 72.8566 67.7 66.5307 67.5C64.0222 67.5 61.5136 67.1 59.2232 66.3C57.4782 65.7 55.4059 64.8 53.4427 65.1C48.8619 65.7 46.2443 72.2 43.7358 75.2C54.4243 72.4 65.5491 71.4 76.6739 72.4C79.5097 72.7 85.1811 73.6 83.8723 77.3C83.2179 79.1 80.4913 80.2 78.7462 80.9C70.7843 84.1 59.6595 85.1 51.8067 81C49.6254 79.9 45.699 75.8 43.0814 76.7C41.4454 77.2 39.9184 80.5 39.0459 81.7C37.519 83.8 36.2102 86 34.9014 88.3C37.7371 88.5 40.0275 87.3 42.7542 86.7C45.8081 86.1 48.8619 86.3 51.9158 86.5C57.4782 86.9 63.3678 87.6 68.4939 89.7C71.5478 91 77.0011 93.5 76.8921 97.2C76.6739 102 67.4033 101.2 64.0222 101.1C57.9145 101 51.8067 99.9 46.1352 97.8C41.7726 96.2 40.6819 93.7 37.6281 90.8C35.2286 88.5 33.5926 90.9 32.1747 93.2C29.0118 98.5 26.067 104 23.0131 109.4C26.2851 108.3 29.2299 106.6 32.5019 105.5C36.1011 104.4 39.9185 103.9 43.6267 103.8C49.4073 103.6 56.3875 103.9 61.7318 106C67.6214 108.4 65.8763 112.2 61.4046 114.6C53.7699 118.7 38.2825 121.1 30.5387 115.8C28.2483 114.2 26.2851 109.9 23.0131 110.7C20.6137 111.3 19.8502 114.6 18.9777 116.3C17.4507 119.6 15.4875 122.7 13.5243 125.8C16.0329 127.5 18.7595 125.3 21.2681 124.6C24.7582 123.6 28.4664 123.6 31.9566 123.6C38.0643 123.7 44.6083 124.1 50.1707 126.7C53.7699 128.4 63.1497 134.3 56.0603 137.3C51.4795 139.2 45.5899 139.1 40.6819 138.8C34.6832 138.4 26.9395 137.7 21.7043 134.8C18.9777 133.3 17.2326 128.2 14.3969 127.5C11.7793 126.9 10.7977 130.1 9.48885 131.9C7.30752 135.1 4.90805 138.2 2.39952 141.2C5.34432 141.3 8.28912 140.9 11.1249 139.9C14.0697 139 17.3417 138.9 20.3955 139.4C25.3035 140.1 29.8843 141.8 34.0289 144.3C37.9553 146.6 47.5531 153.2 40.5729 157C32.0657 161.7 15.8147 158.1 9.27072 151.8C6.87125 149.6 7.19845 144.1 4.14458 142.6C0.32725 140.8 -5.99862 151 -7.96182 153.2C-2.39942 155.7 3.05392 156.2 7.74378 160.3C11.2339 163.5 13.9606 167.3 15.7057 171.5C17.9961 176.8 19.0867 185.1 10.2523 183.1C1.09072 181.2 -10.5794 170.1 -9.27062 161C-9.05248 159.7 -7.52555 157 -7.74368 155.7C-8.50715 152.6 -11.0157 156.6 -11.9973 157.6C-14.6149 160.1 -17.3415 162.5 -20.0682 164.8C-23.4493 167.7 -26.9394 170.6 -30.1023 173.8C-30.9749 174.7 -35.9919 180.5 -37.3007 177.3C-38.1733 175.1 -33.2653 172.4 -31.7383 171.5C-27.7029 169 -23.8855 166.3 -20.2863 163.3C-18.2141 161.5 -16.1418 159.7 -14.1786 157.9C-12.8698 156.7 -8.17995 153.8 -11.0157 152.7C-12.1063 152.3 -13.9605 153.3 -15.0511 153.5C-16.6871 153.8 -18.4322 153.8 -20.1773 153.7C-26.0669 153.3 -32.1746 151.1 -37.1917 148.2C-40.0274 146.5 -51.1522 138.8 -42.0997 136.8C-35.7738 135.5 -28.0301 137.6 -22.2495 139.9C-16.1418 142.4 -12.2154 147 -9.05248 152.3C-6.43488 149.6 -3.59915 147.1 -1.30875 144.2C-0.872483 143.7 1.41792 141.2 0.872583 140.4C0.109117 139.5 -3.16288 140.8 -4.14448 140.9C-13.4151 141.8 -23.4493 135 -28.5754 128.3C-30.5386 125.8 -32.1746 122 -28.9026 119.9C-25.6306 117.8 -19.9591 119.1 -16.3599 119.9C-10.7975 121.2 -4.79888 123.6 -0.981551 127.7C1.09072 130 5.01712 136 2.72672 139C5.45338 135.6 10.3614 131.6 11.0158 127.2C11.5611 123.3 7.08938 124.8 4.03552 124.4C-4.79888 123 -15.0511 115.3 -18.9775 108C-21.4861 103.3 -17.3415 101.8 -12.3245 102.3C-6.54395 102.9 -1.09061 105.4 3.49018 108.6C6.10778 110.4 9.05258 112.8 10.5795 115.5C11.9974 118 11.343 120.9 12.6518 123.3C15.1603 122.3 17.0145 117.1 17.9961 115C18.4323 114.1 19.6321 112.4 19.523 111.4C19.3049 109.6 17.5598 109.4 15.9238 108.8C6.98032 105.5 -0.654351 97.2 -3.70822 88.9C-4.68982 86.1 -6.10768 81 -2.29035 79.6C1.41792 78.3 6.21685 82.2 8.61632 84.2C12.6518 87.3 16.1419 91 18.7595 95.2C21.5953 100 19.523 105 20.7227 110C22.5769 106.4 31.8475 96 27.4849 92C25.3035 90.7 22.2496 90.6 19.9592 89.4C15.9238 87.5 11.9974 84.2 8.50725 81C4.03552 76.9 -0.436215 71.6 -0.872482 65.5Z" fill="#1E724E"/>
<path d="M29.7752 278.5L28.5755 277.6V277.5V277.6L20.6136 271.8L23.9947 266.7L15.8147 261.2C15.8147 261.6 8.18004 272 9.27071 274C10.6886 276.9 20.6136 282.6 24.7582 284.9C23.6675 285 22.5768 285.2 21.4862 285.5C20.3955 285.8 23.7766 286.6 24.6491 286.8C24.9763 286.9 25.6307 286.4 26.2851 285.8L26.5032 285.9L26.7214 285.4C27.4848 284.7 28.1392 284 28.7936 283.2C29.0118 282.4 29.0118 281.5 28.9027 280.7L29.7752 278.5Z" fill="#FFBE9D"/>
<path d="M54.2061 276L55.4058 275.1V275V275.1L64.4583 269.8L55.733 263.3L63.2586 257.3C69.1482 261.1 76.8919 266.1 74.7106 271.5C73.5108 274.5 63.3677 280.2 59.2231 282.4C60.3138 282.5 61.4045 282.7 62.4951 283C63.4767 283.3 60.2047 284.1 59.3322 284.3C59.005 284.4 58.3506 283.9 57.6962 283.3L57.4781 283.4L57.2599 282.9C56.4965 282.2 55.8421 281.5 55.1877 280.7C54.9695 279.9 54.9695 279 55.0786 278.2L54.2061 276Z" fill="#FFBE9D"/>
<path d="M40.0274 251.4C40.7908 251.5 41.5543 251.4 42.2087 251.1C42.9722 250.9 43.6266 250.5 44.1719 250.1C44.7172 249.7 45.1535 249.1 45.4807 248.5C45.8079 247.9 46.026 247.2 46.026 246.5C46.1351 243.7 46.2442 240.9 46.2442 240.9C46.2442 240.9 50.825 240.5 51.2612 236.3C51.6975 232.1 51.4794 222.4 51.4794 222.4C48.9708 221.2 46.1351 220.7 43.2994 220.9C40.4636 221.1 37.737 221.9 35.3375 223.4L34.6831 223.8L34.9012 246.4C34.9012 247.7 35.4466 248.9 36.4282 249.9C37.3007 250.7 38.6095 251.3 40.0274 251.4Z" fill="#FFBE9D"/>
<path d="M39.8094 216.8C37.0827 216.7 34.4651 218.4 33.1563 220.5C31.8475 222.6 31.6294 224.9 31.4113 227.3C31.3022 231.9 31.4113 236.4 31.7385 241C31.7385 241.3 31.8475 241.7 32.0657 242C32.3929 242.3 32.8291 242.4 33.2654 242.4C41.7726 243.5 50.3889 243.5 58.8961 242.4C59.4414 241.5 58.6779 240.4 57.8054 239.7C56.9329 239 55.7331 238.3 55.4059 237.3C54.8606 235.7 56.6057 234 55.9513 232.5C55.4059 231.3 53.7699 230.8 53.2246 229.7C52.243 227.8 54.7515 225.5 53.6609 223.7C53.1155 222.7 51.6977 222.3 50.9342 221.5C50.1707 220.8 49.8435 219.8 49.1891 219.1C47.9894 217.9 46.3534 217.2 44.6083 217.1C43.0814 216.7 41.4454 216.6 39.8094 216.8Z" fill="#263238"/>
<path d="M33.2653 221.6C32.0656 222.1 31.5202 223.4 31.4112 224.6C31.193 225.8 31.3021 227.1 30.7568 228.2C30.2114 229.3 29.0117 230.3 28.6845 231.5C28.2482 233.1 29.448 235.1 28.3573 236.4C27.7029 237.3 26.285 237.5 25.5216 238.3C24.3218 239.3 24.4309 241.1 24.649 242.5L39.9184 242.4" fill="#263238"/>
<path d="M38.8277 220.1C39.7002 220.1 40.5728 219.8 41.2272 219.2C41.8816 218.6 42.2088 217.9 42.2088 217C42.2088 216.2 41.7725 215.4 41.2272 214.8C40.5728 214.2 39.8093 213.8 38.9368 213.7C38.0642 213.6 37.1917 213.8 36.4282 214.2C35.6648 214.6 35.0104 215.2 34.6832 215.9C34.356 216.6 34.2469 217.3 34.465 218.1C34.7922 218.8 35.3376 219.4 35.992 219.7C36.7554 220.1 37.5189 220.3 38.3914 220.3C39.264 220.3 40.0274 220.1 40.7909 219.7" fill="#263238"/>
<path d="M41.8816 217.4C41.9906 217.8 41.8816 218.2 41.6634 218.5C41.3362 219.4 40.5728 220 39.7002 220.4C38.8277 220.8 37.737 220.8 36.8645 220.5C36.2101 220.3 35.7738 220 35.8829 219.9C35.8829 219.9 36.3192 220.1 36.9736 220.2C37.8461 220.4 38.8277 220.4 39.5912 220C40.4637 219.7 41.1181 219 41.4453 218.3C41.7725 217.8 41.7725 217.4 41.8816 217.4Z" fill="#FF725E"/>
<path d="M57.6962 266.4L53.8789 262.7L52.5701 268.2L52.7882 272.5C52.7882 272.7 57.8053 284 57.8053 284C59.8775 288.3 60.641 292.9 60.2047 297.6L23.7765 296.6C23.7765 296.6 24.3218 286.9 28.3573 280.5C30.2114 277.6 29.7751 273.2 28.9026 269.9C28.5754 268.8 28.2482 267.1 28.1391 266V265.8L26.285 268.9L14.833 261.4C18.5413 254.9 23.9946 248.2 24.649 247.7C27.0485 245.9 29.9933 244.9 33.0471 244.8L47.2258 244.9C47.9893 245 48.7527 245.1 49.4071 245.3C51.1522 245.4 54.2061 246.8 57.5871 249.7C60.4229 252.2 63.6949 255.3 67.0759 257.5L57.6962 266.4Z" fill="#455A64"/>
<path d="M34.1378 245.1C34.1378 245.1 34.2469 245.2 34.3559 245.3C34.5741 245.5 34.6831 245.7 34.9013 245.9C35.5557 246.7 35.8829 247.6 36.101 248.6C36.2101 249.3 36.2101 250.1 35.8829 250.8C35.6647 251.5 35.2285 252.1 34.6831 252.7C34.0287 253.3 33.1562 253.8 32.1746 254C31.193 254.2 30.2114 254 29.2298 254.2C28.7935 254.3 28.3573 254.4 27.921 254.7C27.5938 255 27.2666 255.3 27.0485 255.7C26.6122 256.5 26.3941 257.3 25.8487 258C25.6306 258.4 25.3034 258.7 24.8671 258.9C24.5399 259.1 24.1037 259.2 23.6674 259.2C22.9039 259.2 22.1405 259 21.5951 258.6C20.6135 258.1 19.8501 257.5 19.0866 256.8C18.8685 256.6 18.7594 256.4 18.6503 256.2C18.5413 256 18.5413 256 18.5413 256C18.5413 256 18.7594 256.3 19.3047 256.8C19.9591 257.5 20.8317 258.1 21.8133 258.5C22.4677 258.8 23.1221 259 23.7765 259C24.1037 259 24.5399 258.9 24.8671 258.7C25.1943 258.5 25.5215 258.2 25.7397 257.9C26.1759 257.3 26.5031 256.4 26.9394 255.6C27.1575 255.2 27.4847 254.8 27.8119 254.5C28.2482 254.2 28.6845 254 29.2298 253.9C30.3205 253.8 31.3021 253.9 32.1746 253.8C33.0471 253.6 33.8106 253.2 34.465 252.6C35.0103 252.1 35.4466 251.4 35.6647 250.7C35.8829 250.1 35.8829 249.4 35.8829 248.8C35.7738 247.9 35.4466 246.9 34.9013 246.1C34.3559 245.4 34.1378 245.1 34.1378 245.1Z" fill="#F5F5F5"/>
<path d="M35.3376 259.6C35.5557 259.5 35.7739 259.5 35.992 259.5C36.5373 259.5 37.1917 259.7 37.628 260C37.9552 260.2 38.2824 260.5 38.3915 260.9C38.6096 261.3 38.7187 261.7 38.6096 262.2C38.6096 262.7 38.3915 263.2 37.9552 263.6C37.628 264 37.0827 264.3 36.5373 264.4C35.992 264.5 35.4467 264.5 34.9013 264.3C34.356 264.1 33.9197 263.8 33.5925 263.4C33.2653 263 33.1562 262.6 33.1562 262.2C33.1562 261.8 33.2653 261.4 33.3744 261.1C33.5925 260.6 34.0288 260.2 34.5741 259.9C34.9013 259.7 35.1195 259.6 35.3376 259.6C35.3376 259.6 35.1195 259.7 34.7923 259.9C34.356 260.2 34.0288 260.6 33.8107 261.1C33.7016 261.4 33.5925 261.8 33.5925 262.2C33.5925 262.6 33.8107 262.9 34.0288 263.2C34.356 263.6 34.6832 263.9 35.1195 264C35.5557 264.2 36.1011 264.2 36.5373 264.1C36.9736 264 37.4099 263.7 37.7371 263.4C38.0643 263.1 38.2824 262.6 38.2824 262.2C38.2824 261.8 38.2824 261.5 38.1733 261.1C38.0643 260.8 37.7371 260.5 37.4099 260.3C36.9736 260 36.4283 259.8 35.8829 259.7C35.5557 259.6 35.3376 259.7 35.3376 259.6Z" fill="#F5F5F5"/>
<path d="M60.9684 253.3C60.6412 253.5 60.423 253.6 60.0958 253.7C59.3324 254.1 58.4598 254.4 57.5873 254.6C56.2785 255 54.8606 255 53.5518 254.6C52.7884 254.4 52.0249 253.9 51.4796 253.4C50.9342 252.8 50.607 252.1 50.0617 251.5C49.8436 251.2 49.5164 251 49.0801 250.9C48.7529 250.8 48.3166 250.8 47.8804 250.8C47.1169 250.9 46.2444 251 45.4809 250.9C44.8265 250.8 44.1721 250.5 43.6268 250.1C43.0814 249.7 42.6452 249.2 42.427 248.6C42.0998 247.8 42.0998 246.9 42.427 246.1C42.5361 245.9 42.6452 245.7 42.7542 245.5C42.8633 245.4 42.8633 245.3 42.9724 245.3C42.8633 245.6 42.7542 245.9 42.6452 246.1C42.427 246.9 42.427 247.7 42.7542 248.5C42.9724 249 43.4086 249.5 43.954 249.9C44.4993 250.3 45.0446 250.5 45.699 250.6C46.4625 250.6 47.226 250.6 47.9894 250.4C48.4257 250.3 48.862 250.4 49.2982 250.5C49.7345 250.7 50.0617 250.9 50.3889 251.3C50.9342 251.9 51.2614 252.7 51.8068 253.2C52.3521 253.7 52.8974 254.1 53.6609 254.3C54.8606 254.7 56.2785 254.7 57.4782 254.3C58.3508 254.1 59.2233 253.8 59.9868 253.5C60.314 253.5 60.6412 253.3 60.9684 253.3Z" fill="#F5F5F5"/>
<path d="M55.9513 278.8C55.9513 278.9 55.9513 278.9 55.9513 278.8C55.8422 279 55.8422 279 55.7332 279.1C55.515 279.4 55.1878 279.7 54.8606 279.9C54.3153 280.3 53.6609 280.5 53.0065 280.7C52.134 280.9 51.1524 280.8 50.3889 280.5C49.4073 280.1 48.5348 279.5 47.9894 278.6C47.335 277.7 46.8988 276.6 45.8081 276.1C45.2628 275.8 44.6084 275.7 43.954 275.6C43.1905 275.5 42.5361 275.2 41.9908 274.8C41.4454 274.3 41.0092 273.7 40.9001 273C40.682 272.3 40.791 271.6 41.1182 271C41.4454 270.4 41.9908 269.8 42.5361 269.4C43.0814 269 43.7358 268.6 44.2812 268.2C44.8265 267.8 45.2628 267.3 45.4809 266.8C45.699 266.2 45.699 265.7 45.59 265.1C45.4809 264.5 45.4809 263.9 45.3718 263.4C45.3718 262.8 45.59 262.3 45.9172 261.8C46.2444 261.4 46.6806 261 47.1169 260.8C47.5532 260.5 48.0985 260.4 48.6438 260.3C49.5164 260.2 50.498 260.4 51.2614 260.8C51.8068 261.1 52.3521 261.4 52.8974 261.9C53.2246 262.2 53.4428 262.5 53.77 262.8C53.879 262.9 53.9881 263 53.9881 263.1C53.9881 263.1 53.6609 262.7 52.7884 262C52.3521 261.6 51.8068 261.3 51.1524 261C50.3889 260.6 49.5164 260.5 48.6438 260.6C48.0985 260.7 47.6622 260.8 47.226 261C46.7897 261.2 46.3534 261.6 46.1353 262C45.8081 262.4 45.699 263 45.699 263.5C45.699 264.1 45.8081 264.6 45.9172 265.2C46.0262 265.8 46.0262 266.5 45.8081 267.1C45.59 267.7 45.1537 268.3 44.4993 268.7C43.954 269.1 43.2996 269.5 42.7542 269.9C42.2089 270.3 41.6636 270.8 41.3364 271.3C41.1182 271.9 41.0092 272.5 41.2273 273.1C41.3364 273.7 41.7726 274.3 42.2089 274.7C43.1905 275.6 44.7174 275.3 45.9172 276C46.4625 276.3 46.8988 276.8 47.226 277.3C47.5532 277.8 47.8804 278.3 48.0985 278.7C48.6438 279.5 49.4073 280.2 50.3889 280.5C51.1524 280.8 52.0249 280.9 52.8974 280.7C53.5518 280.6 54.0972 280.4 54.6425 280C55.1878 279.6 55.6241 279.2 55.9513 278.8Z" fill="#F5F5F5"/>
<path d="M39.5913 286.5C39.8094 286.3 39.9185 286.1 39.9185 285.9C39.9185 285.6 39.9185 285.2 39.7003 284.9C39.5913 284.6 39.3731 284.3 39.0459 284.1C38.7187 283.7 38.2825 283.3 38.0643 282.9C37.7371 282.4 37.6281 281.8 37.7371 281.2C37.8462 280 38.3915 278.7 38.2825 277.4C38.2825 277.1 38.1734 276.8 38.0643 276.5C37.9553 276.2 37.7371 276 37.4099 275.8C36.8646 275.5 36.2102 275.3 35.5558 275.4C34.3561 275.5 33.1563 275.9 32.1747 275.9C31.7385 275.9 31.4113 275.9 30.975 275.8C30.6478 275.7 30.2115 275.5 29.9934 275.3C29.8843 275.2 29.6662 275 29.6662 274.8C29.5571 274.7 29.5571 274.6 29.5571 274.6C29.6662 274.8 29.8843 275 30.1025 275.2C30.6478 275.6 31.4113 275.8 32.1747 275.7C33.1563 275.7 34.247 275.2 35.5558 275.1C36.3193 275 36.9737 275.2 37.6281 275.6C37.9553 275.8 38.1734 276.1 38.3915 276.4C38.6097 276.7 38.7187 277.1 38.7187 277.4C38.8278 278.8 38.1734 280.1 38.1734 281.2C38.0643 281.7 38.1734 282.3 38.3915 282.8C38.6097 283.2 38.9369 283.6 39.2641 284C39.5913 284.3 39.8094 284.7 39.9185 285.1C40.0275 285.4 40.0275 285.7 40.0275 286C40.0275 286.4 39.5913 286.5 39.5913 286.5Z" fill="#F5F5F5"/>
<path d="M25.1945 289.6C24.5401 290.6 -2.72656 384.4 -2.72656 384.4L6.8713 387.2L43.5177 298L25.1945 289.6Z" fill="#FFBE9D"/>
<path d="M41.7725 297.1L61.9498 386.4L73.0746 386.8L60.3138 292.3L41.7725 297.1Z" fill="#FFBE9D"/>
<path d="M25.6308 286.3L5.5625 352.2L20.3956 357.8L41.7726 302.4L54.6425 360L70.239 357.2L59.6596 287.3L58.2417 287.1C57.3692 287 56.4966 287 55.6241 287.2L54.6425 287.4C53.5518 287.6 52.3521 287.6 51.2614 287.4L50.607 287.2C49.6254 287 48.5348 287 47.4441 287.2L45.699 287.5C44.3902 287.7 43.0814 287.7 41.8817 287.3L40.1366 286.8C38.9369 286.4 37.7372 286.3 36.5374 286.5L34.9014 286.8C34.0289 286.9 33.0473 286.9 32.1748 286.8L29.4481 286.3C28.3574 286.1 27.1577 286.1 25.958 286.2L25.6308 286.3Z" fill="#263238"/>
<path d="M52.7883 298.8C52.4611 298.9 52.2429 299 51.9157 299C51.3704 299.1 50.4979 299.3 49.4072 299.5C47.2259 299.9 44.2811 300.4 41.0091 300.8C37.7371 301.2 34.6832 301.5 32.6109 301.7C31.5203 301.8 30.6477 301.9 29.9933 301.9C29.6661 301.9 29.3389 301.9 29.0117 301.9C29.3389 301.8 29.6661 301.8 29.9933 301.8L32.5019 301.5C34.6832 301.3 37.628 300.9 40.9 300.5C44.172 300.1 47.1168 299.6 49.2981 299.3L51.8067 298.9C52.2429 298.9 52.4611 298.8 52.7883 298.8Z" fill="#455A64"/>
<path d="M73.7292 386.9V385.8L61.95 386.1L62.059 389.6H62.8225C66.0945 389.7 79.2916 389.8 81.3638 389.2C83.6542 388.5 73.7292 386.9 73.7292 386.9Z" fill="#FF725E"/>
<g opacity="0.6">
<path opacity="0.6" d="M66.2036 389.4C65.9854 388.5 65.4401 387.8 64.6766 387.3C63.9132 386.8 62.9316 386.6 61.95 386.7L62.059 389.5L66.2036 389.4Z" fill="white"/>
</g>
<g opacity="0.6">
<path opacity="0.6" d="M78.5281 387.8C78.5281 387.8 82.0182 388.6 81.5819 389.1C81.1457 389.6 67.8395 389.9 61.95 389.6V389.4L77.5465 389.1C77.5465 389.1 77.8737 387.8 78.5281 387.8Z" fill="white"/>
</g>
<path d="M61.8408 389.4C61.9499 389.4 61.9499 389.4 62.059 389.4H62.6043H64.6766C66.4216 389.4 68.9301 389.4 71.6568 389.3C74.3835 389.2 76.892 389.1 78.6371 389L80.7094 388.9H81.2547C81.3638 388.9 81.3637 388.9 81.4728 388.9H81.2547H80.7094L78.6371 389C76.892 389.1 74.3835 389.2 71.6568 389.2C68.9301 389.3 66.4216 389.3 64.6766 389.3H62.6043H62.059L61.8408 389.4Z" fill="#263238"/>
<path d="M77.5464 389.3C77.6555 389 77.7645 388.7 77.8736 388.4C78.0917 388.1 78.3099 387.9 78.528 387.7C78.2008 387.8 77.8736 388 77.6555 388.3C77.5464 388.6 77.5464 388.9 77.5464 389.3Z" fill="#263238"/>
<path d="M74.0562 387.9C74.0562 387.9 74.2743 387.7 74.3833 387.5C74.6015 387.3 74.6015 387.1 74.6015 387C74.6015 387 74.3833 387.2 74.2743 387.4C74.1652 387.6 74.0562 387.8 74.0562 387.9Z" fill="#263238"/>
<path d="M73.0747 387.5C73.0747 387.5 73.2928 387.4 73.511 387.3C73.7291 387.1 73.8382 387 73.8382 387C73.8382 387 73.62 387.1 73.4019 387.2C73.1838 387.3 73.0747 387.4 73.0747 387.5Z" fill="#263238"/>
<path d="M72.5293 386.5C72.7474 386.6 72.9656 386.6 73.1837 386.6C73.4018 386.6 73.62 386.6 73.8381 386.5C73.62 386.4 73.4018 386.4 73.1837 386.4C72.8565 386.4 72.6384 386.5 72.5293 386.5Z" fill="#263238"/>
<path d="M72.3113 385.9C72.7475 386.1 73.2929 386.1 73.7291 386C73.511 386 73.2929 386 73.0747 386C72.7475 385.9 72.5294 385.9 72.3113 385.9Z" fill="#263238"/>
<path d="M74.4924 387C74.7106 387 75.0378 387 75.2559 387C75.474 387 75.8012 386.9 76.0194 386.8C76.1284 386.8 76.3466 386.7 76.4556 386.6L76.5647 386.5C76.5647 386.5 76.5647 386.4 76.6738 386.4V386.3L76.5647 386.2C76.2375 386.1 75.9103 386.1 75.6922 386.1C75.474 386.1 75.1468 386.3 74.9287 386.6C74.8196 386.7 74.7106 386.9 74.7106 387C74.7106 387.1 74.7106 387.1 74.7106 387.2C74.8196 387 74.9287 386.8 75.0378 386.6C75.2559 386.4 75.474 386.3 75.6922 386.2C76.0194 386.1 76.3466 386.1 76.5647 386.2C76.6738 386.3 76.6738 386.4 76.5647 386.5C76.4556 386.6 76.3466 386.6 76.1284 386.7C75.9103 386.8 75.5831 386.8 75.365 386.9C74.7106 387 74.4924 387 74.4924 387Z" fill="#263238"/>
<path d="M74.6016 387C74.6016 386.9 74.7106 386.9 74.7106 386.8C74.7106 386.7 74.7106 386.6 74.7106 386.6C74.7106 386.4 74.6016 386.3 74.4925 386.1C74.3834 386 74.3834 385.9 74.2744 385.9C74.1653 385.8 74.0562 385.8 73.9472 385.8H73.8381C73.8381 385.8 73.729 385.8 73.729 385.9V386V386.1C73.729 386.2 73.8381 386.3 73.8381 386.4C73.9472 386.5 74.0562 386.7 74.1653 386.8C74.2744 386.9 74.3834 387 74.6016 387C74.4925 387 74.3834 386.9 74.1653 386.7C74.0562 386.6 73.9472 386.5 73.8381 386.3C73.729 386.2 73.62 385.9 73.8381 385.9C74.0562 385.9 74.1653 386 74.3834 386.2C74.4925 386.3 74.6016 386.5 74.6016 386.6C74.6016 386.7 74.6016 386.9 74.6016 387Z" fill="#263238"/>
<path d="M61.95 386.6C61.95 386.6 62.2772 386.6 62.8225 386.6C63.4769 386.7 64.1313 386.9 64.6766 387.2C65.222 387.5 65.6582 388 65.8764 388.6C66.0945 389 66.0945 389.3 66.0945 389.3C66.0945 389.2 66.0945 389.2 66.0945 389.1C66.0945 388.9 65.9854 388.7 65.9854 388.6C65.7673 388 65.331 387.5 64.7857 387.1C64.2404 386.7 63.4769 386.5 62.8225 386.5C62.6044 386.5 62.3862 386.5 62.1681 386.5C62.1681 386.6 62.059 386.6 61.95 386.6Z" fill="#263238"/>
<path d="M67.7305 388.4C68.8211 388.6 70.0209 388.5 71.1115 388.3C71.1115 388.3 70.3481 388.3 69.3665 388.3C68.4939 388.4 67.7305 388.4 67.7305 388.4Z" fill="#263238"/>
<path d="M65.4399 388.5C65.4399 388.5 65.549 388.6 65.549 388.8C65.6581 388.9 65.6581 389.1 65.7671 389.1C65.7671 389.1 65.8762 388.9 65.7671 388.8C65.549 388.5 65.4399 388.4 65.4399 388.5Z" fill="#263238"/>
<path d="M64.4585 387.6C64.4585 387.6 64.5676 387.7 64.6766 387.8C64.7857 387.9 64.8948 388 64.8948 387.9C64.8948 387.9 64.8948 387.8 64.6766 387.7C64.6766 387.6 64.5676 387.5 64.4585 387.6Z" fill="#263238"/>
<path d="M63.2585 387.2C63.2585 387.2 63.3676 387.2 63.5857 387.3C63.8039 387.4 63.9129 387.4 63.9129 387.4C63.9129 387.4 63.8039 387.2 63.5857 387.2C63.3676 387.2 63.2585 387.1 63.2585 387.2Z" fill="#263238"/>
<path d="M62.3862 387L62.4953 387.1C62.6044 387.1 62.7134 387.1 62.7134 387.1L62.6044 387C62.4953 387 62.3862 387 62.3862 387Z" fill="#263238"/>
<path d="M-2.61748 382.5L-4.36255 389.5H7.41665L7.96198 384.9L-2.61748 382.5Z" fill="#FF725E"/>
<path d="M7.63467 388.5C7.08934 388.6 6.544 388.6 5.8896 388.6C4.79894 388.6 3.38107 388.6 1.74507 388.5L-2.39946 388.3C-2.9448 388.3 -3.49013 388.3 -4.14453 388.2C-3.5992 388.1 -3.05386 388.1 -2.39946 388.1C-1.3088 388.1 0.109069 388.1 1.74507 388.2L5.8896 388.4C6.43494 388.4 6.98027 388.4 7.63467 388.5Z" fill="#263238"/>
<path d="M2.6175 383.9C2.72656 384.7 2.72656 385.4 2.6175 386.2C2.6175 387 2.50843 387.7 2.2903 388.5C2.18123 387.7 2.18123 387 2.2903 386.2C2.2903 385.4 2.39936 384.6 2.6175 383.9Z" fill="#263238"/>
<path opacity="0.6" d="M-4.36255 389.5H7.41665L7.52572 388.5L-4.14442 388.2L-4.36255 389.4" fill="white"/>
<path d="M79.9459 188C77.2192 188 74.4925 188.4 71.8749 189.1L65.5491 182.5C69.5845 178.4 71.7659 173.2 71.7659 167.7C71.7659 154.4 58.3507 143.6 41.8816 143.6C25.4125 143.6 11.9973 154.5 11.9973 167.8C11.9973 181.1 25.4125 191.9 41.8816 191.9C49.1891 192 56.2784 189.7 62.0589 185.6L67.9485 190.6C62.2771 193.3 58.4597 197.9 58.4597 203.1C58.4597 209.7 64.5675 215.4 73.0747 217.4L69.6936 226.4L78.3099 218.2C78.8552 218.2 79.4005 218.3 80.0549 218.3C91.9432 218.3 101.541 211.5 101.541 203.2C101.432 194.8 91.8341 188 79.9459 188Z" fill="#263238" stroke="#263238" stroke-width="0.6188" stroke-miterlimit="10"/>
<path d="M77.7645 186.4C75.0378 186.4 72.3111 186.8 69.6935 187.5L63.3676 180.9C67.4031 176.8 69.5844 171.6 69.5844 166.1C69.5844 152.8 56.1693 142 39.7002 142C23.2311 142 9.81592 152.8 9.81592 166.1C9.81592 179.4 23.2311 190.2 39.7002 190.2C47.0077 190.3 54.097 188 59.8775 183.9L65.7671 188.9C60.0956 191.6 56.2783 196.2 56.2783 201.4C56.2783 208 62.3861 213.7 70.8933 215.7L67.5122 224.7L76.1285 216.5C76.6738 216.5 77.2191 216.6 77.7645 216.6C89.6527 216.6 99.2506 209.8 99.2506 201.5C99.2506 193.1 89.6527 186.4 77.7645 186.4Z" fill="white" stroke="#263238" stroke-width="0.6188" stroke-miterlimit="10"/>
<path d="M71.0024 202.2C71.0024 201.9 70.8933 201.5 70.6752 201.2C70.4571 200.9 70.1299 200.7 69.8027 200.6C69.4755 200.5 69.0392 200.4 68.712 200.5C68.3848 200.6 67.9485 200.7 67.7304 201C67.5123 201.2 67.2941 201.6 67.1851 201.9C67.076 202.2 67.1851 202.6 67.2941 202.9C67.4032 203.2 67.7304 203.5 67.9485 203.7C68.2757 203.9 68.6029 204 69.0392 204C69.5845 204 70.0208 203.8 70.348 203.5C70.7843 203.1 71.0024 202.7 71.0024 202.2Z" fill="#3A6951"/>
<path d="M80.164 202.2C80.164 201.9 80.055 201.5 79.8368 201.2C79.6187 200.9 79.2915 200.7 78.9643 200.6C78.6371 200.5 78.2008 200.4 77.8736 200.5C77.5464 200.6 77.1102 200.7 76.892 201C76.6739 201.2 76.4558 201.6 76.3467 201.9C76.2376 202.2 76.3467 202.6 76.4558 202.9C76.5648 203.2 76.892 203.5 77.1102 203.7C77.4374 203.9 77.7646 204 78.2008 204C78.7462 204 79.1824 203.8 79.5096 203.5C79.9459 203.1 80.164 202.7 80.164 202.2Z" fill="#3A6951"/>
<path d="M89.3256 202.2C89.3256 201.9 89.2166 201.5 88.9984 201.2C88.7803 200.9 88.4531 200.7 88.1259 200.6C87.7987 200.5 87.3624 200.4 87.0352 200.5C86.708 200.6 86.2718 200.7 86.0536 201C85.8355 201.2 85.6174 201.6 85.5083 201.9C85.3992 202.2 85.5083 202.6 85.6174 202.9C85.7264 203.2 86.0536 203.5 86.2718 203.7C86.599 203.9 86.9262 204 87.3624 204C87.9078 204 88.344 203.8 88.6712 203.5C89.2166 203.1 89.3256 202.7 89.3256 202.2Z" fill="#3A6951"/>
<path opacity="0.8" d="M32.5019 162.8C32.6109 162.7 32.9381 162.6 33.2653 162.6C33.5925 162.6 33.7016 162.6 33.9197 162.7C34.0288 162.8 34.1379 162.9 34.0288 163C34.0288 163.1 33.9197 163.5 33.9197 164C33.8107 164.6 33.8107 164.9 33.8107 165C33.7016 165.2 33.4835 165.4 33.2653 165.4C33.0472 165.4 32.8291 165.3 32.72 165C32.72 165 32.6109 164.5 32.6109 163.7C32.1747 163.7 30.8659 163.8 28.7936 163.9C26.7213 164 25.6307 164 25.3035 164.1C25.3035 164.5 25.1944 164.9 25.1944 165.1C25.0853 165.4 24.8672 165.5 24.6491 165.5C24.4309 165.5 24.2128 165.4 24.1037 165.1C24.1037 165 23.9947 164.7 23.9947 164C23.8856 163.4 23.8856 163 23.8856 162.9C23.8856 162.8 23.8856 162.7 23.9947 162.6C24.1037 162.5 24.3219 162.5 24.6491 162.5C24.9763 162.5 25.1944 162.6 25.3035 162.7H25.9579L25.5216 162.1C25.4125 162 25.4125 161.8 25.5216 161.7C25.6307 161.5 25.7397 161.4 26.0669 161.2C26.2851 161.1 26.6123 161.1 26.7213 161.1C26.9395 161.1 27.0485 161.2 27.0485 161.4C27.3757 162.3 27.4848 162.8 27.4848 162.7H28.6845L28.1392 161.6C28.0301 161.5 28.0301 161.3 28.1392 161.2C28.2483 161 28.4664 160.9 28.6845 160.8C28.9027 160.7 29.2299 160.7 29.3389 160.8C29.5571 160.9 29.6661 161 29.6661 161.1C29.7752 162 29.8843 162.5 29.8843 162.6V162.7H30.6477V162.6C30.6477 162.5 30.7568 162.3 31.084 161.8C31.3021 161.4 31.4112 161.1 31.5203 161C31.6293 160.9 31.7384 160.8 31.8475 160.8C31.9565 160.8 32.2837 160.8 32.5019 161C32.72 161.1 32.8291 161.3 32.9381 161.4C33.0472 161.6 32.9381 161.7 32.8291 161.8C32.72 161.9 32.6109 162 32.5019 162.2C32.2837 162.5 32.0656 162.6 32.0656 162.7L32.5019 162.8ZM29.1208 166.3L29.6661 165.8C27.4848 165.9 26.2851 166 26.176 166C25.9579 166 25.8488 166 25.7397 165.8C25.6307 165.7 25.5216 165.5 25.5216 165.3C25.5216 165.1 25.5216 164.9 25.7397 164.8C25.8488 164.7 25.9579 164.6 26.176 164.6C26.2851 164.6 27.0485 164.6 28.3573 164.7C29.6661 164.7 30.4296 164.8 30.8659 164.8C30.9749 164.7 31.1931 164.6 31.4112 164.7C31.6293 164.7 31.8475 164.8 32.0656 165C32.2837 165.2 32.3928 165.4 32.3928 165.6C32.3928 165.8 32.2837 166 32.0656 166.1L30.2115 167.2C32.1747 167.3 33.3744 167.3 33.8107 167.3C34.4651 167.3 34.6832 167.5 34.6832 167.7C34.6832 168 34.356 168.2 33.8107 168.2C33.4835 168.2 32.2837 168.3 30.1024 168.4C30.1024 169.2 29.9933 169.8 29.7752 170.4C29.6661 171 29.448 171.3 29.2299 171.3C29.1208 171.3 29.0117 171.3 28.9027 171.3C28.9027 171.3 28.5755 171.2 28.0301 171C27.5939 170.8 27.2667 170.7 27.1576 170.7C26.9395 170.6 26.8304 170.4 26.8304 170.2C26.9395 170 27.0485 169.9 27.2667 169.9L28.4664 170.1C28.4664 169.5 28.4664 169 28.4664 168.5C25.9579 168.6 24.54 168.7 24.2128 168.7C23.9947 168.7 23.7765 168.7 23.5584 168.5C23.3403 168.3 23.2312 168.1 23.2312 167.9C23.2312 167.7 23.3403 167.5 23.4493 167.3C23.6675 167.1 23.8856 167 24.1037 167.1C24.3219 167.1 25.6307 167.2 28.1392 167.2C28.1392 167 28.1392 166.8 28.2483 166.7C28.3573 166.6 28.5755 166.5 28.9027 166.4H29.1208V166.3ZM42.0997 169.4L45.808 169.5C46.4624 169.5 46.7896 169.7 46.7896 170C46.7896 170.3 46.4624 170.5 45.808 170.6C45.3717 170.6 43.8448 170.7 41.2272 170.9C38.6096 171 37.0827 171.1 36.6464 171.2C36.4283 171.2 36.2101 171.1 35.992 170.9C35.7739 170.7 35.6648 170.5 35.6648 170.2C35.6648 169.9 35.7739 169.7 35.8829 169.5C36.1011 169.3 36.3192 169.2 36.5373 169.2C36.9736 169.2 38.3915 169.3 40.7909 169.3V169.2C40.7909 169 40.6819 168.4 40.6819 167.4C39.3731 167.5 38.6096 167.5 38.1733 167.5C37.9552 167.5 37.7371 167.4 37.628 167.3C37.5189 167.1 37.4099 166.9 37.4099 166.7C37.4099 166.5 37.5189 166.3 37.628 166.1C37.7371 165.9 37.9552 165.9 38.1733 165.9C38.5005 165.9 39.3731 166 40.5728 166L40.4637 164.4C39.1549 164.5 38.5005 164.5 38.2824 164.5C38.0643 164.5 37.9552 164.5 37.8461 164.4C37.4099 165.1 37.1917 165.6 36.8645 166C36.6464 166.4 36.3192 166.5 36.1011 166.4C35.7739 166.3 35.6648 166 35.7739 165.6C35.7739 165.4 35.992 164.8 36.4283 163.8C36.8645 162.8 37.0827 162.2 37.0827 162C37.1917 161.8 37.3008 161.7 37.5189 161.6C37.7371 161.5 37.9552 161.5 38.2824 161.6C38.5005 161.7 38.7187 161.8 38.8277 162C38.9368 162.2 38.9368 162.4 38.8277 162.6L38.7187 162.9L40.3547 163C40.3547 162.5 40.2456 162 40.2456 161.7C40.2456 161.5 40.3547 161.2 40.5728 161.1C40.7909 160.9 41.0091 160.8 41.3363 160.8C41.6635 160.8 41.8816 160.9 42.0997 161.1C42.3179 161.3 42.4269 161.5 42.3179 161.7L42.2088 163.1C43.7357 163.2 44.7173 163.2 45.0445 163.2C45.5899 163.2 45.808 163.4 45.808 163.7C45.808 164 45.5899 164.2 45.0445 164.2C44.8264 164.2 43.8448 164.3 42.0997 164.4L41.9907 166.1C43.5176 166.2 44.3901 166.2 44.6083 166.2C45.1536 166.2 45.3717 166.4 45.3717 166.7C45.3717 167 45.1536 167.2 44.6083 167.2C44.172 167.3 43.2995 167.3 41.8816 167.4C41.8816 168 41.7725 168.6 41.7725 169.3L42.0997 169.4ZM54.7515 168.9C54.6424 168.8 54.5333 168.6 54.6424 168.4C54.6424 168.2 54.8605 168 55.0787 167.9C55.2968 167.8 55.5149 167.7 55.7331 167.7C55.9512 167.7 56.0603 167.8 56.1693 168L57.0419 169.2C57.4781 169.8 57.8053 170.2 57.8053 170.4C57.9144 170.7 57.8053 170.9 57.6963 171C57.4781 171.2 57.1509 171.2 56.9328 171C56.8237 170.9 56.4965 170.7 56.0603 170.2C55.9512 170.2 55.9512 170.3 55.8421 170.3C55.5149 170.4 54.6424 170.5 53.1155 170.7L50.2797 171.1C50.0616 171.1 49.8435 171.1 49.6253 171C49.4072 170.9 49.2981 170.7 49.2981 170.4C49.2981 170.2 49.2981 169.9 49.4072 169.8C49.5163 169.6 49.7344 169.5 49.9525 169.5C50.0616 169.4 50.4979 168.9 51.2613 168C50.2797 168 49.6253 168.1 49.2981 168.1C49.08 168.1 48.8619 168 48.6437 167.9C48.4256 167.7 48.4256 167.5 48.3165 167.3C48.3165 167.1 48.4256 166.8 48.5347 166.7C48.7528 166.5 48.9709 166.4 49.1891 166.4C49.6253 166.4 51.0432 166.5 53.4427 166.5C55.9512 166.6 57.3691 166.6 57.6963 166.6C58.2416 166.6 58.5688 166.8 58.5688 167.1C58.5688 167.4 58.2416 167.6 57.6963 167.6C57.3691 167.6 55.9512 167.7 53.4427 167.8C53.4427 168 53.3336 168.1 53.2245 168.2L51.9157 169.3C53.1155 169.2 54.0971 169.2 54.9696 169.2L54.7515 168.9ZM59.0051 165.3C58.7869 165.5 58.4597 165.5 58.0235 165.3C57.8053 165.2 57.0419 164.8 55.9512 164.2C54.7515 163.6 54.0971 163.2 53.7699 163.1C53.6608 163 53.4427 162.9 53.4427 162.8C53.1155 163 52.4611 163.4 51.4795 164.1C54.0971 164.2 55.5149 164.3 55.8421 164.3C56.2784 164.4 56.4965 164.5 56.4965 164.8C56.4965 165.1 56.2784 165.2 55.8421 165.3C55.5149 165.3 54.8605 165.4 53.5517 165.5C52.0248 165.6 51.2613 165.6 51.2613 165.6C51.0432 165.6 50.9341 165.5 50.8251 165.4C50.716 165.3 50.6069 165.1 50.6069 164.8C50.6069 164.7 50.6069 164.6 50.6069 164.6C49.8435 165.1 49.2981 165.5 49.1891 165.5C48.7528 165.7 48.4256 165.7 48.2075 165.5C47.9893 165.2 48.0984 165 48.4256 164.7C48.6437 164.5 49.4072 163.9 50.8251 162.7C52.2429 161.5 53.0064 160.9 53.2245 160.7C53.4427 160.6 53.6608 160.5 53.8789 160.5C54.0971 160.5 54.3152 160.6 54.5333 160.8C54.7515 161 54.8605 161.3 54.7515 161.5L56.7147 162.8C57.8053 163.5 58.3507 164 58.6779 164.1C59.0051 164.8 59.1141 165 59.0051 165.3Z" fill="#094325"/>
<path d="M93.1429 381.7C99.5779 385.8 97.7237 436.2 89.5437 448.7C81.1456 450.3 66.4216 449 60.6411 452.1C69.5845 453.6 87.3624 458.5 87.3624 458.5L76.0195 485.6L44.7173 482.9L70.8933 494.6L55.0787 517.3L26.176 511.6L46.6805 524.7L22.7949 545.6L-8.50721 537L12.2155 549.2L-2.72667 560.8L-28.0301 558L-16.6872 566.9C-16.6872 566.9 -33.8107 578.7 -45.5899 578.3C-57.3691 577.9 -67.9485 577.9 -71.3296 575.2C-74.7107 572.5 -77.1101 550.6 -74.9288 541.5C-72.7475 532.4 -70.5661 525.7 -70.5661 525.7L-65.2219 531.7L-65.44 512.4L-52.8973 496.2L-50.4979 511.5L-46.6805 487.5L-26.176 472.8L-21.1589 496.1L-17.996 464.6L0.327188 449L6.87119 471.8L8.50719 439.4L29.6661 423.4L34.0288 444.3L36.6464 416.5L57.3691 404.9L59.7685 420.7L67.7304 398C67.7304 398 81.9091 389.7 88.2349 381.8C90.4163 378.3 93.1429 381.7 93.1429 381.7Z" fill="#00737F"/>
<path d="M93.143 689.5C104.486 690.1 148.222 662.4 151.494 670C154.766 677.6 147.24 697.9 132.189 704.5C117.138 711.1 93.4702 708.3 85.2902 712.3C77.1102 716.3 75.038 721.6 75.3652 723.4C75.8014 725.2 127.717 720.7 134.588 730.8C141.351 740.9 131.098 751.3 116.047 755.4C100.996 759.6 71.875 739.2 63.4769 740.1C55.0788 741 50.3889 747.3 53.0065 748.7C55.6241 750.2 87.3625 759.6 96.306 766.8C105.249 774.1 106.231 783 88.0169 781.6C69.8028 780.2 49.0801 761.9 42.8633 763.5C36.6465 765.1 38.2825 768.4 41.1182 770.4C44.063 772.3 64.8948 782.6 71.4388 787.6C77.9828 792.7 63.8041 798.2 58.678 798.8C53.5518 799.4 39.5913 793.1 35.9921 790.2C32.502 787.4 31.1932 780.5 27.4849 780C23.7766 779.5 21.7044 788.9 19.8502 789.7C17.9961 790.5 8.94358 785.9 8.72544 783.4C8.50731 780.8 15.1604 777 14.506 773.1C13.8516 769.2 6.32598 771.5 0.654509 765C-5.01696 758.5 -14.3967 737.8 -11.0156 730.8C-7.63456 723.8 13.8516 752.2 21.2681 756.2C26.8305 758.3 30.975 756 28.7937 752.4C26.6124 748.7 -13.0879 714 -11.9972 703.8C-10.7975 693.6 -8.94336 696.3 -3.59909 699.4C1.74518 702.4 26.1761 732.8 32.0657 729.7C38.1734 726.5 -0.108958 687.5 1.30891 674C2.61771 660.4 8.50731 646.4 15.5966 648.3C22.795 650.2 31.3022 693.7 41.8817 697.9C52.4612 702.1 44.4993 693.7 43.1905 685.9C41.8817 678.1 28.7937 645.8 32.3929 638.9C35.9921 632 37.8462 624.1 46.2444 627.8C54.6425 631.5 58.2417 670.6 63.9132 670.6C69.5846 670.6 61.6228 648.4 66.5308 634C71.5478 619.5 86.8172 610.4 90.6345 613.6C94.4518 616.9 94.2337 616.7 92.1614 620.4C90.0892 624.1 81.0366 635.2 79.7278 643.6C78.419 652 75.8014 657.3 78.6372 657.3C81.4729 657.3 85.7265 649.7 87.7988 643C89.871 636.3 93.2521 621.5 97.6148 618.8C101.977 616.1 114.629 603.6 128.699 616.7C142.877 629.9 133.825 643.4 127.063 652C120.301 660.6 111.903 665.5 103.177 672.5C94.5609 679.6 88.0169 689.2 93.143 689.5Z" fill="#00737F"/>
<path d="M455.244 847C457.644 850.3 455.68 838.9 458.625 830.6C461.57 822.3 465.824 817 465.824 803.6C465.824 790.2 453.281 767.3 447.61 752.2C441.829 737.1 443.247 728.5 430.268 708.4C417.289 688.3 400.929 667 384.242 659.5C367.446 652 364.064 633.5 343.887 625.7C323.71 617.9 282.483 632.3 265.795 621.5C299.824 655.1 304.732 689.8 320.983 714.5C337.343 739.2 343.015 729.9 360.356 750.3C377.589 770.7 369.082 772.9 385.769 796.2C405.183 823.1 436.048 821.4 455.244 847Z" fill="#1E724E"/>
<path d="M298.079 721.3C295.571 719.6 299.715 702.3 295.789 694.6C291.862 686.8 290.772 698.7 286.627 695.8C282.483 693 282.265 674.9 270.813 664.1C268.195 661.7 265.905 663.5 266.014 666.4C266.123 669.3 267.65 672.5 264.159 673.4C260.669 674.3 258.488 663.1 251.944 657.8C245.4 652.5 241.801 652.9 240.056 654.8C238.311 656.7 242.455 659.4 239.292 660.1C236.02 660.8 232.53 654.9 227.513 651.7C222.496 648.5 218.351 645.9 216.061 647.6C213.771 649.3 217.806 651.2 214.534 652.9C211.262 654.6 205.373 645.1 199.156 641.6C192.939 638.1 196.974 645 193.484 646.7C189.885 648.4 185.413 643.5 180.942 643.5C176.361 643.5 177.451 646.7 172.216 648.8C166.981 650.9 158.91 647.2 156.511 648.9C154.111 650.6 158.692 653.2 159.455 661.7C160.11 670.2 156.183 674.6 158.038 680.2C160.001 685.8 171.344 692.7 170.253 695.8C169.271 698.9 159.674 692.9 160.546 696.5C161.419 700.1 164.473 705.5 168.29 708.5C172.107 711.5 179.306 713.6 179.524 716C179.742 718.4 169.926 716.5 170.035 718.8C170.253 722.5 184.977 729.2 186.286 733.3C187.595 737.4 175.161 736.8 177.888 739.7C180.723 742.5 193.484 744.7 195.775 748.5C198.065 752.3 184.323 748.5 186.068 752.7C187.704 756.9 192.175 759.4 197.629 761.9C203.082 764.4 209.408 764.3 209.626 767.9C209.844 771.5 195.338 770.5 197.956 773.8C200.683 777.1 218.024 776.3 220.315 779.4C222.605 782.5 210.717 781.5 215.734 785.4C220.751 789.3 238.965 789.3 240.71 793.7C242.455 798.1 224.241 792.4 229.694 798.9C235.148 805.4 257.943 808.7 265.468 807.4C283.464 805 300.479 787.7 305.169 778C309.858 768.3 309.313 767.6 308.768 764.3C308.222 761 299.933 768.9 303.314 760.7C306.695 752.6 312.04 751.2 311.822 744.2C311.713 737.1 306.259 747.9 307.568 739.7C308.877 731.5 312.149 721 307.786 717.3C301.133 711.7 301.46 723.6 298.079 721.3Z" fill="#E2A14B"/>
<path d="M284.337 763.4C265.141 740.3 217.697 688.2 181.378 664.6" stroke="white" stroke-width="1.7192"/>
<path d="M258.488 734.6L221.624 743.8M267.759 743.3L276.266 707L267.759 743.3ZM253.907 728.8L250.308 694.3L253.907 728.8ZM215.298 690.8L226.313 668.8L215.298 690.8ZM200.574 679.4L185.522 682.4L200.574 679.4ZM233.839 709.6L195.666 709L233.839 709.6Z" stroke="white" stroke-width="1.7192"/>
<path d="M394.276 293.7H333.526C332.653 293.7 331.89 293.9 331.126 294.1C330.363 294.3 329.708 294.8 329.054 295.4C328.509 295.9 327.963 296.6 327.636 297.3C327.309 298 327.2 298.8 327.2 299.5V332.7C327.2 333.5 327.309 334.2 327.636 334.9C327.963 335.6 328.4 336.2 329.054 336.8C329.599 337.3 330.363 337.8 331.126 338.1C331.89 338.4 332.762 338.5 333.526 338.5H365.264L373.226 352.6L374.644 338.5H394.276C395.148 338.5 395.912 338.3 396.675 338.1C397.439 337.8 398.093 337.4 398.748 336.8C399.293 336.3 399.838 335.6 400.166 334.9C400.493 334.2 400.602 333.4 400.602 332.7V299.5C400.602 298.7 400.493 298 400.166 297.3C399.838 296.6 399.402 296 398.748 295.4C398.202 294.9 397.439 294.4 396.675 294.1C395.912 293.9 395.039 293.7 394.276 293.7Z" fill="#263238" stroke="#263238" stroke-width="0.557" stroke-linecap="round" stroke-linejoin="round"/>
<path d="M392.095 291H331.344C329.708 291 328.072 291.6 326.873 292.7C325.673 293.8 325.019 295.3 325.019 296.8V330C325.019 331.5 325.673 333 326.873 334.1C328.072 335.2 329.708 335.8 331.344 335.8H363.083L371.045 349.9L372.463 335.8H392.095C393.731 335.8 395.367 335.2 396.566 334.1C397.766 333 398.42 331.5 398.42 330V296.8C398.42 295.3 397.766 293.8 396.566 292.7C395.367 291.6 393.84 291 392.095 291Z" fill="white" stroke="#263238" stroke-width="0.557" stroke-miterlimit="10"/>
<path opacity="0.8" d="M346.941 302.8C346.941 303.7 346.832 305.3 346.723 307.7L350.649 307.9C350.649 307.5 350.54 306.6 350.54 305.3C350.431 303.9 350.431 303 350.431 302.7C348.795 302.7 347.595 302.7 346.941 302.8ZM351.195 301.6C351.522 301.6 351.74 301.7 351.849 301.8C352.067 301.9 352.067 302.1 352.067 302.3C352.067 302.5 351.958 303.5 351.849 305.3C351.74 307 351.74 308 351.631 308.2C351.631 308.3 351.631 308.4 351.522 308.5C351.522 308.6 351.413 308.6 351.413 308.7C351.304 308.8 351.304 308.8 351.195 308.8C351.195 308.8 351.195 308.8 351.086 308.8H350.977C350.867 308.8 350.213 308.9 349.013 308.9C347.705 309 346.832 309 346.505 309C346.505 310 346.396 310.6 346.396 310.9C346.396 311.5 346.178 311.7 345.85 311.7C345.523 311.7 345.305 311.4 345.305 310.9C345.305 310.6 345.196 309.1 345.087 306.5C344.978 303.9 344.869 302.4 344.869 302.1C344.869 301.9 344.978 301.7 345.196 301.5C345.414 301.3 345.632 301.3 345.959 301.3H346.069C346.178 301.3 346.178 301.3 346.287 301.3C346.505 301.3 347.268 301.4 348.468 301.4L351.195 301.6ZM354.903 300.8C354.576 300.8 354.358 300.7 354.139 300.5C353.921 300.3 353.812 300 353.812 299.8C353.812 299.6 353.921 299.3 354.139 299.1C354.358 298.9 354.685 298.8 354.903 298.8C355.23 298.8 355.448 298.9 355.666 299.1C355.885 299.3 355.994 299.5 355.994 299.8C355.994 300.1 355.885 300.3 355.666 300.5C355.448 300.7 355.121 300.8 354.903 300.8ZM354.903 309.1C354.576 309.1 354.358 308.9 354.249 308.4C354.249 308.2 354.139 307.1 354.03 305.2C353.921 303.4 353.921 302.3 353.812 302C353.812 301.8 353.812 301.6 354.03 301.5C354.249 301.4 354.467 301.3 354.794 301.3C355.121 301.3 355.339 301.4 355.557 301.5C355.775 301.7 355.775 301.8 355.775 302C355.775 302.3 355.666 303.3 355.557 305.2C355.448 307.1 355.448 308.1 355.339 308.4C355.448 308.9 355.23 309.1 354.903 309.1ZM363.737 301.4C363.955 301.5 364.174 301.6 364.283 301.8C364.392 302 364.392 302.2 364.283 302.4L362.865 305.6C361.992 307.4 361.556 308.5 361.338 308.7C361.12 309 360.902 309.2 360.683 309.2C360.465 309.2 360.247 309 360.029 308.6C359.92 308.4 359.484 307.3 358.611 305.6C357.848 303.8 357.302 302.8 357.193 302.5C357.084 302.3 357.084 302.1 357.193 301.8C357.302 301.6 357.521 301.4 357.739 301.4H357.848C358.066 301.3 358.393 301.3 358.611 301.4C358.829 301.5 359.047 301.7 359.047 301.9C359.047 301.8 359.593 303.4 360.793 306.9C361.992 303.5 362.538 301.9 362.538 301.8C362.538 301.6 362.756 301.4 362.974 301.4C363.192 301.4 363.41 301.2 363.737 301.4ZM367.227 302.8C367.227 303.1 367.118 303.9 367.118 305.3L367.009 307.8L370.718 308C370.718 307.6 370.609 306.7 370.609 305.3C370.499 303.9 370.499 303 370.499 302.6C369.191 302.6 368.1 302.7 367.227 302.8ZM371.263 301.6C371.59 301.6 371.808 301.7 371.917 301.8C372.135 301.9 372.135 302.1 372.135 302.3C372.135 302.5 372.026 303.5 371.917 305.3C371.808 307.1 371.808 308.1 371.699 308.3V308.4V308.5C371.699 308.6 371.699 308.7 371.59 308.8C371.481 308.9 371.372 309 371.263 309H371.154C370.936 309 370.172 309.1 368.645 309.1C367.337 309.2 366.573 309.2 366.355 309.2C366.137 309.2 365.919 309.1 365.81 308.8C365.81 308.7 365.701 308.6 365.701 308.5C365.701 308.3 365.591 307.2 365.482 305.3C365.373 303.4 365.373 302.3 365.264 302.1C365.264 301.9 365.264 301.7 365.482 301.6C365.701 301.5 365.919 301.4 366.246 301.4C366.355 301.4 366.464 301.4 366.573 301.4C366.9 301.4 367.664 301.5 368.863 301.5L371.263 301.6ZM378.461 307.9C378.789 308 378.898 308.2 378.898 308.4C378.898 308.6 378.789 308.8 378.461 308.9C378.352 308.9 377.916 309 377.153 309C376.389 309.1 375.953 309.1 375.735 309.1C375.626 309.1 375.517 309.1 375.407 309C375.189 308.9 375.08 308.6 375.08 308.3C375.08 308 374.971 306.3 374.862 303.3C374.317 303.3 373.99 303.4 373.881 303.4C373.662 303.4 373.553 303.4 373.444 303.2C373.335 303 373.226 302.8 373.226 302.6C373.226 302.4 373.335 302.2 373.444 302C373.553 301.9 373.662 301.8 373.881 301.8L374.753 301.9C374.644 300.6 374.644 299.9 374.644 299.8C374.644 299.6 374.753 299.4 374.971 299.2C375.189 299 375.407 299 375.735 299C376.062 299 376.28 299.1 376.498 299.2C376.716 299.4 376.825 299.6 376.716 299.8C376.716 300.1 376.607 300.9 376.607 302C377.807 302.1 378.461 302.1 378.461 302.1C378.789 302.2 379.007 302.3 379.007 302.6C379.007 302.9 378.789 303 378.461 303.1C378.352 303.1 377.807 303.1 376.498 303.2C376.389 305.9 376.28 307.4 376.28 307.7C377.807 307.8 378.461 307.9 378.461 307.9ZM341.924 320.7C342.142 320.8 342.797 321.1 343.887 321.7C344.978 322.2 345.632 322.6 345.85 322.7C345.959 322.8 346.069 322.8 346.069 322.9C346.178 323 346.287 323.1 346.178 323.2C346.178 323.3 346.069 323.7 346.069 324.4C345.959 325.1 345.959 325.5 345.959 325.5C345.85 325.7 345.741 325.9 345.523 325.9H345.414C345.305 325.9 344.542 326 343.233 326C341.924 326.1 341.161 326.1 341.051 326.1C340.833 326.1 340.615 326 340.506 325.8V325.7C340.506 325.6 340.397 325.3 340.397 324.8C340.288 324.3 340.288 323.9 340.288 323.8C340.179 323.5 340.506 323.3 341.161 323.3C341.488 323.3 341.706 323.3 341.815 323.4C341.924 323.5 342.033 323.6 341.924 323.7L341.815 324.6C343.015 324.7 343.996 324.7 344.76 324.8C344.651 323.7 344.542 323.1 344.542 323C344.105 322.9 343.451 322.6 342.578 322.3L341.051 321.8C340.942 321.8 340.833 321.7 340.724 321.5C340.724 321.6 340.724 321.5 340.615 321.3C340.615 321.2 340.506 320.7 340.506 320C340.397 319.2 340.397 318.8 340.397 318.6C340.288 318.3 340.506 318.1 341.051 318.1C341.161 318.1 341.161 318.1 341.27 318.1C341.379 318.1 341.488 318.1 341.597 318.1C341.924 318.1 342.578 318.2 343.451 318.2L345.414 318.3C345.741 318.3 345.959 318.3 346.069 318.4C346.178 318.5 346.287 318.6 346.178 318.7C346.178 318.8 346.069 319.1 346.069 319.5C345.959 320 345.959 320.2 345.959 320.3C345.85 320.5 345.632 320.7 345.414 320.7C345.196 320.7 344.978 320.6 344.869 320.3C344.869 320.2 344.76 319.9 344.651 319.2C343.342 319.3 342.36 319.3 342.033 319.3L341.924 320.7ZM352.176 324.9C352.503 325 352.613 325.2 352.613 325.4C352.613 325.6 352.503 325.8 352.176 325.9C352.067 325.9 351.631 326 350.867 326C350.104 326.1 349.668 326.1 349.45 326.1C349.341 326.1 349.231 326.1 349.122 326C348.904 325.9 348.795 325.6 348.795 325.3C348.795 325 348.686 323.3 348.577 320.3C348.032 320.3 347.705 320.4 347.595 320.4C347.377 320.4 347.268 320.4 347.159 320.2C347.05 320 346.941 319.8 346.941 319.6C346.941 319.4 347.05 319.2 347.159 319C347.268 318.9 347.377 318.8 347.595 318.8L348.468 318.9C348.359 317.6 348.359 316.9 348.359 316.8C348.359 316.6 348.468 316.4 348.686 316.2C348.904 316 349.122 316 349.45 316C349.777 316 349.995 316.1 350.213 316.2C350.431 316.4 350.54 316.6 350.431 316.8C350.431 317.1 350.322 317.9 350.322 319C351.522 319.1 352.176 319.1 352.176 319.1C352.503 319.2 352.722 319.3 352.722 319.6C352.722 319.9 352.503 320 352.176 320.1C352.067 320.1 351.522 320.1 350.213 320.2C350.104 322.9 349.995 324.4 349.995 324.7C351.631 324.8 352.285 324.9 352.176 324.9ZM359.593 318.3C359.92 318.3 360.138 318.4 360.247 318.5C360.465 318.6 360.465 318.8 360.465 319C360.465 319.2 360.356 320.3 360.247 322.1C360.138 323.9 360.138 325 360.029 325.2C360.029 325.3 360.029 325.4 359.92 325.5C359.92 325.6 359.811 325.7 359.702 325.8C359.702 325.8 359.593 325.8 359.593 325.9L359.375 326L357.084 326.1C355.666 326.2 354.903 326.2 354.685 326.3C354.576 326.3 354.576 326.3 354.467 326.3C354.249 326.2 354.139 326 354.03 325.6C354.03 325.4 353.921 324.3 353.812 322.4C353.703 320.5 353.703 319.4 353.594 319.1C353.594 318.9 353.594 318.7 353.812 318.6C354.03 318.5 354.249 318.4 354.467 318.4C354.794 318.4 355.012 318.5 355.121 318.6C355.339 318.7 355.339 318.9 355.339 319.1C355.339 319.3 355.23 320.2 355.23 321.6C355.121 323.5 355.121 324.6 355.121 324.9C354.903 324.9 356.103 324.9 358.611 325.1C358.611 324.7 358.502 323.7 358.393 321.9C358.284 320.3 358.284 319.3 358.175 319.1C358.175 318.9 358.175 318.7 358.393 318.6C359.047 318.4 359.266 318.3 359.593 318.3ZM368.318 325C368.318 324.6 368.209 322.8 368.1 319.6L366.137 319.7C365.046 319.7 364.392 319.8 363.955 319.8C363.955 320.1 363.846 320.9 363.846 322.3L363.737 324.8C364.174 324.8 364.937 324.9 366.137 324.9L368.318 325ZM362.974 318.4C363.083 318.4 363.192 318.4 363.192 318.4C363.519 318.4 364.283 318.5 365.482 318.5L367.882 318.6C367.882 317.6 367.773 316.9 367.773 316.6C367.773 316.4 367.882 316.2 368.1 316C368.318 315.8 368.536 315.8 368.863 315.8C369.191 315.8 369.409 315.9 369.627 316C369.845 316.2 369.954 316.4 369.845 316.6C369.845 316.9 369.736 318.3 369.627 320.8C369.518 323.3 369.409 324.7 369.409 325C369.409 325.5 369.191 325.8 368.863 325.8H368.754C368.645 325.8 367.664 325.9 365.919 325.9C364.174 326 363.192 326 363.083 326.1C362.974 326.1 362.974 326.1 362.865 326.1C362.756 326.1 362.756 326 362.647 325.9C362.538 325.7 362.429 325.6 362.429 325.3C362.429 325 362.319 323.9 362.21 322C362.101 320.2 362.101 319.1 361.992 318.9C361.992 318.6 362.101 318.3 362.647 318.2C362.756 318.4 362.865 318.4 362.974 318.4ZM372.899 317.8C372.572 317.8 372.354 317.7 372.135 317.5C371.917 317.3 371.808 317 371.808 316.8C371.808 316.6 371.917 316.3 372.135 316.1C372.354 315.9 372.681 315.8 372.899 315.8C373.226 315.8 373.444 315.9 373.662 316.1C373.881 316.3 373.99 316.5 373.99 316.8C373.99 317.1 373.881 317.3 373.662 317.5C373.444 317.7 373.117 317.8 372.899 317.8ZM372.899 326.1C372.572 326.1 372.354 325.9 372.245 325.4C372.245 325.2 372.135 324.1 372.026 322.2C371.917 320.4 371.917 319.3 371.808 319C371.808 318.8 371.808 318.6 372.026 318.5C372.245 318.4 372.463 318.3 372.79 318.3C373.117 318.3 373.335 318.4 373.553 318.5C373.771 318.7 373.771 318.8 373.771 319C373.771 319.3 373.662 320.3 373.553 322.2C373.444 324.1 373.444 325.1 373.335 325.4C373.444 325.9 373.226 326.1 372.899 326.1ZM377.807 319.8C377.807 320.1 377.698 320.9 377.698 322.3L377.589 324.8L381.297 325C381.297 324.6 381.188 323.7 381.188 322.3C381.079 320.9 381.079 320 381.079 319.6C379.77 319.6 378.679 319.7 377.807 319.8ZM381.842 318.6C382.17 318.6 382.388 318.7 382.497 318.8C382.715 318.9 382.715 319.1 382.715 319.3C382.715 319.5 382.606 320.5 382.497 322.3C382.388 324.1 382.388 325.1 382.279 325.3V325.4V325.5C382.279 325.6 382.279 325.7 382.17 325.8C382.061 325.9 381.951 326 381.842 326H381.733C381.515 326 380.752 326.1 379.225 326.1C377.916 326.2 377.153 326.2 376.934 326.2C376.716 326.2 376.498 326.1 376.389 325.8C376.389 325.7 376.28 325.6 376.28 325.5C376.28 325.3 376.171 324.2 376.062 322.3C375.953 320.4 375.953 319.3 375.844 319.1C375.844 318.9 375.844 318.7 376.062 318.6C376.28 318.5 376.498 318.4 376.825 318.4C376.934 318.4 377.043 318.4 377.153 318.4C377.48 318.4 378.243 318.5 379.443 318.5L381.842 318.6Z" fill="#094325"/>
<path d="M323.928 148C319.129 151.5 324.146 190.6 331.454 199.8C338.216 200.6 349.668 198.8 354.467 200.9C347.595 202.6 333.853 207.2 333.853 207.2L344.651 227.7L369.082 224.1L349.341 234.5L363.41 251.3L385.769 245.4L370.499 256.6L390.677 271.6L414.781 263.3L399.293 273.8L411.836 282L431.577 278.5L423.288 286C423.288 286 437.575 294.3 446.846 293.3C456.117 292.4 464.406 291.8 466.914 289.6C469.423 287.4 469.75 270.2 467.46 263.2C465.169 256.2 462.988 251.2 462.988 251.2L459.28 256.1L458.08 241.1L447.064 229.1L446.192 241.1L441.502 222.7L424.378 212.3L421.979 230.7L417.289 206.4L401.802 195.3L398.311 213.4L394.712 188.3L376.934 177L374.971 193.4L370.936 172L353.812 164.1L353.049 176.5L345.196 159.3C345.196 159.3 333.417 153.6 327.964 147.8C325.891 145.2 323.928 148 323.928 148Z" fill="#1E724E"/>
<path d="M386.096 170.8C385.114 169 371.045 169.6 365.482 166.1C359.92 162.6 369.3 163.3 367.555 160.2C365.81 157.1 351.74 154.8 344.651 146C343.015 144 344.76 142.7 347.05 143.1C349.341 143.5 351.631 144.9 352.722 142.7C353.921 140.5 345.305 137.7 342.033 132.8C338.652 127.9 339.415 125.5 341.051 124.6C342.797 123.7 344.323 126.7 345.305 124.7C346.287 122.7 342.033 119.7 340.179 116C338.325 112.3 336.689 109.3 338.325 108C339.961 106.7 340.942 109.6 342.578 107.6C344.323 105.7 337.561 100.7 335.598 96.1003C333.635 91.6003 338.434 95.1003 340.288 92.9003C342.033 90.8003 338.761 87.2003 339.306 84.2003C339.852 81.2003 342.251 82.3003 344.542 79.1003C346.832 75.9003 344.869 70.1003 346.505 68.8003C348.141 67.4003 349.668 70.8003 356.212 72.2003C362.756 73.7003 366.682 71.6003 370.827 73.5003C374.971 75.4003 379.007 83.7003 381.515 83.4003C384.024 83.1003 380.534 76.1003 383.26 77.1003C385.987 78.1003 389.804 80.8003 391.767 83.6003C393.622 86.5003 394.494 91.5003 396.348 91.9003C398.202 92.3003 397.875 85.6003 399.729 86.0003C402.565 86.6003 406.164 97.1003 409.218 98.4003C412.272 99.8003 413.254 91.5003 415.217 93.7003C417.071 95.9003 417.289 104.5 420.016 106.5C422.742 108.5 421.325 99.0003 424.487 100.6C427.65 102.2 428.959 105.4 430.268 109.3C431.577 113.2 430.704 117.3 433.54 117.9C436.376 118.5 437.248 108.8 439.539 111C441.829 113.2 439.102 124.5 441.284 126.4C443.356 128.3 444.01 120.4 446.519 124.1C449.027 127.9 446.846 139.9 450.009 141.5C453.281 143.1 450.991 130.5 455.353 134.8C459.825 139.1 459.716 154.6 457.753 159.3C453.717 170.9 438.23 180 430.05 181.9C421.87 183.8 421.434 183.4 418.925 182.7C416.417 182 423.506 177.4 416.744 178.7C409.982 180 408.236 183.3 402.783 182.4C397.33 181.5 406.382 179.2 399.729 179.1C393.185 179 384.569 179.9 382.17 176.6C378.134 171.7 387.405 173.3 386.096 170.8Z" fill="#52B788"/>
<path d="M350.649 83.7998C350.54 92.5998 399.293 163.2 435.176 169.2C406.273 154.2 350.649 83.7998 350.649 83.7998Z" fill="#4B9975"/>
<path d="M311.931 365.5C309.749 363.2 318.475 366.7 325.455 366.2C332.435 365.7 337.452 363.7 348.141 366.2C358.72 368.7 374.753 381.7 385.769 388.5C396.785 395.3 403.874 395.9 417.507 408.8C431.25 421.6 445.319 437 448.482 450.2C451.536 463.4 465.715 469.2 468.441 484.8C471.277 500.4 452.845 526.7 458.516 540.5C437.685 510.4 410.963 500.5 394.167 484.5C377.371 468.5 385.66 466.2 372.463 450.2C359.266 434.3 355.994 439.9 340.397 423.8C322.401 405.1 328.945 383.7 311.931 365.5Z" fill="#00737F"/>
<path d="M398.421 550.9C404.31 542.1 401.474 493.5 409.545 494.5C417.616 495.6 431.141 511.5 429.723 526.7C428.196 542 414.671 559.6 414.235 568.2C413.799 576.7 417.289 581 419.034 581.6C420.779 582.2 441.502 538.2 453.281 537.6C465.06 537 468.987 550.4 465.387 564.5C461.788 578.6 430.813 592.1 427.541 599.3C424.378 606.5 427.432 613.3 429.941 611.9C432.449 610.5 455.462 589.6 465.824 585.9C476.185 582.2 484.256 585.8 474.44 599.7C464.624 613.6 439.321 621.4 437.794 627.2C436.267 633 439.757 633.3 442.811 631.9C445.755 630.5 464.406 618.7 471.713 615.9C479.13 613.1 477.058 627.1 475.203 631.6C473.24 636 461.243 644.2 457.207 645.6C453.172 647.1 446.737 644.7 444.556 647.4C442.374 650.1 449.355 656.4 449.137 658.3C448.918 660.2 440.738 665.2 438.448 664.2C436.158 663.2 436.049 656 432.449 654.6C428.85 653.2 427.214 660.3 419.034 661.8C410.854 663.2 388.823 660.7 384.46 654.6C380.097 648.5 414.344 645.1 421.215 641C425.687 637.5 425.687 633.1 421.543 633.1C417.398 633.1 369.082 648.1 361.011 642.2C352.94 636.3 356.103 636.1 361.229 633.3C366.355 630.5 403.656 625.6 403.765 619.3C403.983 613 352.831 624.7 341.924 617C331.017 609.3 321.965 597.8 326.873 593C331.89 588.2 372.79 602.5 381.406 595.9C390.022 589.3 379.116 591.8 371.917 589C364.719 586.3 331.126 581.1 326.982 574.9C322.837 568.7 317.057 563.4 324.146 558.4C331.235 553.4 366.137 569.5 368.863 565C371.481 560.4 349.013 556.1 338.979 545.1C329.054 534.1 328.509 517.3 333.09 515.8C337.67 514.3 337.452 514.4 339.634 517.9C341.815 521.4 346.941 534 353.485 539.2C360.029 544.4 363.192 549.1 364.61 546.8C365.919 544.5 361.447 537.4 356.757 532.5C352.067 527.6 341.161 517.6 340.833 512.9C340.615 508.1 335.925 491.8 353.812 486.9C371.699 481.9 378.898 495.8 383.042 505.4C387.078 515 387.296 524.2 389.15 534.6C390.786 545 395.803 554.9 398.421 550.9Z" fill="#E2A14B"/>
</g>
<defs>
<clipPath id="clip0_308_3935">
<rect width="409" height="753" fill="white"/>
</clipPath>
</defs>
</svg>
