<svg width="375" height="753" viewBox="0 0 375 753" fill="none" xmlns="http://www.w3.org/2000/svg">
<g clip-path="url(#clip0_236:7663)">
<path d="M-0.840118 65.5502C-0.930119 64.0602 -0.74012 62.2402 0.499882 61.2602C3.06988 59.1802 7.04988 61.8202 9.23988 63.2602C13.4255 65.9474 17.1756 69.2591 20.3599 73.0802L19.8399 72.4502C22.5099 75.7002 25.8399 79.0302 27.0699 83.1002C27.7699 85.4502 27.1799 87.3902 27.1999 89.7502C27.1999 91.0702 28.1999 93.2802 27.5499 94.5702C28.9399 91.9402 30.3399 89.3202 31.8399 86.7702C32.7099 85.2902 34.8399 82.6902 34.5099 80.7702C34.0999 78.4402 30.7999 77.5302 29.1099 76.3902C22.0499 71.6102 17.5899 60.3902 17.1099 52.0902C16.9999 50.2302 16.8599 46.4202 18.5599 44.9102C20.9999 42.7702 24.2799 46.0802 25.9999 47.8002C29.9813 52.0552 33.0779 57.0587 35.1099 62.5202C36.2583 65.2279 37.0256 68.0817 37.3899 71.0002C37.6899 74.1802 35.7499 76.6902 35.8499 79.7002C37.6299 76.7002 39.6999 73.9302 41.6099 71.0402C42.9299 68.9902 45.3599 66.2702 44.9099 63.6102C44.5635 62.2647 43.7433 61.0894 42.5999 60.3002C36.8899 55.3902 31.2499 51.0002 28.2399 43.9002C27.1499 41.3102 25.8499 36.4502 28.4399 34.1802C31.0299 31.9102 34.5699 35.3902 36.4399 37.1802C39.4956 40.3557 42.1153 43.9237 44.2299 47.7902C45.6799 50.4202 47.2299 53.3502 47.4699 56.3702C47.6599 59.1702 46.0799 61.6002 46.0699 64.3702C51.0699 57.3702 50.2899 50.3702 52.4099 42.2402C53.5999 37.6502 58.8899 14.2402 66.7099 17.7302C73.0799 20.5102 68.8599 34.0902 67.4599 38.6802C66.1729 43.059 64.028 47.1381 61.1499 50.6802C59.095 53.0224 56.702 55.0447 54.0499 56.6802C50.9499 58.7502 50.0499 61.7902 47.7399 64.4202C50.3093 61.5404 53.4212 59.1953 56.8975 57.5189C60.3739 55.8425 64.1466 54.8677 67.9999 54.6502C70.9199 54.5502 80.8499 54.8402 81.3799 58.9602C81.3799 61.0802 79.1199 62.4902 77.5599 63.4802C72.5601 66.4409 66.8044 67.8763 60.9999 67.6102C58.7038 67.571 56.4273 67.1798 54.2499 66.4502C52.6199 65.8902 50.7699 64.9202 48.9899 65.2102C44.7699 65.8602 42.3699 72.2702 40.0699 75.2702C49.8625 72.4559 60.0966 71.5061 70.2399 72.4702C72.8399 72.7202 78.0199 73.6802 76.8299 77.4102C76.2399 79.2502 73.7599 80.2802 72.0799 81.0202C64.7899 84.2102 54.5599 85.2202 47.3799 81.1502C45.3799 80.0102 41.8299 75.9702 39.3799 76.8302C37.9299 77.3302 36.4399 80.6302 35.6799 81.8302C34.3133 83.9637 33.0583 86.1667 31.9199 88.4302C34.5099 88.6402 36.6299 87.4302 39.0699 86.8302C41.8257 86.3345 44.6401 86.2536 47.4199 86.5902C52.5599 86.9602 57.8799 87.6502 62.6299 89.8002C65.4399 91.0702 70.3899 93.6302 70.3099 97.3002C70.1599 102.06 61.6099 101.3 58.4999 101.24C52.8649 101.127 47.295 100.013 42.0499 97.9502C38.0499 96.3302 37.0499 93.8502 34.2399 90.9502C32.0399 88.6302 30.4999 91.0702 29.2399 93.3802C26.3199 98.6402 23.6299 104.21 20.8799 109.58C23.8799 108.5 26.5599 106.75 29.5699 105.69C32.8785 104.628 36.3254 104.059 39.7999 104C45.0499 103.8 51.5199 104.06 56.4299 106.2C61.8399 108.56 60.1799 112.4 56.1699 114.76C49.1699 118.89 34.9399 121.24 27.8599 115.98C25.7799 114.42 23.9399 110.07 20.9599 110.83C18.7599 111.38 18.0799 114.68 17.2699 116.46C15.8499 119.72 14.0799 122.84 12.2699 125.99C14.5799 127.65 17.0999 125.47 19.3799 124.77C22.5863 123.918 25.9076 123.581 29.2199 123.77C34.8199 123.85 40.8699 124.23 45.9599 126.82C49.2499 128.5 57.8799 134.46 51.3799 137.46C47.2099 139.4 41.7699 139.22 37.2999 138.93C31.8499 138.57 24.6799 137.86 19.9499 134.93C17.4899 133.41 15.8999 128.33 13.2199 127.62C10.8199 127 9.91988 130.26 8.79988 132C6.79988 135.2 4.60988 138.28 2.28988 141.3C5.02078 141.447 7.7508 140.996 10.2899 139.98C13.0386 139.115 15.9587 138.943 18.7899 139.48C23.2633 140.19 27.5345 141.843 31.3199 144.33C34.8999 146.64 43.7399 153.2 37.3199 157.05C29.5499 161.7 14.5899 158.19 8.58988 151.87C6.41988 149.62 6.64988 144.14 3.84988 142.71C0.299881 141 -5.55012 151.19 -7.30012 153.31C-2.17012 155.84 2.79988 156.31 7.11988 160.45C10.322 163.62 12.8137 167.434 14.4299 171.64C16.5099 176.92 17.5599 185.28 9.42988 183.27C0.999882 181.23 -9.75012 170.15 -8.52012 161C-8.35012 159.7 -6.90012 157 -7.17012 155.73C-7.83012 152.6 -10.1701 156.62 -11.0901 157.63C-13.4501 160.14 -15.9701 162.51 -18.4901 164.85C-21.696 167.691 -24.7534 170.695 -27.6501 173.85C-28.4801 174.79 -33.0801 180.52 -34.2301 177.31C-35.0101 175.12 -30.5301 172.43 -29.1701 171.48C-25.4659 169.03 -21.9706 166.277 -18.7201 163.25C-16.8501 161.45 -14.9601 159.64 -13.1201 157.83C-11.9001 156.63 -7.66012 153.68 -10.1701 152.67C-11.1701 152.29 -12.8201 153.32 -13.8301 153.49C-15.3756 153.753 -16.9479 153.82 -18.5101 153.69C-24.0677 153.119 -29.4054 151.215 -34.0701 148.14C-36.6701 146.46 -46.9001 138.72 -38.5901 136.78C-32.8201 135.44 -25.6601 137.54 -20.4001 139.89C-14.7501 142.38 -11.2301 147.03 -8.27012 152.3C-5.75587 149.742 -3.376 147.055 -1.14012 144.25C-0.770119 143.76 1.39988 141.25 0.859882 140.5C0.179882 139.59 -2.80012 140.94 -3.73012 141.01C-12.2001 141.88 -21.4501 135.11 -26.0801 128.44C-27.8401 125.92 -29.3901 122.18 -26.3901 120.04C-23.3901 117.9 -18.1701 119.19 -14.8801 120.04C-9.81012 121.34 -4.31012 123.79 -0.820118 127.88C1.09988 130.14 4.68988 136.21 2.56988 139.13C5.03988 135.72 9.56988 131.7 10.1499 127.31C10.6699 123.36 6.50988 124.96 3.76988 124.5C-4.32012 123.06 -13.6901 115.44 -17.3501 108.09C-19.6801 103.42 -15.8101 101.93 -11.2201 102.41C-5.89397 103.133 -0.875488 105.329 3.26988 108.75C5.65988 110.6 8.39988 112.96 9.79988 115.67C11.0899 118.14 10.5199 121.02 11.7399 123.47C14.0399 122.47 15.7399 117.26 16.6599 115.21C17.0699 114.29 18.1999 112.61 18.0999 111.58C17.8999 109.76 16.2699 109.58 14.7699 109.02C6.58988 105.75 -0.430119 97.4502 -3.23012 89.1502C-4.16012 86.3902 -5.42012 81.2502 -1.88012 79.8302C1.49988 78.5002 5.87988 82.4302 8.11988 84.4602C11.8342 87.5462 14.9668 91.2715 17.3699 95.4602C19.9599 100.27 18.0299 105.22 19.1499 110.28C20.8199 106.73 29.3799 96.2802 25.3899 92.2802C23.3899 91.0002 20.6199 90.8902 18.5099 89.6802C14.6399 87.5302 10.9999 84.1602 7.81988 81.0002C3.69988 76.8902 -0.410118 71.6102 -0.81012 65.5802L-0.840118 65.5502Z" fill="#1E724E"/>
<path d="M27.2701 278.52L26.1701 277.63V277.53V277.59L18.9101 271.76L22.0001 266.62L14.4801 261.13C14.4801 261.5 7.4801 271.91 8.4801 273.92C9.8201 276.8 18.9301 282.57 22.6501 284.84C21.6378 284.968 20.6355 285.165 19.6501 285.43C18.6501 285.74 21.8001 286.57 22.5501 286.7C22.8401 286.76 23.4401 286.29 24.0801 285.7L24.2601 285.8L24.4601 285.33C25.1443 284.631 25.7792 283.886 26.3601 283.1C26.5286 282.277 26.5624 281.433 26.4601 280.6L27.2701 278.52Z" fill="#FFBE9D"/>
<path d="M49.7 276L50.7999 275.12V275V275.06L59.11 269.75L51.11 263.23L58.0499 257.23C63.41 261.03 70.58 265.98 68.51 271.4C67.38 274.4 58.07 280.05 54.34 282.32C55.3517 282.456 56.3538 282.657 57.34 282.92C58.28 283.23 55.1899 284.05 54.4399 284.19C54.1499 284.25 53.55 283.78 52.91 283.19L52.74 283.29L52.56 282.81C51.876 282.112 51.2412 281.367 50.66 280.58C50.5005 279.729 50.4802 278.858 50.5999 278L49.7 276Z" fill="#FFBE9D"/>
<path d="M36.7 251.36C37.3915 251.411 38.0864 251.323 38.743 251.1C39.3996 250.877 40.0046 250.524 40.5217 250.062C41.0388 249.6 41.4575 249.038 41.7527 248.411C42.048 247.783 42.2137 247.103 42.24 246.41C42.35 243.61 42.44 240.78 42.44 240.78C42.44 240.78 46.69 240.38 47 236.17C47.31 231.96 47.16 222.26 47.16 222.26C44.8261 221.092 42.2226 220.569 39.6189 220.745C37.0152 220.921 34.5058 221.789 32.35 223.26L31.72 223.7L32 246.28C32.0156 247.565 32.5102 248.798 33.3869 249.737C34.2635 250.677 35.4592 251.255 36.74 251.36H36.7Z" fill="#FFBE9D"/>
<path d="M36.5101 216.8C35.2661 216.824 34.0503 217.175 32.9849 217.817C31.9194 218.46 31.0417 219.371 30.4401 220.46C29.3904 222.558 28.8556 224.875 28.8801 227.22C28.7458 231.779 28.8526 236.342 29.2001 240.89C29.1705 241.248 29.2738 241.604 29.4901 241.89C29.8027 242.15 30.1935 242.298 30.6001 242.31C38.3803 243.377 46.2698 243.377 54.0501 242.31C54.5601 241.38 53.8501 240.31 53.0501 239.57C52.2501 238.83 51.1901 238.21 50.8901 237.21C50.4201 235.64 51.9801 233.95 51.3701 232.42C50.9101 231.27 49.3701 230.7 48.8701 229.57C47.9801 227.67 50.2801 225.39 49.2601 223.57C48.7301 222.57 47.4801 222.19 46.7201 221.39C46.1384 220.613 45.6041 219.802 45.1201 218.96C44.034 217.772 42.5271 217.054 40.9201 216.96C39.4852 216.724 38.0243 216.69 36.5801 216.86" fill="#263238"/>
<path d="M30.5099 221.61C30.0059 221.937 29.5877 222.38 29.2901 222.902C28.9926 223.424 28.8245 224.01 28.7999 224.61C28.7753 225.822 28.5628 227.023 28.1699 228.17C27.6499 229.27 26.5299 230.24 26.2399 231.5C25.8599 233.13 26.9399 235.06 25.9699 236.43C25.3399 237.31 24.1099 237.53 23.3399 238.29C22.2799 239.29 22.3399 241.05 22.5399 242.54L36.5399 242.42" fill="#263238"/>
<path d="M35.5899 220.13C36.4009 220.12 37.1758 219.793 37.7493 219.22C38.3228 218.646 38.6495 217.871 38.6599 217.06C38.6126 216.254 38.2881 215.489 37.7414 214.895C37.1946 214.301 36.4593 213.914 35.6599 213.8C34.8418 213.72 34.0188 213.894 33.3031 214.299C32.5874 214.703 32.0136 215.318 31.6599 216.06C31.3161 216.726 31.2341 217.497 31.4299 218.22C31.6846 218.927 32.1948 219.512 32.8599 219.86C33.5299 220.232 34.2836 220.428 35.0499 220.428C35.8163 220.428 36.57 220.232 37.2399 219.86" fill="#263238"/>
<path d="M38.37 217.42C38.4217 217.79 38.3588 218.167 38.19 218.5C37.8423 219.342 37.185 220.019 36.3535 220.391C35.522 220.763 34.5795 220.802 33.72 220.5C33.3596 220.402 33.034 220.204 32.78 219.93C32.78 219.93 33.15 220.11 33.78 220.27C34.5904 220.496 35.4544 220.43 36.2206 220.082C36.9868 219.735 37.6062 219.129 37.97 218.37C38.27 217.82 38.31 217.41 38.37 217.42Z" fill="#FF725E"/>
<path d="M52.94 266.36L49.45 262.62L48.3 268.14L48.54 272.43C48.54 272.64 53.1 283.9 53.1 283.9C54.9652 288.173 55.7186 292.848 55.29 297.49L21.91 296.49C21.91 296.49 22.4 286.77 26.15 280.41C27.86 277.5 27.42 273.11 26.63 269.79C26.38 268.74 26.04 267 25.91 265.92V265.74L24.16 268.79L13.71 261.24C16.2505 256.4 19.2653 251.824 22.71 247.58C24.8844 245.756 27.622 244.739 30.46 244.7L43.46 244.81C44.1385 244.881 44.8084 245.018 45.46 245.22C47.05 245.33 49.87 246.68 52.98 249.66C55.6869 252.459 58.5766 255.074 61.63 257.49L52.95 266.29" fill="#455A64"/>
<path d="M31.28 245.12C31.3553 245.174 31.4256 245.234 31.49 245.3C31.6685 245.498 31.8323 245.708 31.98 245.93C32.5489 246.73 32.9128 247.657 33.04 248.63C33.1429 249.349 33.0821 250.083 32.8622 250.775C32.6423 251.468 32.269 252.102 31.77 252.63C31.1708 253.278 30.3841 253.722 29.52 253.9C28.61 254.08 27.69 253.9 26.81 254.05C26.3812 254.105 25.9761 254.278 25.64 254.55C25.3241 254.831 25.0659 255.171 24.88 255.55C24.5513 256.328 24.1773 257.086 23.76 257.82C23.5418 258.177 23.244 258.478 22.89 258.7C22.5471 258.899 22.1562 258.999 21.76 258.99C21.0747 258.953 20.4072 258.758 19.81 258.42C18.9416 257.968 18.1757 257.341 17.56 256.58C17.3965 256.38 17.2462 256.17 17.11 255.95C17.02 255.8 16.98 255.71 16.99 255.7C17 255.69 17.21 256.01 17.66 256.51C18.2941 257.218 19.0578 257.799 19.91 258.22C20.4774 258.526 21.1062 258.7 21.75 258.73C22.1019 258.734 22.4479 258.641 22.75 258.46C23.0564 258.254 23.3155 257.984 23.51 257.67C23.93 257.04 24.18 256.2 24.59 255.41C24.7969 254.99 25.082 254.613 25.43 254.3C25.8082 253.989 26.265 253.788 26.75 253.72C27.75 253.58 28.65 253.72 29.45 253.58C30.2474 253.418 30.9765 253.017 31.54 252.43C32.0613 251.896 32.4456 251.245 32.66 250.53C32.8422 249.914 32.9 249.268 32.83 248.63C32.7181 247.685 32.397 246.776 31.89 245.97C31.52 245.41 31.26 245.14 31.28 245.12Z" fill="#F5F5F5"/>
<path d="M32.41 259.65C32.5851 259.557 32.7818 259.513 32.98 259.52C33.5255 259.521 34.0558 259.7 34.49 260.03C34.7972 260.256 35.0472 260.551 35.22 260.89C35.4191 261.282 35.4957 261.725 35.44 262.16C35.3966 262.67 35.1963 263.153 34.8666 263.544C34.5368 263.935 34.094 264.213 33.5991 264.342C33.1043 264.47 32.5818 264.442 32.1037 264.261C31.6256 264.08 31.2155 263.755 30.93 263.33C30.668 262.972 30.5183 262.544 30.5 262.1C30.4892 261.718 30.568 261.337 30.73 260.99C30.9484 260.49 31.3288 260.078 31.81 259.82C31.9793 259.717 32.1719 259.659 32.37 259.65C32.37 259.65 32.18 259.74 31.88 259.94C31.457 260.219 31.129 260.62 30.94 261.09C30.795 261.426 30.74 261.793 30.7803 262.156C30.8206 262.519 30.955 262.865 31.17 263.16C31.4174 263.541 31.7774 263.835 32.1999 264.001C32.6225 264.168 33.0863 264.198 33.5268 264.088C33.9673 263.978 34.3624 263.733 34.657 263.387C34.9516 263.042 35.1309 262.613 35.17 262.16C35.2123 261.802 35.1608 261.438 35.0206 261.105C34.8804 260.772 34.6562 260.481 34.37 260.26C33.9763 259.94 33.4956 259.745 32.99 259.7C32.62 259.63 32.42 259.67 32.41 259.65Z" fill="#F5F5F5"/>
<path d="M55.9201 253.26C55.6692 253.433 55.4011 253.581 55.1201 253.7C54.3785 254.076 53.6056 254.387 52.8101 254.63C51.605 255.003 50.3151 255.003 49.1101 254.63C48.3879 254.4 47.7438 253.974 47.2501 253.4C46.7501 252.8 46.4401 252.06 45.9501 251.5C45.7257 251.216 45.4284 250.998 45.0901 250.87C44.7482 250.76 44.3865 250.726 44.0301 250.77C43.3095 250.913 42.5726 250.957 41.8401 250.9C41.2085 250.798 40.6143 250.533 40.1163 250.131C39.6183 249.73 39.2335 249.205 39.0001 248.61C38.7073 247.805 38.7073 246.924 39.0001 246.12C39.0765 245.899 39.1771 245.688 39.3001 245.49C39.3901 245.36 39.4401 245.3 39.4501 245.31C39.3221 245.584 39.2086 245.864 39.1101 246.15C38.8856 246.927 38.9243 247.757 39.2201 248.51C39.4519 249.054 39.8188 249.529 40.2861 249.892C40.7534 250.254 41.3055 250.491 41.8901 250.58C42.6003 250.63 43.314 250.579 44.0101 250.43C44.414 250.38 44.824 250.421 45.2101 250.55C45.605 250.705 45.9505 250.964 46.2101 251.3C46.7401 251.93 47.0401 252.68 47.4801 253.23C47.9349 253.759 48.5264 254.153 49.1901 254.37C50.3438 254.722 51.5764 254.722 52.7301 254.37C53.5212 254.15 54.2963 253.876 55.0501 253.55C55.3265 253.412 55.6142 253.298 55.9101 253.21L55.9201 253.26Z" fill="#F5F5F5"/>
<path d="M51.3301 278.83C51.3339 278.863 51.3339 278.897 51.3301 278.93L51.1701 279.18C50.9373 279.491 50.6612 279.767 50.3501 280C49.8544 280.372 49.2851 280.635 48.6801 280.77C47.8713 280.942 47.0298 280.872 46.2601 280.57C45.3219 280.205 44.5332 279.536 44.0201 278.67C43.565 277.676 42.8793 276.805 42.0201 276.13C41.4922 275.87 40.9243 275.701 40.3401 275.63C39.6833 275.545 39.0633 275.279 38.5501 274.86C38.0312 274.393 37.6684 273.778 37.511 273.099C37.3536 272.419 37.4091 271.707 37.6701 271.06C37.9791 270.425 38.4351 269.873 39.0001 269.45C39.5301 269.04 40.0901 268.69 40.5701 268.28C41.054 267.915 41.4278 267.424 41.6501 266.86C41.8064 266.3 41.8405 265.714 41.7501 265.14C41.6623 264.567 41.6089 263.989 41.5901 263.41C41.5856 262.837 41.7453 262.275 42.0501 261.79C42.3432 261.376 42.7216 261.03 43.1597 260.775C43.5979 260.519 44.0856 260.361 44.5901 260.31C45.4149 260.219 46.2479 260.379 46.9801 260.77C47.5278 261.05 48.0301 261.41 48.4701 261.84C48.7458 262.106 48.9999 262.394 49.2301 262.7C49.3172 262.806 49.3942 262.92 49.4601 263.04C49.1287 262.646 48.7677 262.278 48.3801 261.94C47.9364 261.539 47.4381 261.202 46.9001 260.94C46.1951 260.588 45.4019 260.453 44.6201 260.55C44.1525 260.602 43.7015 260.754 43.2977 260.995C42.894 261.237 42.5469 261.562 42.2801 261.95C42.0104 262.392 41.8749 262.902 41.8901 263.42C41.9144 263.989 41.9678 264.556 42.0501 265.12C42.1554 265.74 42.1212 266.375 41.9501 266.98C41.7136 267.602 41.3084 268.145 40.7801 268.55C40.2801 268.98 39.7201 269.32 39.2101 269.73C38.6775 270.101 38.2419 270.595 37.9401 271.17C37.7004 271.755 37.6477 272.399 37.7892 273.015C37.9306 273.631 38.2593 274.188 38.7301 274.61C39.6401 275.47 41.0401 275.24 42.1301 275.88C42.637 276.201 43.0616 276.636 43.3701 277.15C43.6701 277.63 43.9301 278.15 44.2001 278.55C44.6734 279.378 45.4086 280.025 46.2901 280.39C47.0173 280.691 47.8164 280.775 48.5901 280.63C49.179 280.517 49.7377 280.282 50.2301 279.94C50.6527 279.635 51.0327 279.275 51.3601 278.87L51.3301 278.83Z" fill="#F5F5F5"/>
<path d="M36.33 286.5C36.4964 286.324 36.6136 286.106 36.67 285.87C36.6951 285.53 36.6424 285.188 36.5159 284.871C36.3894 284.554 36.1925 284.27 35.94 284.04C35.5916 283.683 35.2893 283.283 35.04 282.85C34.7863 282.318 34.6825 281.727 34.74 281.14C34.8 279.92 35.37 278.69 35.23 277.37C35.2162 277.06 35.1358 276.757 34.9943 276.481C34.8528 276.205 34.6535 275.962 34.41 275.77C33.9144 275.451 33.3276 275.303 32.74 275.35C31.6 275.41 30.57 275.83 29.65 275.84C29.2889 275.866 28.9264 275.82 28.5832 275.705C28.24 275.59 27.9228 275.408 27.65 275.17C27.5063 275.034 27.3907 274.871 27.31 274.69C27.25 274.56 27.24 274.49 27.25 274.49C27.3891 274.703 27.5536 274.898 27.74 275.07C28.2824 275.483 28.9622 275.673 29.64 275.6C30.51 275.6 31.5 275.12 32.73 275.04C33.3969 274.977 34.0658 275.139 34.63 275.5C34.9185 275.715 35.1573 275.99 35.3299 276.306C35.5025 276.622 35.6048 276.971 35.63 277.33C35.76 278.77 35.18 280.01 35.12 281.13C35.0575 281.666 35.1404 282.208 35.36 282.7C35.5905 283.118 35.8691 283.507 36.19 283.86C36.4668 284.173 36.6807 284.536 36.82 284.93C36.917 285.234 36.9342 285.558 36.87 285.87C36.8395 286.012 36.7742 286.144 36.6799 286.254C36.5856 286.364 36.4653 286.449 36.33 286.5Z" fill="#F5F5F5"/>
<path d="M23.08 289.62C22.45 290.62 -2.47998 384.46 -2.47998 384.46L6.32002 387.24L39.92 298L23.08 289.62Z" fill="#FFBE9D"/>
<path d="M38.26 297.13L56.77 386.46L66.95 386.87L55.27 292.4L38.26 297.13Z" fill="#FFBE9D"/>
<path d="M23.5501 286.29L5.1001 352.16L18.7201 357.8L38.2801 302.42L50.1101 360L64.3901 357.19L54.6601 287.3L53.3301 287.12C52.5222 287.018 51.7025 287.062 50.9101 287.25L50.0201 287.47C49.0114 287.714 47.9588 287.714 46.9501 287.47L46.3201 287.32C45.3783 287.11 44.4019 287.11 43.4601 287.32L41.8801 287.64C40.7183 287.884 39.512 287.808 38.3901 287.42L36.8201 286.88C35.7569 286.513 34.6176 286.423 33.5101 286.62L32.0201 286.89C31.1943 287.049 30.3459 287.049 29.5201 286.89L27.0001 286.32C25.957 286.101 24.8829 286.074 23.8301 286.24L23.5501 286.29Z" fill="#263238"/>
<path d="M48.4301 298.82C48.1595 298.928 47.8778 299.005 47.5901 299.05C47.0401 299.18 46.2501 299.34 45.2801 299.54C43.2801 299.93 40.6101 300.41 37.5901 300.84C34.5701 301.27 31.8301 301.58 29.8401 301.75C28.8401 301.84 28.0401 301.9 27.4801 301.93C27.191 301.962 26.8992 301.962 26.6101 301.93C26.8922 301.859 27.1799 301.812 27.4701 301.79L29.8201 301.51C31.8201 301.27 34.5401 300.94 37.5501 300.51C40.5601 300.08 43.2501 299.63 45.2401 299.3L47.5701 298.91C47.8536 298.855 48.1413 298.825 48.4301 298.82Z" fill="#455A64"/>
<path d="M67.56 386.85V385.78L56.78 386.09L56.87 389.59H57.54C60.54 389.66 72.59 389.77 74.54 389.16C76.71 388.51 67.56 386.85 67.56 386.85Z" fill="#FF725E"/>
<g opacity="0.6">
<path opacity="0.6" d="M60.73 389.42C60.5403 388.565 60.028 387.817 59.3 387.33C58.5546 386.826 57.6546 386.603 56.76 386.7L56.84 389.48L60.73 389.42Z" fill="white"/>
</g>
<g opacity="0.6">
<path opacity="0.6" d="M72.0001 387.81C72.0001 387.81 75.2101 388.58 74.8301 389.08C74.4501 389.58 62.2201 389.9 56.8301 389.6V389.38L71.0901 389.12C71.0901 389.12 71.4101 387.85 72.0001 387.81Z" fill="white"/>
</g>
<path d="M56.7 389.37H59.36C61.01 389.37 63.28 389.37 65.79 389.31C68.3 389.25 70.58 389.14 72.22 389.04L74.16 388.91H74.69H74.16L72.2099 389C70.5699 389.07 68.3 389.17 65.79 389.23C63.28 389.29 61.01 389.32 59.36 389.33H56.8899L56.7 389.37Z" fill="#263238"/>
<path d="M71.13 389.25C71.208 388.947 71.3221 388.655 71.47 388.38C71.6487 388.117 71.8605 387.879 72.1 387.67C71.7804 387.779 71.5131 388.004 71.35 388.3C71.1558 388.572 71.0767 388.91 71.13 389.24V389.25Z" fill="#263238"/>
<path d="M67.9301 387.86C68.0522 387.744 68.1596 387.613 68.2501 387.47C68.4001 387.24 68.5001 387.03 68.4701 387.01C68.4401 386.99 68.2901 387.17 68.1401 387.4C67.9901 387.63 67.9001 387.85 67.9301 387.86Z" fill="#263238"/>
<path d="M67 387.46C67.1337 387.393 67.2581 387.309 67.37 387.21C67.55 387.05 67.67 386.91 67.66 386.88C67.65 386.85 67.46 386.96 67.29 387.13C67.12 387.3 67 387.43 67 387.46Z" fill="#263238"/>
<path d="M66.47 386.53C66.6511 386.586 66.8419 386.603 67.03 386.58C67.2195 386.595 67.41 386.571 67.59 386.51C67.4089 386.454 67.2181 386.437 67.03 386.46C66.8405 386.445 66.6499 386.469 66.47 386.53Z" fill="#263238"/>
<path d="M66.26 385.87C66.6594 386.055 67.115 386.076 67.53 385.93C67.3204 385.911 67.1096 385.911 66.9 385.93C66.6918 385.894 66.4812 385.874 66.27 385.87H66.26Z" fill="#263238"/>
<path d="M68.26 387C68.4851 387.037 68.7149 387.037 68.94 387C69.188 386.965 69.4323 386.908 69.67 386.83C69.8115 386.785 69.9487 386.729 70.08 386.66C70.1182 386.64 70.1522 386.613 70.18 386.58C70.2083 386.544 70.2287 386.503 70.24 386.46C70.2533 386.414 70.2533 386.365 70.24 386.32C70.2213 386.275 70.19 386.237 70.15 386.21C69.8859 386.093 69.5907 386.068 69.3105 386.136C69.0302 386.205 68.7804 386.364 68.6 386.59C68.4983 386.719 68.4265 386.869 68.39 387.03C68.3752 387.085 68.3752 387.144 68.39 387.2C68.4553 386.999 68.557 386.813 68.69 386.65C68.8419 386.471 69.044 386.342 69.27 386.28C69.5339 386.178 69.8261 386.178 70.09 386.28C70.2 386.35 70.17 386.47 70.09 386.54C69.9696 386.607 69.8422 386.66 69.71 386.7C69.4813 386.779 69.2474 386.842 69.01 386.89C68.52 387 68.26 387 68.26 387Z" fill="#263238"/>
<path d="M68.44 387C68.4795 386.935 68.5052 386.862 68.5155 386.786C68.5258 386.711 68.5205 386.634 68.5 386.56C68.4735 386.392 68.4047 386.234 68.3 386.1C68.2374 386.004 68.1514 385.925 68.05 385.87C67.9485 385.816 67.835 385.789 67.72 385.79H67.63L67.56 385.86C67.535 385.921 67.535 385.989 67.56 386.05C67.5749 386.155 67.6162 386.255 67.68 386.34C67.7773 386.48 67.8915 386.608 68.02 386.72C68.1343 386.835 68.2751 386.921 68.43 386.97C68.43 386.97 68.29 386.86 68.09 386.66C67.9766 386.548 67.8759 386.424 67.79 386.29C67.69 386.16 67.63 385.92 67.79 385.88C67.95 385.84 68.14 386.01 68.25 386.13C68.3492 386.25 68.4209 386.39 68.46 386.54C68.4742 386.683 68.4742 386.827 68.46 386.97L68.44 387Z" fill="#263238"/>
<path d="M56.8301 386.64C57.093 386.62 57.3571 386.62 57.6201 386.64C58.2448 386.696 58.8442 386.913 59.3601 387.27C59.8558 387.619 60.2438 388.101 60.4801 388.66C60.6601 389.09 60.6801 389.37 60.7101 389.37C60.7195 389.303 60.7195 389.236 60.7101 389.17C60.6829 388.99 60.6394 388.812 60.5801 388.64C60.3599 388.05 59.9658 387.541 59.4501 387.18C58.9161 386.812 58.2882 386.604 57.6401 386.58C57.4441 386.557 57.2461 386.557 57.0501 386.58C56.9771 386.569 56.903 386.569 56.8301 386.58V386.64Z" fill="#263238"/>
<path d="M62.05 388.41C63.0895 388.563 64.1472 388.543 65.18 388.35C64.6571 388.321 64.133 388.321 63.6101 388.35C62.7501 388.43 62.06 388.37 62.05 388.41Z" fill="#263238"/>
<path d="M60 388.46C60 388.46 60.06 388.6 60.14 388.75C60.22 388.9 60.26 389.03 60.29 389.02C60.32 389.01 60.34 388.86 60.29 388.7C60.24 388.54 60 388.43 60 388.46Z" fill="#263238"/>
<path d="M59.1399 387.57C59.1767 387.656 59.2312 387.735 59.2999 387.799C59.4099 387.899 59.5199 387.97 59.5499 387.94C59.5799 387.91 59.5499 387.809 59.3899 387.709C59.2299 387.609 59.1599 387.54 59.1399 387.57Z" fill="#263238"/>
<path d="M58 387.18C58.1044 387.186 58.2064 387.213 58.3 387.26C58.46 387.34 58.58 387.38 58.6 387.36C58.62 387.34 58.54 387.2 58.33 387.14C58.12 387.08 58 387.15 58 387.18Z" fill="#263238"/>
<path d="M57.1799 387C57.1799 387 57.2299 387.08 57.3199 387.11C57.3788 387.126 57.441 387.126 57.4999 387.11C57.4999 387.11 57.4499 387.03 57.3599 387C57.2699 386.97 57.1899 387 57.1799 387Z" fill="#263238"/>
<path d="M-2.41 382.53L-4 389.53H6.76L7.22 385L-2.41 382.53Z" fill="#FF725E"/>
<path d="M7.00002 388.51C6.48211 388.603 5.95545 388.636 5.43002 388.61C4.43002 388.61 3.12002 388.61 1.63002 388.55L-2.16998 388.38C-2.69344 388.388 -3.2163 388.341 -3.72998 388.24C-3.21187 388.15 -2.6854 388.116 -2.15998 388.14C-1.15998 388.14 0.150019 388.14 1.64002 388.21L5.41002 388.38C5.9463 388.372 6.48214 388.415 7.01002 388.51H7.00002Z" fill="#263238"/>
<path d="M2.42008 383.89C2.52689 384.643 2.52689 385.407 2.42008 386.16C2.41784 386.921 2.31015 387.678 2.10008 388.41C1.98552 387.657 1.98552 386.892 2.10008 386.14C2.09472 385.378 2.20256 384.62 2.42008 383.89Z" fill="#263238"/>
<path opacity="0.6" d="M-4 389.53H6.76L6.86 388.53L-3.8 388.27L-4 389.43" fill="white"/>
<path d="M73.3 188C70.7881 187.993 68.2897 188.368 65.89 189.11L60.11 182.54C63.7734 178.485 65.8165 173.224 65.85 167.76C65.85 154.44 53.57 143.63 38.42 143.63C23.27 143.63 11 154.47 11 167.8C11 181.13 23.28 191.93 38.44 191.93C45.1325 191.982 51.6444 189.761 56.91 185.63L62.26 190.63C57.03 193.34 53.59 197.94 53.59 203.15C53.59 209.8 59.2 215.44 66.98 217.47L63.84 226.47L71.76 218.24C72.27 218.24 72.76 218.29 73.31 218.29C84.19 218.29 93.01 211.53 93.01 203.19C93.01 194.85 84.18 188 73.3 188Z" fill="#263238" stroke="#263238" stroke-width="0.62" stroke-miterlimit="10"/>
<path d="M71.29 186.37C68.7848 186.365 66.2933 186.739 63.9 187.48L58.12 180.91C61.7886 176.858 63.8357 171.596 63.87 166.13C63.87 152.8 51.58 142 36.43 142C21.28 142 9 152.8 9 166.13C9 179.46 21.28 190.26 36.43 190.26C43.1181 190.326 49.6303 188.119 54.9 184L60.26 189C55.03 191.72 51.59 196.31 51.59 201.52C51.59 208.17 57.2 213.81 64.98 215.84L61.84 224.84L69.75 216.63C70.26 216.63 70.75 216.68 71.3 216.68C82.18 216.68 91 209.92 91 201.57C91 193.22 82.17 186.37 71.29 186.37Z" fill="white" stroke="#263238" stroke-width="0.62" stroke-miterlimit="10"/>
<path d="M65.06 202.22C65.0621 201.813 64.9229 201.417 64.666 201.101C64.4092 200.785 64.0507 200.568 63.6516 200.487C63.2525 200.405 62.8376 200.465 62.4775 200.655C62.1174 200.846 61.8345 201.155 61.677 201.531C61.5195 201.906 61.4971 202.325 61.6137 202.715C61.7303 203.105 61.9786 203.443 62.3164 203.671C62.6541 203.898 63.0604 204.002 63.4659 203.963C63.8713 203.925 64.251 203.747 64.54 203.46C64.8706 203.132 65.0576 202.686 65.06 202.22Z" fill="#3A6951"/>
<path d="M73.5 202.22C73.502 201.813 73.3628 201.417 73.106 201.101C72.8491 200.785 72.4906 200.568 72.0915 200.487C71.6925 200.405 71.2775 200.465 70.9174 200.655C70.5573 200.846 70.2744 201.155 70.1169 201.531C69.9594 201.906 69.937 202.325 70.0536 202.715C70.1702 203.105 70.4186 203.443 70.7563 203.671C71.0941 203.898 71.5003 204.002 71.9058 203.963C72.3113 203.925 72.6909 203.747 72.98 203.46C73.3106 203.132 73.4976 202.686 73.5 202.22Z" fill="#3A6951"/>
<path d="M81.9499 202.22C81.952 201.813 81.8128 201.417 81.5559 201.101C81.2991 200.785 80.9406 200.568 80.5415 200.487C80.1424 200.405 79.7275 200.465 79.3674 200.655C79.0073 200.846 78.7244 201.155 78.5669 201.531C78.4094 201.906 78.387 202.325 78.5036 202.715C78.6202 203.105 78.8685 203.443 79.2063 203.671C79.544 203.898 79.9503 204.002 80.3558 203.963C80.7612 203.925 81.1409 203.747 81.4299 203.46C81.7605 203.132 81.9475 202.686 81.9499 202.22Z" fill="#3A6951"/>
<path opacity="0.8" d="M27.31 164.81C27.25 163.696 27.21 163.03 27.19 162.81H26.64C26.5632 162.813 26.4867 162.797 26.4183 162.762C26.3499 162.727 26.2919 162.674 26.25 162.61C26.1507 162.451 26.098 162.267 26.098 162.08C26.098 161.892 26.1507 161.709 26.25 161.55C26.2919 161.485 26.3499 161.433 26.4183 161.398C26.4867 161.363 26.5632 161.346 26.64 161.35L28.15 161.42C28.6415 161.426 29.1322 161.459 29.62 161.52C29.9333 161.593 30.09 161.763 30.09 162.03C30.09 162.296 29.9367 162.466 29.63 162.54C29.3753 162.587 29.1183 162.62 28.86 162.64C28.8133 163.113 28.77 163.836 28.73 164.81C28.9315 164.818 29.132 164.841 29.33 164.88C29.4152 164.894 29.4968 164.924 29.57 164.97L29.18 164.21C29.1466 164.152 29.1291 164.086 29.1291 164.02C29.1291 163.953 29.1466 163.888 29.18 163.83C29.2736 163.669 29.4231 163.548 29.6 163.49C29.7673 163.425 29.9527 163.425 30.12 163.49C30.1829 163.51 30.2392 163.546 30.2831 163.596C30.3271 163.645 30.3571 163.705 30.37 163.77C30.37 163.77 30.45 164.03 30.61 164.61C30.79 162.85 30.8833 161.803 30.89 161.47C30.8899 161.357 30.915 161.245 30.9634 161.143C31.0118 161.041 31.0824 160.951 31.17 160.88C31.2646 160.8 31.3752 160.742 31.4943 160.71C31.6134 160.677 31.7381 160.67 31.86 160.69C31.9646 160.683 32.0694 160.699 32.1669 160.738C32.2644 160.777 32.3522 160.836 32.4239 160.913C32.4956 160.989 32.5495 161.081 32.5816 161.18C32.6138 161.28 32.6235 161.386 32.61 161.49C32.6559 161.437 32.713 161.396 32.777 161.368C32.841 161.34 32.9103 161.327 32.98 161.33C34.8333 161.403 35.8533 161.46 36.04 161.5C36.36 161.573 36.52 161.746 36.52 162.02C36.52 162.29 36.37 162.46 36.04 162.54C35.7686 162.587 35.4949 162.621 35.22 162.64L35.09 165.05C35.55 165.05 35.84 165.076 35.96 165.13C36.2733 165.203 36.43 165.37 36.43 165.63C36.43 165.89 36.28 166.06 35.97 166.14C35.66 166.22 35.45 166.21 35.02 166.25C34.9467 167.843 34.8933 168.843 34.86 169.25C35.2813 169.257 35.7019 169.287 36.12 169.34C36.4933 169.4 36.68 169.57 36.68 169.85C36.68 170.13 36.4967 170.31 36.13 170.39C35.89 170.436 35.2567 170.493 34.23 170.56L32.29 170.69C32.2071 170.697 32.1239 170.682 32.0486 170.647C31.9732 170.612 31.9082 170.557 31.86 170.49C31.7375 170.325 31.6741 170.125 31.68 169.92C31.6659 169.719 31.7264 169.519 31.85 169.36C31.8977 169.291 31.9623 169.235 32.0376 169.199C32.1129 169.162 32.1963 169.145 32.28 169.15L33.81 169.2C33.81 168.693 33.7633 167.74 33.67 166.34L32.92 166.4C32.8437 166.408 32.7667 166.394 32.6978 166.361C32.6289 166.327 32.5707 166.275 32.53 166.21C32.426 166.056 32.3703 165.875 32.37 165.69C32.3649 165.5 32.421 165.315 32.53 165.16C32.5707 165.097 32.6274 165.047 32.6942 165.013C32.761 164.98 32.8355 164.965 32.91 164.97H33.6C33.5533 163.99 33.51 163.253 33.47 162.76H33C32.7467 162.76 32.5767 162.613 32.49 162.32L31.69 166.79C31.3167 168.856 31.1 170.066 31.04 170.42C30.9467 170.986 30.7533 171.253 30.46 171.22C30.1667 171.186 30.0367 170.886 30.07 170.32C30.07 170.006 30.21 168.5 30.49 165.8C30.4041 165.825 30.3126 165.825 30.2271 165.798C30.1416 165.771 30.066 165.72 30.01 165.65C29.9228 165.542 29.8489 165.425 29.79 165.3C29.79 165.566 29.64 165.736 29.34 165.81C29.1154 165.856 28.8884 165.889 28.66 165.91C28.6067 166.943 28.5667 167.69 28.54 168.15C28.8733 168.076 29.1467 168.023 29.36 167.99C29.7667 167.923 30.0067 168.03 30.08 168.31C30.16 168.6 30.01 168.83 29.61 169L26.96 170C26.8717 170.045 26.774 170.068 26.675 170.068C26.576 170.068 26.4783 170.045 26.39 170C26.2923 169.941 26.2079 169.863 26.1425 169.77C26.077 169.677 26.0319 169.571 26.01 169.46C25.9747 169.352 25.9636 169.238 25.9774 169.126C25.9913 169.013 26.0297 168.906 26.09 168.81C26.1411 168.726 26.2111 168.655 26.2944 168.603C26.3778 168.551 26.4721 168.519 26.57 168.51L27.51 168.32L27.38 165.97L26.68 166.03C26.6032 166.033 26.5267 166.017 26.4583 165.982C26.3899 165.947 26.3319 165.894 26.29 165.83C26.186 165.676 26.1303 165.495 26.13 165.31C26.1227 165.117 26.1789 164.927 26.29 164.77C26.3307 164.707 26.3874 164.657 26.4542 164.623C26.521 164.59 26.5955 164.575 26.67 164.58L27.31 164.81ZM41.42 164.16C41.2533 163.94 41.3233 163.686 41.63 163.4C42.1073 163.02 42.6047 162.666 43.12 162.34C43.9733 161.76 44.48 161.4 44.64 161.26C44.7118 161.198 44.7977 161.155 44.8901 161.134C44.9825 161.113 45.0786 161.115 45.17 161.14C45.3804 161.189 45.5655 161.313 45.69 161.49C45.8206 161.661 45.8814 161.875 45.86 162.09C45.8528 162.185 45.8215 162.278 45.769 162.358C45.7166 162.439 45.6447 162.505 45.56 162.55L43.89 163.4C42.9967 163.86 42.4433 164.14 42.23 164.24C41.8433 164.42 41.5733 164.396 41.42 164.17V164.16ZM40.18 160.75C40.3133 160.748 40.4456 160.772 40.5693 160.822C40.6929 160.872 40.8054 160.946 40.9 161.04C40.9958 161.13 41.0706 161.241 41.119 161.364C41.1674 161.486 41.1882 161.618 41.18 161.75C41.18 162.03 41.12 163.03 41 164.75L46.39 164.93C46.9833 164.97 47.2833 165.133 47.29 165.42C47.2967 165.706 47.0033 165.896 46.41 165.99C46.0033 166.036 45.0833 166.096 43.65 166.17L45.45 168.07C46.3567 169.03 46.9 169.613 47.08 169.82C47.4067 170.2 47.4633 170.503 47.25 170.73C47.0367 170.956 46.7033 170.92 46.25 170.62C46.4233 170.753 45.09 169.636 42.25 167.27C42.0964 167.159 41.9911 166.994 41.9558 166.808C41.9204 166.622 41.9577 166.429 42.06 166.27L40.83 166.34C40.7767 167.48 40.72 168.45 40.66 169.25L42.4 168.73C42.84 168.623 43.1067 168.713 43.2 169C43.2933 169.286 43.1367 169.536 42.73 169.75L41.23 170.5L39.69 171.25C39.5962 171.294 39.4938 171.317 39.39 171.317C39.2862 171.317 39.1838 171.294 39.09 171.25C38.885 171.139 38.7303 170.954 38.6578 170.733C38.5852 170.511 38.6003 170.27 38.7 170.06C38.7494 169.969 38.8179 169.89 38.9007 169.827C38.9835 169.765 39.0788 169.722 39.18 169.7L39.49 169.62C39.4855 169.556 39.4855 169.493 39.49 169.43C39.45 168.93 39.39 167.93 39.31 166.43L38.11 166.52C37.9919 166.529 37.8733 166.511 37.7638 166.465C37.6543 166.42 37.557 166.35 37.48 166.26C37.3013 166.074 37.201 165.827 37.2 165.57C37.1929 165.448 37.2105 165.325 37.2518 165.21C37.293 165.095 37.357 164.99 37.44 164.9C37.5185 164.812 37.616 164.742 37.7251 164.697C37.8342 164.652 37.9522 164.633 38.07 164.64H39.22C39.14 163.186 39.08 162.216 39.04 161.73C39.0281 161.598 39.0472 161.465 39.0958 161.342C39.1444 161.218 39.2212 161.108 39.32 161.02C39.4146 160.926 39.5271 160.852 39.6507 160.802C39.7744 160.752 39.9067 160.728 40.04 160.73L40.18 160.75Z" fill="#094325"/>
<path d="M85.3901 381.73C91.2901 385.86 89.5401 436.26 82.0501 448.73C74.3201 450.3 60.8401 449 55.5401 452.11C63.7201 453.65 80.0701 458.5 80.0701 458.5L69.7001 485.55L41.0001 482.94L65.0001 494.67L50.4901 517.33L24.0001 511.61L42.7901 524.67L20.9001 545.57L-7.82988 537L11.1701 549.17L-2.50987 560.71L-25.7099 557.87L-15.3199 566.73C-15.3199 566.73 -30.9999 578.51 -41.8399 578.09C-52.6799 577.67 -62.3899 577.68 -65.4799 575.03C-68.5699 572.38 -70.7999 550.4 -68.8099 541.3C-66.8199 532.2 -64.8099 525.55 -64.8099 525.55L-59.9499 531.55L-60.1799 512.24L-48.7499 496L-46.4999 511.31L-42.9799 487.31L-24.2099 472.63L-19.5699 495.94L-16.7199 464.42L0.0801239 448.86L6.08012 471.71L7.61012 439.29L27.0401 423.29L31.0401 444.15L33.4501 416.4L52.4501 404.82L54.6701 420.57L61.9501 397.92C61.9501 397.92 74.9501 389.61 80.7301 381.76C82.9301 378.27 85.4301 381.76 85.4301 381.76L85.3901 381.73Z" fill="#00737F"/>
<path d="M85.3899 689.48C95.8099 690.12 135.91 662.38 138.92 670.01C141.93 677.64 135.02 697.89 121.27 704.5C107.52 711.11 85.7999 708.3 78.2699 712.3C70.7399 716.3 68.8399 721.6 69.1999 723.44C69.5599 725.28 117.2 720.77 123.48 730.86C129.76 740.95 120.27 751.32 106.48 755.48C92.6899 759.64 65.9999 739.31 58.2999 740.21C50.5999 741.11 46.2999 747.39 48.6899 748.85C51.0799 750.31 80.2099 759.73 88.4199 767C96.6299 774.27 97.5099 783.18 80.8599 781.78C64.2099 780.38 45.1199 762 39.4499 763.68C33.7799 765.36 35.1999 768.62 37.8499 770.53C40.4999 772.44 59.6299 782.68 65.6099 787.73C71.59 792.78 58.6099 798.29 53.9399 798.89C49.27 799.49 36.3899 793.15 33.1599 790.34C29.9299 787.53 28.8099 780.61 25.4099 780.13C22.0099 779.65 20.0899 789 18.4099 789.83C16.7299 790.66 8.40995 786.07 8.17995 783.49C7.94995 780.91 13.9999 777.1 13.3999 773.21C12.7999 769.32 5.94995 771.57 0.709949 765.08C-4.53005 758.59 -13.1001 737.85 -10.0001 730.83C-6.90005 723.81 12.7499 752.24 19.5499 756.18C24.6899 758.29 28.4499 756.02 26.4399 752.34C24.43 748.66 -12.0001 713.92 -11.0001 703.76C-10.0001 693.6 -8.21005 696.29 -3.29005 699.34C1.62995 702.39 23.9999 732.73 29.4799 729.63C34.9599 726.53 -0.0600519 687.54 1.18995 674C2.43995 660.46 7.77995 646.44 14.3299 648.34C20.8799 650.24 28.6899 693.75 38.4799 697.93C48.2699 702.11 40.8799 693.74 39.6799 685.93C38.4799 678.12 26.4799 645.85 29.7599 638.93C33.0399 632.01 34.7599 624.16 42.4299 627.85C50.0999 631.54 53.4299 670.65 58.6499 670.63C63.8699 670.61 56.5 648.49 61.06 634C65.6199 619.51 79.64 610.36 83.16 613.62C86.6799 616.88 86.4799 616.76 84.5899 620.46C82.6999 624.16 74.4299 635.25 73.2199 643.7C72.0099 652.15 69.5799 657.4 72.2199 657.38C74.8599 657.36 78.7099 649.77 80.5699 643.09C82.4299 636.41 85.5699 621.6 89.5699 618.92C93.5699 616.24 105.15 603.69 118.11 616.86C131.07 630.03 122.84 643.59 116.62 652.18C110.4 660.77 102.69 665.72 94.7199 672.68C86.7499 679.64 80.7899 689.19 85.4399 689.48H85.3899Z" fill="#00737F"/>
<path d="M417.44 847C419.69 850.26 417.87 838.86 420.5 830.62C423.13 822.38 427.08 816.97 427.07 803.62C427.06 790.27 415.61 767.3 410.33 752.23C405.05 737.16 406.33 728.5 394.47 708.45C382.61 688.4 367.61 667.04 352.24 659.55C336.87 652.06 333.76 633.55 315.24 625.73C296.72 617.91 258.99 632.38 243.59 621.55C274.82 655.14 279.25 689.84 294.21 714.55C309.17 739.26 314.44 729.95 330.28 750.32C346.12 770.69 338.28 772.9 353.61 796.18C371.48 823.08 399.83 821.42 417.44 847Z" fill="#1E724E"/>
<path d="M273.27 721.32C271.02 719.65 274.76 702.32 271.15 694.58C267.54 686.84 266.53 698.65 262.72 695.83C258.91 693.01 258.72 674.91 248.19 664.17C245.83 661.75 243.65 663.61 243.77 666.51C243.89 669.41 245.28 672.59 242.04 673.51C238.8 674.43 236.82 663.22 230.82 657.96C224.82 652.7 221.48 653.04 219.92 654.96C218.36 656.88 222.14 659.55 219.18 660.29C216.22 661.03 213.02 655.05 208.4 651.89C203.78 648.73 200 646.06 197.95 647.75C195.9 649.44 199.56 651.35 196.58 653.02C193.6 654.69 188.19 645.19 182.46 641.74C176.73 638.29 180.46 645.1 177.22 646.82C173.98 648.54 169.83 643.61 165.67 643.61C161.51 643.61 162.46 646.85 157.67 648.94C152.88 651.03 145.44 647.37 143.24 649.08C141.04 650.79 145.24 653.4 145.9 661.91C146.56 670.42 142.9 674.81 144.64 680.39C146.38 685.97 156.83 692.92 155.9 696C154.97 699.08 146.15 693.14 146.96 696.71C148.165 701.302 150.64 705.46 154.1 708.71C157.62 711.71 164.23 713.81 164.44 716.25C164.65 718.69 155.6 716.79 155.79 719.07C156.03 722.72 169.48 729.5 170.71 733.62C171.94 737.74 160.46 737.11 163 740C165.54 742.89 177.26 745 179.37 748.79C181.48 752.58 168.92 748.79 170.46 753.03C172 757.27 176.07 759.73 181.05 762.22C186.03 764.71 191.87 764.62 192.05 768.22C192.23 771.82 178.9 770.78 181.39 774.1C183.88 777.42 199.75 776.61 201.89 779.67C204.03 782.73 193.13 781.74 197.71 785.67C202.29 789.6 219.04 789.58 220.62 793.96C222.2 798.34 205.52 792.66 210.47 799.15C215.42 805.64 236.37 808.99 243.25 807.66C259.8 805.22 275.39 787.99 279.64 778.29C283.89 768.59 283.48 767.88 282.99 764.58C282.5 761.28 274.91 769.16 277.99 761.02C281.07 752.88 285.99 751.54 285.84 744.48C285.69 737.42 280.7 748.16 281.95 739.98C283.2 731.8 286.11 721.31 282.19 717.55C276.06 711.65 276.3 723.61 273.19 721.3L273.27 721.32Z" fill="#E2A14B"/>
<path d="M260.7 763.4C243.11 740.29 199.61 688.18 166.32 664.58" stroke="white" stroke-width="1.72"/>
<path d="M237 734.58L203.22 743.78M245.53 743.26L253.32 706.94L245.53 743.26ZM232.77 728.81L229.42 694.28L232.77 728.81ZM197.36 690.83L207.48 668.83L197.36 690.83ZM183.94 679.38L170.16 682.38L183.94 679.38ZM214.38 709.62L179.38 709.01L214.38 709.62Z" stroke="white" stroke-width="1.72"/>
<path d="M361.46 293.72H305.74C304.978 293.721 304.224 293.872 303.521 294.165C302.818 294.458 302.179 294.886 301.642 295.426C301.104 295.965 300.678 296.605 300.388 297.309C300.097 298.014 299.949 298.768 299.95 299.53V332.73C299.95 333.491 300.1 334.246 300.391 334.949C300.683 335.653 301.11 336.292 301.649 336.831C302.187 337.37 302.827 337.797 303.53 338.088C304.234 338.38 304.988 338.53 305.75 338.53H334.83L342.14 352.6L343.47 338.53H361.47C362.232 338.53 362.986 338.38 363.69 338.088C364.393 337.797 365.033 337.37 365.571 336.831C366.11 336.292 366.537 335.653 366.828 334.949C367.12 334.246 367.27 333.491 367.27 332.73V299.53C367.271 298.767 367.122 298.012 366.831 297.307C366.54 296.602 366.113 295.962 365.575 295.422C365.036 294.882 364.396 294.454 363.692 294.162C362.987 293.87 362.232 293.72 361.47 293.72H361.46Z" fill="#263238" stroke="#263238" stroke-width="0.56" stroke-linecap="round" stroke-linejoin="round"/>
<path d="M359.52 291H303.8C303.038 291 302.284 291.15 301.58 291.441C300.877 291.733 300.237 292.16 299.699 292.699C299.16 293.237 298.733 293.877 298.441 294.58C298.15 295.284 298 296.038 298 296.8V330C298 330.762 298.15 331.516 298.441 332.22C298.733 332.923 299.16 333.563 299.699 334.101C300.237 334.64 300.877 335.067 301.58 335.358C302.284 335.65 303.038 335.8 303.8 335.8H332.88L340.19 349.87L341.52 335.8H359.52C361.058 335.8 362.534 335.189 363.621 334.101C364.709 333.014 365.32 331.538 365.32 330V296.8C365.32 295.262 364.709 293.787 363.621 292.699C362.534 291.611 361.058 291 359.52 291Z" fill="white" stroke="#263238" stroke-width="0.56" stroke-miterlimit="10"/>
<path opacity="0.8" d="M316.11 310C316.218 309.896 316.347 309.818 316.489 309.772C316.631 309.725 316.782 309.71 316.93 309.73C317.174 309.713 317.417 309.769 317.63 309.89C317.7 309.924 317.755 309.982 317.786 310.054C317.817 310.125 317.822 310.205 317.8 310.28C317.8 310.433 317.757 310.833 317.67 311.48C317.583 312.126 317.54 312.52 317.54 312.66C317.5 312.787 317.42 312.898 317.312 312.978C317.204 313.057 317.074 313.099 316.94 313.1C316.809 313.098 316.682 313.055 316.577 312.976C316.473 312.896 316.396 312.786 316.36 312.66C316.36 312.66 316.29 312.11 316.19 311.14C315.663 311.186 314.26 311.263 311.98 311.37L308.09 311.57C308.043 312.096 308.003 312.483 307.97 312.73C307.939 312.858 307.866 312.973 307.763 313.057C307.66 313.14 307.532 313.187 307.4 313.19C307.16 313.19 306.973 313.036 306.84 312.73C306.84 312.643 306.797 312.21 306.71 311.43C306.683 310.98 306.63 310.533 306.55 310.09C306.527 310.014 306.532 309.932 306.563 309.859C306.594 309.786 306.649 309.726 306.72 309.69C306.927 309.574 307.163 309.518 307.4 309.53C307.656 309.508 307.912 309.579 308.12 309.73H308.84L308.33 309.01C308.283 308.927 308.258 308.834 308.258 308.74C308.258 308.645 308.283 308.552 308.33 308.47C308.46 308.232 308.661 308.04 308.904 307.92C309.148 307.8 309.422 307.758 309.69 307.8C309.783 307.818 309.869 307.862 309.939 307.925C310.009 307.988 310.061 308.069 310.09 308.16C310.403 309.28 310.56 309.82 310.56 309.78H311.86L311.27 308.47C311.224 308.387 311.199 308.294 311.199 308.2C311.199 308.105 311.224 308.012 311.27 307.93C311.423 307.708 311.65 307.549 311.91 307.48C312.153 307.399 312.417 307.399 312.66 307.48C312.746 307.512 312.823 307.568 312.881 307.64C312.939 307.712 312.976 307.798 312.99 307.89C313.102 308.494 313.165 309.105 313.18 309.72V309.81H314.05V309.65C314.176 309.338 314.319 309.034 314.48 308.74C314.74 308.233 314.89 307.92 314.93 307.8C314.962 307.717 315.019 307.646 315.092 307.596C315.165 307.546 315.251 307.52 315.34 307.52C315.581 307.51 315.819 307.576 316.02 307.71C316.224 307.832 316.382 308.019 316.47 308.24C316.509 308.323 316.523 308.416 316.508 308.507C316.494 308.598 316.453 308.682 316.39 308.75L315.99 309.22C315.73 309.54 315.557 309.75 315.47 309.85L316.11 310ZM312.39 314.22L313.03 313.62C310.597 313.753 309.313 313.83 309.18 313.85C309.082 313.858 308.984 313.842 308.895 313.801C308.805 313.761 308.728 313.699 308.67 313.62C308.534 313.438 308.463 313.216 308.47 312.99C308.457 312.77 308.525 312.553 308.66 312.38C308.717 312.305 308.792 312.245 308.877 312.205C308.962 312.165 309.056 312.146 309.15 312.15L311.58 312.23L314.32 312.35C314.396 312.284 314.486 312.235 314.582 312.208C314.679 312.18 314.781 312.174 314.88 312.19C315.138 312.209 315.378 312.327 315.55 312.52C315.652 312.617 315.733 312.735 315.787 312.866C315.84 312.997 315.865 313.138 315.86 313.28C315.857 313.392 315.828 313.503 315.774 313.602C315.72 313.701 315.643 313.786 315.55 313.85L313.48 315.23L317.48 315.36C318.147 315.393 318.48 315.573 318.48 315.9C318.48 316.226 318.147 316.436 317.48 316.53C317.167 316.53 315.79 316.606 313.35 316.76C313.337 317.565 313.233 318.367 313.04 319.15C312.873 319.816 312.673 320.176 312.44 320.23C312.311 320.252 312.179 320.252 312.05 320.23L311.1 319.84C310.6 319.646 310.293 319.516 310.18 319.45C310.055 319.404 309.95 319.316 309.884 319.201C309.818 319.085 309.795 318.95 309.82 318.82C309.851 318.711 309.921 318.619 310.018 318.561C310.115 318.503 310.23 318.485 310.34 318.51L311.62 318.75C311.665 318.127 311.665 317.502 311.62 316.88C308.84 317.02 307.293 317.11 306.98 317.15C306.848 317.168 306.713 317.151 306.588 317.102C306.464 317.053 306.354 316.973 306.27 316.87C306.167 316.752 306.089 316.613 306.043 316.463C305.996 316.313 305.982 316.155 306 316C305.992 315.862 306.013 315.724 306.062 315.595C306.11 315.466 306.184 315.349 306.28 315.25C306.375 315.158 306.488 315.089 306.613 315.046C306.737 315.002 306.869 314.987 307 315C307.22 315 308.693 315.053 311.42 315.16C311.395 315.047 311.397 314.93 311.427 314.819C311.457 314.708 311.512 314.605 311.59 314.52C311.778 314.333 312.026 314.219 312.29 314.2L312.39 314.22ZM329.74 308.27C329.902 308.264 330.063 308.295 330.211 308.359C330.36 308.422 330.493 308.518 330.6 308.64C330.701 308.75 330.776 308.882 330.82 309.026C330.863 309.17 330.873 309.321 330.85 309.47C330.77 310.056 330.603 311.656 330.35 314.27C330.083 317.043 329.913 318.746 329.84 319.38C329.841 319.558 329.799 319.734 329.717 319.893C329.635 320.051 329.516 320.187 329.37 320.29C329.23 320.36 329.076 320.397 328.92 320.397C328.764 320.397 328.61 320.36 328.47 320.29L327.7 319.93L326.96 319.61C326.58 319.403 326.437 319.153 326.53 318.86C326.61 318.64 326.86 318.54 327.28 318.58L328.5 318.74C328.5 317.2 328.5 315.866 328.5 314.74L325 316.59L321.62 318.41C321.492 318.472 321.352 318.505 321.21 318.505C321.068 318.505 320.928 318.472 320.8 318.41C320.519 318.292 320.295 318.07 320.176 317.789C320.056 317.509 320.05 317.194 320.16 316.91C320.209 316.777 320.287 316.658 320.39 316.561C320.492 316.464 320.615 316.391 320.75 316.35C321.043 316.25 322.647 315.616 325.56 314.45L325.43 314.4C324.881 314.081 324.353 313.727 323.85 313.34L322.26 312.18C322.164 312.121 322.086 312.038 322.031 311.94C321.977 311.842 321.949 311.732 321.95 311.62C321.95 311.322 322.065 311.035 322.27 310.82C322.358 310.711 322.467 310.622 322.591 310.558C322.715 310.495 322.851 310.458 322.99 310.45C323.104 310.438 323.219 310.453 323.327 310.493C323.434 310.532 323.531 310.596 323.61 310.68C325.35 312.42 326.253 313.343 326.32 313.45C326.399 313.536 326.454 313.641 326.48 313.755C326.506 313.869 326.503 313.987 326.47 314.1L327.86 313.57C328.083 313.482 328.32 313.437 328.56 313.44C328.56 311.98 328.56 310.76 328.56 309.78C328.047 309.826 326.777 309.906 324.75 310.02C323.01 310.126 321.95 310.203 321.57 310.25C321.441 310.262 321.312 310.242 321.193 310.192C321.074 310.141 320.97 310.061 320.89 309.96C320.703 309.751 320.6 309.48 320.6 309.2C320.595 308.92 320.695 308.649 320.88 308.44C320.961 308.342 321.064 308.265 321.18 308.215C321.297 308.164 321.423 308.142 321.55 308.15C321.937 308.15 323.117 308.2 325.09 308.3L328.98 308.46C329.196 308.293 329.469 308.218 329.74 308.25V308.27ZM338.59 317.27L340.49 316.11L337.4 316.26L337.07 316.65L338.59 317.27ZM339.75 311.68C339.703 312.413 339.653 313.04 339.6 313.56C339.48 313.95 339.28 314.15 339 314.15C338.921 314.164 338.839 314.164 338.76 314.15C338.819 314.314 338.819 314.495 338.76 314.66C341.993 314.746 343.803 314.803 344.19 314.83C344.857 314.83 345.19 315.003 345.19 315.35C345.19 315.696 344.857 315.893 344.19 315.94L342.55 316.05V316.1C342.617 316.219 342.658 316.35 342.672 316.486C342.686 316.622 342.671 316.759 342.63 316.89C342.6 316.999 342.543 317.1 342.465 317.182C342.386 317.264 342.288 317.325 342.18 317.36L340.54 318.12L343.04 319.19C343.52 319.396 343.707 319.656 343.6 319.97C343.493 320.283 343.177 320.363 342.65 320.21C342.41 320.15 341.113 319.743 338.76 318.99C337.2 319.763 336.26 320.203 335.94 320.31C335.46 320.51 335.14 320.44 334.94 320.12C334.74 319.8 334.94 319.51 335.36 319.26L336.83 318.38L335.72 318.05C335.602 318.015 335.492 317.956 335.397 317.877C335.303 317.798 335.225 317.7 335.17 317.59C335.116 317.468 335.088 317.337 335.088 317.205C335.088 317.072 335.116 316.941 335.17 316.82C335.247 316.627 335.393 316.47 335.58 316.38C334.813 316.413 334.173 316.453 333.66 316.5C333.53 316.517 333.398 316.501 333.275 316.454C333.153 316.407 333.045 316.33 332.96 316.23C332.775 316.027 332.672 315.764 332.67 315.49C332.665 315.358 332.687 315.226 332.733 315.103C332.779 314.979 332.85 314.866 332.94 314.77C333.028 314.676 333.136 314.603 333.255 314.555C333.374 314.507 333.502 314.484 333.63 314.49L336.63 314.6L337.08 313.77C337.126 313.675 337.195 313.593 337.28 313.532C337.366 313.471 337.466 313.432 337.57 313.42C337.827 313.371 338.092 313.425 338.31 313.57L338.39 313.62C338.39 313.406 338.34 312.8 338.24 311.8H338.05C338.163 312.2 338.07 312.453 337.77 312.56C337.643 312.613 337.043 312.92 335.97 313.48C334.897 314.04 334.297 314.34 334.17 314.38C334.109 314.416 334.041 314.439 333.971 314.449C333.901 314.459 333.829 314.456 333.761 314.438C333.692 314.42 333.627 314.389 333.571 314.347C333.514 314.304 333.466 314.251 333.43 314.19C333.389 314.132 333.361 314.066 333.346 313.997C333.332 313.928 333.332 313.857 333.346 313.787C333.36 313.718 333.388 313.652 333.428 313.594C333.468 313.536 333.52 313.487 333.58 313.45C333.773 313.29 334.523 312.773 335.83 311.9L334.24 312.01C334.121 312.023 334.001 312.007 333.889 311.963C333.778 311.92 333.678 311.85 333.6 311.76C333.423 311.57 333.326 311.319 333.33 311.06C333.323 310.936 333.34 310.812 333.381 310.695C333.423 310.579 333.487 310.471 333.57 310.38C333.647 310.29 333.745 310.218 333.854 310.172C333.963 310.125 334.081 310.104 334.2 310.11C334.613 310.11 335.927 310.153 338.14 310.24L338.07 309.65C336.697 309.763 335.877 309.826 335.61 309.84C335.09 309.84 334.81 309.71 334.77 309.45V309.4C334.723 309.126 334.963 308.926 335.49 308.8C335.777 308.726 336.857 308.526 338.73 308.2C340.603 307.873 341.69 307.673 341.99 307.6C342.096 307.574 342.207 307.574 342.313 307.6C342.42 307.626 342.518 307.677 342.6 307.75C342.692 307.818 342.768 307.905 342.823 308.005C342.878 308.105 342.911 308.216 342.92 308.33V308.38C342.935 308.492 342.928 308.607 342.899 308.717C342.87 308.826 342.819 308.929 342.75 309.02C342.688 309.112 342.605 309.188 342.507 309.242C342.41 309.296 342.301 309.326 342.19 309.33L339.92 309.49L339.84 310.31C341.66 310.356 342.877 310.396 343.49 310.43C344.103 310.463 344.397 310.633 344.37 310.94C344.37 311.26 344.08 311.453 343.5 311.52C343.033 311.566 342.367 311.606 341.5 311.64C343.28 312.853 344.117 313.413 344.01 313.32C344.363 313.586 344.46 313.85 344.3 314.11C344.167 314.33 343.877 314.366 343.43 314.22C343.25 314.146 342.727 313.906 341.86 313.5L340.24 312.75C340.149 312.711 340.068 312.651 340.006 312.574C339.943 312.497 339.9 312.407 339.88 312.31C339.828 312.103 339.856 311.885 339.96 311.7L339.75 311.68ZM350.11 310.6L352.54 310.71L354.92 310.83L354.76 309.29L352.49 309.4L350.22 309.49L350.11 310.6ZM348.73 311.6C348.73 311.42 348.68 310.983 348.58 310.29C348.48 309.596 348.427 309.136 348.42 308.91C348.399 308.797 348.407 308.681 348.444 308.572C348.481 308.464 348.545 308.366 348.63 308.29C348.828 308.114 349.086 308.025 349.35 308.04C349.508 308.037 349.665 308.068 349.81 308.13L352.26 308.24L354.91 308.36C355.003 308.263 355.115 308.189 355.239 308.14C355.363 308.092 355.497 308.071 355.63 308.08C355.894 308.065 356.152 308.154 356.35 308.33C356.437 308.401 356.502 308.494 356.539 308.6C356.576 308.706 356.583 308.82 356.56 308.93C356.56 309.136 356.51 309.573 356.41 310.24L356.28 311.5C356.18 311.96 355.97 312.193 355.65 312.2C355.33 312.206 355.127 312.023 355.04 311.65L349.93 311.88C349.9 312.005 349.828 312.116 349.726 312.194C349.624 312.272 349.498 312.313 349.37 312.31C349.03 312.323 348.82 312.093 348.74 311.62L348.73 311.6ZM348.06 317.08C348.06 316.926 348.007 316.26 347.9 315.08C347.793 313.9 347.73 313.21 347.71 313.01C347.693 312.916 347.703 312.82 347.741 312.733C347.778 312.646 347.84 312.571 347.92 312.52C348.139 312.376 348.398 312.306 348.66 312.32C348.933 312.304 349.202 312.385 349.42 312.55L352.42 312.66C354.033 312.72 355.107 312.77 355.64 312.81C355.858 312.673 356.113 312.607 356.37 312.62C356.632 312.604 356.891 312.674 357.11 312.82C357.19 312.865 357.253 312.936 357.29 313.021C357.326 313.106 357.333 313.2 357.31 313.29C357.31 313.523 357.257 314.146 357.15 315.16L357 317C356.893 317.393 356.69 317.59 356.39 317.59C356.09 317.59 355.887 317.393 355.78 317C355.78 316.846 355.743 316.433 355.67 315.76L355.54 314.1L352.37 314.31L349.48 314.5C349.4 315.746 349.333 316.623 349.28 317.13C349.173 317.53 348.973 317.73 348.68 317.73C348.387 317.73 348.183 317.52 348.07 317.1L348.06 317.08ZM353.89 314.87C353.99 314.974 354.068 315.098 354.118 315.234C354.167 315.37 354.189 315.515 354.18 315.66C354.172 315.778 354.138 315.892 354.081 315.996C354.024 316.1 353.945 316.19 353.85 316.26C353.617 316.42 352.743 317.086 351.23 318.26C349.717 319.433 348.853 320.1 348.64 320.26C348.22 320.533 347.887 320.533 347.64 320.26C347.393 319.986 347.447 319.653 347.8 319.26L350.13 316.97C351.463 315.636 352.253 314.873 352.5 314.68C352.672 314.515 352.902 314.425 353.14 314.43C353.294 314.442 353.442 314.491 353.574 314.571C353.706 314.65 353.817 314.76 353.9 314.89L353.89 314.87ZM357.78 319.31C358.093 319.556 358.173 319.81 358.02 320.07C357.867 320.33 357.59 320.41 357.19 320.31C356.524 320.045 355.876 319.737 355.25 319.39L353.25 318.39C353.151 318.348 353.064 318.283 352.994 318.202C352.925 318.12 352.876 318.024 352.85 317.92C352.787 317.665 352.826 317.395 352.96 317.17C353.019 317.06 353.1 316.964 353.198 316.889C353.296 316.813 353.409 316.759 353.53 316.73C353.632 316.704 353.738 316.7 353.842 316.719C353.946 316.738 354.044 316.779 354.13 316.84C355.394 317.602 356.616 318.433 357.79 319.33L357.78 319.31Z" fill="#094325"/>
<path d="M297 148C292.63 151.54 297.23 190.57 303.93 199.8C310.12 200.59 320.64 198.8 325.02 200.94C318.68 202.59 306.12 207.27 306.12 207.27L316.02 227.73L338.46 224.1L320.32 234.55L333.18 251.34L353.69 245.42L339.69 256.61L358.24 271.61L380.3 263.33L366.12 273.84L377.64 282.06L395.72 278.56L388.17 286C388.17 286 401.27 294.28 409.77 293.35C418.27 292.42 425.92 291.89 428.19 289.65C430.46 287.41 430.79 270.23 428.65 263.27C426.51 256.31 424.52 251.27 424.52 251.27L421.08 256.19L420.02 241.19L409.95 229.19L409.16 241.19L404.85 222.77L389.13 212.42L387 230.82L382.73 206.5L368.52 195.35L365.28 213.42L362 188.33L345.62 177L343.82 193.42L340.14 172L324.44 164.07L323.71 176.42L316.53 159.24C316.53 159.24 305.74 153.52 300.71 147.74C298.71 145.15 297.01 147.99 297.01 147.99L297 148Z" fill="#1E724E"/>
<path d="M354 170.82C353.07 169 340.21 169.63 335.07 166.12C329.93 162.61 338.54 163.29 336.97 160.22C335.4 157.15 322.43 154.84 315.97 146.03C314.52 144.03 316.11 142.71 318.18 143.14C320.25 143.57 322.36 144.95 323.42 142.74C324.48 140.53 316.65 137.74 313.59 132.84C310.53 127.94 311.17 125.56 312.74 124.66C314.31 123.76 315.74 126.8 316.66 124.76C317.58 122.72 313.66 119.76 311.92 116.03C310.18 112.3 308.74 109.31 310.19 108.03C311.64 106.75 312.58 109.61 314.14 107.68C315.7 105.75 309.52 100.73 307.73 96.2004C305.94 91.6704 310.38 95.2004 312 93.0404C313.62 90.8804 310.57 87.3504 311.07 84.3804C311.57 81.4104 313.78 82.4604 315.84 79.2904C317.9 76.1204 316.17 70.2904 317.65 68.9504C319.13 67.6104 320.51 70.9504 326.54 72.3904C332.57 73.8304 336.15 71.7704 339.95 73.6904C343.75 75.6104 347.47 83.9004 349.78 83.5904C352.09 83.2804 348.89 76.2604 351.35 77.2604C354.504 78.6696 357.197 80.9398 359.12 83.8104C360.86 86.7004 361.58 91.6804 363.3 92.1304C365.02 92.5804 364.74 85.8504 366.35 86.2604C368.94 86.8704 372.2 97.3204 375.01 98.6904C377.82 100.06 378.75 91.7604 380.49 93.9504C382.23 96.1404 382.35 104.77 384.85 106.74C387.35 108.71 386.1 99.2404 388.95 100.86C391.8 102.48 393.09 105.68 394.29 109.55C395.49 113.42 394.72 117.55 397.29 118.19C399.86 118.83 400.69 109.06 402.78 111.24C404.87 113.42 402.4 124.71 404.33 126.61C406.26 128.51 406.86 120.61 409.13 124.32C411.4 128.03 409.39 140.09 412.35 141.74C415.31 143.39 413.22 130.74 417.28 135.08C421.34 139.42 421.28 154.83 419.49 159.61C415.77 171.19 401.55 180.32 394.08 182.22C386.61 184.12 386.16 183.73 383.84 182.99C381.52 182.25 388.09 177.74 381.84 178.99C375.59 180.24 374.09 183.58 369.04 182.65C363.99 181.72 372.29 179.4 366.28 179.32C360.27 179.24 352.39 180.08 350.16 176.83C346.66 171.73 355.16 173.32 353.92 170.83L354 170.82Z" fill="#52B788"/>
<path d="M321.54 83.8496C321.49 92.6596 366.14 163.28 399.08 169.23C372.54 154.16 321.54 83.8496 321.54 83.8496Z" fill="#4B9975"/>
<path d="M286 365.46C284 363.14 292 366.63 298.41 366.14C304.82 365.65 309.41 363.62 319.16 366.14C328.91 368.66 343.6 381.64 353.66 388.48C363.72 395.32 370.22 395.92 382.78 408.73C395.34 421.54 408.32 436.97 411.15 450.13C413.98 463.29 426.9 469.13 429.46 484.7C432.02 500.27 415.11 526.56 420.37 540.36C401.26 510.22 376.8 500.36 361.37 484.36C345.94 468.36 353.6 466.01 341.49 450.11C329.38 434.21 326.43 439.84 312.13 423.75C295.59 405.08 301.59 383.67 286 365.46Z" fill="#00737F"/>
<path d="M365.32 550.95C370.74 542.13 368.12 493.5 375.48 494.58C382.84 495.66 395.33 511.58 393.97 526.82C392.61 542.06 380.16 559.75 379.72 568.27C379.28 576.79 382.5 581.05 384.1 581.64C385.7 582.23 404.73 538.24 415.53 537.64C426.33 537.04 429.93 550.4 426.64 564.51C423.35 578.62 394.93 592.15 392 599.35C389.07 606.55 391.93 613.35 394.18 611.97C396.43 610.59 417.54 589.64 427.07 585.97C436.6 582.3 443.96 585.87 434.99 599.79C426.02 613.71 402.75 621.52 401.34 627.28C399.93 633.04 403.18 633.4 405.92 632.01C408.66 630.62 425.67 618.83 432.43 616.01C439.19 613.19 437.36 627.24 435.59 631.66C433.82 636.08 422.83 644.25 419.12 645.66C415.41 647.07 409.49 644.75 407.51 647.49C405.53 650.23 411.9 656.49 411.73 658.37C411.56 660.25 404.07 665.3 401.96 664.25C399.85 663.2 399.77 656.02 396.46 654.65C393.15 653.28 391.66 660.38 384.13 661.82C376.6 663.26 356.42 660.69 352.41 654.59C348.4 648.49 379.82 645.06 386.1 641.01C390.18 637.53 390.18 633.13 386.37 633.1C382.56 633.07 338.32 648.1 330.91 642.23C323.5 636.36 326.42 636.15 331.12 633.33C335.82 630.51 369.98 625.68 370.12 619.33C370.26 612.98 323.41 624.76 313.45 617.07C303.49 609.38 295.12 597.9 299.69 593.07C304.26 588.24 341.81 602.56 349.69 596.01C357.57 589.46 347.57 591.87 340.94 589.13C334.31 586.39 303.52 581.21 299.7 574.99C295.88 568.77 290.56 563.46 297.07 558.5C303.58 553.54 335.58 569.65 338.07 565.08C340.56 560.51 319.82 556.19 310.71 545.15C301.6 534.11 301 517.53 305.25 516C309.5 514.47 309.25 514.62 311.25 518.07C313.25 521.52 317.95 534.17 323.95 539.34C329.95 544.51 332.88 549.19 334.1 546.91C335.32 544.63 331.25 537.53 326.93 532.64C322.61 527.75 312.59 517.81 312.38 513C312.17 508.19 307.9 492 324.27 487C340.64 482 347.27 495.85 351.04 505.47C354.81 515.09 354.99 524.26 356.64 534.63C358.29 545 362.9 554.86 365.32 550.93V550.95Z" fill="#E2A14B"/>
<path d="M85 556.42C87.81 553 98 544.84 91.48 534C88.81 527.17 72.73 516.8 59.39 522.94C46.05 529.08 50.5 533.35 44.28 539.94C38.06 546.53 29.28 549.03 20.08 552.63C10.88 556.23 1.24999 566 -1.30001 574.86C-2.88001 580.36 -2.10001 586.86 -4.30001 592.79C-7.30001 600.86 -18.23 606.53 -16.12 614.87C-15.674 616.253 -15.0486 617.571 -14.26 618.79C-12.45 622.25 -6.31001 635.58 11.42 640.69C29.15 645.8 51.48 636.61 54.42 627.59C57.36 618.57 63.78 604 72.93 601.39C82.08 598.78 87.51 590.14 87.44 588.78C87.37 587.42 90.92 584.64 86.66 576.13C83.26 569.31 84.12 560.15 85 556.42Z" fill="#E2A14B"/>
<path d="M50.3201 565.42L56.8801 552.58M59.6701 564.69L51.3201 576.44L59.6701 564.69ZM-10.3999 671.49L2.5301 645.07L5.2001 641.31L-10.3999 671.49ZM39.0001 593.78L57.4301 589.54L39.0001 593.78ZM39.0001 593.78L29.8801 606.6L39.0001 593.78ZM39.0001 593.78L51.3201 576.45L39.0001 593.78ZM70.4501 586.54L57.4501 589.54L70.4501 586.54ZM57.4501 589.54L63.2701 580.24L57.4501 589.54ZM20.7601 619.42L40.2701 614.93L20.7601 619.42ZM20.7601 619.42L5.2001 641.31L20.7601 619.42ZM20.7601 619.42L29.8801 606.6L20.7601 619.42ZM49.0901 612.9L40.2701 614.9L49.0901 612.9ZM40.2701 614.9L47.4001 605.52L40.2701 614.9ZM5.2001 641.31L2.3101 628.76L5.2001 641.31ZM29.8801 606.6L26.5701 580.71L29.8801 606.6ZM24.8101 567L26.5701 580.75L24.8101 567ZM26.5701 580.75L33.6801 570.75L26.5701 580.75ZM51.3201 576.52L50.3201 565.42L51.3201 576.52ZM49.3201 554.32L50.3201 565.42L49.3201 554.32Z" stroke="white" stroke-width="1.47" stroke-linecap="round"/>
</g>
<defs>
<clipPath id="clip0_236:7663">
<rect width="375" height="753" fill="white"/>
</clipPath>
</defs>
</svg>
