<svg width="118" height="118" viewBox="0 0 118 118" fill="none" xmlns="http://www.w3.org/2000/svg">
<path d="M50.793 117.304C78.4611 117.304 100.891 94.8747 100.891 67.2065C100.891 39.5384 78.4611 17.1089 50.793 17.1089C23.1248 17.1089 0.695312 39.5384 0.695312 67.2065C0.695312 94.8747 23.1248 117.304 50.793 117.304Z" fill="white"/>
<path d="M3.90043 67.4058C3.88794 76.6938 6.62056 85.7782 11.755 93.518C16.8894 101.258 24.1966 107.307 32.7586 110.907C41.3206 114.507 50.7554 115.496 59.8778 113.751C69.0003 112.005 77.4033 107.602 84.0314 101.096C90.6594 94.5892 95.2168 86.2691 97.131 77.1805C99.0452 68.092 98.2308 58.6404 94.7901 50.0133C91.3494 41.3861 85.4358 33.9682 77.7925 28.6915C70.1491 23.4147 61.1167 20.5144 51.8301 20.3551C45.5784 20.2406 39.3665 21.373 33.5573 23.686C27.7481 25.999 22.4579 29.4464 17.9958 33.8266C13.5337 38.2069 9.9891 43.4323 7.56898 49.1978C5.14885 54.9632 3.90172 61.1531 3.90043 67.4058V67.4058Z" fill="white"/>
<path d="M3.9004 67.4055C3.91074 58.0446 6.70891 48.8989 11.9381 41.1348C17.1672 33.3707 24.5904 27.3399 33.2609 23.8117C41.9314 20.2835 51.4563 19.4176 60.6209 21.3246C69.7855 23.2316 78.1744 27.8249 84.7178 34.5189C91.2613 41.2129 95.6627 49.7041 97.3608 58.9097C99.0589 68.1152 97.9767 77.618 94.2522 86.206C90.5277 94.794 84.3297 102.078 76.4486 107.129C68.5676 112.181 59.3607 114.77 50.002 114.568C37.6727 114.308 25.9371 109.223 17.3167 100.404C8.69638 91.5857 3.87926 79.7375 3.9004 67.4055V67.4055ZM59.5645 29.9699L59.3594 29.8996C59.2774 30.1047 59.1895 30.3098 59.1133 30.5149C55.9141 39.4094 52.7676 48.3215 49.5039 57.1926C47.5645 62.466 45.3203 67.5988 42.1563 72.2863C41.751 72.9846 41.1382 73.5393 40.4031 73.8732C39.6681 74.2072 38.8472 74.3038 38.0547 74.1496C36.3477 73.8996 34.6367 73.6789 32.9219 73.4875C27.4024 72.8723 21.8711 72.4328 16.3281 73.0129C14.3518 73.2125 12.4086 73.6613 10.5449 74.3489C8.06056 75.2864 7.71485 77.1906 9.60157 79.0774C10.7312 80.1989 11.99 81.1824 13.3516 82.007C18.2852 85.007 23.6816 86.9817 29.1719 88.7336C40.1734 92.2606 51.502 94.6712 62.9863 95.9289C68.7051 96.5559 74.4356 97.0012 80.166 96.2512C82.0324 95.9995 83.8558 95.4948 85.586 94.7512C87.3438 93.9953 87.6016 92.4367 86.459 90.8899C86.0287 90.2573 85.496 89.7009 84.8828 89.2434C83.1919 88.0315 81.431 86.9202 79.6094 85.9153C73.6621 82.8332 67.3047 80.8117 60.8594 78.966C60.1433 78.8011 59.4938 78.4236 58.996 77.883C58.4983 77.3424 58.1756 76.664 58.0703 75.9367C57.308 71.9873 57.0404 67.9582 57.2735 63.9426C57.7246 55.7922 58.2637 47.6418 58.7969 39.4914C59.0078 36.3157 59.2891 33.1223 59.5469 29.9699H59.5645ZM44.0547 101.87C45.2698 100.924 46.5503 100.064 47.8867 99.2981C49.2766 98.7169 50.706 98.2352 52.1641 97.8567L38.1953 94.886C41.9981 97.8977 41.9981 97.8977 44.0547 101.87Z" fill="black"/>
<path d="M59.5469 29.9697C59.2949 33.1455 59.0078 36.3154 58.8028 39.4912C58.2696 47.6416 57.7305 55.7861 57.2793 63.9424C57.0462 67.958 57.3139 71.987 58.0762 75.9365C58.1815 76.6638 58.5042 77.3422 59.0019 77.8828C59.4996 78.4234 60.1492 78.8009 60.8653 78.9658C67.3106 80.8115 73.6387 82.833 79.6153 85.915C81.4369 86.9199 83.1977 88.0312 84.8887 89.2432C85.5018 89.7007 86.0345 90.2571 86.4649 90.8896C87.6075 92.4365 87.3555 93.9951 85.5918 94.751C83.8616 95.4946 82.0382 95.9993 80.1719 96.251C74.4414 97.001 68.711 96.5557 62.9922 95.9287C51.5078 94.671 40.1792 92.2604 29.1778 88.7334C23.7051 86.9756 18.3086 85.0127 13.3574 82.0068C11.9959 81.1821 10.7371 80.1987 9.60744 79.0771C7.72072 77.1904 8.06642 75.2861 10.5508 74.3486C12.4145 73.6611 14.3576 73.2122 16.334 73.0127C21.877 72.4268 27.4082 72.8721 32.9278 73.4873C34.6426 73.6787 36.3535 73.8994 38.0606 74.1494C38.8531 74.3036 39.6739 74.2069 40.409 73.873C41.1441 73.5391 41.7569 72.9844 42.1621 72.2861C45.3321 67.5986 47.5703 62.4658 49.5098 57.1924C52.7735 48.3213 55.9199 39.4092 59.1192 30.5146C59.1953 30.3096 59.2832 30.1045 59.3653 29.8994L59.5469 29.9697ZM56.9453 42.9307L56.7696 42.8896C56.711 43.1064 56.6406 43.3174 56.5938 43.54C54.6953 52.4619 52.7989 61.3838 50.9043 70.3057C49.9492 74.8174 49.0059 79.3291 48.0274 83.835C47.5821 85.8799 45.9121 87.1396 43.9785 86.8643C35.1627 85.7216 26.5261 83.4714 18.2735 80.167C18.0742 80.085 17.8692 80.0322 17.6875 79.9678L17.6055 80.1904C19.7383 81.1045 21.8418 82.0771 24.0039 82.915C32.6345 86.1773 41.5444 88.6465 50.6231 90.292C58.8262 91.8506 67.0762 93.0107 75.4375 92.8408C77.9688 92.7881 80.4942 92.2549 83.0137 91.8799C83.1945 91.8934 83.3739 91.8404 83.5184 91.731C83.6629 91.6215 83.7624 91.4631 83.7984 91.2854C83.8344 91.1078 83.8043 90.9231 83.7137 90.7661C83.6232 90.6091 83.4784 90.4905 83.3067 90.4326C81.7734 89.3851 80.1873 88.4171 78.5547 87.5322C72.4258 84.4326 65.916 82.3701 59.3242 80.5361C58.6319 80.3994 57.9968 80.0574 57.5014 79.5548C57.0061 79.0521 56.6735 78.412 56.5469 77.7178C56.1151 75.6739 55.7924 73.6085 55.5801 71.5303C54.9942 64.5811 55.6914 57.667 56.2832 50.7529C56.459 48.1455 56.7168 45.5381 56.9453 42.9307Z" fill="white"/>
<path d="M44.0547 101.87C41.998 97.8975 41.998 97.8975 38.1953 94.8857L52.1641 97.8564C50.7059 98.235 49.2766 98.7167 47.8867 99.2979C46.5503 100.064 45.2697 100.923 44.0547 101.87V101.87Z" fill="white"/>
<path d="M56.9453 42.9307C56.7051 45.5381 56.4473 48.1396 56.2305 50.7529C55.6445 57.667 54.9473 64.5811 55.5273 71.5303C55.7396 73.6085 56.0624 75.6739 56.4941 77.7178C56.6207 78.412 56.9533 79.0521 57.4487 79.5548C57.944 80.0574 58.5792 80.3994 59.2715 80.5361C65.8633 82.3701 72.373 84.4385 78.502 87.5322C80.1345 88.4171 81.7206 89.3851 83.2539 90.4326C83.4257 90.4905 83.5704 90.6091 83.661 90.7661C83.7515 90.9231 83.7816 91.1078 83.7457 91.2854C83.7097 91.4631 83.6101 91.6215 83.4656 91.731C83.3212 91.8404 83.1417 91.8934 82.9609 91.8799C80.4414 92.249 77.916 92.7939 75.3848 92.8408C67.0176 93.0107 58.7617 91.8506 50.5703 90.292C41.494 88.65 32.5861 86.1847 23.957 82.9268C21.7949 82.0889 19.6914 81.1104 17.5586 80.2022L17.6406 79.9795C17.8457 80.0439 18.0508 80.1025 18.2266 80.1787C26.4905 83.4859 35.139 85.7362 43.9668 86.876C45.9004 87.1455 47.5703 85.8916 48.0156 83.8467C48.9941 79.3408 49.9375 74.8291 50.8926 70.3174C52.7871 61.3955 54.6836 52.4736 56.582 43.5518C56.6289 43.335 56.6992 43.1182 56.7578 42.9014L56.9453 42.9307Z" fill="black"/>
<path d="M29.6658 10.094L27.8778 11.3276L26.9454 8.60908L28.9096 7.93545L28.563 6.9249L26.5988 7.59853L25.6274 4.76615L24.5884 5.12249L25.5598 7.95488L23.4391 8.6822L23.7857 9.69275L25.9064 8.96542L26.9461 11.9971C26.1796 12.4986 25.47 12.9805 24.8974 13.3519L25.5767 14.312C26.1017 13.941 26.688 13.5172 27.3171 13.0788L28.5521 16.6798C28.6253 16.8932 28.5643 16.9937 28.3651 17.062C28.1943 17.1206 27.5823 17.3305 26.8942 17.5506C27.1341 17.7864 27.4372 18.1597 27.5775 18.4298C28.5596 18.0929 29.1382 17.8786 29.4448 17.5666C29.7563 17.2689 29.8059 16.9497 29.596 16.3376L28.2439 12.3951C28.8729 11.9566 29.5065 11.4848 30.1307 11.0321L29.6658 10.094ZM35.7538 2.6135L28.0679 5.24946L28.4243 6.28847L32.4807 4.89727L35.6341 14.0918C35.7268 14.3623 35.6422 14.4867 35.3767 14.5937C35.0827 14.7104 34.0437 15.0668 32.99 15.3804C33.2633 15.6207 33.6432 16.079 33.8217 16.3677C35.1597 15.9089 36.0372 15.592 36.4813 15.217C36.9351 14.8705 36.9981 14.4512 36.7491 13.7253L33.5909 4.51652L36.1101 3.65252L35.7538 2.6135Z" fill="white"/>
<path d="M44.8355 6.57689C44.8223 6.36664 44.8092 6.15639 44.7961 5.94615L44.5703 2.32689L48.7452 2.06642L49.0104 6.31642L44.8355 6.57689ZM53.4856 6.03721L50.1517 6.24521L49.8866 1.99521L52.7549 1.81625L52.6884 0.75L40.3589 1.51923L40.4254 2.58548L43.444 2.39716L43.6688 6.0014C43.6829 6.22666 43.6951 6.42189 43.6941 6.6481L40.1349 6.87015L40.2024 7.95142L43.7165 7.73218C43.6328 9.77268 42.9924 11.8328 40.595 13.5202C40.8766 13.6835 41.3064 14.0487 41.5326 14.2909C44.1731 12.3924 44.7938 10.0168 44.8579 7.66097L49.0778 7.39769L49.4741 13.7502L50.6155 13.679L50.2192 7.32649L53.5531 7.11849L53.4856 6.03721Z" fill="white"/>
<path d="M66.0165 10.0483L65.7005 11.5963L59.0072 10.2303L59.3231 8.68229L66.0165 10.0483ZM58.5048 12.6924L58.8297 11.1001L65.523 12.4661L65.1981 14.0584L58.5048 12.6924ZM57.1099 13.9588L58.2009 14.1814L58.3122 13.6359L65.0055 15.0019L64.9032 15.5032L66.0532 15.7379L67.359 9.33941L58.4247 7.51609L57.1099 13.9588ZM65.9942 6.6959C66.4831 6.1814 67.0527 5.42229 67.5924 4.73388L66.6381 4.29339L69.5572 4.88913L69.7588 3.90135L64.4808 2.82421L64.7546 1.4826L63.6341 1.25393L63.3603 2.59554L58.274 1.55752L58.0724 2.5453L66.4317 4.25127C66.0721 4.88432 65.4343 5.75235 64.9688 6.30235L65.5961 6.61466L60.8341 5.64283L61.6252 5.60462C61.6188 4.95833 61.4398 3.9543 61.1359 3.18586L60.044 3.19339C60.292 3.93505 60.477 4.90959 60.4656 5.56761L56.7356 4.80639L56.531 5.80891L69.5785 8.47168L69.7831 7.46915L65.9942 6.6959Z" fill="white"/>
<path d="M73.8268 13.0135C72.5815 13.8646 70.8863 14.6042 69.5375 14.9631C69.6766 15.22 69.9279 15.7537 70.0132 16.0169C71.41 15.5641 73.2272 14.7178 74.6276 13.8277L73.8268 13.0135ZM83.5821 16.5398L84.0883 15.5481L79.2099 13.0581L80.5712 10.3911L79.566 9.87809L78.2048 12.5451L74.4388 10.6229C75.2199 9.75458 76.0705 8.61763 76.7931 7.49982C79.7087 8.90351 83.2297 10.3459 85.614 10.904L85.4823 9.73871C83.185 9.24188 79.3158 7.58802 76.2593 6.12932C75.4593 7.66372 74.2352 9.20134 73.8957 9.56864C73.5357 9.97615 73.2509 10.2362 73.0425 10.2143C73.0266 10.5103 72.9614 11.0683 72.9055 11.3101C73.1011 11.2579 73.678 11.4847 74.5625 11.9362L77.6986 13.5369L75.3455 18.1472C75.2292 18.375 75.108 18.3807 74.8733 18.2779C74.6386 18.175 73.8479 17.7714 73.0173 17.3136C73.021 17.6703 72.9427 18.1878 72.8595 18.4832C74.0053 19.0849 74.7024 19.407 75.2202 19.4516C75.711 19.5163 76.0291 19.2901 76.3438 18.6736L78.7037 14.0499L83.5821 16.5398ZM79.6859 16.5277C80.1104 18.079 80.4969 20.1683 80.5544 21.3465L81.7254 21.336C81.6342 20.1576 81.1802 18.1013 80.7488 16.5635L79.6859 16.5277Z" fill="white"/>
<path d="M93.0933 15.0655C91.0073 16.2389 88.5967 17.076 86.6349 17.2637C86.6074 17.5846 86.457 18.2413 86.3738 18.5115C87.0409 18.427 87.7586 18.2869 88.4845 18.0932L82.8823 24.2456L83.6722 24.9649L90.5205 17.444C91.5876 17.0319 92.6619 16.5449 93.6482 15.9981L93.0933 15.0655ZM98.1116 25.1092L98.841 24.3081L95.5256 21.2892L97.5213 19.0975L96.7203 18.3681L94.7245 20.5598L91.6094 17.7232L90.88 18.5243L93.4945 20.905C91.1037 22.1672 88.2447 22.9827 86.1405 22.8576C86.198 23.1744 86.2016 23.7068 86.174 24.0276C88.3147 24.0233 91.0442 23.1712 93.5089 21.8949L90.0644 25.6776L88.251 24.0263L87.5621 24.7828L89.3756 26.4341L87.5622 28.4256L88.3632 29.155L90.1766 27.1635L91.9678 28.7946L92.6567 28.038L90.8655 26.407L94.3808 22.5464C93.2967 25.1002 92.6629 27.9419 92.8585 30.0736C93.2058 29.9828 93.7473 29.9468 94.0792 29.9845C93.759 27.9225 94.2948 25.0322 95.3302 22.5765L98.1116 25.1092Z" fill="white"/>
<path d="M97.8629 33.6659C96.7544 32.6232 95.6413 31.6012 94.902 30.8588L94.2276 31.537C95.087 32.328 96.1516 33.2737 97.1955 34.2148L97.8629 33.6659ZM100.155 32.8685C101.632 32.1619 104.005 30.903 105.787 29.9484L103.326 26.0752L102.5 26.5999L104.413 29.6095C102.825 30.4765 100.942 31.4414 99.6387 32.0558L98.6459 30.4938C99.7806 29.9509 101.225 29.1935 102.378 28.5675L101.899 27.7305C100.505 28.5099 98.5079 29.5474 97.3063 30.0973L99.4532 33.4752C96.7578 34.9566 95.6081 35.4199 95.1719 35.3228C94.9596 35.2973 94.8662 35.1783 94.737 34.9752C94.5837 34.7339 94.2251 34.1417 93.8931 33.4791C93.7613 33.7767 93.5004 34.0674 93.2625 34.2542C93.6165 34.8672 93.9831 35.4722 94.2023 35.7608C94.4698 36.1256 94.704 36.2977 95.1032 36.3648C95.7517 36.4875 97.0665 35.9193 100.383 34.0966C100.505 34.0366 100.785 33.859 100.785 33.859L100.155 32.8685ZM108.805 33.2368C106.542 33.6048 104.105 33.1927 102.188 32.3076C102.107 32.573 101.899 33.1153 101.794 33.3426C103.391 34.0036 105.298 34.3958 107.223 34.3669C106.556 36.0387 106.071 38.1653 105.952 39.8283C106.275 39.7476 106.806 39.7133 107.127 39.7412C107.154 38.1013 107.616 35.8823 108.301 34.3236C108.548 34.2914 108.79 34.28 109.05 34.2398L108.805 33.2368ZM106.115 37.8699L103.726 34.1111L102.914 34.6276L105.303 38.3865L106.115 37.8699ZM100.731 39.7769C101.508 39.1761 102.582 38.1727 103.393 37.318L102.816 36.6333C101.996 37.4753 100.897 38.4949 100.116 39.0623L100.731 39.7769ZM101.094 34.6255C100.355 35.5945 99.3361 36.7411 98.5671 37.3546L99.2754 37.992C99.9947 37.3565 101.021 36.2226 101.74 35.249L101.094 34.6255ZM104.568 39.5309C102.968 39.9593 100.605 40.392 99.0409 40.5123L96.7083 36.8423L95.8828 37.367L99.967 43.7926L100.792 43.268L99.5575 41.325C101.109 41.2128 103.216 40.8539 104.888 40.5397L104.568 39.5309Z" fill="white"/>
<path d="M106.154 45.9399L107.609 45.5005L108.645 48.9286L108.068 49.1027C107.78 49.1897 107.478 49.2811 107.181 49.3393L106.154 45.9399ZM109.899 44.8086L110.935 48.2368L109.494 48.6719L108.459 45.2437L109.899 44.8086ZM112.362 52.9613L110.922 53.3964L109.825 49.7666L111.266 49.3315L112.362 52.9613ZM108.617 54.0926L107.512 50.434C107.79 50.3657 108.097 50.2887 108.385 50.2017L108.975 50.0233L110.072 53.6531L108.617 54.0926ZM108.042 55.4139L113.573 53.743L112.159 49.0617L113.369 48.6962L115.057 54.285L116.022 53.9934L112.262 41.5484L111.297 41.8399L113.038 47.6015L111.828 47.967L110.483 43.5162L104.952 45.187L106.245 49.465C105.501 49.501 104.753 49.3655 103.991 48.8726C104.233 48.0608 104.649 47.3062 105.25 46.5902L104.621 45.8059C103.933 46.5481 103.449 47.3388 103.125 48.1912C102.355 47.4648 101.582 46.3623 100.733 44.7483C100.558 45.0527 100.198 45.4757 99.9881 45.6649C100.943 47.4199 101.88 48.5985 102.806 49.3721C102.36 51.6444 102.835 54.3616 103.696 57.7325C104.06 57.6856 104.567 57.7524 104.883 57.8613C104.003 54.6375 103.471 52.0948 103.744 50.0319C104.696 50.5302 105.634 50.671 106.58 50.5741L108.042 55.4139Z" fill="white"/>
<path d="M112.69 66.6938L112.57 62.7233L111.502 62.7557L111.779 71.885L112.847 71.8525L112.724 67.8068L114.86 67.7419L114.962 71.1109L116.015 71.0789L115.913 67.7099L117.883 67.6501L117.849 66.5371L115.879 66.597L115.781 63.3634L114.728 63.3954L114.826 66.629L112.69 66.6938ZM117.641 61.681C115.347 60.983 113.068 59.7877 111.567 58.4634C111.317 58.6516 110.755 58.9999 110.488 59.1284C110.998 59.5345 111.567 59.9537 112.181 60.3415L103.909 60.5928L103.943 61.6907L114.034 61.3842C115.119 61.9082 116.232 62.3712 117.372 62.743L117.641 61.681ZM105.776 68.0179L108.287 67.9416L108.397 71.5662L109.45 71.5342L109.34 67.9096L111.055 67.8575L111.021 66.7445L109.306 66.7966L109.198 63.2472L108.146 63.2792L108.253 66.8286L105.742 66.9049L105.607 62.4531L104.524 62.486L104.825 72.3973L105.908 72.3644L105.776 68.0179Z" fill="white"/>
<path d="M111.61 88.9586C112.316 88.7878 113.468 88.3062 114.333 87.8638L114.19 86.9783C113.299 87.399 112.11 87.8408 111.404 88.0117L111.61 88.9586ZM114.901 78.731L108.068 77.0906L108.44 75.5397L115.273 77.18L114.901 78.731ZM115.575 79.8523L116.387 76.4726L106.335 74.0594L106.114 74.9811L107.533 75.3219L106.943 77.7799L115.575 79.8523ZM108.831 86.8679C107.902 86.289 107.068 85.6399 106.324 84.9352C107.325 85.0207 108.49 85.1923 109.766 85.4212L109.074 88.3035L110.069 88.5424L110.772 85.6162C112.103 85.8738 113.529 86.1852 115.032 86.5617L115.275 85.5521C113.793 85.212 112.353 84.897 111.007 84.6359L111.552 82.3681L114.097 82.9793C114.159 83.7524 114.254 84.4559 114.416 85.0675L115.356 84.4419C115.017 83.4013 114.854 81.5671 114.865 79.9758C114.617 80.0401 114.246 80.1057 114.016 80.0969C113.999 80.681 114.005 81.3013 114.044 81.9141L111.79 81.3731L112.275 79.354L111.28 79.1152L110.796 81.1343L108.206 80.5126C108.22 79.6803 108.235 78.9101 108.243 78.2933L107.181 78.2704L107.196 80.2702L104.065 79.5185C103.846 79.4658 103.79 79.3751 103.843 79.1556C103.877 78.9473 104.049 78.2303 104.25 77.4584C103.923 77.5345 103.416 77.583 103.131 77.5455C102.885 78.5697 102.752 79.2497 102.83 79.7016C102.914 80.1241 103.168 80.3553 103.826 80.5134L107.206 81.3248C107.231 81.9961 107.219 82.6896 107.247 83.3463L108.204 83.4833C108.206 82.8337 108.192 82.1805 108.201 81.5637L110.557 82.1292L110.002 84.4409C108.236 84.1253 106.646 83.9139 105.303 83.8389C104.495 82.8867 103.846 81.849 103.416 80.7399C103.177 80.899 102.697 81.1553 102.464 81.2232C102.867 82.1245 103.412 83.0136 104.062 83.8505C102.497 83.9236 101.49 84.3162 101.286 85.1648C101.072 86.0573 101.631 86.501 103.626 87.1502C103.77 86.9372 104.066 86.668 104.346 86.534C102.795 86.0996 102.215 85.8057 102.267 85.5242C102.394 84.9975 103.355 84.7951 104.896 84.8245C105.877 85.8956 107.05 86.8736 108.376 87.7334L108.831 86.8679Z" fill="white"/>
<path d="M103.311 95.7549C101.893 96.175 100.927 96.7416 100.265 97.9402C99.4935 99.3364 99.6278 100.992 100.671 102.651L101.688 101.992C100.946 100.878 100.75 99.5831 101.324 98.5426C101.848 97.5942 102.576 97.2402 103.641 96.8999C105.072 96.487 106.025 95.9132 106.687 94.7146C107.458 93.3184 107.324 91.6628 106.281 90.0038L105.264 90.6625C106.006 91.7772 106.202 93.0716 105.627 94.1122C105.096 95.0737 104.375 95.4146 103.311 95.7549Z" fill="white"/>
</svg>
