<svg width="258" height="447" viewBox="0 0 258 447" fill="none" xmlns="http://www.w3.org/2000/svg">
<g clip-path="url(#clip0_236:6409)">
<path d="M238.26 397.61H50.8699C44.2867 397.61 38.95 402.947 38.95 409.53V423.52C38.95 430.104 44.2867 435.44 50.8699 435.44H238.26C244.843 435.44 250.18 430.104 250.18 423.52V409.53C250.18 402.947 244.843 397.61 238.26 397.61Z" fill="white" stroke="#1E724E" stroke-width="2.17"/>
<path d="M237.81 394.39H50.41C43.8268 394.39 38.49 399.726 38.49 406.31V420.3C38.49 426.883 43.8268 432.22 50.41 432.22H237.81C244.393 432.22 249.73 426.883 249.73 420.3V406.31C249.73 399.726 244.393 394.39 237.81 394.39Z" fill="white" stroke="#1E724E" stroke-width="2.17"/>
<path d="M97.06 407.16C97.419 407.146 97.772 407.255 98.06 407.47C98.1744 407.561 98.2618 407.682 98.3128 407.82C98.3639 407.957 98.3768 408.106 98.35 408.25C98.31 408.65 98.2267 410.093 98.1 412.58C97.9733 415.066 97.89 416.49 97.85 416.85C97.7433 417.516 97.4767 417.85 97.05 417.85C96.6233 417.85 96.35 417.516 96.23 416.85C96.19 416.55 96.1067 415.126 95.98 412.58C95.8534 410.033 95.7633 408.59 95.71 408.25C95.6853 408.102 95.7032 407.95 95.7617 407.812C95.8201 407.674 95.9166 407.555 96.04 407.47C96.3335 407.251 96.6943 407.141 97.06 407.16ZM100.86 404.7C101.073 404.695 101.283 404.737 101.478 404.822C101.673 404.906 101.848 405.032 101.99 405.19C102.113 405.341 102.203 405.516 102.257 405.703C102.31 405.89 102.325 406.086 102.3 406.28C102.26 406.8 102.027 409.333 101.6 413.88C101.2 418.166 100.973 420.686 100.92 421.44C100.827 422.453 100.513 422.953 99.98 422.94C99.4467 422.926 99.1734 422.413 99.16 421.4C99.12 420.733 99.14 418.2 99.22 413.8C99.3 409.4 99.3 406.866 99.22 406.2C99.2021 406.002 99.2297 405.803 99.3008 405.617C99.3718 405.432 99.4845 405.265 99.63 405.13C99.7911 404.972 99.9848 404.852 100.197 404.778C100.41 404.704 100.636 404.677 100.86 404.7ZM105.3 410.16L105.05 415.16C104.943 417.32 104.87 418.606 104.83 419.02C104.71 419.8 104.43 420.19 103.99 420.19C103.55 420.19 103.263 419.8 103.13 419.02C103.09 418.62 103 416.913 102.86 413.9C102.72 410.886 102.617 409.166 102.55 408.74C102.524 408.573 102.545 408.403 102.61 408.247C102.676 408.092 102.783 407.958 102.92 407.86C103.219 407.608 103.6 407.477 103.99 407.49C104.274 407.488 104.555 407.553 104.81 407.68L106.47 407.76L106.37 405.85C106.358 405.652 106.392 405.454 106.47 405.271C106.548 405.089 106.668 404.927 106.82 404.8C107.114 404.52 107.505 404.366 107.91 404.37C108.108 404.364 108.306 404.4 108.49 404.474C108.674 404.548 108.841 404.659 108.98 404.8C109.122 404.933 109.233 405.097 109.304 405.278C109.375 405.46 109.404 405.655 109.39 405.85C109.39 405.73 109.35 406.396 109.27 407.85C110.063 407.89 110.623 407.93 110.95 407.97C111.243 407.724 111.618 407.599 112 407.62C112.425 407.601 112.842 407.74 113.17 408.01C113.32 408.124 113.434 408.279 113.499 408.456C113.565 408.633 113.579 408.825 113.54 409.01C113.46 409.596 113.357 411.213 113.23 413.86C113.077 416.62 112.973 418.333 112.92 419C112.8 420.04 112.273 420.396 111.34 420.07C111.013 419.963 110.65 419.833 110.25 419.68C110.158 419.652 110.073 419.606 110 419.543C109.928 419.48 109.869 419.403 109.829 419.316C109.788 419.229 109.766 419.135 109.765 419.039C109.763 418.943 109.782 418.848 109.82 418.76C109.853 418.63 109.932 418.517 110.043 418.441C110.153 418.366 110.287 418.333 110.42 418.35H110.71H111C111 417.95 110.94 416.643 110.82 414.43C110.727 412.043 110.663 410.476 110.63 409.73L109.19 409.87C108.877 417.363 108.713 421.2 108.7 421.38C108.647 422.353 108.373 422.84 107.88 422.84C107.387 422.84 107.107 422.353 107.04 421.38L106.57 410.02L105.3 410.16ZM116.09 411.85C115.878 411.735 115.72 411.542 115.651 411.311C115.582 411.081 115.606 410.832 115.72 410.62C116.173 409.685 116.674 408.774 117.22 407.89C117.773 406.993 118.28 406.068 118.74 405.12C118.795 404.98 118.884 404.856 118.999 404.76C119.115 404.664 119.253 404.598 119.4 404.57C119.792 404.484 120.203 404.548 120.55 404.75C120.778 404.847 120.974 405.006 121.115 405.21C121.257 405.413 121.338 405.652 121.35 405.9C127.21 406.093 130.34 406.21 130.74 406.25C131.533 406.316 131.937 406.583 131.95 407.05C131.963 407.516 131.567 407.81 130.76 407.93C130.24 407.996 128.42 408.113 125.3 408.28L119.57 408.61L117.31 411.55C117.252 411.651 117.175 411.739 117.082 411.81C116.989 411.881 116.883 411.932 116.771 411.961C116.658 411.99 116.54 411.996 116.425 411.978C116.31 411.961 116.199 411.921 116.1 411.86L116.09 411.85ZM129.28 409.73C129.947 409.823 130.28 410.076 130.28 410.49C130.28 410.903 129.947 411.183 129.28 411.33C128.867 411.396 127.29 411.5 124.55 411.64C121.69 411.78 120.087 411.87 119.74 411.91C119.589 411.93 119.436 411.911 119.295 411.853C119.155 411.795 119.032 411.7 118.94 411.58C118.72 411.32 118.603 410.99 118.61 410.65C118.598 410.482 118.619 410.313 118.672 410.154C118.726 409.994 118.81 409.847 118.92 409.72C119.012 409.603 119.131 409.51 119.267 409.449C119.403 409.388 119.551 409.361 119.7 409.37L124.51 409.54C127.27 409.626 128.863 409.69 129.29 409.73H129.28ZM133.14 420.27C133.261 420.859 133.328 421.458 133.34 422.06C133.273 422.593 132.863 422.846 132.11 422.82C131.42 422.801 130.748 422.594 130.168 422.22C129.588 421.846 129.122 421.32 128.82 420.7C127.998 418.848 127.517 416.863 127.4 414.84C126.66 414.906 124.823 415.023 121.89 415.19C118.957 415.356 117.313 415.453 116.96 415.48C116.794 415.496 116.627 415.471 116.473 415.406C116.319 415.342 116.184 415.24 116.08 415.11C115.845 414.829 115.715 414.476 115.71 414.11C115.698 413.744 115.823 413.388 116.06 413.11C116.165 412.986 116.297 412.888 116.446 412.824C116.596 412.759 116.758 412.731 116.92 412.74C117.3 412.74 118.997 412.796 122.01 412.91C125.023 413.023 126.86 413.093 127.52 413.12C127.631 412.978 127.772 412.862 127.932 412.78C128.093 412.699 128.27 412.654 128.45 412.65C129.33 412.65 129.783 413.04 129.81 413.82C129.903 416.913 130.15 418.913 130.55 419.82C130.673 420.15 130.873 420.446 131.134 420.682C131.395 420.919 131.709 421.09 132.05 421.18L132.24 420.26C132.36 419.83 132.51 419.62 132.71 419.62C132.91 419.62 133.07 419.85 133.15 420.27H133.14ZM138.67 411.87L142.47 412.03L142.35 410.7L138.73 410.88L138.67 411.87ZM148.2 410.41C147.353 410.476 146.1 410.543 144.44 410.61C144.44 411.28 144.36 411.79 144.32 412.11C145.527 412.15 146.86 412.21 148.32 412.29L148.2 410.41ZM144.71 407.21L144.65 407.91C144.65 408.296 144.623 408.596 144.57 408.81L148.1 408.93C148.1 408.603 148.053 407.986 147.96 407.08L144.71 407.21ZM138.87 408.63L142.2 408.73C142.147 408.063 142.1 407.59 142.06 407.31L138.94 407.45L138.87 408.63ZM149.68 415.06C150.15 415.024 150.616 415.171 150.98 415.47C151.137 415.578 151.256 415.733 151.323 415.911C151.389 416.09 151.398 416.285 151.35 416.47C151.257 416.923 151.113 417.813 150.92 419.14C150.727 420.466 150.59 421.33 150.51 421.73C150.317 422.636 149.65 422.936 148.51 422.63C147.69 422.423 147.087 422.246 146.7 422.1C146.113 421.933 145.873 421.6 145.98 421.1C146.087 420.72 146.397 420.55 146.91 420.59L148.25 420.73L148.15 417.2C147.29 417.266 145.693 417.356 143.36 417.47L139.01 422.47C138.53 423.03 138.043 423.14 137.55 422.8C137.057 422.46 136.997 421.973 137.37 421.34C137.603 420.926 138.427 419.706 139.84 417.68C137.953 417.773 136.777 417.846 136.31 417.9C136.135 417.917 135.958 417.89 135.796 417.822C135.633 417.754 135.49 417.647 135.38 417.51C135.129 417.237 134.99 416.88 134.99 416.51C134.973 416.144 135.099 415.785 135.34 415.51C135.454 415.375 135.597 415.268 135.758 415.197C135.919 415.126 136.094 415.093 136.27 415.1C136.937 415.14 138.683 415.203 141.51 415.29C141.863 414.756 142.117 414.36 142.27 414.1C142.295 414.048 142.329 414 142.37 413.96L138.47 414.13C138.343 414.73 138.057 415.03 137.61 415.03C137.163 415.03 136.863 414.633 136.71 413.84C136.657 413.426 136.573 412.22 136.46 410.22C136.347 408.22 136.257 406.986 136.19 406.52C136.159 406.337 136.176 406.15 136.237 405.975C136.298 405.8 136.402 405.643 136.54 405.52C136.831 405.253 137.216 405.113 137.61 405.13C137.904 405.123 138.194 405.196 138.45 405.34L143.13 405.53L148.13 405.74C148.27 405.566 148.448 405.427 148.652 405.335C148.855 405.243 149.077 405.2 149.3 405.21C149.497 405.202 149.693 405.234 149.877 405.304C150.061 405.375 150.229 405.482 150.37 405.62C150.501 405.733 150.6 405.878 150.658 406.041C150.716 406.204 150.73 406.379 150.7 406.55C150.647 407.003 150.563 408.186 150.45 410.1C150.337 412.013 150.253 413.183 150.2 413.61C150.093 414.403 149.8 414.8 149.32 414.8C148.84 414.8 148.54 414.416 148.42 413.65L144.58 413.83C144.813 413.993 144.985 414.229 145.07 414.5C145.155 414.771 145.148 415.063 145.05 415.33L148.5 415.47C148.833 415.193 149.257 415.05 149.69 415.07L149.68 415.06ZM161.31 418.39C161.01 418.076 161.127 417.61 161.66 416.99C161.933 416.676 162.933 415.643 164.66 413.89C163.7 414.083 163.153 414.2 163.02 414.24C162.865 414.28 162.702 414.285 162.544 414.253C162.387 414.222 162.238 414.156 162.11 414.06C161.96 413.937 161.835 413.785 161.744 413.613C161.653 413.441 161.597 413.253 161.58 413.06C161.473 412.226 161.783 411.753 162.51 411.64L163.91 409.3L162.51 409.4C162.369 409.412 162.227 409.389 162.097 409.331C161.967 409.273 161.855 409.183 161.77 409.07C161.561 408.813 161.451 408.49 161.46 408.16C161.437 407.834 161.541 407.511 161.75 407.26C161.836 407.146 161.948 407.054 162.077 406.993C162.206 406.932 162.348 406.904 162.49 406.91L165.34 407.01C165.04 406.556 164.833 406.223 164.72 406.01C164.651 405.891 164.614 405.757 164.614 405.62C164.614 405.483 164.651 405.348 164.72 405.23C164.949 404.871 165.307 404.613 165.72 404.51C166.093 404.382 166.497 404.382 166.87 404.51C166.999 404.552 167.114 404.628 167.204 404.73C167.294 404.832 167.355 404.956 167.38 405.09C167.568 405.768 167.698 406.46 167.77 407.16C169.59 407.226 170.673 407.28 171.02 407.32C171.687 407.413 172.02 407.673 172.02 408.1C172.02 408.526 171.687 408.8 171.02 408.92C170.68 408.986 169.257 409.083 166.75 409.21C166.806 409.347 166.821 409.498 166.793 409.644C166.764 409.789 166.694 409.924 166.59 410.03L165.25 411.61H166.98C167.42 411.17 167.693 410.883 167.8 410.75C167.913 410.617 168.057 410.514 168.219 410.449C168.381 410.385 168.557 410.361 168.73 410.38C168.906 410.39 169.077 410.435 169.235 410.512C169.393 410.589 169.534 410.697 169.65 410.83L169.71 410.89C169.834 411.023 169.929 411.181 169.989 411.353C170.049 411.525 170.073 411.708 170.06 411.89C170.061 412.062 170.021 412.232 169.943 412.385C169.864 412.538 169.75 412.67 169.61 412.77C169.323 412.99 168.167 413.926 166.14 415.58C164.22 417.153 163.07 418.076 162.69 418.35C162.023 418.843 161.55 418.92 161.27 418.58L161.31 418.39ZM154.45 420.34C154.583 419.96 154.897 419.823 155.39 419.93C155.883 420.036 156.313 420.133 156.68 420.22C156.799 418.93 156.839 417.634 156.8 416.34L155.55 416.91C155.395 416.988 155.224 417.029 155.05 417.029C154.876 417.029 154.705 416.988 154.55 416.91C154.374 416.823 154.219 416.699 154.095 416.547C153.971 416.396 153.881 416.219 153.83 416.03C153.764 415.846 153.738 415.651 153.752 415.456C153.765 415.262 153.819 415.072 153.91 414.9C153.99 414.747 154.103 414.614 154.242 414.512C154.38 414.41 154.541 414.341 154.71 414.31C154.903 414.27 155.533 414.093 156.6 413.78C156.527 412.994 156.411 412.212 156.25 411.44C156.11 410.773 156.41 410.313 157.15 410.06C157.15 410.06 157.49 409.38 158.22 407.97L155.37 408.18C155.248 408.192 155.125 408.169 155.015 408.114C154.906 408.059 154.814 407.975 154.75 407.87C154.575 407.611 154.487 407.302 154.5 406.99C154.485 406.673 154.565 406.36 154.73 406.09C154.798 405.989 154.891 405.908 155 405.854C155.108 405.8 155.229 405.774 155.35 405.78L157.16 405.86C158.16 405.9 158.86 405.946 159.26 406C159.48 405.828 159.748 405.728 160.027 405.713C160.307 405.699 160.583 405.771 160.82 405.92C161.007 406.002 161.173 406.126 161.304 406.282C161.436 406.438 161.53 406.622 161.58 406.82C161.632 406.987 161.645 407.165 161.617 407.338C161.589 407.512 161.522 407.677 161.42 407.82C160.367 409.22 159.587 410.246 159.08 410.9C159.143 411.055 159.177 411.222 159.18 411.39C159.18 411.91 159.2 412.456 159.24 413.03L160.1 412.8C160.827 412.633 161.267 412.79 161.42 413.27C161.573 413.75 161.313 414.166 160.64 414.52L159.22 415.2C159.191 417.179 158.956 419.149 158.52 421.08C158.449 421.436 158.352 421.787 158.23 422.13C158.195 422.252 158.125 422.361 158.029 422.444C157.934 422.528 157.816 422.582 157.69 422.6C157.515 422.606 157.34 422.572 157.18 422.5C157.053 422.42 156.663 422.226 156.01 421.92C155.463 421.646 155.113 421.456 154.96 421.35C154.533 421.036 154.357 420.703 154.43 420.35L154.45 420.34ZM171.36 414.07C171.582 414.353 171.686 414.711 171.65 415.07C171.636 415.247 171.581 415.419 171.489 415.572C171.397 415.725 171.271 415.854 171.12 415.95C170.953 416.056 170.213 416.59 168.9 417.55C169 417.599 169.081 417.68 169.13 417.78C169.223 417.92 169.66 418.466 170.44 419.42C171.22 420.373 171.637 420.92 171.69 421.06C171.819 421.23 171.88 421.441 171.862 421.654C171.843 421.866 171.746 422.065 171.59 422.21C171.454 422.383 171.256 422.496 171.037 422.526C170.819 422.556 170.598 422.5 170.42 422.37C170.227 422.243 169.7 421.806 168.84 421.06C167.98 420.313 167.447 419.86 167.24 419.7C167.135 419.635 167.045 419.547 166.978 419.443C166.91 419.34 166.867 419.222 166.85 419.1C164.383 420.96 162.923 422.026 162.47 422.3C161.77 422.753 161.283 422.803 161.01 422.45L160.95 422.39C160.677 422.036 160.847 421.57 161.46 420.99C161.707 420.756 163.04 419.563 165.46 417.41C167.72 415.41 169.053 414.203 169.46 413.79C169.591 413.664 169.75 413.572 169.924 413.521C170.098 413.471 170.282 413.463 170.46 413.5C170.641 413.522 170.816 413.58 170.974 413.671C171.132 413.762 171.27 413.884 171.38 414.03L171.36 414.07ZM182.36 409.55H182.57C182.93 409.19 183.567 408.58 184.48 407.72L180.08 407.97C178.313 408.076 177.243 408.146 176.87 408.18C176.704 408.202 176.534 408.18 176.38 408.115C176.225 408.05 176.09 407.944 175.99 407.81C175.75 407.532 175.619 407.177 175.62 406.81C175.606 406.447 175.723 406.092 175.95 405.81C176.055 405.679 176.19 405.576 176.343 405.508C176.496 405.44 176.663 405.41 176.83 405.42L181.54 405.6C184.207 405.693 185.873 405.763 186.54 405.81C186.827 405.617 187.175 405.537 187.517 405.587C187.859 405.637 188.17 405.813 188.39 406.08C188.547 406.237 188.668 406.427 188.742 406.636C188.816 406.845 188.843 407.069 188.82 407.29C188.809 407.485 188.756 407.675 188.665 407.848C188.573 408.021 188.445 408.171 188.29 408.29C186.77 409.41 185.34 410.41 184 411.29C184 411.956 184 412.476 184 412.85C187.053 412.943 189.003 413.01 189.85 413.05C190.863 413.103 191.377 413.383 191.39 413.89C191.403 414.396 190.903 414.73 189.89 414.89C189.163 414.956 187.19 415.073 183.97 415.24C183.92 417.259 183.672 419.269 183.23 421.24C183.063 421.906 182.953 422.29 182.9 422.39C182.864 422.526 182.789 422.649 182.685 422.743C182.58 422.837 182.449 422.899 182.31 422.92C182.115 422.93 181.92 422.895 181.74 422.82C181.56 422.713 181.093 422.473 180.34 422.1C179.895 421.903 179.464 421.675 179.05 421.42C178.557 421.08 178.363 420.73 178.47 420.37V420.31C178.623 419.883 178.973 419.74 179.52 419.88C180.4 420.14 180.947 420.29 181.16 420.33C181.304 418.684 181.324 417.029 181.22 415.38C177.887 415.546 175.86 415.67 175.14 415.75C174.937 415.775 174.73 415.749 174.54 415.674C174.35 415.599 174.181 415.477 174.05 415.32C173.751 415.011 173.583 414.599 173.58 414.17C173.571 413.751 173.725 413.346 174.01 413.04C174.145 412.891 174.31 412.773 174.495 412.696C174.68 412.618 174.88 412.582 175.08 412.59C175.747 412.643 177.703 412.713 180.95 412.8C180.883 412.406 180.793 411.906 180.68 411.3C180.634 411.095 180.644 410.883 180.709 410.684C180.774 410.485 180.892 410.307 181.05 410.17C181.367 409.855 181.793 409.672 182.24 409.66L182.36 409.55Z" fill="#1E724E"/>
<path d="M212.66 242.23H29.95C23.3668 242.23 18.03 247.567 18.03 254.15V267.26C18.03 273.844 23.3668 279.18 29.95 279.18H212.66C219.243 279.18 224.58 273.844 224.58 267.26V254.15C224.58 247.567 219.243 242.23 212.66 242.23Z" fill="white" stroke="#1E724E" stroke-width="2.17"/>
<path d="M212.2 239.08H29.4901C22.9068 239.08 17.5701 244.417 17.5701 251V264.11C17.5701 270.693 22.9068 276.03 29.4901 276.03H212.2C218.783 276.03 224.12 270.693 224.12 264.11V251C224.12 244.417 218.783 239.08 212.2 239.08Z" fill="white" stroke="#1E724E" stroke-width="2.17"/>
<path d="M82.2699 257.19L88.7999 257.4C89.6733 257.4 90.1099 257.633 90.1099 258.1C90.1099 258.567 89.6799 258.84 88.8199 258.92C88.2866 258.987 86.1833 259.09 82.5099 259.23C82.6722 259.426 82.7707 259.668 82.7921 259.921C82.8136 260.175 82.757 260.429 82.6299 260.65L88.5499 260.83C89.3833 260.883 89.8066 261.123 89.8199 261.55C89.8333 261.977 89.4166 262.243 88.5699 262.35C88.2699 262.39 86.9133 262.467 84.4999 262.58L88.4999 265.93C89.0066 266.477 89.0966 266.92 88.7699 267.26V267.32C88.4833 267.633 88.0099 267.593 87.3499 267.2C87.0233 267.02 86.1266 266.467 84.6599 265.54L81.9099 263.84C81.7247 263.725 81.5825 263.552 81.5048 263.347C81.4272 263.143 81.4184 262.92 81.4799 262.71H80.4799L75.6499 267.23C75.1433 267.723 74.6766 267.777 74.2499 267.39C73.8233 267.003 73.8233 266.543 74.2499 266.01C74.5233 265.623 75.3999 264.583 76.8799 262.89L74.4199 263.03C74.2497 263.051 74.0768 263.031 73.9164 262.97C73.756 262.909 73.613 262.809 73.4999 262.68C73.2519 262.406 73.1131 262.05 73.1099 261.68C73.0993 261.497 73.1267 261.314 73.1903 261.141C73.254 260.969 73.3526 260.812 73.4799 260.68C73.5885 260.555 73.7243 260.457 73.8768 260.393C74.0294 260.328 74.1947 260.3 74.3599 260.31L78.9399 260.45C79.3933 259.93 79.7266 259.533 79.9399 259.26C76.5133 259.4 74.5133 259.503 73.9399 259.57C73.7553 259.609 73.5635 259.595 73.3865 259.53C73.2096 259.464 73.0547 259.35 72.9399 259.2C72.8119 259.068 72.7115 258.911 72.6445 258.739C72.5776 258.568 72.5454 258.384 72.5499 258.2C72.5368 258.017 72.563 257.833 72.6268 257.66C72.6906 257.488 72.7906 257.331 72.9199 257.2C73.0345 257.071 73.1766 256.968 73.3358 256.901C73.495 256.833 73.6672 256.802 73.8399 256.81L80.3299 257.02L80.2499 256.1C77.4966 256.213 75.8299 256.303 75.2499 256.37C75.0998 256.385 74.9482 256.363 74.8087 256.305C74.6692 256.247 74.546 256.157 74.4499 256.04C74.2268 255.801 74.1018 255.487 74.0999 255.16C74.0891 254.835 74.2078 254.518 74.4299 254.28C74.5219 254.163 74.641 254.07 74.7768 254.009C74.9127 253.948 75.0613 253.921 75.2099 253.93C75.6366 253.93 77.2733 253.983 80.1199 254.09C80.1075 253.788 80.0741 253.487 80.0199 253.19C76.9266 253.33 75.0899 253.427 74.5099 253.48C74.3426 253.503 74.1723 253.482 74.0149 253.421C73.8575 253.36 73.7182 253.26 73.6099 253.13C73.3594 252.857 73.2202 252.501 73.2199 252.13C73.2067 251.948 73.2309 251.766 73.2911 251.594C73.3513 251.422 73.4462 251.264 73.5699 251.13C73.6829 251.005 73.8224 250.907 73.9781 250.843C74.1338 250.779 74.3018 250.751 74.4699 250.76L77.5699 250.88C77.3366 250.593 77.1933 250.413 77.1399 250.34C77.0691 250.226 77.0315 250.094 77.0315 249.96C77.0315 249.826 77.0691 249.694 77.1399 249.58C77.3578 249.3 77.659 249.097 77.9999 249C78.3495 248.826 78.7459 248.77 79.1299 248.84C79.2653 248.866 79.3906 248.929 79.4915 249.023C79.5923 249.117 79.6646 249.237 79.6999 249.37L79.9899 250.25C80.1016 250.554 80.1788 250.869 80.2199 251.19L82.6899 251.27C82.7299 251.13 82.8266 250.82 82.9799 250.34C83.0837 250.039 83.1672 249.732 83.2299 249.42C83.2299 249.17 83.4299 249.01 83.7599 248.91C84.1486 248.839 84.5498 248.887 84.9099 249.05C85.2904 249.178 85.6106 249.442 85.8099 249.79C85.89 249.904 85.9329 250.041 85.9329 250.18C85.9329 250.32 85.89 250.456 85.8099 250.57C85.7033 250.69 85.5099 250.943 85.2299 251.33L87.0799 251.41H88.1699C88.9899 251.463 89.4066 251.697 89.4199 252.11C89.4333 252.523 89.0233 252.797 88.1899 252.93C87.6166 252.983 85.7533 253.08 82.5999 253.22L82.4999 254.31C85.0866 254.377 86.7099 254.433 87.3699 254.48C88.0299 254.527 88.3866 254.747 88.4399 255.14C88.4399 255.54 88.0899 255.787 87.3899 255.88C87.0033 255.947 85.3366 256.037 82.3899 256.15L82.2699 257.19ZM95.2699 257.76C95.5384 257.592 95.855 257.519 96.1699 257.55C96.2852 257.57 96.3939 257.617 96.4864 257.689C96.5788 257.76 96.6522 257.853 96.6999 257.96C96.8294 258.251 96.9798 258.531 97.1499 258.8L97.7699 259.93L97.5799 255.31C97.0066 255.363 96.2599 255.417 95.3399 255.47C95.2999 256.003 95.2599 256.783 95.2199 257.81L95.2699 257.76ZM98.9499 253.26C99.1611 253.244 99.3732 253.271 99.574 253.338C99.7749 253.405 99.9604 253.511 100.12 253.65C100.263 253.771 100.372 253.926 100.437 254.101C100.502 254.277 100.52 254.466 100.49 254.65C100.423 255.223 100.32 257.053 100.18 260.14C100.04 263.227 99.9199 265.18 99.8199 266C99.7133 267.107 99.1666 267.477 98.1799 267.11C97.6599 266.93 97.1466 266.73 96.6399 266.51C96.1333 266.29 95.9699 265.957 96.1499 265.51C96.2077 265.368 96.3135 265.252 96.4489 265.18C96.5842 265.109 96.7404 265.088 96.8899 265.12L97.9399 265.28L97.7599 261.13H97.6999H97.6399C97.4941 261.234 97.3192 261.29 97.1399 261.29C96.9606 261.29 96.7858 261.234 96.6399 261.13C96.0633 260.606 95.5283 260.037 95.0399 259.43L94.7099 266.27C94.6166 267.09 94.3433 267.5 93.8899 267.5C93.4366 267.5 93.1566 267.09 93.0499 266.27C93.0499 265.91 92.9599 263.937 92.7799 260.35C92.6266 256.95 92.5166 254.95 92.4499 254.35C92.4322 254.179 92.4587 254.007 92.527 253.849C92.5953 253.691 92.7031 253.554 92.8399 253.45C93.1387 253.199 93.5198 253.067 93.9099 253.08C94.137 253.083 94.3613 253.131 94.5699 253.22L96.0299 253.3L97.8999 253.4C98.2174 253.238 98.5807 253.188 98.9299 253.26H98.9499ZM106.18 255.34L103.63 255.53L103.57 256.6C103.57 257.147 103.543 257.59 103.49 257.93L103.63 257.83C103.883 257.661 104.187 257.586 104.49 257.62C104.6 257.631 104.706 257.67 104.795 257.735C104.885 257.801 104.956 257.888 105 257.99C105.04 258.083 105.293 258.523 105.76 259.31C106.026 259.712 106.242 260.145 106.4 260.6L106.18 255.34ZM104.6 253.45C105.493 253.49 106.137 253.53 106.53 253.57C106.678 253.439 106.85 253.338 107.037 253.275C107.225 253.211 107.423 253.186 107.62 253.2C107.839 253.182 108.059 253.209 108.267 253.28C108.475 253.35 108.667 253.463 108.83 253.61C108.969 253.734 109.077 253.889 109.145 254.063C109.213 254.237 109.239 254.424 109.22 254.61C109.14 255.277 109.03 257.14 108.89 260.2C108.737 263.42 108.627 265.42 108.56 266.2C108.453 267.327 107.89 267.71 106.87 267.35C106.35 267.17 105.837 266.963 105.33 266.73C104.823 266.497 104.66 266.163 104.84 265.73C104.894 265.585 104.998 265.463 105.134 265.388C105.27 265.313 105.428 265.289 105.58 265.32L106.58 265.48C106.58 265.22 106.517 263.653 106.39 260.78C106.387 260.887 106.357 260.992 106.303 261.085C106.248 261.177 106.172 261.255 106.08 261.31C105.946 261.406 105.785 261.458 105.62 261.458C105.455 261.458 105.294 261.406 105.16 261.31C104.511 260.752 103.924 260.125 103.41 259.44C103.23 263.287 103.113 265.6 103.06 266.38C103.007 267.16 102.727 267.583 102.22 267.65C101.753 267.65 101.46 267.227 101.34 266.38C101.34 266.027 101.243 264.06 101.05 260.48C100.897 257.147 100.787 255.173 100.72 254.56C100.699 254.383 100.726 254.203 100.798 254.039C100.87 253.876 100.985 253.734 101.13 253.63C101.43 253.365 101.82 253.226 102.22 253.24C102.485 253.234 102.746 253.296 102.98 253.42L104.6 253.45ZM108.48 250.27C109.507 250.323 110.027 250.597 110.04 251.09C110.053 251.583 109.547 251.897 108.52 252.03C107.92 252.083 105.373 252.227 100.88 252.46C96.4999 252.693 93.9533 252.85 93.2399 252.93C93.0368 252.956 92.8304 252.93 92.6399 252.855C92.4494 252.779 92.2809 252.658 92.1499 252.5C91.8533 252.182 91.6858 251.765 91.6799 251.33C91.6717 251.122 91.7055 250.915 91.7794 250.721C91.8533 250.527 91.9657 250.35 92.1099 250.2C92.2445 250.051 92.41 249.934 92.5949 249.856C92.7798 249.778 92.9795 249.742 93.1799 249.75C93.9066 249.79 96.4599 249.88 100.84 250.02L108.48 250.27ZM117.19 258.03L119.41 259.71L122.88 255.71L118.24 255.98L117.19 258.03ZM114.97 257.91C115.137 257.337 115.33 256.753 115.55 256.16C114.497 256.227 113.75 256.287 113.31 256.34C113.094 256.366 112.875 256.336 112.674 256.254C112.473 256.172 112.296 256.04 112.16 255.87C111.839 255.533 111.656 255.086 111.65 254.62C111.64 254.396 111.675 254.171 111.753 253.96C111.83 253.749 111.948 253.556 112.1 253.39C112.243 253.23 112.422 253.104 112.621 253.023C112.82 252.941 113.035 252.906 113.25 252.92L116.64 253.06C117.147 251.673 117.51 250.607 117.73 249.86C117.786 249.662 117.885 249.479 118.019 249.323C118.154 249.167 118.322 249.044 118.51 248.96C118.924 248.776 119.391 248.755 119.82 248.9C120.036 248.961 120.234 249.073 120.397 249.226C120.561 249.379 120.685 249.569 120.76 249.78C120.85 249.976 120.897 250.189 120.897 250.405C120.897 250.621 120.85 250.834 120.76 251.03C120.393 251.797 120.043 252.503 119.71 253.15L127.41 253.44C128.49 253.507 129.037 253.807 129.05 254.34C129.063 254.873 128.53 255.223 127.45 255.39C127.163 255.43 126.697 255.47 126.05 255.51C126.162 255.646 126.245 255.802 126.295 255.97C126.345 256.139 126.361 256.315 126.341 256.49C126.321 256.664 126.267 256.833 126.181 256.986C126.095 257.139 125.979 257.273 125.84 257.38C125.427 257.76 124.043 259.093 121.69 261.38C124.677 263.64 126.43 264.973 126.95 265.38C127.65 265.94 127.87 266.427 127.61 266.84C127.35 267.253 126.797 267.253 125.95 266.84L119.95 263.12C117.497 265.487 116.05 266.863 115.61 267.25C114.943 267.863 114.373 267.953 113.9 267.52C113.427 267.087 113.523 266.533 114.19 265.86L117.76 261.75C116.427 260.93 115.633 260.45 115.38 260.31C115.209 260.217 115.06 260.089 114.942 259.934C114.825 259.779 114.742 259.6 114.7 259.41C114.656 259.198 114.657 258.978 114.703 258.766C114.75 258.554 114.841 258.355 114.97 258.18V257.91ZM138.18 262.91C137.88 262.597 137.997 262.13 138.53 261.51C138.803 261.197 139.803 260.163 141.53 258.41C140.57 258.603 140.023 258.72 139.89 258.76C139.735 258.802 139.573 258.808 139.416 258.779C139.258 258.749 139.109 258.685 138.98 258.59C138.829 258.467 138.705 258.315 138.614 258.144C138.523 257.972 138.467 257.784 138.45 257.59C138.343 256.757 138.653 256.283 139.38 256.17L140.78 253.83L139.38 253.93C139.239 253.943 139.096 253.919 138.967 253.862C138.837 253.804 138.725 253.714 138.64 253.6C138.429 253.341 138.318 253.014 138.33 252.68C138.307 252.354 138.411 252.032 138.62 251.78C138.706 251.666 138.818 251.575 138.947 251.514C139.076 251.453 139.217 251.424 139.36 251.43C139.827 251.43 140.773 251.463 142.2 251.53C141.9 251.077 141.693 250.743 141.58 250.53C141.51 250.412 141.474 250.277 141.474 250.14C141.474 250.003 141.51 249.868 141.58 249.75C141.809 249.391 142.167 249.134 142.58 249.03C142.952 248.901 143.357 248.901 143.73 249.03C143.86 249.074 143.975 249.152 144.065 249.256C144.155 249.359 144.215 249.485 144.24 249.62C144.427 250.295 144.558 250.984 144.63 251.68C146.45 251.747 147.533 251.8 147.88 251.84C148.547 251.933 148.88 252.193 148.88 252.62C148.88 253.047 148.547 253.32 147.88 253.44C147.54 253.507 146.117 253.603 143.61 253.73C143.666 253.867 143.681 254.018 143.653 254.164C143.624 254.31 143.554 254.444 143.45 254.55L142.1 256.13H143.84C144.28 255.69 144.553 255.403 144.66 255.27C144.773 255.137 144.917 255.034 145.079 254.97C145.241 254.905 145.417 254.881 145.59 254.9C145.766 254.91 145.937 254.955 146.095 255.032C146.253 255.11 146.394 255.218 146.51 255.35L146.57 255.41C146.694 255.544 146.789 255.702 146.849 255.874C146.909 256.046 146.933 256.228 146.92 256.41C146.921 256.582 146.881 256.752 146.803 256.905C146.724 257.058 146.61 257.19 146.47 257.29C146.183 257.51 145.027 258.447 143 260.1C141.08 261.673 139.93 262.597 139.55 262.87C138.883 263.363 138.41 263.44 138.13 263.1L138.18 262.91ZM131.32 264.86C131.453 264.48 131.767 264.343 132.26 264.45C132.753 264.557 133.183 264.653 133.55 264.74C133.669 263.45 133.709 262.155 133.67 260.86L132.42 261.43C132.265 261.508 132.094 261.549 131.92 261.549C131.746 261.549 131.575 261.508 131.42 261.43C131.244 261.343 131.089 261.219 130.965 261.068C130.841 260.916 130.751 260.74 130.7 260.55C130.634 260.366 130.608 260.171 130.621 259.977C130.635 259.782 130.689 259.593 130.78 259.42C130.861 259.269 130.975 259.139 131.113 259.038C131.252 258.938 131.411 258.87 131.58 258.84C131.773 258.8 132.403 258.623 133.47 258.31C133.397 257.524 133.28 256.743 133.12 255.97C132.98 255.303 133.28 254.843 134.02 254.59C134.02 254.59 134.36 253.91 135.09 252.51L132.24 252.72C132.118 252.732 131.995 252.71 131.885 252.655C131.775 252.6 131.683 252.515 131.62 252.41C131.444 252.151 131.357 251.843 131.37 251.53C131.355 251.214 131.435 250.9 131.6 250.63C131.668 250.53 131.761 250.449 131.87 250.394C131.978 250.34 132.099 250.315 132.22 250.32L134.03 250.4C135.03 250.44 135.73 250.487 136.13 250.54C136.35 250.368 136.618 250.268 136.897 250.254C137.176 250.239 137.453 250.312 137.69 250.46C137.877 250.542 138.042 250.666 138.174 250.822C138.306 250.978 138.4 251.162 138.45 251.36C138.502 251.528 138.515 251.705 138.487 251.879C138.459 252.052 138.392 252.217 138.29 252.36C137.237 253.76 136.457 254.787 135.95 255.44C136.013 255.596 136.047 255.762 136.05 255.93C136.05 256.45 136.07 256.997 136.11 257.57L136.97 257.34C137.697 257.173 138.14 257.33 138.3 257.81C138.46 258.29 138.2 258.707 137.52 259.06L136.1 259.74C136.071 261.722 135.837 263.696 135.4 265.63C135.329 265.987 135.232 266.338 135.11 266.68C135.074 266.803 135.003 266.914 134.905 266.997C134.807 267.081 134.687 267.134 134.56 267.15C134.385 267.156 134.21 267.122 134.05 267.05C133.917 266.97 133.527 266.777 132.88 266.47C132.333 266.197 131.983 266.007 131.83 265.9C131.4 265.59 131.23 265.27 131.3 264.9L131.32 264.86ZM148.23 258.59C148.453 258.873 148.556 259.232 148.52 259.59C148.506 259.768 148.451 259.94 148.359 260.093C148.267 260.245 148.14 260.375 147.99 260.47C147.823 260.577 147.083 261.11 145.77 262.07C145.87 262.12 145.95 262.2 146 262.3C146.093 262.44 146.53 262.987 147.31 263.94C148.09 264.893 148.507 265.44 148.56 265.58C148.689 265.75 148.75 265.962 148.732 266.174C148.713 266.387 148.616 266.585 148.46 266.73C148.324 266.903 148.126 267.017 147.907 267.046C147.689 267.076 147.468 267.02 147.29 266.89C147.097 266.757 146.57 266.323 145.71 265.59C144.85 264.857 144.317 264.403 144.11 264.23C144.005 264.165 143.915 264.077 143.848 263.974C143.78 263.87 143.737 263.753 143.72 263.63C141.253 265.49 139.793 266.553 139.34 266.82C138.64 267.273 138.153 267.327 137.88 266.98L137.82 266.92C137.547 266.567 137.717 266.1 138.33 265.52C138.577 265.287 139.91 264.09 142.33 261.93C144.59 259.93 145.923 258.723 146.33 258.31C146.461 258.185 146.62 258.094 146.795 258.043C146.969 257.993 147.152 257.985 147.33 258.02C147.511 258.042 147.686 258.101 147.844 258.192C148.002 258.283 148.14 258.405 148.25 258.55L148.23 258.59ZM159.23 254.07H159.44C159.807 253.703 160.443 253.093 161.35 252.24L156.95 252.49C155.183 252.597 154.11 252.667 153.73 252.7C153.564 252.723 153.394 252.7 153.239 252.635C153.085 252.57 152.95 252.465 152.85 252.33C152.611 252.052 152.479 251.697 152.48 251.33C152.465 250.968 152.583 250.613 152.81 250.33C152.915 250.2 153.05 250.096 153.203 250.028C153.356 249.961 153.523 249.93 153.69 249.94L158.4 250.12C161.067 250.213 162.733 250.283 163.4 250.33C163.687 250.137 164.035 250.058 164.377 250.108C164.719 250.158 165.03 250.333 165.25 250.6C165.407 250.757 165.528 250.947 165.602 251.156C165.676 251.366 165.703 251.589 165.68 251.81C165.669 252.005 165.616 252.196 165.525 252.368C165.433 252.541 165.305 252.692 165.15 252.81C163.63 253.93 162.2 254.93 160.86 255.81C160.86 256.477 160.86 256.997 160.86 257.37C163.913 257.463 165.863 257.53 166.71 257.57C167.723 257.623 168.237 257.903 168.25 258.41C168.263 258.917 167.763 259.25 166.75 259.41C166.023 259.477 164.05 259.593 160.83 259.76C160.779 261.779 160.531 263.789 160.09 265.76C159.923 266.427 159.813 266.81 159.76 266.91C159.724 267.047 159.649 267.169 159.544 267.264C159.44 267.358 159.309 267.419 159.17 267.44C158.975 267.45 158.78 267.416 158.6 267.34C158.42 267.233 157.953 266.993 157.2 266.62C156.755 266.423 156.324 266.196 155.91 265.94C155.417 265.6 155.223 265.25 155.33 264.89V264.83C155.483 264.403 155.833 264.26 156.38 264.4C157.267 264.66 157.813 264.81 158.02 264.85C158.164 263.204 158.184 261.549 158.08 259.9C154.747 260.067 152.72 260.19 152 260.27C151.797 260.296 151.59 260.27 151.4 260.195C151.209 260.119 151.041 259.998 150.91 259.84C150.611 259.531 150.443 259.12 150.44 258.69C150.432 258.272 150.586 257.867 150.87 257.56C151.004 257.411 151.17 257.294 151.355 257.216C151.54 257.138 151.74 257.102 151.94 257.11C152.607 257.163 154.563 257.233 157.81 257.32C157.743 256.933 157.653 256.433 157.54 255.82C157.493 255.616 157.502 255.403 157.568 255.204C157.633 255.004 157.751 254.827 157.91 254.69C158.227 254.374 158.653 254.192 159.1 254.18L159.23 254.07Z" fill="#1E724E"/>
<path d="M249.68 1.42969H17.32C13.9953 1.42969 11.3 4.12493 11.3 7.44969V28.2897C11.3 31.6144 13.9953 34.3097 17.32 34.3097H249.68C253.005 34.3097 255.7 31.6144 255.7 28.2897V7.44969C255.7 4.12493 253.005 1.42969 249.68 1.42969Z" fill="#FEFEE3" stroke="#1E724E" stroke-width="2.87"/>
<path d="M19.24 13.4804C21.184 13.4804 22.76 11.9045 22.76 9.96043C22.76 8.01639 21.184 6.44043 19.24 6.44043C17.2959 6.44043 15.72 8.01639 15.72 9.96043C15.72 11.9045 17.2959 13.4804 19.24 13.4804Z" fill="#1E724E"/>
<path d="M247.76 13.4804C249.704 13.4804 251.28 11.9045 251.28 9.96043C251.28 8.01639 249.704 6.44043 247.76 6.44043C245.816 6.44043 244.24 8.01639 244.24 9.96043C244.24 11.9045 245.816 13.4804 247.76 13.4804Z" fill="#1E724E"/>
<path d="M19.24 29.8896C21.184 29.8896 22.76 28.3137 22.76 26.3696C22.76 24.4256 21.184 22.8496 19.24 22.8496C17.2959 22.8496 15.72 24.4256 15.72 26.3696C15.72 28.3137 17.2959 29.8896 19.24 29.8896Z" fill="#1E724E"/>
<path d="M247.76 29.8896C249.704 29.8896 251.28 28.3137 251.28 26.3696C251.28 24.4256 249.704 22.8496 247.76 22.8496C245.816 22.8496 244.24 24.4256 244.24 26.3696C244.24 28.3137 245.816 29.8896 247.76 29.8896Z" fill="#1E724E"/>
<path d="M28.91 13.4805H237.5C238.664 13.4805 239.781 13.943 240.604 14.7663C241.428 15.5896 241.89 16.7062 241.89 17.8705C241.89 19.0348 241.428 20.1514 240.604 20.9747C239.781 21.798 238.664 22.2605 237.5 22.2605H28.91C27.7457 22.2605 26.6291 21.798 25.8058 20.9747C24.9825 20.1514 24.52 19.0348 24.52 17.8705C24.52 16.7062 24.9825 15.5896 25.8058 14.7663C26.6291 13.943 27.7457 13.4805 28.91 13.4805Z" fill="#1E724E"/>
<path d="M230.37 19.5996H35.45C31.4957 19.5996 28.29 22.8053 28.29 26.7596V126.76C28.29 130.714 31.4957 133.92 35.45 133.92H230.37C234.324 133.92 237.53 130.714 237.53 126.76V26.7596C237.53 22.8053 234.324 19.5996 230.37 19.5996Z" fill="white" stroke="#1E724E" stroke-width="2.87"/>
<g opacity="0.3">
<path opacity="0.3" d="M37.6899 20.5098V135.35" stroke="#1E724E" stroke-width="0.57"/>
<path opacity="0.3" d="M49.4102 20.5098V135.35" stroke="#1E724E" stroke-width="0.57"/>
<path opacity="0.3" d="M61.1301 20.5098V135.35" stroke="#1E724E" stroke-width="0.57"/>
<path opacity="0.3" d="M72.8501 20.5098V135.35" stroke="#1E724E" stroke-width="0.57"/>
<path opacity="0.3" d="M84.5701 20.5098V135.35" stroke="#1E724E" stroke-width="0.57"/>
<path opacity="0.3" d="M96.29 20.5098V135.35" stroke="#1E724E" stroke-width="0.57"/>
<path opacity="0.3" d="M108 20.5098V135.35" stroke="#1E724E" stroke-width="0.57"/>
<path opacity="0.3" d="M119.72 20.5098V135.35" stroke="#1E724E" stroke-width="0.57"/>
<path opacity="0.3" d="M131.44 20.5098V135.35" stroke="#1E724E" stroke-width="0.57"/>
<path opacity="0.3" d="M143.16 20.5098V135.35" stroke="#1E724E" stroke-width="0.57"/>
<path opacity="0.3" d="M154.88 20.5098V135.35" stroke="#1E724E" stroke-width="0.57"/>
<path opacity="0.3" d="M166.6 20.5098V135.35" stroke="#1E724E" stroke-width="0.57"/>
<path opacity="0.3" d="M178.32 20.5098V135.35" stroke="#1E724E" stroke-width="0.57"/>
<path opacity="0.3" d="M190.04 20.5098V135.35" stroke="#1E724E" stroke-width="0.57"/>
<path opacity="0.3" d="M201.76 20.5098V135.35" stroke="#1E724E" stroke-width="0.57"/>
<path opacity="0.3" d="M213.47 20.5098V135.35" stroke="#1E724E" stroke-width="0.57"/>
<path opacity="0.3" d="M225.19 20.5098V135.35" stroke="#1E724E" stroke-width="0.57"/>
<path opacity="0.3" d="M29.79 29.5996H237.21" stroke="#1E724E" stroke-width="0.57"/>
<path opacity="0.3" d="M29.79 41.3096H237.21" stroke="#1E724E" stroke-width="0.57"/>
<path opacity="0.3" d="M29.79 53.0293H237.21" stroke="#1E724E" stroke-width="0.57"/>
<path opacity="0.3" d="M29.79 64.75H237.21" stroke="#1E724E" stroke-width="0.57"/>
<path opacity="0.3" d="M29.79 76.4697H237.21" stroke="#1E724E" stroke-width="0.57"/>
<path opacity="0.3" d="M29.79 88.1895H237.21" stroke="#1E724E" stroke-width="0.57"/>
<path opacity="0.3" d="M29.79 99.9102H237.21" stroke="#1E724E" stroke-width="0.57"/>
<path opacity="0.3" d="M29.79 111.63H237.21" stroke="#1E724E" stroke-width="0.57"/>
<path opacity="0.3" d="M29.79 123.35H237.21" stroke="#1E724E" stroke-width="0.57"/>
<path opacity="0.3" d="M29.79 135.069H237.21" stroke="#1E724E" stroke-width="0.57"/>
</g>
<path d="M78.9999 63.7304C82.4466 63.8771 84.3533 63.9704 84.7199 64.0104C85.16 63.4437 85.8566 63.3237 86.8099 63.6504C87.0632 63.7304 87.2979 63.86 87.5005 64.0317C87.7031 64.2034 87.8695 64.4137 87.9899 64.6504C88.0948 64.8257 88.1502 65.0261 88.1502 65.2304C88.1502 65.4347 88.0948 65.6351 87.9899 65.8104L86.8899 67.6504C86.3766 68.5104 86.0099 69.0971 85.7899 69.4104C85.722 69.5485 85.6272 69.6717 85.5111 69.7728C85.3951 69.8739 85.26 69.9509 85.1139 69.9993C84.9678 70.0477 84.8135 70.0666 84.66 70.0547C84.5065 70.0429 84.3569 70.0006 84.2199 69.9304C83.9254 69.8276 83.6815 69.6158 83.5383 69.3387C83.3951 69.0616 83.3635 68.7401 83.4499 68.4404C83.5033 68.1671 83.6966 67.5004 84.0299 66.4404C83.2033 66.5137 81.8699 66.5971 80.0299 66.6904L76.6999 66.8804L74.4999 69.7704C74.4194 69.9001 74.3139 70.0124 74.1895 70.1009C74.0651 70.1894 73.9243 70.2522 73.7754 70.2857C73.6265 70.3192 73.4724 70.3228 73.3221 70.2961C73.1718 70.2694 73.0283 70.2131 72.9 70.1304C72.7618 70.0624 72.6386 69.9676 72.5375 69.8516C72.4364 69.7355 72.3594 69.6005 72.311 69.4543C72.2626 69.3082 72.2438 69.1539 72.2556 69.0004C72.2675 68.847 72.3097 68.6974 72.3799 68.5604C72.9074 67.4298 73.4949 66.3282 74.1399 65.2604C75.2399 63.3137 75.8466 62.1871 75.9599 61.8804C76.023 61.6982 76.1329 61.5357 76.2786 61.4093C76.4243 61.283 76.6006 61.1971 76.79 61.1604C77.3005 61.0579 77.8308 61.1469 78.2799 61.4104C78.5117 61.5176 78.7196 61.6702 78.8914 61.8591C79.0631 62.048 79.1953 62.2695 79.2799 62.5104C79.3546 62.6969 79.3782 62.8999 79.3483 63.0985C79.3184 63.2971 79.2362 63.4841 79.11 63.6404L78.9999 63.7304ZM84.83 70.7304C84.9033 70.8437 85.4633 71.5504 86.51 72.8504C87.0695 73.4928 87.5683 74.1858 87.9999 74.9204C88.1093 75.1125 88.152 75.3355 88.1212 75.5544C88.0905 75.7733 87.9881 75.9759 87.83 76.1304C87.6367 76.3199 87.3884 76.4432 87.1207 76.4827C86.853 76.5223 86.5797 76.4759 86.3399 76.3504C85.6295 75.8743 84.9604 75.339 84.3399 74.7504L82.3399 73.0404C82.1968 72.933 82.085 72.7891 82.0164 72.6237C81.9478 72.4584 81.9249 72.2776 81.9499 72.1004C82.0402 71.5978 82.3017 71.142 82.69 70.8104C83.0182 70.4758 83.4617 70.2791 83.9299 70.2604C84.0997 70.2562 84.2677 70.2953 84.4182 70.3741C84.5687 70.4528 84.6966 70.5685 84.7899 70.7104L84.83 70.7304ZM74.6799 79.8304C74.5462 79.7284 74.4403 79.5942 74.3721 79.4404C74.3039 79.2866 74.2757 79.118 74.29 78.9504C74.341 78.453 74.5764 77.9928 74.9499 77.6604C75.2534 77.2981 75.6815 77.0626 76.15 77.0004C76.3186 76.9742 76.4912 76.997 76.6472 77.0662C76.8032 77.1353 76.9361 77.2479 77.0299 77.3904C78.8299 79.7904 79.7099 80.9371 79.6699 80.8304C79.7549 81.021 79.7849 81.2315 79.7567 81.4382C79.7284 81.6449 79.643 81.8396 79.51 82.0004C79.3303 82.1896 79.0989 82.3218 78.8446 82.3805C78.5903 82.4392 78.3244 82.4217 78.08 82.3304C77.4735 81.9812 76.901 81.5761 76.37 81.1204C75.31 80.3071 74.7333 79.8737 74.6399 79.8204L74.6799 79.8304ZM76.9999 69.8904C77.4933 70.3504 77.4733 70.9937 76.94 71.8204C76.7733 72.0804 76.2966 72.7137 75.51 73.7204C74.7233 74.7271 74.2199 75.3937 73.9999 75.7204C73.8777 75.9085 73.7102 76.063 73.5128 76.1696C73.3153 76.2761 73.0943 76.3315 72.87 76.3304C72.3383 76.3162 71.8314 76.1027 71.4498 75.7322C71.0683 75.3617 70.8399 74.8614 70.8099 74.3304C70.8142 74.1029 70.8716 73.8795 70.9775 73.6781C71.0834 73.4767 71.2349 73.3028 71.4199 73.1704C71.6799 72.9704 72.3133 72.4371 73.3199 71.5704C74.3266 70.7037 74.94 70.1904 75.16 70.0304C75.8933 69.4771 76.5066 69.4304 76.9999 69.8904ZM80.91 76.0004C80.71 77.0671 79.9933 77.4437 78.76 77.1304C78.0513 76.9626 77.3533 76.7522 76.6699 76.5004C76.551 76.4777 76.4382 76.4301 76.3389 76.3608C76.2396 76.2915 76.1561 76.202 76.0938 76.0981C76.0314 75.9943 75.9918 75.8784 75.9773 75.7582C75.9629 75.638 75.974 75.516 76.01 75.4004C76.0465 75.2032 76.1594 75.0284 76.3243 74.9141C76.4891 74.7998 76.6925 74.7554 76.8899 74.7904L78.1799 74.9604L77.9999 71.8104C77.9066 69.9571 77.8433 68.8937 77.8099 68.6204C77.6433 67.6137 78.2499 67.0904 79.6299 67.0504C80.2048 67.0034 80.7779 67.1591 81.2499 67.4904C81.4344 67.6081 81.5784 67.7795 81.6625 67.9816C81.7465 68.1836 81.7666 68.4066 81.7199 68.6204C81.6066 69.1337 81.4699 70.3704 81.3099 72.3304C81.1499 74.2904 81.0166 75.5137 80.91 76.0004ZM63.6399 72.1704C63.1066 71.7637 63.0866 71.1304 63.58 70.2704C63.86 69.7771 64.8433 68.3537 66.5299 66.0004C68.2166 63.6471 69.2166 62.2071 69.5299 61.6804C69.6371 61.4839 69.7967 61.321 69.9908 61.2098C70.185 61.0986 70.4063 61.0434 70.6299 61.0504C71.1791 61.0387 71.7144 61.223 72.1399 61.5704L72.2499 61.6504C72.7057 61.9708 73.0208 62.4541 73.1299 63.0004C73.1852 63.2204 73.181 63.4512 73.1178 63.6691C73.0545 63.887 72.9345 64.0842 72.7699 64.2404C72.3299 64.6804 71.4233 65.6537 70.05 67.1604C70.2361 67.2626 70.3849 67.4213 70.4748 67.6137C70.5647 67.8061 70.591 68.0221 70.55 68.2304C70.4966 68.6904 70.3866 70.1837 70.22 72.7104C70.0533 75.2371 69.9333 76.7137 69.8599 77.1404C69.6399 77.9871 69.2266 78.4104 68.62 78.4104C68.0133 78.4104 67.5999 77.9871 67.3799 77.1404L66.91 70.6204C66.2433 71.3337 65.8199 71.7637 65.6399 71.9104C64.8866 72.5771 64.2433 72.7071 63.7099 72.3004L63.6399 72.1704ZM68.1799 79.3204C68.7333 79.6337 68.8633 80.2104 68.5699 81.0504C68.4566 81.3637 68.1533 82.0804 67.66 83.2004C67.1066 84.4671 66.7733 85.2204 66.66 85.4604C66.5928 85.6626 66.4776 85.8455 66.3244 85.9935C66.1711 86.1415 65.9843 86.2502 65.7799 86.3104C65.5389 86.3705 65.2883 86.3821 65.0428 86.3443C64.7973 86.3065 64.5617 86.2202 64.3499 86.0904C63.9343 85.853 63.6289 85.4614 63.4999 85.0004C63.4552 84.7953 63.4571 84.5828 63.5055 84.3785C63.554 84.1742 63.6478 83.9835 63.7799 83.8204C65.8333 80.9937 66.7599 79.7004 66.5599 79.9404C67.0866 79.2337 67.6266 79.0271 68.1799 79.3204ZM71.01 78.3204C71.3519 78.246 71.709 78.2894 72.0231 78.4438C72.3373 78.5981 72.5899 78.8542 72.7399 79.1704C73.8799 82.2704 75.0533 84.0937 76.26 84.6404C77.5116 85.0907 78.8427 85.2779 80.1699 85.1904C80.4276 85.1861 80.6847 85.1661 80.94 85.1304C80.98 84.9437 81.0166 84.6671 81.05 84.3004L81.16 83.5804C81.2333 83.0137 81.4266 82.7204 81.7399 82.7004H81.8499C82.1633 82.7004 82.4466 83.0337 82.6999 83.7004C82.9681 84.4499 83.1787 85.2188 83.33 86.0004C83.2566 86.6671 82.5499 87.1071 81.2099 87.3204C78.7822 87.7973 76.2668 87.5217 73.9999 86.5304C71.7066 85.3771 70.1833 83.1504 69.4299 79.8504C69.3831 79.6762 69.3815 79.493 69.4252 79.318C69.469 79.143 69.5566 78.982 69.6799 78.8504C70.0117 78.5535 70.445 78.3959 70.8899 78.4104L71.01 78.3204ZM88.4199 83.4104C88.4922 83.6242 88.4901 83.8562 88.4138 84.0686C88.3376 84.281 88.1917 84.4614 87.9999 84.5804C87.7851 84.7279 87.5306 84.8068 87.2699 84.8068C87.0093 84.8068 86.7548 84.7279 86.5399 84.5804C86.7066 84.6737 85.5866 83.5171 83.1799 81.1104C83.0566 80.979 82.971 80.8167 82.9323 80.6407C82.8935 80.4647 82.9031 80.2814 82.9599 80.1104C83.1102 79.6491 83.4229 79.2582 83.8399 79.0104C84.2128 78.7395 84.6707 78.6117 85.1299 78.6504C85.299 78.6666 85.4612 78.7256 85.6012 78.8218C85.7411 78.918 85.8543 79.0483 85.9299 79.2004L87.2499 81.3504C87.7215 82.0017 88.1143 82.7066 88.4199 83.4504V83.4104ZM94.33 81.0404L99.1999 81.4504L99 76.6304C98.6533 76.6704 97.1766 76.7804 94.5699 76.9604L94.33 81.0404ZM94.8499 69.6804C94.7366 71.8271 94.6733 73.2471 94.66 73.9404C96.0933 73.9804 97.4866 74.0437 98.8399 74.1304C98.7466 71.8771 98.6633 70.2904 98.5899 69.3704C97.6233 69.4971 96.3799 69.6137 94.8599 69.7204L94.8499 69.6804ZM108 61.6604C108.541 61.8601 108.989 62.2516 109.26 62.7604C109.395 62.9725 109.471 63.2163 109.482 63.4673C109.492 63.7184 109.436 63.9678 109.32 64.1904C109.173 64.4637 108.84 65.1604 108.32 66.2804C109.653 66.3204 110.847 66.3771 111.9 66.4504C112.332 66.0958 112.882 65.9172 113.44 65.9504C113.763 65.9435 114.083 66.004 114.381 66.128C114.679 66.2519 114.948 66.4367 115.17 66.6704C115.367 66.8702 115.512 67.1146 115.594 67.3828C115.676 67.6509 115.691 67.9348 115.64 68.2104C115.547 68.9971 115.29 71.7204 114.87 76.3804C114.45 80.8537 114.157 83.7504 113.99 85.0704C113.803 86.7771 112.913 87.3104 111.32 86.6704L108.57 85.5704C107.817 85.1837 107.523 84.7071 107.69 84.1404C107.857 83.5737 108.317 83.3704 109.07 83.5304C109.677 83.5837 110.41 83.6771 111.27 83.8104C111.27 82.8771 111.27 80.6204 111.27 77.0404V69.3704L106.73 69.6704C105.903 71.3571 105.343 72.4771 105.05 73.0304L105.49 72.7504C105.941 72.4725 106.479 72.3727 107 72.4704C107.195 72.5143 107.377 72.6044 107.53 72.7332C107.683 72.862 107.803 73.0256 107.88 73.2104C107.953 73.3971 108.403 74.2304 109.23 75.7104C109.725 76.4845 110.122 77.3177 110.41 78.1904C110.484 78.4435 110.467 78.7147 110.361 78.9561C110.254 79.1976 110.067 79.3939 109.83 79.5104C109.567 79.6662 109.261 79.7319 108.958 79.6976C108.655 79.6633 108.371 79.5309 108.15 79.3204C106.775 78.0584 105.565 76.627 104.55 75.0604C104.38 74.829 104.292 74.5475 104.3 74.2604C104.158 74.4983 103.937 74.6788 103.676 74.7702C103.414 74.8616 103.129 74.8581 102.87 74.7604L102.76 74.7004C102.591 74.6476 102.439 74.551 102.32 74.4204C101.987 81.0404 101.83 84.2771 101.85 84.1304C101.723 85.3971 101.33 86.0304 100.67 86.0304C100.01 86.0304 99.6066 85.3971 99.4599 84.1304V83.9104C97.0399 84.0971 95.3266 84.2437 94.3199 84.3504C94.1066 85.6037 93.6666 86.2304 92.9999 86.2304C92.3333 86.2304 91.9299 85.5971 91.7899 84.3304C91.7166 83.5771 91.5799 80.8804 91.3799 76.2404C91.1799 71.6004 91.0533 68.8871 90.9999 68.1004C90.9712 67.8426 91.0033 67.5817 91.0936 67.3386C91.1839 67.0955 91.3299 66.8769 91.5199 66.7004C91.9222 66.3268 92.451 66.1196 92.9999 66.1204C93.3489 66.1194 93.6926 66.2053 93.9999 66.3704C94.0333 66.1104 94.1433 65.5137 94.33 64.5804C94.5166 63.6471 94.6166 63.0404 94.6299 62.7604C94.6521 62.5633 94.7324 62.3772 94.8606 62.2259C94.9888 62.0745 95.1592 61.9647 95.3499 61.9104C95.8831 61.718 96.4668 61.718 97 61.9104C97.5636 62.054 98.0483 62.4131 98.3499 62.9104C98.4658 63.0833 98.5325 63.2843 98.5431 63.4921C98.5536 63.6999 98.5076 63.9067 98.41 64.0904L97.0899 66.7604L98.9599 66.9304C99.3594 66.5253 99.9002 66.2907 100.469 66.2758C101.038 66.2609 101.59 66.4668 102.01 66.8504C102.193 67.0322 102.334 67.2515 102.424 67.4932C102.514 67.735 102.55 67.9933 102.53 68.2504C102.53 68.3971 102.467 69.4137 102.34 71.3004C102.54 70.6337 103.07 69.0471 103.93 66.5404C104.597 64.4871 105.01 63.1537 105.17 62.5404C105.234 62.3004 105.36 62.0816 105.536 61.906C105.711 61.7304 105.93 61.6043 106.17 61.5404C106.73 61.356 107.339 61.3844 107.88 61.6204L108 61.6604ZM137.35 82.6604C140.743 82.8071 142.623 82.9004 142.99 82.9404C144.11 83.0671 144.67 83.4604 144.67 84.1204C144.67 84.7804 144.113 85.2071 143 85.4004C142.267 85.5137 139.847 85.6871 135.74 85.9204C131.433 86.1604 129.003 86.3071 128.45 86.3604C128.212 86.3872 127.97 86.3536 127.748 86.2627C127.527 86.1718 127.331 86.0266 127.18 85.8404C126.847 85.4265 126.663 84.9119 126.66 84.3804C126.63 83.8472 126.809 83.3234 127.16 82.9204C127.308 82.7371 127.498 82.5917 127.714 82.4961C127.929 82.4005 128.164 82.3574 128.4 82.3704C129.133 82.4037 131.243 82.4771 134.73 82.5904L134.48 78.4904C132.133 78.6171 130.667 78.7171 130.08 78.7904C129.865 78.8092 129.648 78.7732 129.451 78.6858C129.253 78.5984 129.081 78.4623 128.95 78.2904C128.634 77.8934 128.467 77.3978 128.48 76.8904C128.447 76.4004 128.604 75.9166 128.92 75.5404C129.042 75.3685 129.204 75.2292 129.392 75.135C129.581 75.0408 129.789 74.9946 130 75.0004L134.32 75.1704L134.1 70.6304C132.767 70.6837 131.887 70.7404 131.46 70.8004C131.324 70.8127 131.186 70.8127 131.05 70.8004C130.821 71.5399 130.548 72.2646 130.23 72.9704C129.883 73.6837 129.407 73.9504 128.8 73.7704H128.69C128.103 73.5904 127.837 73.0937 127.89 72.2804C127.926 71.774 127.989 71.2699 128.08 70.7704C127.974 70.8726 127.853 70.9571 127.72 71.0204C127.512 71.1533 127.261 71.2044 127.018 71.1637C126.774 71.1231 126.554 70.9937 126.4 70.8004C126.273 70.6537 125.917 70.1571 125.33 69.3104L125 78.7204C124.853 82.3337 124.753 84.5171 124.7 85.2704C124.607 86.7371 124.187 87.4704 123.44 87.4704C122.693 87.4704 122.263 86.7371 122.15 85.2704C122.097 84.5371 121.997 82.3004 121.85 78.5604L121.38 69.0004L120.58 72.8504C120.569 73.0389 120.509 73.2214 120.408 73.3806C120.306 73.5399 120.166 73.6706 120 73.7604C119.602 73.9484 119.148 73.9771 118.73 73.8404C117.703 73.4937 117.37 72.8804 117.73 72.0004C117.857 71.7271 118.167 70.9837 118.66 69.7704C119.153 68.5571 119.463 67.8237 119.59 67.5704C119.923 66.8371 120.363 66.5437 120.91 66.6904C120.982 66.6986 121.052 66.7226 121.114 66.7606C121.176 66.7986 121.23 66.8497 121.27 66.9104C121.217 65.5771 121.153 64.4671 121.08 63.5804C121.065 63.2831 121.12 62.9865 121.24 62.7141C121.36 62.4416 121.541 62.2007 121.77 62.0104C122.213 61.5838 122.805 61.347 123.42 61.3504C123.713 61.3485 124.004 61.4049 124.275 61.5165C124.547 61.6281 124.793 61.7926 125 62.0004C125.208 62.2029 125.369 62.4482 125.473 62.7193C125.576 62.9904 125.62 63.2808 125.6 63.5704C125.507 65.0904 125.46 65.9237 125.46 66.0704C125.815 65.9057 126.22 65.8842 126.59 66.0104C126.726 66.0464 126.85 66.1198 126.947 66.2222C127.045 66.3247 127.111 66.4522 127.14 66.5904C127.193 66.7904 127.377 67.2771 127.69 68.0504C128.003 68.8237 128.207 69.3471 128.3 69.6204C128.847 66.7204 129.123 65.2271 129.13 65.1404C129.15 64.947 129.226 64.7636 129.348 64.6126C129.471 64.4616 129.635 64.3497 129.82 64.2904C130.291 64.114 130.809 64.114 131.28 64.2904H131.36C131.834 64.4121 132.251 64.6949 132.54 65.0904C132.663 65.2485 132.741 65.4371 132.766 65.6361C132.791 65.835 132.761 66.037 132.68 66.2204L132.3 67.2204L133.95 67.3004C133.857 65.3004 133.773 63.9671 133.7 63.3004C133.673 63.0134 133.719 62.7242 133.835 62.4601C133.95 62.1959 134.131 61.9655 134.36 61.7904C134.826 61.3656 135.44 61.1396 136.07 61.1604C136.373 61.151 136.675 61.2018 136.958 61.3099C137.241 61.4181 137.5 61.5814 137.72 61.7904C137.936 61.9738 138.105 62.2071 138.211 62.4701C138.318 62.7332 138.358 63.0181 138.33 63.3004C138.217 64.7471 138.133 66.1137 138.08 67.4004C140.227 67.5137 141.427 67.5871 141.68 67.6204C142.54 67.7671 142.98 68.1604 143 68.8004C143.02 69.4404 142.58 69.8437 141.68 70.0104C141.26 70.1037 140.013 70.2137 137.94 70.3404L137.69 75.2604C139.69 75.3137 141.023 75.3871 141.69 75.4804C142.663 75.6071 143.15 75.9937 143.15 76.6404C143.15 77.2871 142.677 77.7404 141.73 78.0004C141.383 78.0537 140 78.1737 137.58 78.3604C137.487 80.2671 137.413 81.6437 137.36 82.4904L137.35 82.6604ZM155.7 65.2204L150.56 65.5504L150.31 68.8504L156 69.2104L155.7 65.2204ZM147.7 71.2204C147.647 70.8004 147.547 69.6537 147.4 67.7804L147.1 64.2304C147.06 64.0078 147.079 63.7786 147.157 63.566C147.234 63.3535 147.366 63.1652 147.54 63.0204C147.722 62.8442 147.939 62.7072 148.176 62.6178C148.414 62.5284 148.667 62.4884 148.92 62.5004C149.266 62.4909 149.61 62.5665 149.92 62.7204L156.03 63.1104C156.212 62.9342 156.429 62.7972 156.666 62.7078C156.904 62.6184 157.157 62.5784 157.41 62.5904C157.663 62.5818 157.915 62.6234 158.152 62.7126C158.389 62.8019 158.606 62.937 158.79 63.1104C158.962 63.2499 159.094 63.4329 159.171 63.6404C159.248 63.8479 159.269 64.0723 159.23 64.2904C159.177 64.7504 159.077 65.8971 158.93 67.7304L158.63 71.0604C158.483 72.0337 158.09 72.5204 157.45 72.5204C156.81 72.5204 156.417 72.1071 156.27 71.2804C155.65 71.3337 154.613 71.4071 153.16 71.5004L150 71.7004C149.833 72.3671 149.467 72.7004 148.9 72.7004C148.333 72.7004 147.923 72.2137 147.67 71.2404L147.7 71.2204ZM154.58 74.5204L156.37 74.6004C156.765 74.3532 157.224 74.228 157.69 74.2404C157.995 74.2173 158.301 74.2569 158.59 74.3566C158.879 74.4564 159.144 74.6142 159.37 74.8204C159.56 74.9844 159.703 75.1955 159.786 75.4325C159.868 75.6694 159.887 75.9239 159.84 76.1704C159.747 76.8371 159.563 78.3971 159.29 80.8504C159.017 83.3037 158.833 84.9071 158.74 85.6604C158.54 86.9271 157.687 87.3504 156.18 86.9304L154 86.2504C153.287 86.0104 153.003 85.5804 153.15 84.9604C153.277 84.4804 153.66 84.2704 154.3 84.3304L155.87 84.5004L155.71 77.2704L153.1 77.4404C150.053 83.3471 148.53 86.2904 148.53 86.2704C148.123 87.0971 147.59 87.3904 146.93 87.1504C146.27 86.9104 146.087 86.3137 146.38 85.3604C146.527 84.8071 147.527 82.2404 149.38 77.6604C148.187 77.7137 147.407 77.7704 147.04 77.8304C146.848 77.8396 146.656 77.8016 146.482 77.7197C146.307 77.6378 146.156 77.5144 146.04 77.3604C145.754 76.9799 145.599 76.5165 145.6 76.0404C145.583 75.5758 145.727 75.1197 146.01 74.7504C146.126 74.5951 146.277 74.4691 146.451 74.3824C146.625 74.2956 146.816 74.2504 147.01 74.2504L150.64 74.4204C150.86 73.8337 151.027 73.3571 151.14 72.9904C151.201 72.7723 151.309 72.5699 151.455 72.3973C151.602 72.2247 151.785 72.0859 151.99 71.9904C152.244 71.8853 152.515 71.8312 152.79 71.8312C153.064 71.8312 153.336 71.8853 153.59 71.9904C153.815 72.0748 154.021 72.2043 154.195 72.371C154.369 72.5378 154.507 72.7382 154.6 72.96C154.694 73.1819 154.741 73.4205 154.74 73.6613C154.738 73.9021 154.687 74.14 154.59 74.3604L154.58 74.5204ZM163.82 80.0004C163.653 81.0071 163.27 81.5104 162.67 81.5104C162.07 81.5104 161.673 81.0071 161.48 80.0004C161.447 79.5604 161.327 77.3237 161.12 73.2904C160.933 69.4571 160.797 67.2004 160.71 66.5204C160.68 66.3008 160.709 66.0771 160.795 65.8729C160.882 65.6687 161.021 65.4917 161.2 65.3604C161.626 65.0558 162.136 64.8921 162.66 64.8921C163.184 64.8921 163.694 65.0558 164.12 65.3604C164.291 65.496 164.422 65.6755 164.5 65.8797C164.577 66.0839 164.598 66.3053 164.56 66.5204C164.507 67.1871 164.38 69.4437 164.18 73.2904C163.973 77.2371 163.853 79.4737 163.82 80.0004ZM168 61.7204C168.29 61.7064 168.579 61.7534 168.85 61.8585C169.12 61.9636 169.366 62.1244 169.57 62.3304C169.767 62.5156 169.919 62.7434 170.014 62.9965C170.11 63.2496 170.146 63.5212 170.12 63.7904C170.047 64.7837 169.9 68.2671 169.68 74.2404C169.44 80.4204 169.277 84.2337 169.19 85.6804C169.211 86.0067 169.152 86.3331 169.018 86.6312C168.884 86.9294 168.678 87.19 168.42 87.3904C168.165 87.5219 167.882 87.5906 167.595 87.5906C167.308 87.5906 167.025 87.5219 166.77 87.3904L163.39 85.8804C162.657 85.4937 162.417 85.0171 162.67 84.4504C162.89 84.0304 163.35 83.8737 164.05 83.9804L166.75 84.4504C166.697 83.4571 166.57 80.0104 166.37 74.1104C166.17 68.0237 166.05 64.5937 166.01 63.8204C165.982 63.5507 166.011 63.2781 166.098 63.021C166.184 62.7639 166.325 62.5283 166.51 62.3304C166.702 62.131 166.934 61.9739 167.191 61.8688C167.447 61.7638 167.723 61.7133 168 61.7204ZM180.27 69.2004C181.203 69.2537 183.13 69.3371 186.05 69.4504L191.69 69.7004L191.55 67.7004C190.69 67.7737 188.793 67.8737 185.86 68.0004C182.687 68.1471 180.843 68.2404 180.33 68.2804L180.27 69.2004ZM191.27 64.1104L180.57 64.5804L180.51 65.3804L191.38 65.7704L191.27 64.1104ZM187.75 82.6004L197 85.4304C198.267 85.7971 198.827 86.3571 198.68 87.1104C198.533 87.8637 197.773 88.1204 196.4 87.8804C195.467 87.7537 192.667 87.1937 188 86.2004C183.213 85.1737 180.407 84.5971 179.58 84.4704C179.175 84.4233 178.797 84.24 178.51 83.9504C177.023 85.7104 176.143 86.7371 175.87 87.0304C175.791 87.1651 175.686 87.2821 175.56 87.374C175.434 87.466 175.291 87.5309 175.139 87.5647C174.987 87.5985 174.829 87.6005 174.676 87.5705C174.523 87.5405 174.378 87.4792 174.25 87.3904C173.683 87.0437 173.563 86.4937 173.89 85.7404C174.037 85.4071 174.907 84.0737 176.5 81.7404C178.093 79.4071 178.983 78.0304 179.17 77.6104C179.257 77.4318 179.384 77.2763 179.542 77.1564C179.7 77.0365 179.885 76.9556 180.08 76.9204C180.594 76.8146 181.129 76.9151 181.57 77.2004C181.798 77.3196 181.997 77.4869 182.154 77.6906C182.311 77.8943 182.423 78.1296 182.48 78.3804C182.537 78.5794 182.544 78.7894 182.5 78.9917C182.456 79.194 182.364 79.3824 182.23 79.5404L181.32 80.6704L185.17 81.8504C184.99 79.1837 184.843 77.4337 184.73 76.6004C179.23 76.8604 176.187 77.0271 175.6 77.1004C175.339 77.1361 175.073 77.1042 174.828 77.0079C174.583 76.9117 174.367 76.7541 174.2 76.5504C173.817 76.1488 173.602 75.6155 173.6 75.0604C173.586 74.7922 173.627 74.524 173.722 74.2727C173.816 74.0214 173.962 73.7924 174.15 73.6004C174.32 73.4048 174.533 73.2509 174.773 73.1503C175.012 73.0498 175.271 73.0053 175.53 73.0204L178.34 73.1304C178.007 72.9437 177.777 72.4771 177.65 71.7304C177.597 71.2504 177.487 69.8571 177.32 67.5504C177.153 65.2437 177.047 63.7871 177 63.1804C176.969 62.9581 176.992 62.7315 177.069 62.5205C177.146 62.3095 177.273 62.1206 177.44 61.9704C177.626 61.7936 177.846 61.6564 178.087 61.5671C178.327 61.4777 178.584 61.438 178.84 61.4504C179.189 61.4449 179.534 61.5311 179.84 61.7004C180.68 61.7537 182.54 61.8371 185.42 61.9504L191.42 62.2304C191.599 62.0062 191.83 61.8289 192.093 61.7139C192.357 61.599 192.644 61.5497 192.93 61.5704C193.457 61.5486 193.97 61.7354 194.36 62.0904C194.526 62.2466 194.651 62.4419 194.722 62.6584C194.794 62.8749 194.81 63.1059 194.77 63.3304C194.717 63.8637 194.607 65.2304 194.44 67.4304L194.14 71.4304C194.047 72.4371 193.667 72.9404 193 72.9404C192.333 72.9404 191.94 72.4737 191.82 71.5404C191.067 71.5937 189.097 71.6871 185.91 71.8204L179.97 72.1204C179.948 72.3278 179.877 72.5269 179.762 72.701C179.647 72.875 179.492 73.0189 179.31 73.1204C181.197 73.1937 184.53 73.2937 189.31 73.4204L196.46 73.6404C197.747 73.7137 198.413 74.0704 198.46 74.7104C198.507 75.3504 197.863 75.7637 196.53 75.9504C195.683 76.0437 192.94 76.1904 188.3 76.3904L188.14 78.0004C192.467 78.1471 194.897 78.2771 195.43 78.3904C196.097 78.5371 196.43 78.8704 196.43 79.3904C196.43 79.9104 196.097 80.2437 195.43 80.3904C194.227 80.5682 193.015 80.6784 191.8 80.7204L187.87 80.9704L187.75 82.6004Z" fill="#1E724E"/>
</g>
<defs>
<clipPath id="clip0_236:6409">
<rect width="258" height="447" fill="white"/>
</clipPath>
</defs>
</svg>
