<svg xmlns="http://www.w3.org/2000/svg" xmlns:xlink="http://www.w3.org/1999/xlink" viewBox="0 0 414.28 507.89"><defs><linearGradient id="未命名的渐变_690" x1="-31.54" y1="178.43" x2="158.22" y2="507.11" gradientUnits="userSpaceOnUse"><stop offset="0" stop-color="#ff8b00"/><stop offset=".07" stop-color="#f7880c"/><stop offset=".19" stop-color="#e2802c"/><stop offset=".35" stop-color="#c1735f"/><stop offset=".47" stop-color="#a4688b"/><stop offset=".6" stop-color="#a276a8"/><stop offset=".87" stop-color="#9c9bf1"/><stop offset=".93" stop-color="#9ba2ff"/></linearGradient><linearGradient id="未命名的渐变_690-2" x1="228.42" y1="180.82" x2="360.88" y2="180.82" xlink:href="#未命名的渐变_690"/><linearGradient id="未命名的渐变_690-3" x1="189.01" y1="372.76" x2="414.28" y2="372.76" xlink:href="#未命名的渐变_690"/><style>.cls-1{fill:#152968}.cls-1,.cls-2,.cls-4{fill-rule:evenodd}.cls-2{fill:#1b425f}.cls-4{fill:#ffd6cb}</style></defs><g id="图层_2" data-name="图层 2"><g id="图层_1-2" data-name="图层 1"><path id="Fill-83" class="cls-1" d="M137.62 148.2c3.73 6.37 4.89 29.75 55.47 33.16 15 1 24 29.76 24 29.76s-54 10.57-68.32-3.32-11.17-59.6-11.17-59.6"/><path id="Fill-85" class="cls-2" d="M127.83 307.48c4.76 1.52 143.48-22.13 151.61-10.67 7.93 11.17 44.19 143.26 44.19 143.26l23.11-8.38s-31.27-176.8-43.51-182.89-148.21.76-163.17 8.38-15 50.3-15 50.3z"/><path id="Fill-88" d="M187.16 348.06c-6.09-5.68-20.37-15.05-48.08-14.68l-7.23.1c-23.5.32-55.68.75-78.38-.84-7.67-.54-9.65-3.1-10.3-3.94-4.13-5.34-3.1-19.81-1.8-38.14 1.17-16.54 2.63-37.11 1.47-62-1.51-32.15-8.73-53.65-21.46-63.93a26.33 26.33 0 0 0-17.31-6.24c-2.71.05-4.64 3-3.92 5.89l1.48 6a4.23 4.23 0 0 0 3.67 3.39 14.47 14.47 0 0 1 8.14 3.33c6.33 5.11 14.22 18.35 15.82 52.36 1.12 23.85-.3 43.87-1.44 60-1.68 23.59-2.78 39.17 5.08 49.34 4.29 5.53 10.73 8.53 19.72 9.16l1.35.08-21.91 150.21 8.75.59 28-150.11c20.68.66 44.65.34 63.25.09l5-.07 28 150.09 8.74-.59L152 349.32c14.25 1.84 22.13 6.86 25.66 9.82a3.79 3.79 0 0 0 5-.05l4.36-3.76a5 5 0 0 0 .12-7.27" style="fill:url(#未命名的渐变_690);fill-rule:evenodd"/><path id="Fill-92" class="cls-2" d="M68 277s-15 54.11 50.31 57.15 112.86-11.93 126.45.26 40 61.11 50.77 73.16c14.05 15.74 50.53 43.18 50.53 43.18l22.44-18.29S295.07 338 280.12 302.9s-141.41-41.15-141.41-41.15z"/><path id="Fill-94" class="cls-1" d="M102 83.44s-25.84 30.48-36.72 54.86S49 217.55 42.17 246.51s14.95 54.87 42.15 39.63 41.81-24 49.63-21c12.49 4.87 33.76 7.88 39.77.76 7-8.3 15.79-31.92 23.23-40.76 11.55-13.75-21.93-34.78-34-37.53-25.85-5.91-22.53-26.26-22.9-29.53-3.74-32.39-2.72-56.39-16.32-64S102 83.44 102 83.44"/><path id="Fill-96" class="cls-4" d="M143.58 14.53c-10.39 2.21-26.66 11.77-29.08 34.41s13.73 46.18 21 49.8 27.5-18.11 33.93-41.65-9.18-46.09-25.85-42.56"/><path id="Fill-104" class="cls-4" d="M116.61 62.1s-8.5 13.72-13.94 19.43a84.7 84.7 0 0 0-10.19 14.1s19-2.29 23.79.76a69.27 69.27 0 0 0 8.16 4.57s2.38-14.09 2.72-15.24-10.54-23.62-10.54-23.62"/><path id="Fill-108" style="fill:url(#未命名的渐变_690-2);fill-rule:evenodd" d="m228.47 236.61-.05-7.62 98.78-.75 27.16-103.21 6.52 2.16-28.59 108.63-103.82.79z"/><path id="Fill-110" class="cls-4" d="M195.13 216.54c16.06-5.5 18-16.72 29.92-8.13 18.52 13.34 36.71 11.24 30.76 17.72-8.33 9.06-29.86-1.46-39.83 2.6s-24.47 4.07-24.47 4.07z"/><path id="Fill-112" d="M167.36 44.68a75.53 75.53 0 0 1-11.66-1.63c-5.44-1.52-7.82 1.14-10.53 8S141.09 70.86 134.46 69c-2-.58 1.87-10.29 2.21-16.38s-5.78-9.15-7.48-4.2-5.1 11-7.14 13c-.83.77-4.08 1.9-5.44.76s-7.48-13-.34-25.91 6.46-8.38 13.26-20.19S142.85.38 153.73 0c4.35-.15 14.54 5.14 26.42 7.79 17.81 4 37.37 6.9 30.45 15.58a80.83 80.83 0 0 1-8.17 8.83 45.56 45.56 0 0 1-35.07 12.48z" style="fill:#c4570c;fill-rule:evenodd"/><path id="Fill-106" style="fill:url(#未命名的渐变_690-3);fill-rule:evenodd" d="M414.28 237.62H189.01v18.29h26.43l-16.68 251.98h5.44l29.48-251.98h132.59l29.48 251.98h5.44l-16.68-251.98h29.77v-18.29z"/></g></g></svg>