<svg width="89" height="63" viewBox="0 0 89 63" fill="none" xmlns="http://www.w3.org/2000/svg">
<rect width="2.92969" height="1.75781" rx="0.878906" transform="matrix(0.63834 0.769754 -0.769753 0.638342 7.48126 51.5962)" fill="#8C8C8C"/>
<path d="M8.47881 45.0648L11.471 48.673L42.5919 22.8651L49.1318 17.4416C52.5145 14.6364 66.458 19.0586 73.768 20.9892L74.978 16.9409C66.4928 14.97 50.8754 9.90613 46.1396 13.8334L39.5997 19.2568L8.47881 45.0648Z" fill="#8C8C8C"/>
<path d="M8.76744 44.6465C9.26525 44.3334 9.91806 44.4377 10.2935 44.8904L11.9735 46.9163C12.349 47.369 12.3307 48.0299 11.9308 48.4611L5.90364 54.9618C5.42232 55.4809 4.59415 55.458 4.14225 54.9131L0.98575 51.1067C0.533852 50.5618 0.664595 49.7437 1.26382 49.3668L8.76744 44.6465Z" fill="#C4C4C4"/>
<circle cx="80.1133" cy="21.731" r="7.03125" stroke="white" stroke-width="2.92969"/>
</svg>
