<svg width="101" height="101" viewBox="0 0 101 101" fill="none" xmlns="http://www.w3.org/2000/svg">
<path d="M50.793 100.304C78.4611 100.304 100.891 77.8742 100.891 50.2061C100.891 22.5379 78.4611 0.108398 50.793 0.108398C23.1248 0.108398 0.695312 22.5379 0.695312 50.2061C0.695312 77.8742 23.1248 100.304 50.793 100.304Z" fill="white"/>
<path d="M3.90043 50.4053C3.88794 59.6933 6.62056 68.7778 11.755 76.5175C16.8894 84.2572 24.1966 90.307 32.7586 93.9068C41.3206 97.5065 50.7554 98.4957 59.8778 96.7501C69.0003 95.0044 77.4033 90.6018 84.0314 84.0952C90.6594 77.5887 95.2168 69.2686 97.131 60.18C99.0452 51.0915 98.2308 41.6399 94.7901 33.0128C91.3494 24.3857 85.4358 16.9677 77.7924 11.691C70.1491 6.41421 61.1167 3.51395 51.8301 3.35456C45.5784 3.24014 39.3665 4.37251 33.5573 6.68553C27.7481 8.99855 22.4579 12.4459 17.9958 16.8261C13.5337 21.2064 9.9891 26.4319 7.56897 32.1973C5.14885 37.9627 3.90172 44.1526 3.90043 50.4053Z" fill="white"/>
<path d="M3.90046 50.405C3.9108 41.0441 6.70898 31.8985 11.9381 24.1343C17.1673 16.3702 24.5905 10.3394 33.261 6.8112C41.9315 3.28296 51.4564 2.41713 60.6209 4.3241C69.7855 6.23108 78.1744 10.8245 84.7179 17.5184C91.2613 24.2124 95.6628 32.7036 97.3608 41.9092C99.0589 51.1148 97.9767 60.6175 94.2522 69.2055C90.5277 77.7935 84.3298 85.0777 76.4487 90.1289C68.5677 95.1802 59.3607 97.7696 50.002 97.5671C37.6727 97.3078 25.9371 92.2225 17.3168 83.4039C8.69645 74.5852 3.87932 62.737 3.90046 50.405ZM59.5645 12.9695L59.3595 12.8991C59.2774 13.1042 59.1895 13.3093 59.1134 13.5144C55.9141 22.4089 52.7677 31.321 49.504 40.1921C47.5645 45.4656 45.3204 50.5984 42.1563 55.2859C41.7511 55.9841 41.1383 56.5388 40.4032 56.8727C39.6681 57.2067 38.8473 57.3033 38.0548 57.1491C36.3477 56.8991 34.6368 56.6784 32.9219 56.487C27.4024 55.8718 21.8712 55.4323 16.3282 56.0124C14.3518 56.212 12.4086 56.6609 10.545 57.3484C8.06062 58.2859 7.71491 60.1902 9.60163 62.0769C10.7313 63.1984 11.9901 64.1819 13.3516 65.0066C18.2852 68.0066 23.6817 69.9812 29.1719 71.7331C40.1734 75.2601 51.502 77.6707 62.9864 78.9284C68.7052 79.5554 74.4356 80.0007 80.1661 79.2507C82.0324 78.999 83.8558 78.4944 85.586 77.7507C87.3438 76.9948 87.6016 75.4362 86.4591 73.8894C86.0287 73.2569 85.496 72.7004 84.8829 72.2429C83.1919 71.031 81.4311 69.9197 79.6095 68.9148C73.6622 65.8327 67.3048 63.8113 60.8595 61.9656C60.1434 61.8007 59.4938 61.4231 58.9961 60.8825C58.4984 60.3419 58.1757 59.6635 58.0704 58.9363C57.3081 54.9868 57.0404 50.9577 57.2735 46.9421C57.7247 38.7917 58.2638 30.6413 58.797 22.4909C59.0079 19.3152 59.2891 16.1218 59.547 12.9695H59.5645ZM44.0548 84.8699C45.2698 83.9231 46.5504 83.0635 47.8868 82.2976C49.2766 81.7164 50.706 81.2347 52.1641 80.8562L38.1954 77.8855C41.9981 80.8972 41.9981 80.8972 44.0548 84.8699Z" fill="black"/>
<path d="M59.5468 12.9692C59.2949 16.145 59.0078 19.3149 58.8027 22.4907C58.2695 30.6411 57.7304 38.7856 57.2793 46.9419C57.0462 50.9575 57.3138 54.9865 58.0761 58.936C58.1814 59.6633 58.5041 60.3417 59.0019 60.8823C59.4996 61.4229 60.1491 61.8004 60.8652 61.9653C67.3105 63.811 73.6386 65.8325 79.6152 68.9146C81.4368 69.9195 83.1977 71.0307 84.8886 72.2427C85.5018 72.7002 86.0345 73.2566 86.4648 73.8892C87.6074 75.436 87.3554 76.9946 85.5918 77.7505C83.8616 78.4941 82.0382 78.9988 80.1718 79.2505C74.4414 80.0005 68.7109 79.5552 62.9921 78.9282C51.5078 77.6705 40.1792 75.2599 29.1777 71.7329C23.705 69.9751 18.3086 68.0122 13.3574 65.0063C11.9958 64.1816 10.737 63.1982 9.60738 62.0767C7.72066 60.1899 8.06636 58.2856 10.5507 57.3481C12.4144 56.6606 14.3576 56.2118 16.3339 56.0122C21.8769 55.4263 27.4082 55.8716 32.9277 56.4868C34.6425 56.6782 36.3535 56.8989 38.0605 57.1489C38.853 57.3031 39.6739 57.2065 40.409 56.8725C41.144 56.5386 41.7568 55.9839 42.1621 55.2856C45.332 50.5981 47.5703 45.4653 49.5097 40.1919C52.7734 31.3208 55.9199 22.4087 59.1191 13.5142C59.1953 13.3091 59.2832 13.104 59.3652 12.8989L59.5468 12.9692ZM56.9453 25.9302L56.7695 25.8892C56.7109 26.106 56.6406 26.3169 56.5937 26.5395C54.6953 35.4614 52.7988 44.3833 50.9043 53.3052C49.9492 57.8169 49.0058 62.3286 48.0273 66.8345C47.582 68.8794 45.9121 70.1392 43.9785 69.8638C35.1626 68.7211 26.5261 66.4709 18.2734 63.1665C18.0742 63.0845 17.8691 63.0317 17.6875 62.9673L17.6054 63.1899C19.7382 64.104 21.8418 65.0767 24.0039 65.9145C32.6345 69.1768 41.5443 71.646 50.623 73.2915C58.8261 74.8501 67.0761 76.0103 75.4375 75.8403C77.9687 75.7876 80.4941 75.2544 83.0136 74.8794C83.1944 74.8929 83.3739 74.8399 83.5183 74.7305C83.6628 74.621 83.7624 74.4626 83.7983 74.285C83.8343 74.1073 83.8042 73.9226 83.7137 73.7656C83.6231 73.6086 83.4784 73.49 83.3066 73.4321C81.7733 72.3846 80.1872 71.4166 78.5547 70.5317C72.4258 67.4321 65.916 65.3696 59.3242 63.5356C58.6319 63.3989 57.9967 63.0569 57.5014 62.5543C57.006 62.0516 56.6734 61.4115 56.5468 60.7173C56.1151 58.6734 55.7923 56.608 55.58 54.5298C54.9941 47.5806 55.6914 40.6665 56.2832 33.7524C56.459 31.145 56.7168 28.5376 56.9453 25.9302Z" fill="white"/>
<path d="M44.0547 84.8701C41.998 80.8975 41.998 80.8975 38.1953 77.8857L52.1641 80.8564C50.7059 81.235 49.2766 81.7167 47.8867 82.2979C46.5503 83.0638 45.2697 83.9234 44.0547 84.8701Z" fill="white"/>
<path d="M56.9453 25.9302C56.7051 28.5376 56.4473 31.1392 56.2305 33.7524C55.6445 40.6665 54.9473 47.5806 55.5273 54.5298C55.7396 56.608 56.0624 58.6734 56.4941 60.7173C56.6207 61.4115 56.9533 62.0516 57.4487 62.5543C57.944 63.0569 58.5792 63.3989 59.2715 63.5356C65.8633 65.3696 72.3731 67.438 78.502 70.5317C80.1345 71.4166 81.7206 72.3846 83.2539 73.4321C83.4257 73.49 83.5704 73.6086 83.661 73.7656C83.7515 73.9226 83.7816 74.1073 83.7457 74.285C83.7097 74.4626 83.6101 74.621 83.4656 74.7305C83.3212 74.8399 83.1417 74.8929 82.9609 74.8794C80.4414 75.2485 77.916 75.7935 75.3848 75.8403C67.0176 76.0103 58.7617 74.8501 50.5703 73.2915C41.494 71.6495 32.5861 69.1842 23.957 65.9263C21.7949 65.0884 19.6914 64.1099 17.5586 63.2017L17.6406 62.979C17.8457 63.0435 18.0508 63.1021 18.2266 63.1782C26.4905 66.4855 35.139 68.7357 43.9668 69.8755C45.9004 70.145 47.5703 68.8911 48.0156 66.8462C48.9941 62.3403 49.9375 57.8286 50.8926 53.3169C52.7871 44.395 54.6836 35.4731 56.582 26.5513C56.6289 26.3345 56.6992 26.1177 56.7578 25.9009L56.9453 25.9302Z" fill="black"/>
</svg>
