<svg width="34" height="34" viewBox="0 0 34 34" fill="none" xmlns="http://www.w3.org/2000/svg">
<circle cx="17.0547" cy="16.7734" r="15.5351" stroke="black" stroke-width="1.74226"/>
<path d="M23.9646 15.7707C23.8709 15.7573 23.7872 15.6904 23.7136 15.5699C23.64 15.4494 23.5831 15.2286 23.543 14.9073C23.476 14.3853 23.3054 14.0005 23.031 13.7529C22.7566 13.5053 22.3316 13.3279 21.7561 13.2209C21.1538 13.1004 20.6217 12.8561 20.16 12.488C19.6982 12.12 19.3134 11.7753 19.0055 11.4541C18.7111 11.173 18.4835 11.0726 18.3229 11.1529C18.1623 11.2332 18.082 11.3805 18.082 11.5946V12.4579V14.3452C18.082 15.0947 18.0786 15.9045 18.0719 16.7745C18.0652 17.6445 18.0619 18.4677 18.0619 19.244V21.2919V22.4363C18.0753 22.7575 18.0251 23.1156 17.9113 23.5104C17.7975 23.9053 17.5834 24.2767 17.2688 24.6247C16.9543 24.9727 16.536 25.2705 16.014 25.5181C15.492 25.7657 14.8429 25.9096 14.0665 25.9498C13.2768 25.9899 12.5641 25.8494 11.9283 25.5282C11.2925 25.2069 10.8007 24.802 10.4526 24.3135C10.1046 23.8249 9.93399 23.2896 9.94068 22.7073C9.94737 22.1251 10.1983 21.5797 10.6936 21.071C11.1888 20.5624 11.7242 20.2077 12.2997 20.0069C12.8753 19.8062 13.4308 19.6957 13.9661 19.6757C14.5015 19.6556 14.98 19.6924 15.4017 19.7861C15.8233 19.8798 16.1345 19.9668 16.3353 20.0471V14.3653C16.3353 12.7859 16.3419 11.0057 16.3553 9.02474C16.3553 8.63658 16.4557 8.31869 16.6565 8.07107C16.8573 7.82346 17.125 7.67957 17.4596 7.63941C17.7407 7.59926 17.9715 7.65615 18.1522 7.81007C18.3329 7.964 18.517 8.17815 18.7044 8.45254C18.8917 8.72693 19.1226 9.03812 19.397 9.38613C19.6714 9.73413 20.0428 10.0754 20.5113 10.4101C20.9128 10.7179 21.2642 10.9388 21.5654 11.0726C21.8665 11.2065 22.1476 11.3303 22.4086 11.444C22.6696 11.5578 22.9273 11.695 23.1816 11.8556C23.4359 12.0162 23.717 12.2772 24.0248 12.6386C24.3327 12.9866 24.52 13.348 24.587 13.7228C24.6539 14.0976 24.6572 14.4389 24.597 14.7467C24.5368 15.0546 24.4397 15.3055 24.3059 15.4996C24.172 15.6937 24.0583 15.784 23.9646 15.7707V15.7707Z" fill="black"/>
</svg>
