<svg width="40" height="49" viewBox="0 0 40 49" fill="none" xmlns="http://www.w3.org/2000/svg">
<path d="M35.3133 18.6824C34.3064 18.6824 33.5512 18.9342 32.7961 19.4376C32.2926 17.6756 30.5306 16.1653 28.5168 16.1653C27.51 16.1653 26.7548 16.417 25.9996 16.9204C25.4962 15.1584 23.7342 13.6481 21.7204 13.6481C20.9652 13.6481 20.2101 13.8998 19.4549 14.1515V9.62053C19.4549 7.10333 17.4412 4.83785 14.924 4.83785C12.4068 4.83785 11.1482 7.10333 11.1482 9.62053V27.7444L8.37924 24.9754C6.61721 23.2134 3.34485 23.4651 1.83453 24.9754C0.324208 26.4858 -0.682672 29.7581 1.58281 32.0236L14.4205 45.113L15.1757 45.8682C17.4412 47.882 20.2101 48.8888 25.7479 48.8888C38.5856 48.8888 39.8442 41.8407 39.8442 33.0305V23.4651C39.5925 20.6962 37.8305 18.6824 35.3133 18.6824ZM37.327 32.7788C37.327 40.3304 37.327 46.3716 25.7479 46.3716C20.7135 46.3716 17.9446 45.3648 15.6791 42.8476L3.59657 30.5133C2.58969 29.5064 2.84141 27.9961 3.59657 26.9892C4.35173 25.9823 6.11377 25.9823 6.86893 26.9892C6.86893 26.9892 8.88269 29.2547 10.8964 31.0167C12.155 32.527 13.4136 33.7856 13.4136 33.7856V10.124C13.4136 8.86537 14.4205 7.85849 15.6791 7.85849C16.9377 7.85849 17.6929 8.86537 17.6929 10.124V25.2272C17.6929 25.9823 18.1963 26.4858 18.9515 26.4858C19.7066 26.4858 20.2101 25.9823 20.2101 25.2272V18.9342C20.2101 17.6756 20.9652 16.6687 22.2238 16.6687C22.2238 16.6687 24.2376 16.6687 24.2376 18.9342V27.2409C24.2376 27.9961 24.741 28.4995 25.4962 28.4995C26.2514 28.4995 26.7548 27.9961 26.7548 27.2409V21.4514C26.7548 20.1928 27.51 19.1859 28.7686 19.1859C28.7686 19.1859 31.034 19.4376 31.034 21.4514V28.7512C31.034 29.5064 31.5375 30.0098 32.2926 30.0098C33.0478 30.0098 33.5512 29.5064 33.5512 28.7512V23.7168C33.5512 22.4582 34.5581 21.4514 35.565 21.4514C35.565 21.4514 37.5788 21.4514 37.5788 23.7168L37.327 32.7788ZM9.38613 16.6687V12.3895C8.88269 11.6343 8.63097 10.6274 8.63097 9.62053C8.63097 5.59301 11.6516 2.57238 15.4274 2.57238C19.2032 2.57238 22.2238 5.84473 22.2238 9.62053C22.2238 10.124 22.2238 10.6274 21.9721 11.1309C22.7273 11.1309 23.7342 11.6343 24.2376 12.1377C24.4893 11.3826 24.4893 10.3757 24.4893 9.62053C24.741 4.33441 20.7135 0.0551758 15.4274 0.0551758C10.1413 0.0551758 6.36549 4.33441 6.36549 9.62053C6.36549 12.3895 7.37237 14.9067 9.38613 16.6687Z" fill="white"/>
</svg>
