<svg width="401" height="541" viewBox="0 0 401 541" fill="none" xmlns="http://www.w3.org/2000/svg">
<g clip-path="url(#clip0_383_4807)">
<path fill-rule="evenodd" clip-rule="evenodd" d="M144.98 313.19L144.798 313.72C143.825 313.05 143.226 314.11 143.119 314.31C143.237 313.46 143.494 308.03 122.888 327.77C100.71 349 46.6122 366.21 5.71017 319.28C-35.1918 272.35 -38.2287 255.54 -27.5889 219.61C-27.5889 219.61 -25.3433 235.61 2.35247 253.18C30.0482 270.75 78.3072 280 62.9516 266C55.3059 259 49.0503 255.82 42.3669 252.4C33.9671 248.37 26.1692 243.327 19.1731 237.4C11.4525 230.87 3.13308 226.81 -4.117 223.27C-14.3505 218.27 -22.4881 214.27 -23.8569 205.87C-26.2201 191.46 -16.7458 156.87 -1.73239 125.5C4.53555 136.757 10.1123 148.339 14.9706 160.19C20.1248 172.87 27.0968 179.19 36.3573 187.51C41.9817 192.45 47.3352 197.653 52.3973 203.1C70.0947 222.28 112.055 252.33 102.56 233.04C98.5283 224.87 90.3158 217.91 80.7346 209.8C67.6994 198.75 52.1192 185.55 41.0944 164.21C35.7381 153.581 29.6848 143.271 22.9692 133.34C18.4673 126.62 16.8847 124.26 16.5532 117.05C15.9865 103.86 46.1524 71.0499 73.014 51.0499C73.014 51.0499 71.5704 87.2299 85.6856 125.05L89.8239 136.12C101.405 167.48 108.591 186.92 119.968 188.36C121.466 188.55 122.995 188.8 124.492 189.04C135.623 190.88 144.873 192.4 126.288 164.84C105.19 133.56 72.629 82.2399 87.033 48.2999C87.033 48.2999 121.455 20.3799 136.768 18.6499C136.768 18.6499 108.452 53.7899 135.153 103.93C161.854 154.07 179.648 108.48 162.956 77.8099C146.263 47.1399 170.216 8.72986 170.216 8.72986L170.43 8.66986C174.978 7.88243 179.59 7.46752 184.214 7.42986C186.609 7.42986 188.973 7.26986 191.346 7.16986C193.218 7.08986 195.089 7.00986 196.982 6.94986C205.536 6.68986 213.995 7.63986 222.443 8.57986L223.576 8.70986C229.992 9.41986 235.938 9.87986 242.044 7.52986C244.289 6.67118 246.398 5.52708 248.31 4.12986C248.46 4.01986 248.791 3.80986 249.208 3.53986C250.577 2.63986 252.897 1.12986 252.801 0.609863C252.814 0.677625 252.832 0.744458 252.854 0.809863V0.999863C253.592 4.24986 256.062 7.38986 258.308 9.80986C263.548 15.5199 270.434 19.4599 277.278 23.3799C280.026 24.9499 282.774 26.5199 285.405 28.1999C294.812 34.0964 303.459 40.9887 311.176 48.7399C311.272 48.8499 311.518 49.0599 311.818 49.3299C312.812 50.2099 314.48 51.6899 314.416 52.2099C314.416 52.2099 309.497 96.3499 276.594 112.05C243.69 127.75 229.276 174.39 282.593 148.38C335.91 122.37 335.204 78.5199 335.204 78.5199C346.496 88.2599 356.676 129.65 356.676 129.65C346.881 164.99 288.068 188.73 251.24 202.52C218.764 214.67 227.233 218.52 237.338 223.09C238.697 223.7 240.087 224.33 241.413 224.99C251.529 230.05 269.611 218.26 298.75 199.25L309.166 192.47C344.454 169.62 366.225 139.54 366.225 139.54C375.304 170.4 378.972 213.41 370.171 223.76C365.359 229.43 362.59 230.47 354.698 233.45C342.972 237.82 331.544 242.859 320.479 248.54C298.023 259.78 277.118 261.95 259.527 263.76C246.695 265.1 235.606 266.24 227.18 270.65C207.269 281.06 260.233 279.65 286.678 273.82C294.23 272.174 301.868 270.892 309.561 269.98C322.308 268.28 331.921 266.98 344.111 259.55C355.552 252.616 367.405 246.296 379.613 240.62C371.925 274.19 357.713 307.36 346.688 317.72C340.272 323.79 331.151 322.57 319.699 321.02C311.593 319.92 302.29 318.67 291.896 319.74C282.491 320.714 272.989 320.536 263.633 319.21C256.084 318.33 248.983 317.51 238.408 318.96C217.171 321.87 262.019 340.76 295.553 341.66C328.317 342.53 340.465 331.37 341.01 330.87C326.895 365.72 313.785 377.68 251.037 393.31C188.288 408.94 155.342 365.49 150.851 336.18C148.274 319.41 146.071 314.69 144.649 313.71L144.98 313.19ZM238.536 42.5799L190.341 182.06L189.956 183.18L238.536 42.5799ZM172.034 234.91L171.115 237.57L150.594 297L151.065 295.64L166.132 252L166.998 249.53L172.034 234.91Z" fill="#146643"/>
<path d="M73.1639 183V187.65H50.9753V183H73.1639ZM50.9753 188.82H73.1639V190.5H74.2333C76.2543 190.5 79.3019 189.41 79.3447 189.08V183.79C79.9678 183.719 80.542 183.438 80.9594 183L75.3561 179.14L72.7148 181.84H51.9163L44.602 179.54V192C44.602 200.55 44.2064 210.61 39.3623 218.57L39.7152 218.87C50.3444 211.74 50.9753 200.17 50.9753 191.95V188.82ZM67.9135 206.09V202.7H71.9021V204.21H72.9714C73.8927 204.179 74.8073 204.051 75.6983 203.83L73.5596 206.09H67.9135ZM56.3968 206.09L53.1246 204.92C55.4985 204.92 58.1398 203.79 58.1398 203.33V202.7H62.0215V206.09H56.3968ZM62.0215 197.6V201.54H58.1826V197.6H62.0215ZM71.8807 197.6V201.54H67.9135V197.6H71.8807ZM76.3612 203.6C77.2167 203.35 77.8476 203.1 77.8476 202.97V198.23C78.3805 198.139 78.8679 197.89 79.2377 197.52L74.0087 194L71.4958 196.47H67.9135V193.91C69.7955 193.79 71.5492 193.66 72.9821 193.49C73.4251 193.695 73.9165 193.792 74.4102 193.771C74.904 193.75 75.384 193.612 75.8052 193.37L70.5761 189.1C64.6146 190.98 58.4732 192.32 52.2371 193.1L52.3333 193.73C55.3274 193.93 58.7493 194.02 62.0108 194.02V196.45H58.5034L52.3975 194.25V204.65L50.3764 203.93V218.86H51.1784C53.5096 218.86 56.0653 217.73 56.0653 217.22V207.29H62.0215V210.1H56.354L58.9097 215.59C59.1902 215.545 59.4547 215.437 59.6802 215.275C59.9058 215.113 60.0855 214.902 60.2036 214.66C64.374 213.2 67.4216 212.02 69.6137 211.1C69.7645 211.675 69.8258 212.268 69.7955 212.86C73.0035 215.67 77.6017 210.01 69.0363 208.17L68.5872 208.38C68.8933 208.867 69.134 209.388 69.3036 209.93H67.9135V207.25H74.0087V213.74C74.0087 214.16 73.8804 214.42 73.335 214.42C72.7897 214.42 70.7365 214.29 70.7365 214.29V214.79C71.2052 214.824 71.6579 214.964 72.0563 215.198C72.4548 215.431 72.787 215.751 73.0249 216.13C73.406 217.067 73.5736 218.068 73.5168 219.07C79.0773 218.65 79.8366 217.07 79.8366 214.16V208.16C80.5335 208.091 81.1761 207.777 81.633 207.28L76.3612 203.6ZM116.932 196.14H109.361V185H122.621C123.294 185 123.786 184.79 123.925 184.32C121.498 182.44 117.509 179.67 117.509 179.67L113.97 183.82H88.3057L88.6693 185H102.571V196.23H84.5844L84.948 197.4H102.517V211.28C102.517 211.78 102.25 212.12 101.533 212.12C100.229 212.12 94.048 211.78 94.048 211.78V212.28C97.0956 212.75 98.2184 213.46 99.1167 214.38C100.015 215.3 100.453 216.85 100.517 219C108.131 218.54 109.35 215.64 109.35 211.54V197.35H125.797C126.47 197.35 127.005 197.14 127.101 196.68C124.631 194.75 120.546 191.95 120.546 191.95L116.932 196.14ZM139.473 191.14C141.343 188.362 142.905 185.413 144.136 182.34C144.503 182.408 144.885 182.358 145.218 182.198C145.552 182.038 145.819 181.778 145.975 181.46L137.42 179.07C135.934 186.82 133.006 194.266 128.769 201.07L129.272 201.37C131.157 200.129 132.912 198.723 134.512 197.17V218.85H135.72C138.276 218.85 140.917 217.59 141.067 217.17V193C141.965 192.83 142.318 192.53 142.457 192.16L139.473 191.14ZM154.219 189.14V197.35L147.055 195.35C146.099 200.831 144.298 206.153 141.708 211.15L142.243 211.49C147.025 208.131 150.767 203.645 153.086 198.49C153.486 198.501 153.884 198.429 154.251 198.28V211.7C154.251 212.16 154.038 212.37 153.364 212.37C152.369 212.37 147.536 212.12 147.536 212.12V212.66C149.91 213.08 150.851 213.66 151.61 214.66C152.369 215.66 152.594 217.01 152.776 218.98C159.726 218.39 160.667 216.17 160.667 212.11V191C161.737 190.83 162.143 190.46 162.239 189.83L154.219 189.14ZM161.705 196.01C163.587 200.01 165.522 204.9 165.918 209.43C171.97 214.58 177.403 202.72 162.154 195.8L161.705 196.01ZM167.051 184.57L163.843 187.57H152.583C153.654 186.059 154.601 184.474 155.417 182.83C156.486 182.92 157.075 182.58 157.299 182.03L149.044 179.18C147.739 185.338 145.378 191.258 142.05 196.71L142.542 197.04C146.156 194.859 149.28 192.04 151.739 188.74H164.282C164.154 190.67 163.833 193.18 163.523 194.99L163.833 195.24C166.389 193.769 168.742 192.009 170.837 190C171.16 190.047 171.49 190.022 171.801 189.926C172.111 189.83 172.393 189.667 172.623 189.45L167.051 184.57ZM181.851 211.23V200.23H187.358V211.23H181.851ZM187.358 188.68V199.07H181.851V188.72L187.358 188.68ZM211.611 184.15L208.253 187.34H202.649C203.615 185.726 204.468 184.056 205.205 182.34C206.275 182.34 206.809 182 206.991 181.46L198.661 179.2C197.676 185.162 195.913 190.989 193.41 196.55V189.55C194.101 189.435 194.732 189.112 195.207 188.63L189.689 184.56L186.909 187.45H183.925C185.54 185.82 187.551 183.72 188.898 182.26C189.967 182.26 190.598 181.96 190.823 181.26L182.172 179.33C182.043 181.72 181.862 185.03 181.637 187.33L175.991 185.15V217.15H176.932C179.531 217.15 181.819 215.85 181.819 215.23V212.33H187.326V215.65H188.32C190.459 215.65 193.336 214.47 193.378 214.09V197.09L193.646 197.25C196.932 194.794 199.711 191.799 201.847 188.41H208.755C208.488 202.66 208.082 210.41 206.467 211.72C206.244 211.909 205.982 212.055 205.697 212.148C205.412 212.24 205.11 212.278 204.81 212.26C203.644 212.26 200.596 212.09 198.447 211.93V212.43C200.258 212.652 201.949 213.401 203.28 214.57C204.093 215.4 204.35 216.79 204.35 218.76C207.707 218.76 209.771 218.05 211.525 216.41C214.166 213.85 214.733 207.06 215.022 189.41C215.788 189.368 216.507 189.053 217.032 188.53L211.611 184.15ZM196.287 196.1C198.038 198.697 199.057 201.665 199.249 204.73C204.767 209.21 210.819 198.95 196.651 195.88L196.287 196.1Z" fill="#03361C"/>
<path d="M67.1436 274.15H54.8249C55.5413 271.89 56.2578 269.54 56.878 267.4H71.4958C71.754 267.432 72.0165 267.384 72.2426 267.263C72.4687 267.142 72.6459 266.955 72.7469 266.73C70.6082 264.89 66.919 262.16 66.919 262.16L63.6469 266.23H57.2309L58.621 261.58C59.0072 261.672 59.4159 261.635 59.7755 261.474C60.1352 261.313 60.423 261.039 60.5886 260.7L52.1622 258.43C51.8521 260.15 51.0929 263.04 50.2374 266.23H37.7904L38.1433 267.4H49.9059C49.2857 269.62 48.5693 271.97 47.7673 274.15H35.1919L35.5448 275.33H47.4251C46.7514 277.33 46.0777 279.14 45.4575 280.61C44.8873 280.915 44.347 281.266 43.8428 281.66L50.0235 285.05L52.3975 282.37H62.2674C61.0701 284.9 59.7206 287.363 58.2253 289.75C54.8676 288.7 50.2481 288.2 44.0674 288.66L43.8428 289.12C49.8418 290.92 57.3378 295.2 61.2302 299.12C66.4806 299.91 67.8173 293.67 60.0646 290.36C63.5256 288.454 66.8093 286.28 69.8811 283.86C70.9504 283.77 71.3674 283.65 71.7203 283.23L65.8925 278L62.2567 281.23H52.6327C53.1674 279.59 53.8411 277.54 54.5147 275.36H75.3988C76.0725 275.36 76.5644 275.15 76.6927 274.69C74.4578 272.76 70.5548 269.82 70.5548 269.82L67.1436 274.15ZM113.007 262.79V267.45H90.8186V262.79H113.007ZM90.8186 268.62H113.007V270.3H114.077C116.098 270.3 119.145 269.21 119.188 268.87V263.59C119.812 263.516 120.386 263.232 120.803 262.79L115.199 258.94L112.515 261.62H91.7596L84.4775 259.31V271.72C84.4775 280.27 84.0818 290.33 79.2377 298.3L79.5906 298.59C90.2198 291.46 90.8935 279.89 90.8935 271.68L90.8186 268.62ZM107.757 285.89V282.49H111.745V284H112.815C113.739 283.972 114.657 283.848 115.552 283.63L113.414 285.89H107.757ZM96.2401 285.89L92.968 284.72C95.3419 284.72 97.9938 283.58 97.9938 283.12V282.49H101.843V285.89H96.2401ZM101.886 277.38V281.32H98.0366V277.38H101.886ZM111.745 277.38V281.32H107.757V277.38H111.745ZM116.226 283.38C117.081 283.13 117.712 282.87 117.712 282.75V278C118.242 277.901 118.727 277.653 119.102 277.29L113.852 273.68L111.339 276.16H107.757V273.6C109.639 273.47 111.393 273.35 112.825 273.18C113.269 273.383 113.76 273.479 114.253 273.458C114.747 273.437 115.227 273.3 115.649 273.06L110.452 268.82C104.493 270.71 98.3505 272.05 92.1125 272.82L92.2088 273.45C95.2029 273.66 98.6248 273.74 101.833 273.74V276.18H98.3788L92.2088 274V284.39L90.1877 283.68V298.6H90.9897C93.3208 298.6 95.8766 297.47 95.8766 296.97V287H101.886V289.81H96.2401L98.7958 295.3C99.0775 295.263 99.3442 295.159 99.5707 294.998C99.7972 294.836 99.9758 294.624 100.09 294.38C104.26 292.91 107.308 291.74 109.5 290.82C109.651 291.396 109.712 291.988 109.682 292.58C112.89 295.39 117.488 289.73 108.922 287.88L108.473 288.09C108.779 288.577 109.02 289.098 109.19 289.64L107.8 289.69V287H113.895V293.5C113.895 293.92 113.767 294.17 113.221 294.17C112.676 294.17 110.623 294.05 110.623 294.05V294.55C111.092 294.58 111.547 294.719 111.946 294.952C112.345 295.186 112.677 295.508 112.911 295.89C113.297 296.823 113.465 297.822 113.403 298.82C118.963 298.4 119.723 296.82 119.723 293.92V287.92C120.422 287.858 121.066 287.542 121.519 287.04L116.226 283.38Z" fill="#03361C"/>
<path d="M160.4 264.89V263.46H144.894V264.89L148.659 265.22C148.798 269.46 148.798 273.77 148.798 278.05H136.757C136.757 273.73 136.757 269.42 136.896 265.22L140.617 264.89V263.46H125.112V264.89L129.1 265.27V293L125.112 293.38V294.81H140.617V293.4L136.874 293C136.735 288.72 136.735 284.36 136.735 279.62H148.798C148.798 284.44 148.798 288.8 148.659 292.95L144.894 293.33V294.76H160.4V293.33L156.465 292.95C156.368 288.64 156.368 284.32 156.368 280.04V278.2C156.368 273.84 156.368 269.48 156.465 265.2L160.4 264.89ZM198.201 263.46H186.16V264.89L191.271 265.52L191.453 281.52C191.539 289.11 188.534 292.17 183.337 292.17C178.14 292.17 175.37 289.37 175.37 281.7V277.76C175.37 273.61 175.37 269.37 175.509 265.27L179.787 264.89V263.46H163.886V264.89L167.735 265.22C167.874 269.42 167.874 273.65 167.874 277.76V282.33C167.874 292.22 173.221 295.61 180.963 295.61C188.898 295.61 193.293 291.26 193.421 281.61L193.603 265.52L198.222 264.89L198.201 263.46ZM212.701 275.16C209.568 273.82 207.857 272.27 207.857 269.37C207.857 266.23 210.37 264.37 214.273 264.37C215.27 264.33 216.264 264.501 217.181 264.87L219.47 271.87H222.068L222.475 265.03C219.751 263.43 216.591 262.6 213.375 262.64C206.071 262.64 201.184 265.87 201.184 271.53C201.184 276.53 204.392 279.37 210.37 281.89L212.508 282.77C216.101 284.23 217.395 285.77 217.395 288.59C217.395 291.86 214.936 293.83 210.498 293.83C209.004 293.872 207.515 293.659 206.103 293.2L203.729 285.91H201.131L200.81 293.12C203.989 294.817 207.597 295.684 211.257 295.63C219.684 295.63 224.207 291.82 224.207 286.25C224.207 281.51 221.747 278.99 215.064 276.19L212.701 275.16ZM251.197 265.1L253.485 272.43H256.084L255.902 263.43H226.388L226.207 272.43H228.837L231.083 265.1H237.263C237.36 269.42 237.36 273.82 237.36 278.22V280.06C237.36 284.42 237.36 288.74 237.263 292.93L232.74 293.35V294.78H249.593V293.35L245.016 292.93C244.931 288.66 244.931 284.3 244.931 280.02V278.22C244.931 273.77 244.931 269.42 245.016 265.1H251.197ZM282.924 272.56C288.759 270.664 294.171 267.779 298.889 264.05C299.958 264.22 300.365 264.05 300.718 263.63L293.414 259.36C290.409 264.43 286.998 268.87 282.657 272.06L282.924 272.56ZM281.234 284.46C287.887 282.62 293.963 279.298 298.943 274.78C300.012 274.95 300.461 274.78 300.825 274.32L293.158 270.13C289.95 276 286.036 280.65 281.01 283.96L281.234 284.46ZM269.472 276.12V264.05H273.108V276.12H269.472ZM279.385 277.3H285.512C286.143 277.3 286.635 277.09 286.763 276.63C284.924 274.86 281.705 272.14 281.705 272.14L279.417 275.33V264.05H284.442C285.116 264.05 285.608 263.84 285.747 263.38C283.683 261.66 280.229 259.1 280.229 259.1L277.182 262.88H259.014L259.367 264.05H263.355V276.12H258.158L258.522 277.3H263.355C263.355 284.72 262.639 292.35 258.115 298.46L258.468 298.76C268.285 293.23 269.408 284.76 269.493 277.3H273.129V298.21H274.295C277.503 298.21 279.363 297 279.406 296.62L279.385 277.3ZM293.575 281C290.121 289.05 285.458 294.33 278.957 298.06L279.139 298.56C287.693 296.3 294.377 292.4 299.798 285.32C300.867 285.44 301.413 285.23 301.68 284.73L293.575 281ZM333.632 276C331.566 277.872 329.365 279.61 327.045 281.2C325.912 279.524 324.488 278.037 322.832 276.8C323.184 276.55 323.505 276.26 323.815 276H333.632ZM321.399 293.19C320.5 293.19 318.437 293.11 316.736 292.98C319.122 292.191 321.441 291.239 323.676 290.13C323.572 291.07 323.235 291.973 322.692 292.77C322.523 292.92 322.32 293.031 322.097 293.095C321.875 293.159 321.639 293.175 321.409 293.14L321.399 293.19ZM315.453 274.78V269.71H321.687C320.725 271.525 319.537 273.226 318.148 274.78H315.453ZM326.211 264.85C325.366 266.162 324.393 267.398 323.302 268.54H316.084L314.245 267.91C315.662 266.96 317.022 265.939 318.319 264.85H326.211ZM333.696 269.71V274.78H325.141C326.723 273.258 328.092 271.554 329.215 269.71H333.696ZM337.022 277.26C338.127 277.112 339.175 276.706 340.069 276.08V270.55C340.696 270.465 341.268 270.166 341.673 269.71L335.984 265.81L333.247 268.54H325.077C327.742 267.768 330.323 266.763 332.787 265.54C333.104 265.57 333.425 265.537 333.727 265.442C334.03 265.347 334.307 265.193 334.541 264.99L329.354 260.86L326.392 263.67H319.73C320.542 262.961 321.306 262.206 322.019 261.41C323.495 261.33 324.083 261.03 324.264 260.49L315.517 258.89C312.536 264.408 308.267 269.23 303.027 273L303.338 273.33C305.347 272.653 307.296 271.827 309.165 270.86V278.28H310.331C313.539 278.28 315.442 276.98 315.442 276.6V276H317.014C313.578 279.393 309.398 282.051 304.76 283.79L305.081 284.3C311.125 283.116 316.841 280.774 321.869 277.42C321.997 277.67 322.094 277.92 322.222 278.18C318.319 282.37 310.834 286.94 303.979 289.24L304.204 289.79C310.76 288.678 317.115 286.701 323.077 283.92C318.683 288.74 311.112 293.18 303.573 295.36L303.797 295.91C307.826 295.392 311.79 294.508 315.635 293.27C316.891 293.57 318.046 294.161 318.993 294.99C319.793 296.083 320.171 297.399 320.062 298.72C323.601 298.72 326.253 298.3 327.633 296.87C330.285 294.11 330.841 287.82 327.686 282.29L330.017 281.91C331.857 289.08 335.257 292.91 340.711 295.99C341.523 293.14 343.224 291.26 345.651 290.71V290.25C339.866 288.91 333.953 286.6 330.948 281.7C333.728 281.15 336.455 280.52 338.433 279.94C339.502 280.15 339.909 279.94 340.187 279.56L337.022 277.26Z" fill="white"/>
<g opacity="0.7">
<path opacity="0.7" d="M688.728 343.257L-152.808 415.154L-150.362 440.19L691.174 368.292L688.728 343.257Z" fill="#74C69D"/>
<path opacity="0.7" d="M-1.77466 420.66L0.887979 420.43L0.47094 416.17L4.11737 415.86L4.53441 420.12L7.16497 419.89L6.15979 409.54L3.51854 409.77L3.9035 413.7L0.257073 414L-0.127887 410.07L-2.79053 410.29L-1.77466 420.66ZM15.0246 419.42C17.9652 419.17 19.3019 417.47 18.9597 413.97L18.425 408.49L15.8586 408.71L16.4254 414.46C16.6179 416.46 16.019 417.17 14.8107 417.27C13.6024 417.37 12.8966 416.74 12.672 414.77L12.1481 409L9.49611 409.22L10.0308 414.71C10.373 418.23 12.0625 419.67 15.0246 419.42ZM26.0173 418.48C28.6906 418.25 30.0915 416.6 29.9204 414.87C29.8853 414.235 29.6241 413.629 29.1785 413.149C28.7328 412.669 28.1282 412.342 27.4609 412.22L26.028 411.83C25.0121 411.55 24.285 411.39 24.2315 410.83C24.1781 410.27 24.6486 409.92 25.472 409.83C26.3068 409.769 27.1383 409.981 27.8245 410.43L29.0008 408.76C27.9505 407.961 26.6061 407.58 25.2581 407.7C22.9162 407.9 21.3764 409.44 21.5475 411.17C21.6121 411.805 21.8916 412.405 22.3454 412.881C22.7993 413.358 23.4038 413.687 24.0711 413.82L25.5468 414.26C26.5306 414.55 27.1615 414.69 27.215 415.26C27.2684 415.83 26.8514 416.2 25.8676 416.26C24.8613 416.28 23.8761 415.989 23.066 415.43L21.7293 417.27C22.9523 418.15 24.4778 418.581 26.0173 418.48V418.48ZM34.6789 417.54L37.3416 417.31L36.5289 409L39.5337 408.74L39.3305 406.68L30.6689 407.42L30.8721 409.48L33.8662 409.23L34.6789 417.54ZM50.5478 416.38C53.2212 416.15 54.622 414.5 54.4509 412.78C54.4158 412.145 54.1546 411.539 53.709 411.059C53.2633 410.579 52.6587 410.252 51.9914 410.13L50.5478 409.73C49.4785 409.45 48.8155 409.29 48.762 408.73C48.7086 408.17 49.1791 407.82 50.0025 407.73C50.8373 407.669 51.6688 407.881 52.355 408.33L53.5206 406.66C52.4747 405.86 51.1334 405.479 49.7886 405.6C47.4361 405.8 45.9069 407.34 46.078 409.08C46.1447 409.714 46.4252 410.311 46.8789 410.785C47.3326 411.26 47.9359 411.587 48.6016 411.72L50.0666 412.16C51.0611 412.45 51.692 412.6 51.7455 413.16C51.7989 413.72 51.3712 414.11 50.3874 414.16C49.3846 414.19 48.4005 413.901 47.5965 413.34L46.2598 415.17C47.4781 416.059 49.0072 416.49 50.5478 416.38V416.38ZM59.1987 415.44L61.8614 415.22L61.0594 406.92L64.0642 406.67L63.861 404.61L55.1994 405.35L55.4026 407.41L58.386 407.15L59.1987 415.44ZM71.8489 414.56C74.7896 414.31 76.1263 412.61 75.7841 409.12L75.2494 403.63L72.6937 403.85L73.2498 409.6C73.4423 411.6 72.8434 412.31 71.6351 412.42C70.4267 412.53 69.721 411.88 69.4964 409.92L68.9297 404.17L66.2991 404.4L66.8338 409.88C67.1973 413.37 68.8869 414.81 71.8489 414.56ZM79.5588 413.7L82.8952 413.42C86.1032 413.14 88.2418 411.32 87.8462 407.72C87.4505 404.12 85.1087 402.79 81.7296 403.08L78.5216 403.35L79.5588 413.7ZM82.029 411.47L81.4088 405.1H81.7617C83.5475 404.95 84.8841 405.52 85.1194 407.98C85.3546 410.44 84.1677 411.32 82.3819 411.47H82.029ZM91.2253 412.71L98.4112 412.09L98.208 410L93.6847 410.38L93.4602 408.18L97.1708 407.87L96.9676 405.78L93.257 406.1L93.0324 404.19L97.3953 403.81L97.1921 401.75L90.1666 402.36L91.2253 412.71ZM101.416 411.84L103.94 411.62L103.608 408.18C103.48 406.93 103.116 405.53 102.892 404.39H102.967L104.271 406.56L107.479 411.33L110.185 411.09L109.115 400.74L106.592 400.96L106.923 404.38C107.085 405.659 107.328 406.928 107.65 408.18H107.575L106.346 406L103.138 401.28L100.432 401.51L101.416 411.84ZM115.734 410.61L118.397 410.38L117.584 402.09L120.589 401.83L120.397 399.77L111.735 400.52L111.938 402.57L114.922 402.32L115.734 410.61Z" fill="black"/>
<path opacity="0.7" d="M138.34 408.68L141.003 408.45L140.586 404.19L144.232 403.88L144.649 408.14L147.28 407.91L146.275 397.56L143.633 397.79L144.018 401.73L140.372 402.04L139.987 398.1L137.324 398.33L138.34 408.68ZM155.139 407.44C158.08 407.19 159.417 405.49 159.074 402L158.54 396.51L155.984 396.73L156.54 402.48C156.733 404.48 156.134 405.19 154.925 405.3C153.717 405.41 153.011 404.76 152.787 402.8L152.231 397.05L149.579 397.28L150.113 402.76C150.488 406.25 152.177 407.69 155.139 407.44ZM166.132 406.5C168.805 406.27 170.206 404.62 170.035 402.9C169.999 402.264 169.737 401.658 169.292 401.176C168.847 400.695 168.243 400.365 167.576 400.24L166.143 399.85C165.073 399.57 164.4 399.41 164.346 398.85C164.293 398.29 164.763 397.94 165.587 397.85C166.422 397.789 167.253 398.001 167.939 398.45L169.115 396.78C168.06 395.989 166.72 395.609 165.373 395.72C163.031 395.92 161.491 397.46 161.662 399.2C161.729 399.833 162.009 400.431 162.463 400.905C162.917 401.38 163.52 401.707 164.186 401.84L165.662 402.28C166.645 402.57 167.276 402.72 167.34 403.28C167.405 403.84 166.966 404.28 165.982 404.28C164.975 404.305 163.989 404.012 163.181 403.45L161.844 405.29C163.062 406.179 164.591 406.61 166.132 406.5V406.5ZM174.794 405.56L177.456 405.34L176.644 397.04L179.648 396.79L179.445 394.73L170.784 395.47L170.987 397.53L173.981 397.27L174.794 405.56ZM190.652 404.4C193.336 404.17 194.737 402.52 194.566 400.8C194.527 400.166 194.264 399.562 193.819 399.082C193.374 398.603 192.772 398.275 192.106 398.15L190.663 397.75C189.593 397.47 188.93 397.31 188.877 396.75C188.823 396.19 189.294 395.84 190.117 395.75C190.951 395.68 191.785 395.889 192.47 396.34L193.635 394.67C192.586 393.878 191.246 393.501 189.903 393.62C187.551 393.82 186.022 395.35 186.193 397.09C186.267 397.722 186.55 398.317 187.002 398.792C187.454 399.267 188.053 399.598 188.716 399.74L190.181 400.17C191.176 400.47 191.807 400.61 191.86 401.17C191.914 401.73 191.486 402.11 190.502 402.17C189.499 402.192 188.517 401.9 187.711 401.34L186.375 403.18C187.587 404.073 189.113 404.509 190.652 404.4V404.4ZM199.313 403.47L201.976 403.24L201.174 394.95L204.179 394.69L203.976 392.63L195.314 393.37L195.517 395.43L198.501 395.17L199.313 403.47ZM211.964 402.58C214.915 402.33 216.241 400.63 215.899 397.14L215.364 391.66L212.808 391.87L213.365 397.62C213.557 399.62 212.958 400.34 211.75 400.44C210.541 400.54 209.846 399.9 209.611 397.94L209.055 392.19L206.403 392.42L206.938 397.9C207.312 401.39 209.002 402.83 211.964 402.58V402.58ZM219.674 401.73L223.01 401.44C226.218 401.17 228.357 399.35 227.961 395.74C227.565 392.13 225.223 390.81 221.844 391.1L218.636 391.37L219.674 401.73ZM222.144 399.49L221.524 393.12H221.876C223.662 392.97 224.999 393.54 225.234 396.01C225.469 398.48 224.282 399.34 222.497 399.49H222.144ZM231.34 400.73L238.526 400.11L238.323 398.03L233.789 398.42L233.575 396.22L237.285 395.9L237.082 393.81L233.372 394.13L233.19 392.21L237.553 391.84L237.35 389.78L230.324 390.38L231.34 400.73ZM241.531 399.86L244.054 399.64L243.723 396.2C243.595 394.95 243.231 393.55 243.006 392.41H243.081L244.386 394.59L247.594 399.35L250.299 399.12L249.23 388.76L246.706 388.98L247.038 392.4C247.199 393.679 247.442 394.948 247.765 396.2H247.69L246.46 394L243.252 389.28L240.547 389.52L241.531 399.86ZM255.849 398.63L258.512 398.41L257.699 390.11L260.704 389.86L260.511 387.8L251.85 388.54L252.053 390.6L255.036 390.34L255.849 398.63Z" fill="white"/>
<path opacity="0.7" d="M278.455 396.7L281.117 396.48L280.7 392.22L284.347 391.9L284.764 396.16L287.394 395.94L286.389 385.58L283.748 385.81L284.133 389.75L280.487 390.06L280.112 386.12L277.439 386.35L278.455 396.7ZM295.254 395.46C298.195 395.21 299.531 393.51 299.189 390.02L298.655 384.54L296.088 384.76L296.655 390.5C296.847 392.5 296.249 393.22 295.04 393.32C293.832 393.42 293.126 392.78 292.902 390.82L292.345 385.07L289.694 385.3L290.228 390.78C290.602 394.27 292.292 395.72 295.254 395.46V395.46ZM306.247 394.52C308.92 394.29 310.321 392.64 310.15 390.92C310.115 390.285 309.854 389.679 309.408 389.199C308.962 388.719 308.358 388.392 307.69 388.27L306.257 387.87C305.242 387.59 304.514 387.43 304.461 386.87C304.408 386.31 304.878 385.96 305.701 385.87C306.536 385.8 307.369 386.009 308.054 386.46L309.23 384.79C308.176 383.999 306.834 383.622 305.488 383.74C303.146 383.94 301.606 385.47 301.777 387.21C301.855 387.842 302.14 388.437 302.594 388.911C303.048 389.386 303.648 389.717 304.311 389.86L305.776 390.29C306.76 390.59 307.391 390.73 307.455 391.29C307.519 391.85 307.081 392.23 306.097 392.29C305.091 392.31 304.106 392.018 303.295 391.46L301.959 393.3C303.173 394.19 304.698 394.625 306.236 394.52H306.247ZM314.908 393.59L317.571 393.36L316.758 385.07L319.763 384.81L319.56 382.75L310.898 383.49L311.102 385.55L314.096 385.29L314.908 393.59ZM330.777 392.43C333.451 392.2 334.851 390.55 334.68 388.82C334.642 388.186 334.379 387.582 333.934 387.102C333.489 386.623 332.887 386.295 332.221 386.17L330.777 385.77C329.761 385.5 329.045 385.33 328.992 384.77C328.938 384.21 329.409 383.87 330.232 383.77C331.067 383.704 331.901 383.916 332.584 384.37L333.75 382.69C332.693 381.914 331.354 381.556 330.018 381.69C327.666 381.89 326.136 383.42 326.307 385.16C326.372 385.795 326.652 386.395 327.105 386.871C327.559 387.348 328.164 387.677 328.831 387.81L330.296 388.25C331.291 388.54 331.921 388.68 331.975 389.25C332.028 389.82 331.601 390.2 330.617 390.25C329.614 390.272 328.631 389.98 327.826 389.42L326.489 391.26C327.712 392.129 329.235 392.546 330.767 392.43H330.777ZM339.428 391.49L342.091 391.26L341.289 382.97L344.294 382.71L344.09 380.65L335.429 381.39L335.632 383.45L338.626 383.2L339.428 391.49ZM352.078 390.61C355.03 390.35 356.356 388.61 356.014 385.16L355.479 379.68L352.923 379.9L353.479 385.64C353.672 387.64 353.073 388.36 351.865 388.46C350.656 388.56 349.961 387.92 349.726 385.96L349.17 380.22L346.518 380.44L347.053 385.92C347.427 389.42 349.116 390.86 352.078 390.61V390.61ZM359.788 389.75L363.125 389.46C366.333 389.19 368.471 387.37 368.076 383.77C367.68 380.17 365.338 378.84 361.959 379.12L358.751 379.4L359.788 389.75ZM362.258 387.52L361.638 381.14H361.991C363.777 380.99 365.114 381.57 365.349 384.03C365.584 386.49 364.397 387.36 362.622 387.52H362.258ZM371.455 388.75L378.641 388.14L378.437 386.05L373.914 386.44L373.69 384.24L377.4 383.92L377.197 381.84L373.486 382.15L373.305 380.23L377.657 379.86L377.475 377.8L370.45 378.4L371.455 388.75ZM381.645 387.88L384.169 387.67L383.838 384.23C383.709 382.98 383.346 381.58 383.121 380.43H383.196L384.501 382.61L387.709 387.37L390.414 387.14L389.345 376.79L386.821 377L387.153 380.43C387.314 381.706 387.557 382.971 387.88 384.22H387.805L386.5 382.02L383.292 377.3L380.587 377.53L381.645 387.88ZM395.964 386.66L398.626 386.43L397.814 378.14L400.819 377.88L400.626 375.82L391.965 376.56L392.168 378.62L395.151 378.36L395.964 386.66Z" fill="black"/>
</g>
<path d="M-295.363 301.158L-300.085 332.377L574.989 448.115L579.711 416.896L-295.363 301.158Z" fill="#74C69D"/>
<path d="M-112.163 348.58L-108.837 349.03L-108.035 343.72L-103.49 344.32L-104.292 349.63L-101.009 350.07L-99.0526 337.16L-102.335 336.72L-103.073 341.63L-107.618 341.03L-106.88 336.12L-110.206 335.68L-112.163 348.58ZM-91.2785 351.58C-87.6 352.07 -85.4507 350.36 -84.7877 346L-83.7183 339.16L-86.9263 338.74L-87.9957 345.91C-88.3699 348.35 -89.3323 349.11 -90.8401 348.91C-92.3478 348.71 -92.9788 347.74 -92.6366 345.29L-91.5672 338.13L-94.8715 337.69L-95.9408 344.52C-96.5824 348.9 -94.9677 351.11 -91.2785 351.6V351.58ZM-77.5697 353.4C-74.2227 353.85 -72.0091 352.21 -71.6883 350.06C-71.538 349.281 -71.6659 348.477 -72.0523 347.772C-72.4388 347.067 -73.0624 346.501 -73.827 346.16L-75.4631 345.29C-76.618 344.67 -77.4413 344.29 -77.3344 343.57C-77.2275 342.85 -76.5431 342.57 -75.5272 342.71C-74.4875 342.864 -73.5361 343.348 -72.8325 344.08L-70.8863 342.35C-71.9355 341.091 -73.4718 340.269 -75.1637 340.06C-78.0936 339.67 -80.4355 341.13 -80.767 343.3C-80.8713 344.091 -80.709 344.894 -80.3026 345.594C-79.8962 346.295 -79.266 346.86 -78.5 347.21L-76.8425 348.14C-75.7732 348.76 -75.0033 349.14 -75.1102 349.85C-75.2171 350.56 -75.8587 350.85 -77.0885 350.74C-78.3045 350.502 -79.4 349.889 -80.2002 349L-82.403 350.88C-81.1766 352.249 -79.4579 353.152 -77.5697 353.42V353.4ZM-66.7052 354.6L-63.3903 355.04L-61.8184 344.69L-58.065 345.19L-57.6801 342.62L-68.4376 341.21L-68.8225 343.78L-65.1012 344.27L-66.7052 354.6ZM-46.976 357.46C-43.6397 357.9 -41.4262 356.27 -41.0947 354.12C-40.9443 353.341 -41.0722 352.537 -41.4587 351.832C-41.8452 351.127 -42.4688 350.561 -43.2334 350.22L-44.8588 349.34C-46.0243 348.73 -46.8477 348.34 -46.7408 347.63C-46.6339 346.92 -45.9495 346.63 -44.9229 346.77C-43.8841 346.918 -42.9341 347.403 -42.2389 348.14L-40.2927 346.41C-40.8091 345.784 -41.4528 345.259 -42.1869 344.866C-42.9209 344.473 -43.7309 344.219 -44.57 344.12C-47.5 343.73 -49.8419 345.19 -50.1733 347.36C-50.2777 348.151 -50.1153 348.954 -49.709 349.654C-49.3026 350.355 -48.6724 350.92 -47.9064 351.27L-46.2489 352.19C-45.1796 352.82 -44.4096 353.19 -44.5166 353.91C-44.6235 354.63 -45.2651 354.91 -46.4948 354.8C-47.7472 354.566 -48.8778 353.942 -49.7028 353.03L-51.8415 354.92C-50.6146 356.307 -48.8809 357.22 -46.976 357.48V357.46ZM-36.1223 358.65L-32.7967 359.09L-31.2355 348.75L-27.4821 349.25L-27.0971 346.68L-37.8974 345.25L-38.2824 347.82L-34.5504 348.31L-36.1223 358.65ZM-20.4138 361C-16.7353 361.48 -14.5859 359.77 -13.923 355.41L-12.8536 348.58L-16.0616 348.15L-17.131 355.32C-17.5052 357.77 -18.4783 358.52 -19.9754 358.32C-21.4724 358.12 -22.114 357.15 -21.7719 354.7L-20.7025 347.54L-23.9961 347.1L-25.0654 353.94C-25.6642 358.3 -24.103 360.52 -20.4138 361ZM-10.7363 362L-6.57663 362.55C-2.55594 363.09 0.534439 361.43 1.21881 356.93C1.90319 352.43 -0.588358 350.18 -4.80153 349.62L-8.77945 349.09L-10.7363 362ZM-7.03644 360L-5.82809 352L-5.37897 352.06C-3.15476 352.35 -1.71116 353.41 -2.17097 356.48C-2.63079 359.55 -4.36311 360.3 -6.58732 360H-7.03644ZM3.8066 364L12.7676 365.19L13.1633 362.59L7.48511 361.81L7.90215 359.07L12.5217 359.68L12.9173 357.08L8.2978 356.46L8.66137 354.07L14.0936 354.79L14.4892 352.22L5.7314 351.06L3.8066 364ZM16.5103 365.69L19.7183 366.11L20.3706 361.82C20.6058 360.26 20.5951 358.45 20.67 356.99H20.7555L21.6859 359.99L24.156 366.67L27.5351 367.12L29.492 354.21L26.284 353.8L25.6638 358.05C25.4695 359.654 25.3767 361.266 25.3858 362.88H25.2895L24.3699 359.88L21.8783 353.25L18.4992 352.8L16.5103 365.69ZM34.3681 368L37.6938 368.44L39.2657 358.1L43.0084 358.59L43.404 356.03L32.6038 354.59L32.2081 357.16L35.9401 357.66L34.3681 368Z" fill="white"/>
<path d="M62.5562 371.77L65.8818 372.21L66.6838 366.9L71.2284 367.5L70.4264 372.81L73.7093 373.25L75.6662 360.34L72.3833 359.9L71.6455 364.81L67.1008 364.21L67.8387 359.3L64.5237 358.86L62.5562 371.77ZM83.4402 374.77C87.1187 375.25 89.2681 373.54 89.9311 369.18L91.0004 362.35L87.7924 361.92L86.7231 369.09C86.3488 371.54 85.3864 372.29 83.8787 372.09C82.3709 371.89 81.74 370.92 82.0822 368.47L83.1515 361.31L79.8473 360.87L78.7779 367.71C78.1363 372.08 79.751 374.3 83.4082 374.79L83.4402 374.77ZM97.1491 376.59C100.496 377.03 102.71 375.39 103.041 373.24C103.191 372.46 103.064 371.656 102.677 370.952C102.291 370.247 101.667 369.681 100.902 369.34L99.2664 368.47C98.1115 367.86 97.2881 367.47 97.395 366.75C97.502 366.03 98.1863 365.75 99.2129 365.89C100.248 366.048 101.194 366.532 101.897 367.26L103.843 365.54C102.795 364.278 101.259 363.452 99.5658 363.24C96.6358 362.85 94.294 364.31 93.9625 366.48C93.8543 367.275 94.016 368.083 94.4246 368.788C94.8333 369.493 95.4683 370.06 96.2402 370.41L97.8976 371.34C98.967 371.96 99.7369 372.34 99.6299 373.05C99.523 373.76 98.8814 374.11 97.6517 373.94C96.3999 373.71 95.2687 373.09 94.4437 372.18L92.2408 374.07C93.4858 375.454 95.234 376.358 97.1491 376.61V376.59ZM108.003 377.8L111.318 378.24L112.89 367.9L116.643 368.39L117.028 365.83L106.228 364.39L105.864 367L109.596 367.5L108.003 377.8ZM127.732 380.66C131.068 381.11 133.282 379.47 133.613 377.32C133.764 376.54 133.636 375.736 133.249 375.032C132.863 374.327 132.239 373.761 131.475 373.42L129.849 372.55C128.694 371.93 127.86 371.55 127.967 370.83C128.074 370.11 128.759 369.83 129.785 369.97C130.822 370.122 131.771 370.606 132.469 371.34L134.415 369.61C133.366 368.351 131.83 367.529 130.138 367.32C127.208 366.93 124.866 368.39 124.535 370.56C124.43 371.351 124.593 372.153 124.999 372.854C125.405 373.555 126.036 374.12 126.802 374.47L128.459 375.4C129.582 376.02 130.298 376.4 130.191 377.11C130.085 377.82 129.443 378.16 128.213 378C126.961 377.77 125.83 377.15 125.005 376.24L122.867 378.12C124.099 379.503 125.837 380.408 127.743 380.66H127.732ZM138.586 381.86L141.911 382.3L143.483 372L147.237 372.49L147.622 369.93L136.875 368.45L136.479 371.02L140.211 371.52L138.586 381.86ZM154.294 384.19C157.973 384.68 160.122 382.96 160.785 378.61L161.854 371.77L158.646 371.35L157.577 378.51C157.203 380.96 156.24 381.72 154.733 381.51C153.225 381.3 152.594 380.33 152.936 377.89L154.006 370.72L150.701 370.28L149.632 377.12C149.001 381.48 150.616 383.7 154.305 384.19H154.294ZM163.918 385.19L168.078 385.74C172.109 386.27 175.2 384.61 175.873 380.12C176.547 375.63 174.066 373.36 169.853 372.8L165.875 372.28L163.918 385.19ZM167.618 383.13L168.827 375.18L169.276 375.24C171.5 375.54 172.943 376.59 172.484 379.67C172.024 382.75 170.291 383.48 168.067 383.19L167.618 383.13ZM178.461 387.13L187.422 388.32L187.818 385.72L182.172 384.97L182.589 382.23L187.208 382.84L187.604 380.24L182.984 379.63L183.348 377.23L188.78 377.96L189.176 375.39L180.418 374.22L178.461 387.13ZM191.165 388.82L194.319 389.24L194.972 384.95C195.207 383.39 195.196 381.59 195.271 380.12H195.357L196.287 383.12L198.757 389.8L202.136 390.25L204.093 377.34L201.035 377L200.383 381.27C200.188 382.873 200.095 384.486 200.105 386.1H199.965L199.046 383.1L196.554 376.47L193.175 376.02L191.165 388.82ZM209.033 391.19L212.348 391.63L213.92 381.29L217.663 381.79L218.059 379.22L207.258 377.79L206.863 380.35L210.595 380.85L209.033 391.19Z" fill="black"/>
<path d="M237.285 395L240.6 395.44L241.413 390.13L245.957 390.73L245.145 396.04L248.428 396.48L250.384 383.57L247.102 383.13L246.364 388.04L241.819 387.44L242.557 382.53L239.242 382.09L237.285 395ZM258.159 398C261.837 398.49 263.986 396.77 264.649 392.42L265.719 385.58L262.511 385.16L261.441 392.32C261.067 394.77 260.105 395.52 258.597 395.32C257.089 395.12 256.458 394.14 256.8 391.7L257.87 384.53L254.566 384.09L253.496 390.93C252.855 395.26 254.501 397.48 258.159 398V398ZM271.867 399.82C275.214 400.26 277.428 398.63 277.759 396.47C277.906 395.685 277.77 394.876 277.373 394.171C276.977 393.465 276.342 392.902 275.567 392.57L273.942 391.7C272.787 391.09 271.953 390.7 272.06 389.98C272.167 389.26 272.851 388.98 273.878 389.13C274.914 389.279 275.863 389.759 276.562 390.49L278.508 388.77C277.46 387.508 275.924 386.682 274.231 386.47C271.301 386.08 268.959 387.54 268.627 389.71C268.523 390.501 268.685 391.303 269.092 392.004C269.498 392.705 270.128 393.27 270.894 393.62L272.552 394.55C273.675 395.18 274.391 395.55 274.284 396.27C274.177 396.99 273.536 397.32 272.306 397.15C271.054 396.92 269.923 396.299 269.098 395.39L266.895 397.28C268.149 398.654 269.9 399.548 271.814 399.79L271.867 399.82ZM282.732 401L286.057 401.44L287.651 391.08L291.404 391.58L291.789 389.01L280.989 387.58L280.604 390.14L284.336 390.64L282.732 401ZM302.461 403.87C305.797 404.31 308.011 402.67 308.342 400.52C308.489 399.735 308.353 398.926 307.956 398.221C307.56 397.515 306.925 396.952 306.15 396.62L304.525 395.75C303.37 395.14 302.536 394.75 302.643 394.03C302.75 393.31 303.434 393.03 304.461 393.17C305.496 393.328 306.442 393.811 307.145 394.54L309.091 392.82C308.057 391.568 306.542 390.743 304.867 390.52C301.926 390.13 299.585 391.59 299.264 393.76C299.157 394.55 299.317 395.352 299.721 396.053C300.126 396.754 300.755 397.32 301.52 397.67L303.177 398.6C304.3 399.22 305.017 399.6 304.91 400.31C304.803 401.02 304.161 401.37 302.942 401.2C301.69 400.97 300.559 400.35 299.734 399.44L297.596 401.32C298.825 402.699 300.56 403.601 302.461 403.85V403.87ZM313.315 405L316.64 405.44L318.212 395.1L321.955 395.6L322.34 393.03L311.55 391.59L311.176 394.2L314.908 394.7L313.315 405ZM329.023 407.33C332.702 407.82 334.851 406.1 335.514 401.75L336.583 394.91L333.375 394.49L332.306 401.65C331.932 404.1 330.969 404.86 329.462 404.65C327.954 404.44 327.323 403.47 327.665 401.03L328.735 393.86L325.43 393.43L324.361 400.26C323.719 404.67 325.334 406.88 329.023 407.37V407.33ZM338.701 408.33L342.86 408.88C346.892 409.41 349.982 407.75 350.656 403.26C351.33 398.77 348.849 396.5 344.636 395.94L340.668 395.42L338.701 408.33ZM342.401 406.27L343.609 398.27L344.058 398.33C346.282 398.63 347.726 399.69 347.266 402.76C346.806 405.83 345.074 406.57 342.85 406.28L342.401 406.27ZM353.244 410.27L362.205 411.45L362.6 408.85L356.954 408.1L357.371 405.36L361.991 405.98L362.386 403.37L357.767 402.76L358.131 400.36L363.573 401.09L363.958 398.52L355.201 397.36L353.244 410.27ZM365.947 412L369.102 412.42L369.754 408.13C369.989 406.57 369.979 404.77 370.054 403.31H370.139L371.069 406.31L373.54 412.99L376.919 413.44L378.876 400.53L375.721 400.11L375.069 404.38C374.875 405.983 374.782 407.596 374.791 409.21H374.705L373.786 406.21L371.283 399.58L367.904 399.13L365.947 412ZM383.816 414.37L387.131 414.81L388.703 404.47L392.445 404.97L392.841 402.4L382.041 401L381.656 403.57L385.377 404.06L383.816 414.37Z" fill="white"/>
<path d="M44.6126 112.52C57.2415 113.28 52.3867 122.23 47.2646 118.91C46.7837 116.661 45.7556 114.547 44.2598 112.73L44.6126 112.52ZM56.525 110.34C55.4557 115.25 53.6485 124.34 53.317 126.68C53.0675 128.001 52.9316 129.339 52.9107 130.68C53.0497 133.12 55.0493 134.55 54.9317 138.54C54.9381 139.042 54.8347 139.541 54.6277 140.005C54.4207 140.469 54.1146 140.888 53.7281 141.237C53.3416 141.587 52.8829 141.858 52.3801 142.036C51.8773 142.213 51.341 142.293 50.8041 142.27C50.1408 142.285 49.4948 142.071 48.9897 141.669C48.4846 141.267 48.1559 140.705 48.0666 140.09C49.0076 135.64 48.8258 131.27 47.7993 130.6C47.1158 130.171 46.3217 129.923 45.5002 129.88V129.13H47.4357C48.1094 129.13 48.2912 129.13 48.7403 128.24C49.5957 126.73 49.5957 126.73 55.83 110.18L56.525 110.34ZM47.3074 102.86C60.6526 103.86 55.445 113.32 50.0983 109.75C49.5688 107.347 48.513 105.072 46.9973 103.07L47.3074 102.86ZM68.6085 111.86C68.3115 111.99 67.9842 112.049 67.6568 112.03C67.5285 119.03 67.5712 124.75 66.5874 129.42C79.0666 133.24 74.5754 142.42 69.4105 138.74C68.7696 136.069 67.6642 133.515 66.1383 131.18C64.6947 136.18 61.7327 139.67 55.445 142.06L54.8569 141.43C63.2618 135.59 62.7165 126.56 62.7165 109.76L68.6085 110.89V106.98H61.7327V128.41C61.7327 128.7 60.2035 129.58 57.7334 129.58H56.8779V103.88L62.2246 105.81H68.4374L70.9075 103.16L75.5378 106.56C75.3036 106.807 75.0197 107.008 74.7022 107.152C74.3848 107.296 74.0401 107.38 73.6878 107.4V127.27C73.6878 127.53 72.0304 128.49 69.5174 128.49H68.6192L68.6085 111.86ZM87.2897 103.67C87.2042 104.3 86.7551 104.67 85.6323 104.84V136.18C85.6323 139.71 84.9586 141.68 79.4301 142.18C79.4681 140.9 79.1746 139.631 78.5747 138.48C78.04 137.64 77.2273 137.14 75.4308 136.8V136.17C75.4308 136.17 78.8955 136.42 79.7082 136.42C80.3391 136.42 80.5209 136.21 80.5209 135.75V108.57C80.2028 108.89 79.7676 109.086 79.3018 109.12V130.21C79.3018 130.58 77.4198 131.38 75.8479 131.38H75.0352V107.52L80.5209 107.98V102.98L87.2897 103.67Z" stroke="white" stroke-width="1.5" stroke-miterlimit="10"/>
<path d="M120.834 120.63L125.016 115.08C125.016 115.08 129.689 118.91 132.383 121.3C132.244 121.76 131.71 121.97 130.94 121.97H90.027L89.6206 120.63H120.834Z" stroke="white" stroke-width="1.5" stroke-miterlimit="10"/>
<path d="M134.436 112.52C147.065 113.28 142.21 122.23 137.088 118.91C136.607 116.661 135.579 114.547 134.083 112.73L134.436 112.52ZM146.349 110.34C145.279 115.25 143.472 124.34 143.141 126.68C142.891 128.001 142.755 129.339 142.734 130.68C142.873 133.12 144.873 134.55 144.755 138.54C144.762 139.042 144.658 139.541 144.451 140.005C144.244 140.469 143.938 140.888 143.552 141.237C143.165 141.587 142.707 141.858 142.204 142.036C141.701 142.213 141.165 142.293 140.628 142.27C139.965 142.285 139.319 142.071 138.813 141.669C138.308 141.267 137.98 140.705 137.89 140.09C138.831 135.64 138.65 131.27 137.623 130.6C136.94 130.171 136.145 129.923 135.324 129.88V129.13H137.259C137.933 129.13 138.115 129.13 138.564 128.24C139.419 126.73 139.419 126.73 145.654 110.18L146.349 110.34ZM137.131 102.86C150.476 103.86 145.269 113.32 139.922 109.75C139.393 107.347 138.337 105.072 136.821 103.07L137.131 102.86ZM158.432 111.86C158.135 111.99 157.808 112.049 157.481 112.03C157.352 119.03 157.395 124.75 156.411 129.42C168.89 133.24 164.399 142.42 159.234 138.74C158.593 136.069 157.488 133.515 155.962 131.18C154.518 136.18 151.556 139.67 145.269 142.06L144.681 141.43C153.086 135.59 152.54 126.56 152.54 109.76L158.432 110.89V106.98H151.556V128.41C151.556 128.7 150.027 129.58 147.557 129.58H146.702V103.88L152.048 105.81H158.261L160.731 103.16L165.361 106.56C165.127 106.807 164.843 107.008 164.526 107.152C164.209 107.296 163.864 107.38 163.512 107.4V127.27C163.512 127.53 161.854 128.49 159.341 128.49H158.443L158.432 111.86ZM177.113 103.67C177.028 104.3 176.579 104.67 175.456 104.84V136.18C175.456 139.71 174.782 141.68 169.254 142.18C169.292 140.9 168.998 139.631 168.398 138.48C167.864 137.64 167.051 137.14 165.255 136.8V136.17C165.255 136.17 168.719 136.42 169.532 136.42C170.163 136.42 170.345 136.21 170.345 135.75V108.57C170.026 108.89 169.591 109.086 169.126 109.12V130.21C169.126 130.58 167.244 131.38 165.672 131.38H164.859V107.52L170.345 107.98V102.98L177.113 103.67Z" stroke="white" stroke-width="1.5" stroke-miterlimit="10"/>
</g>
<defs>
<clipPath id="clip0_383_4807">
<rect width="401" height="541" fill="white"/>
</clipPath>
</defs>
</svg>
