<svg width="406" height="667" viewBox="0 0 406 667" fill="none" xmlns="http://www.w3.org/2000/svg">
<g clip-path="url(#clip0_377_4943)">
<path fill-rule="evenodd" clip-rule="evenodd" d="M146.788 439.19L146.604 439.72C145.619 439.05 145.012 440.11 144.904 440.31C145.023 439.46 145.283 434.03 124.42 453.77C101.966 475 47.1934 492.21 5.78144 445.28C-35.6306 398.35 -38.7053 381.54 -27.9328 345.61C-27.9328 345.61 -25.6592 361.61 2.38186 379.18C30.4229 396.75 79.2837 406 63.7366 392C55.9955 385 49.6619 381.82 42.8952 378.4C34.3915 374.37 26.4965 369.327 19.4122 363.4C11.5954 356.87 3.17221 352.81 -4.16827 349.27C-14.5294 344.27 -22.7685 340.27 -24.1543 331.87C-26.547 317.46 -16.9546 282.87 -1.75392 251.5C4.59052 262.758 10.2367 274.34 15.1573 286.19C20.3758 298.87 27.4348 305.19 36.8107 313.51C41.6177 317.79 47.0202 322.61 53.0507 329.1C70.9688 348.28 113.453 378.33 103.839 359.04C99.7569 350.87 91.442 343.92 81.7413 335.8C68.5436 324.75 52.7692 311.55 41.6069 290.21C36.181 279.583 30.0523 269.273 23.2557 259.34C18.6976 252.62 17.0953 250.26 16.7597 243.05C16.1859 229.86 46.7279 197.05 73.9245 177.05C73.9245 177.05 72.4629 213.23 86.7541 251.05C88.1976 254.89 89.5834 258.58 90.9115 262.12C102.637 293.48 109.912 312.92 121.432 314.36C122.948 314.55 124.496 314.8 126.012 315.04C137.282 316.88 146.647 318.4 127.83 290.84C106.502 259.56 73.5347 208.24 88.1182 174.3C88.1182 174.3 122.969 146.38 138.473 144.65C138.473 144.65 109.804 179.79 136.838 229.93C163.872 280.07 181.888 234.48 164.988 203.81C148.087 173.14 172.339 134.73 172.339 134.73L172.555 134.67C177.159 133.883 181.829 133.468 186.511 133.43C188.936 133.38 191.329 133.27 193.732 133.17C195.627 133.09 197.522 133.01 199.438 132.95C208.099 132.68 216.663 133.63 225.216 134.58L226.364 134.71C232.86 135.42 238.88 135.88 245.062 133.53C247.335 132.67 249.469 131.526 251.406 130.13C251.558 130.02 251.893 129.81 252.315 129.54C253.701 128.64 256.051 127.13 255.953 126.61C255.966 126.678 255.984 126.745 256.007 126.81V127.01C256.754 130.26 259.255 133.4 261.529 135.82C266.834 141.53 273.806 145.47 280.735 149.39C283.518 150.96 286.3 152.53 288.964 154.21C298.5 160.105 307.269 166.993 315.099 174.74C315.197 174.85 315.446 175.06 315.749 175.33C316.756 176.21 318.445 177.69 318.38 178.21C318.38 178.21 313.4 222.35 280.086 238.05C246.772 253.75 232.178 300.39 286.16 274.39C340.141 248.39 339.427 204.52 339.427 204.52C350.86 214.26 361.167 255.65 361.167 255.65C351.25 290.98 291.703 314.73 254.416 328.52C221.535 340.67 230.11 344.52 240.395 349.09C241.77 349.7 243.178 350.33 244.52 350.99C254.762 356.05 273.07 344.26 302.573 325.25L313.118 318.47C348.846 295.61 370.889 265.54 370.889 265.54C380.081 296.4 383.795 339.41 374.884 349.76C370.012 355.43 367.208 356.47 359.218 359.45C347.348 363.824 335.778 368.864 324.573 374.54C301.891 385.78 280.67 387.95 262.861 389.76C249.869 391.1 238.641 392.24 230.11 396.65C209.951 407.06 263.575 405.65 290.35 399.82C299.433 397.82 306.893 396.82 313.519 395.98C326.424 394.28 336.157 392.98 348.5 385.55C360.054 378.623 372.022 372.303 384.347 366.62C376.562 400.19 362.174 433.36 351.011 443.72C344.515 449.79 335.28 448.57 323.685 447.02C315.478 445.92 306.059 444.67 295.536 445.74C286.013 446.715 276.393 446.537 266.921 445.21C259.277 444.33 252.088 443.51 241.381 444.96C219.879 447.87 265.286 466.76 299.238 467.66C332.411 468.53 344.71 457.37 345.262 456.87C330.971 491.72 317.698 503.68 254.167 519.31C190.636 534.94 157.279 491.49 152.732 462.18C150.123 445.41 147.892 440.69 146.452 439.71L146.788 439.19ZM241.51 168.58L192.715 308.06L192.325 309.18L241.51 168.58ZM174.179 360.91L173.248 363.57L152.472 423L152.948 421.64L168.203 378L169.08 375.53L174.179 360.91Z" fill="#146643"/>
<path d="M74.0761 309V313.65H51.6108V309H74.0761ZM51.6108 314.82H74.0761V316.5H75.1588C77.205 316.5 80.2906 315.41 80.3339 315.08V309.79C80.9655 309.721 81.5474 309.44 81.9688 309L76.2956 305.14L73.6214 307.84H52.5635L45.1581 305.54V318C45.1581 326.55 44.7575 336.61 39.853 344.57L40.2103 344.87C50.972 337.74 51.6108 326.17 51.6108 317.95V314.82ZM68.7602 332.09V328.7H72.7986V330.21H73.8812C74.8142 330.181 75.7404 330.054 76.642 329.83L74.4767 332.09H68.7602ZM57.0999 332.09L53.7869 330.92C56.1905 330.92 58.8647 329.79 58.8647 329.33V328.7H62.7947V332.09H57.0999ZM62.7947 323.6V327.54H58.908V323.6H62.7947ZM72.7769 323.6V327.54H68.7602V323.6H72.7769ZM77.3133 329.6C78.1794 329.35 78.8182 329.1 78.8182 328.97V324.23C79.3562 324.135 79.8484 323.887 80.2257 323.52L74.9314 320L72.3872 322.47H68.7602V319.91C70.6657 319.79 72.4413 319.66 73.8921 319.49C74.3403 319.696 74.8379 319.793 75.338 319.772C75.8381 319.751 76.3242 319.613 76.7503 319.37L71.4561 315.1C65.4207 316.983 59.2026 318.322 52.8883 319.1L52.9858 319.73C56.0172 319.94 59.4818 320.02 62.7839 320.02V322.45H59.2328L53.0507 320.25V330.65L51.0045 329.93V344.86H51.8165C54.1767 344.86 56.7643 343.73 56.7643 343.22V333.29H62.7947V336.1H57.0566L59.6442 341.59C59.9277 341.548 60.1956 341.443 60.4241 341.282C60.6527 341.122 60.8348 340.911 60.9542 340.67C65.1766 339.2 68.2622 338.02 70.4817 337.1C70.6339 337.676 70.6959 338.269 70.6657 338.86C73.9137 341.67 78.5692 336.01 69.897 334.17L69.4423 334.38C69.7534 334.867 69.9971 335.388 70.1677 335.93H68.7602V333.25H74.9314V339.74C74.9314 340.16 74.8015 340.41 74.2494 340.41C73.6972 340.41 71.6185 340.29 71.6185 340.29V340.79C72.0936 340.822 72.5531 340.961 72.957 341.195C73.3608 341.428 73.6967 341.749 73.9354 342.13C74.3215 343.068 74.4912 344.069 74.4334 345.07C80.0633 344.65 80.832 343.07 80.832 340.16V334.16C81.5379 334.093 82.1889 333.778 82.6508 333.28L77.3133 329.6ZM118.39 322.14H110.724V311H124.149C124.832 311 125.33 310.78 125.47 310.32C123.013 308.44 118.974 305.67 118.974 305.67L115.391 309.82H89.4067L89.7748 311H103.849V322.23H85.639L86.0071 323.4H103.795V337.28C103.795 337.78 103.525 338.12 102.799 338.12C101.478 338.12 95.2206 337.78 95.2206 337.78V338.28C98.3062 338.75 99.443 339.46 100.352 340.38C101.262 341.3 101.706 342.85 101.803 344.95C109.512 344.49 110.746 341.6 110.746 337.49V323.35H127.397C128.08 323.35 128.621 323.14 128.718 322.68C126.217 320.75 122.082 317.95 122.082 317.95L118.39 322.14ZM141.212 317.14C143.105 314.362 144.686 311.414 145.933 308.34C146.305 308.406 146.69 308.356 147.028 308.196C147.365 308.037 147.635 307.778 147.795 307.46L139.079 305.07C137.573 312.82 134.608 320.265 130.321 327.07L130.83 327.37C132.74 326.131 134.516 324.724 136.135 323.17V344.85H137.358C139.946 344.85 142.62 343.59 142.771 343.17V319C143.681 318.83 144.038 318.53 144.179 318.16L141.212 317.14ZM156.142 315.14V323.35L148.888 321.3C147.922 326.781 146.098 332.103 143.475 337.1L144.016 337.44C148.861 334.085 152.651 329.598 154.995 324.44C155.4 324.452 155.803 324.38 156.175 324.23V337.65C156.175 338.11 155.958 338.32 155.276 338.32C154.269 338.32 149.376 338.07 149.376 338.07V338.61C151.779 339.03 152.732 339.66 153.501 340.61C154.269 341.56 154.497 342.96 154.681 344.93C161.718 344.34 162.671 342.12 162.671 338.06V317C163.753 316.83 164.165 316.46 164.262 315.83L156.142 315.14ZM163.721 322.01C165.626 326.01 167.586 330.9 167.987 335.43C174.115 340.58 179.614 328.72 164.176 321.8L163.721 322.01ZM169.134 310.57L165.886 313.57H154.486C155.569 312.059 156.528 310.474 157.355 308.83C158.438 308.92 159.033 308.58 159.26 308.03L150.902 305.18C149.58 311.338 147.189 317.258 143.822 322.71L144.32 323.04C147.978 320.86 151.141 318.04 153.63 314.74H166.33C166.2 316.67 165.875 319.18 165.561 320.99L165.875 321.24C168.461 319.767 170.843 318.007 172.967 316C173.963 316 174.418 315.83 174.775 315.45L169.134 310.57ZM184.118 337.23V326.23H189.694V337.23H184.118ZM189.694 314.68V325.07H184.118V314.72L189.694 314.68ZM214.249 310.15L210.849 313.34H205.176C206.153 311.743 207.017 310.09 207.764 308.39C208.846 308.39 209.388 308.05 209.572 307.51L201.138 305.25C200.14 311.213 198.355 317.039 195.822 322.6V315.6C196.521 315.485 197.16 315.162 197.641 314.68L192.054 310.61L189.239 313.5H186.219C187.854 311.87 189.889 309.77 191.253 308.31C192.336 308.31 192.975 308.01 193.202 307.26L184.443 305.33C184.313 307.72 184.129 311.03 183.902 313.38L178.185 311.2V343.2H179.138C181.769 343.2 184.086 341.9 184.086 341.27V338.38H189.662V341.7H190.669C192.834 341.7 195.746 340.52 195.79 340.14V323.14L196.06 323.3C199.389 320.846 202.203 317.85 204.364 314.46H211.358C211.088 328.71 210.676 336.46 209.041 337.77C208.816 337.96 208.55 338.106 208.262 338.199C207.974 338.292 207.668 338.33 207.363 338.31C206.183 338.31 203.098 338.14 200.921 337.98V338.48C202.755 338.704 204.466 339.452 205.815 340.62C206.638 341.46 206.898 342.84 206.898 344.81C210.297 344.81 212.387 344.1 214.162 342.46C216.837 339.9 217.41 333.11 217.703 315.51C218.478 315.467 219.205 315.152 219.738 314.63L214.249 310.15ZM198.734 322.1C200.508 324.697 201.539 327.666 201.733 330.73C207.32 335.21 213.448 324.95 199.102 321.89L198.734 322.1Z" fill="#03361C"/>
<path d="M42.7111 226.21C44.2359 228.213 45.3007 230.483 45.84 232.88C51.2533 236.44 56.5043 227.05 43.0251 226L42.7111 226.21ZM39.9395 235.85C41.4565 237.654 42.498 239.76 42.9817 242C48.1569 245.31 53.0614 236.39 40.3076 235.63L39.9395 235.85ZM51.6106 233.34C45.2987 249.85 45.2987 249.85 44.4325 251.34C43.9778 252.22 43.8046 252.22 43.1225 252.22H41.1412V253C41.97 253.041 42.771 253.29 43.4581 253.72C44.5408 254.39 44.6815 258.72 43.7288 263.19C43.8225 263.812 44.1641 264.379 44.6868 264.78C45.2095 265.182 45.8755 265.388 46.5545 265.36C47.0977 265.382 47.64 265.301 48.1484 265.123C48.6568 264.945 49.1206 264.673 49.5116 264.324C49.9026 263.975 50.2126 263.556 50.4227 263.093C50.6327 262.63 50.7386 262.132 50.7336 261.63C50.8636 257.63 48.8281 256.22 48.6874 253.79C48.7076 252.449 48.8451 251.111 49.0988 249.79C49.4561 247.44 51.2641 238.39 52.3468 233.48L51.6106 233.34ZM64.5376 251.53H65.4471C67.9914 251.53 69.6695 250.53 69.6695 250.31V230.49C70.3833 230.439 71.0492 230.139 71.5317 229.65L66.8545 226.25L64.3536 228.89H58.1391L52.7257 226.96V252.62H53.5919C56.082 252.62 57.6302 251.74 57.6302 251.44V230.07H64.5701V234L58.6263 232.87C58.6263 249.64 59.1676 258.65 50.6903 264.48L51.275 265.11C57.6302 262.72 60.6292 259.2 62.1016 254.25C63.6472 256.582 64.7665 259.132 65.4146 261.8C70.6331 265.44 75.1586 256.31 62.5564 252.49C63.5524 247.84 63.5091 242.09 63.639 235.14C63.9671 235.159 64.2949 235.1 64.5918 234.97L64.5376 251.53ZM76.5661 226.13V231.13L71.0336 230.67V254.48H71.8456C73.4372 254.48 75.3427 253.69 75.3427 253.31V232.31C75.8113 232.277 76.2486 232.08 76.5661 231.76V258.84C76.5661 259.3 76.382 259.51 75.7541 259.51C74.9312 259.51 71.4234 259.26 71.4234 259.26V259.89C73.2423 260.22 74.0651 260.73 74.6064 261.57C75.2044 262.716 75.4976 263.978 75.4617 265.25C81.0483 264.75 81.7304 262.78 81.7304 259.25V227.93C82.8131 227.76 83.3219 227.38 83.4085 226.76L76.5661 226.13Z" stroke="white" stroke-width="4.66"/>
<path d="M91.6802 243.73L92.0916 245.07H133.384C134.164 245.07 134.705 244.86 134.835 244.4C132.118 242.01 127.397 238.2 127.397 238.2L123.175 243.73H91.6802Z" stroke="white" stroke-width="4.66"/>
<path d="M145.272 226.21C146.805 228.21 147.874 230.481 148.412 232.88C153.825 236.44 159.076 227.05 145.597 226L145.272 226.21ZM142.511 235.85C144.02 237.662 145.061 239.769 145.554 242.01C150.718 245.32 155.622 236.4 142.869 235.64L142.511 235.85ZM154.172 233.34C147.86 249.85 147.86 249.85 147.004 251.34C146.55 252.22 146.366 252.22 145.683 252.22H143.735V253C144.563 253.043 145.363 253.292 146.052 253.72C147.134 254.39 147.275 258.72 146.322 263.19C146.413 263.805 146.745 264.367 147.257 264.769C147.768 265.172 148.422 265.385 149.094 265.37C149.637 265.393 150.179 265.314 150.688 265.136C151.196 264.958 151.66 264.686 152.051 264.337C152.441 263.988 152.75 263.568 152.958 263.104C153.167 262.64 153.27 262.142 153.262 261.64C153.403 257.64 151.357 256.23 151.227 253.8C151.237 252.459 151.371 251.12 151.627 249.8C151.995 247.45 153.793 238.4 154.875 233.49L154.172 233.34ZM167.109 251.53H168.019C170.552 251.53 172.23 250.53 172.23 250.31V230.49C172.946 230.445 173.614 230.144 174.093 229.65L169.426 226.25L166.925 228.89H160.711L155.298 226.96V252.62H156.153C158.654 252.62 160.191 251.74 160.191 251.44V230.07H167.142V234L161.198 232.87C161.198 249.64 161.739 258.65 153.251 264.48L153.847 265.11C160.191 262.72 163.19 259.2 164.673 254.25C166.219 256.582 167.338 259.132 167.986 261.8C173.205 265.44 177.73 256.31 165.128 252.49C166.124 247.84 166.081 242.09 166.211 235.14C166.539 235.158 166.866 235.1 167.164 234.97L167.109 251.53ZM179.138 226.13V231.13L173.595 230.67V254.48H174.417C175.998 254.48 177.904 253.69 177.904 253.31V232.31C178.375 232.276 178.816 232.08 179.138 231.76V258.84C179.138 259.3 178.954 259.51 178.315 259.51C177.503 259.51 173.984 259.26 173.984 259.26V259.89C175.803 260.22 176.615 260.73 177.157 261.57C177.764 262.714 178.062 263.977 178.023 265.25C183.609 264.75 184.281 262.78 184.281 259.25V227.93C185.417 227.76 185.872 227.38 185.969 226.76L179.138 226.13Z" stroke="white" stroke-width="4.66"/>
<path d="M67.9805 400.15H55.5081C56.2335 397.89 56.9589 395.54 57.5869 393.4H72.3869C73.0257 393.4 73.4696 393.19 73.6536 392.73C71.4883 390.89 67.7531 388.16 67.7531 388.16L64.4401 392.23H57.9441L59.3516 387.58C59.7427 387.674 60.1573 387.637 60.522 387.476C60.8866 387.315 61.1777 387.04 61.3437 386.7L52.8123 384.43C52.4983 386.15 51.7296 389.04 50.8635 392.23H38.2613L38.6185 393.4H50.5279C49.8999 395.62 49.1745 397.97 48.3625 400.15H35.6304L35.9877 401.33H48.0161C47.334 403.33 46.6519 405.14 46.024 406.61C45.4458 406.913 44.8986 407.265 44.3891 407.66L50.647 411.05L53.0505 408.37H63.0435C61.8321 410.899 60.4657 413.363 58.951 415.75C55.5514 414.7 50.8743 414.2 44.6165 414.66L44.3891 415.12C50.4629 416.92 58.0524 421.2 61.9933 425.12C67.3092 425.91 68.6625 419.67 60.8132 416.36C64.3166 414.453 67.6412 412.279 70.7521 409.86C71.8347 409.77 72.257 409.65 72.6143 409.23L66.7137 404L63.0327 407.23H53.2887C53.83 405.59 54.5121 403.54 55.1942 401.36H76.3386C77.0207 401.36 77.5187 401.15 77.6487 400.69C75.3859 398.76 71.4342 395.82 71.4342 395.82L67.9805 400.15ZM114.416 388.79V393.45H91.9507V388.79H114.416ZM91.9507 394.62H114.416V396.3H115.499C117.545 396.3 120.631 395.21 120.674 394.87V389.59C121.307 389.518 121.889 389.233 122.309 388.79L116.636 384.94L113.918 387.62H92.9034L85.5305 385.31V397.72C85.5305 406.27 85.1299 416.33 80.2254 424.3L80.5827 424.59C91.3444 417.46 91.9832 405.89 91.9832 397.68L91.9507 394.62ZM109.1 411.89V408.49H113.138V410H114.221C115.157 409.973 116.087 409.849 116.993 409.63L114.827 411.89H109.1ZM97.4398 411.89L94.1269 410.72C96.5304 410.72 99.2154 409.58 99.2154 409.12V408.49H103.113V411.89H97.4398ZM103.156 403.38V407.32H99.2587V403.38H103.156ZM113.138 403.38V407.32H109.1V403.38H113.138ZM117.675 409.38C118.541 409.13 119.18 408.87 119.18 408.75V404.01C119.716 403.91 120.207 403.663 120.587 403.3L115.271 399.69L112.727 402.17H109.1V399.61C111.006 399.48 112.781 399.36 114.232 399.19C114.681 399.393 115.178 399.489 115.678 399.468C116.177 399.447 116.663 399.31 117.09 399.07L111.828 394.83C105.796 396.722 99.5769 398.061 93.2607 398.83L93.3582 399.46C96.3896 399.67 99.8542 399.75 103.102 399.75V402.19H99.6051L93.3582 400V410.39L91.3119 409.68V424.6H92.1239C94.4841 424.6 97.0717 423.47 97.0717 422.97V413.03H103.156V415.84H97.4398L100.027 421.33C100.313 421.292 100.583 421.188 100.812 421.027C101.041 420.866 101.222 420.653 101.337 420.41C105.56 418.94 108.645 417.77 110.865 416.85C111.018 417.425 111.08 418.018 111.049 418.61C114.297 421.42 118.952 415.76 110.28 413.91L109.826 414.12C110.134 414.607 110.378 415.128 110.551 415.67L109.143 415.72V413.03H115.315V419.53C115.315 419.95 115.185 420.2 114.633 420.2C114.08 420.2 112.002 420.08 112.002 420.08V420.58C112.477 420.61 112.938 420.748 113.342 420.982C113.746 421.216 114.081 421.538 114.319 421.92C114.709 422.852 114.879 423.851 114.817 424.85C120.446 424.43 121.215 422.85 121.215 419.95V413.95C121.924 413.891 122.578 413.574 123.034 413.07L117.675 409.38Z" fill="#03361C"/>
<path d="M162.4 390.89V389.46H146.701V390.89L150.512 391.22C150.653 395.46 150.653 399.77 150.653 404.05H138.462C138.462 399.73 138.462 395.42 138.603 391.22L142.371 390.89V389.46H126.672V390.89L130.71 391.27C130.71 395.54 130.71 399.86 130.71 404.27V406.11C130.71 410.47 130.71 414.79 130.71 419.02L126.672 419.4V420.83H142.371V419.4L138.581 419C138.44 414.72 138.44 410.36 138.44 405.62H150.653C150.653 410.44 150.653 414.8 150.512 418.95L146.701 419.33V420.76H162.4V419.33L158.416 418.95C158.318 414.64 158.318 410.32 158.318 406.04V404.2C158.318 399.84 158.318 395.48 158.416 391.2L162.4 390.89ZM200.672 389.46H188.481V390.89L193.656 391.52L193.841 407.52C193.927 415.11 190.885 418.17 185.623 418.17C180.361 418.17 177.557 415.37 177.557 407.7V403.76C177.557 399.61 177.557 395.37 177.698 391.27L182.029 390.89V389.46H165.929V390.89L169.827 391.22C169.968 395.42 169.968 399.65 169.968 403.76V408.33C169.968 418.22 175.381 421.61 183.22 421.61C191.253 421.61 195.703 417.26 195.833 407.61L196.017 391.52L200.694 390.89L200.672 389.46ZM215.353 401.16C212.181 399.82 210.449 398.27 210.449 395.37C210.449 392.23 212.993 390.37 216.945 390.37C217.954 390.331 218.96 390.502 219.889 390.87L222.206 397.87H224.837L225.249 391.03C222.492 389.428 219.292 388.598 216.035 388.64C208.641 388.64 203.693 391.87 203.693 397.53C203.693 402.53 206.941 405.37 212.993 407.89L215.158 408.77C218.796 410.23 220.106 411.77 220.106 414.59C220.106 417.86 217.616 419.83 213.123 419.83C211.61 419.872 210.102 419.659 208.673 419.2L206.27 411.91H203.639L203.314 419.12C206.532 420.818 210.186 421.685 213.891 421.63C222.423 421.63 227.003 417.82 227.003 412.25C227.003 407.51 224.512 404.99 217.746 402.19L215.353 401.16ZM254.329 391.1L256.646 398.43H259.277L259.093 389.43H229.211L229.027 398.43H231.691L233.964 391.1H240.222C240.319 395.42 240.319 399.82 240.319 404.22V406.06C240.319 410.42 240.319 414.74 240.222 418.93L235.642 419.35V420.78H252.705V419.35L248.071 418.93C247.985 414.66 247.985 410.3 247.985 406.02V404.22C247.985 399.77 247.985 395.42 248.071 391.1H254.329ZM286.452 398.56C292.36 396.663 297.839 393.778 302.616 390.05C303.699 390.22 304.11 390.05 304.467 389.63L297.073 385.36C294.03 390.43 290.577 394.87 286.181 398.06L286.452 398.56ZM284.774 410.46C291.509 408.618 297.661 405.297 302.703 400.78C303.785 400.95 304.24 400.78 304.608 400.32L296.845 396.13C293.597 402 289.635 406.65 284.546 409.96L284.774 410.46ZM272.832 402.12V390.05H276.513V402.12H272.832ZM282.868 403.3H289.072C289.711 403.3 290.209 403.09 290.339 402.63C288.476 400.86 285.218 398.14 285.218 398.14L282.901 401.33V390.05H287.935C288.617 390.05 289.115 389.84 289.256 389.38C287.166 387.66 283.669 385.1 283.669 385.1L280.584 388.88H262.243L262.601 390.05H266.639V402.12H261.377L261.745 403.3H266.639C266.639 410.72 265.914 418.35 261.334 424.46L261.691 424.76C271.63 419.23 272.767 410.76 272.854 403.3H276.535V424.21H277.715C280.963 424.21 282.847 423 282.89 422.62L282.868 403.3ZM297.235 407C293.738 415.05 289.018 420.33 282.435 424.06L282.619 424.56C291.281 422.3 298.047 418.4 303.536 411.32C304.619 411.44 305.171 411.23 305.442 410.73L297.235 407ZM337.792 402C335.701 403.873 333.473 405.611 331.123 407.2C329.975 405.524 328.533 404.037 326.857 402.8C327.214 402.55 327.539 402.26 327.853 402H337.792ZM325.406 419.19C324.497 419.19 322.407 419.11 320.686 418.98C323.099 418.187 325.447 417.235 327.712 416.13C327.606 417.069 327.265 417.973 326.716 418.77C326.544 418.919 326.338 419.029 326.113 419.093C325.888 419.158 325.65 419.173 325.417 419.14L325.406 419.19ZM319.387 400.78V395.71H325.698C324.725 397.524 323.522 399.226 322.115 400.78H319.387ZM330.278 390.85C329.428 392.165 328.442 393.4 327.333 394.54H320.025L318.163 393.91C319.657 392.91 321.021 391.91 322.288 390.85H330.278ZM337.857 395.71V400.78H329.195C330.796 399.257 332.182 397.553 333.32 395.71H337.857ZM341.224 403.26C342.343 403.111 343.404 402.705 344.31 402.08V396.55C344.945 396.464 345.523 396.165 345.934 395.71L340.174 391.81L337.402 394.54H329.131C331.828 393.766 334.441 392.762 336.937 391.54C337.258 391.569 337.582 391.535 337.888 391.44C338.194 391.346 338.475 391.192 338.712 390.99L333.461 386.86L330.462 389.67H323.717C324.537 388.959 325.311 388.205 326.034 387.41C327.528 387.33 328.124 387.03 328.308 386.49L319.451 384.89C316.433 390.408 312.111 395.23 306.806 399L307.12 399.33C309.155 398.652 311.128 397.826 313.02 396.86V404.28H314.201C317.449 404.28 319.376 402.98 319.376 402.6V402H320.967C317.489 405.393 313.256 408.051 308.56 409.79L308.885 410.3C315.004 409.115 320.792 406.773 325.883 403.42C326.012 403.67 326.11 403.92 326.24 404.18C322.288 408.37 314.709 412.94 307.77 415.24L307.997 415.79C314.635 414.678 321.069 412.701 327.106 409.92C322.656 414.74 314.991 419.18 307.358 421.36L307.585 421.91C311.664 421.392 315.678 420.508 319.571 419.27C320.843 419.569 322.012 420.161 322.97 420.99C323.78 422.083 324.162 423.399 324.053 424.72C327.636 424.72 330.321 424.3 331.718 422.87C334.403 420.11 334.966 413.82 331.772 408.29L334.132 407.91C335.995 415.08 339.438 418.91 344.959 421.99C345.782 419.14 347.503 417.26 349.961 416.71V416.25C344.104 414.91 338.117 412.6 335.074 407.7C337.889 407.15 340.65 406.52 342.653 405.94C343.736 406.15 344.147 405.94 344.429 405.56L341.224 403.26Z" fill="white"/>
<g opacity="0.7">
<path opacity="0.7" d="M697.306 469.262L-13.2666 529.223L-10.7903 554.258L699.782 494.298L697.306 469.262Z" fill="#74C69D"/>
<path opacity="0.7" d="M-1.79715 546.659L0.898689 546.43L0.47645 542.169L4.16834 541.859L4.59058 546.12L7.25394 545.89L6.23624 535.539L3.56205 535.76L3.95181 539.7L0.259916 540L-0.129844 536.07L-2.82568 536.289L-1.79715 546.659ZM15.2115 545.419C18.1889 545.159 19.5422 543.469 19.1958 539.969L18.6544 534.49L16.056 534.71L16.6298 540.46C16.8247 542.46 16.2184 543.17 14.995 543.27C13.7716 543.37 13.057 542.74 12.8297 540.77L12.2992 535L9.61416 535.219L10.1555 540.71C10.5019 544.23 12.2126 545.669 15.2115 545.419ZM26.3414 544.479C29.048 544.249 30.4663 542.6 30.2931 540.87C30.2557 540.235 29.9906 539.63 29.5397 539.15C29.0888 538.67 28.4778 538.343 27.803 538.219L26.3522 537.83C25.3236 537.55 24.5874 537.39 24.5333 536.83C24.4792 536.27 24.9555 535.93 25.7892 535.83C26.6351 535.762 27.4795 535.974 28.1711 536.43L29.362 534.76C28.2987 533.96 26.9375 533.579 25.5727 533.7C23.2016 533.9 21.6426 535.429 21.8158 537.169C21.8812 537.805 22.1642 538.404 22.6237 538.881C23.0832 539.357 23.6952 539.686 24.3709 539.82L25.865 540.26C26.861 540.55 27.4998 540.69 27.5539 541.26C27.6081 541.83 27.1858 542.2 26.1898 542.26C25.1709 542.28 24.1735 541.988 23.3532 541.43L21.9999 543.27C23.2367 544.152 24.7823 544.583 26.3414 544.479V544.479ZM35.111 543.539L37.8068 543.31L36.984 535L40.0263 534.74L39.8206 532.68L31.051 533.419L31.2567 535.479L34.2881 535.229L35.111 543.539ZM51.1777 542.38C53.8844 542.15 55.3027 540.5 55.1295 538.78C55.0889 538.145 54.823 537.54 54.3728 537.059C53.9226 536.579 53.3134 536.248 52.6393 536.12L51.1777 535.729C50.0951 535.449 49.4238 535.289 49.3697 534.729C49.3155 534.169 49.7919 533.819 50.6256 533.729C51.4704 533.673 52.3108 533.884 53.0074 534.33L54.1875 532.659C53.1264 531.864 51.7701 531.483 50.409 531.599C48.0272 531.799 46.479 533.34 46.6522 535.08C46.7197 535.713 47.0037 536.31 47.463 536.785C47.9224 537.259 48.5332 537.587 49.2073 537.719L50.6905 538.159C51.6974 538.449 52.3362 538.599 52.3903 539.159C52.4444 539.719 52.0114 540.099 51.0153 540.159C50.0007 540.185 49.006 539.897 48.1896 539.34L46.8362 541.169C48.0697 542.058 49.6179 542.49 51.1777 542.38ZM59.9365 541.44L62.6323 541.219L61.8203 532.919L64.8626 532.669L64.6569 530.609L55.8873 531.349L56.093 533.409L59.1137 533.15L59.9365 541.44ZM72.7445 540.56C75.7218 540.31 77.0751 538.609 76.7287 535.109L76.1873 529.63L73.5998 529.849L74.1627 535.599C74.3576 537.599 73.7513 538.309 72.5279 538.419C71.3045 538.529 70.5899 537.879 70.3626 535.919L69.7888 530.169L67.1254 530.4L67.6667 535.88C68.0348 539.37 69.7455 540.81 72.7445 540.56V540.56ZM80.5505 539.7L83.9284 539.419C87.1764 539.139 89.3417 537.319 88.9411 533.719C88.5406 530.119 86.1695 528.79 82.7483 529.08L79.5003 529.349L80.5505 539.7ZM83.0514 537.469L82.4235 531.099H82.7808C84.5888 530.949 85.9422 531.519 86.1803 533.979C86.4185 536.439 85.2168 537.319 83.4087 537.469H83.0514ZM92.3624 538.71L99.6379 538.09L99.4322 536L94.8525 536.38L94.6251 534.18L98.382 533.87L98.1763 531.78L94.4194 532.099L94.1921 530.19L98.6094 529.81L98.4036 527.75L91.2905 528.349L92.3624 538.71ZM102.68 537.84L105.235 537.62L104.9 534.18C104.77 532.93 104.402 531.53 104.174 530.39H104.25L105.571 532.56L108.819 537.33L111.558 537.09L110.475 526.74L107.92 526.96L108.256 530.38C108.419 531.659 108.665 532.928 108.992 534.18H108.916L107.671 532L104.423 527.28L101.684 527.51L102.68 537.84ZM117.177 536.609L119.873 536.38L119.05 528.09L122.092 527.83L121.898 525.77L113.128 526.51L113.334 528.57L116.354 528.32L117.177 536.609Z" fill="black"/>
<path opacity="0.7" d="M140.065 534.68L142.761 534.45L142.338 530.19L146.03 529.88L146.452 534.14L149.116 533.91L148.098 523.56L145.424 523.79L145.814 527.72L142.122 528.04L141.732 524.1L139.036 524.33L140.065 534.68ZM157.073 533.44C160.051 533.19 161.404 531.44 161.058 528L160.516 522.51L157.929 522.73L158.492 528.48C158.687 530.48 158.08 531.19 156.857 531.3C155.633 531.41 154.919 530.76 154.691 528.8L154.129 523.05L151.443 523.28L151.985 528.76C152.364 532.25 154.074 533.69 157.073 533.44V533.44ZM168.203 532.5C170.91 532.27 172.328 530.62 172.155 528.9C172.118 528.264 171.853 527.658 171.403 527.176C170.952 526.695 170.34 526.365 169.665 526.24L168.214 525.85C167.131 525.57 166.449 525.41 166.395 524.85C166.341 524.29 166.817 523.94 167.651 523.85C168.496 523.791 169.337 524.003 170.033 524.45L171.224 522.78C170.158 521.985 168.799 521.605 167.434 521.72C165.063 521.92 163.504 523.46 163.678 525.2C163.745 525.833 164.029 526.431 164.488 526.905C164.948 527.38 165.559 527.707 166.233 527.84L167.727 528.28C168.723 528.57 169.362 528.72 169.427 529.28C169.492 529.84 169.048 530.23 168.052 530.28C167.034 530.305 166.036 530.016 165.215 529.46L163.862 531.29C165.096 532.178 166.643 532.609 168.203 532.5V532.5ZM176.973 531.56L179.669 531.34L178.846 523.04L181.888 522.78L181.682 520.78L172.913 521.52L173.118 523.58L176.15 523.32L176.973 531.56ZM193.029 530.4C195.746 530.17 197.164 528.53 196.991 526.8C196.952 526.166 196.686 525.562 196.236 525.082C195.785 524.603 195.175 524.275 194.501 524.15L193.04 523.75C191.957 523.47 191.286 523.31 191.231 522.75C191.177 522.19 191.654 521.85 192.487 521.75C193.331 521.684 194.174 521.893 194.869 522.34L196.049 520.67C194.987 519.877 193.631 519.5 192.271 519.62C189.889 519.82 188.341 521.35 188.514 523.09C188.59 523.722 188.877 524.316 189.335 524.79C189.793 525.265 190.399 525.597 191.069 525.74L192.552 526.17C193.559 526.47 194.198 526.61 194.252 527.17C194.306 527.73 193.873 528.11 192.877 528.17C191.862 528.19 190.868 527.898 190.051 527.34L188.698 529.18C189.926 530.071 191.471 530.507 193.029 530.4V530.4ZM201.798 529.47L204.494 529.24L203.682 520.95L206.724 520.69L206.519 518.63L197.749 519.37L197.955 521.43L200.975 521.17L201.798 529.47ZM214.606 528.58C217.594 528.33 218.937 526.58 218.59 523.14L218.049 517.66L215.462 517.87L216.025 523.62C216.219 525.62 215.613 526.34 214.39 526.44C213.166 526.54 212.463 525.9 212.224 523.94L211.661 518.19L208.976 518.42L209.518 523.9C209.897 527.39 211.607 528.84 214.606 528.58V528.58ZM222.412 527.73L225.79 527.44C229.038 527.16 231.204 525.35 230.803 521.74C230.402 518.13 228.031 516.81 224.61 517.1L221.362 517.37L222.412 527.73ZM224.913 525.49L224.285 519.12H224.643C226.451 518.97 227.804 519.54 228.042 522C228.28 524.46 227.079 525.34 225.271 525.49H224.913ZM234.224 526.73L241.5 526.11L241.294 524.03L236.703 524.41L236.487 522.22L240.244 521.9L240.038 519.81L236.281 520.13L236.097 518.21L240.514 517.84L240.309 515.78L233.196 516.38L234.224 526.73ZM244.542 525.86L247.097 525.64L246.761 522.21C246.632 520.95 246.263 519.55 246.036 518.41H246.112L247.433 520.59L250.681 525.35L253.42 525.12L252.337 514.76L249.782 514.98L250.118 518.4C250.281 519.679 250.526 520.948 250.854 522.2H250.778L249.533 520L246.285 515.29L243.546 515.52L244.542 525.86ZM259.039 524.63L261.735 524.41L260.912 516.11L263.954 515.86L263.759 513.8L254.99 514.54L255.195 516.6L258.216 516.34L259.039 524.63Z" fill="white"/>
<path opacity="0.7" d="M281.926 522.699L284.622 522.469L284.2 518.219L287.892 517.909L288.314 522.159L290.978 521.939L289.96 511.579L287.286 511.809L287.675 515.749L283.984 516.059L283.605 512.119L280.898 512.349L281.926 522.699ZM298.935 521.459C301.912 521.209 303.266 519.459 302.919 516.019L302.378 510.539L299.78 510.759L300.353 516.499C300.548 518.499 299.942 519.219 298.719 519.319C297.495 519.419 296.781 518.779 296.553 516.819L295.99 511.069L293.305 511.299L293.847 516.779C294.226 520.269 295.936 521.719 298.935 521.459V521.459ZM310.065 520.519C312.772 520.289 314.19 518.649 314.017 516.919C313.979 516.285 313.714 515.68 313.263 515.2C312.812 514.72 312.201 514.393 311.527 514.269L310.076 513.869C309.047 513.589 308.311 513.429 308.257 512.869C308.203 512.309 308.679 511.959 309.513 511.869C310.358 511.811 311.199 512.023 311.895 512.469L313.086 510.799C312.018 510.007 310.659 509.631 309.296 509.749C306.925 509.949 305.366 511.479 305.539 513.219C305.617 513.852 305.905 514.447 306.365 514.922C306.825 515.397 307.433 515.728 308.105 515.869L309.589 516.299C310.585 516.599 311.223 516.739 311.288 517.299C311.353 517.859 310.909 518.239 309.913 518.299C308.895 518.32 307.897 518.028 307.077 517.469L305.723 519.309C306.957 520.197 308.505 520.629 310.065 520.519ZM318.835 519.589L321.53 519.359L320.708 511.069L323.75 510.809L323.544 508.749L314.775 509.489L314.98 511.549L318.012 511.289L318.835 519.589ZM334.901 518.429C337.608 518.199 339.026 516.549 338.853 514.819C338.814 514.185 338.548 513.581 338.098 513.102C337.647 512.622 337.037 512.294 336.363 512.169L334.901 511.769C333.873 511.499 333.147 511.329 333.093 510.769C333.039 510.209 333.516 509.869 334.349 509.769C335.195 509.702 336.039 509.915 336.731 510.369L337.911 508.689C336.841 507.914 335.485 507.555 334.133 507.689C331.751 507.889 330.203 509.419 330.376 511.159C330.441 511.795 330.724 512.394 331.184 512.871C331.643 513.347 332.255 513.676 332.931 513.809L334.414 514.249C335.421 514.539 336.06 514.679 336.114 515.249C336.168 515.819 335.735 516.189 334.739 516.249C333.723 516.271 332.729 515.979 331.913 515.419L330.56 517.259C331.802 518.13 333.348 518.546 334.901 518.429V518.429ZM343.66 517.489L346.356 517.259L345.544 508.969L348.586 508.709L348.381 506.649L339.611 507.389L339.817 509.449L342.848 509.199L343.66 517.489ZM356.468 516.599C359.456 516.349 360.799 514.599 360.452 511.159L359.911 505.679L357.323 505.899L357.886 511.639C358.081 513.639 357.475 514.359 356.252 514.459C355.028 514.559 354.324 513.919 354.086 511.959L353.523 506.209L350.838 506.439L351.38 511.919C351.758 515.419 353.469 516.859 356.468 516.599V516.599ZM364.274 515.749L367.652 515.459C370.9 515.189 373.065 513.369 372.665 509.769C372.264 506.169 369.893 504.839 366.472 505.119L363.224 505.399L364.274 515.749ZM366.775 513.519L366.147 507.139H366.504C368.312 506.989 369.666 507.569 369.904 510.029C370.142 512.489 368.94 513.369 367.143 513.519H366.775ZM376.086 514.749L383.362 514.139L383.156 512.049L378.576 512.439L378.349 510.239L382.106 509.919L381.9 507.829L378.143 508.149L377.959 506.229L382.365 505.859L382.181 503.799L375.068 504.399L376.086 514.749ZM386.404 513.879L388.959 513.659L388.623 510.229C388.493 508.979 388.125 507.579 387.898 506.429H387.974L389.295 508.609L392.543 513.369L395.282 513.139L394.253 502.789L391.698 502.999L392.034 506.429C392.197 507.705 392.442 508.971 392.77 510.219H392.694L391.373 508.019L388.125 503.299L385.386 503.529L386.404 513.879ZM400.901 512.659L403.597 512.429L402.774 504.139L405.816 503.879L405.621 501.819L396.852 502.559L397.057 504.619L400.078 504.359L400.901 512.659Z" fill="black"/>
</g>
<path d="M-299.066 427.106L-303.845 458.32L582.138 574.044L586.917 542.83L-299.066 427.106Z" fill="#74C69D"/>
<path d="M-113.561 474.58L-110.194 475.03L-109.382 469.72L-104.781 470.32L-105.593 475.63L-102.269 476.07L-100.288 463.16L-103.611 462.72L-104.358 467.63L-108.96 467.03L-108.213 462.12L-111.58 461.68L-113.561 474.58ZM-92.4166 477.58C-88.6922 478.07 -86.516 476.36 -85.8448 472L-84.7621 465.16L-88.0101 464.74L-89.0928 471.91C-89.4717 474.35 -90.4461 475.11 -91.9727 474.91C-93.4992 474.71 -94.138 473.74 -93.7915 471.29L-92.7089 464.13L-96.0543 463.69L-97.137 470.52C-97.7866 474.9 -96.1518 477.11 -92.4166 477.6V477.58ZM-78.5368 479.4C-75.148 479.85 -72.9069 478.21 -72.5821 476.06C-72.428 475.28 -72.5567 474.475 -72.9482 473.77C-73.3397 473.065 -73.9721 472.499 -74.7474 472.16L-76.4039 471.29C-77.5732 470.67 -78.4068 470.29 -78.2986 469.57C-78.1903 468.85 -77.4974 468.57 -76.4689 468.71C-75.415 468.861 -74.4506 469.345 -73.7406 470.08L-71.7701 468.35C-72.8308 467.089 -74.387 466.266 -76.1008 466.06C-79.0673 465.67 -81.4383 467.13 -81.7739 469.3C-81.8796 470.091 -81.7152 470.893 -81.3038 471.594C-80.8923 472.295 -80.2543 472.86 -79.4787 473.21L-77.8006 474.14C-76.7179 474.76 -75.9384 475.14 -76.0466 475.85C-76.1549 476.56 -76.8045 476.9 -78.0496 476.74C-79.2792 476.497 -80.3872 475.886 -81.2001 475L-83.4304 476.88C-82.19 478.25 -80.4492 479.154 -78.5368 479.42V479.4ZM-67.5369 480.6L-64.1806 481.04L-62.5891 470.69L-58.7889 471.19L-58.3992 468.62L-69.2908 467.21L-69.6806 469.78L-65.9129 470.27L-67.5369 480.6ZM-47.5617 483.46C-44.1838 483.9 -41.9426 482.27 -41.607 480.12C-41.4529 479.34 -41.5816 478.535 -41.9731 477.83C-42.3646 477.125 -42.997 476.559 -43.7723 476.22L-45.418 475.34C-46.5981 474.73 -47.4318 474.34 -47.3235 473.63C-47.2152 472.92 -46.5223 472.63 -45.483 472.77C-44.4315 472.919 -43.4699 473.404 -42.7655 474.14L-40.795 472.41C-41.3178 471.783 -41.9696 471.258 -42.7128 470.865C-43.456 470.472 -44.276 470.219 -45.1257 470.12C-48.0922 469.73 -50.4632 471.19 -50.7988 473.36C-50.9045 474.151 -50.7401 474.953 -50.3287 475.654C-49.9172 476.355 -49.2792 476.92 -48.5036 477.27L-46.8255 478.19C-45.7428 478.82 -44.9633 479.19 -45.0715 479.91C-45.1798 480.63 -45.8294 480.96 -47.0745 480.8C-48.3235 480.556 -49.4481 479.933 -50.2683 479.03L-52.4878 480.92C-51.2442 482.305 -49.4896 483.217 -47.5617 483.48V483.46ZM-36.5726 484.65L-33.2055 485.09L-31.6248 474.75L-27.8247 475.25L-27.4349 472.68L-38.3698 471.25L-38.7596 473.82L-34.9811 474.31L-36.5726 484.65ZM-20.6682 487C-16.9439 487.48 -14.7677 485.77 -14.0965 481.41L-13.0138 474.58L-16.2618 474.15L-17.3445 481.32C-17.7234 483.77 -18.7086 484.52 -20.2243 484.32C-21.7401 484.12 -22.3897 483.15 -22.0432 480.7L-20.9606 473.54L-24.2952 473.1L-25.3778 479.94C-25.9841 484.3 -24.4034 486.52 -20.6682 487ZM-10.8701 488L-6.65853 488.55C-2.58771 489.09 0.5412 487.43 1.23411 482.93C1.92701 478.43 -0.595597 476.18 -4.8613 475.62L-8.88882 475.09L-10.8701 488ZM-7.12408 486L-5.90066 478L-5.44594 478.06C-3.194 478.35 -1.7324 479.41 -2.19794 482.48C-2.66349 485.55 -4.41742 486.3 -6.66936 486H-7.12408ZM3.85416 490L12.9269 491.19L13.3275 488.59L7.57853 487.81L8.00077 485.07L12.6779 485.68L13.0785 483.08L8.40136 482.46L8.76947 480.07L14.2694 480.79L14.67 478.22L5.80296 477.06L3.85416 490ZM16.7162 491.69L19.9642 492.11L20.6247 487.82C20.8629 486.26 20.852 484.45 20.9278 482.99H21.0144L21.9563 485.99L24.4573 492.67L27.8785 493.12L29.8598 480.21L26.6118 479.8L25.9839 484.05C25.7868 485.653 25.6928 487.266 25.7024 488.88H25.6049L24.6738 485.88L22.1512 479.25L18.73 478.8L16.7162 491.69ZM34.7968 494L38.1639 494.44L39.7554 484.1L43.5447 484.59L43.9453 482.03L33.0104 480.59L32.6098 483.16L36.3883 483.66L34.7968 494Z" fill="white"/>
<path d="M63.3359 497.77L66.703 498.21L67.515 492.9L72.1164 493.5L71.3044 498.81L74.6282 499.25L76.6094 486.34L73.2856 485.9L72.5386 490.81L67.9373 490.21L68.6843 485.3L65.328 484.86L63.3359 497.77ZM84.4804 500.77C88.2048 501.25 90.3809 499.54 91.0522 495.18L92.1349 488.35L88.8869 487.92L87.8042 495.09C87.4253 497.54 86.4509 498.29 84.9243 498.09C83.3978 497.89 82.759 496.92 83.1054 494.47L84.1881 487.31L80.8427 486.87L79.76 493.71C79.1104 498.08 80.7452 500.3 84.4479 500.79L84.4804 500.77ZM98.3602 502.59C101.749 503.03 103.99 501.39 104.326 499.24C104.476 498.461 104.346 497.658 103.955 496.953C103.564 496.249 102.933 495.682 102.16 495.34L100.504 494.47C99.3346 493.86 98.501 493.47 98.6092 492.75C98.7175 492.03 99.4104 491.75 100.45 491.89C101.498 492.048 102.457 492.531 103.167 493.26L105.138 491.54C104.078 490.277 102.522 489.451 100.807 489.24C97.8405 488.85 95.4695 490.31 95.1339 492.48C95.0244 493.276 95.188 494.083 95.6018 494.788C96.0155 495.493 96.6585 496.061 97.4399 496.41L99.1181 497.34C100.201 497.96 100.98 498.34 100.872 499.05C100.764 499.76 100.114 500.11 98.8691 499.94C97.6013 499.712 96.4558 499.091 95.6211 498.18L93.3908 500.07C94.6519 501.454 96.4215 502.358 98.3602 502.61V502.59ZM109.349 503.8L112.706 504.24L114.297 493.9L118.097 494.39L118.487 491.83L107.552 490.39L107.184 493L110.962 493.5L109.349 503.8ZM129.324 506.66C132.702 507.11 134.944 505.47 135.279 503.32C135.431 502.541 135.302 501.737 134.911 501.032C134.519 500.327 133.888 499.761 133.114 499.42L131.468 498.55C130.299 497.93 129.454 497.55 129.563 496.83C129.671 496.11 130.364 495.83 131.403 495.97C132.453 496.124 133.413 496.608 134.121 497.34L136.091 495.61C135.029 494.352 133.473 493.529 131.76 493.32C128.794 492.93 126.423 494.39 126.087 496.56C125.983 497.352 126.148 498.153 126.56 498.854C126.971 499.554 127.608 500.119 128.383 500.47L130.061 501.4C131.197 502.02 131.923 502.4 131.815 503.11C131.706 503.82 131.057 504.16 129.812 504C128.544 503.772 127.398 503.151 126.564 502.24L124.398 504.12C125.648 505.501 127.407 506.406 129.335 506.66H129.324ZM140.314 507.86L143.681 508.3L145.272 498L149.072 498.49L149.462 495.93L138.581 494.45L138.181 497.02L141.959 497.52L140.314 507.86ZM156.218 510.19C159.942 510.68 162.118 508.96 162.79 504.61L163.872 497.77L160.624 497.35L159.542 504.51C159.163 506.96 158.188 507.72 156.662 507.51C155.135 507.3 154.496 506.33 154.843 503.89L155.926 496.72L152.58 496.28L151.497 503.12C150.859 507.48 152.494 509.7 156.229 510.19H156.218ZM165.962 511.19L170.173 511.74C174.255 512.27 177.384 510.61 178.066 506.12C178.748 501.63 176.236 499.36 171.971 498.8L167.943 498.28L165.962 511.19ZM169.708 509.13L170.931 501.18L171.386 501.24C173.638 501.54 175.1 502.59 174.634 505.67C174.169 508.75 172.415 509.48 170.163 509.19L169.708 509.13ZM180.686 513.13L189.759 514.32L190.16 511.72L184.443 510.97L184.865 508.23L189.542 508.84L189.943 506.24L185.266 505.63L185.634 503.23L191.134 503.96L191.534 501.39L182.667 500.22L180.686 513.13ZM193.548 514.82L196.742 515.24L197.403 510.95C197.641 509.39 197.63 507.59 197.706 506.12H197.792L198.734 509.12L201.235 515.8L204.656 516.24L206.638 503.34L203.541 503L202.881 507.27C202.683 508.874 202.589 510.487 202.599 512.1H202.502L201.571 509.1L199.048 502.47L195.627 502.02L193.548 514.82ZM211.64 517.19L214.996 517.63L216.587 507.29L220.377 507.79L220.777 505.22L209.842 503.79L209.442 506.35L213.22 506.85L211.64 517.19Z" fill="black"/>
<path d="M240.244 521L243.6 521.44L244.423 516.13L249.024 516.73L248.201 522.04L251.525 522.48L253.506 509.57L250.183 509.13L249.435 514.04L244.834 513.44L245.581 508.53L242.225 508.09L240.244 521ZM261.377 524C265.102 524.49 267.278 522.77 267.949 518.42L269.032 511.58L265.784 511.16L264.701 518.32C264.322 520.77 263.348 521.52 261.821 521.32C260.295 521.12 259.656 520.14 260.002 517.7L261.085 510.53L257.74 510.09L256.657 516.93C256.007 521.26 257.675 523.48 261.377 524V524ZM275.257 525.82C278.646 526.26 280.887 524.62 281.223 522.47C281.371 521.685 281.233 520.876 280.832 520.171C280.43 519.465 279.787 518.902 279.003 518.57L277.357 517.7C276.188 517.09 275.344 516.7 275.452 515.98C275.56 515.26 276.253 514.98 277.293 515.13C278.341 515.279 279.302 515.76 280.01 516.49L281.98 514.77C280.921 513.507 279.365 512.68 277.65 512.47C274.683 512.08 272.312 513.54 271.977 515.71C271.873 516.501 272.038 517.302 272.449 518.003C272.86 518.704 273.497 519.269 274.272 519.62L275.95 520.55C277.087 521.18 277.812 521.55 277.704 522.27C277.596 522.99 276.946 523.27 275.701 523.15C274.453 522.911 273.328 522.291 272.507 521.39L270.277 523.28C271.546 524.654 273.319 525.548 275.257 525.79V525.82ZM286.257 527L289.624 527.44L291.237 517.08L295.037 517.58L295.427 515.01L284.492 513.58L284.102 516.14L287.881 516.64L286.257 527ZM306.232 529.86C309.61 530.31 311.851 528.67 312.187 526.52C312.335 525.735 312.197 524.926 311.796 524.221C311.395 523.515 310.752 522.952 309.967 522.62L308.322 521.75C307.152 521.14 306.308 520.75 306.416 520.03C306.524 519.31 307.217 519.03 308.257 519.17C309.305 519.328 310.264 519.811 310.974 520.54L312.945 518.82C311.9 517.566 310.364 516.741 308.668 516.52C305.691 516.13 303.32 517.59 302.995 519.76C302.887 520.55 303.049 521.352 303.458 522.053C303.868 522.754 304.505 523.32 305.279 523.67L306.958 524.6C308.094 525.22 308.82 525.6 308.712 526.31C308.603 527.02 307.954 527.37 306.719 527.2C305.451 526.972 304.306 526.351 303.471 525.44L301.306 527.32C302.551 528.697 304.308 529.596 306.232 529.84V529.86ZM317.221 531L320.588 531.44L322.18 521.1L325.969 521.6L326.359 519.03L315.435 517.59L315.056 520.2L318.834 520.7L317.221 531ZM333.126 533.33C336.85 533.82 339.026 532.1 339.697 527.75L340.78 520.91L337.532 520.49L336.449 527.65C336.07 530.1 335.096 530.86 333.57 530.65C332.043 530.44 331.404 529.48 331.751 527.03L332.833 519.86L329.488 519.42L328.405 526.26C327.756 530.67 329.39 532.88 333.126 533.37V533.33ZM342.924 534.33L347.135 534.88C351.217 535.41 354.346 533.75 355.028 529.26C355.71 524.77 353.198 522.5 348.933 521.94L344.916 521.42L342.924 534.33ZM346.67 532.27L347.893 524.27L348.348 524.33C350.6 524.63 352.061 525.69 351.596 528.76C351.13 531.83 349.376 532.57 347.125 532.28L346.67 532.27ZM357.648 536.27L366.721 537.46L367.121 534.85L361.405 534.1L361.827 531.36L366.504 531.97L366.905 529.37L362.228 528.76L362.596 526.36L368.107 527.09L368.496 524.52L359.629 523.36L357.648 536.27ZM370.51 538L373.704 538.42L374.364 534.14C374.603 532.57 374.592 530.77 374.668 529.31H374.754L375.696 532.31L378.197 538.99L381.618 539.44L383.6 526.53L380.406 526.11L379.745 530.38C379.548 531.983 379.454 533.596 379.464 535.21H379.377L378.446 532.21L375.913 525.58L372.491 525.13L370.51 538ZM388.601 540.37L391.958 540.81L393.549 530.47L397.339 530.97L397.739 528.4L386.804 527L386.414 529.57L390.182 530.06L388.601 540.37Z" fill="white"/>
</g>
<defs>
<clipPath id="clip0_377_4943">
<rect width="406" height="667" fill="white"/>
</clipPath>
</defs>
</svg>
