<svg width="409" height="812" viewBox="0 0 409 812" fill="none" xmlns="http://www.w3.org/2000/svg">
<g clip-path="url(#clip0_236:6360)">
<path d="M288.678 77.5901C355.765 81.5001 422.612 68.9201 444.992 -28.7499C454.655 -70.1199 409.469 -57.5699 362.189 -51.1399C314.908 -44.7099 274.848 -41.8999 248.672 -60.1499C222.496 -78.3999 75.4852 -57.1799 29.7753 -46.7599C-15.9345 -36.3399 -5.1042 57.4401 43.2014 72.6201C91.5071 87.8001 106.34 57.3901 154.558 51.8501C202.777 46.3101 232.945 74.3401 288.678 77.5901Z" fill="#52B788"/>
<path d="M76.9139 148C92.9794 97.4 62.7898 49 19.1958 27.21C8.16919 21.71 -10.7103 16 -24.5835 47C-38.4568 78 -5.30054 112.16 -28.4663 133.8C-51.6321 155.44 -56.5619 196.63 -52.8427 218.47C-49.1235 240.31 -56.3001 295.83 -90.7979 363.69C-125.296 431.55 -127.095 507 -60.4119 535.74C6.27143 564.48 75.4851 465 59.256 390.15C47.4877 335.85 20.0575 316.92 28.0739 259.55C36.0903 202.18 60.8484 198.66 76.9139 148Z" fill="#74C69D"/>
<path d="M31.6292 464.31C2.72654 431.09 -72.8239 412.67 -115.72 472.59L-124.194 599.66L-112.993 723.25C-97.7893 755.48 -65.4292 819.89 -57.6309 819.67C-47.8913 819.39 102.479 789.45 110.092 783.47C117.705 777.49 129.091 714.31 94.6588 704C60.2265 693.69 41.1071 652.34 57.6525 586.38C70.7078 534.3 56.3655 492.77 31.6292 464.31Z" fill="#D8F3DC"/>
<path d="M158.288 715.92C101.148 715.02 -1.65786 739.86 -20.5809 837.86C-28.7609 879.38 16.9816 866.03 65.1346 858.79C113.287 851.55 154.231 848.02 181.836 865.79C209.441 883.56 359.004 859.79 405.423 848.57C451.841 837.35 436.823 743.81 386.739 729.49C336.656 715.17 339.252 743.55 290.106 749.93C240.961 756.31 235.769 717.15 158.288 715.92Z" fill="#52B788"/>
<path d="M377.676 848.67C385.463 861.73 386.718 864.96 371.034 854.16C369.223 852.91 372.299 851.66 377.676 848.67C364.457 826.5 332.435 776 332.435 717.67C332.435 630.31 353.496 642.54 366.169 563.32C377.272 493.93 338.336 471.61 338.336 404.15C338.336 307.8 404.681 247.07 469.837 285.76C534.994 324.45 533.598 347.92 495.446 428.62C457.295 509.32 447.13 576.49 449.638 603.28C452.147 630.07 445.09 679.89 420.746 705C396.403 730.11 427.748 773.44 412.206 810.43C402.456 833.63 386.772 843.62 377.676 848.67Z" fill="#74C69D"/>
<path d="M488.619 76.8699C495.893 149.23 358.895 261.73 496.515 286.78C629.871 309.43 423.113 410.78 362.843 324.52C308.004 246 367.555 220.31 356.593 170.85C345.436 120.67 298.428 128.12 298.526 77.0599C298.624 25.9999 343.015 -17.2601 395.596 -36.0701C448.177 -54.8801 481.366 4.50994 488.619 76.8699Z" fill="#B7E4C7"/>
</g>
<defs>
<clipPath id="clip0_236:6360">
<rect width="409" height="812" fill="white"/>
</clipPath>
</defs>
</svg>
