<svg width="375" height="812" viewBox="0 0 375 812" fill="none" xmlns="http://www.w3.org/2000/svg">
<g clip-path="url(#clip0_377_4762)">
<path d="M264.68 77.5901C326.19 81.5001 387.48 68.9201 408 -28.7499C416.86 -70.1199 375.43 -57.5599 332.07 -51.1399C288.71 -44.7199 252 -41.8999 228 -60.1499C204 -78.3999 69.2101 -57.1799 27.3001 -46.7599C-14.6099 -36.3399 -4.69989 57.4401 39.6101 72.6201C83.9201 87.8001 97.5001 57.3901 141.71 51.8501C185.92 46.3101 213.58 74.3401 264.68 77.5901Z" fill="#52B788"/>
<path d="M70.5201 148C85.25 97.4 57.57 49 17.6 27.21C7.49004 21.71 -9.81995 16 -22.54 47C-35.26 78 -4.85995 112.16 -26.1 133.8C-47.34 155.44 -51.86 196.63 -48.45 218.47C-45.04 240.31 -51.62 295.83 -83.25 363.68C-114.88 431.53 -116.53 507 -55.39 535.74C5.75005 564.48 69.2101 465 54.33 390.15C43.5401 335.86 18.4 316.93 25.75 259.55C33.1001 202.17 55.7901 198.66 70.5201 148Z" fill="#74C69D"/>
<path d="M29.0001 464.31C2.47009 431.1 -66.7999 412.68 -106.12 472.6L-113.9 599.66L-103.63 723.25C-89.6899 755.48 -60.0199 819.89 -52.8699 819.67C-43.9399 819.39 93.9201 789.45 100.9 783.47C107.88 777.49 118.36 714.31 86.7901 704C55.2201 693.69 37.6901 652.35 52.8601 586.38C64.8301 534.3 51.6801 492.77 29.0001 464.31Z" fill="#D8F3DC"/>
<path d="M145.13 715.92C92.74 715.02 -1.51999 739.86 -18.87 837.86C-26.37 879.38 15.57 866.04 59.72 858.79C103.87 851.54 141.41 848.02 166.72 865.79C192.03 883.56 329.17 859.79 371.72 848.57C414.27 837.35 400.52 743.81 354.59 729.5C308.66 715.19 311.05 743.56 265.99 749.94C220.93 756.32 216.17 717.15 145.13 715.92Z" fill="#52B788"/>
<path d="M346.28 848.67C353.42 861.73 354.57 864.96 340.19 854.16C338.53 852.91 341.35 851.66 346.28 848.67C334.17 826.5 304.8 776 304.8 717.67C304.8 630.3 324.11 642.53 335.73 563.32C345.9 493.93 310.21 471.6 310.21 404.14C310.21 307.8 371.04 247.06 430.78 285.76C490.52 324.46 489.24 347.92 454.26 428.61C419.28 509.3 410 576.46 412.3 603.24C414.6 630.02 408.09 679.89 385.77 705C363.45 730.11 392.19 773.44 377.94 810.43C369 833.63 354.62 843.62 346.28 848.67Z" fill="#74C69D"/>
<path d="M448 76.8699C454.66 149.23 329.06 261.73 455.24 286.78C577.51 309.43 387.94 410.78 332.68 324.52C282.4 246 337 220.31 327 170.85C316.77 120.68 273.66 128.12 273.76 77.0599C273.86 25.9999 314.55 -17.2601 362.76 -36.0701C410.97 -54.8801 441.35 4.50994 448 76.8699Z" fill="#B7E4C7"/>
<path d="M346.72 534.58C345.32 535.02 305.16 534.35 303.64 533.36C303.06 532.98 302.82 527.13 302.72 520.05V515.34C302.72 504.92 302.82 495.34 302.82 495.34L329.69 496.04L328.85 515.7L328.65 520.41C328.65 520.41 343.91 527.54 345.45 528.8C346.99 530.06 348.13 534.13 346.72 534.58Z" fill="#F7A9A0"/>
<path d="M346.72 534.58C345.32 535.02 305.16 534.35 303.64 533.36C302.93 532.9 302.72 524.36 302.69 515.36L328.81 515.72L328.61 520.42C328.61 520.42 343.88 527.56 345.42 528.82C346.96 530.08 348.13 534.13 346.72 534.58Z" fill="white"/>
<path d="M346.72 534.58C345.32 535.02 305.16 534.35 303.64 533.36C303.06 532.98 302.82 527.13 302.72 520.05L328.62 520.41C328.62 520.41 343.88 527.54 345.42 528.8C346.96 530.06 348.13 534.13 346.72 534.58Z" fill="#A6A6A6"/>
<path opacity="0.1" d="M323.36 534.48C313.6 534.24 304.36 533.82 303.64 533.38C302.92 532.94 302.82 527.15 302.72 520.07L308.02 520.14C312.1 524 319.47 530.84 323.36 534.48Z" fill="black"/>
<path d="M346.17 533C339.44 532.72 312.28 532.24 305.61 532.47C305.55 532.47 305.55 532.47 305.61 532.52C312.27 532.94 339.43 533.18 346.17 533.11C346.35 533.07 346.35 533 346.17 533Z" fill="#263238"/>
<path d="M342.86 527.32C342.113 527.284 341.366 527.407 340.67 527.68C339.972 527.953 339.338 528.368 338.81 528.9C337.85 529.841 337.291 531.117 337.25 532.46C337.25 532.46 337.32 532.46 337.33 532.46C337.581 531.132 338.255 529.921 339.252 529.009C340.249 528.097 341.515 527.532 342.86 527.4V527.32Z" fill="#263238"/>
<path d="M331.21 521.12C328.52 521.03 325.38 521.93 323.67 524.12C323.6 524.2 323.73 524.3 323.81 524.26C326.181 523.06 328.676 522.121 331.25 521.46C331.293 521.455 331.332 521.433 331.36 521.4C331.374 521.358 331.374 521.312 331.36 521.27C331.35 521.229 331.329 521.191 331.3 521.16C331.258 521.145 331.212 521.145 331.17 521.16L331.21 521.12Z" fill="#263238"/>
<path d="M333.29 522C330.59 521.91 327.45 522.81 325.74 525C325.67 525.08 325.79 525.17 325.87 525.13C328.25 523.938 330.751 523.002 333.33 522.34C333.374 522.331 333.413 522.306 333.44 522.27C333.456 522.232 333.456 522.189 333.44 522.15C333.43 522.109 333.409 522.071 333.38 522.04C333.361 522.031 333.341 522.027 333.32 522.027C333.299 522.027 333.279 522.031 333.26 522.04L333.29 522Z" fill="#263238"/>
<path d="M335.35 522.81C332.66 522.73 329.52 523.63 327.8 525.81C327.74 525.9 327.86 525.99 327.94 525.95C330.315 524.75 332.813 523.811 335.39 523.15H335.45C335.466 523.154 335.484 523.154 335.5 523.15V523.09C335.5 523.09 335.5 523.09 335.5 523.03C335.505 523.01 335.505 522.99 335.5 522.97H335.44L335.35 522.81Z" fill="#263238"/>
<path d="M337.42 523.65C334.72 523.57 331.58 524.47 329.87 526.65C329.81 526.73 329.92 526.83 330 526.79C332.378 525.59 334.879 524.651 337.46 523.99C337.498 523.978 337.53 523.953 337.55 523.92C337.56 523.901 337.565 523.881 337.565 523.86C337.565 523.839 337.56 523.818 337.55 523.8C337.549 523.781 337.544 523.762 337.535 523.745C337.527 523.727 337.515 523.712 337.5 523.7C337.471 523.669 337.432 523.652 337.39 523.65H337.42Z" fill="#263238"/>
<path d="M307.43 526.07C304.43 526.07 304.34 530.7 307.36 530.77C310.38 530.84 310.45 526.11 307.43 526.07Z" fill="#263238"/>
<path d="M334.25 514C332.93 512.85 331.17 513.92 330.25 515.09C328.821 517.113 327.946 519.475 327.71 521.94C327.71 521.951 327.712 521.962 327.716 521.973C327.721 521.983 327.728 521.992 327.737 521.998C327.746 522.005 327.756 522.01 327.767 522.012C327.778 522.014 327.789 522.013 327.8 522.01C327.809 522.061 327.83 522.109 327.86 522.15C327.887 522.197 327.93 522.232 327.98 522.25C328.03 522.26 328.081 522.26 328.13 522.25C328.176 522.26 328.224 522.26 328.27 522.25C330.22 520.96 332.45 519.81 333.94 517.96C334.83 516.84 335.52 515.07 334.25 514ZM330.84 519.68C329.9 520.34 328.94 520.95 328.03 521.68C328.49 520.33 329.03 519.01 329.61 517.68C329.902 517.061 330.236 516.463 330.61 515.89C331.21 515 333.91 512.8 334.11 515.73C334.23 517.3 331.94 518.87 330.82 519.66L330.84 519.68Z" fill="#263238"/>
<path d="M321 522.8C323.34 523.2 325.77 522.57 328.08 522.25C328.133 522.241 328.181 522.217 328.22 522.18C328.261 522.149 328.292 522.108 328.31 522.06C328.319 522.011 328.319 521.96 328.31 521.91C328.319 521.86 328.319 521.81 328.31 521.76C326.492 520.071 324.26 518.891 321.84 518.34C320.43 518.04 318.42 518.34 318.18 520.14C317.94 521.94 319.67 522.58 321 522.8ZM319.4 521.26C317.61 518.92 321.09 518.78 322.12 519.05C322.8 519.229 323.467 519.449 324.12 519.71C325.44 520.25 326.67 520.97 327.93 521.63C326.79 521.72 325.67 521.9 324.52 522.03C323.15 522.17 320.42 522.53 319.43 521.26H319.4Z" fill="#263238"/>
<path d="M329.87 513.64H300.45C300.45 513.64 306 451 305.75 449.8C305.45 448.26 303.75 441.31 301.41 432.22L299.09 423.17C296.89 414.61 294.46 405.27 292.37 397.17C289.21 384.99 286.74 375.53 286.74 375.53H311.67C311.67 375.53 314.58 384.75 318.24 396.7C324.19 416.17 332.18 442.99 332.97 449.5C334.26 460 329.87 513.64 329.87 513.64Z" fill="#455A64"/>
<path d="M328.57 508.62C324.08 508.53 325.37 508.49 320.88 508.45C318.68 508.45 304.23 508.3 302.17 508.64V508.73C304.23 509.07 318.7 508.94 320.88 508.92C325.37 508.92 324.08 508.85 328.57 508.75H328.62C328.625 508.734 328.625 508.716 328.62 508.7L328.57 508.62Z" fill="#263238"/>
<path d="M311.3 445.6C310.3 441.35 308.89 437.17 307.64 433C305.08 424.52 302.513 416.043 299.94 407.57C298.66 403.33 297.367 399.093 296.06 394.86C295.4 392.73 294.73 390.59 294.06 388.45C293.39 386.31 292.67 384.3 292.06 382.19C291.82 381.33 291.69 381.81 292 382.89C292.62 385.09 293.23 387.28 293.87 389.47C295.143 393.81 296.417 398.143 297.69 402.47C300.25 411.09 302.823 419.703 305.41 428.31L309.31 441.26C309.97 443.311 310.501 445.402 310.9 447.52C311.242 449.736 311.329 451.984 311.16 454.22C310.87 458.72 310.36 463.22 309.94 467.7L308.69 481.21C307.86 490.21 307.42 493.05 306.61 502C306.51 503.14 306.41 504.27 306.33 505.41C306.33 505.79 306.87 505.76 306.91 505.41C307.91 496.55 308.23 493.74 309.07 484.87L311.55 458.42C311.75 456.2 311.99 453.99 311.99 451.76C311.996 449.687 311.764 447.62 311.3 445.6Z" fill="#263238"/>
<path d="M308.86 375.5C307.12 388.89 303.86 414 301.42 432.22C295.79 410.14 286.75 375.5 286.75 375.5H308.86Z" fill="#263238"/>
<path d="M317 534.7C315.61 535.18 275.45 535.7 273.9 534.7C273.32 534.34 272.9 528.5 272.58 521.42C272.51 519.89 272.45 518.32 272.41 516.71C272.06 506.3 271.91 496.71 271.91 496.71L298.79 496.62L298.53 516.29L298.47 521.01C298.47 521.01 313.93 527.69 315.52 528.9C317.11 530.11 318.36 534.21 317 534.7Z" fill="#F7A9A0"/>
<path d="M317 534.7C315.61 535.18 275.45 535.7 273.9 534.7C273.19 534.26 272.72 525.7 272.43 516.7L298.55 516.29L298.49 521.01C298.49 521.01 313.95 527.69 315.49 528.9C317.03 530.11 318.36 534.21 317 534.7Z" fill="white"/>
<path d="M317 534.7C315.61 535.18 275.45 535.7 273.9 534.7C273.32 534.34 272.9 528.5 272.58 521.42L298.47 521.02C298.47 521.02 313.93 527.7 315.47 528.91C317.01 530.12 318.36 534.21 317 534.7Z" fill="#A6A6A6"/>
<path d="M316.37 533.1C309.64 533.02 282.47 533.34 275.81 533.76C275.75 533.76 275.75 533.76 275.81 533.76C282.48 533.98 309.64 533.44 316.37 533.15C316.51 533.2 316.51 533.1 316.37 533.1Z" fill="#263238"/>
<path d="M301.07 521.7C298.37 521.7 295.26 522.7 293.62 524.92C293.55 525 293.68 525.09 293.76 525.05C296.097 523.786 298.565 522.78 301.12 522.05H301.18H301.23V521.99V521.92C301.234 521.9 301.234 521.88 301.23 521.86H301.18H301.13L301.07 521.7Z" fill="#263238"/>
<path d="M303.16 522.48C300.46 522.48 297.35 523.48 295.71 525.7C295.64 525.78 295.77 525.88 295.85 525.84C298.189 524.58 300.656 523.574 303.21 522.84C303.248 522.829 303.28 522.804 303.3 522.77C303.309 522.734 303.309 522.696 303.3 522.66C303.292 522.621 303.271 522.585 303.24 522.56C303.224 522.553 303.207 522.549 303.19 522.549C303.173 522.549 303.156 522.553 303.14 522.56L303.16 522.48Z" fill="#263238"/>
<path d="M305.25 523.24C302.55 523.24 299.44 524.24 297.8 526.46C297.73 526.54 297.86 526.63 297.93 526.59C300.273 525.331 302.744 524.326 305.3 523.59C305.337 523.579 305.37 523.554 305.39 523.52C305.399 523.484 305.399 523.446 305.39 523.41C305.382 523.371 305.361 523.335 305.33 523.31C305.314 523.303 305.297 523.299 305.28 523.299C305.263 523.299 305.246 523.303 305.23 523.31L305.25 523.24Z" fill="#263238"/>
<path d="M307.33 524.06C304.64 524.06 301.52 525.06 299.87 527.26C299.81 527.36 299.93 527.44 300.01 527.4C302.349 526.133 304.821 525.127 307.38 524.4C307.416 524.385 307.445 524.356 307.46 524.32C307.482 524.289 307.494 524.253 307.494 524.215C307.494 524.177 307.482 524.141 307.46 524.11C307.444 524.103 307.427 524.1 307.41 524.1C307.393 524.1 307.376 524.103 307.36 524.11L307.33 524.06Z" fill="#263238"/>
<path d="M277.43 527.35C274.43 527.35 274.48 532.1 277.51 532.05C280.54 532 280.46 527.3 277.43 527.35Z" fill="#263238"/>
<path d="M303.89 514.47C302.51 513.36 300.81 514.47 299.98 515.67C298.602 517.727 297.789 520.11 297.62 522.58H297.68C297.691 522.632 297.715 522.68 297.75 522.72C297.783 522.762 297.824 522.796 297.87 522.82C297.922 522.835 297.978 522.835 298.03 522.82C298.076 522.834 298.125 522.834 298.17 522.82C300.07 521.5 302.27 520.26 303.7 518.37C304.56 517.29 305.19 515.52 303.89 514.47ZM300.65 520.24C299.73 520.9 298.79 521.56 297.9 522.24C298.32 520.88 298.81 519.54 299.36 518.24C299.651 517.608 299.985 516.997 300.36 516.41C300.94 515.51 303.56 513.22 303.86 516.15C304.06 517.76 301.79 519.38 300.69 520.15L300.65 520.24Z" fill="#263238"/>
<path d="M290.94 523.68C293.29 524.01 295.7 523.31 298 522.92C298.053 522.911 298.101 522.887 298.14 522.85C298.181 522.819 298.212 522.778 298.23 522.73C298.24 522.681 298.24 522.63 298.23 522.58C298.226 522.527 298.209 522.475 298.18 522.43V522.37C296.312 520.733 294.046 519.616 291.61 519.13C290.19 518.88 288.19 519.28 288 521.05C287.81 522.82 289.57 523.49 290.94 523.68ZM289.29 522.16C287.44 519.88 290.9 519.65 291.94 519.88C292.621 520.034 293.289 520.238 293.94 520.49C295.26 521.028 296.551 521.632 297.81 522.3C296.67 522.42 295.55 522.63 294.41 522.8C293 523 290.32 523.43 289.29 522.16Z" fill="#263238"/>
<path d="M310.88 375.5C310.88 375.5 310.3 387.41 307.57 396.88C307.35 397.66 307.11 398.43 306.86 399.17C304.354 400.182 301.947 401.424 299.67 402.88C299.67 402.88 299.39 412.47 299.1 423.18C298.78 435.18 300.63 448.49 300.71 451.32C300.95 461.9 299.71 513.53 299.71 513.53L270.29 513.65C270.29 513.65 275.29 455.23 275.29 451.35C275.24 445.12 277.44 401.75 277.07 400.75C272.33 388.37 278.59 375.52 278.59 375.52L310.88 375.5Z" fill="#455A64"/>
<path d="M298.66 508.29C294.17 508.22 295.45 508.17 290.96 508.15C288.76 508.15 274.31 508.07 272.26 508.42C274.31 508.75 288.79 508.56 290.96 508.54C295.45 508.47 294.17 508.44 298.66 508.33C298.665 508.314 298.665 508.296 298.66 508.28V508.29Z" fill="#263238"/>
<path d="M308.09 398.46C305.159 399.683 302.341 401.162 299.67 402.88V402.93C299.67 402.93 299.67 402.98 299.67 402.99C299.674 403.001 299.68 403.012 299.689 403.021C299.698 403.029 299.708 403.036 299.72 403.04H299.78C302.62 401.66 305.52 400.33 308.28 398.8C308.323 398.773 308.358 398.735 308.38 398.69C308.39 398.666 308.395 398.641 308.395 398.615C308.395 398.589 308.39 398.564 308.38 398.54C308.369 398.516 308.354 398.495 308.335 398.478C308.316 398.461 308.294 398.448 308.269 398.439C308.245 398.431 308.219 398.427 308.193 398.429C308.168 398.431 308.143 398.438 308.12 398.45L308.09 398.46Z" fill="#263238"/>
<path d="M303.66 394.46C303.75 393.14 303.85 391.77 303.97 390.46C304.24 387.4 304.56 384.32 305.09 381.29C305.14 381.05 305.47 381.15 305.45 381.37C305.24 383.75 304.97 386.12 304.75 388.51C304.53 390.9 304.24 393.25 304.2 395.62C304.2 396.34 304.2 397.55 305.11 397.74C306.29 398.01 306.84 396.46 307.11 395.62C307.779 393.501 308.271 391.33 308.58 389.13C308.97 386.63 309.18 384.13 309.42 381.59C309.42 381.5 309.58 381.52 309.58 381.59C309.58 386.59 309.52 391.8 307.66 396.52C307.526 397.008 307.264 397.452 306.899 397.804C306.535 398.156 306.083 398.403 305.59 398.52H305.54C305.55 398.549 305.55 398.581 305.54 398.61C305.522 398.748 305.495 398.885 305.46 399.02C305.46 399.16 305.41 399.26 305.39 399.37C305.37 399.48 305.3 399.86 305.24 400.1C305.233 400.147 305.208 400.19 305.17 400.22C305.128 400.234 305.082 400.234 305.04 400.22C304.993 400.212 304.95 400.187 304.92 400.15C304.91 400.129 304.905 400.107 304.905 400.085C304.905 400.062 304.91 400.04 304.92 400.02C304.888 400.009 304.86 399.988 304.84 399.96C304.84 399.96 304.84 399.91 304.84 399.87C304.86 399.383 304.972 398.905 305.17 398.46C304.88 398.399 304.609 398.269 304.38 398.08C304.16 397.889 303.989 397.649 303.88 397.38C303.59 396.441 303.531 395.446 303.71 394.48L303.66 394.46Z" fill="#263238"/>
<path d="M280 400.74C279.694 398.673 279.266 396.627 278.72 394.61C277.64 390.04 278.36 383.82 279.54 379.36C279.54 379.24 279.37 379.2 279.34 379.31C278.001 383.609 277.469 388.118 277.77 392.61C277.99 394.5 279.51 400.27 279.47 402.33C279.37 406.39 279.69 441.02 279.47 455.16C279.29 464.42 277.37 495.56 277.08 504.83C277.08 504.92 277.22 504.91 277.22 504.83C278.29 488.3 279.7 471.39 279.92 455.19C280.07 439.44 280.26 403 280 400.74Z" fill="#263238"/>
<path d="M294.52 380.39C294.38 381.81 294.33 383.23 294.12 384.65C294.002 385.949 293.44 387.167 292.53 388.1C291.584 388.967 290.457 389.613 289.23 389.99C286.516 390.434 283.756 390.518 281.02 390.24C280.6 390.18 280.64 390.5 281.43 390.67C283.231 390.909 285.044 391.042 286.86 391.07C287.744 391.11 288.63 391.05 289.5 390.89C290.95 390.62 292.287 389.924 293.34 388.89C294.301 387.827 294.86 386.462 294.92 385.03C295.015 383.485 294.955 381.934 294.74 380.4C294.72 380.26 294.52 380.26 294.52 380.39Z" fill="#263238"/>
<path d="M295.53 341.88C295.53 341.896 295.536 341.911 295.548 341.922C295.559 341.933 295.574 341.94 295.59 341.94C295.606 341.94 295.621 341.933 295.632 341.922C295.644 341.911 295.65 341.896 295.65 341.88C295.96 338.26 299.65 336.05 299.78 332.34C299.788 330.703 299.33 329.097 298.46 327.71C297.872 326.82 297.227 325.968 296.53 325.16L296.26 324.74C295.677 323.866 295.172 322.942 294.75 321.98C294.328 320.861 294.104 319.676 294.09 318.48C293.99 316.19 294.09 313.85 292.57 311.97C291.32 310.39 290.01 308.43 287.27 307.49C283.03 306.04 278.08 307.95 274.97 311.49C274.42 312.116 273.971 312.825 273.64 313.59C272.809 313.769 272.042 314.17 271.42 314.75C270.804 315.336 270.352 316.074 270.11 316.89C269.28 319.47 270.85 323.02 270.61 324.31C270.268 325.409 269.762 326.451 269.11 327.4C268.564 328.242 268.082 329.125 267.67 330.04C267.153 331.328 267.032 332.742 267.32 334.1C267.518 335.339 268.012 336.512 268.76 337.52C269.526 338.42 270.526 339.092 271.65 339.46L272.47 339.74C273.39 340.32 274.41 340.74 275.29 341.44C276.255 342.178 276.913 343.246 277.14 344.44C277.39 345.53 277.43 346.66 277.61 347.74C277.749 348.772 278.089 349.768 278.61 350.67C279.706 352.42 281.347 353.762 283.28 354.49C285.544 355.302 287.975 355.529 290.35 355.15C291.405 355.074 292.433 354.781 293.369 354.288C294.305 353.796 295.13 353.116 295.79 352.29C296.345 351.517 296.73 350.635 296.919 349.703C297.109 348.77 297.099 347.808 296.89 346.88C296.542 345.783 296.09 344.721 295.54 343.71C295.031 342.689 294.86 341.534 295.05 340.41C295.76 336.69 299.54 334.01 298.83 329.94C298.618 328.909 298.233 327.922 297.69 327.02C298.723 328.379 299.357 330 299.52 331.7C299.545 333.529 298.957 335.314 297.85 336.77C296.86 338.3 295.61 340 295.53 341.88ZM271.79 339.35C270.241 338.833 268.958 337.727 268.22 336.27C267.41 334.632 267.161 332.773 267.51 330.98C267.733 330.141 268.07 329.337 268.51 328.59V328.53C268.322 329.068 268.188 329.625 268.11 330.19C267.861 332.005 268.11 333.855 268.83 335.54C269.477 337.052 270.512 338.366 271.83 339.35H271.79Z" fill="#263238"/>
<path d="M319.37 313.11L315.74 331.82C315.69 331.925 315.669 332.042 315.679 332.159C315.688 332.275 315.729 332.387 315.796 332.482C315.863 332.578 315.954 332.654 316.061 332.703C316.167 332.752 316.284 332.771 316.4 332.76L325.92 332.24C326.209 332.201 326.48 332.08 326.7 331.89C326.929 331.706 327.099 331.459 327.19 331.18L330.82 312.48C330.98 311.93 330.69 311.48 330.16 311.48L320.64 312.01C320.35 312.047 320.076 312.165 319.85 312.35C319.628 312.538 319.462 312.784 319.37 313.06V313.11Z" fill="#37474F"/>
<path d="M320.5 313L316.87 331.7C316.7 332.25 317 332.7 317.53 332.65L327.05 332.12C327.338 332.081 327.61 331.962 327.835 331.776C328.059 331.591 328.227 331.346 328.32 331.07L331.95 312.37C332.11 311.81 331.82 311.37 331.29 311.37L321.76 311.9C321.472 311.933 321.2 312.051 320.98 312.24C320.756 312.426 320.589 312.673 320.5 312.95V313Z" fill="#455A64"/>
<path d="M323.16 313.74C323.166 313.902 323.124 314.062 323.04 314.2C322.95 314.334 322.826 314.441 322.68 314.51C322.531 314.57 322.369 314.591 322.21 314.57C322.053 314.542 321.907 314.469 321.79 314.36C321.671 314.25 321.588 314.108 321.55 313.95C321.51 313.796 321.51 313.634 321.55 313.48C321.606 313.328 321.707 313.196 321.838 313.101C321.97 313.007 322.128 312.954 322.29 312.95C322.395 312.951 322.5 312.968 322.6 313C322.752 313.056 322.884 313.157 322.979 313.289C323.073 313.421 323.126 313.578 323.13 313.74H323.16Z" fill="#263238"/>
<path d="M290.23 342.73C296.18 354 308.94 368.3 314 368.14C316.38 368.06 320.66 368.43 323.66 365.55C330.2 359.26 335.37 347.55 336.22 340.99C336.54 338.64 324.98 334.12 323.4 336.1C319.7 340.73 315.55 349.62 314.86 349.6C312.28 349.52 301.86 341.67 294.61 336.1C285.75 329.36 287.87 338.26 290.23 342.73Z" fill="#F7A9A0"/>
<path d="M335.91 329C334.5 324.33 333.41 323.35 334.31 318.77C334.9 315.77 333.23 314.14 331.24 316.59C327.98 320.64 328.54 327.05 329.38 329.21L335.91 329Z" fill="#F7A9A0"/>
<path d="M335.73 343C335.73 343 337.53 336.32 336.51 331.2C335.81 327.65 333.42 320.12 323.24 316.56C320.84 315.71 316.8 316.22 320.24 319.03C322.68 321.03 324.86 321.56 326.04 323.03C326.04 323.03 320.98 324.28 320.23 326.73C319.572 328.872 319.068 331.057 318.72 333.27C319.11 333.43 319.511 333.56 319.92 333.66C319.92 333.66 319.26 335.98 321.13 339.14L335.73 343Z" fill="#F7A9A0"/>
<path d="M335.3 328C332.902 326.043 330.2 324.492 327.3 323.41C323.62 322.24 316.22 321 315.4 323.73C314.79 325.73 317.58 326.44 317.58 326.44C317.58 326.44 314.41 326.58 314.27 328.5C314.13 330.26 316.32 330.69 316.32 330.69C316.32 330.69 314.41 331.1 314.6 332.81C314.83 334.88 318.79 333.68 320.83 335.57C321.21 336 335.3 328 335.3 328Z" fill="#F7A9A0"/>
<path d="M326.69 327.48C323.839 326.197 320.665 325.813 317.59 326.38C317.52 326.38 317.49 326.46 317.59 326.46C320.662 326.442 323.724 326.798 326.71 327.52C326.71 327.52 326.71 327.48 326.69 327.48Z" fill="#263238"/>
<path d="M325.42 331.14C322.473 330.13 319.308 329.937 316.26 330.58C316.19 330.58 316.16 330.67 316.26 330.66C319.326 330.49 322.402 330.661 325.43 331.17L325.42 331.14Z" fill="#263238"/>
<path d="M336.51 345.77C336.51 345.77 328.07 364.52 322.78 366.87C317.49 369.22 314.24 368.87 312.2 368.7C311.417 368.552 310.677 368.235 310.03 367.77C304.42 364.15 294.03 350.87 289.77 343.34C286.54 337.68 286.63 332.42 291.2 333.9C292.746 334.48 294.185 335.311 295.46 336.36C304.06 342.9 313.92 349.05 314.36 348.79C314.8 348.53 319.23 340.79 319.23 340.79L336.51 345.77Z" fill="#FFC727"/>
<path d="M334.37 349.21C333.74 348.9 327.82 346.9 326.53 346.5C325.24 346.1 319.96 344.37 318.6 344.07C319.89 344.63 325.21 346.37 326.53 346.81C327.85 347.25 333.74 349.1 334.41 349.21C334.44 349.31 334.44 349.23 334.37 349.21Z" fill="#263238"/>
<path d="M310.05 346.43C306.652 350.081 302.942 353.427 298.96 356.43C297.53 354.65 296.13 352.82 294.84 351.02C298.244 348.533 301.432 345.763 304.37 342.74C306.49 344.16 308.43 345.43 310.05 346.43Z" fill="#EBEBEB"/>
<path opacity="0.1" d="M326.25 363.74C325.336 365.025 324.152 366.093 322.78 366.87C317.49 369.23 314.24 368.87 312.2 368.7C311.416 368.557 310.674 368.239 310.03 367.77C304.42 364.15 294.03 350.87 289.77 343.34C286.84 338.21 286.64 333.42 290.03 333.66C299.16 341.18 316.49 355.6 326.25 363.74Z" fill="black"/>
<path d="M305.4 358.65L312.89 377.52C312.89 377.52 285.65 378.1 277.27 378.01C277.27 378.01 271.98 347.4 280.4 337.12C284.6 331.98 288.27 332.27 291.83 335.48C292.73 336.29 304.64 345.35 306.01 350.41C306.708 353.15 306.494 356.043 305.4 358.65Z" fill="#FFC727"/>
<path d="M303.68 359.23C302.271 359.088 300.855 359.031 299.44 359.06C298.734 359.07 298.03 359.12 297.33 359.21C296.99 359.21 296.67 359.28 296.33 359.33C295.99 359.38 295.6 359.48 295.23 359.52V359.58C295.58 359.58 295.93 359.58 296.29 359.58H297.34C298.05 359.58 298.76 359.58 299.46 359.51C300.87 359.45 302.28 359.4 303.7 359.4C303.7 359.4 303.7 359.4 303.75 359.4C303.75 359.4 303.75 359.4 303.75 359.35L303.68 359.23Z" fill="#263238"/>
<path d="M280 336C267.84 344.29 254.87 361.13 256.35 366C258.05 371.4 275.53 359.64 275.23 358.83C274.98 358.17 278.14 351.7 282.65 342.47C287.22 333.09 283 334 280 336Z" fill="#FFC727"/>
<path d="M278.23 351.51C276.85 354.41 275.85 356.58 275.42 357.8C270.738 356.923 266.128 355.696 261.63 354.13C262.95 352.31 264.48 350.42 266.14 348.53C270.081 349.859 274.125 350.862 278.23 351.53V351.51Z" fill="#EBEBEB"/>
<path d="M256.32 366C257.96 369.71 264.05 371.55 278.95 377.63C281.02 378.47 290.86 365.51 288.71 364.5C286 363.23 275.18 358.87 274.35 358.66C267.34 356.83 255.21 363.49 256.32 366Z" fill="#F7A9A0"/>
<path d="M285.75 363.2C285.75 363.2 292.12 365.48 295.1 367.71C298.123 370.104 300.524 373.191 302.1 376.71C303.81 380.52 305.31 390.92 302.39 391.88C299.74 392.74 298.75 382.03 298.75 382.03C298.75 382.03 301.56 392.78 298.19 393.23C294.82 393.68 294.37 381.23 294.37 381.23C294.37 381.23 297.02 392.34 293.46 392.23C290.82 392.17 289.74 380.88 289.74 380.88C289.74 380.88 291.95 390.44 289.18 390.5C286.13 390.56 284.51 380.2 284.51 380.2C277.51 379.2 274.51 375.78 272.73 373.12C272.31 372.51 285.75 363.2 285.75 363.2Z" fill="#F7A9A0"/>
<path d="M298 378.29C298.37 379.54 298.76 380.81 299 382.09C299.24 383.37 299.49 384.66 299.66 385.95C299.881 387.645 299.908 389.359 299.74 391.06C299.666 388.064 299.315 385.081 298.69 382.15C298.42 380.87 298.22 379.58 297.96 378.3C298 378.27 298 378.27 298 378.29Z" fill="#263238"/>
<path d="M293.39 379.16C293.8 380.78 294.27 382.37 294.61 384.01C294.95 385.65 295.12 387.21 295.35 388.86C295.35 388.98 295.29 388.95 295.27 388.86C294.98 387.23 294.61 385.73 294.27 384.1C293.93 382.47 293.72 380.79 293.35 379.21C293.34 379.15 293.38 379.14 293.39 379.16Z" fill="#263238"/>
<path d="M289.27 379.19C289.967 381.658 290.413 384.191 290.6 386.75C290.6 386.87 290.52 386.82 290.5 386.69C290.11 384.17 289.83 382.19 289.21 379.22C289.18 379.17 289.26 379.14 289.27 379.19Z" fill="#263238"/>
<path d="M288.77 363.14C288.77 363.14 274.36 377.39 274.18 377.35C274 377.31 257.11 370.12 256.32 366.01C255.53 361.9 268.14 357.12 274.32 358.64C280.5 360.16 288.77 363.14 288.77 363.14Z" fill="#FFC727"/>
<path d="M283.13 362.08C282.55 362.53 278.03 367.26 277.07 368.3C276.11 369.34 272.14 373.59 271.24 374.75C271.24 374.8 271.24 374.87 271.32 374.82C272.41 373.82 276.43 369.58 277.43 368.54C278.43 367.5 282.8 362.73 283.21 362.14C283.24 362.09 283.17 362.05 283.13 362.08Z" fill="#263238"/>
<path d="M267.14 358.94C269.858 358.132 272.75 358.111 275.48 358.88V358.94C272.726 358.502 269.919 358.519 267.17 358.99C267.17 358.99 267.11 359 267.14 358.94Z" fill="#263238"/>
<path d="M287.88 364L288.74 363.09V363.17L285.36 362C284.23 361.62 283.11 361.25 281.97 360.89C279.71 360.15 277.44 359.46 275.14 358.89L274.87 358.81L274.97 358.56C275.91 356.18 276.88 353.83 277.97 351.56C279.043 349.243 280.234 346.984 281.54 344.79C280.413 347.07 279.35 349.377 278.35 351.71C277.35 354.05 276.35 356.39 275.49 358.77L275.31 358.45C277.62 359.06 279.9 359.77 282.15 360.55C283.28 360.95 284.4 361.37 285.51 361.79C286.62 362.21 287.72 362.67 288.81 363.11H288.88L288.82 363.19L287.88 364Z" fill="#263238"/>
<path d="M278.92 349.9C279.23 349.348 279.581 348.82 279.97 348.32C280.351 347.817 280.78 347.352 281.25 346.93C280.966 347.493 280.631 348.029 280.25 348.53C280.05 348.77 279.85 349.02 279.64 349.25C279.429 349.49 279.194 349.707 278.94 349.9H278.92Z" fill="#263238"/>
<path d="M283.39 336.89C283.68 337.49 287.68 341.03 290.61 340.25C291.61 339.99 290.4 334.72 290.4 334.72V334.32V328.61L283.13 325.88L282.08 325.54C282.08 325.54 282.17 327.11 282.31 329.05V329.64C282.3 329.938 282.32 330.236 282.37 330.53C282.43 330.83 282.37 330.97 282.43 331.19C282.471 331.421 282.491 331.655 282.49 331.89C282.661 333.575 282.949 335.245 283.35 336.89H283.39Z" fill="#F7A9A0"/>
<path d="M290.4 334.39C287.369 334.204 284.527 332.853 282.47 330.62V330.53C282.47 330.23 282.47 329.94 282.41 329.64V329.05C282.27 327.11 282.18 325.54 282.18 325.54L283.18 325.88L290.45 328.61V334.31L290.4 334.39Z" fill="#263238"/>
<path d="M296.7 320.46C297.47 330.46 291.57 332.05 289.43 332.22C287.43 332.36 280.79 332.61 278.99 322.75C277.19 312.89 281.64 309.36 286.07 308.75C290.5 308.14 296 310.46 296.7 320.46Z" fill="#F7A9A0"/>
<path d="M294.54 318.08C294.317 318.069 294.096 318.036 293.88 317.98C293.637 317.981 293.401 317.9 293.21 317.75C293.161 317.687 293.135 317.609 293.135 317.53C293.135 317.45 293.161 317.373 293.21 317.31C293.318 317.192 293.456 317.105 293.61 317.06C293.763 317.015 293.927 317.015 294.08 317.06C294.404 317.081 294.708 317.224 294.93 317.46C294.985 317.521 295.02 317.598 295.03 317.68C295.039 317.76 295.021 317.841 294.98 317.91C294.941 317.983 294.877 318.039 294.8 318.07C294.725 318.095 294.645 318.095 294.57 318.07L294.54 318.08Z" fill="#263238"/>
<path d="M287.87 319.23C288.094 319.188 288.314 319.132 288.53 319.06C288.779 319.034 289.012 318.925 289.19 318.75C289.241 318.688 289.269 318.61 289.27 318.53C289.27 318.452 289.241 318.378 289.19 318.32C289.073 318.211 288.927 318.138 288.77 318.11C288.616 318.07 288.454 318.07 288.3 318.11C287.983 318.172 287.7 318.346 287.5 318.6C287.459 318.663 287.435 318.735 287.43 318.81C287.428 318.884 287.449 318.957 287.49 319.02C287.53 319.082 287.585 319.133 287.65 319.17C287.722 319.189 287.798 319.189 287.87 319.17V319.23Z" fill="#263238"/>
<path d="M289.53 321C289.53 321 289.53 321 289.53 321.07C289.59 321.73 289.53 322.55 288.94 322.82C289.65 322.71 289.7 321.66 289.53 321Z" fill="#263238"/>
<path d="M288.87 320.33C287.76 320.33 287.81 322.54 288.87 322.56C289.93 322.58 289.8 320.35 288.87 320.33Z" fill="#263238"/>
<path d="M288.43 320.46C288.25 320.6 288.06 320.82 287.82 320.85C287.58 320.88 287.35 320.66 287.16 320.44C287.131 320.648 287.183 320.858 287.306 321.028C287.429 321.198 287.614 321.313 287.82 321.35C288.31 321.35 288.53 321.01 288.62 320.58C288.58 320.52 288.51 320.41 288.43 320.46Z" fill="#263238"/>
<path d="M293.5 320.52C293.516 320.52 293.531 320.526 293.542 320.538C293.554 320.549 293.56 320.564 293.56 320.58C293.56 321.25 293.7 322.06 294.33 322.26C293.56 322.23 293.44 321.18 293.5 320.52Z" fill="#263238"/>
<path d="M294.1 319.78C295.2 319.64 295.38 321.86 294.36 321.99C293.34 322.12 293.17 319.89 294.1 319.78Z" fill="#263238"/>
<path d="M294.56 319.89C294.75 319.99 294.94 320.19 295.15 320.19C295.36 320.19 295.55 319.93 295.69 319.68C295.69 320.11 295.63 320.56 295.23 320.68C294.83 320.8 294.57 320.44 294.42 320.02C294.44 320 294.49 319.84 294.56 319.89Z" fill="#263238"/>
<path d="M292.58 323.67C292.668 324.17 292.732 324.674 292.77 325.18C292.318 325.3 291.842 325.3 291.39 325.18C290.936 325.061 290.521 324.823 290.19 324.49C290.19 324.49 290.19 324.39 290.26 324.41C290.896 324.816 291.648 325.002 292.4 324.94C292.274 324.362 292.177 323.778 292.11 323.19C292.49 323.212 292.866 323.279 293.23 323.39C292.91 321.24 292.23 319.16 291.98 317.01H292.06C292.829 319.224 293.379 321.508 293.7 323.83C293.79 324.07 292.78 323.74 292.58 323.67Z" fill="#263238"/>
<path d="M279.55 323.76C281.47 323.94 281.83 319.56 281.83 319.56C281.83 319.56 289.91 317.93 290.42 311.29C291.53 313.95 293.621 316.081 296.26 317.24C296.26 317.24 295.76 309.96 289.96 308.75C289.96 308.75 282.74 306.37 278.89 312.17C275.04 317.97 278.29 323.64 279.55 323.76Z" fill="#263238"/>
<path d="M290.44 310.8C290.567 311.808 290.475 312.831 290.17 313.8C289.883 314.798 289.389 315.725 288.72 316.52C288.554 316.719 288.377 316.91 288.19 317.09L287.92 317.37L287.61 317.61C287.4 317.76 287.2 317.93 286.99 318.07C286.78 318.21 286.55 318.33 286.33 318.46C286.222 318.53 286.108 318.59 285.99 318.64L285.64 318.8L284.93 319.09C284.44 319.24 283.93 319.37 283.46 319.49C283.92 319.27 284.4 319.11 284.85 318.88L285.51 318.54L285.84 318.36L286.15 318.15L286.77 317.74L287.33 317.27L287.62 317.04L287.88 316.77C288.054 316.599 288.217 316.419 288.37 316.23C289.006 315.475 289.507 314.616 289.85 313.69C290.023 313.224 290.16 312.746 290.26 312.26C290.358 311.779 290.418 311.29 290.44 310.8Z" fill="#263238"/>
<path d="M280.62 323.39C280.62 323.39 278.46 320.24 277.04 321.01C275.62 321.78 277.21 326.3 278.87 326.96C279.077 327.057 279.301 327.112 279.53 327.12C279.759 327.12 279.986 327.079 280.2 327C280.414 326.917 280.608 326.791 280.77 326.63C280.933 326.471 281.063 326.28 281.15 326.07L280.62 323.39Z" fill="#F7A9A0"/>
<path d="M277.53 322.3C278.062 322.575 278.53 322.959 278.906 323.425C279.281 323.892 279.555 324.431 279.71 325.01C279.646 324.892 279.557 324.79 279.45 324.71C279.338 324.634 279.212 324.58 279.08 324.55C278.944 324.525 278.806 324.525 278.67 324.55C278.539 324.585 278.417 324.646 278.31 324.73C278.518 324.665 278.742 324.665 278.95 324.73C279.152 324.801 279.329 324.93 279.46 325.1C279.669 325.392 279.849 325.704 280 326.03C280.05 326.14 280.24 326.09 280.2 325.97C280.26 324.57 279.13 322.47 277.53 322.3Z" fill="#263238"/>
<path d="M116 776.79C114.46 776.16 80.4799 746.54 79.8899 744.63C79.6799 743.9 83.6999 738.69 88.7399 732.54C89.8199 731.22 90.93 729.85 92.12 728.47C99.62 719.47 107.79 710.2 107.79 710.2L130.57 729.93L114.27 747.69L110.7 751.54C110.7 751.54 118.64 768.71 119.05 770.91C119.46 773.11 117.51 777.43 116 776.79Z" fill="#AD6359"/>
<path d="M116 776.79C114.46 776.16 80.4801 746.54 79.8901 744.63C79.6201 743.72 85.6301 736.24 92.1201 728.47L114.27 747.67L110.7 751.54C110.7 751.54 118.64 768.71 119.05 770.91C119.46 773.11 117.51 777.43 116 776.79Z" fill="white"/>
<path d="M116 776.79C114.46 776.15 80.4799 746.54 79.8899 744.63C79.6799 743.9 83.6999 738.69 88.7399 732.54L110.67 751.54C110.67 751.54 118.67 768.71 119.05 770.91C119.43 773.11 117.51 777.43 116 776.79Z" fill="#37474F"/>
<path d="M116.68 775C111.1 769.88 88.17 749.84 82.25 745.22C82.19 745.17 82.17 745.22 82.25 745.22C87.67 750.39 110.79 770.22 116.64 775.05C116.72 775.2 116.8 775.11 116.68 775Z" fill="#263238"/>
<path d="M117.92 767.77C117.297 767.204 116.565 766.772 115.769 766.5C114.972 766.228 114.129 766.123 113.29 766.19C111.788 766.311 110.389 767.001 109.38 768.12C109.38 768.12 109.38 768.22 109.44 768.19C110.615 767.225 112.072 766.669 113.591 766.606C115.11 766.543 116.609 766.976 117.86 767.84H117.92V767.78V767.77Z" fill="#263238"/>
<path d="M112.4 754C110.15 752 106.81 750.49 103.76 751.08C103.65 751.08 103.68 751.27 103.76 751.3C106.666 751.996 109.489 753.001 112.18 754.3C112.216 754.31 112.254 754.31 112.29 754.3C112.328 754.29 112.363 754.269 112.39 754.24C112.4 754.204 112.4 754.166 112.39 754.13C112.4 754.094 112.4 754.056 112.39 754.02L112.4 754Z" fill="#263238"/>
<path d="M113.57 756.29C111.31 754.29 107.97 752.77 104.93 753.4C104.81 753.4 104.85 753.59 104.93 753.61C107.831 754.312 110.65 755.318 113.34 756.61C113.362 756.619 113.386 756.624 113.41 756.624C113.434 756.624 113.458 756.619 113.48 756.61C113.531 756.6 113.578 756.571 113.61 756.53C113.62 756.506 113.625 756.481 113.625 756.455C113.625 756.429 113.62 756.404 113.61 756.38C113.609 756.356 113.602 756.332 113.59 756.311C113.578 756.291 113.56 756.273 113.54 756.26L113.57 756.29Z" fill="#263238"/>
<path d="M114.73 758.48C112.48 756.48 109.13 754.96 106.09 755.56C105.97 755.56 106.01 755.75 106.09 755.78C108.992 756.478 111.812 757.483 114.5 758.78H114.62C114.655 758.77 114.687 758.749 114.71 758.72C114.737 758.689 114.754 758.651 114.76 758.61C114.77 758.574 114.77 758.536 114.76 758.5L114.73 758.48Z" fill="#263238"/>
<path d="M115.89 760.67C113.64 758.67 110.29 757.16 107.25 757.79C107.13 757.79 107.17 757.98 107.25 758.01C110.152 758.707 112.972 759.713 115.66 761.01C115.708 761.028 115.762 761.028 115.81 761.01C115.835 761.007 115.859 760.998 115.88 760.984C115.9 760.97 115.918 760.952 115.93 760.93C115.939 760.908 115.944 760.884 115.944 760.86C115.944 760.836 115.939 760.812 115.93 760.79C115.92 760.738 115.891 760.692 115.85 760.66L115.89 760.67Z" fill="#263238"/>
<path d="M88.4099 741.08C85.8399 738.89 82.4099 742.84 84.9599 745.08C87.5099 747.32 90.9999 743.31 88.4099 741.08Z" fill="white"/>
<path d="M117.07 753.28C114.46 753.79 111.72 753.16 109.07 752.87C109.016 752.857 108.965 752.833 108.92 752.8C108.875 752.761 108.838 752.713 108.81 752.66C108.8 752.604 108.8 752.546 108.81 752.49C108.811 752.433 108.828 752.378 108.86 752.33V752.25C110.85 750.317 113.312 748.938 116 748.25C117.58 747.88 119.86 748.25 120.17 750.17C120.48 752.09 118.6 753 117.07 753.28ZM118.83 751.48C120.76 748.8 116.83 748.76 115.71 749.08C114.962 749.299 114.23 749.57 113.52 749.89C112.08 750.57 110.67 751.33 109.3 752.15C110.58 752.22 111.86 752.39 113.13 752.5C114.68 752.63 117.76 753 118.83 751.48Z" fill="#263238"/>
<path d="M102 743.69C103.47 742.36 105.45 743.51 106.46 744.79C108.132 747.013 109.188 749.638 109.52 752.4C109.509 752.457 109.485 752.511 109.45 752.558C109.414 752.604 109.369 752.642 109.317 752.668C109.264 752.694 109.207 752.708 109.149 752.708C109.09 752.709 109.032 752.695 108.98 752.67C106.79 751.27 104.23 750.05 102.51 748.02C101.45 746.92 100.63 745 102 743.69ZM106 749.95C107.07 750.68 108.19 751.33 109.22 752.08C108.661 750.585 108.027 749.12 107.32 747.69C106.972 746.997 106.577 746.329 106.14 745.69C105.41 744.69 102.37 742.33 102.21 745.62C102.11 747.43 104.72 749.1 106 750V749.95Z" fill="#263238"/>
<path d="M155.91 694.89C153.78 707.08 122.08 741.16 118.42 745.07L117.58 745.96L93.4201 725.71L93.7201 725.34L116.94 697.48L51.3501 694.3L77.0701 676C77.0701 676 79.0701 677.25 83.2701 676.81C97.8401 675.31 130.68 672 138.37 672.65C148.29 673.45 157.87 683.69 155.91 694.89Z" fill="#263238"/>
<path d="M125.31 687.09C124.457 687.981 123.659 688.923 122.92 689.91C122.1 690.91 121.26 691.91 120.44 692.83L120.9 691.95C121.43 690.95 121.9 689.95 122.49 688.95C122.49 688.9 122.49 688.84 122.4 688.9C121.76 689.83 121.04 690.72 120.48 691.71C120.22 692.18 119.97 692.65 119.75 693.14C119.62 693.4 119.49 693.66 119.38 693.93C119.314 694.054 119.26 694.185 119.22 694.32C118.84 694.77 118.49 695.23 118.13 695.71C117.35 696.71 116.67 697.85 115.85 698.89C115.85 698.94 115.85 699 115.93 698.95C116.74 697.95 117.62 697.08 118.44 696.12C119.26 695.16 120.06 694.12 120.84 693.12C121.62 692.12 122.34 691.12 123.1 690.12C123.932 689.147 124.7 688.121 125.4 687.05C125.4 687.05 125.4 687.05 125.4 687.05H125.33L125.31 687.09Z" fill="#37474F"/>
<path d="M121.17 740.3C119.8 739.03 118.32 737.85 116.88 736.65C115.44 735.45 113.95 734.28 112.49 733.1C109.57 730.75 106.64 728.38 103.67 726.1C102.04 724.84 100.39 723.58 98.6701 722.4C98.6625 722.396 98.6539 722.394 98.6451 722.394C98.6363 722.394 98.6277 722.396 98.6201 722.4C98.6139 722.416 98.6139 722.434 98.6201 722.45C101.4 724.98 104.37 727.29 107.3 729.63C110.23 731.97 113.18 734.33 116.16 736.63C117.79 737.89 119.4 739.19 121.16 740.35C121.16 740.46 121.23 740.35 121.17 740.3Z" fill="#37474F"/>
<path d="M69.76 639.58C73.36 646.5 86.19 665.9 96.35 669.66C101.96 671.73 130.65 676.92 134.93 673.94C139.93 670.45 138.59 654.76 135.03 654.16C124.22 652.32 103.82 654.22 98.93 652.45C96.74 651.66 85.7 642.32 73.64 634.45C69.1 631.45 67.46 635.11 69.76 639.58Z" fill="#AD6359"/>
<path d="M124.71 652.63C124.71 652.63 124.56 676.33 123.44 675.98C122.32 675.63 97.9499 672.48 91.8199 668.98C85.6899 665.48 75.9999 651.39 70.4599 642.1C64.9199 632.81 70.1899 630.84 76.0999 635.53C82.0099 640.22 98.5699 651.31 99.6399 651.41C100.71 651.51 124.71 652.63 124.71 652.63Z" fill="#455A64"/>
<path d="M120.14 673.36C120.02 670.16 119.95 666.97 120 663.77C120 662.17 120.09 660.57 120.17 658.98C120.25 657.39 120.5 655.79 120.55 654.2C120.55 654.11 120.7 654.13 120.69 654.2C120.55 655.79 120.63 657.4 120.57 658.99C120.51 660.58 120.47 662.19 120.44 663.79C120.36 666.98 120.28 670.17 120.28 673.36C120.28 673.47 120.15 673.45 120.14 673.36Z" fill="#263238"/>
<path d="M90.11 667.8C84 663 75.54 650.55 70.46 642.1C66.46 635.53 68.04 632.6 71.46 633.16L90.11 667.8Z" fill="#37474F"/>
<path d="M81.4299 674.71H123.66V676.6H81.4299V674.71Z" fill="#C7C7C7"/>
<path d="M90.47 674.71L89 676.6H123.65V674.71H90.47Z" fill="#A6A6A6"/>
<path d="M92.27 676.6H133.43L136.86 648.6H95.7L92.27 676.6Z" fill="#C7C7C7"/>
<path d="M112.06 662.62C112.051 662.947 112.108 663.273 112.229 663.577C112.349 663.881 112.53 664.158 112.76 664.39C112.991 664.625 113.266 664.812 113.57 664.94C113.887 665.07 114.227 665.134 114.57 665.13C115.24 665.122 115.88 664.857 116.36 664.39C116.834 663.922 117.107 663.286 117.12 662.62C117.134 662.278 117.076 661.938 116.95 661.62C116.827 661.318 116.647 661.043 116.42 660.81C116.189 660.578 115.913 660.394 115.61 660.27C115.294 660.135 114.953 660.07 114.61 660.08C113.943 660.082 113.303 660.345 112.827 660.812C112.351 661.279 112.076 661.913 112.06 662.58V662.62Z" fill="white"/>
<path d="M136.52 651.35C138.07 653.75 141.9 656.55 142.43 658.6C142.579 659.101 142.562 659.636 142.382 660.126C142.202 660.617 141.868 661.035 141.43 661.32C141.43 661.32 143.62 662.09 143.82 664.03C143.91 665.03 142.36 666.03 142.36 666.03C142.857 666.24 143.284 666.586 143.59 667.03C143.908 667.46 144.101 667.968 144.15 668.5C144.106 668.957 143.95 669.397 143.696 669.779C143.441 670.161 143.095 670.474 142.69 670.69C142.69 670.69 144.07 672.15 143.69 673.56C142.84 676.44 131.06 678 128.69 673.9C127.57 671.99 130.47 671.76 130.47 671.76C130.47 671.76 126.23 671.08 125.85 668.66C125.47 666.24 129.24 666.17 129.24 666.17C129.24 666.17 125.14 665.48 124.99 662.93C124.84 660.38 128.65 660.86 128.65 660.86C128.65 660.86 125.79 659.4 126.12 657.45C126.68 654.18 133.43 657.66 135.91 656.72L136.52 651.35Z" fill="#AD6359"/>
<path d="M142.47 670.84C142.47 670.84 142.52 670.84 142.47 670.84C138.574 672.371 134.304 672.678 130.23 671.72C130.11 671.72 130.11 671.47 130.23 671.48C134.322 671.841 138.444 671.609 142.47 670.79V670.84Z" fill="#263238"/>
<path d="M142.44 666.06C138.134 667.71 133.379 667.76 129.04 666.2C128.89 666.14 128.81 665.94 129.04 665.99C132 667 138.7 666.89 142.44 666.06Z" fill="#263238"/>
<path d="M128.29 660.61C132.492 661.94 136.959 662.208 141.29 661.39C141.35 661.39 141.36 661.47 141.29 661.49C138.999 662.318 136.56 662.659 134.13 662.49C132.06 662.442 130.038 661.86 128.26 660.8C128.18 660.71 128.24 660.58 128.29 660.61Z" fill="#263238"/>
<path d="M85.4299 684.93C85.4299 684.93 38.2499 692.1 37.9999 691.8C37.7499 691.5 44.7099 640.95 60.8999 632.86C63.4599 631.57 69.5799 630.96 72.0999 633.69C79.3099 641.48 86.0699 684.27 85.4299 684.93Z" fill="#455A64"/>
<path d="M85.0701 680.72L38.6201 687.24C38.8401 685.85 39.1201 684.24 39.4601 682.33L84.3801 676C84.6501 677.8 84.8801 679.39 85.0701 680.72Z" fill="#37474F"/>
<path d="M83.9299 673.53L39.9299 679.71C40.0899 678.88 40.2599 678.03 40.4499 677.15L83.4499 671.15C83.6499 671.93 83.7999 672.74 83.9299 673.53Z" fill="#37474F"/>
<path d="M70.2801 642.74C67.6601 642.85 64.1001 638.2 62.9701 634.74C62.9001 634.51 63.6501 632.33 64.4301 629.63C64.9101 627.99 65.4301 626.16 65.7301 624.46L75.9101 629.1C74.8893 631.111 74.1202 633.241 73.6201 635.44C73.5807 635.681 73.5606 635.925 73.5601 636.17C73.5703 636.209 73.5703 636.251 73.5601 636.29C73.5601 637.69 72.8101 642.63 70.2801 642.74Z" fill="#AD6359"/>
<path d="M76 629.15C74.9792 631.161 74.21 633.291 73.71 635.49C73.6648 635.731 73.6447 635.975 73.65 636.22V636.34C73.2752 636.328 72.903 636.274 72.54 636.18C66.35 634.85 66.08 626.82 66.11 624.66L76 629.15Z" fill="#263238"/>
<path d="M66.8 610.69C64.92 614.26 64.8 625.58 67.01 628.54C70.23 632.84 76.56 634.38 80.47 630.3C84.38 626.22 84.16 611.55 81.58 608.75C77.8 604.63 69.59 605.42 66.8 610.69Z" fill="#AD6359"/>
<path d="M76.4099 619.6C76.4099 619.6 76.3499 619.6 76.4099 619.67C76.4099 620.4 76.3499 621.3 75.6799 621.56C76.4599 621.51 76.5699 620.34 76.4099 619.6Z" fill="#263238"/>
<path d="M75.73 618.88C74.51 618.79 74.44 621.23 75.57 621.31C76.7 621.39 76.76 618.92 75.73 618.88Z" fill="#263238"/>
<path d="M80.8599 619.75C80.8599 619.75 80.9199 619.75 80.9199 619.83C80.9199 620.56 80.9199 621.46 81.6499 621.72C80.7799 621.62 80.7299 620.46 80.8599 619.75Z" fill="#263238"/>
<path d="M81.5701 619C82.7901 618.94 82.8101 621.39 81.6801 621.44C80.5501 621.49 80.5401 619 81.5701 619Z" fill="#263238"/>
<path d="M74.7999 617.71C75.1199 617.62 75.4399 617.52 75.7999 617.4C76.1499 617.338 76.4697 617.162 76.7099 616.9C76.7671 616.804 76.7917 616.691 76.7799 616.58C76.7709 616.463 76.7214 616.354 76.6399 616.27C76.4558 616.122 76.2342 616.029 75.9999 616C75.7758 615.97 75.5477 616.001 75.3399 616.09C74.885 616.207 74.4895 616.489 74.2299 616.88C74.1745 616.97 74.1466 617.074 74.1499 617.18C74.1606 617.288 74.1985 617.391 74.2599 617.48C74.3249 617.564 74.4112 617.63 74.5099 617.67C74.611 617.7 74.7188 617.7 74.8199 617.67L74.7999 617.71Z" fill="#263238"/>
<path d="M82.5499 617.78C82.2099 617.71 81.9099 617.6 81.5499 617.5C81.1975 617.447 80.8714 617.282 80.6199 617.03C80.5584 616.932 80.5304 616.816 80.5399 616.7C80.5468 616.588 80.5928 616.482 80.6699 616.4C80.8447 616.253 81.0558 616.156 81.2811 616.119C81.5063 616.082 81.7374 616.107 81.9499 616.19C82.4052 616.289 82.8099 616.548 83.0899 616.92C83.1481 617.013 83.1793 617.12 83.1799 617.23C83.181 617.34 83.1497 617.448 83.0899 617.54C83.0288 617.633 82.9419 617.706 82.8399 617.75C82.7353 617.78 82.6245 617.78 82.5199 617.75L82.5499 617.78Z" fill="#263238"/>
<path d="M75.4201 626.3C75.5601 626.51 75.6801 626.79 75.9501 626.88C76.2235 626.94 76.5067 626.94 76.7801 626.88C76.6388 626.999 76.4706 627.081 76.2901 627.12C76.1135 627.169 75.9267 627.169 75.7501 627.12C75.6049 627.048 75.486 626.933 75.4101 626.79C75.3311 626.65 75.2995 626.489 75.3201 626.33C75.3225 626.32 75.3275 626.31 75.3348 626.302C75.342 626.294 75.3512 626.289 75.3614 626.286C75.3715 626.283 75.3823 626.282 75.3927 626.285C75.403 626.287 75.4125 626.293 75.4201 626.3Z" fill="#263238"/>
<path d="M76.4301 624.15C76.6126 624.457 76.8572 624.722 77.1482 624.929C77.4393 625.135 77.7703 625.279 78.1201 625.35C78.4251 625.418 78.7384 625.442 79.0501 625.42H79.3901C79.4323 625.412 79.4708 625.391 79.5001 625.36C79.5291 625.333 79.5499 625.298 79.5601 625.26V623.63C79.7701 623.75 80.8401 624.27 80.8301 623.96C80.839 621.331 80.581 618.707 80.0601 616.13C80.0601 616.05 79.9101 616.06 79.9201 616.13C79.9201 618.56 80.3001 620.98 80.3201 623.44C79.9409 623.249 79.5371 623.111 79.1201 623.03C79.0701 623.03 79.1201 625.03 79.1201 625.03C78.6421 625.063 78.1624 624.998 77.7101 624.84C77.2537 624.69 76.8345 624.444 76.4801 624.12C76.4601 624 76.3901 624.09 76.4301 624.15Z" fill="#263238"/>
<path d="M78.82 625.28C78.4497 625.69 77.9819 625.999 77.46 626.18C77.1702 626.27 76.8598 626.27 76.57 626.18C75.95 625.96 75.98 625.37 76.14 624.88C76.2279 624.624 76.3454 624.379 76.49 624.15C77.1199 624.775 77.9395 625.172 78.82 625.28Z" fill="#263238"/>
<path d="M77.46 626.18C77.1717 626.28 76.8583 626.28 76.57 626.18C75.95 625.97 75.98 625.38 76.14 624.89C76.4717 624.929 76.7812 625.077 77.02 625.31C77.2589 625.543 77.4136 625.849 77.46 626.18Z" fill="#FF9CBD"/>
<path d="M83.0899 612.91C82.7099 611.91 82.2499 610.91 81.6699 610.65C81.0899 610.39 80.6699 611.86 79.2599 611.89C77.4199 611.89 76.6099 610.21 74.0499 609.89C70.3999 609.47 68.6199 612.47 68.2899 617.69C67.9899 622.36 65.1599 622.69 65.1599 622.69C65.1599 622.69 63.9099 612.3 66.9999 609C70.0899 605.7 76.7799 604.52 81.0999 608C82.6599 609.28 83.0899 612.91 83.0899 612.91Z" fill="#263238"/>
<path d="M67.72 620.8C67.72 620.8 65.85 616.8 64.07 617.43C62.29 618.06 63.28 623.51 65.07 624.54C65.2867 624.689 65.5319 624.791 65.79 624.84C66.0471 624.895 66.3129 624.895 66.57 624.84C66.8288 624.787 67.0739 624.682 67.29 624.53C67.499 624.373 67.6785 624.18 67.82 623.96L67.72 620.8Z" fill="#AD6359"/>
<path d="M64.3999 619C64.9591 619.407 65.4263 619.927 65.7709 620.527C66.1155 621.126 66.3299 621.792 66.3999 622.48C66.3511 622.333 66.269 622.2 66.1599 622.09C66.0495 621.979 65.9164 621.894 65.7699 621.84C65.6234 621.784 65.4658 621.764 65.3099 621.78C65.1561 621.794 65.0066 621.838 64.8699 621.91C65.1176 621.877 65.3693 621.923 65.5899 622.04C65.8106 622.15 65.9896 622.329 66.0999 622.55C66.2904 622.919 66.438 623.308 66.5399 623.71C66.5399 623.84 66.8099 623.81 66.7799 623.71C67.0899 622.07 66.1899 619.47 64.3999 619Z" fill="#263238"/>
<path d="M78.12 606.15C76.7392 605.321 75.2429 604.7 73.68 604.31C71.93 603.91 66.29 603.76 64.83 604.75C63.37 605.74 62.47 610.97 62.36 611.75C62.25 612.53 62.11 617.22 63.69 618.52C65.27 619.82 66.23 611.94 69.17 609.52C72.11 607.1 78.12 606.15 78.12 606.15Z" fill="#A6A6A6"/>
<path opacity="0.1" d="M78.12 606.15C78.12 606.15 72.12 607.15 69.12 609.54C66.12 611.93 65.21 619.77 63.63 618.54C63.2743 618.204 62.9893 617.799 62.7918 617.351C62.5944 616.903 62.4883 616.42 62.48 615.93C63.1895 612.979 64.5877 610.237 66.56 607.93C68.56 605.79 71.84 604.93 75.2 604.93C76.2059 605.254 77.1827 605.662 78.12 606.15Z" fill="black"/>
<path d="M63.6699 623.26C64.0299 621.16 66.7599 615.73 69.3399 612.72C71.9199 609.71 78.7399 608.5 79.6699 608.65C81.8899 609.01 82.2799 610.11 82.6699 609.97C83.0599 609.83 81.0699 607.05 80.4799 606.58C79.5734 605.996 78.5489 605.621 77.4799 605.48C76.4799 605.4 70.4099 605.38 67.9699 607.73C65.5299 610.08 61.6399 617 61.9999 618.85C62.0899 619.31 62.6499 619.66 62.7699 620.31C62.9399 621.16 63.0099 622.13 63.1999 622.73C63.3899 623.33 63.6299 623.44 63.6699 623.26Z" fill="#A6A6A6"/>
<path d="M63.8601 621.14C63.8001 620.98 63.7401 620.83 63.6701 620.68C63.6082 620.504 63.5614 620.324 63.5301 620.14C63.5192 619.803 63.4723 619.468 63.3901 619.14C63.2773 618.882 63.1365 618.637 62.9701 618.41C62.7619 618.156 62.6456 617.839 62.6401 617.51C62.6401 617.46 62.5801 617.46 62.5801 617.51C62.609 618.117 62.7951 618.706 63.1201 619.22C63.2069 619.588 63.2638 619.963 63.2901 620.34C63.3408 620.696 63.5057 621.026 63.7601 621.28C63.7601 621.28 63.8801 621.2 63.8601 621.14Z" fill="#263238"/>
<path d="M64.82 618.93C64.6319 618.684 64.4583 618.427 64.3 618.16C64.1564 617.89 64.0327 617.609 63.93 617.32C63.83 617.04 63.74 616.75 63.64 616.46C63.54 616.17 63.37 615.8 63.26 615.46C63.26 615.41 63.18 615.46 63.2 615.46C63.3 615.82 63.35 616.19 63.44 616.54C63.5238 616.85 63.6273 617.154 63.75 617.45C63.8694 617.732 64.0133 618.003 64.18 618.26C64.3397 618.52 64.5466 618.747 64.79 618.93C64.79 618.93 64.83 619 64.82 618.93Z" fill="#263238"/>
<path d="M71.7501 610.28C71.5701 610 71.3901 609.72 71.1901 609.46C70.9901 609.2 70.7501 608.96 70.5101 608.73C70.058 608.249 69.5512 607.823 69.0001 607.46C69.0001 607.46 68.9301 607.46 69.0001 607.46C69.9001 608.46 70.8501 609.34 71.7601 610.3C71.7301 610.36 71.7801 610.32 71.7501 610.28Z" fill="#263238"/>
<path d="M73.22 608.64C73.0304 608.374 72.8125 608.129 72.57 607.91C72.0488 607.452 71.4787 607.053 70.87 606.72C70.82 606.72 70.78 606.72 70.82 606.72C71.33 607.15 71.82 607.55 72.33 608.01C72.5772 608.222 72.8079 608.453 73.02 608.7C73.24 608.95 73.39 609.23 73.6 609.49C73.5264 609.186 73.3976 608.897 73.22 608.64Z" fill="#263238"/>
<path d="M75.0601 608C74.5719 607.225 73.88 606.599 73.0601 606.19C73.0601 606.19 73.0001 606.19 73.0601 606.25C73.5401 606.615 73.9914 607.016 74.4101 607.45L75.0101 608.13C75.1891 608.388 75.3828 608.635 75.5901 608.87C75.4517 608.563 75.2807 608.271 75.0801 608H75.0601Z" fill="#263238"/>
<path d="M76.4299 607C76.2299 606.8 76.0199 606.61 75.8099 606.42C75.6025 606.223 75.3665 606.057 75.1099 605.93C75.1099 605.93 75.0499 605.93 75.1099 606C75.5099 606.38 75.8899 606.78 76.2799 607.17C76.6104 607.564 76.9018 607.99 77.1499 608.44C77.0533 607.893 76.7875 607.389 76.3899 607H76.4299Z" fill="#263238"/>
<path d="M78.06 606.86C77.684 606.445 77.2327 606.106 76.73 605.86C76.73 605.86 76.67 605.86 76.73 605.86C77.1764 606.165 77.5742 606.536 77.91 606.96C78.2568 607.378 78.5554 607.835 78.8 608.32C78.6507 607.771 78.3808 607.262 78.01 606.83L78.06 606.86Z" fill="#263238"/>
<path d="M80 608C79.9527 607.884 79.8993 607.77 79.84 607.66C79.7279 607.44 79.5939 607.233 79.44 607.04C79.1026 606.672 78.7309 606.337 78.33 606.04C78.33 606.04 78.25 606.04 78.33 606.1C78.7074 606.409 79.0435 606.765 79.33 607.16C79.4804 607.352 79.6143 607.556 79.73 607.77L79.89 608.09C79.9221 608.199 79.9692 608.304 80.03 608.4H80.09C80.0879 608.262 80.0573 608.126 80 608Z" fill="#263238"/>
<path d="M81.3 608.26C81.195 608.082 81.078 607.912 80.95 607.75C80.831 607.584 80.7007 607.427 80.56 607.28C80.41 607.13 80.26 606.98 80.13 606.83C80 606.68 80.04 606.83 80.07 606.83C80.215 606.986 80.3518 607.15 80.48 607.32L80.83 607.8L81.17 608.29C81.29 608.46 81.39 608.64 81.52 608.79C81.4638 608.607 81.3901 608.429 81.3 608.26Z" fill="#263238"/>
<path d="M74.0001 638.05C74.0001 640.19 73.8501 645.14 70.5301 644.62C69.2017 644.302 67.9932 643.608 67.0501 642.62C66.0568 641.701 65.165 640.679 64.3901 639.57C63.4931 638.345 62.6939 637.051 62.0001 635.7C62.0001 635.64 61.8801 635.7 61.9101 635.7C62.6401 637.05 63.2001 638.45 64.0401 639.7C64.8404 640.945 65.8021 642.078 66.9001 643.07C67.9019 644.102 69.1973 644.8 70.6101 645.07C71.2236 645.132 71.8399 644.983 72.3565 644.646C72.8732 644.31 73.2591 643.806 73.4501 643.22C74.0188 641.536 74.21 639.747 74.0101 637.98L74.0001 638.05Z" fill="#263238"/>
<path d="M54.8901 643.76C51.6901 661.92 54.7801 675.51 57.8901 677.2C66.2001 681.73 86.1301 672.54 91.7601 670.71C94.0301 669.98 83.6601 652.59 81.3501 653.66C75.8801 656.18 68.1901 660.47 67.9101 660.44C67.3001 660.38 66.5801 655.74 63.4001 642.24C60.8101 631.3 56.2001 636.34 54.8901 643.76Z" fill="#AD6359"/>
<path d="M109.85 645.06C110.42 647.34 104.68 648.27 104.68 648.27C105.632 648.608 106.436 649.27 106.95 650.14C107.78 651.72 105.68 653.72 105.68 653.72C106.594 654.285 107.319 655.11 107.76 656.09C108.4 657.68 106.56 660 106.56 660C107.121 660.978 107.309 662.125 107.09 663.23C106.36 666.16 101.9 667.31 99.26 668.58C96.44 669.93 91.76 670.43 89.64 671.38L80.45 654.57C80.45 654.57 89.33 645.14 94.39 643.73C97.21 642.88 109 641.57 109.85 645.06Z" fill="#AD6359"/>
<path d="M104.61 648.21C101.41 648.197 98.2196 648.573 95.11 649.33C95.04 649.33 95.11 649.46 95.11 649.44C98.19 648.77 101.52 648.91 104.61 648.36C104.61 648.36 104.61 648.36 104.61 648.31C104.614 648.301 104.617 648.291 104.617 648.28C104.617 648.27 104.614 648.26 104.61 648.25V648.21Z" fill="#263238"/>
<path d="M105.54 653.51C104.809 653.548 104.086 653.682 103.39 653.91C102.66 654.1 101.93 654.31 101.16 654.53C99.6999 654.96 98.2399 655.44 96.7799 655.95C96.7099 655.95 96.7799 656.07 96.7799 656.06C98.2399 655.62 99.7799 655.21 101.24 654.84L103.49 654.31C104.212 654.188 104.919 653.991 105.6 653.72C105.612 653.714 105.622 653.705 105.631 653.695C105.64 653.685 105.646 653.673 105.65 653.66C105.655 653.637 105.655 653.613 105.65 653.59V653.53H105.58L105.54 653.51Z" fill="#263238"/>
<path d="M106.5 660C105.842 660.044 105.196 660.199 104.59 660.46L102.59 661.09C101.25 661.5 99.9001 661.91 98.5901 662.27V662.33C99.9701 661.98 101.36 661.6 102.75 661.26L104.75 660.7C105.382 660.58 105.988 660.35 106.54 660.02L106.5 660Z" fill="#263238"/>
<path d="M67.8799 660.44C70.1599 659.38 72.4099 658.25 74.6699 657.17L77.9999 655.49L79.6899 654.69C80.2275 654.413 80.7819 654.169 81.3499 653.96H81.4299V653.91C82.8899 652.45 84.3499 651.05 85.8699 649.63C86.5999 648.9 87.3899 648.24 88.1599 647.57C88.9208 646.879 89.7331 646.248 90.5899 645.68C89.6804 646.147 88.8138 646.692 87.9999 647.31C87.1899 647.94 86.3999 648.59 85.6099 649.31C84.0399 650.64 82.5399 652.08 81.0599 653.51L81.1899 653.44C80.5823 653.662 79.9909 653.926 79.4199 654.23L77.7399 655.07L74.3899 656.81C72.2499 658 70.0499 659.16 67.8799 660.44Z" fill="#263238"/>
<path d="M79.76 653.26L89.76 673.73C89.76 673.73 62.76 684.73 57.53 678.73C52.3 672.73 52.53 652.73 54.96 641.73C57.39 630.73 62.73 636.08 63.96 642.14C65.19 648.2 67.37 659.78 67.91 659.64C68.45 659.5 79.76 653.26 79.76 653.26Z" fill="#455A64"/>
<path d="M80.1699 654.1C80.0499 653.8 79.9499 653.51 79.8299 653.23V653.16H79.7499C78.2899 653.84 76.8299 654.57 75.3699 655.3C73.9099 656.03 72.4899 656.8 71.0599 657.58C69.6299 658.36 68.2199 659.16 66.8199 660C65.4199 660.84 64.0299 661.68 62.6699 662.58C64.1299 661.93 65.5999 661.22 67.0599 660.49C68.5199 659.76 69.9999 659 71.3799 658.23C72.7599 657.46 74.2299 656.65 75.6399 655.84C77.0499 655.03 78.4399 654.18 79.8099 653.29H79.7099C79.8427 653.571 79.9965 653.842 80.1699 654.1Z" fill="#263238"/>
<path d="M64.8601 646.88C65.0052 649.074 65.3161 651.253 65.7901 653.4C66.0201 654.47 66.2801 655.54 66.6001 656.6C66.8646 657.662 67.2967 658.674 67.8801 659.6C67.6913 659.091 67.5506 658.565 67.4601 658.03L67.1401 656.42C66.9501 655.34 66.7201 654.28 66.5001 653.21C66.0001 651.11 65.5401 649 64.8601 646.88Z" fill="#263238"/>
<path d="M66.06 647.76C66 648.39 65.98 649 65.92 649.61C65.92 649.92 65.92 650.22 65.86 650.52C65.8 650.82 65.79 651.14 65.75 651.45C66.0819 650.903 66.2678 650.279 66.29 649.64C66.3398 649.004 66.2616 648.365 66.06 647.76Z" fill="#263238"/>
<path d="M53.6801 650.68C53.3884 653.237 53.2316 655.807 53.2101 658.38C53.1617 660.96 53.2585 663.541 53.5001 666.11C53.7018 668.678 54.1676 671.218 54.8901 673.69C55.2696 674.938 55.7896 676.139 56.4401 677.27C57.0726 678.415 58.0533 679.33 59.2401 679.88C58.1483 679.219 57.278 678.248 56.7401 677.09C56.1698 675.961 55.7303 674.769 55.4301 673.54C55.1215 672.307 54.8778 671.059 54.7001 669.8C54.4901 668.55 54.3401 667.28 54.2201 666C53.9701 663.46 53.8601 660.89 53.7701 658.34C53.7701 657.07 53.7001 655.79 53.7001 654.5C53.7001 653.21 53.6801 652 53.6801 650.68Z" fill="#263238"/>
<path d="M53.0899 652.3C52.9818 652.741 52.958 653.199 53.0199 653.65C53.0797 654.106 53.2402 654.543 53.4899 654.93C53.4868 654.485 53.4534 654.04 53.3899 653.6C53.3303 653.158 53.2299 652.723 53.0899 652.3Z" fill="#263238"/>
<path d="M208.86 740.94C208.22 742.47 178.5 776.36 176.55 776.94C175.82 777.16 170.63 773.11 164.5 768.05C163.17 766.97 161.81 765.86 160.44 764.66C151.5 757.14 142.17 748.93 142.17 748.93L162 726.21L179.7 742.57L183.59 746.16C183.59 746.16 200.76 738.27 202.97 737.87C205.18 737.47 209.5 739.4 208.86 740.94Z" fill="#AD6359"/>
<path d="M208.86 740.94C208.22 742.47 178.5 776.36 176.55 776.94C175.65 777.2 168.18 771.18 160.47 764.66L179.74 742.57L183.62 746.16C183.62 746.16 200.8 738.27 203.01 737.87C205.22 737.47 209.5 739.4 208.86 740.94Z" fill="white"/>
<path d="M208.86 740.94C208.22 742.47 178.5 776.36 176.55 776.94C175.82 777.16 170.63 773.11 164.5 768.06L183.6 746.13C183.6 746.13 200.77 738.24 202.98 737.84C205.19 737.44 209.5 739.4 208.86 740.94Z" fill="#37474F"/>
<path d="M207.08 740.21C201.96 745.77 181.83 768.67 177.18 774.56C177.18 774.56 177.18 774.63 177.18 774.56C182.38 769.16 202.33 746.1 207.18 740.27C207.27 740.21 207.18 740.11 207.08 740.21Z" fill="#263238"/>
<path d="M199.87 739C199.294 739.615 198.854 740.344 198.578 741.14C198.303 741.936 198.198 742.781 198.27 743.62C198.384 745.128 199.071 746.534 200.19 747.55C200.19 747.55 200.28 747.55 200.25 747.47C199.29 746.295 198.742 744.837 198.69 743.32C198.631 741.803 199.066 740.308 199.93 739.06C199.93 739.06 199.87 738.93 199.87 739Z" fill="#263238"/>
<path d="M186.09 744.44C184.09 746.68 182.56 750.03 183.16 753.07C183.16 753.19 183.36 753.15 183.38 753.07C184.081 750.172 185.087 747.356 186.38 744.67C186.39 744.648 186.395 744.624 186.395 744.6C186.395 744.576 186.39 744.552 186.38 744.53C186.378 744.504 186.369 744.478 186.355 744.456C186.341 744.433 186.322 744.414 186.3 744.4C186.254 744.386 186.205 744.386 186.16 744.4C186.111 744.411 186.069 744.439 186.04 744.48L186.09 744.44Z" fill="#263238"/>
<path d="M188.31 743.28C186.31 745.53 184.78 748.87 185.39 751.92C185.39 752.03 185.58 752 185.6 751.92C186.298 749.018 187.304 746.199 188.6 743.51C188.615 743.468 188.615 743.422 188.6 743.38C188.586 743.338 188.562 743.3 188.53 743.27C188.488 743.256 188.442 743.256 188.4 743.27C188.361 743.256 188.319 743.256 188.28 743.27L188.31 743.28Z" fill="#263238"/>
<path d="M190.54 742.13C188.54 744.37 187 747.72 187.62 750.76C187.62 750.88 187.8 750.84 187.83 750.76C188.521 747.856 189.527 745.036 190.83 742.35C190.84 742.33 190.845 742.307 190.845 742.285C190.845 742.262 190.84 742.24 190.83 742.22C190.823 742.173 190.798 742.13 190.76 742.1C190.717 742.09 190.673 742.09 190.63 742.1C190.585 742.108 190.543 742.128 190.51 742.16L190.54 742.13Z" fill="#263238"/>
<path d="M192.76 741C190.76 743.24 189.22 746.58 189.84 749.62C189.84 749.74 190.03 749.71 190.06 749.62C190.756 746.721 191.762 743.905 193.06 741.22C193.074 741.175 193.074 741.126 193.06 741.08C193.047 741.049 193.026 741.022 193 741C192.958 740.986 192.912 740.986 192.87 741C192.823 741.009 192.781 741.034 192.75 741.07L192.76 741Z" fill="#263238"/>
<path d="M173.06 768.39C170.83 770.95 174.8 774.39 177.06 771.86C179.32 769.33 175.3 765.83 173.06 768.39Z" fill="white"/>
<path d="M185.35 739.77C185.86 742.38 185.22 745.13 184.92 747.77C184.908 747.83 184.88 747.885 184.84 747.93C184.806 747.974 184.761 748.009 184.71 748.03C184.654 748.044 184.596 748.044 184.54 748.03C184.484 748.045 184.426 748.045 184.37 748.03C182.428 746.039 181.048 743.568 180.37 740.87C180.01 739.29 180.37 737.02 182.31 736.71C184.25 736.4 185.06 738.24 185.35 739.77ZM183.56 738C180.89 736 180.83 740 181.15 741.1C181.367 741.851 181.635 742.586 181.95 743.3C182.628 744.747 183.379 746.159 184.2 747.53C184.27 746.24 184.44 744.98 184.56 743.69C184.7 742.15 185.04 739.07 183.56 738.01V738Z" fill="#263238"/>
<path d="M175.74 754.83C174.41 753.36 175.58 751.37 176.86 750.38C179.093 748.73 181.721 747.695 184.48 747.38C184.538 747.39 184.593 747.414 184.64 747.45C184.687 747.484 184.725 747.528 184.75 747.58C184.765 747.636 184.765 747.694 184.75 747.75C184.764 747.806 184.764 747.864 184.75 747.92C183.34 750.11 182.12 752.66 180.08 754.37C179 755.38 177 756.19 175.74 754.83ZM182.02 750.83C182.75 749.77 183.4 748.64 184.16 747.63C182.67 748.18 181.16 748.81 179.77 749.5C179.078 749.853 178.41 750.25 177.77 750.69C176.77 751.38 174.38 754.45 177.69 754.62C179.45 754.68 181.13 752.08 181.98 750.8L182.02 750.83Z" fill="#263238"/>
<path d="M178.87 739L158.17 764.58L94.0601 715.91L87.8701 711.21C87.8701 711.21 86.0201 712.35 83.2401 713.73C79.3801 715.66 73.7401 718.06 68.8201 718.57C60.5701 719.44 48.2101 718.78 41.6901 709.25C36.2001 701.25 38.4601 691.14 38.4601 691.14L47.6401 687.66C47.6401 687.66 69.7001 670.81 83.5201 670.84C89.3701 670.84 97.7501 675.67 105.45 680.65C113.15 685.63 178.87 739 178.87 739Z" fill="#263238"/>
<path d="M87.8699 711.21C87.8699 711.21 86.0199 712.34 83.2399 713.73C78.6899 707.73 68.9599 696.92 68.6699 696.53L87.8699 711.21Z" fill="#37474F"/>
<path d="M55.6899 682C54.3799 682.83 53.1099 683.72 51.8199 684.57C50.5299 685.42 49.2299 686.2 48.0099 687.12C46.7899 688.04 45.5999 689.12 44.4299 690.12C43.8632 690.613 43.3032 691.113 42.7499 691.62C42.1773 692.113 41.6425 692.647 41.1499 693.22C41.1499 693.28 41.1499 693.34 41.2399 693.31C41.8517 692.908 42.4394 692.471 42.9999 692L44.8499 690.54C46.0399 689.61 47.2399 688.72 48.4299 687.79C49.6199 686.86 50.6999 685.84 51.8699 684.91C53.0399 683.98 54.4299 682.99 55.7199 682.04C55.7399 682.07 55.7199 682 55.6899 682Z" fill="#37474F"/>
<path d="M174.28 737.83C172.95 739.14 171.71 740.57 170.47 741.97C169.23 743.37 167.97 744.78 166.73 746.19C164.26 749.03 161.73 751.84 159.34 754.72C158 756.29 156.68 757.88 155.43 759.52C155.37 759.59 155.49 759.69 155.55 759.62C158.2 756.95 160.63 754.09 163.1 751.25C165.57 748.41 168.03 745.57 170.47 742.7C171.79 741.13 173.16 739.57 174.39 737.91C174.48 737.85 174.37 737.77 174.28 737.83Z" fill="#37474F"/>
<path d="M124 738.58C120.83 735.84 113.57 730.47 110.27 727.9C106.97 725.33 103.69 722.78 100.35 720.28C99.3499 719.54 98.4199 718.86 97.4199 718.16C96.4199 717.46 95.4199 716.8 94.4999 716.07C94.4399 716.07 94.3899 716.07 94.4399 716.16C95.2999 716.84 96.1199 717.62 96.9699 718.3C97.8199 718.98 98.5899 719.65 99.3999 720.3C101 721.59 102.62 722.86 104.24 724.14C107.5 726.72 110.81 729.27 114.14 731.78C116.03 733.2 121.87 737.4 123.81 738.78C124 738.85 124.15 738.67 124 738.58Z" fill="#37474F"/>
<path d="M145.93 712.17C143.01 709.52 136.28 704.39 133.2 701.94C130.12 699.49 126.98 696.94 123.84 694.46L114.52 687.1C111.52 684.72 108.52 682.3 105.31 680.17C103.55 679.01 101.75 677.92 99.9 676.93C98.1028 675.913 96.2228 675.05 94.28 674.35H94.22C95.81 675.35 97.48 676.15 99.08 677.1C100.68 678.05 102.21 679 103.74 680.02C106.92 682.13 109.9 684.51 112.9 686.87C119.13 691.76 125.32 696.67 131.61 701.49C135.12 704.19 142.11 709.76 145.77 712.27C145.89 712.43 146 712.26 145.93 712.17Z" fill="#37474F"/>
</g>
<defs>
<clipPath id="clip0_377_4762">
<rect width="375" height="812" fill="white"/>
</clipPath>
</defs>
</svg>
