<svg width="409" height="812" viewBox="0 0 409 812" fill="none" xmlns="http://www.w3.org/2000/svg">
<g clip-path="url(#clip0_377_4762)">
<path d="M288.678 77.5901C355.765 81.5001 422.612 68.9201 444.992 -28.7499C454.655 -70.1199 409.469 -57.5599 362.178 -51.1399C314.886 -44.7199 274.848 -41.8999 248.672 -60.1499C222.496 -78.3999 75.4851 -57.1799 29.7753 -46.7599C-15.9346 -36.3399 -5.12607 57.4401 43.2014 72.6201C91.5288 87.8001 106.34 57.3901 154.558 51.8501C202.777 46.3101 232.945 74.3401 288.678 77.5901Z" fill="#52B788"/>
<path d="M76.9139 148C92.9794 97.4 62.7898 49 19.1958 27.21C8.16919 21.71 -10.7103 16 -24.5835 47C-38.4568 78 -5.30054 112.16 -28.4663 133.8C-51.6321 155.44 -56.5619 196.63 -52.8427 218.47C-49.1235 240.31 -56.3001 295.83 -90.7979 363.68C-125.296 431.53 -127.095 507 -60.4119 535.74C6.27143 564.48 75.4851 465 59.256 390.15C47.4877 335.86 20.0684 316.93 28.0848 259.55C36.1012 202.17 60.8484 198.66 76.9139 148Z" fill="#74C69D"/>
<path d="M31.6292 464.31C2.69382 431.1 -72.8567 412.68 -115.742 472.6L-124.227 599.66L-113.026 723.25C-97.822 755.48 -65.4619 819.89 -57.6637 819.67C-47.924 819.39 102.435 789.45 110.048 783.47C117.661 777.49 129.091 714.31 94.6588 704C60.2265 693.69 41.1071 652.35 57.6525 586.38C70.7078 534.3 56.3655 492.77 31.6292 464.31Z" fill="#D8F3DC"/>
<path d="M158.288 715.92C101.148 715.02 -1.65786 739.86 -20.5809 837.86C-28.7609 879.38 16.9816 866.04 65.1346 858.79C113.287 851.54 154.231 848.02 181.836 865.79C209.441 883.56 359.015 859.79 405.423 848.57C451.83 837.35 436.834 743.81 386.739 729.5C336.645 715.19 339.252 743.56 290.106 749.94C240.961 756.32 235.769 717.15 158.288 715.92Z" fill="#52B788"/>
<path d="M377.676 848.67C385.463 861.73 386.718 864.96 371.034 854.16C369.223 852.91 372.299 851.66 377.676 848.67C364.468 826.5 332.435 776 332.435 717.67C332.435 630.3 353.496 642.53 366.169 563.32C377.261 493.93 338.336 471.6 338.336 404.14C338.336 307.8 404.681 247.06 469.837 285.76C534.994 324.46 533.598 347.92 495.446 428.61C457.295 509.3 447.173 576.46 449.682 603.24C452.19 630.02 445.09 679.89 420.746 705C396.403 730.11 427.748 773.44 412.206 810.43C402.456 833.63 386.772 843.62 377.676 848.67Z" fill="#74C69D"/>
<path d="M488.619 76.8699C495.883 149.23 358.895 261.73 496.515 286.78C629.871 309.43 423.113 410.78 362.843 324.52C308.004 246 367.555 220.31 356.648 170.85C345.491 120.68 298.472 128.12 298.581 77.0599C298.69 25.9999 343.069 -17.2601 395.65 -36.0701C448.231 -54.8801 481.366 4.50994 488.619 76.8699Z" fill="#B7E4C7"/>
<path d="M378.156 534.58C376.629 535.02 332.828 534.35 331.17 533.36C330.537 532.98 330.276 527.13 330.167 520.05V515.34C330.167 504.92 330.276 495.34 330.276 495.34L359.582 496.04L358.666 515.7L358.447 520.41C358.447 520.41 375.091 527.54 376.771 528.8C378.45 530.06 379.694 534.13 378.156 534.58Z" fill="#F7A9A0"/>
<path d="M378.156 534.58C376.629 535.02 332.828 534.35 331.17 533.36C330.396 532.9 330.167 524.36 330.134 515.36L358.622 515.72L358.404 520.42C358.404 520.42 375.058 527.56 376.738 528.82C378.418 530.08 379.694 534.13 378.156 534.58Z" fill="white"/>
<path d="M378.156 534.58C376.629 535.02 332.828 534.35 331.17 533.36C330.537 532.98 330.276 527.13 330.167 520.05L358.415 520.41C358.415 520.41 375.058 527.54 376.738 528.8C378.418 530.06 379.694 534.13 378.156 534.58Z" fill="#A6A6A6"/>
<path opacity="0.1" d="M352.678 534.48C342.033 534.24 331.955 533.82 331.17 533.38C330.385 532.94 330.276 527.15 330.167 520.07L335.947 520.14C340.397 524 348.435 530.84 352.678 534.48Z" fill="black"/>
<path d="M377.556 533C370.216 532.72 340.593 532.24 333.319 532.47C333.253 532.47 333.253 532.47 333.319 532.52C340.582 532.94 370.205 533.18 377.556 533.11C377.752 533.07 377.752 533 377.556 533Z" fill="#263238"/>
<path d="M373.946 527.32C373.131 527.284 372.317 527.407 371.557 527.68C370.796 527.953 370.105 528.368 369.529 528.9C368.482 529.841 367.872 531.117 367.827 532.46C367.827 532.46 367.904 532.46 367.915 532.46C368.188 531.132 368.924 529.921 370.011 529.009C371.099 528.097 372.479 527.532 373.946 527.4V527.32Z" fill="#263238"/>
<path d="M361.24 521.12C358.306 521.03 354.881 521.93 353.016 524.12C352.94 524.2 353.082 524.3 353.169 524.26C355.755 523.06 358.476 522.121 361.283 521.46C361.33 521.455 361.373 521.433 361.403 521.4C361.419 521.358 361.419 521.312 361.403 521.27C361.393 521.229 361.37 521.191 361.338 521.16C361.292 521.145 361.242 521.145 361.196 521.16L361.24 521.12Z" fill="#263238"/>
<path d="M363.508 522C360.563 521.91 357.139 522.81 355.274 525C355.197 525.08 355.328 525.17 355.416 525.13C358.012 523.938 360.739 523.002 363.552 522.34C363.6 522.331 363.642 522.306 363.672 522.27C363.689 522.232 363.689 522.189 363.672 522.15C363.661 522.109 363.639 522.071 363.606 522.04C363.586 522.031 363.564 522.027 363.541 522.027C363.518 522.027 363.496 522.031 363.476 522.04L363.508 522Z" fill="#263238"/>
<path d="M365.755 522.81C362.821 522.73 359.397 523.63 357.521 525.81C357.455 525.9 357.586 525.99 357.673 525.95C360.263 524.75 362.988 523.811 365.799 523.15H365.864C365.882 523.154 365.901 523.154 365.919 523.15V523.09C365.919 523.09 365.919 523.09 365.919 523.03C365.925 523.01 365.925 522.99 365.919 522.97H365.853L365.755 522.81Z" fill="#263238"/>
<path d="M368.013 523.65C365.068 523.57 361.643 524.47 359.778 526.65C359.713 526.73 359.833 526.83 359.92 526.79C362.514 525.59 365.242 524.651 368.056 523.99C368.097 523.978 368.132 523.953 368.155 523.92C368.165 523.901 368.171 523.881 368.171 523.86C368.171 523.839 368.165 523.818 368.155 523.8C368.153 523.781 368.148 523.762 368.139 523.745C368.129 523.727 368.116 523.712 368.1 523.7C368.069 523.669 368.026 523.652 367.98 523.65H368.013Z" fill="#263238"/>
<path d="M335.304 526.07C332.032 526.07 331.933 530.7 335.227 530.77C338.521 530.84 338.597 526.11 335.304 526.07Z" fill="#263238"/>
<path d="M364.555 514C363.116 512.85 361.196 513.92 360.193 515.09C358.634 517.113 357.679 519.475 357.422 521.94C357.422 521.951 357.424 521.962 357.429 521.973C357.435 521.983 357.442 521.992 357.452 521.998C357.461 522.005 357.473 522.01 357.485 522.012C357.497 522.014 357.509 522.013 357.521 522.01C357.531 522.061 357.553 522.109 357.586 522.15C357.616 522.197 357.662 522.232 357.717 522.25C357.771 522.26 357.827 522.26 357.881 522.25C357.931 522.26 357.983 522.26 358.033 522.25C360.16 520.96 362.592 519.81 364.217 517.96C365.188 516.84 365.941 515.07 364.555 514ZM360.836 519.68C359.811 520.34 358.764 520.95 357.771 521.68C358.273 520.33 358.862 519.01 359.495 517.68C359.813 517.061 360.178 516.463 360.585 515.89C361.24 515 364.185 512.8 364.403 515.73C364.534 517.3 362.036 518.87 360.814 519.66L360.836 519.68Z" fill="#263238"/>
<path d="M350.104 522.8C352.656 523.2 355.307 522.57 357.826 522.25C357.883 522.241 357.936 522.217 357.979 522.18C358.023 522.149 358.057 522.108 358.077 522.06C358.087 522.011 358.087 521.96 358.077 521.91C358.087 521.86 358.087 521.81 358.077 521.76C356.094 520.071 353.66 518.891 351.02 518.34C349.482 518.04 347.29 518.34 347.028 520.14C346.767 521.94 348.654 522.58 350.104 522.8ZM348.359 521.26C346.407 518.92 350.202 518.78 351.326 519.05C352.067 519.229 352.795 519.449 353.507 519.71C354.947 520.25 356.288 520.97 357.662 521.63C356.419 521.72 355.198 521.9 353.943 522.03C352.449 522.17 349.472 522.53 348.392 521.26H348.359Z" fill="#263238"/>
<path d="M359.778 513.64H327.691C327.691 513.64 333.744 451 333.471 449.8C333.144 448.26 331.29 441.31 328.738 432.22L326.208 423.17C323.808 414.61 321.158 405.27 318.878 397.17C315.432 384.99 312.738 375.53 312.738 375.53H339.928C339.928 375.53 343.102 384.75 347.094 396.7C353.583 416.17 362.298 442.99 363.159 449.5C364.566 460 359.778 513.64 359.778 513.64Z" fill="#455A64"/>
<path d="M358.36 508.62C353.463 508.53 354.87 508.49 349.973 508.45C347.574 508.45 331.813 508.3 329.567 508.64V508.73C331.813 509.07 347.595 508.94 349.973 508.92C354.87 508.92 353.463 508.85 358.36 508.75H358.415C358.421 508.734 358.421 508.716 358.415 508.7L358.36 508.62Z" fill="#263238"/>
<path d="M339.524 445.6C338.434 441.35 336.896 437.17 335.533 433C332.741 424.52 329.941 416.043 327.134 407.57C325.738 403.33 324.328 399.093 322.903 394.86C322.183 392.73 321.452 390.59 320.721 388.45C319.991 386.31 319.205 384.3 318.54 382.19C318.278 381.33 318.136 381.81 318.475 382.89C319.151 385.09 319.816 387.28 320.514 389.47C321.903 393.81 323.292 398.143 324.68 402.47C327.473 411.09 330.279 419.703 333.1 428.31L337.354 441.26C338.074 443.311 338.653 445.402 339.088 447.52C339.461 449.736 339.556 451.984 339.372 454.22C339.055 458.72 338.499 463.22 338.041 467.7L336.678 481.21C335.773 490.21 335.293 493.05 334.409 502C334.3 503.14 334.191 504.27 334.104 505.41C334.104 505.79 334.693 505.76 334.736 505.41C335.827 496.55 336.176 493.74 337.092 484.87L339.797 458.42C340.015 456.2 340.277 453.99 340.277 451.76C340.283 449.687 340.031 447.62 339.524 445.6Z" fill="#263238"/>
<path d="M336.863 375.5C334.965 388.89 331.41 414 328.749 432.22C322.608 410.14 312.749 375.5 312.749 375.5H336.863Z" fill="#263238"/>
<path d="M345.741 534.7C344.225 535.18 300.424 535.7 298.734 534.7C298.101 534.34 297.643 528.5 297.294 521.42C297.218 519.89 297.152 518.32 297.109 516.71C296.727 506.3 296.563 496.71 296.563 496.71L325.88 496.62L325.597 516.29L325.531 521.01C325.531 521.01 342.393 527.69 344.127 528.9C345.861 530.11 347.225 534.21 345.741 534.7Z" fill="#F7A9A0"/>
<path d="M345.741 534.7C344.225 535.18 300.424 535.7 298.734 534.7C297.959 534.26 297.447 525.7 297.13 516.7L325.619 516.29L325.553 521.01C325.553 521.01 342.415 527.69 344.094 528.9C345.774 530.11 347.225 534.21 345.741 534.7Z" fill="white"/>
<path d="M345.741 534.7C344.225 535.18 300.424 535.7 298.734 534.7C298.101 534.34 297.643 528.5 297.294 521.42L325.531 521.02C325.531 521.02 342.393 527.7 344.073 528.91C345.752 530.12 347.225 534.21 345.741 534.7Z" fill="#A6A6A6"/>
<path d="M345.054 533.1C337.714 533.02 308.08 533.34 300.817 533.76C300.751 533.76 300.751 533.76 300.817 533.76C308.091 533.98 337.714 533.44 345.054 533.15C345.207 533.2 345.207 533.1 345.054 533.1Z" fill="#263238"/>
<path d="M328.367 521.7C325.422 521.7 322.03 522.7 320.242 524.92C320.165 525 320.307 525.09 320.394 525.05C322.943 523.786 325.635 522.78 328.422 522.05H328.487H328.542V521.99V521.92C328.546 521.9 328.546 521.88 328.542 521.86H328.487H328.432L328.367 521.7Z" fill="#263238"/>
<path d="M330.647 522.48C327.702 522.48 324.31 523.48 322.521 525.7C322.445 525.78 322.587 525.88 322.674 525.84C325.225 524.58 327.916 523.574 330.701 522.84C330.742 522.829 330.777 522.804 330.799 522.77C330.809 522.734 330.809 522.696 330.799 522.66C330.791 522.621 330.768 522.585 330.734 522.56C330.717 522.553 330.698 522.549 330.679 522.549C330.66 522.549 330.642 522.553 330.625 522.56L330.647 522.48Z" fill="#263238"/>
<path d="M332.926 523.24C329.981 523.24 326.589 524.24 324.8 526.46C324.724 526.54 324.866 526.63 324.942 526.59C327.498 525.331 330.192 524.326 332.98 523.59C333.021 523.579 333.056 523.554 333.079 523.52C333.088 523.484 333.088 523.446 333.079 523.41C333.07 523.371 333.047 523.335 333.013 523.31C332.996 523.303 332.977 523.299 332.959 523.299C332.94 523.299 332.921 523.303 332.904 523.31L332.926 523.24Z" fill="#263238"/>
<path d="M335.195 524.06C332.261 524.06 328.858 525.06 327.058 527.26C326.993 527.36 327.124 527.44 327.211 527.4C329.762 526.133 332.458 525.127 335.249 524.4C335.289 524.385 335.32 524.356 335.336 524.32C335.36 524.289 335.373 524.253 335.373 524.215C335.373 524.177 335.36 524.141 335.336 524.11C335.319 524.103 335.301 524.1 335.282 524.1C335.263 524.1 335.245 524.103 335.227 524.11L335.195 524.06Z" fill="#263238"/>
<path d="M302.584 527.35C299.312 527.35 299.366 532.1 302.671 532.05C305.976 532 305.888 527.3 302.584 527.35Z" fill="#263238"/>
<path d="M331.443 514.47C329.938 513.36 328.083 514.47 327.178 515.67C325.676 517.727 324.788 520.11 324.604 522.58V522.58H324.67C324.682 522.632 324.708 522.68 324.746 522.72C324.782 522.762 324.826 522.796 324.877 522.82C324.934 522.835 324.994 522.835 325.051 522.82C325.101 522.834 325.154 522.834 325.204 522.82C327.276 521.5 329.676 520.26 331.236 518.37C332.173 517.29 332.861 515.52 331.443 514.47ZM327.909 520.24C326.906 520.9 325.88 521.56 324.91 522.24C325.368 520.88 325.902 519.54 326.502 518.24C326.819 517.608 327.184 516.997 327.593 516.41C328.225 515.51 331.083 513.22 331.41 516.15C331.628 517.76 329.152 519.38 327.953 520.15L327.909 520.24Z" fill="#263238"/>
<path d="M317.319 523.68C319.882 524.01 322.51 523.31 325.019 522.92C325.076 522.911 325.129 522.887 325.172 522.85C325.216 522.819 325.25 522.778 325.27 522.73C325.28 522.681 325.28 522.63 325.27 522.58C325.265 522.527 325.246 522.475 325.215 522.43V522.43V522.37C323.177 520.733 320.706 519.616 318.049 519.13C316.501 518.88 314.319 519.28 314.112 521.05C313.905 522.82 315.824 523.49 317.319 523.68ZM315.519 522.16C313.501 519.88 317.275 519.65 318.409 519.88C319.152 520.034 319.881 520.238 320.591 520.49C322.03 521.028 323.439 521.632 324.812 522.3C323.568 522.42 322.347 522.63 321.103 522.8C319.565 523 316.642 523.43 315.519 522.16Z" fill="#263238"/>
<path d="M339.067 375.5C339.067 375.5 338.434 387.41 335.456 396.88C335.216 397.66 334.955 398.43 334.682 399.17C331.948 400.182 329.323 401.424 326.84 402.88C326.84 402.88 326.535 412.47 326.218 423.18C325.869 435.18 327.887 448.49 327.974 451.32C328.236 461.9 326.884 513.53 326.884 513.53L294.796 513.65C294.796 513.65 300.25 455.23 300.25 451.35C300.195 445.12 302.595 401.75 302.191 400.75C297.021 388.37 303.849 375.52 303.849 375.52L339.067 375.5Z" fill="#455A64"/>
<path d="M325.738 508.29C320.841 508.22 322.237 508.17 317.34 508.15C314.941 508.15 299.181 508.07 296.945 508.42C299.181 508.75 314.974 508.56 317.34 508.54C322.237 508.47 320.841 508.44 325.738 508.33C325.744 508.314 325.744 508.296 325.738 508.28V508.29Z" fill="#263238"/>
<path d="M336.023 398.46C332.827 399.683 329.754 401.162 326.84 402.88V402.93C326.84 402.93 326.84 402.98 326.84 402.99C326.844 403.001 326.852 403.012 326.861 403.021C326.87 403.029 326.882 403.036 326.895 403.04H326.96C330.058 401.66 333.22 400.33 336.231 398.8C336.278 398.773 336.315 398.735 336.34 398.69C336.351 398.666 336.357 398.641 336.357 398.615C336.357 398.589 336.351 398.564 336.34 398.54C336.328 398.516 336.311 398.495 336.291 398.478C336.27 398.461 336.246 398.448 336.219 398.439C336.193 398.431 336.164 398.427 336.136 398.429C336.108 398.431 336.081 398.438 336.056 398.45L336.023 398.46Z" fill="#263238"/>
<path d="M331.192 394.46C331.29 393.14 331.399 391.77 331.53 390.46C331.824 387.4 332.173 384.32 332.751 381.29C332.806 381.05 333.166 381.15 333.144 381.37C332.915 383.75 332.621 386.12 332.381 388.51C332.141 390.9 331.824 393.25 331.781 395.62C331.781 396.34 331.781 397.55 332.773 397.74C334.06 398.01 334.66 396.46 334.955 395.62C335.684 393.501 336.221 391.33 336.558 389.13C336.983 386.63 337.212 384.13 337.474 381.59C337.474 381.5 337.649 381.52 337.649 381.59C337.649 386.59 337.583 391.8 335.555 396.52C335.409 397.008 335.122 397.452 334.725 397.804C334.328 398.156 333.834 398.403 333.297 398.52H333.242C333.253 398.549 333.253 398.581 333.242 398.61C333.223 398.748 333.194 398.885 333.155 399.02C333.155 399.16 333.101 399.26 333.079 399.37C333.057 399.48 332.981 399.86 332.915 400.1C332.907 400.147 332.88 400.19 332.839 400.22C332.793 400.234 332.743 400.234 332.697 400.22C332.645 400.212 332.599 400.187 332.566 400.15C332.555 400.13 332.55 400.107 332.55 400.085C332.55 400.062 332.555 400.04 332.566 400.02C332.531 400.009 332.5 399.988 332.479 399.96C332.479 399.96 332.479 399.91 332.479 399.87C332.501 399.383 332.623 398.905 332.839 398.46C332.522 398.399 332.226 398.269 331.977 398.08C331.738 397.889 331.551 397.649 331.432 397.38C331.115 396.441 331.051 395.446 331.246 394.48L331.192 394.46Z" fill="#263238"/>
<path d="M305.387 400.74C305.053 398.673 304.586 396.627 303.991 394.61C302.813 390.04 303.598 383.82 304.885 379.36C304.885 379.24 304.7 379.2 304.667 379.31C303.206 383.609 302.626 388.118 302.954 392.61C303.194 394.5 304.852 400.27 304.809 402.33C304.7 406.39 305.049 441.02 304.809 455.16C304.612 464.42 302.518 495.56 302.202 504.83C302.202 504.92 302.355 504.91 302.355 504.83C303.522 488.3 305.059 471.39 305.299 455.19C305.463 439.44 305.67 403 305.387 400.74Z" fill="#263238"/>
<path d="M321.223 380.39C321.07 381.81 321.016 383.23 320.787 384.65C320.658 385.949 320.045 387.167 319.053 388.1C318.021 388.967 316.791 389.613 315.454 389.99C312.494 390.434 309.483 390.518 306.499 390.24C306.041 390.18 306.085 390.5 306.946 390.67C308.91 390.909 310.888 391.042 312.869 391.07C313.833 391.11 314.799 391.05 315.748 390.89C317.33 390.62 318.788 389.924 319.936 388.89C320.984 387.827 321.594 386.462 321.659 385.03C321.763 383.485 321.698 381.934 321.463 380.4C321.441 380.26 321.223 380.26 321.223 380.39Z" fill="#263238"/>
<path d="M322.325 341.88C322.325 341.896 322.332 341.911 322.344 341.922C322.356 341.933 322.373 341.94 322.39 341.94C322.408 341.94 322.424 341.933 322.436 341.922C322.449 341.911 322.456 341.896 322.456 341.88C322.794 338.26 326.818 336.05 326.96 332.34C326.968 330.703 326.469 329.097 325.52 327.71C324.879 326.82 324.176 325.968 323.415 325.16L323.121 324.74C322.485 323.866 321.934 322.942 321.474 321.98C321.013 320.861 320.77 319.676 320.754 318.48C320.645 316.19 320.754 313.85 319.096 311.97C317.733 310.39 316.304 308.43 313.316 307.49C308.691 306.04 303.293 307.95 299.901 311.49C299.301 312.116 298.811 312.825 298.45 313.59C297.544 313.769 296.707 314.17 296.029 314.75C295.356 315.336 294.864 316.074 294.6 316.89C293.695 319.47 295.407 323.02 295.145 324.31C294.772 325.409 294.221 326.451 293.509 327.4C292.914 328.242 292.389 329.125 291.939 330.04C291.375 331.328 291.242 332.742 291.557 334.1C291.773 335.339 292.312 336.512 293.128 337.52C293.963 338.42 295.054 339.092 296.28 339.46L297.174 339.74C298.177 340.32 299.29 340.74 300.25 341.44C301.302 342.178 302.02 343.246 302.267 344.44C302.54 345.53 302.584 346.66 302.78 347.74C302.932 348.772 303.303 349.768 303.871 350.67C305.066 352.42 306.856 353.762 308.964 354.49C311.433 355.302 314.085 355.529 316.675 355.15C317.826 355.074 318.947 354.781 319.968 354.288C320.989 353.796 321.888 353.116 322.608 352.29C323.213 351.517 323.633 350.635 323.84 349.703C324.047 348.77 324.036 347.808 323.808 346.88C323.428 345.783 322.935 344.721 322.336 343.71C321.781 342.689 321.593 341.534 321.801 340.41C322.576 336.69 326.698 334.01 325.924 329.94C325.693 328.909 325.272 327.922 324.681 327.02C325.807 328.379 326.498 330 326.676 331.7C326.704 333.529 326.063 335.314 324.855 336.77C323.775 338.3 322.412 340 322.325 341.88ZM296.432 339.35C294.743 338.833 293.344 337.727 292.539 336.27C291.656 334.632 291.383 332.773 291.764 330.98C292.008 330.141 292.375 329.337 292.855 328.59V328.53C292.65 329.068 292.503 329.625 292.419 330.19C292.147 332.005 292.419 333.855 293.204 335.54C293.909 337.052 295.038 338.366 296.476 339.35H296.432Z" fill="#263238"/>
<path d="M348.326 313.11L344.367 331.82C344.313 331.925 344.289 332.042 344.3 332.159C344.311 332.275 344.355 332.387 344.428 332.482C344.502 332.578 344.601 332.654 344.717 332.703C344.832 332.751 344.96 332.771 345.087 332.76L355.47 332.24C355.785 332.201 356.08 332.08 356.321 331.89C356.57 331.706 356.756 331.459 356.855 331.18L360.814 312.48C360.989 311.93 360.673 311.48 360.095 311.48L349.711 312.01C349.395 312.047 349.097 312.165 348.85 312.35C348.607 312.538 348.426 312.784 348.326 313.06V313.11Z" fill="#37474F"/>
<path d="M349.559 313L345.6 331.7C345.414 332.25 345.741 332.7 346.319 332.65L356.703 332.12C357.017 332.081 357.314 331.962 357.559 331.777C357.803 331.591 357.987 331.346 358.088 331.07L362.047 312.37C362.221 311.81 361.905 311.37 361.327 311.37L350.933 311.9C350.619 311.933 350.322 312.051 350.082 312.24C349.838 312.426 349.656 312.673 349.559 312.95V313Z" fill="#455A64"/>
<path d="M352.46 313.74C352.466 313.902 352.421 314.062 352.329 314.2C352.231 314.334 352.095 314.441 351.936 314.51C351.774 314.57 351.597 314.591 351.424 314.57C351.252 314.542 351.093 314.469 350.966 314.36C350.836 314.25 350.745 314.108 350.704 313.95C350.66 313.796 350.66 313.634 350.704 313.48C350.765 313.328 350.875 313.196 351.018 313.101C351.162 313.007 351.334 312.954 351.511 312.95C351.626 312.951 351.74 312.968 351.849 313C352.015 313.056 352.159 313.157 352.262 313.289C352.365 313.421 352.423 313.578 352.427 313.74H352.46Z" fill="#263238"/>
<path d="M316.544 342.73C323.034 354 336.951 368.3 342.469 368.14C345.065 368.06 349.733 368.43 353.005 365.55C360.138 359.26 365.777 347.55 366.704 340.99C367.053 338.64 354.445 334.12 352.722 336.1C348.686 340.73 344.16 349.62 343.407 349.6C340.593 349.52 329.229 341.67 321.321 336.1C311.658 329.36 313.97 338.26 316.544 342.73Z" fill="#F7A9A0"/>
<path d="M366.366 329C364.828 324.33 363.639 323.35 364.621 318.77C365.264 315.77 363.443 314.14 361.272 316.59C357.717 320.64 358.328 327.05 359.244 329.21L366.366 329Z" fill="#F7A9A0"/>
<path d="M366.169 343C366.169 343 368.133 336.32 367.02 331.2C366.257 327.65 363.65 320.12 352.547 316.56C349.929 315.71 345.523 316.22 349.275 319.03C351.936 321.03 354.314 321.56 355.601 323.03C355.601 323.03 350.082 324.28 349.264 326.73C348.547 328.872 347.997 331.057 347.617 333.27C348.042 333.43 348.48 333.56 348.926 333.66C348.926 333.66 348.206 335.98 350.246 339.14L366.169 343Z" fill="#F7A9A0"/>
<path d="M365.701 328C363.085 326.043 360.138 324.492 356.975 323.41C352.962 322.24 344.891 321 343.996 323.73C343.331 325.73 346.374 326.44 346.374 326.44C346.374 326.44 342.917 326.58 342.764 328.5C342.611 330.26 345 330.69 345 330.69C345 330.69 342.917 331.1 343.124 332.81C343.375 334.88 347.694 333.68 349.919 335.57C350.333 336 365.701 328 365.701 328Z" fill="#F7A9A0"/>
<path d="M356.31 327.48C353.201 326.197 349.738 325.813 346.385 326.38C346.308 326.38 346.276 326.46 346.385 326.46C349.735 326.442 353.075 326.798 356.332 327.52C356.332 327.52 356.332 327.48 356.31 327.48Z" fill="#263238"/>
<path d="M354.925 331.14C351.711 330.13 348.259 329.937 344.934 330.58C344.858 330.58 344.825 330.67 344.934 330.66C348.278 330.49 351.633 330.661 354.936 331.17L354.925 331.14Z" fill="#263238"/>
<path d="M367.02 345.77C367.02 345.77 357.815 364.52 352.045 366.87C346.276 369.22 342.731 368.87 340.506 368.7C339.652 368.552 338.844 368.235 338.139 367.77C332.021 364.15 320.689 350.87 316.042 343.34C312.52 337.68 312.618 332.42 317.602 333.9C319.288 334.48 320.858 335.311 322.248 336.36C331.628 342.9 342.382 349.05 342.862 348.79C343.342 348.53 348.173 340.79 348.173 340.79L367.02 345.77Z" fill="#FFC727"/>
<path d="M364.686 349.21C363.999 348.9 357.542 346.9 356.135 346.5C354.728 346.1 348.97 344.37 347.486 344.07C348.893 344.63 354.696 346.37 356.135 346.81C357.575 347.25 363.999 349.1 364.73 349.21C364.762 349.31 364.762 349.23 364.686 349.21Z" fill="#263238"/>
<path d="M338.161 346.43C334.456 350.081 330.408 353.427 326.066 356.43C324.506 354.65 322.979 352.82 321.572 351.02C325.285 348.533 328.762 345.763 331.966 342.74C334.279 344.16 336.394 345.43 338.161 346.43Z" fill="#EBEBEB"/>
<path opacity="0.1" d="M355.83 363.74C354.833 365.024 353.541 366.093 352.045 366.87C346.276 369.23 342.731 368.87 340.506 368.7C339.651 368.557 338.842 368.239 338.139 367.77C332.021 364.15 320.689 350.87 316.043 343.34C312.847 338.21 312.629 333.42 316.326 333.66C326.284 341.18 345.185 355.6 355.83 363.74Z" fill="black"/>
<path d="M333.09 358.65L341.259 377.52C341.259 377.52 311.549 378.1 302.409 378.01C302.409 378.01 296.639 347.4 305.823 337.12C310.404 331.98 314.406 332.27 318.289 335.48C319.271 336.29 332.261 345.35 333.755 350.41C334.516 353.15 334.283 356.043 333.09 358.65V358.65Z" fill="#FFC727"/>
<path d="M331.214 359.23C329.677 359.088 328.133 359.031 326.589 359.06C325.82 359.07 325.051 359.12 324.288 359.21C323.917 359.21 323.568 359.28 323.197 359.33C322.826 359.38 322.401 359.48 321.998 359.52V359.58C322.379 359.58 322.761 359.58 323.154 359.58H324.299C325.073 359.58 325.848 359.58 326.611 359.51C328.149 359.45 329.687 359.4 331.236 359.4C331.236 359.4 331.236 359.4 331.29 359.4C331.29 359.4 331.29 359.4 331.29 359.35L331.214 359.23Z" fill="#263238"/>
<path d="M305.387 336C292.124 344.29 277.978 361.13 279.592 366C281.447 371.4 300.511 359.64 300.184 358.83C299.912 358.17 303.358 351.7 308.277 342.47C313.261 333.09 308.659 334 305.387 336Z" fill="#FFC727"/>
<path d="M303.456 351.51C301.951 354.41 300.86 356.58 300.391 357.8C295.285 356.923 290.257 355.696 285.351 354.13C286.791 352.31 288.459 350.42 290.27 348.53C294.568 349.859 298.979 350.862 303.456 351.53V351.51Z" fill="#EBEBEB"/>
<path d="M279.56 366C281.348 369.71 287.99 371.55 304.241 377.63C306.499 378.47 317.231 365.51 314.886 364.5C311.931 363.23 300.13 358.87 299.224 358.66C291.579 356.83 278.349 363.49 279.56 366Z" fill="#F7A9A0"/>
<path d="M311.658 363.2C311.658 363.2 318.606 365.48 321.856 367.71C325.152 370.104 327.771 373.191 329.49 376.71C331.355 380.52 332.991 390.92 329.807 391.88C326.916 392.74 325.837 382.03 325.837 382.03C325.837 382.03 328.901 392.78 325.226 393.23C321.55 393.68 321.06 381.23 321.06 381.23C321.06 381.23 323.95 392.34 320.067 392.23C317.188 392.17 316.01 380.88 316.01 380.88C316.01 380.88 318.42 390.44 315.399 390.5C312.072 390.56 310.306 380.2 310.306 380.2C302.671 379.2 299.399 375.78 297.458 373.12C296.999 372.51 311.658 363.2 311.658 363.2Z" fill="#F7A9A0"/>
<path d="M325.019 378.29C325.422 379.54 325.848 380.81 326.109 382.09C326.371 383.37 326.644 384.66 326.829 385.95C327.071 387.645 327.1 389.359 326.916 391.06C326.836 388.064 326.453 385.081 325.771 382.15C325.477 380.87 325.259 379.58 324.975 378.3C325.019 378.27 325.019 378.27 325.019 378.29Z" fill="#263238"/>
<path d="M319.991 379.16C320.438 380.78 320.95 382.37 321.321 384.01C321.692 385.65 321.878 387.21 322.128 388.86C322.128 388.98 322.063 388.95 322.041 388.86C321.725 387.23 321.321 385.73 320.95 384.1C320.58 382.47 320.351 380.79 319.947 379.21C319.936 379.15 319.98 379.14 319.991 379.16Z" fill="#263238"/>
<path d="M315.497 379.19C316.258 381.658 316.744 384.191 316.948 386.75C316.948 386.87 316.86 386.82 316.839 386.69C316.413 384.17 316.108 382.19 315.432 379.22C315.399 379.17 315.486 379.14 315.497 379.19Z" fill="#263238"/>
<path d="M314.952 363.14C314.952 363.14 299.235 377.39 299.039 377.35C298.843 377.31 280.421 370.12 279.56 366.01C278.698 361.9 292.451 357.12 299.192 358.64C305.932 360.16 314.952 363.14 314.952 363.14Z" fill="#FFC727"/>
<path d="M308.801 362.08C308.168 362.53 303.238 367.26 302.191 368.3C301.144 369.34 296.814 373.59 295.833 374.75C295.833 374.8 295.833 374.87 295.92 374.82C297.109 373.82 301.493 369.58 302.584 368.54C303.674 367.5 308.441 362.73 308.888 362.14C308.921 362.09 308.844 362.05 308.801 362.08Z" fill="#263238"/>
<path d="M291.361 358.94C294.326 358.132 297.48 358.111 300.457 358.88C300.457 358.88 300.457 358.94 300.457 358.94C297.453 358.502 294.391 358.519 291.393 358.99C291.393 358.99 291.328 359 291.361 358.94Z" fill="#263238"/>
<path d="M313.981 364L314.919 363.09V363.17L311.233 362C310 361.62 308.779 361.25 307.535 360.89C305.07 360.15 302.595 359.46 300.086 358.89L299.792 358.81L299.901 358.56C300.926 356.18 301.984 353.83 303.173 351.56C304.342 349.243 305.642 346.984 307.066 344.79C305.837 347.07 304.678 349.377 303.587 351.71C302.496 354.05 301.406 356.39 300.468 358.77L300.271 358.45C302.791 359.06 305.278 359.77 307.732 360.55C308.964 360.95 310.186 361.37 311.396 361.79C312.607 362.21 313.807 362.67 314.995 363.11H315.072L315.006 363.19L313.981 364Z" fill="#263238"/>
<path d="M304.209 349.9C304.547 349.348 304.93 348.82 305.354 348.32C305.77 347.817 306.237 347.352 306.75 346.93C306.44 347.493 306.075 348.029 305.659 348.53C305.441 348.77 305.223 349.02 304.994 349.25C304.764 349.49 304.508 349.707 304.231 349.9H304.209Z" fill="#263238"/>
<path d="M309.084 336.89C309.4 337.49 313.763 341.03 316.959 340.25C318.049 339.99 316.73 334.72 316.73 334.72V334.32V328.61L308.8 325.88L307.655 325.54C307.655 325.54 307.753 327.11 307.906 329.05V329.64C307.895 329.938 307.917 330.236 307.972 330.53C308.037 330.83 307.972 330.97 308.037 331.19C308.081 331.421 308.103 331.655 308.102 331.89C308.289 333.575 308.603 335.245 309.04 336.89H309.084Z" fill="#F7A9A0"/>
<path d="M316.729 334.39C313.424 334.204 310.324 332.853 308.08 330.62V330.53C308.08 330.23 308.08 329.94 308.015 329.64V329.05C307.862 327.11 307.764 325.54 307.764 325.54L308.855 325.88L316.784 328.61V334.31L316.729 334.39Z" fill="#263238"/>
<path d="M323.601 320.46C324.441 330.46 318.006 332.05 315.672 332.22C313.49 332.36 306.248 332.61 304.285 322.75C302.322 312.89 307.175 309.36 312.007 308.75C316.839 308.14 322.837 310.46 323.601 320.46Z" fill="#F7A9A0"/>
<path d="M321.245 318.08C321.002 318.069 320.761 318.036 320.525 317.98C320.26 317.981 320.002 317.9 319.794 317.75C319.741 317.687 319.712 317.609 319.712 317.53C319.712 317.45 319.741 317.373 319.794 317.31C319.912 317.192 320.063 317.105 320.231 317.06C320.398 317.015 320.576 317.015 320.743 317.06C321.096 317.081 321.428 317.224 321.67 317.46C321.73 317.521 321.768 317.598 321.779 317.68C321.789 317.76 321.77 317.841 321.725 317.91C321.682 317.983 321.612 318.039 321.528 318.07C321.447 318.095 321.359 318.095 321.278 318.07L321.245 318.08Z" fill="#263238"/>
<path d="M313.97 319.23C314.214 319.188 314.455 319.132 314.69 319.06C314.961 319.034 315.215 318.925 315.41 318.75C315.466 318.688 315.496 318.61 315.497 318.53C315.497 318.452 315.466 318.378 315.41 318.32C315.282 318.211 315.123 318.138 314.952 318.11C314.784 318.07 314.607 318.07 314.439 318.11C314.094 318.172 313.784 318.346 313.567 318.6C313.522 318.663 313.496 318.735 313.49 318.81C313.489 318.884 313.511 318.957 313.556 319.02C313.6 319.082 313.66 319.133 313.73 319.17C313.809 319.189 313.892 319.189 313.97 319.17V319.23Z" fill="#263238"/>
<path d="M315.781 321C315.781 321 315.781 321 315.781 321.07C315.846 321.73 315.781 322.55 315.137 322.82C315.912 322.71 315.966 321.66 315.781 321Z" fill="#263238"/>
<path d="M315.061 320.33C313.85 320.33 313.905 322.54 315.061 322.56C316.217 322.58 316.075 320.35 315.061 320.33Z" fill="#263238"/>
<path d="M314.581 320.46C314.385 320.6 314.177 320.82 313.916 320.85C313.654 320.88 313.403 320.66 313.196 320.44C313.164 320.648 313.221 320.858 313.356 321.028C313.49 321.198 313.691 321.313 313.916 321.35C314.45 321.35 314.69 321.01 314.788 320.58C314.745 320.52 314.668 320.41 314.581 320.46Z" fill="#263238"/>
<path d="M320.111 320.52C320.128 320.52 320.145 320.526 320.157 320.538C320.169 320.549 320.176 320.564 320.176 320.58C320.176 321.25 320.329 322.06 321.016 322.26C320.176 322.23 320.045 321.18 320.111 320.52Z" fill="#263238"/>
<path d="M320.765 319.78C321.965 319.64 322.161 321.86 321.049 321.99C319.936 322.12 319.751 319.89 320.765 319.78Z" fill="#263238"/>
<path d="M321.267 319.89C321.474 319.99 321.681 320.19 321.91 320.19C322.139 320.19 322.346 319.93 322.499 319.68C322.499 320.11 322.434 320.56 321.997 320.68C321.561 320.8 321.278 320.44 321.114 320.02C321.136 320 321.19 319.84 321.267 319.89Z" fill="#263238"/>
<path d="M319.107 323.67C319.204 324.17 319.273 324.674 319.314 325.18C318.821 325.3 318.302 325.3 317.809 325.18C317.314 325.061 316.862 324.823 316.5 324.49C316.5 324.49 316.5 324.39 316.577 324.41C317.271 324.816 318.091 325.002 318.911 324.94C318.773 324.362 318.668 323.778 318.595 323.19C319.009 323.212 319.419 323.279 319.816 323.39C319.467 321.24 318.725 319.16 318.453 317.01H318.54C319.379 319.224 319.978 321.508 320.329 323.83C320.427 324.07 319.325 323.74 319.107 323.67Z" fill="#263238"/>
<path d="M304.896 323.76C306.99 323.94 307.383 319.56 307.383 319.56C307.383 319.56 316.195 317.93 316.751 311.29C317.962 313.95 320.243 316.081 323.121 317.24C323.121 317.24 322.576 309.96 316.25 308.75C316.25 308.75 308.375 306.37 304.176 312.17C299.977 317.97 303.522 323.64 304.896 323.76Z" fill="#263238"/>
<path d="M316.773 310.8C316.912 311.808 316.811 312.831 316.479 313.8C316.166 314.798 315.627 315.725 314.897 316.52C314.716 316.719 314.523 316.91 314.319 317.09L314.025 317.37L313.687 317.61C313.458 317.76 313.239 317.93 313.01 318.07C312.781 318.21 312.531 318.33 312.291 318.46C312.173 318.53 312.049 318.59 311.92 318.64L311.538 318.8L310.764 319.09C310.229 319.24 309.673 319.37 309.16 319.49C309.662 319.27 310.186 319.11 310.676 318.88L311.396 318.54L311.756 318.36L312.094 318.15L312.77 317.74L313.381 317.27L313.698 317.04L313.981 316.77C314.171 316.599 314.349 316.419 314.516 316.23C315.21 315.475 315.756 314.616 316.13 313.69C316.318 313.224 316.468 312.746 316.577 312.26C316.684 311.779 316.75 311.29 316.773 310.8V310.8Z" fill="#263238"/>
<path d="M306.063 323.39C306.063 323.39 303.707 320.24 302.158 321.01C300.61 321.78 302.344 326.3 304.154 326.96C304.38 327.057 304.625 327.112 304.874 327.12C305.123 327.12 305.371 327.079 305.605 327C305.838 326.917 306.049 326.791 306.226 326.63C306.405 326.471 306.546 326.28 306.641 326.07L306.063 323.39Z" fill="#F7A9A0"/>
<path d="M302.693 322.3C303.273 322.575 303.783 322.959 304.193 323.425C304.602 323.892 304.901 324.431 305.07 325.01C305 324.892 304.903 324.79 304.787 324.71C304.664 324.634 304.527 324.58 304.383 324.55C304.235 324.525 304.084 324.525 303.936 324.55C303.793 324.585 303.66 324.646 303.543 324.73C303.771 324.665 304.014 324.665 304.241 324.73C304.462 324.801 304.655 324.93 304.798 325.1C305.025 325.392 305.222 325.704 305.387 326.03C305.441 326.14 305.648 326.09 305.605 325.97C305.67 324.57 304.438 322.47 302.693 322.3Z" fill="#263238"/>
<path d="M126.517 776.79C124.838 776.16 87.7768 746.54 87.1333 744.63C86.9043 743.9 91.2888 738.69 96.7857 732.54C97.9637 731.22 99.1743 729.85 100.472 728.47C108.652 719.47 117.563 710.2 117.563 710.2L142.408 729.93L124.63 747.69L120.737 751.54C120.737 751.54 129.397 768.71 129.844 770.91C130.291 773.11 128.164 777.43 126.517 776.79Z" fill="#AD6359"/>
<path d="M126.517 776.79C124.838 776.16 87.7768 746.54 87.1333 744.63C86.8389 743.72 93.3938 736.24 100.472 728.47L124.63 747.67L120.737 751.54C120.737 751.54 129.397 768.71 129.844 770.91C130.291 773.11 128.164 777.43 126.517 776.79Z" fill="white"/>
<path d="M126.517 776.79C124.838 776.15 87.7768 746.54 87.1333 744.63C86.9043 743.9 91.2888 738.69 96.7857 732.54L120.704 751.54C120.704 751.54 129.429 768.71 129.844 770.91C130.258 773.11 128.164 777.43 126.517 776.79Z" fill="#37474F"/>
<path d="M127.259 775C121.173 769.88 96.1642 749.84 89.7075 745.22C89.642 745.17 89.6202 745.22 89.7075 745.22C95.6189 750.39 120.835 770.22 127.215 775.05C127.303 775.2 127.39 775.11 127.259 775Z" fill="#263238"/>
<path d="M128.611 767.77C127.932 767.204 127.134 766.772 126.265 766.5C125.397 766.228 124.476 766.123 123.562 766.19C121.923 766.311 120.398 767.001 119.297 768.12C119.297 768.12 119.297 768.22 119.363 768.19C120.644 767.225 122.234 766.669 123.89 766.606C125.547 766.543 127.181 766.976 128.546 767.84H128.611V767.78V767.77Z" fill="#263238"/>
<path d="M122.591 754C120.137 752 116.494 750.49 113.168 751.08C113.048 751.08 113.08 751.27 113.168 751.3C116.337 751.996 119.416 753.001 122.351 754.3C122.39 754.31 122.432 754.31 122.471 754.3C122.513 754.29 122.551 754.269 122.58 754.24C122.591 754.204 122.591 754.166 122.58 754.13C122.591 754.094 122.591 754.056 122.58 754.02L122.591 754Z" fill="#263238"/>
<path d="M123.867 756.29C121.402 754.29 117.759 752.77 114.444 753.4C114.313 753.4 114.356 753.59 114.444 753.61C117.608 754.312 120.682 755.318 123.616 756.61C123.64 756.619 123.666 756.624 123.693 756.624C123.719 756.624 123.745 756.619 123.769 756.61C123.825 756.6 123.875 756.571 123.911 756.53C123.922 756.506 123.928 756.481 123.928 756.455C123.928 756.429 123.922 756.404 123.911 756.38C123.909 756.356 123.902 756.332 123.889 756.311C123.875 756.291 123.857 756.273 123.834 756.26L123.867 756.29Z" fill="#263238"/>
<path d="M125.132 758.48C122.678 756.48 119.024 754.96 115.709 755.56C115.578 755.56 115.622 755.75 115.709 755.78C118.874 756.478 121.949 757.483 124.881 758.78H125.012C125.051 758.77 125.085 758.749 125.11 758.72C125.139 758.689 125.158 758.651 125.165 758.61C125.176 758.574 125.176 758.536 125.165 758.5L125.132 758.48Z" fill="#263238"/>
<path d="M126.397 760.67C123.943 758.67 120.29 757.16 116.974 757.79C116.843 757.79 116.887 757.98 116.974 758.01C120.139 758.707 123.214 759.713 126.146 761.01C126.199 761.028 126.257 761.028 126.31 761.01C126.337 761.007 126.363 760.998 126.386 760.984C126.409 760.97 126.427 760.952 126.441 760.93C126.451 760.908 126.456 760.884 126.456 760.86C126.456 760.836 126.451 760.812 126.441 760.79C126.43 760.738 126.399 760.692 126.354 760.66L126.397 760.67Z" fill="#263238"/>
<path d="M96.4257 741.08C93.6227 738.89 89.8817 742.84 92.6629 745.08C95.4441 747.32 99.2506 743.31 96.4257 741.08Z" fill="white"/>
<path d="M127.684 753.28C124.838 753.79 121.849 753.16 118.959 752.87C118.9 752.857 118.844 752.833 118.795 752.8C118.746 752.761 118.706 752.713 118.675 752.66C118.664 752.604 118.664 752.546 118.675 752.49C118.677 752.433 118.696 752.378 118.73 752.33V752.33V752.25C120.901 750.317 123.586 748.938 126.517 748.25C128.241 747.88 130.727 748.25 131.065 750.17C131.404 752.09 129.353 753 127.684 753.28ZM129.604 751.48C131.709 748.8 127.423 748.76 126.201 749.08C125.385 749.299 124.587 749.57 123.812 749.89C122.242 750.57 120.704 751.33 119.21 752.15C120.606 752.22 122.002 752.39 123.387 752.5C125.078 752.63 128.437 753 129.604 751.48Z" fill="#263238"/>
<path d="M111.248 743.69C112.851 742.36 115.011 743.51 116.112 744.79C117.936 747.013 119.088 749.638 119.45 752.4C119.45 752.4 119.45 752.4 119.45 752.4C119.438 752.457 119.411 752.511 119.373 752.558C119.335 752.604 119.285 752.642 119.228 752.668C119.171 752.694 119.108 752.708 119.045 752.708C118.981 752.709 118.918 752.695 118.861 752.67C116.472 751.27 113.68 750.05 111.804 748.02C110.648 746.92 109.754 745 111.248 743.69ZM115.611 749.95C116.778 750.68 117.999 751.33 119.122 752.08C118.513 750.585 117.821 749.12 117.05 747.69C116.67 746.997 116.24 746.329 115.763 745.69C114.967 744.69 111.651 742.33 111.477 745.62C111.368 747.43 114.214 749.1 115.611 750V749.95Z" fill="#263238"/>
<path d="M170.046 694.89C167.723 707.08 133.149 741.16 129.157 745.07L128.241 745.96L101.89 725.71L102.217 725.34L127.543 697.48L56.0059 694.3L84.0578 676C84.0578 676 86.2391 677.25 90.8199 676.81C106.711 675.31 142.528 672 150.916 672.65C161.735 673.45 172.184 683.69 170.046 694.89Z" fill="#263238"/>
<path d="M136.671 687.09C135.742 687.981 134.871 688.923 134.065 689.91C133.17 690.91 132.254 691.91 131.36 692.83L131.862 691.95C132.44 690.95 132.952 689.95 133.596 688.95C133.596 688.9 133.596 688.84 133.498 688.9C132.8 689.83 132.014 690.72 131.404 691.71C131.12 692.18 130.847 692.65 130.607 693.14C130.466 693.4 130.324 693.66 130.204 693.93C130.132 694.054 130.073 694.185 130.029 694.32C129.615 694.77 129.233 695.23 128.84 695.71C127.99 696.71 127.248 697.85 126.354 698.89C126.354 698.94 126.354 699 126.441 698.95C127.324 697.95 128.284 697.08 129.179 696.12C130.073 695.16 130.945 694.12 131.796 693.12C132.647 692.12 133.432 691.12 134.261 690.12C135.168 689.147 136.006 688.121 136.77 687.05C136.77 687.05 136.77 687.05 136.77 687.05H136.693L136.671 687.09Z" fill="#37474F"/>
<path d="M132.156 740.3C130.662 739.03 129.048 737.85 127.477 736.65C125.907 735.45 124.282 734.28 122.689 733.1C119.504 730.75 116.309 728.38 113.07 726.1C111.292 724.84 109.492 723.58 107.616 722.4C107.608 722.396 107.599 722.394 107.589 722.394C107.579 722.394 107.57 722.396 107.562 722.4C107.555 722.416 107.555 722.434 107.562 722.45C110.594 724.98 113.833 727.29 117.029 729.63C120.224 731.97 123.442 734.33 126.692 736.63C128.47 737.89 130.226 739.19 132.145 740.35C132.145 740.46 132.222 740.35 132.156 740.3Z" fill="#37474F"/>
<path d="M76.0848 639.58C80.0112 646.5 94.0044 665.9 105.086 669.66C111.204 671.73 142.495 676.92 147.164 673.94C152.617 670.45 151.155 654.76 147.273 654.16C135.483 652.32 113.233 654.22 107.9 652.45C105.511 651.66 93.47 642.32 80.3166 634.45C75.365 631.45 73.5763 635.11 76.0848 639.58Z" fill="#AD6359"/>
<path d="M136.017 652.63C136.017 652.63 135.853 676.33 134.632 675.98C133.41 675.63 106.831 672.48 100.145 668.98C93.4591 665.48 82.8906 651.39 76.8483 642.1C70.806 632.81 76.5538 630.84 82.9996 635.53C89.4455 640.22 107.507 651.31 108.674 651.41C109.841 651.51 136.017 652.63 136.017 652.63Z" fill="#455A64"/>
<path d="M131.033 673.36C130.902 670.16 130.826 666.97 130.88 663.77C130.88 662.17 130.978 660.57 131.066 658.98C131.153 657.39 131.425 655.79 131.48 654.2C131.48 654.11 131.644 654.13 131.633 654.2C131.48 655.79 131.567 657.4 131.502 658.99C131.436 660.58 131.393 662.19 131.36 663.79C131.273 666.98 131.185 670.17 131.185 673.36C131.185 673.47 131.044 673.45 131.033 673.36Z" fill="#263238"/>
<path d="M98.28 667.8C91.6161 663 82.389 650.55 76.8484 642.1C72.4858 635.53 74.209 632.6 77.9391 633.16L98.28 667.8Z" fill="#37474F"/>
<path d="M88.813 674.71H134.872V676.6H88.813V674.71Z" fill="#C7C7C7"/>
<path d="M98.6726 674.71L97.0693 676.6H134.861V674.71H98.6726Z" fill="#A6A6A6"/>
<path d="M100.636 676.6H145.528L149.269 648.6H104.377L100.636 676.6Z" fill="#C7C7C7"/>
<path d="M122.22 662.62C122.21 662.947 122.273 663.273 122.404 663.577C122.535 663.881 122.732 664.158 122.983 664.39C123.235 664.625 123.535 664.812 123.867 664.94C124.213 665.07 124.584 665.134 124.958 665.13C125.688 665.122 126.387 664.857 126.91 664.39C127.427 663.922 127.724 663.286 127.739 662.62C127.754 662.278 127.691 661.938 127.553 661.62C127.42 661.318 127.223 661.043 126.975 660.81C126.723 660.578 126.423 660.394 126.092 660.27C125.748 660.135 125.375 660.07 125.001 660.08C124.274 660.082 123.576 660.345 123.057 660.812C122.537 661.279 122.237 661.913 122.22 662.58V662.62Z" fill="white"/>
<path d="M148.898 651.35C150.588 653.75 154.765 656.55 155.344 658.6C155.506 659.101 155.488 659.636 155.291 660.126C155.095 660.617 154.73 661.035 154.253 661.32C154.253 661.32 156.641 662.09 156.86 664.03C156.958 665.03 155.267 666.03 155.267 666.03C155.809 666.24 156.275 666.586 156.609 667.03C156.955 667.46 157.166 667.968 157.219 668.5C157.172 668.957 157.002 669.397 156.724 669.779C156.446 670.161 156.069 670.474 155.627 670.69C155.627 670.69 157.132 672.15 156.718 673.56C155.791 676.44 142.943 678 140.358 673.9C139.136 671.99 142.299 671.76 142.299 671.76C142.299 671.76 137.675 671.08 137.26 668.66C136.846 666.24 140.958 666.17 140.958 666.17C140.958 666.17 136.486 665.48 136.322 662.93C136.159 660.38 140.314 660.86 140.314 660.86C140.314 660.86 137.195 659.4 137.555 657.45C138.166 654.18 145.528 657.66 148.232 656.72L148.898 651.35Z" fill="#AD6359"/>
<path d="M155.387 670.84C155.387 670.84 155.442 670.84 155.387 670.84C151.139 672.371 146.482 672.678 142.038 671.72C141.907 671.72 141.907 671.47 142.038 671.48C146.501 671.841 150.997 671.609 155.387 670.79V670.84Z" fill="#263238"/>
<path d="M155.355 666.06C150.658 667.71 145.472 667.76 140.74 666.2C140.576 666.14 140.489 665.94 140.74 665.99C143.968 667 151.275 666.89 155.355 666.06Z" fill="#263238"/>
<path d="M139.922 660.61C144.505 661.94 149.376 662.208 154.1 661.39C154.166 661.39 154.177 661.47 154.1 661.49C151.602 662.318 148.942 662.659 146.291 662.49C144.034 662.442 141.828 661.86 139.889 660.8C139.802 660.71 139.867 660.58 139.922 660.61Z" fill="#263238"/>
<path d="M93.1756 684.93C93.1756 684.93 41.718 692.1 41.4453 691.8C41.1726 691.5 48.7637 640.95 66.4216 632.86C69.2137 631.57 75.8886 630.96 78.637 633.69C86.5008 641.48 93.8737 684.27 93.1756 684.93Z" fill="#455A64"/>
<path d="M92.783 680.72L42.1216 687.24C42.3615 685.85 42.6669 684.24 43.0377 682.33L92.0305 676C92.325 677.8 92.5758 679.39 92.783 680.72Z" fill="#37474F"/>
<path d="M91.5396 673.53L43.5503 679.71C43.7248 678.88 43.9102 678.03 44.1174 677.15L91.0161 671.15C91.2342 671.93 91.3978 672.74 91.5396 673.53Z" fill="#37474F"/>
<path d="M76.652 642.74C73.7945 642.85 69.9117 638.2 68.6793 634.74C68.6029 634.51 69.4209 632.33 70.2716 629.63C70.7952 627.99 71.3623 626.16 71.6895 624.46L82.7925 629.1C81.6791 631.111 80.8403 633.241 80.2949 635.44C80.2519 635.681 80.23 635.925 80.2294 636.17C80.2405 636.209 80.2405 636.251 80.2294 636.29C80.2294 637.69 79.4114 642.63 76.652 642.74Z" fill="#AD6359"/>
<path d="M82.8907 629.15C81.7774 631.161 80.9385 633.291 80.3931 635.49C80.3438 635.731 80.3219 635.975 80.3277 636.22V636.34C79.9189 636.328 79.513 636.274 79.117 636.18C72.3658 634.85 72.0713 626.82 72.104 624.66L82.8907 629.15Z" fill="#263238"/>
<path d="M72.8566 610.69C70.8061 614.26 70.6753 625.58 73.0856 628.54C76.5976 632.84 83.5015 634.38 87.766 630.3C92.0305 626.22 91.7906 611.55 88.9766 608.75C84.8539 604.63 75.8995 605.42 72.8566 610.69Z" fill="#AD6359"/>
<path d="M83.3379 619.6C83.3379 619.6 83.2725 619.6 83.3379 619.67C83.3379 620.4 83.2725 621.3 82.5417 621.56C83.3925 621.51 83.5124 620.34 83.3379 619.6Z" fill="#263238"/>
<path d="M82.5961 618.88C81.2655 618.79 81.1892 621.23 82.4216 621.31C83.6541 621.39 83.7195 618.92 82.5961 618.88Z" fill="#263238"/>
<path d="M88.1912 619.75C88.1912 619.75 88.2566 619.75 88.2566 619.83C88.2566 620.56 88.2566 621.46 89.0528 621.72C88.1039 621.62 88.0494 620.46 88.1912 619.75Z" fill="#263238"/>
<path d="M88.9657 619C90.2963 618.94 90.3182 621.39 89.0857 621.44C87.8533 621.49 87.8424 619 88.9657 619Z" fill="#263238"/>
<path d="M81.5818 617.71C81.9308 617.62 82.2798 617.52 82.6724 617.4C83.0542 617.338 83.4029 617.162 83.6649 616.9C83.7273 616.804 83.7541 616.691 83.7413 616.58C83.7315 616.463 83.6774 616.354 83.5886 616.27C83.3878 616.122 83.1461 616.029 82.8906 616C82.6462 615.97 82.3974 616.001 82.1707 616.09C81.6745 616.207 81.2433 616.489 80.9601 616.88C80.8996 616.97 80.8693 617.074 80.8728 617.18C80.8845 617.288 80.9258 617.391 80.9928 617.48C81.0637 617.564 81.1578 617.63 81.2655 617.67C81.3758 617.7 81.4933 617.7 81.6036 617.67L81.5818 617.71Z" fill="#263238"/>
<path d="M90.0345 617.78C89.6637 617.71 89.3365 617.6 88.9439 617.5C88.5595 617.447 88.2039 617.283 87.9296 617.03C87.8625 616.932 87.8319 616.816 87.8423 616.7C87.8498 616.588 87.9 616.482 87.9841 616.4C88.1747 616.253 88.405 616.156 88.6507 616.119C88.8963 616.082 89.1483 616.107 89.3801 616.19C89.8767 616.289 90.3181 616.548 90.6235 616.92C90.687 617.013 90.721 617.12 90.7217 617.23C90.7228 617.34 90.6887 617.448 90.6235 617.54C90.5569 617.633 90.4621 617.706 90.3508 617.75C90.2367 617.78 90.1159 617.78 90.0018 617.75L90.0345 617.78Z" fill="#263238"/>
<path d="M82.2581 626.3C82.4108 626.51 82.5417 626.79 82.8362 626.88C83.1344 626.94 83.4432 626.94 83.7414 626.88C83.7414 626.88 83.7414 626.88 83.7414 626.88C83.5873 626.999 83.4038 627.081 83.207 627.12C83.0144 627.169 82.8106 627.169 82.618 627.12C82.4597 627.048 82.3299 626.933 82.2472 626.79C82.161 626.65 82.1265 626.489 82.149 626.33C82.1516 626.32 82.1571 626.31 82.165 626.302C82.173 626.294 82.183 626.289 82.194 626.286C82.2051 626.283 82.2169 626.282 82.2282 626.285C82.2394 626.287 82.2497 626.293 82.2581 626.3V626.3Z" fill="#263238"/>
<path d="M83.3597 624.15C83.5587 624.457 83.8255 624.722 84.1429 624.929C84.4603 625.135 84.8214 625.279 85.2029 625.35C85.5356 625.418 85.8772 625.442 86.2172 625.42H86.588C86.634 625.412 86.6761 625.391 86.708 625.36C86.7397 625.333 86.7624 625.298 86.7735 625.26V625.26V623.63C87.0025 623.75 88.1695 624.27 88.1586 623.96C88.1683 621.331 87.8869 618.707 87.3188 616.13C87.3188 616.05 87.1552 616.06 87.1661 616.13C87.1661 618.56 87.5806 620.98 87.6024 623.44C87.1888 623.249 86.7484 623.111 86.2936 623.03C86.239 623.03 86.2936 625.03 86.2936 625.03C85.7722 625.063 85.249 624.998 84.7557 624.84C84.258 624.69 83.8007 624.444 83.4142 624.12C83.3924 624 83.316 624.09 83.3597 624.15Z" fill="#263238"/>
<path d="M85.9664 625.28C85.5625 625.69 85.0523 625.999 84.4831 626.18C84.167 626.27 83.8285 626.27 83.5124 626.18C82.8362 625.96 82.8689 625.37 83.0434 624.88C83.1393 624.624 83.2674 624.379 83.4251 624.15C84.1121 624.774 85.0061 625.172 85.9664 625.28V625.28Z" fill="#263238"/>
<path d="M84.4831 626.18C84.1687 626.28 83.8268 626.28 83.5124 626.18C82.8362 625.97 82.8689 625.38 83.0434 624.89C83.4052 624.929 83.7427 625.077 84.0032 625.31C84.2637 625.543 84.4325 625.849 84.4831 626.18V626.18Z" fill="#FF9CBD"/>
<path d="M90.6235 612.91C90.2091 611.91 89.7073 610.91 89.0748 610.65C88.4422 610.39 87.9841 611.86 86.4463 611.89C84.4394 611.89 83.556 610.21 80.7639 609.89C76.7829 609.47 74.8416 612.47 74.4816 617.69C74.1544 622.36 71.0679 622.69 71.0679 622.69C71.0679 622.69 69.7045 612.3 73.0747 609C76.4448 605.7 83.7414 604.52 88.4531 608C90.1545 609.28 90.6235 612.91 90.6235 612.91Z" fill="#263238"/>
<path d="M73.8599 620.8C73.8599 620.8 71.8203 616.8 69.8789 617.43C67.9376 618.06 69.0173 623.51 70.9696 624.54C71.2059 624.689 71.4733 624.791 71.7549 624.84C72.0353 624.895 72.3252 624.895 72.6056 624.84C72.8878 624.787 73.1552 624.682 73.3909 624.53C73.6188 624.373 73.8146 624.18 73.9689 623.96L73.8599 620.8Z" fill="#AD6359"/>
<path d="M70.239 619C70.849 619.407 71.3585 619.927 71.7343 620.527C72.1102 621.126 72.3439 621.792 72.4203 622.48C72.3672 622.333 72.2776 622.2 72.1586 622.09C72.0382 621.979 71.8931 621.894 71.7332 621.84C71.5734 621.784 71.4016 621.764 71.2315 621.78C71.0638 621.794 70.9007 621.838 70.7516 621.91C71.0218 621.877 71.2963 621.923 71.5369 622.04C71.7776 622.15 71.9728 622.329 72.0931 622.55C72.3009 622.919 72.4619 623.308 72.573 623.71C72.573 623.84 72.8675 623.81 72.8348 623.71C73.1729 622.07 72.1913 619.47 70.239 619Z" fill="#263238"/>
<path d="M85.2029 606.15C83.6969 605.321 82.0649 604.7 80.3604 604.31C78.4517 603.91 72.3004 603.76 70.708 604.75C69.1156 605.74 68.134 610.97 68.014 611.75C67.8941 612.53 67.7414 617.22 69.4646 618.52C71.1879 619.82 72.2349 611.94 75.4415 609.52C78.648 607.1 85.2029 606.15 85.2029 606.15Z" fill="#A6A6A6"/>
<path opacity="0.1" d="M85.2028 606.15C85.2028 606.15 78.6588 607.15 75.3868 609.54C72.1148 611.93 71.1223 619.77 69.399 618.54C69.0111 618.204 68.7003 617.799 68.4849 617.351C68.2695 616.903 68.1539 616.42 68.1448 615.93C68.9187 612.979 70.4435 610.237 72.5947 607.93C74.776 605.79 78.3534 604.93 82.0181 604.93C83.1152 605.254 84.1806 605.662 85.2028 606.15V606.15Z" fill="black"/>
<path d="M69.4428 623.26C69.8354 621.16 72.813 615.73 75.6269 612.72C78.4408 609.71 85.8791 608.5 86.8935 608.65C89.3147 609.01 89.7401 610.11 90.1655 609.97C90.5908 609.83 88.4204 607.05 87.7769 606.58C86.7882 605.996 85.6708 605.621 84.5049 605.48C83.4142 605.4 76.7939 605.38 74.1327 607.73C71.4714 610.08 67.2287 617 67.6214 618.85C67.7195 619.31 68.3303 619.66 68.4612 620.31C68.6466 621.16 68.723 622.13 68.9302 622.73C69.1374 623.33 69.3992 623.44 69.4428 623.26Z" fill="#A6A6A6"/>
<path d="M69.65 621.14C69.5845 620.98 69.5191 620.83 69.4427 620.68C69.3753 620.504 69.3242 620.324 69.29 620.14C69.2782 619.803 69.227 619.468 69.1373 619.14C69.0144 618.882 68.8608 618.637 68.6793 618.41C68.4522 618.156 68.3254 617.839 68.3193 617.51C68.3193 617.46 68.2539 617.46 68.2539 617.51C68.2854 618.117 68.4884 618.706 68.8429 619.22C68.9376 619.588 68.9996 619.963 69.0283 620.34C69.0836 620.696 69.2635 621.026 69.5409 621.28C69.5409 621.28 69.6718 621.2 69.65 621.14Z" fill="#263238"/>
<path d="M70.6971 618.93C70.492 618.684 70.3026 618.427 70.13 618.16C69.9734 617.89 69.8385 617.609 69.7264 617.32C69.6174 617.04 69.5192 616.75 69.4102 616.46C69.3011 616.17 69.1157 615.8 68.9957 615.46C68.9957 615.41 68.9084 615.46 68.9303 615.46C69.0393 615.82 69.0939 616.19 69.192 616.54C69.2834 616.85 69.3963 617.154 69.5301 617.45C69.6604 617.732 69.8173 618.003 69.9991 618.26C70.1733 618.52 70.399 618.747 70.6644 618.93C70.6644 618.93 70.708 619 70.6971 618.93Z" fill="#263238"/>
<path d="M78.2554 610.28C78.0591 610 77.8628 609.72 77.6447 609.46C77.4265 609.2 77.1648 608.96 76.903 608.73C76.4099 608.249 75.8572 607.823 75.2561 607.46C75.2561 607.46 75.1798 607.46 75.2561 607.46C76.2377 608.46 77.2738 609.34 78.2663 610.3C78.2336 610.36 78.2882 610.32 78.2554 610.28Z" fill="#263238"/>
<path d="M79.8585 608.64C79.6517 608.374 79.414 608.129 79.1496 607.91C78.5811 607.452 77.9593 607.053 77.2955 606.72C77.241 606.72 77.1973 606.72 77.241 606.72C77.7972 607.15 78.3316 607.55 78.8879 608.01C79.1574 608.222 79.409 608.453 79.6404 608.7C79.8804 608.95 80.044 609.23 80.273 609.49C80.1927 609.186 80.0522 608.897 79.8585 608.64V608.64Z" fill="#263238"/>
<path d="M81.8654 608C81.3329 607.225 80.5783 606.599 79.6841 606.19C79.6841 606.19 79.6187 606.19 79.6841 606.25C80.2076 606.615 80.6998 607.016 81.1565 607.45L81.8109 608.13C82.0062 608.388 82.2174 608.635 82.4435 608.87V608.87C82.2925 608.563 82.106 608.271 81.8873 608H81.8654Z" fill="#263238"/>
<path d="M83.3596 607C83.1415 606.8 82.9125 606.61 82.6834 606.42C82.4572 606.223 82.1999 606.057 81.92 605.93C81.92 605.93 81.8545 605.93 81.92 606C82.3562 606.38 82.7707 606.78 83.196 607.17C83.5565 607.564 83.8743 607.99 84.1449 608.44C84.0396 607.893 83.7497 607.389 83.316 607H83.3596Z" fill="#263238"/>
<path d="M85.1374 606.86C84.7273 606.445 84.235 606.106 83.6868 605.86C83.6868 605.86 83.6214 605.86 83.6868 605.86C84.1737 606.165 84.6075 606.536 84.9738 606.96C85.352 607.378 85.6776 607.835 85.9445 608.32V608.32C85.7816 607.771 85.4872 607.262 85.0828 606.83L85.1374 606.86Z" fill="#263238"/>
<path d="M87.2533 608C87.2017 607.884 87.1434 607.77 87.0788 607.66C86.9565 607.44 86.8104 607.233 86.6425 607.04C86.2745 606.672 85.8692 606.337 85.4318 606.04C85.4318 606.04 85.3446 606.04 85.4318 606.1C85.8435 606.409 86.21 606.765 86.5225 607.16C86.6866 607.352 86.8326 607.556 86.9588 607.77L87.1333 608.09C87.1683 608.199 87.2197 608.304 87.286 608.4H87.3514C87.3492 608.262 87.3158 608.126 87.2533 608V608Z" fill="#263238"/>
<path d="M88.6711 608.26C88.5565 608.082 88.429 607.912 88.2894 607.75C88.1596 607.584 88.0175 607.427 87.864 607.28C87.7004 607.13 87.5368 606.98 87.3951 606.83C87.2533 606.68 87.2969 606.83 87.3296 606.83C87.4877 606.986 87.6369 607.15 87.7768 607.32L88.1585 607.8L88.5293 608.29C88.6602 608.46 88.7693 608.64 88.9111 608.79C88.8497 608.607 88.7694 608.429 88.6711 608.26Z" fill="#263238"/>
<path d="M80.7092 638.05C80.7092 640.19 80.5456 645.14 76.9246 644.62C75.4757 644.302 74.1578 643.608 73.1291 642.62C72.0458 641.701 71.0731 640.679 70.2279 639.57C69.2496 638.345 68.378 637.051 67.6212 635.7C67.6212 635.64 67.4904 635.7 67.5231 635.7C68.3193 637.05 68.93 638.45 69.8462 639.7C70.719 640.945 71.7679 642.078 72.9655 643.07C74.0582 644.102 75.471 644.8 77.0119 645.07C77.681 645.132 78.3532 644.983 78.9167 644.646C79.4802 644.31 79.9011 643.806 80.1094 643.22C80.7297 641.536 80.9382 639.747 80.7201 637.98L80.7092 638.05Z" fill="#263238"/>
<path d="M59.8668 643.76C56.3767 661.92 59.7468 675.51 63.1388 677.2C72.2022 681.73 93.9392 672.54 100.08 670.71C102.556 669.98 91.2453 652.59 88.7258 653.66C82.7599 656.18 74.3727 660.47 74.0673 660.44C73.402 660.38 72.6167 655.74 69.1484 642.24C66.3236 631.3 61.2956 636.34 59.8668 643.76Z" fill="#AD6359"/>
<path d="M119.81 645.06C120.431 647.34 114.171 648.27 114.171 648.27C115.21 648.608 116.086 649.27 116.647 650.14C117.552 651.72 115.262 653.72 115.262 653.72C116.259 654.285 117.049 655.11 117.53 656.09C118.228 657.68 116.221 660 116.221 660C116.833 660.978 117.038 662.125 116.8 663.23C116.003 666.16 111.139 667.31 108.26 668.58C105.184 669.93 100.08 670.43 97.7674 671.38L87.7441 654.57C87.7441 654.57 97.4293 645.14 102.948 643.73C106.024 642.88 118.883 641.57 119.81 645.06Z" fill="#AD6359"/>
<path d="M114.095 648.21C110.604 648.197 107.125 648.573 103.733 649.33C103.657 649.33 103.733 649.46 103.733 649.44C107.093 648.77 110.725 648.91 114.095 648.36C114.095 648.36 114.095 648.36 114.095 648.31C114.1 648.301 114.102 648.291 114.102 648.28C114.102 648.27 114.1 648.26 114.095 648.25V648.25V648.21Z" fill="#263238"/>
<path d="M115.109 653.51C114.312 653.548 113.523 653.682 112.764 653.91C111.968 654.1 111.172 654.31 110.332 654.53C108.739 654.96 107.147 655.44 105.555 655.95C105.478 655.95 105.555 656.07 105.555 656.06C107.147 655.62 108.827 655.21 110.419 654.84L112.873 654.31C113.661 654.188 114.432 653.991 115.174 653.72C115.187 653.714 115.199 653.705 115.208 653.695C115.218 653.685 115.225 653.673 115.229 653.66C115.235 653.637 115.235 653.613 115.229 653.59V653.53H115.153L115.109 653.51Z" fill="#263238"/>
<path d="M116.156 660C115.438 660.044 114.734 660.199 114.073 660.46L111.891 661.09C110.43 661.5 108.958 661.91 107.529 662.27V662.33C109.034 661.98 110.55 661.6 112.066 661.26L114.247 660.7C114.937 660.58 115.597 660.35 116.2 660.02V660.02L116.156 660Z" fill="#263238"/>
<path d="M74.0344 660.44C76.5211 659.38 78.9751 658.25 81.4401 657.17L85.072 655.49L86.9152 654.69C87.5015 654.413 88.1062 654.169 88.7257 653.96H88.813V653.91C90.4053 652.45 91.9977 651.05 93.6555 649.63C94.4517 648.9 95.3133 648.24 96.1532 647.57C96.983 646.879 97.869 646.248 98.8035 645.68C97.8116 646.147 96.8663 646.692 95.9786 647.31C95.0952 647.94 94.2336 648.59 93.372 649.31C91.6596 650.64 90.0236 652.08 88.4094 653.51L88.5512 653.44C87.8886 653.662 87.2435 653.926 86.6207 654.23L84.7884 655.07L81.1347 656.81C78.8006 658 76.4012 659.16 74.0344 660.44Z" fill="#263238"/>
<path d="M86.9917 653.26L97.8984 673.73C97.8984 673.73 68.4504 684.73 62.7462 678.73C57.042 672.73 57.2928 652.73 59.9432 641.73C62.5935 630.73 68.4176 636.08 69.7592 642.14C71.1007 648.2 73.4783 659.78 74.0673 659.64C74.6563 659.5 86.9917 653.26 86.9917 653.26Z" fill="#455A64"/>
<path d="M87.4387 654.1C87.3078 653.8 87.1988 653.51 87.0679 653.23V653.16H86.9806C85.3883 653.84 83.7959 654.57 82.2035 655.3C80.6112 656.03 79.0624 656.8 77.5027 657.58C75.9431 658.36 74.4053 659.16 72.8783 660C71.3514 660.84 69.8354 661.68 68.3521 662.58C69.9444 661.93 71.5477 661.22 73.1401 660.49C74.7325 659.76 76.3466 659 77.8518 658.23C79.3569 657.46 80.9602 656.65 82.498 655.84C84.0358 655.03 85.5519 654.18 87.0461 653.29H86.937C87.0818 653.571 87.2495 653.842 87.4387 654.1V654.1Z" fill="#263238"/>
<path d="M70.7407 646.88C70.8989 649.074 71.238 651.253 71.755 653.4C72.0059 654.47 72.2895 655.54 72.6385 656.6C72.9269 657.662 73.3982 658.674 74.0345 659.6C73.8286 659.091 73.6752 658.565 73.5765 658.03L73.2274 656.42C73.0202 655.34 72.7694 654.28 72.5294 653.21C71.9841 651.11 71.4824 649 70.7407 646.88Z" fill="#263238"/>
<path d="M72.0495 647.76C71.9841 648.39 71.9623 649 71.8968 649.61C71.8968 649.92 71.8968 650.22 71.8314 650.52C71.766 650.82 71.7551 651.14 71.7114 651.45C72.0734 650.903 72.2762 650.279 72.3004 649.64C72.3547 649.004 72.2694 648.365 72.0495 647.76Z" fill="#263238"/>
<path d="M58.5471 650.68C58.2289 653.237 58.0578 655.807 58.0344 658.38C57.9817 660.96 58.0873 663.541 58.3507 666.11C58.5707 668.678 59.0788 671.218 59.8668 673.69C60.2806 674.938 60.8478 676.139 61.5573 677.27C62.2471 678.415 63.3167 679.33 64.6112 679.88C63.4204 679.219 62.4712 678.248 61.8845 677.09C61.2625 675.961 60.7831 674.769 60.4557 673.54C60.1191 672.307 59.8534 671.059 59.6595 669.8C59.4305 668.55 59.2669 667.28 59.136 666C58.8633 663.46 58.7434 660.89 58.6452 658.34C58.6452 657.07 58.5689 655.79 58.5689 654.5C58.5689 653.21 58.5471 652 58.5471 650.68Z" fill="#263238"/>
<path d="M57.9035 652.3C57.7856 652.741 57.7597 653.199 57.8272 653.65C57.8923 654.106 58.0674 654.543 58.3398 654.93C58.3364 654.485 58.3 654.04 58.2307 653.6C58.1657 653.158 58.0562 652.723 57.9035 652.3V652.3Z" fill="#263238"/>
<path d="M227.797 740.94C227.099 742.47 194.684 776.36 192.557 776.94C191.761 777.16 186.1 773.11 179.415 768.05C177.964 766.97 176.481 765.86 174.987 764.66C165.236 757.14 155.06 748.93 155.06 748.93L176.688 726.21L195.993 742.57L200.235 746.16C200.235 746.16 218.962 738.27 221.373 737.87C223.783 737.47 228.495 739.4 227.797 740.94Z" fill="#AD6359"/>
<path d="M227.797 740.94C227.099 742.47 194.684 776.36 192.557 776.94C191.576 777.2 183.428 771.18 175.019 764.66L196.036 742.57L200.268 746.16C200.268 746.16 219.006 738.27 221.416 737.87C223.827 737.47 228.495 739.4 227.797 740.94Z" fill="white"/>
<path d="M227.797 740.94C227.098 742.47 194.684 776.36 192.557 776.94C191.761 777.16 186.1 773.11 179.415 768.06L200.246 746.13C200.246 746.13 218.973 738.24 221.383 737.84C223.794 737.44 228.495 739.4 227.797 740.94Z" fill="#37474F"/>
<path d="M225.855 740.21C220.271 745.77 198.316 768.67 193.244 774.56C193.244 774.56 193.244 774.63 193.244 774.56C198.916 769.16 220.675 746.1 225.964 740.27C226.063 740.21 225.964 740.11 225.855 740.21Z" fill="#263238"/>
<path d="M217.992 739C217.363 739.615 216.883 740.344 216.583 741.14C216.282 741.936 216.167 742.781 216.246 743.62C216.371 745.128 217.12 746.534 218.341 747.55C218.341 747.55 218.439 747.55 218.406 747.47C217.359 746.295 216.761 744.837 216.705 743.32C216.64 741.803 217.114 740.308 218.057 739.06C218.057 739.06 217.992 738.93 217.992 739Z" fill="#263238"/>
<path d="M202.962 744.44C200.781 746.68 199.112 750.03 199.767 753.07C199.767 753.19 199.985 753.15 200.007 753.07C200.771 750.172 201.868 747.356 203.279 744.67C203.289 744.648 203.295 744.624 203.295 744.6C203.295 744.576 203.289 744.552 203.279 744.53C203.276 744.504 203.267 744.478 203.252 744.456C203.237 744.433 203.216 744.414 203.191 744.4C203.142 744.386 203.088 744.386 203.039 744.4C202.986 744.411 202.939 744.439 202.908 744.48L202.962 744.44Z" fill="#263238"/>
<path d="M205.384 743.28C203.202 745.53 201.533 748.87 202.199 751.92C202.199 752.03 202.406 752 202.428 751.92C203.189 749.018 204.286 746.199 205.7 743.51C205.716 743.468 205.716 743.422 205.7 743.38C205.685 743.338 205.659 743.3 205.623 743.27C205.578 743.256 205.528 743.256 205.482 743.27C205.44 743.256 205.393 743.256 205.351 743.27L205.384 743.28Z" fill="#263238"/>
<path d="M207.816 742.13C205.634 744.37 203.955 747.72 204.631 750.76C204.631 750.88 204.827 750.84 204.86 750.76C205.613 747.856 206.711 745.036 208.132 742.35C208.143 742.33 208.148 742.307 208.148 742.285C208.148 742.262 208.143 742.24 208.132 742.22C208.124 742.173 208.097 742.13 208.056 742.1C208.009 742.09 207.96 742.09 207.914 742.1C207.865 742.108 207.819 742.128 207.783 742.16L207.816 742.13Z" fill="#263238"/>
<path d="M210.237 741C208.056 743.24 206.376 746.58 207.052 749.62C207.052 749.74 207.259 749.71 207.292 749.62C208.052 746.721 209.149 743.905 210.564 741.22C210.58 741.175 210.58 741.126 210.564 741.08C210.55 741.049 210.527 741.022 210.499 741C210.453 740.986 210.403 740.986 210.357 741C210.306 741.009 210.26 741.034 210.226 741.07L210.237 741Z" fill="#263238"/>
<path d="M188.751 768.39C186.319 770.95 190.649 774.39 193.114 771.86C195.578 769.33 191.194 765.83 188.751 768.39Z" fill="white"/>
<path d="M202.155 739.77C202.711 742.38 202.013 745.13 201.686 747.77C201.673 747.83 201.643 747.885 201.599 747.93C201.562 747.974 201.513 748.009 201.457 748.03C201.396 748.044 201.332 748.044 201.272 748.03C201.211 748.045 201.147 748.045 201.086 748.03V748.03C198.968 746.039 197.463 743.568 196.724 740.87C196.331 739.29 196.724 737.02 198.839 736.71C200.955 736.4 201.839 738.24 202.155 739.77ZM200.203 738C197.291 736 197.225 740 197.574 741.1C197.811 741.851 198.103 742.586 198.447 743.3C199.187 744.747 200.006 746.159 200.901 747.53C200.977 746.24 201.163 744.98 201.293 743.69C201.446 742.15 201.817 739.07 200.203 738.01V738Z" fill="#263238"/>
<path d="M191.674 754.83C190.223 753.36 191.499 751.37 192.895 750.38C195.331 748.73 198.197 747.695 201.206 747.38C201.27 747.39 201.33 747.414 201.381 747.45C201.432 747.484 201.473 747.528 201.501 747.58C201.517 747.636 201.517 747.694 201.501 747.75C201.516 747.806 201.516 747.864 201.501 747.92C199.963 750.11 198.632 752.66 196.407 754.37C195.229 755.38 193.048 756.19 191.674 754.83ZM198.523 750.83C199.319 749.77 200.028 748.64 200.857 747.63C199.232 748.18 197.585 748.81 196.069 749.5C195.315 749.853 194.586 750.25 193.888 750.69C192.797 751.38 190.191 754.45 193.801 754.62C195.72 754.68 197.553 752.08 198.48 750.8L198.523 750.83Z" fill="#263238"/>
<path d="M195.088 739L172.511 764.58L102.588 715.91L95.837 711.21C95.837 711.21 93.8193 712.35 90.7872 713.73C86.5772 715.66 80.4259 718.06 75.0598 718.57C66.0618 719.44 52.5812 718.78 45.47 709.25C39.4823 701.25 41.9472 691.14 41.9472 691.14L51.9595 687.66C51.9595 687.66 76.0196 670.81 91.0926 670.84C97.473 670.84 106.613 675.67 115.011 680.65C123.409 685.63 195.088 739 195.088 739Z" fill="#263238"/>
<path d="M95.8368 711.21C95.8368 711.21 93.8191 712.34 90.787 713.73C85.8245 707.73 75.2123 696.92 74.896 696.53L95.8368 711.21Z" fill="#37474F"/>
<path d="M60.7391 682C59.3104 682.83 57.9252 683.72 56.5183 684.57C55.1113 685.42 53.6934 686.2 52.3628 687.12C51.0322 688.04 49.7343 689.12 48.4582 690.12C47.8402 690.613 47.2294 691.113 46.6259 691.62C46.0014 692.113 45.4181 692.647 44.8809 693.22C44.8809 693.28 44.8809 693.34 44.979 693.31C45.6463 692.908 46.2873 692.471 46.8986 692L48.9163 690.54C50.2142 689.61 51.523 688.72 52.8209 687.79C54.1188 686.86 55.2967 685.84 56.5728 684.91C57.8489 683.98 59.3649 682.99 60.7719 682.04C60.7937 682.07 60.7719 682 60.7391 682Z" fill="#37474F"/>
<path d="M190.081 737.83C188.631 739.14 187.278 740.57 185.926 741.97C184.573 743.37 183.199 744.78 181.847 746.19C179.153 749.03 176.393 751.84 173.787 754.72C172.325 756.29 170.886 757.88 169.522 759.52C169.457 759.59 169.588 759.69 169.653 759.62C172.543 756.95 175.194 754.09 177.888 751.25C180.582 748.41 183.265 745.57 185.926 742.7C187.366 741.13 188.86 739.57 190.201 737.91C190.299 737.85 190.179 737.77 190.081 737.83Z" fill="#37474F"/>
<path d="M135.243 738.58C131.785 735.84 123.867 730.47 120.268 727.9C116.669 725.33 113.091 722.78 109.448 720.28C108.358 719.54 107.343 718.86 106.253 718.16C105.162 717.46 104.071 716.8 103.068 716.07C103.003 716.07 102.948 716.07 103.003 716.16C103.941 716.84 104.835 717.62 105.762 718.3C106.689 718.98 107.529 719.65 108.412 720.3C110.157 721.59 111.924 722.86 113.691 724.14C117.247 726.72 120.857 729.27 124.489 731.78C126.55 733.2 132.92 737.4 135.035 738.78C135.243 738.85 135.406 738.67 135.243 738.58Z" fill="#37474F"/>
<path d="M159.161 712.17C155.976 709.52 148.636 704.39 145.277 701.94C141.918 699.49 138.493 696.94 135.068 694.46L124.903 687.1C121.631 684.72 118.359 682.3 114.858 680.17C112.939 679.01 110.975 677.92 108.958 676.93C106.998 675.913 104.947 675.05 102.828 674.35H102.763C104.497 675.35 106.318 676.15 108.063 677.1C109.808 678.05 111.477 679 113.146 680.02C116.614 682.13 119.864 684.51 123.136 686.87C129.931 691.76 136.682 696.67 143.543 701.49C147.371 704.19 154.995 709.76 158.987 712.27C159.117 712.43 159.237 712.26 159.161 712.17Z" fill="#37474F"/>
</g>
<defs>
<clipPath id="clip0_377_4762">
<rect width="409" height="812" fill="white"/>
</clipPath>
</defs>
</svg>
