<svg width="409" height="812" viewBox="0 0 409 812" fill="none" xmlns="http://www.w3.org/2000/svg">
<g clip-path="url(#clip0_236:6183)">
<path d="M288.678 77.5901C355.765 81.5001 422.612 68.9201 444.992 -28.7499C454.655 -70.1199 409.469 -57.5699 362.189 -51.1399C314.908 -44.7099 274.848 -41.8999 248.672 -60.1499C222.496 -78.3999 75.4852 -57.1799 29.7753 -46.7599C-15.9345 -36.3399 -5.1042 57.4401 43.2014 72.6201C91.5071 87.8001 106.34 57.3901 154.558 51.8501C202.777 46.3101 232.945 74.3401 288.678 77.5901Z" fill="#42A57A"/>
<path d="M76.9139 148C92.9794 97.4 62.7898 49 19.1958 27.21C8.16919 21.71 -10.7103 16 -24.5835 47C-38.4568 78 -5.30054 112.16 -28.4663 133.8C-51.6321 155.44 -56.5619 196.63 -52.8427 218.47C-49.1235 240.31 -56.3001 295.83 -90.7979 363.69C-125.296 431.55 -127.095 507 -60.4119 535.74C6.27143 564.48 75.4851 465 59.256 390.15C47.4877 335.85 20.0575 316.92 28.0739 259.55C36.0903 202.18 60.8484 198.66 76.9139 148Z" fill="#74C69D"/>
<path d="M31.6292 464.31C2.72654 431.09 -72.8239 412.67 -115.72 472.59L-124.194 599.66L-112.993 723.25C-97.7893 755.48 -65.4292 819.89 -57.6309 819.67C-47.8913 819.39 102.479 789.45 110.092 783.47C117.705 777.49 129.091 714.31 94.6588 704C60.2265 693.69 41.1071 652.34 57.6525 586.38C70.7078 534.3 56.3655 492.77 31.6292 464.31Z" fill="#D8F3DC"/>
<path d="M158.288 715.92C101.148 715.02 -1.65786 739.86 -20.5809 837.86C-28.7609 879.38 16.9816 866.03 65.1346 858.79C113.287 851.55 154.231 848.02 181.836 865.79C209.441 883.56 359.004 859.79 405.423 848.57C451.841 837.35 436.823 743.81 386.739 729.49C336.656 715.17 339.252 743.55 290.106 749.93C240.961 756.31 235.769 717.15 158.288 715.92Z" fill="#52B788"/>
<path d="M377.676 848.67C385.463 861.73 386.718 864.96 371.034 854.16C369.223 852.91 372.299 851.66 377.676 848.67C364.457 826.5 332.435 776 332.435 717.67C332.435 630.3 353.496 642.54 366.169 563.32C377.272 493.93 338.336 471.61 338.336 404.15C338.336 307.8 404.681 247.07 469.837 285.76C534.994 324.45 533.598 347.92 495.446 428.62C457.295 509.32 447.13 576.49 449.638 603.28C452.147 630.07 445.09 679.89 420.746 705C396.403 730.11 427.748 773.44 412.206 810.43C402.456 833.63 386.772 843.62 377.676 848.67Z" fill="#74C69D"/>
<path d="M488.619 76.8699C495.893 149.23 358.895 261.73 496.515 286.78C629.882 309.43 423.113 410.78 362.854 324.52C308.004 246 367.555 220.31 356.593 170.85C345.436 120.67 298.428 128.12 298.526 77.0599C298.624 25.9999 343.015 -17.2601 395.596 -36.0701C448.177 -54.8801 481.366 4.50994 488.619 76.8699Z" fill="#B7E4C7"/>
<path d="M378.156 534.58C376.618 535.02 332.817 534.36 331.159 533.36C330.537 532.98 330.265 527.13 330.167 520.05V515.34C330.167 504.92 330.265 495.34 330.265 495.34L359.571 496.04L358.655 515.69L358.437 520.4C358.437 520.4 375.08 527.54 376.771 528.8C378.461 530.06 379.694 534.13 378.156 534.58Z" fill="#F7A9A0"/>
<path d="M378.156 534.58C376.618 535.02 332.817 534.35 331.159 533.36C330.396 532.9 330.167 524.36 330.123 515.36L358.611 515.72L358.393 520.43C358.393 520.43 375.037 527.57 376.727 528.83C378.418 530.09 379.694 534.13 378.156 534.58Z" fill="white"/>
<path d="M378.156 534.58C376.618 535.02 332.817 534.36 331.159 533.36C330.537 532.98 330.265 527.13 330.167 520.05L358.404 520.41C358.404 520.41 375.047 527.55 376.727 528.81C378.407 530.07 379.694 534.13 378.156 534.58Z" fill="#A6A6A6"/>
<path opacity="0.1" d="M352.678 534.48C342.033 534.24 331.955 533.82 331.17 533.38C330.385 532.94 330.276 527.15 330.177 520.07L335.947 520.14L352.678 534.48Z" fill="black"/>
<path d="M377.556 533C370.216 532.72 340.593 532.24 333.308 532.48C333.253 532.48 333.253 532.48 333.308 532.48C340.572 532.9 370.205 533.14 377.556 533.07C377.752 533.07 377.752 533 377.556 533Z" fill="#263238"/>
<path d="M373.946 527.32C373.131 527.289 372.317 527.413 371.556 527.685C370.796 527.957 370.106 528.371 369.529 528.9C368.482 529.841 367.872 531.117 367.827 532.46C367.827 532.46 367.904 532.46 367.915 532.46C368.187 531.129 368.923 529.915 370.013 529C371.102 528.086 372.487 527.521 373.957 527.39V527.39L373.946 527.32Z" fill="#263238"/>
<path d="M361.24 521.12C358.306 521.03 354.881 521.93 353.005 524.12C352.929 524.21 353.071 524.3 353.158 524.26C355.75 523.064 358.474 522.125 361.283 521.46C361.307 521.458 361.329 521.451 361.35 521.441C361.371 521.431 361.389 521.417 361.403 521.4C361.419 521.361 361.419 521.319 361.403 521.28C361.398 521.237 361.374 521.198 361.338 521.17C361.296 521.154 361.249 521.154 361.207 521.17L361.24 521.12Z" fill="#263238"/>
<path d="M363.508 522C360.563 521.91 357.15 522.81 355.274 525C355.197 525.09 355.328 525.18 355.416 525.14C358.008 523.945 360.732 523.006 363.541 522.34C363.588 522.335 363.631 522.314 363.661 522.28C363.677 522.242 363.677 522.199 363.661 522.16C363.655 522.117 363.632 522.078 363.596 522.05C363.553 522.036 363.507 522.036 363.465 522.05L363.508 522Z" fill="#263238"/>
<path d="M365.755 522.81C362.821 522.72 359.397 523.62 357.521 525.81C357.444 525.9 357.586 525.99 357.673 525.95C360.264 524.751 362.988 523.812 365.799 523.15H365.864V523.09C365.87 523.067 365.87 523.043 365.864 523.02C365.868 523 365.868 522.98 365.864 522.96H365.799L365.755 522.81Z" fill="#263238"/>
<path d="M368.013 523.65C365.068 523.57 361.654 524.47 359.778 526.65C359.702 526.74 359.833 526.83 359.92 526.79C362.511 525.591 365.235 524.653 368.045 523.99C368.09 523.98 368.129 523.955 368.154 523.92C368.169 523.881 368.169 523.839 368.154 523.8C368.151 523.759 368.131 523.72 368.1 523.69C368.061 523.678 368.019 523.678 367.98 523.69L368.013 523.65Z" fill="#263238"/>
<path d="M335.304 526.07C332.032 526.07 331.933 530.7 335.227 530.77C338.521 530.84 338.597 526.11 335.304 526.07Z" fill="#263238"/>
<path d="M364.555 514C363.116 512.85 361.196 513.92 360.193 515.09C358.631 517.112 357.676 519.474 357.422 521.94C357.422 521.951 357.424 521.962 357.429 521.973C357.435 521.983 357.442 521.992 357.452 521.998C357.461 522.005 357.473 522.01 357.485 522.012C357.497 522.014 357.509 522.013 357.521 522.01C357.529 522.061 357.552 522.109 357.586 522.15C357.62 522.193 357.665 522.227 357.717 522.25C357.771 522.262 357.827 522.262 357.881 522.25C357.934 522.262 357.99 522.262 358.044 522.25C360.171 520.96 362.603 519.82 364.217 517.97C365.188 516.84 365.941 515.07 364.555 514ZM360.836 519.68C359.811 520.34 358.764 520.95 357.761 521.68C358.261 520.32 358.84 518.985 359.495 517.68C359.812 517.058 360.177 516.456 360.585 515.88C361.24 514.99 364.195 512.79 364.414 515.72C364.544 517.29 362.047 518.87 360.825 519.65L360.836 519.68Z" fill="#263238"/>
<path d="M350.104 522.8C352.656 523.2 355.306 522.57 357.826 522.25C357.882 522.238 357.935 522.214 357.979 522.18C358.021 522.147 358.054 522.106 358.077 522.06C358.089 522.011 358.089 521.959 358.077 521.91C358.09 521.861 358.09 521.809 358.077 521.76C358.083 521.751 358.086 521.741 358.086 521.73C358.086 521.719 358.083 521.709 358.077 521.7V521.7C356.097 520.012 353.667 518.832 351.031 518.28C349.482 517.98 347.29 518.28 347.039 520.08C346.788 521.88 348.653 522.58 350.104 522.8ZM348.359 521.26C346.418 518.92 350.202 518.79 351.336 519.05C352.079 519.225 352.808 519.446 353.518 519.71C354.957 520.25 356.299 520.97 357.684 521.63C356.441 521.72 355.208 521.9 353.965 522.03C352.449 522.17 349.471 522.53 348.392 521.26H348.359Z" fill="#263238"/>
<path d="M359.778 513.64H327.691C327.691 513.64 333.744 451 333.471 449.8C333.155 448.26 331.29 441.31 328.738 432.22C327.942 429.38 327.091 426.33 326.208 423.17C323.808 414.62 321.158 405.27 318.878 397.17C315.432 384.99 312.738 375.53 312.738 375.53H339.928C339.928 375.53 343.102 384.74 347.094 396.69C353.638 416.17 362.298 442.99 363.159 449.49C364.566 460 359.778 513.64 359.778 513.64Z" fill="#455A64"/>
<path d="M339.524 445.6C338.434 441.35 336.907 437.17 335.533 433C332.748 424.52 329.948 416.043 327.135 407.57C325.738 403.33 324.328 399.093 322.903 394.86L320.721 388.45C320.002 386.31 319.194 384.3 318.54 382.19C318.278 381.33 318.136 381.81 318.475 382.89C319.151 385.09 319.816 387.28 320.514 389.47C321.896 393.81 323.284 398.143 324.681 402.47C327.465 411.097 330.272 419.71 333.1 428.31C334.511 432.63 335.929 436.947 337.354 441.26C338.071 443.312 338.65 445.403 339.088 447.52C339.464 449.736 339.559 451.984 339.372 454.22C339.055 458.72 338.499 463.22 338.041 467.7L336.678 481.21C335.773 490.21 335.282 493.05 334.409 502C334.3 503.14 334.191 504.27 334.093 505.41C334.093 505.79 334.682 505.77 334.726 505.41C335.816 496.55 336.165 493.74 337.081 484.87L339.786 458.42C340.004 456.21 340.266 453.99 340.266 451.76C340.275 449.687 340.027 447.621 339.524 445.6V445.6Z" fill="#263238"/>
<path d="M336.852 375.5C334.965 388.89 331.399 414 328.749 432.22C322.608 410.14 312.749 375.5 312.749 375.5H336.852Z" fill="#263238"/>
<path d="M345.741 534.7C344.214 535.18 300.424 535.7 298.734 534.75C298.101 534.39 297.643 528.55 297.294 521.47C297.218 519.94 297.152 518.37 297.109 516.76C296.738 506.35 296.563 496.76 296.563 496.76L325.88 496.67L325.597 516.34L325.531 521.05C325.531 521.05 342.393 527.73 344.073 528.95C345.752 530.17 347.225 534.21 345.741 534.7Z" fill="#F7A9A0"/>
<path d="M345.741 534.7C344.214 535.18 300.424 535.7 298.734 534.75C297.959 534.31 297.447 525.75 297.119 516.75L325.608 516.34L325.542 521.05C325.542 521.05 342.404 527.73 344.083 528.95C345.763 530.17 347.225 534.21 345.741 534.7Z" fill="white"/>
<path d="M345.741 534.7C344.214 535.18 300.424 535.7 298.734 534.75C298.101 534.39 297.643 528.55 297.294 521.47L325.531 521.07C325.531 521.07 342.393 527.75 344.073 528.97C345.752 530.19 347.225 534.21 345.741 534.7Z" fill="#A6A6A6"/>
<path d="M345.054 533.1C337.714 533.02 308.08 533.34 300.817 533.76C300.751 533.76 300.751 533.76 300.817 533.76C308.091 533.99 337.714 533.44 345.054 533.15C345.207 533.2 345.207 533.1 345.054 533.1Z" fill="#263238"/>
<path d="M341.259 527.55C340.444 527.54 339.635 527.685 338.884 527.976C338.134 528.267 337.457 528.697 336.896 529.24C335.882 530.217 335.313 531.511 335.304 532.86C335.304 532.86 335.391 532.86 335.402 532.86C335.633 531.525 336.33 530.295 337.387 529.354C338.445 528.413 339.808 527.811 341.27 527.64C341.324 527.63 341.324 527.55 341.259 527.55Z" fill="#263238"/>
<path d="M328.367 521.7C325.422 521.7 322.03 522.7 320.242 524.91C320.165 525 320.307 525.08 320.394 525.04C322.945 523.779 325.636 522.773 328.422 522.04H328.487V521.98C328.492 521.957 328.492 521.933 328.487 521.91C328.491 521.89 328.491 521.87 328.487 521.85H328.422L328.367 521.7Z" fill="#263238"/>
<path d="M330.647 522.48C327.702 522.48 324.31 523.48 322.521 525.69C322.445 525.78 322.587 525.87 322.674 525.83C325.229 524.57 327.924 523.564 330.712 522.83C330.75 522.813 330.781 522.785 330.799 522.75C330.812 522.714 330.812 522.676 330.799 522.64C330.794 522.602 330.775 522.567 330.745 522.54C330.709 522.53 330.671 522.53 330.636 522.54L330.647 522.48Z" fill="#263238"/>
<path d="M332.926 523.24C329.981 523.24 326.589 524.24 324.801 526.45C324.724 526.54 324.866 526.62 324.953 526.58C327.508 525.32 330.203 524.314 332.992 523.58C333.03 523.564 333.061 523.535 333.079 523.5C333.092 523.465 333.092 523.426 333.079 523.39C333.073 523.352 333.054 523.317 333.024 523.29C332.989 523.281 332.951 523.281 332.915 523.29L332.926 523.24Z" fill="#263238"/>
<path d="M335.195 524.06C332.261 524.06 328.858 525.06 327.069 527.27C327.004 527.36 327.135 527.45 327.222 527.41C329.776 526.147 332.471 525.142 335.26 524.41C335.298 524.393 335.329 524.365 335.347 524.33C335.361 524.294 335.361 524.256 335.347 524.22C335.341 524.182 335.322 524.148 335.293 524.12C335.257 524.11 335.219 524.11 335.184 524.12L335.195 524.06Z" fill="#263238"/>
<path d="M302.584 527.35C299.312 527.4 299.366 532.1 302.671 532.05C305.976 532 305.888 527.3 302.584 527.35Z" fill="#263238"/>
<path d="M331.443 514.47C329.938 513.36 328.083 514.47 327.178 515.67C325.679 517.729 324.792 520.111 324.604 522.58H324.67C324.682 522.632 324.708 522.68 324.746 522.72C324.782 522.759 324.826 522.79 324.877 522.81C324.928 522.834 324.984 522.846 325.041 522.846C325.097 522.846 325.153 522.834 325.204 522.81C327.276 521.49 329.676 520.25 331.236 518.36C332.173 517.29 332.861 515.52 331.443 514.47ZM327.92 520.24C326.916 520.9 325.891 521.56 324.91 522.24C325.369 520.883 325.904 519.548 326.513 518.24C326.828 517.607 327.193 516.996 327.604 516.41C328.236 515.51 331.083 513.22 331.421 516.15C331.639 517.76 329.163 519.38 327.964 520.15L327.92 520.24Z" fill="#263238"/>
<path d="M339.066 375.5C339.066 375.5 338.434 387.4 335.456 396.88C335.216 397.66 334.955 398.43 334.682 399.17C331.95 400.185 329.325 401.427 326.84 402.88C326.84 402.88 326.535 412.48 326.208 423.18C325.858 435.18 327.876 448.49 327.963 451.32C328.225 461.9 326.873 513.53 326.873 513.53L294.785 513.65C294.785 513.65 300.239 455.23 300.239 451.35C300.184 445.11 302.573 401.75 302.169 400.75C296.999 388.37 303.827 375.51 303.827 375.51L339.066 375.5Z" fill="#455A64"/>
<path d="M336.023 398.46C332.832 399.687 329.763 401.166 326.851 402.88C326.837 402.897 326.829 402.918 326.829 402.94C326.829 402.962 326.837 402.983 326.851 403H326.916C330.014 401.62 333.177 400.29 336.187 398.76C336.213 398.749 336.235 398.734 336.254 398.715C336.273 398.696 336.288 398.674 336.297 398.649C336.306 398.625 336.31 398.599 336.308 398.573C336.306 398.548 336.298 398.523 336.285 398.5C336.259 398.454 336.216 398.42 336.163 398.403C336.11 398.386 336.052 398.389 336.002 398.41L336.023 398.46Z" fill="#263238"/>
<path d="M331.192 394.46C331.29 393.14 331.399 391.77 331.53 390.46C331.824 387.39 332.173 384.32 332.752 381.29C332.752 381.05 333.166 381.14 333.144 381.37C332.926 383.75 332.621 386.13 332.381 388.51C332.141 390.89 331.824 393.26 331.781 395.63C331.781 396.34 331.781 397.55 332.773 397.75C334.06 398.02 334.66 396.47 334.955 395.62C335.687 393.504 336.227 391.337 336.569 389.14C336.994 386.64 337.223 384.14 337.474 381.59C337.474 381.5 337.649 381.52 337.649 381.59C337.649 386.59 337.583 391.8 335.555 396.52C335.411 397.009 335.125 397.454 334.727 397.806C334.33 398.158 333.835 398.405 333.297 398.52V398.52C333.302 398.55 333.302 398.58 333.297 398.61C333.278 398.752 333.245 398.893 333.199 399.03C333.199 399.17 333.199 399.27 333.122 399.38C333.046 399.49 333.024 399.87 332.959 400.11C332.955 400.133 332.947 400.156 332.934 400.177C332.921 400.197 332.903 400.215 332.882 400.23C332.837 400.247 332.786 400.247 332.741 400.23C332.715 400.227 332.69 400.219 332.668 400.207C332.645 400.195 332.625 400.179 332.61 400.16C332.592 400.118 332.592 400.072 332.61 400.03C332.575 400.019 332.545 399.999 332.524 399.972C332.502 399.946 332.49 399.913 332.49 399.88C332.507 399.391 332.626 398.909 332.839 398.46C332.525 398.402 332.231 398.273 331.985 398.084C331.74 397.895 331.549 397.653 331.432 397.38C331.122 396.44 331.059 395.446 331.246 394.48L331.192 394.46Z" fill="#263238"/>
<path d="M305.387 400.74C305.051 398.674 304.585 396.627 303.991 394.61C302.813 390.04 303.598 383.82 304.885 379.36C304.885 379.24 304.7 379.2 304.667 379.36C303.211 383.656 302.63 388.161 302.954 392.65C303.194 394.55 304.863 400.32 304.809 402.38C304.7 406.44 305.059 441.07 304.809 455.21C304.612 464.47 302.518 495.61 302.202 504.88C302.202 504.97 302.355 504.96 302.355 504.88C303.533 488.35 305.059 471.44 305.299 455.24C305.463 439.44 305.67 403 305.387 400.74Z" fill="#263238"/>
<path d="M321.223 380.39C321.081 381.81 321.027 383.23 320.787 384.65C320.653 385.947 320.041 387.164 319.053 388.1C318.02 388.971 316.786 389.617 315.443 389.99C312.483 390.434 309.472 390.518 306.488 390.24C306.03 390.18 306.074 390.5 306.946 390.68C308.907 390.913 310.881 391.046 312.858 391.08C313.826 391.117 314.795 391.053 315.748 390.89C317.33 390.621 318.789 389.925 319.936 388.89C320.98 387.825 321.589 386.461 321.659 385.03C321.763 383.485 321.697 381.934 321.463 380.4C321.441 380.26 321.223 380.26 321.223 380.39Z" fill="#263238"/>
<path d="M322.325 341.88C322.325 341.896 322.332 341.911 322.344 341.922C322.356 341.934 322.373 341.94 322.39 341.94C322.407 341.94 322.424 341.934 322.436 341.922C322.449 341.911 322.455 341.896 322.455 341.88C322.805 338.26 326.818 336.05 326.96 332.34C326.965 330.703 326.466 329.098 325.52 327.71C324.882 326.82 324.183 325.968 323.426 325.16L323.132 324.74C322.494 323.867 321.943 322.943 321.485 321.98C321.025 320.857 320.782 319.669 320.765 318.47C320.656 316.18 320.765 313.84 319.107 311.96C317.755 310.38 316.315 308.43 313.338 307.48C308.702 306.03 303.303 307.94 299.911 311.48C299.315 312.107 298.829 312.815 298.472 313.58C297.563 313.761 296.726 314.164 296.048 314.747C295.37 315.33 294.877 316.071 294.622 316.89C293.716 319.46 295.418 323.01 295.167 324.3C294.798 325.399 294.25 326.441 293.542 327.39C292.943 328.236 292.414 329.122 291.96 330.04C291.403 331.327 291.274 332.736 291.59 334.09C291.801 335.329 292.336 336.502 293.149 337.51C293.987 338.413 295.082 339.085 296.312 339.45L297.196 339.73C298.21 340.31 299.312 340.73 300.271 341.43C301.323 342.171 302.044 343.237 302.3 344.43C302.573 345.52 302.605 346.65 302.802 347.74C302.955 348.769 303.326 349.761 303.892 350.66C305.089 352.414 306.883 353.756 308.997 354.48C311.462 355.291 314.11 355.518 316.697 355.14C317.848 355.065 318.969 354.772 319.99 354.28C321.011 353.787 321.91 353.106 322.63 352.28C323.237 351.508 323.659 350.626 323.867 349.694C324.076 348.761 324.067 347.799 323.841 346.87C323.457 345.776 322.961 344.717 322.357 343.71C321.804 342.686 321.62 341.526 321.834 340.4C322.597 336.68 326.72 334 325.946 329.93C325.716 328.899 325.296 327.911 324.702 327.01C325.829 328.369 326.521 329.99 326.698 331.69C326.729 333.52 326.087 335.305 324.877 336.76C323.775 338.3 322.412 339.95 322.325 341.88ZM296.432 339.35C294.743 338.838 293.344 337.734 292.539 336.28C291.651 334.643 291.379 332.783 291.764 330.99C292.008 330.152 292.375 329.348 292.855 328.6C292.857 328.58 292.857 328.56 292.855 328.54C292.652 329.076 292.506 329.628 292.419 330.19C292.145 332.006 292.416 333.855 293.204 335.54C293.906 337.054 295.035 338.369 296.476 339.35H296.432Z" fill="#263238"/>
<path d="M348.326 313.11L344.367 331.81C344.182 332.36 344.509 332.81 345.087 332.76L355.47 332.24C355.787 332.201 356.085 332.081 356.33 331.894C356.575 331.706 356.757 331.459 356.855 331.18L360.814 312.48C361 311.93 360.673 311.48 360.095 311.48L349.711 312.01C349.395 312.046 349.097 312.163 348.851 312.349C348.606 312.535 348.424 312.782 348.326 313.06V313.11Z" fill="#37474F"/>
<path d="M349.559 313L345.6 331.7C345.414 332.25 345.741 332.7 346.319 332.65L356.703 332.13C357.019 332.09 357.316 331.97 357.561 331.782C357.806 331.595 357.988 331.348 358.088 331.07L362.047 312.37C362.232 311.82 361.905 311.37 361.327 311.37L350.944 311.9C350.621 311.94 350.318 312.065 350.072 312.26C349.826 312.456 349.647 312.713 349.559 313V313Z" fill="#455A64"/>
<path d="M352.46 313.74C352.462 313.879 352.426 314.016 352.353 314.138C352.281 314.26 352.176 314.363 352.048 314.437C351.92 314.511 351.773 314.554 351.622 314.561C351.47 314.568 351.32 314.539 351.184 314.478C351.048 314.416 350.932 314.323 350.847 314.209C350.761 314.094 350.71 313.961 350.696 313.822C350.683 313.684 350.709 313.545 350.772 313.418C350.834 313.292 350.931 313.182 351.053 313.1C351.171 313.022 351.309 312.972 351.454 312.954C351.598 312.937 351.745 312.952 351.882 313C352.101 313.078 352.277 313.233 352.373 313.43C352.42 313.527 352.446 313.633 352.449 313.74H352.46Z" fill="#263238"/>
<path d="M316.544 342.73C323.088 353.97 336.951 368.3 342.415 368.13C345.011 368.05 349.679 368.43 352.951 365.54C360.084 359.25 365.722 347.54 366.66 340.98C366.998 338.63 354.401 334.12 352.678 336.09C348.643 340.72 344.116 349.61 343.353 349.6C340.55 349.52 329.174 341.66 321.278 336.09C311.658 329.36 313.97 338.26 316.544 342.73Z" fill="#F7A9A0"/>
<path d="M366.366 329C364.817 324.33 363.639 323.35 364.621 318.77C365.264 315.77 363.443 314.14 361.272 316.59C357.717 320.64 358.328 327.05 359.244 329.21L366.366 329Z" fill="#F7A9A0"/>
<path d="M366.17 343C366.17 343 368.133 336.32 367.031 331.2C366.268 327.65 363.65 320.12 352.558 316.56C349.93 315.71 345.523 316.22 349.286 319.03C351.958 321.03 354.336 321.56 355.623 323.03C355.623 323.03 350.104 324.28 349.286 326.73C348.567 328.871 348.016 331.057 347.639 333.27C348.066 333.426 348.503 333.556 348.948 333.66C348.948 333.66 348.228 335.98 350.268 339.14L366.17 343Z" fill="#F7A9A0"/>
<path d="M365.701 328C363.086 326.04 360.138 324.486 356.975 323.4C352.962 322.24 344.891 320.99 343.996 323.72C343.331 325.72 346.374 326.44 346.374 326.44C346.374 326.44 342.916 326.57 342.764 328.5C342.611 330.26 344.945 330.69 344.945 330.69C344.945 330.69 342.862 331.1 343.069 332.81C343.32 334.87 347.639 333.68 349.864 335.57C350.333 336 365.701 328 365.701 328Z" fill="#F7A9A0"/>
<path d="M356.31 327.48C353.2 326.199 349.738 325.815 346.385 326.38C346.308 326.38 346.276 326.47 346.385 326.47C349.735 326.45 353.076 326.806 356.332 327.53C356.332 327.53 356.332 327.48 356.31 327.48Z" fill="#263238"/>
<path d="M354.914 331.14C351.703 330.133 348.255 329.94 344.934 330.58C344.858 330.58 344.825 330.67 344.934 330.67C348.278 330.497 351.633 330.668 354.936 331.18L354.914 331.14Z" fill="#263238"/>
<path d="M367.02 345.77C367.02 345.77 357.815 364.52 352.045 366.87C346.276 369.22 342.731 368.87 340.506 368.7C339.652 368.554 338.844 368.236 338.139 367.77C332.021 364.15 320.689 350.87 316.042 343.34C312.52 337.68 312.629 332.41 317.602 333.9C319.292 334.479 320.865 335.31 322.259 336.36C331.639 342.9 342.393 349.05 342.873 348.79C343.353 348.53 348.184 340.79 348.184 340.79L367.02 345.77Z" fill="#FFC727"/>
<path d="M364.686 349.21C363.999 348.9 357.542 346.9 356.135 346.5C354.729 346.1 348.97 344.38 347.476 344.07V344.14C348.883 344.7 354.685 346.43 356.135 346.88C357.586 347.33 363.999 349.17 364.73 349.28C364.763 349.31 364.763 349.23 364.686 349.21Z" fill="#263238"/>
<path d="M338.107 346.43C334.404 350.081 330.361 353.427 326.022 356.43C324.452 354.65 322.936 352.82 321.529 351.02C325.239 348.531 328.716 345.762 331.923 342.74C334.278 344.16 336.394 345.43 338.107 346.43Z" fill="#EBEBEB"/>
<path opacity="0.1" d="M355.83 363.74C354.83 365.019 353.539 366.084 352.045 366.86C346.276 369.23 342.731 368.86 340.506 368.69C339.651 368.547 338.842 368.229 338.139 367.76C332.021 364.14 320.689 350.86 316.043 343.33C312.847 338.2 312.629 333.41 316.326 333.65C326.284 341.18 345.185 355.6 355.83 363.74Z" fill="black"/>
<path d="M333.079 358.65L341.248 377.52C341.248 377.52 311.549 378.1 302.409 378.01C302.409 378.01 296.639 347.4 305.823 337.12C310.404 331.98 314.396 332.27 318.289 335.48C319.271 336.29 332.25 345.35 333.755 350.41C334.513 353.151 334.276 356.044 333.079 358.65V358.65Z" fill="#FFC727"/>
<path d="M305.387 336C292.135 344.29 277.978 361.13 279.603 366C281.446 371.4 300.522 359.64 300.195 358.84C299.868 358.04 303.358 351.71 308.288 342.48C313.261 333.09 308.659 334 305.387 336Z" fill="#FFC727"/>
<path d="M303.456 351.51C301.951 354.41 300.871 356.58 300.402 357.8C295.292 356.924 290.261 355.698 285.351 354.13C286.791 352.31 288.47 350.42 290.281 348.53C294.576 349.857 298.983 350.86 303.456 351.53V351.51Z" fill="#EBEBEB"/>
<path d="M279.56 366C281.348 369.72 287.99 371.55 304.241 377.63C306.488 378.47 317.22 365.51 314.886 364.5C311.931 363.23 300.14 358.87 299.224 358.65C291.579 356.83 278.349 363.49 279.56 366Z" fill="#F7A9A0"/>
<path d="M311.658 363.2C311.658 363.2 318.616 365.48 321.856 367.72C325.154 370.113 327.773 373.2 329.49 376.72C331.355 380.53 332.991 390.93 329.807 391.89C326.927 392.75 325.837 382.04 325.837 382.04C325.837 382.04 328.901 392.79 325.226 393.24C321.55 393.69 321.06 381.24 321.06 381.24C321.06 381.24 323.939 392.35 320.067 392.24C317.177 392.18 316.01 380.89 316.01 380.89C316.01 380.89 318.42 390.45 315.399 390.51C312.072 390.57 310.306 380.21 310.306 380.21C302.616 379.21 299.399 375.79 297.458 373.14C296.999 372.51 311.658 363.2 311.658 363.2Z" fill="#F7A9A0"/>
<path d="M325.019 378.29C325.422 379.54 325.848 380.8 326.109 382.09C326.371 383.38 326.633 384.66 326.829 385.95C327.067 387.645 327.097 389.359 326.916 391.06C326.835 388.063 326.448 385.08 325.76 382.15C325.477 380.87 325.259 379.58 324.964 378.3C325.019 378.27 325.019 378.27 325.019 378.29Z" fill="#263238"/>
<path d="M319.991 379.16C320.449 380.78 320.95 382.37 321.321 384.01C321.692 385.65 321.888 387.21 322.128 388.86C322.128 388.99 322.063 388.95 322.041 388.86C321.725 387.23 321.321 385.73 320.95 384.1C320.58 382.47 320.35 380.79 319.936 379.21C319.936 379.15 319.98 379.14 319.991 379.16Z" fill="#263238"/>
<path d="M315.497 379.19C316.258 381.655 316.74 384.185 316.937 386.74C316.937 386.87 316.849 386.81 316.828 386.68C316.413 384.17 316.108 382.18 315.432 379.21C315.399 379.17 315.486 379.14 315.497 379.19Z" fill="#263238"/>
<path d="M314.952 363.14C314.952 363.14 299.235 377.39 299.039 377.35C298.843 377.31 280.421 370.12 279.56 366.01C278.698 361.9 292.44 357.12 299.192 358.64C305.943 360.16 314.952 363.14 314.952 363.14Z" fill="#FFC727"/>
<path d="M308.801 362.08C308.168 362.54 303.238 367.26 302.191 368.3C301.144 369.34 296.814 373.59 295.833 374.75C295.833 374.8 295.833 374.87 295.909 374.82C297.109 373.82 301.482 369.58 302.573 368.54C303.664 367.5 308.43 362.73 308.877 362.14C308.921 362.09 308.844 362.05 308.801 362.08Z" fill="#263238"/>
<path d="M291.361 358.94C294.324 358.122 297.481 358.102 300.457 358.88C300.457 358.88 300.457 358.94 300.457 358.93C297.453 358.491 294.391 358.508 291.393 358.98C291.393 358.98 291.328 359 291.361 358.94Z" fill="#263238"/>
<path d="M313.981 364L314.908 363.09V363.17L311.233 362C310 361.62 308.768 361.25 307.535 360.89C305.07 360.15 302.595 359.46 300.086 358.89L299.792 358.82L299.901 358.57C300.915 356.19 301.973 353.84 303.173 351.57C304.347 349.253 305.65 346.994 307.077 344.8C305.834 347.08 304.678 349.39 303.598 351.72C302.518 354.05 301.417 356.4 300.479 358.78L300.293 358.46C302.813 359.07 305.288 359.78 307.753 360.56C308.986 360.96 310.196 361.37 311.407 361.8C312.618 362.23 313.828 362.68 315.017 363.12H315.094L315.028 363.2L313.981 364Z" fill="#263238"/>
<path d="M304.209 349.9C304.531 349.35 304.896 348.822 305.3 348.32C305.716 347.815 306.184 347.346 306.696 346.92C306.389 347.484 306.024 348.02 305.605 348.52C305.387 348.76 305.169 349.01 304.94 349.24C304.712 349.478 304.46 349.696 304.187 349.89L304.209 349.9Z" fill="#263238"/>
<path d="M309.084 336.89C309.4 337.5 313.763 341.03 316.959 340.25C318.049 340 316.73 334.73 316.73 334.73V334.33V328.61L308.8 325.89L307.71 325.55C307.71 325.55 307.808 327.11 307.95 329.06V329.66C307.939 329.958 307.961 330.256 308.015 330.55C308.081 330.85 308.015 330.99 308.081 331.21C308.128 331.441 308.154 331.675 308.157 331.91C308.344 333.594 308.658 335.265 309.095 336.91L309.084 336.89Z" fill="#F7A9A0"/>
<path d="M316.73 334.39C313.421 334.203 310.319 332.853 308.07 330.62C308.074 330.59 308.074 330.56 308.07 330.53C308.07 330.23 308.07 329.93 308.004 329.64V329C307.862 327.06 307.753 325.49 307.753 325.49L308.844 325.83L316.773 328.55V334.26L316.73 334.39Z" fill="#263238"/>
<path d="M323.601 320.46C324.44 330.46 317.995 332.05 315.671 332.21C313.49 332.36 306.248 332.61 304.285 322.74C302.322 312.87 307.175 309.35 312.007 308.74C316.839 308.13 322.772 310.46 323.601 320.46Z" fill="#F7A9A0"/>
<path d="M321.245 318.08C321.002 318.065 320.762 318.032 320.525 317.98C320.263 317.975 320.01 317.891 319.805 317.74C319.752 317.677 319.723 317.6 319.723 317.52C319.723 317.441 319.752 317.363 319.805 317.3C319.923 317.182 320.074 317.096 320.241 317.05C320.409 317.008 320.586 317.008 320.754 317.05C321.106 317.075 321.436 317.217 321.681 317.45C321.747 317.509 321.789 317.585 321.802 317.668C321.815 317.751 321.798 317.835 321.753 317.908C321.708 317.981 321.638 318.039 321.554 318.072C321.47 318.104 321.377 318.111 321.289 318.09L321.245 318.08Z" fill="#263238"/>
<path d="M313.97 319.23C314.214 319.189 314.455 319.132 314.69 319.06C314.96 319.038 315.214 318.932 315.41 318.76C315.463 318.697 315.492 318.62 315.492 318.54C315.492 318.461 315.463 318.383 315.41 318.32C315.28 318.214 315.122 318.141 314.951 318.11C314.781 318.078 314.604 318.089 314.439 318.14C314.091 318.203 313.781 318.381 313.567 318.64C313.52 318.702 313.494 318.775 313.49 318.85C313.49 318.924 313.512 318.997 313.556 319.06C313.598 319.124 313.66 319.175 313.733 319.207C313.807 319.239 313.889 319.251 313.97 319.24V319.23Z" fill="#263238"/>
<path d="M315.781 321C315.781 321 315.726 321 315.726 321.07C315.802 321.73 315.726 322.55 315.094 322.82C315.911 322.71 315.966 321.66 315.781 321Z" fill="#263238"/>
<path d="M315.061 320.33C313.85 320.33 313.905 322.54 315.061 322.55C316.217 322.56 316.075 320.35 315.061 320.33Z" fill="#263238"/>
<path d="M314.581 320.46C314.374 320.59 314.177 320.82 313.916 320.84C313.654 320.86 313.392 320.65 313.196 320.43C313.196 320.85 313.392 321.28 313.916 321.34C314.439 321.4 314.69 321.01 314.788 320.57C314.745 320.52 314.668 320.41 314.581 320.46Z" fill="#263238"/>
<path d="M320.111 320.52C320.128 320.52 320.145 320.526 320.157 320.538C320.169 320.549 320.176 320.564 320.176 320.58C320.176 321.24 320.318 322.05 321.016 322.26C320.176 322.23 320.045 321.18 320.111 320.52Z" fill="#263238"/>
<path d="M320.765 319.78C321.965 319.65 322.161 321.86 321.049 321.99C319.936 322.12 319.751 319.89 320.765 319.78Z" fill="#263238"/>
<path d="M321.267 319.89C321.463 319.99 321.681 320.19 321.91 320.19C322.139 320.19 322.346 319.93 322.499 319.69C322.499 320.11 322.434 320.56 321.997 320.69C321.561 320.82 321.278 320.45 321.114 320.03C321.136 320 321.19 319.84 321.267 319.89Z" fill="#263238"/>
<path d="M319.107 323.67C319.204 324.17 319.274 324.674 319.314 325.18C318.821 325.305 318.3 325.307 317.805 325.185C317.311 325.064 316.86 324.824 316.5 324.49C316.5 324.49 316.5 324.39 316.577 324.42C317.271 324.825 318.091 325.011 318.911 324.95C318.911 324.82 318.507 323.2 318.595 323.2C319.01 323.216 319.421 323.284 319.816 323.4C319.467 321.25 318.725 319.17 318.453 317.02H318.54C319.38 319.234 319.979 321.518 320.329 323.84C320.427 324.07 319.325 323.74 319.107 323.67Z" fill="#263238"/>
<path d="M304.896 323.76C306.99 323.95 307.383 319.56 307.383 319.56C307.383 319.56 316.206 317.93 316.762 311.29C317.96 313.97 320.242 316.12 323.132 317.29C323.132 317.29 322.586 310.02 316.261 308.8C316.261 308.8 308.386 306.42 304.198 312.21C300.01 318 303.522 323.64 304.896 323.76Z" fill="#263238"/>
<path d="M316.773 310.8C316.908 311.808 316.808 312.83 316.479 313.8C316.165 314.798 315.627 315.725 314.897 316.52C314.718 316.721 314.525 316.911 314.319 317.09L314.025 317.37L313.698 317.61C313.469 317.77 313.25 317.93 313.021 318.08C312.792 318.23 312.542 318.34 312.302 318.46L311.931 318.64L311.549 318.79L310.775 319.09C310.24 319.24 309.684 319.37 309.171 319.49C309.673 319.27 310.186 319.11 310.677 318.88L311.396 318.54L311.756 318.37L312.094 318.16L312.771 317.75C312.989 317.6 313.185 317.43 313.392 317.28L313.698 317.04L313.981 316.77C314.174 316.6 314.356 316.419 314.527 316.23C315.216 315.474 315.758 314.615 316.13 313.69C316.323 313.226 316.472 312.747 316.577 312.26C316.685 311.779 316.75 311.29 316.773 310.8Z" fill="#263238"/>
<path d="M306.063 323.39C306.063 323.39 303.707 320.24 302.158 321C300.61 321.76 302.344 326.29 304.154 327C304.384 327.09 304.63 327.136 304.879 327.136C305.129 327.136 305.375 327.09 305.605 327C305.847 326.923 306.069 326.8 306.256 326.64C306.444 326.48 306.594 326.286 306.695 326.07L306.063 323.39Z" fill="#F7A9A0"/>
<path d="M302.693 322.3C303.274 322.575 303.787 322.958 304.198 323.424C304.609 323.891 304.91 324.431 305.081 325.01C305.008 324.892 304.907 324.79 304.787 324.71C304.666 324.631 304.529 324.576 304.383 324.55C304.239 324.523 304.091 324.523 303.947 324.55C303.805 324.582 303.671 324.64 303.554 324.72C303.778 324.651 304.021 324.651 304.245 324.719C304.469 324.788 304.663 324.922 304.798 325.1C305.029 325.39 305.226 325.702 305.387 326.03C305.441 326.14 305.648 326.08 305.616 325.96C305.67 324.57 304.438 322.47 302.693 322.3Z" fill="#263238"/>
<path d="M116.636 776.79C118.305 776.15 155.365 746.54 156.009 744.63C156.249 743.9 151.864 738.69 146.367 732.54C145.19 731.22 143.979 729.85 142.681 728.47C134.501 719.47 125.59 710.2 125.59 710.2L100.745 729.93L118.523 747.68L122.416 751.53C122.416 751.53 113.757 768.71 113.309 770.9C112.862 773.09 114.967 777.43 116.636 776.79Z" fill="#AD6359"/>
<path d="M116.636 776.79C118.305 776.15 155.366 746.54 156.009 744.63C156.304 743.72 149.76 736.24 142.681 728.47L118.523 747.67L122.417 751.54C122.417 751.54 113.757 768.72 113.309 770.91C112.862 773.1 114.967 777.43 116.636 776.79Z" fill="white"/>
<path d="M116.636 776.79C118.305 776.15 155.366 746.55 156.009 744.63C156.249 743.9 151.865 738.69 146.368 732.54L122.449 751.54C122.449 751.54 113.724 768.71 113.309 770.9C112.895 773.09 114.967 777.43 116.636 776.79Z" fill="#37474F"/>
<path d="M115.883 775C121.969 769.88 146.978 749.84 153.435 745.22C153.489 745.22 153.522 745.22 153.435 745.22C147.524 750.39 122.307 770.22 115.927 775.06C115.829 775.2 115.752 775.11 115.883 775Z" fill="#263238"/>
<path d="M114.52 767.77C115.194 767.2 115.99 766.766 116.858 766.493C117.725 766.221 118.645 766.118 119.559 766.19C121.201 766.307 122.732 766.998 123.834 768.12C123.834 768.12 123.834 768.22 123.758 768.19C122.476 767.229 120.888 766.676 119.234 766.615C117.579 766.554 115.948 766.987 114.585 767.85H114.52V767.77Z" fill="#263238"/>
<path d="M120.541 754C122.995 752 126.648 750.48 129.964 751.08C130.095 751.08 130.051 751.27 129.964 751.3C126.798 751.995 123.723 753.001 120.791 754.3C120.752 754.311 120.711 754.311 120.671 754.3C120.629 754.291 120.591 754.27 120.562 754.24C120.551 754.204 120.551 754.166 120.562 754.13C120.551 754.094 120.551 754.056 120.562 754.02L120.541 754Z" fill="#263238"/>
<path d="M119.275 756.29C121.729 754.29 125.383 752.77 128.699 753.4C128.83 753.4 128.786 753.59 128.699 753.61C125.534 754.308 122.459 755.314 119.526 756.61C119.493 756.637 119.451 756.654 119.407 756.657C119.363 756.661 119.318 756.651 119.28 756.63C119.242 756.609 119.213 756.577 119.196 756.539C119.18 756.501 119.177 756.459 119.188 756.42C119.192 756.394 119.202 756.369 119.217 756.347C119.232 756.324 119.252 756.305 119.275 756.29V756.29Z" fill="#263238"/>
<path d="M118.01 758.48C120.464 756.48 124.118 754.97 127.434 755.56C127.564 755.56 127.521 755.76 127.434 755.78C124.269 756.479 121.194 757.484 118.261 758.78C118.219 758.793 118.173 758.793 118.13 758.78C118.088 758.772 118.049 758.75 118.021 758.72C118.009 758.684 118.009 758.646 118.021 758.61C118.009 758.574 118.009 758.536 118.021 758.5L118.01 758.48Z" fill="#263238"/>
<path d="M116.701 760.67C119.155 758.67 122.809 757.15 126.125 757.78C126.256 757.78 126.212 757.97 126.125 758C122.959 758.695 119.883 759.701 116.952 761C116.903 761.017 116.849 761.017 116.8 761C116.772 760.996 116.746 760.988 116.722 760.975C116.699 760.961 116.678 760.944 116.662 760.924C116.645 760.903 116.634 760.88 116.628 760.855C116.621 760.831 116.62 760.805 116.625 760.78C116.629 760.754 116.639 760.729 116.654 760.707C116.669 760.684 116.689 760.665 116.712 760.65L116.701 760.67Z" fill="#263238"/>
<path d="M146.716 741.08C149.519 738.89 153.26 742.84 150.479 745.08C147.698 747.32 143.968 743.31 146.716 741.08Z" fill="white"/>
<path d="M131.861 743.69C130.269 742.36 128.099 743.51 127.008 744.79C125.184 747.014 124.029 749.638 123.66 752.4C123.725 752.62 123.998 752.82 124.238 752.67C126.626 751.27 129.418 750.05 131.305 748.02C132.494 746.92 133.388 745 131.861 743.69ZM127.499 749.95C126.321 750.68 125.11 751.32 123.987 752.08C124.592 750.585 125.28 749.12 126.048 747.69C126.427 746.997 126.857 746.329 127.335 745.69C128.131 744.69 131.447 742.32 131.622 745.62C131.774 747.43 128.928 749.1 127.532 750L127.499 749.95Z" fill="#263238"/>
<path d="M73.0748 694.89C75.3979 707.07 109.972 741.16 113.975 745.07L114.891 745.96L141.241 725.71L140.914 725.35L115.611 697.48L187.148 694.31L159.085 676C159.085 676 156.903 677.25 152.323 676.81C136.432 675.31 100.614 672 92.2269 672.64C81.4075 673.45 70.948 683.69 73.0748 694.89Z" fill="#263238"/>
<path d="M106.471 687.09C107.405 687.974 108.276 688.912 109.077 689.9C109.983 690.9 110.888 691.9 111.782 692.82L111.248 692C110.67 691 110.157 690 109.514 689C109.514 688.94 109.568 688.88 109.612 688.94C110.31 689.87 111.106 690.76 111.706 691.75C111.99 692.22 112.262 692.69 112.502 693.17C112.644 693.43 112.786 693.7 112.906 693.97C112.979 694.094 113.037 694.225 113.08 694.36C113.484 694.81 113.876 695.27 114.269 695.75C115.12 696.75 115.861 697.89 116.756 698.93C116.756 698.98 116.756 699.04 116.658 698.99C115.785 697.99 114.814 697.13 113.92 696.16C113.026 695.19 112.153 694.16 111.302 693.16C110.452 692.16 109.666 691.16 108.827 690.16C107.92 689.187 107.082 688.161 106.318 687.09H106.384H106.471Z" fill="#37474F"/>
<path d="M167.046 639.58C163.12 646.5 149.138 665.89 138.046 669.66C131.927 671.73 100.636 676.93 95.9677 673.94C90.5143 670.45 91.9867 654.76 95.8586 654.16C107.649 652.32 129.909 654.21 135.232 652.45C137.62 651.65 149.672 642.32 162.815 634.45C167.777 631.45 169.566 635.12 167.046 639.58Z" fill="#AD6359"/>
<path d="M107.125 652.63C107.125 652.63 107.289 676.33 108.499 675.98C109.71 675.63 136.301 672.48 142.986 668.98C149.672 665.48 160.197 651.39 166.283 642.1C172.369 632.81 166.567 630.84 160.132 635.52C153.697 640.2 135.613 651.31 134.457 651.41C133.301 651.51 107.125 652.63 107.125 652.63Z" fill="#455A64"/>
<path d="M112.099 673.36C112.23 670.16 112.317 666.96 112.251 663.76C112.251 662.16 112.153 660.57 112.066 658.97C111.979 657.37 111.717 655.78 111.652 654.19C111.652 654.1 111.488 654.12 111.499 654.19C111.652 655.78 111.575 657.39 111.63 658.98C111.684 660.57 111.739 662.18 111.771 663.77C111.848 666.96 111.935 670.15 111.935 673.35C111.946 673.47 112.099 673.45 112.099 673.36Z" fill="#263238"/>
<path d="M144.862 667.8C151.515 663 160.753 650.56 166.294 642.11C170.657 635.53 168.933 632.61 165.258 633.16L144.862 667.8Z" fill="#37474F"/>
<path d="M154.329 674.71H108.271V676.6H154.329V674.71Z" fill="#C7C7C7"/>
<path d="M144.47 674.71L146.051 676.6H108.26V674.71H144.47Z" fill="#A6A6A6"/>
<path d="M142.496 676.6H97.6038L93.8628 648.6H138.755L142.496 676.6Z" fill="#C7C7C7"/>
<path d="M120.922 662.62C120.929 662.947 120.865 663.273 120.734 663.577C120.602 663.881 120.406 664.158 120.156 664.392C119.906 664.626 119.608 664.811 119.279 664.938C118.95 665.065 118.596 665.13 118.239 665.13C117.51 665.128 116.811 664.864 116.291 664.395C115.771 663.926 115.472 663.289 115.458 662.62C115.451 662.293 115.517 661.967 115.65 661.663C115.783 661.359 115.981 661.083 116.232 660.85C116.483 660.617 116.782 660.432 117.112 660.307C117.441 660.182 117.795 660.118 118.152 660.12C118.879 660.125 119.575 660.389 120.093 660.855C120.612 661.321 120.913 661.954 120.933 662.62H120.922Z" fill="white"/>
<path d="M94.2336 651.35C92.543 653.75 88.3658 656.55 87.7877 658.6C87.625 659.101 87.6433 659.636 87.8399 660.126C88.0365 660.617 88.4008 661.035 88.8784 661.32C88.8784 661.32 86.4898 662.09 86.2717 664.03C86.1735 665.03 87.8641 666.03 87.8641 666.03C87.3261 666.232 86.8587 666.566 86.5127 666.994C86.1666 667.422 85.955 667.929 85.9009 668.46C85.9493 668.917 86.1199 669.356 86.3977 669.738C86.6755 670.12 87.0518 670.433 87.4933 670.65C87.4933 670.65 85.999 672.11 86.4026 673.52C87.3297 676.4 100.178 677.96 102.763 673.86C103.984 671.95 100.821 671.73 100.821 671.73C100.821 671.73 105.457 671.04 105.871 668.62C106.285 666.2 102.163 666.14 102.163 666.14C102.163 666.14 106.645 665.45 106.798 662.9C106.951 660.35 102.817 660.83 102.817 660.83C102.817 660.83 105.936 659.37 105.566 657.42C104.955 654.15 97.5928 657.62 94.888 656.69L94.2336 651.35Z" fill="#AD6359"/>
<path d="M87.7552 670.84C87.7552 670.84 87.6897 670.84 87.7552 670.9C92.0042 672.43 96.6608 672.737 101.105 671.78C101.236 671.78 101.236 671.52 101.105 671.54C96.642 671.904 92.1451 671.672 87.7552 670.85V670.84Z" fill="#263238"/>
<path d="M87.7769 666.06C92.4779 667.708 97.6677 667.754 102.403 666.19C102.566 666.13 102.654 665.93 102.457 665.98C99.1634 667 91.8669 666.89 87.7769 666.06Z" fill="#263238"/>
<path d="M103.21 660.61C98.6265 661.941 93.7549 662.209 89.031 661.39C88.9656 661.39 88.9547 661.46 89.031 661.48C91.5285 662.313 94.1894 662.654 96.8402 662.48C99.1019 662.438 101.312 661.855 103.253 660.79C103.341 660.71 103.275 660.58 103.21 660.61Z" fill="#263238"/>
<path d="M149.956 684.93C149.956 684.93 201.413 692.09 201.664 691.79C201.915 691.49 194.346 640.94 176.688 632.85C173.885 631.56 167.221 630.95 164.462 633.68C156.641 641.48 149.269 684.27 149.956 684.93Z" fill="#455A64"/>
<path d="M150.359 680.72L201.01 687.24C200.781 685.85 200.465 684.24 200.094 682.33L151.112 676C150.817 677.8 150.512 679.39 150.359 680.72Z" fill="#37474F"/>
<path d="M151.603 673.53L199.592 679.71C199.417 678.88 199.232 678.03 199.025 677.15L152.126 671.15C151.908 671.93 151.733 672.74 151.603 673.53Z" fill="#37474F"/>
<path d="M166.49 642.74C169.348 642.85 173.231 638.2 174.463 634.74C174.54 634.51 173.722 632.33 172.871 629.62C172.347 627.98 171.78 626.16 171.464 624.45L160.328 629.13C161.438 631.143 162.276 633.272 162.826 635.47C162.872 635.711 162.894 635.956 162.891 636.2C162.887 636.24 162.887 636.28 162.891 636.32C162.913 637.69 163.731 642.63 166.49 642.74Z" fill="#AD6359"/>
<path d="M160.328 629.14C161.442 631.155 162.281 633.287 162.826 635.49C162.879 635.73 162.905 635.975 162.902 636.22C162.899 636.26 162.899 636.3 162.902 636.34C163.31 636.329 163.716 636.279 164.113 636.19C170.853 634.86 171.158 626.83 171.126 624.66L160.328 629.14Z" fill="#263238"/>
<path d="M170.286 610.69C172.347 614.26 172.467 625.58 170.057 628.54C166.545 632.84 159.641 634.39 155.376 630.3C151.112 626.21 151.352 611.55 154.166 608.75C158.288 604.63 167.232 605.42 170.286 610.69Z" fill="#AD6359"/>
<path d="M159.793 619.6C159.793 619.6 159.859 619.6 159.848 619.67C159.848 620.4 159.924 621.3 160.644 621.56C159.75 621.51 159.63 620.34 159.793 619.6Z" fill="#263238"/>
<path d="M160.535 618.88C161.866 618.8 161.942 621.24 160.71 621.31C159.477 621.38 159.423 618.92 160.535 618.88Z" fill="#263238"/>
<path d="M154.94 619.75C154.94 619.75 154.875 619.75 154.875 619.82C154.929 620.55 154.875 621.45 154.078 621.72C155.027 621.62 155.093 620.46 154.94 619.75Z" fill="#263238"/>
<path d="M154.177 619C152.846 618.94 152.824 621.39 154.057 621.44C155.289 621.49 155.289 619 154.177 619Z" fill="#263238"/>
<path d="M161.561 617.71C161.191 617.627 160.826 617.523 160.47 617.4C160.089 617.337 159.74 617.161 159.477 616.9C159.413 616.801 159.387 616.685 159.401 616.57C159.415 616.458 159.469 616.352 159.554 616.27C159.75 616.128 159.984 616.037 160.232 616.007C160.479 615.978 160.731 616.01 160.961 616.1C161.456 616.214 161.887 616.492 162.171 616.88C162.227 616.972 162.253 617.076 162.248 617.18C162.241 617.259 162.217 617.335 162.177 617.404C162.136 617.474 162.08 617.534 162.012 617.583C161.944 617.631 161.866 617.665 161.782 617.684C161.699 617.702 161.612 617.704 161.528 617.69L161.561 617.71Z" fill="#263238"/>
<path d="M153.108 617.78C153.479 617.71 153.806 617.6 154.199 617.5C154.585 617.452 154.942 617.287 155.213 617.03C155.279 616.935 155.31 616.822 155.3 616.71C155.292 616.595 155.242 616.486 155.158 616.4C154.965 616.254 154.732 616.158 154.485 616.123C154.237 616.088 153.984 616.114 153.751 616.2C153.257 616.296 152.818 616.556 152.519 616.93C152.449 617.021 152.411 617.129 152.41 617.24C152.408 617.323 152.426 617.406 152.464 617.482C152.502 617.558 152.558 617.625 152.629 617.678C152.699 617.731 152.782 617.769 152.871 617.788C152.959 617.808 153.052 617.808 153.141 617.79L153.108 617.78Z" fill="#263238"/>
<path d="M160.884 626.3C160.731 626.51 160.601 626.79 160.306 626.88C160.008 626.938 159.699 626.938 159.401 626.88C159.547 626.998 159.726 627.078 159.918 627.112C160.11 627.145 160.308 627.131 160.492 627.07C160.647 626.996 160.775 626.882 160.859 626.741C160.942 626.6 160.978 626.44 160.961 626.28C160.971 626.27 160.895 626.27 160.884 626.3Z" fill="#263238"/>
<path d="M159.772 624.15C159.57 624.455 159.303 624.718 158.986 624.925C158.669 625.131 158.309 625.276 157.928 625.35C157.596 625.417 157.254 625.441 156.914 625.42H156.543C156.5 625.412 156.46 625.393 156.429 625.365C156.398 625.336 156.377 625.3 156.369 625.26V623.64C156.14 623.76 154.962 624.28 154.973 623.97C154.97 621.34 155.255 618.717 155.823 616.14C155.823 616.06 155.987 616.07 155.976 616.14C155.976 618.57 155.562 620.99 155.54 623.45C155.957 623.261 156.402 623.126 156.86 623.05C156.914 623.05 156.805 625.05 156.86 625.05C157.383 625.084 157.909 625.02 158.406 624.864C158.902 624.708 159.359 624.461 159.75 624.14C159.75 624 159.826 624.09 159.772 624.15Z" fill="#263238"/>
<path d="M157.176 625.28C157.579 625.688 158.09 625.995 158.659 626.17C158.972 626.261 159.307 626.261 159.619 626.17C160.295 625.95 160.263 625.37 160.088 624.88C159.997 624.624 159.873 624.379 159.717 624.15C159.024 624.767 158.133 625.163 157.176 625.28V625.28Z" fill="#263238"/>
<path d="M158.659 626.18C158.972 626.27 159.307 626.27 159.619 626.18C160.295 625.96 160.263 625.38 160.088 624.89C159.726 624.929 159.389 625.077 159.128 625.31C158.868 625.543 158.699 625.849 158.648 626.18H158.659Z" fill="#FF9CBD"/>
<path d="M152.519 612.91C152.933 611.91 153.424 610.91 154.068 610.65C154.711 610.39 155.158 611.86 156.696 611.89C158.692 611.89 159.586 610.2 162.368 609.89C166.348 609.47 168.29 612.46 168.65 617.69C168.977 622.35 172.074 622.69 172.074 622.69C172.074 622.69 173.416 612.3 170.089 609C166.763 605.7 159.412 604.53 154.7 608C152.988 609.28 152.519 612.91 152.519 612.91Z" fill="#263238"/>
<path d="M169.271 620.8C169.271 620.8 171.311 616.8 173.252 617.42C175.194 618.04 174.114 623.5 172.162 624.53C171.922 624.675 171.653 624.776 171.37 624.826C171.087 624.876 170.797 624.873 170.515 624.82C170.233 624.765 169.966 624.66 169.73 624.51C169.493 624.359 169.293 624.165 169.141 623.94L169.271 620.8Z" fill="#AD6359"/>
<path d="M172.892 619C172.892 619 172.892 619 172.892 619.05C172.284 619.456 171.775 619.974 171.399 620.572C171.023 621.17 170.789 621.834 170.711 622.52C170.77 622.373 170.863 622.24 170.984 622.13C171.104 622.019 171.249 621.934 171.409 621.88C171.569 621.826 171.739 621.804 171.908 621.816C172.078 621.829 172.242 621.874 172.391 621.95V621.95C172.121 621.916 171.846 621.959 171.604 622.073C171.362 622.188 171.164 622.368 171.038 622.59C170.834 622.96 170.673 623.349 170.558 623.75C170.558 623.88 170.275 623.85 170.297 623.75C169.959 622.07 170.94 619.47 172.892 619Z" fill="#263238"/>
<path d="M157.928 606.15C159.436 605.324 161.068 604.704 162.771 604.31C164.68 603.91 170.831 603.76 172.423 604.75C174.016 605.74 174.986 610.97 175.117 611.75C175.248 612.53 175.39 617.22 173.667 618.52C171.944 619.82 170.896 611.94 167.69 609.52C164.483 607.1 157.928 606.15 157.928 606.15Z" fill="#A6A6A6"/>
<path opacity="0.1" d="M157.928 606.15C157.928 606.15 164.472 607.15 167.744 609.54C171.016 611.93 172.009 619.77 173.732 618.54C174.119 618.2 174.429 617.794 174.644 617.345C174.86 616.895 174.976 616.411 174.986 615.92C174.211 612.967 172.682 610.226 170.526 607.92C168.344 605.77 164.767 604.92 161.102 604.92C160.009 605.248 158.947 605.66 157.928 606.15V606.15Z" fill="black"/>
<path d="M173.7 623.26C173.296 621.16 170.33 615.73 167.505 612.72C164.68 609.71 157.252 608.5 156.249 608.65C153.817 609.01 153.391 610.11 152.977 609.97C152.563 609.83 154.733 607.05 155.366 606.58C156.353 605.994 157.471 605.618 158.638 605.48C159.728 605.4 166.349 605.38 168.999 607.72C171.649 610.06 175.859 616.94 175.445 618.85C175.347 619.31 174.736 619.65 174.605 620.31C174.42 621.16 174.343 622.13 174.136 622.73C173.929 623.33 173.743 623.44 173.7 623.26Z" fill="#A6A6A6"/>
<path d="M172.445 618.93C172.642 618.67 172.849 618.43 173.012 618.16C173.167 617.888 173.302 617.608 173.416 617.32C173.525 617.04 173.623 616.75 173.732 616.47C173.841 616.19 174.038 615.81 174.147 615.47C174.147 615.47 174.234 615.47 174.223 615.47C174.114 615.83 174.06 616.2 173.961 616.55C173.869 616.859 173.756 617.163 173.623 617.46C173.499 617.743 173.346 618.014 173.165 618.27C172.991 618.529 172.765 618.756 172.5 618.94C172.5 618.94 172.424 619 172.445 618.93Z" fill="#263238"/>
<path d="M164.887 610.28C165.083 610 165.28 609.72 165.498 609.46C165.731 609.205 165.979 608.962 166.239 608.73C166.741 608.25 167.301 607.824 167.908 607.46C167.908 607.46 167.985 607.46 167.908 607.51C166.916 608.51 165.88 609.39 164.898 610.35C164.909 610.36 164.854 610.32 164.887 610.28Z" fill="#263238"/>
<path d="M163.284 608.64C163.489 608.372 163.727 608.127 163.993 607.91C164.562 607.452 165.183 607.053 165.847 606.72C165.847 606.72 165.934 606.72 165.847 606.77C165.29 607.19 164.756 607.6 164.2 608.06C163.933 608.278 163.682 608.512 163.447 608.76C163.207 609.01 163.044 609.29 162.815 609.55C162.902 609.22 163.062 608.911 163.284 608.64Z" fill="#263238"/>
<path d="M161.277 608C161.815 607.229 162.568 606.604 163.458 606.19C163.458 606.19 163.534 606.19 163.458 606.25C162.932 606.615 162.439 607.02 161.986 607.46C161.768 607.68 161.549 607.91 161.331 608.14C161.135 608.393 160.923 608.637 160.699 608.87C160.854 608.565 161.04 608.273 161.255 608H161.277Z" fill="#263238"/>
<path d="M159.772 607C160.001 606.8 160.23 606.6 160.459 606.41C160.68 606.211 160.934 606.046 161.212 605.92C161.212 605.92 161.277 605.92 161.212 605.99C160.775 606.38 160.361 606.77 159.935 607.17C159.574 607.563 159.256 607.989 158.987 608.44V608.44C159.097 607.897 159.387 607.398 159.815 607.01L159.772 607Z" fill="#263238"/>
<path d="M158.005 606.86C158.414 606.449 158.902 606.11 159.444 605.86C159.444 605.86 159.521 605.86 159.444 605.92C158.956 606.219 158.518 606.583 158.147 607C157.768 607.418 157.442 607.874 157.176 608.36H157.121C157.28 607.809 157.575 607.299 157.983 606.87L158.005 606.86Z" fill="#263238"/>
<path d="M155.845 608C155.892 607.884 155.946 607.77 156.009 607.66C156.133 607.439 156.283 607.231 156.456 607.04C156.819 606.671 157.22 606.336 157.656 606.04C157.656 606.04 157.743 606.04 157.656 606.1C157.246 606.41 156.879 606.767 156.565 607.16C156.401 607.351 156.255 607.556 156.129 607.77C156.063 607.87 156.009 607.98 155.954 608.09C155.913 608.199 155.858 608.303 155.791 608.4H155.725C155.736 608.261 155.777 608.125 155.845 608V608Z" fill="#263238"/>
<path d="M154.471 608.26C154.581 608.082 154.705 607.911 154.842 607.75C154.969 607.582 155.111 607.425 155.267 607.28L155.736 606.83C155.889 606.68 155.834 606.83 155.791 606.83C155.635 606.985 155.489 607.148 155.355 607.32L154.973 607.8L154.602 608.28C154.471 608.45 154.362 608.63 154.22 608.78H154.166C154.248 608.597 154.35 608.423 154.471 608.26V608.26Z" fill="#263238"/>
<path d="M162.455 638C162.455 640.14 162.618 645.09 166.24 644.58C167.688 644.261 169.005 643.567 170.035 642.58C171.115 641.661 172.084 640.639 172.925 639.53C173.91 638.31 174.785 637.019 175.543 635.67C175.543 635.61 175.674 635.67 175.641 635.72C174.845 637.07 174.234 638.47 173.318 639.72C172.449 640.968 171.4 642.101 170.199 643.09C169.106 644.122 167.693 644.82 166.152 645.09C165.482 645.15 164.81 644.998 164.246 644.66C163.683 644.322 163.263 643.817 163.055 643.23C162.43 641.547 162.222 639.757 162.444 637.99L162.455 638Z" fill="#263238"/>
<path d="M183.232 643.76C186.722 661.92 183.352 675.51 179.96 677.19C170.907 681.73 149.16 672.53 143.03 670.71C140.554 669.98 151.853 652.58 154.384 653.66C160.35 656.18 168.737 660.47 169.031 660.44C169.697 660.37 170.493 655.74 173.95 642.24C176.819 631.3 181.847 636.34 183.232 643.76Z" fill="#AD6359"/>
<path d="M123.332 645.06C122.711 647.34 128.971 648.27 128.971 648.27C127.932 648.613 127.056 649.278 126.495 650.15C125.59 651.73 127.881 653.73 127.881 653.73C126.883 654.291 126.093 655.113 125.612 656.09C124.914 657.68 126.921 660.01 126.921 660.01C126.307 660.987 126.101 662.135 126.343 663.24C127.139 666.16 132.003 667.32 134.883 668.58C137.958 669.93 143.063 670.43 145.375 671.38L155.398 654.57C155.398 654.57 145.713 645.15 140.183 643.73C137.118 642.88 124.336 641.57 123.332 645.06Z" fill="#AD6359"/>
<path d="M129.048 648.21C132.538 648.193 136.018 648.569 139.409 649.33C139.485 649.33 139.409 649.46 139.409 649.44C136.05 648.77 132.418 648.91 129.048 648.36H128.993C128.986 648.353 128.98 648.346 128.976 648.337C128.972 648.329 128.97 648.319 128.97 648.31C128.97 648.301 128.972 648.291 128.976 648.283C128.98 648.274 128.986 648.267 128.993 648.26H129.048V648.21Z" fill="#263238"/>
<path d="M128.033 653.51C128.831 653.548 129.619 653.683 130.378 653.91L132.81 654.53C134.403 654.963 135.999 655.436 137.598 655.95C137.675 655.95 137.598 656.08 137.598 656.06C136.006 655.62 134.326 655.21 132.723 654.85C131.927 654.67 131.087 654.48 130.269 654.32C129.481 654.198 128.71 654.001 127.968 653.73C127.964 653.713 127.964 653.696 127.968 653.68C127.96 653.657 127.96 653.632 127.968 653.61C127.962 653.59 127.962 653.569 127.968 653.55H128.044L128.033 653.51Z" fill="#263238"/>
<path d="M126.975 660C127.697 660.045 128.404 660.2 129.069 660.46L131.251 661.09C132.712 661.5 134.196 661.91 135.679 662.27V662.34C134.174 661.98 132.647 661.61 131.142 661.27L128.96 660.71C128.267 660.597 127.602 660.37 126.997 660.04V660.04L126.975 660Z" fill="#263238"/>
<path d="M169.053 660.44C166.567 659.38 164.113 658.25 161.659 657.17L157.994 655.5L156.151 654.7C155.562 654.427 154.958 654.183 154.34 653.97H154.242C152.65 652.51 151.057 651.11 149.399 649.69C148.603 648.96 147.742 648.3 146.902 647.63C146.07 646.942 145.184 646.31 144.251 645.74C145.254 646.206 146.21 646.752 147.109 647.37C148.003 648 148.865 648.66 149.727 649.37C151.439 650.71 153.064 652.14 154.689 653.57L154.547 653.5C155.213 653.719 155.862 653.98 156.489 654.28L158.321 655.13L161.975 656.87C164.342 658 166.741 659.16 169.053 660.44Z" fill="#263238"/>
<path d="M156.151 653.26L145.244 673.73C145.244 673.73 174.692 684.73 180.396 678.78C186.1 672.83 185.85 652.78 183.199 641.78C180.549 630.78 174.725 636.13 173.383 642.19C172.042 648.25 169.664 659.83 169.021 659.69C168.377 659.55 156.151 653.26 156.151 653.26Z" fill="#455A64"/>
<path d="M159.237 657C157.645 659.63 156.085 662.27 154.657 665C153.937 666.35 153.25 667.72 152.584 669.09C151.919 670.46 151.406 671.9 150.719 673.26H150.785C151.385 671.87 152.213 670.55 152.901 669.19C153.588 667.83 154.286 666.47 154.995 665.11C156.402 662.41 157.819 659.69 159.303 657.02C159.32 657.018 159.335 657.01 159.347 656.999C159.359 656.987 159.366 656.973 159.368 656.957C159.369 656.941 159.365 656.926 159.355 656.912C159.346 656.899 159.332 656.889 159.316 656.884C159.299 656.879 159.282 656.88 159.266 656.885C159.25 656.89 159.236 656.901 159.227 656.914C159.218 656.927 159.214 656.943 159.216 656.959C159.218 656.974 159.225 656.989 159.237 657V657Z" fill="#263238"/>
<path d="M155.704 654.1C155.834 653.81 155.944 653.51 156.074 653.23V653.16H156.151C157.743 653.83 159.336 654.57 160.939 655.3C162.542 656.03 164.08 656.81 165.64 657.59C167.199 658.37 168.737 659.17 170.264 660.01C171.791 660.85 173.307 661.68 174.79 662.59C173.198 661.94 171.606 661.22 170.002 660.49C168.399 659.76 166.818 659.03 165.28 658.23C163.742 657.43 162.171 656.65 160.644 655.84C159.117 655.03 157.58 654.18 156.096 653.3H156.205C156.06 653.578 155.892 653.845 155.704 654.1V654.1Z" fill="#263238"/>
<path d="M172.391 646.88C172.237 649.073 171.902 651.253 171.387 653.4C171.136 654.47 170.853 655.54 170.504 656.6C170.211 657.662 169.736 658.675 169.097 659.6C169.309 659.093 169.463 658.566 169.555 658.03L169.893 656.42C170.111 655.35 170.351 654.28 170.591 653.21C171.115 651.11 171.649 649 172.391 646.88Z" fill="#263238"/>
<path d="M171.082 647.76C171.158 648.39 171.18 649 171.235 649.61C171.235 649.92 171.289 650.22 171.3 650.52C171.311 650.82 171.377 651.13 171.42 651.45C171.06 650.902 170.857 650.279 170.831 649.64C170.779 649.004 170.864 648.365 171.082 647.76Z" fill="#263238"/>
<path d="M184.595 650.68C184.909 653.237 185.08 655.807 185.108 658.38C185.158 660.96 185.052 663.541 184.792 666.11C184.568 668.681 184.06 671.224 183.276 673.7C182.862 674.948 182.295 676.149 181.585 677.28C180.892 678.429 179.819 679.347 178.52 679.9C179.714 679.242 180.664 678.27 181.247 677.11C181.871 675.98 182.354 674.79 182.687 673.56C183.02 672.33 183.285 671.085 183.483 669.83C183.712 668.57 183.875 667.3 184.006 666.03C184.279 663.49 184.41 660.91 184.497 658.37C184.497 657.09 184.573 655.81 184.573 654.53C184.573 653.25 184.595 652 184.595 650.68Z" fill="#263238"/>
<path d="M185.239 652.3C185.359 652.741 185.385 653.2 185.315 653.65C185.254 654.107 185.078 654.545 184.802 654.93C184.806 654.485 184.842 654.04 184.912 653.6C184.972 653.157 185.082 652.722 185.239 652.3Z" fill="#263238"/>
<path d="M15.3348 740.94C16.0329 742.48 48.4475 776.36 50.5743 776.94C51.3705 777.16 57.031 773.12 63.7168 768.06C65.1565 766.97 66.6398 765.87 68.1449 764.67C77.8955 757.14 88.0714 748.94 88.0714 748.94L66.4762 726.21L47.1714 742.57L42.9287 746.16C42.9287 746.16 24.191 738.27 21.8134 737.87C19.4357 737.47 14.6477 739.4 15.3348 740.94Z" fill="#AD6359"/>
<path d="M15.3346 740.94C16.0327 742.47 48.4473 776.36 50.5741 776.94C51.5557 777.2 59.703 771.19 68.112 764.67L47.0949 742.57L42.8522 746.16C42.8522 746.16 24.1145 738.27 21.715 737.87C19.3156 737.47 14.6475 739.4 15.3346 740.94Z" fill="white"/>
<path d="M15.3347 740.94C16.0327 742.47 48.4473 776.36 50.5741 776.94C51.3703 777.16 57.0309 773.12 63.7167 768.06L42.8849 746.13C42.8849 746.13 24.1473 738.24 21.7478 737.84C19.3484 737.44 14.6476 739.4 15.3347 740.94Z" fill="#37474F"/>
<path d="M17.2871 740.21C22.8713 745.77 44.8264 768.67 49.8871 774.56C49.8871 774.56 49.8871 774.63 49.8871 774.56C44.2156 769.16 22.4677 746.1 17.1671 740.27C17.0799 740.21 17.178 740.11 17.2871 740.21Z" fill="#263238"/>
<path d="M25.1509 739C25.7758 739.614 26.2531 740.342 26.5518 741.136C26.8505 741.93 26.964 742.773 26.885 743.61C26.7703 745.117 26.0238 746.526 24.8019 747.54C24.8019 747.54 24.7037 747.54 24.7364 747.47C25.7968 746.287 26.405 744.819 26.4681 743.289C26.5311 741.759 26.0454 740.252 25.0854 739C25.0854 739 25.1509 738.93 25.1509 739Z" fill="#263238"/>
<path d="M40.1801 744.44C42.3614 746.68 44.0302 750.03 43.3649 753.07C43.3649 753.19 43.1467 753.15 43.1249 753.07C42.3626 750.168 41.2658 747.349 39.8529 744.66C39.8335 744.642 39.818 744.621 39.8075 744.598C39.7969 744.575 39.7915 744.55 39.7915 744.525C39.7915 744.5 39.7969 744.475 39.8075 744.452C39.818 744.428 39.8335 744.407 39.8529 744.39C39.902 744.372 39.9566 744.372 40.0056 744.39C40.034 744.393 40.0612 744.402 40.0856 744.416C40.1101 744.43 40.1311 744.448 40.1474 744.47L40.1801 744.44Z" fill="#263238"/>
<path d="M37.759 743.28C39.9403 745.52 41.609 748.86 40.9437 751.91C40.9437 752.03 40.7365 751.99 40.7147 751.91C39.9524 749.008 38.8556 746.189 37.4427 743.5C37.426 743.458 37.426 743.412 37.4427 743.37C37.4531 743.325 37.4809 743.285 37.521 743.257C37.5612 743.23 37.6108 743.216 37.6608 743.22C37.7095 743.222 37.7558 743.24 37.7917 743.27L37.759 743.28Z" fill="#263238"/>
<path d="M35.3268 742.13C37.5081 744.37 39.1877 747.72 38.5115 750.76C38.5115 750.89 38.3043 750.85 38.2825 750.76C37.5237 747.857 36.4268 745.038 35.0105 742.35C34.9853 742.308 34.978 742.259 34.9901 742.213C35.0022 742.167 35.0329 742.126 35.0759 742.1C35.1217 742.085 35.1719 742.085 35.2177 742.1C35.2679 742.105 35.3144 742.126 35.3486 742.16L35.3268 742.13Z" fill="#263238"/>
<path d="M32.9055 741C35.0869 743.24 36.7665 746.58 36.0903 749.62C36.0903 749.75 35.883 749.71 35.8503 749.62C35.0906 746.721 33.9936 743.904 32.5783 741.22C32.5599 741.189 32.5512 741.155 32.553 741.12C32.5548 741.085 32.5671 741.051 32.5885 741.022C32.6099 740.993 32.6397 740.97 32.6744 740.955C32.7092 740.941 32.7477 740.936 32.7855 740.94C32.8357 740.945 32.8822 740.966 32.9164 741H32.9055Z" fill="#263238"/>
<path d="M54.3805 768.39C56.8127 770.95 52.4828 774.39 50.0179 771.85C47.553 769.31 51.9484 765.83 54.3805 768.39Z" fill="white"/>
<path d="M40.9873 739.77C40.4311 742.38 41.1291 745.13 41.4563 747.77C41.4703 747.827 41.4983 747.88 41.5379 747.925C41.5776 747.97 41.6281 748.006 41.6853 748.03C41.7463 748.043 41.8097 748.043 41.8707 748.03C41.9317 748.043 41.9951 748.043 42.0561 748.03V748.03H42.1325C44.2467 746.036 45.7513 743.567 46.4952 740.87C46.8987 739.29 46.4952 737.02 44.3793 736.71C42.2634 736.4 41.3036 738.24 40.9873 739.77ZM42.9396 738C45.8517 736.05 45.9171 740 45.5681 741.11C45.3314 741.857 45.0399 742.589 44.6956 743.3C43.9583 744.748 43.1391 746.16 42.2416 747.53C42.1652 746.24 41.9798 744.98 41.8489 743.69C41.6962 742.15 41.3254 739.07 42.9396 738V738Z" fill="#263238"/>
<path d="M48.0439 739L70.6207 764.58L140.554 715.93L147.295 711.24C147.295 711.24 149.323 712.37 152.344 713.76C156.554 715.68 162.706 718.09 168.072 718.6C177.07 719.47 190.55 718.81 197.662 709.27C203.649 701.27 201.174 691.17 201.174 691.17L191.172 687.68C191.172 687.68 167.112 670.83 152.028 670.87C145.648 670.87 136.519 675.69 128.11 680.67C119.701 685.65 48.0439 739 48.0439 739Z" fill="#263238"/>
<path d="M147.294 711.21C147.294 711.21 149.323 712.34 152.344 713.73C157.307 707.78 167.908 696.92 168.235 696.53L147.294 711.21Z" fill="#37474F"/>
<path d="M182.403 682C183.832 682.83 185.217 683.72 186.624 684.57C188.031 685.42 189.449 686.2 190.78 687.12C192.11 688.04 193.408 689.12 194.684 690.12C195.295 690.61 195.917 691.12 196.506 691.62C197.132 692.114 197.718 692.649 198.261 693.22C198.261 693.28 198.261 693.34 198.152 693.31C197.484 692.906 196.843 692.465 196.233 691.99C195.557 691.52 194.891 690.99 194.215 690.53C192.928 689.6 191.608 688.71 190.321 687.78C189.034 686.85 187.846 685.84 186.57 684.9C185.293 683.96 183.777 682.98 182.37 682.04C182.338 682.07 182.37 682 182.403 682Z" fill="#37474F"/>
<path d="M53.0501 737.83C54.5007 739.15 55.8531 740.57 57.2165 741.97C58.5798 743.37 59.9431 744.78 61.2956 746.19C63.9895 749.03 66.7489 751.84 69.3665 754.71C70.828 756.28 72.2568 757.87 73.631 759.51C73.6855 759.58 73.5546 759.68 73.5001 759.61C70.6098 756.94 67.9595 754.08 65.2656 751.24C62.5716 748.4 59.8886 745.56 57.2274 742.69C55.7877 741.12 54.2826 739.55 52.941 737.9C52.8429 737.85 52.9629 737.77 53.0501 737.83Z" fill="#37474F"/>
<path d="M107.856 738.58C111.313 735.85 119.232 730.47 122.831 727.9C126.43 725.33 130.007 722.78 133.65 720.28C134.741 719.55 135.755 718.86 136.835 718.16C137.915 717.46 139.016 716.8 140.02 716.08C140.085 716.08 140.14 716.13 140.085 716.17C139.147 716.85 138.253 717.63 137.326 718.31C136.399 718.99 135.559 719.65 134.676 720.31C132.93 721.6 131.164 722.87 129.408 724.15C125.845 726.73 122.246 729.277 118.61 731.79C116.549 733.21 110.179 737.42 108.063 738.79C107.889 738.86 107.736 738.67 107.856 738.58Z" fill="#37474F"/>
<path d="M83.9813 712.17C87.166 709.52 94.5062 704.39 97.8655 701.94C101.225 699.49 104.649 696.94 108.074 694.46L118.25 687.1C121.522 684.72 124.794 682.31 128.295 680.17C130.204 679.01 132.167 677.92 134.196 676.93C136.153 675.908 138.204 675.045 140.325 674.35H140.391V674.42C138.656 675.42 136.846 676.22 135.101 677.17C133.356 678.12 131.676 679.08 130.018 680.09C126.517 682.23 123.245 684.61 119.973 687C113.178 691.89 106.416 696.8 99.5669 701.62C95.7387 704.33 88.1149 709.89 84.1231 712.4C83.9813 712.43 83.8613 712.26 83.9813 712.17Z" fill="#37474F"/>
</g>
<defs>
<clipPath id="clip0_236:6183">
<rect width="409" height="812" fill="white"/>
</clipPath>
</defs>
</svg>
