<svg width="258" height="447" viewBox="0 0 258 447" fill="none" xmlns="http://www.w3.org/2000/svg">
<g clip-path="url(#clip0_377_5349)">
<path d="M249.68 1.42969H17.32C13.9953 1.42969 11.3 4.12493 11.3 7.44969V28.2897C11.3 31.6144 13.9953 34.3097 17.32 34.3097H249.68C253.005 34.3097 255.7 31.6144 255.7 28.2897V7.44969C255.7 4.12493 253.005 1.42969 249.68 1.42969Z" fill="#FEFEE3" stroke="#1E724E" stroke-width="2.87"/>
<path d="M19.24 13.4804C21.184 13.4804 22.76 11.9045 22.76 9.96043C22.76 8.01639 21.184 6.44043 19.24 6.44043C17.2959 6.44043 15.72 8.01639 15.72 9.96043C15.72 11.9045 17.2959 13.4804 19.24 13.4804Z" fill="#1E724E"/>
<path d="M247.76 13.4804C249.704 13.4804 251.28 11.9045 251.28 9.96043C251.28 8.01639 249.704 6.44043 247.76 6.44043C245.816 6.44043 244.24 8.01639 244.24 9.96043C244.24 11.9045 245.816 13.4804 247.76 13.4804Z" fill="#1E724E"/>
<path d="M22.7631 26.4096C22.7838 24.4657 21.2247 22.8731 19.2808 22.8524C17.3369 22.8317 15.7442 24.3908 15.7235 26.3347C15.7028 28.2786 17.2619 29.8713 19.2058 29.892C21.1498 29.9127 22.7424 28.3536 22.7631 26.4096Z" fill="#1E724E"/>
<path d="M247.76 29.8896C249.704 29.8896 251.28 28.3137 251.28 26.3696C251.28 24.4256 249.704 22.8496 247.76 22.8496C245.816 22.8496 244.24 24.4256 244.24 26.3696C244.24 28.3137 245.816 29.8896 247.76 29.8896Z" fill="#1E724E"/>
<path d="M28.91 13.4805H237.5C238.077 13.4792 238.649 13.5917 239.183 13.8118C239.717 14.0318 240.202 14.355 240.611 14.7627C241.019 15.1705 241.344 15.6549 241.565 16.1882C241.786 16.7215 241.9 17.2931 241.9 17.8705C241.9 19.0374 241.436 20.1566 240.611 20.9818C239.786 21.8069 238.667 22.2705 237.5 22.2705H28.91C28.3327 22.2705 27.761 22.1566 27.2277 21.9354C26.6945 21.7141 26.2101 21.3899 25.8023 20.9811C25.3945 20.5724 25.0714 20.0873 24.8513 19.5535C24.6313 19.0198 24.5187 18.4478 24.52 17.8705V17.8705C24.5187 17.2936 24.6314 16.7222 24.8515 16.1889C25.0717 15.6557 25.395 15.1713 25.8029 14.7633C26.2108 14.3554 26.6953 14.0321 27.2285 13.812C27.7617 13.5918 28.3332 13.4792 28.91 13.4805V13.4805Z" fill="#1E724E"/>
<path d="M230.37 19.5996H35.45C31.4957 19.5996 28.29 22.8053 28.29 26.7596V126.76C28.29 130.714 31.4957 133.92 35.45 133.92H230.37C234.324 133.92 237.53 130.714 237.53 126.76V26.7596C237.53 22.8053 234.324 19.5996 230.37 19.5996Z" fill="white" stroke="#1E724E" stroke-width="2.87"/>
<g opacity="0.3">
<path opacity="0.3" d="M37.6899 20.5098V135.35" stroke="#1E724E" stroke-width="0.57"/>
<path opacity="0.3" d="M49.4102 20.5098V135.35" stroke="#1E724E" stroke-width="0.57"/>
<path opacity="0.3" d="M61.1301 20.5098V135.35" stroke="#1E724E" stroke-width="0.57"/>
<path opacity="0.3" d="M72.8501 20.5098V135.35" stroke="#1E724E" stroke-width="0.57"/>
<path opacity="0.3" d="M84.5701 20.5098V135.35" stroke="#1E724E" stroke-width="0.57"/>
<path opacity="0.3" d="M96.29 20.5098V135.35" stroke="#1E724E" stroke-width="0.57"/>
<path opacity="0.3" d="M108 20.5098V135.35" stroke="#1E724E" stroke-width="0.57"/>
<path opacity="0.3" d="M119.72 20.5098V135.35" stroke="#1E724E" stroke-width="0.57"/>
<path opacity="0.3" d="M131.44 20.5098V135.35" stroke="#1E724E" stroke-width="0.57"/>
<path opacity="0.3" d="M143.16 20.5098V135.35" stroke="#1E724E" stroke-width="0.57"/>
<path opacity="0.3" d="M154.88 20.5098V135.35" stroke="#1E724E" stroke-width="0.57"/>
<path opacity="0.3" d="M166.6 20.5098V135.35" stroke="#1E724E" stroke-width="0.57"/>
<path opacity="0.3" d="M178.32 20.5098V135.35" stroke="#1E724E" stroke-width="0.57"/>
<path opacity="0.3" d="M190.04 20.5098V135.35" stroke="#1E724E" stroke-width="0.57"/>
<path opacity="0.3" d="M201.76 20.5098V135.35" stroke="#1E724E" stroke-width="0.57"/>
<path opacity="0.3" d="M213.47 20.5098V135.35" stroke="#1E724E" stroke-width="0.57"/>
<path opacity="0.3" d="M225.19 20.5098V135.35" stroke="#1E724E" stroke-width="0.57"/>
<path opacity="0.3" d="M29.79 29.5996H237.21" stroke="#1E724E" stroke-width="0.57"/>
<path opacity="0.3" d="M29.79 41.3096H237.21" stroke="#1E724E" stroke-width="0.57"/>
<path opacity="0.3" d="M29.79 53.0293H237.21" stroke="#1E724E" stroke-width="0.57"/>
<path opacity="0.3" d="M29.79 64.75H237.21" stroke="#1E724E" stroke-width="0.57"/>
<path opacity="0.3" d="M29.79 76.4697H237.21" stroke="#1E724E" stroke-width="0.57"/>
<path opacity="0.3" d="M29.79 88.1895H237.21" stroke="#1E724E" stroke-width="0.57"/>
<path opacity="0.3" d="M29.79 99.9102H237.21" stroke="#1E724E" stroke-width="0.57"/>
<path opacity="0.3" d="M29.79 111.63H237.21" stroke="#1E724E" stroke-width="0.57"/>
<path opacity="0.3" d="M29.79 123.35H237.21" stroke="#1E724E" stroke-width="0.57"/>
<path opacity="0.3" d="M29.79 135.069H237.21" stroke="#1E724E" stroke-width="0.57"/>
</g>
<path d="M93.5499 66.0004C96.3099 66.1204 97.8299 66.1904 98.1299 66.2204C98.3356 65.9918 98.6127 65.8396 98.916 65.7888C99.2193 65.7379 99.5309 65.7914 99.7999 65.9404C100.012 65.9954 100.211 66.0941 100.383 66.2301C100.555 66.3661 100.697 66.5365 100.8 66.7304C100.884 66.8692 100.928 67.0282 100.928 67.1904C100.928 67.3525 100.884 67.5116 100.8 67.6504L99.9199 69.1304C99.5099 69.8104 99.2199 70.2804 99.0399 70.5304C98.9867 70.6412 98.9118 70.7402 98.8197 70.8216C98.7276 70.903 98.6201 70.9651 98.5036 71.0043C98.387 71.0434 98.2638 71.0588 98.1413 71.0496C98.0187 71.0403 97.8992 71.0066 97.7899 70.9504C97.5574 70.8642 97.3652 70.6947 97.2507 70.4748C97.1361 70.2549 97.1073 70.0003 97.1699 69.7604C97.1699 69.5404 97.3699 69.0004 97.6399 68.1404C96.9799 68.1904 95.9099 68.2604 94.4499 68.3304L91.7799 68.4904L90.0199 70.8004C89.9558 70.9032 89.8718 70.9921 89.7729 71.062C89.6739 71.1319 89.562 71.1813 89.4438 71.2074C89.3255 71.2334 89.2032 71.2356 89.084 71.2138C88.9649 71.192 88.8513 71.1467 88.7499 71.0804C88.64 71.0261 88.5419 70.9507 88.4613 70.8584C88.3807 70.7662 88.3191 70.6589 88.28 70.5427C88.241 70.4265 88.2253 70.3038 88.2339 70.1816C88.2424 70.0593 88.2751 69.94 88.3299 69.8304C88.7467 68.923 89.2176 68.0414 89.7399 67.1904C90.6199 65.6304 91.0999 64.7304 91.1899 64.4804C91.2409 64.3362 91.3286 64.2078 91.4443 64.1079C91.5601 64.0079 91.6998 63.9399 91.8499 63.9104C92.2577 63.8283 92.6814 63.8996 93.0399 64.1104C93.2268 64.1956 93.3947 64.3174 93.5338 64.4685C93.6729 64.6197 93.7804 64.7971 93.8499 64.9904C93.9122 65.138 93.9331 65.2999 93.9101 65.4585C93.8872 65.6171 93.8215 65.7664 93.7199 65.8904L93.5499 66.0004ZM98.2199 71.5904C98.2199 71.6804 98.7199 72.2404 99.5599 73.2804C100.017 73.7999 100.422 74.3626 100.77 74.9604C100.87 75.1155 100.912 75.3011 100.888 75.4842C100.864 75.6673 100.776 75.8361 100.64 75.9604C100.488 76.1155 100.29 76.217 100.075 76.2494C99.8603 76.2819 99.6409 76.2436 99.4499 76.1404C98.8693 75.7634 98.3238 75.335 97.8199 74.8604L96.1899 73.5004C96.076 73.4144 95.9872 73.2995 95.9327 73.1676C95.8782 73.0357 95.86 72.8917 95.8799 72.7504C95.9634 72.3597 96.1745 72.0079 96.4799 71.7504C96.7419 71.4771 97.1015 71.3189 97.4799 71.3104C97.6135 71.2851 97.7513 71.2938 97.8806 71.3357C98.0099 71.3777 98.1266 71.4515 98.2199 71.5504V71.5904ZM90.0999 78.8304C89.9917 78.7509 89.9061 78.6444 89.8517 78.5216C89.7973 78.3988 89.776 78.264 89.7899 78.1304C89.8361 77.7428 90.025 77.3862 90.3199 77.1304C90.575 76.8394 90.934 76.6599 91.3199 76.6304C91.4541 76.6072 91.5923 76.6242 91.7168 76.6794C91.8414 76.7346 91.9468 76.8254 92.0199 76.9404C93.4599 78.8604 94.1599 79.7704 94.1299 79.6904C94.2015 79.8428 94.2274 80.0128 94.2043 80.1797C94.1813 80.3465 94.1102 80.5031 93.9999 80.6304C93.8574 80.7825 93.6733 80.8892 93.4706 80.9372C93.2678 80.9852 93.0554 80.9724 92.8599 80.9004C92.3755 80.6069 91.9171 80.2723 91.4899 79.9004L90.0999 78.8304ZM91.9999 70.8904C92.3999 71.2604 92.3799 71.7704 91.9999 72.4304C91.8599 72.6304 91.4799 73.1404 90.8499 73.9504C90.2199 74.7604 89.8499 75.3204 89.6399 75.5504C89.548 75.7057 89.4159 75.8332 89.2574 75.9194C89.099 76.0057 88.9202 76.0475 88.7399 76.0404C88.3019 76.0467 87.8781 75.8858 87.5547 75.5903C87.2314 75.2948 87.0329 74.8871 86.9999 74.4504C87.003 74.2703 87.048 74.0934 87.1313 73.9337C87.2146 73.774 87.334 73.6359 87.4799 73.5304C87.6899 73.3704 88.1999 72.9404 88.9999 72.2504C89.7999 71.5604 90.2699 71.1804 90.4799 71.0204C91.0999 70.5704 91.5899 70.5204 91.9999 70.8904ZM95.1199 75.8204C94.9599 76.6737 94.3899 76.9737 93.4099 76.7204C92.8423 76.5886 92.2843 76.4182 91.7399 76.2104C91.6439 76.1937 91.5527 76.1565 91.4723 76.1015C91.392 76.0464 91.3244 75.9748 91.2741 75.8913C91.2239 75.8079 91.1921 75.7146 91.181 75.6178C91.17 75.5211 91.1798 75.423 91.2099 75.3304C91.2414 75.1752 91.3321 75.0383 91.4627 74.9487C91.5934 74.8591 91.7537 74.8238 91.9099 74.8504L92.9099 74.9804L92.7499 72.4304C92.6766 70.9504 92.6266 70.1004 92.5999 69.8804C92.4699 69.0704 92.9499 68.6504 94.0499 68.6204C94.5118 68.5862 94.9713 68.7135 95.3499 68.9804C95.4973 69.0734 95.6122 69.2101 95.6785 69.3713C95.7448 69.5326 95.7593 69.7105 95.7199 69.8804C95.6266 70.2937 95.5166 71.2937 95.3899 72.8804C95.2899 74.4504 95.1899 75.4404 95.1099 75.8204H95.1199ZM81.2999 72.7204C80.8699 72.3904 80.8599 71.8904 81.2999 71.2004C81.5099 70.8004 82.2999 69.6604 83.6599 67.7704C85.0199 65.8804 85.8699 64.6604 86.0799 64.3104C86.1688 64.1563 86.2973 64.0287 86.452 63.9408C86.6067 63.8529 86.782 63.8079 86.9599 63.8104C87.3994 63.7973 87.8289 63.9428 88.1699 64.2204L88.2599 64.2904C88.6088 64.5484 88.8508 64.9256 88.9399 65.3504C88.988 65.5276 88.9865 65.7147 88.9353 65.8911C88.8842 66.0675 88.7854 66.2264 88.6499 66.3504C88.2999 66.7004 87.5699 67.4704 86.4699 68.6804C86.6218 68.7598 86.7433 68.8871 86.8156 69.0426C86.8879 69.1981 86.907 69.373 86.8699 69.5404C86.8699 69.9004 86.7399 71.1004 86.6099 73.1204C86.4799 75.1404 86.3599 76.3004 86.3199 76.6604C86.1399 77.3271 85.8066 77.6604 85.3199 77.6604C84.8332 77.6604 84.4999 77.3271 84.3199 76.6604L83.9499 71.4504C83.3999 72.0204 83.0699 72.3704 82.9499 72.4504C82.3499 72.9804 81.8399 73.0804 81.4099 72.7604L81.2999 72.7204ZM84.9299 78.4404C85.3699 78.6804 85.4699 79.1504 85.2399 79.8204C85.1499 80.0704 84.9099 80.6404 84.5099 81.5404C84.1099 82.4404 83.8099 83.1504 83.7399 83.3404C83.6797 83.5024 83.5808 83.6472 83.4518 83.7622C83.3228 83.8773 83.1677 83.959 82.9999 84.0004C82.6224 84.0944 82.2233 84.044 81.8811 83.859C81.5388 83.674 81.278 83.3677 81.1499 83.0004C81.1027 82.8284 81.0981 82.6474 81.1364 82.4732C81.1748 82.299 81.2549 82.1367 81.3699 82.0004C83.0099 79.7404 83.7499 78.7071 83.5899 78.9004C84.0599 78.3604 84.4899 78.2004 84.9299 78.4404V78.4404ZM87.1899 77.6704C87.4644 77.6093 87.7514 77.6434 88.004 77.767C88.2565 77.8905 88.4596 78.0962 88.5799 78.3504C89.4866 80.8304 90.4266 82.2904 91.3999 82.7304C92.3999 83.0845 93.4609 83.2342 94.5199 83.1704C94.7264 83.1829 94.9334 83.1829 95.1399 83.1704C95.1399 83.0204 95.1399 82.8004 95.2199 82.5104L95.3099 81.9404C95.3699 81.4804 95.5199 81.2504 95.7699 81.2404H95.8599C96.1099 81.2404 96.3399 81.5104 96.5399 82.0804C96.7544 82.6669 96.9249 83.2685 97.0499 83.8804C96.9899 84.4304 96.4299 84.7804 95.3599 84.9404C93.4077 85.3151 91.3876 85.0849 89.5699 84.2804C87.7399 83.3604 86.5699 81.5704 85.9199 78.9304C85.8777 78.7898 85.874 78.6405 85.9092 78.4981C85.9443 78.3556 86.0171 78.2252 86.1199 78.1204C86.2544 77.9976 86.4123 77.9033 86.5841 77.8432C86.756 77.783 86.9382 77.7583 87.1199 77.7704L87.1899 77.6704ZM101.12 81.7404C101.173 81.9037 101.172 82.0799 101.116 82.2423C101.06 82.4047 100.952 82.5445 100.81 82.6404C100.641 82.761 100.438 82.8258 100.23 82.8258C100.022 82.8258 99.8193 82.761 99.6499 82.6404C99.7766 82.7071 98.8799 81.7804 96.9599 79.8604C96.8648 79.7593 96.7988 79.6343 96.7688 79.4988C96.7389 79.3633 96.7462 79.2221 96.7899 79.0904C96.9107 78.7229 97.159 78.4107 97.4899 78.2104C97.78 78.0025 98.134 77.9034 98.4899 77.9304C98.6252 77.9433 98.7549 77.9905 98.8669 78.0675C98.9788 78.1445 99.0694 78.2487 99.1299 78.3704L100.19 80.0804C100.564 80.5953 100.876 81.1524 101.12 81.7404V81.7404ZM105.85 79.8404L109.74 80.1704L109.55 76.2804C109.27 76.2804 108.09 76.4004 106 76.5404L105.85 79.8404ZM106.27 70.7604C106.18 72.4704 106.13 73.6104 106.11 74.1704C107.26 74.1704 108.37 74.2504 109.46 74.3204C109.39 72.5204 109.32 71.2504 109.26 70.5204L106.27 70.7604ZM116.76 64.3104C117.189 64.4718 117.545 64.7848 117.76 65.1904C117.86 65.3655 117.912 65.5637 117.912 65.7654C117.912 65.9671 117.86 66.1652 117.76 66.3404C117.64 66.5604 117.36 67.1104 116.92 68.0104C118.01 68.0104 118.92 68.0804 119.78 68.1404C120.127 67.8609 120.565 67.7186 121.01 67.7404C121.269 67.736 121.526 67.7853 121.766 67.8851C122.005 67.9849 122.221 68.1331 122.4 68.3204C122.558 68.4791 122.675 68.6744 122.739 68.889C122.804 69.1035 122.814 69.3308 122.77 69.5504C122.703 70.1837 122.5 72.3604 122.16 76.0804C121.82 79.6604 121.59 81.9804 121.45 83.0804C121.31 84.4504 120.6 84.8704 119.32 84.3604L117.12 83.4804C116.52 83.1704 116.28 82.7904 116.42 82.3404C116.56 81.8904 116.91 81.7904 117.52 81.8504C118.13 81.9104 118.59 81.9704 119.28 82.0704C119.28 81.3204 119.28 79.5204 119.28 76.6604V70.5204L115.65 70.7604C114.99 72.1104 114.55 73.0104 114.31 73.4504L114.66 73.2304C115.02 73.0048 115.453 72.9261 115.87 73.0104C116.027 73.0444 116.173 73.1159 116.297 73.2186C116.421 73.3213 116.518 73.4522 116.58 73.6004C116.58 73.7504 116.99 74.4204 117.65 75.6004C118.065 76.2229 118.401 76.8947 118.65 77.6004C118.71 77.803 118.697 78.0202 118.612 78.214C118.528 78.4077 118.379 78.5658 118.19 78.6604C117.981 78.7843 117.737 78.8367 117.495 78.8096C117.253 78.7826 117.027 78.6775 116.85 78.5104C115.729 77.4683 114.745 76.289 113.92 75.0004C113.789 74.8134 113.722 74.5887 113.73 74.3604C113.608 74.5426 113.429 74.6795 113.221 74.7499C113.013 74.8204 112.788 74.8206 112.58 74.7504H112.49C112.356 74.7086 112.236 74.6328 112.14 74.5304C111.88 79.8204 111.75 82.4104 111.77 82.3004C111.67 83.3004 111.35 83.8104 110.77 83.8104C110.19 83.8104 109.91 83.3104 109.77 82.3004V82.1204C107.84 82.2704 106.47 82.3804 105.66 82.4704C105.58 83.4704 105.27 83.9704 104.66 83.9704C104.05 83.9704 103.8 83.4604 103.66 82.4504C103.607 81.8504 103.497 79.6937 103.33 75.9804C103.163 72.2671 103.053 70.0971 103 69.4704C102.978 69.2639 103.005 69.0553 103.078 68.8609C103.151 68.6666 103.268 68.4918 103.42 68.3504C103.693 68.1188 104.026 67.9703 104.38 67.9224C104.735 67.8746 105.096 67.9294 105.42 68.0804C105.42 67.8804 105.53 67.4004 105.68 66.6504C105.83 65.9004 105.89 65.4704 105.92 65.2004C105.935 65.0413 105.999 64.8907 106.103 64.7691C106.207 64.6475 106.345 64.5606 106.5 64.5204C106.926 64.3652 107.394 64.3652 107.82 64.5204C108.262 64.6307 108.645 64.9062 108.89 65.2904C108.988 65.4389 109.04 65.6127 109.04 65.7904C109.04 65.9681 108.988 66.1419 108.89 66.2904L107.83 68.4204L109.33 68.5504C109.488 68.3787 109.682 68.2433 109.898 68.1535C110.114 68.0638 110.346 68.0218 110.58 68.0304C110.799 68.0213 111.018 68.0575 111.223 68.1366C111.427 68.2158 111.614 68.3362 111.77 68.4904C111.918 68.6345 112.033 68.8096 112.106 69.0033C112.178 69.1969 112.207 69.4043 112.19 69.6104C112.19 69.7304 112.12 70.5404 112.03 72.0504C112.19 71.5104 112.62 70.2404 113.31 68.2504C113.87 66.6004 114.2 65.5504 114.31 65.0804C114.357 64.8892 114.453 64.7134 114.588 64.5698C114.723 64.4262 114.892 64.3197 115.08 64.2604C115.527 64.1239 116.009 64.1487 116.44 64.3304L116.76 64.3104ZM140.24 81.1204C142.95 81.2404 144.45 81.3104 144.75 81.3404C145.64 81.4404 146.09 81.7604 146.09 82.3404C146.09 82.9204 145.67 83.2204 144.79 83.3404C144.2 83.4304 142.27 83.5604 138.98 83.7604C135.69 83.9604 133.59 84.0604 133.15 84.1104C132.962 84.128 132.772 84.0989 132.597 84.0257C132.423 83.9524 132.269 83.8373 132.15 83.6904C131.885 83.357 131.738 82.9459 131.73 82.5204C131.708 82.0965 131.851 81.6807 132.13 81.3604C132.248 81.2106 132.4 81.092 132.575 81.0153C132.749 80.9385 132.94 80.906 133.13 80.9204C133.72 80.9204 135.4 81.0104 138.19 81.0904L137.99 77.8204C136.11 77.9204 134.94 78.0004 134.47 78.0604C134.298 78.077 134.125 78.049 133.967 77.9789C133.81 77.9088 133.673 77.7991 133.57 77.6604C133.316 77.3433 133.181 76.9468 133.19 76.5404C133.168 76.1476 133.296 75.7612 133.55 75.4604C133.649 75.3211 133.781 75.2094 133.935 75.1359C134.089 75.0623 134.26 75.0295 134.43 75.0404L137.88 75.1804L137.7 71.5504C136.62 71.5504 135.92 71.6304 135.59 71.6804H135.26C135.074 72.2695 134.854 72.8472 134.6 73.4104C134.32 73.9904 133.94 74.2004 133.46 74.0504H133.37C132.9 73.9004 132.69 73.5104 132.73 72.8604C132.759 72.4542 132.812 72.0501 132.89 71.6504C132.802 71.7295 132.705 71.7968 132.6 71.8504C132.431 71.9531 132.231 71.9914 132.036 71.9584C131.842 71.9253 131.665 71.823 131.54 71.6704C131.44 71.5604 131.15 71.1604 130.69 70.4904L130.34 78.0004C130.22 80.8904 130.14 82.6404 130.09 83.2404C130.02 84.4104 129.68 85.0004 129.09 85.0004C128.5 85.0004 128.09 84.4104 128.09 83.2404C128.037 82.647 127.957 80.8571 127.85 77.8704L127.52 70.2104L126.88 73.2904C126.87 73.4409 126.823 73.5866 126.743 73.7141C126.663 73.8417 126.552 73.947 126.42 74.0204C126.107 74.1673 125.75 74.1922 125.42 74.0904C124.6 73.8104 124.33 73.3204 124.61 72.6104C124.71 72.3904 124.96 71.8004 125.36 70.8304C125.76 69.8604 126.02 69.2604 126.11 69.0704C126.37 68.4804 126.72 68.2504 127.11 68.3704C127.168 68.3753 127.224 68.3931 127.274 68.4225C127.324 68.452 127.367 68.4922 127.4 68.5404C127.4 67.4704 127.3 66.5404 127.24 65.8804C127.231 65.644 127.276 65.4086 127.371 65.192C127.466 64.9754 127.609 64.7834 127.79 64.6304C127.964 64.4593 128.17 64.3244 128.397 64.2334C128.623 64.1425 128.866 64.0973 129.11 64.1004C129.352 64.093 129.592 64.1363 129.816 64.2276C130.04 64.3189 130.242 64.4561 130.41 64.6304C130.577 64.7912 130.707 64.9861 130.791 65.2019C130.876 65.4176 130.913 65.649 130.9 65.8804C130.82 67.1004 130.79 67.7604 130.79 67.8804C131.078 67.7615 131.402 67.7615 131.69 67.8804C131.798 67.9101 131.896 67.9686 131.973 68.0496C132.051 68.1306 132.105 68.2311 132.13 68.3404C132.13 68.5004 132.32 68.8904 132.57 69.5104C132.82 70.1304 132.99 70.5104 133.05 70.7604C133.49 68.4404 133.71 67.2504 133.71 67.1704C133.728 67.0167 133.789 66.8713 133.887 66.7509C133.984 66.6306 134.113 66.5403 134.26 66.4904C134.637 66.3493 135.053 66.3493 135.43 66.4904H135.49C135.89 66.574 136.246 66.8018 136.49 67.1304C136.586 67.2572 136.647 67.4074 136.667 67.5655C136.686 67.7236 136.663 67.8841 136.6 68.0304L136.29 68.8704L137.61 68.9304C137.54 67.3204 137.47 66.2604 137.41 65.7704C137.39 65.5405 137.428 65.3092 137.521 65.0979C137.613 64.8865 137.757 64.7017 137.94 64.5604C138.313 64.2182 138.804 64.0352 139.31 64.0504C139.8 64.0387 140.275 64.2222 140.63 64.5604C140.801 64.7087 140.934 64.8961 141.018 65.1067C141.101 65.3173 141.133 65.545 141.11 65.7704C141.02 66.9204 140.96 68.0204 140.91 69.0404C142.63 69.1337 143.59 69.1937 143.79 69.2204C144.48 69.3404 144.79 69.6504 144.85 70.2204C144.91 70.7904 144.5 71.0404 143.79 71.2204C142.795 71.3609 141.794 71.451 140.79 71.4904L140.59 75.4304C142.19 75.4304 143.26 75.5304 143.78 75.6004C144.56 75.7004 144.95 76.0104 144.95 76.5304C144.95 77.0504 144.57 77.3904 143.81 77.5304C143.53 77.5304 142.42 77.6704 140.48 77.8104C140.41 79.3404 140.35 80.4404 140.31 81.1104L140.24 81.1204ZM154.91 67.1204L150.8 67.3904L150.6 70.0304L155.15 70.3104L154.91 67.1204ZM148.51 71.9204C148.51 71.5804 148.38 70.6604 148.27 69.1704L148 66.3804C147.96 66.1967 147.972 66.0055 148.036 65.8286C148.1 65.6517 148.212 65.4964 148.36 65.3804C148.504 65.2378 148.676 65.1269 148.866 65.0546C149.055 64.9823 149.257 64.9502 149.46 64.9604C149.727 64.9583 149.991 65.02 150.23 65.1404L155.11 65.4504C155.255 65.3088 155.427 65.1985 155.616 65.1263C155.806 65.054 156.008 65.0214 156.21 65.0304C156.412 65.0237 156.613 65.0574 156.802 65.1295C156.991 65.2017 157.164 65.3107 157.31 65.4504C157.446 65.5624 157.55 65.7083 157.611 65.8733C157.673 66.0384 157.69 66.2168 157.66 66.3904C157.66 66.7604 157.54 67.6804 157.42 69.1404L157.18 71.8104C157.06 72.5804 156.74 72.9704 156.23 72.9704C155.72 72.9704 155.43 72.6404 155.29 71.9704C154.79 71.9704 153.96 72.0704 152.8 72.1504L150.36 72.3004C150.338 72.5178 150.235 72.7192 150.072 72.8652C149.91 73.0113 149.698 73.0915 149.48 73.0904C149 73.1304 148.65 72.7404 148.51 72.0004V71.9204ZM154.01 74.5604L155.44 74.6204C155.754 74.4252 156.12 74.3277 156.49 74.3404C156.734 74.321 156.98 74.3519 157.212 74.431C157.445 74.5101 157.658 74.6358 157.84 74.8004C157.989 74.9332 158.102 75.1025 158.167 75.2917C158.232 75.481 158.247 75.6837 158.21 75.8804C158.14 76.3904 157.99 77.6404 157.77 79.6204C157.55 81.6004 157.42 82.8804 157.33 83.4704C157.17 84.4704 156.49 84.8204 155.28 84.4704L153.57 84.0004C153 83.8104 152.77 83.4604 152.89 83.0004C153.01 82.5404 153.3 82.4504 153.81 82.4904L155.06 82.6204L154.93 76.8404L152.84 76.9704C150.413 81.6571 149.197 84.0004 149.19 84.0004C148.87 84.6604 148.44 84.8904 147.91 84.7004C147.38 84.5104 147.24 84.0504 147.47 83.2704C147.59 82.8304 148.39 80.7771 149.87 77.1104C148.87 77.1104 148.29 77.2004 148 77.2504C147.841 77.2575 147.683 77.2267 147.539 77.1606C147.395 77.0945 147.268 76.9951 147.17 76.8704C146.951 76.5812 146.826 76.2325 146.81 75.8704C146.805 75.5096 146.922 75.1577 147.14 74.8704C147.238 74.7425 147.366 74.6402 147.512 74.5723C147.658 74.5044 147.819 74.4728 147.98 74.4804L150.88 74.6104C151.06 74.1404 151.19 73.7604 151.28 73.4604C151.33 73.2878 151.417 73.128 151.534 72.9918C151.652 72.8555 151.797 72.7459 151.96 72.6704C152.37 72.5047 152.829 72.5047 153.24 72.6704C153.437 72.7377 153.616 72.8481 153.765 72.9934C153.913 73.1387 154.028 73.3153 154.1 73.5104C154.169 73.6768 154.204 73.8552 154.204 74.0354C154.204 74.2156 154.169 74.394 154.1 74.5604H154.01ZM161.42 79.0004C161.29 79.8104 160.98 80.2104 160.5 80.2104C160.02 80.2104 159.7 79.8104 159.55 79.0004C159.55 78.6504 159.43 76.8604 159.27 73.6404C159.12 70.5704 159.01 68.7704 158.94 68.2204C158.919 68.0463 158.943 67.8697 159.012 67.7082C159.08 67.5467 159.19 67.4061 159.33 67.3004C159.665 67.0438 160.079 66.9129 160.5 66.9304C160.918 66.9109 161.33 67.0422 161.66 67.3004C161.794 67.4094 161.898 67.5516 161.961 67.7128C162.025 67.8741 162.045 68.049 162.02 68.2204C161.97 68.7504 161.87 70.5604 161.71 73.6404C161.55 76.7204 161.45 78.5504 161.42 79.0004ZM164.74 64.4004C164.972 64.3884 165.204 64.4249 165.42 64.5076C165.637 64.5902 165.835 64.7172 166 64.8804C166.157 65.0294 166.278 65.2121 166.355 65.4148C166.431 65.6174 166.46 65.8348 166.44 66.0504C166.38 66.8404 166.26 69.6204 166.09 74.4104C165.92 79.2004 165.76 82.4104 165.69 83.5604C165.704 83.8203 165.655 84.0798 165.547 84.3167C165.439 84.5536 165.275 84.7607 165.07 84.9204C164.866 85.0273 164.64 85.0831 164.41 85.0831C164.18 85.0831 163.953 85.0273 163.75 84.9204C161.93 84.1004 161.03 83.6904 161.05 83.7104C160.463 83.3971 160.273 83.0171 160.48 82.5704C160.65 82.2304 161.02 82.1004 161.58 82.1904L163.73 82.5704C163.73 81.7704 163.59 79.0204 163.42 74.2904C163.25 69.5604 163.17 66.6804 163.14 66.0704C163.117 65.8557 163.139 65.6385 163.207 65.4334C163.274 65.2282 163.384 65.0397 163.53 64.8804C163.683 64.7128 163.87 64.5798 164.079 64.4901C164.288 64.4005 164.513 64.3562 164.74 64.3604V64.4004ZM174.56 70.4004C175.3 70.4004 176.84 70.5104 179.18 70.6004L183.69 70.8004L183.58 69.2304C182.89 69.2904 181.37 69.3704 179.02 69.4804C176.49 69.5904 175.02 69.6704 174.6 69.7004L174.56 70.4004ZM183.36 66.3304L174.8 66.7004L174.75 67.3404L183.44 67.6504L183.36 66.3304ZM180.56 81.1104L188 83.3204C189 83.6104 189.46 84.0604 189.35 84.6604C189.24 85.2604 188.62 85.4504 187.52 85.2804C186.8 85.1704 184.57 84.7304 180.83 83.9404C177.09 83.1504 174.76 82.6504 174.1 82.5504C173.773 82.5149 173.469 82.3664 173.24 82.1304C172.05 83.5404 171.35 84.3604 171.13 84.6004C171.066 84.7074 170.981 84.8001 170.879 84.8727C170.778 84.9453 170.663 84.9964 170.541 85.0226C170.419 85.0489 170.293 85.0498 170.171 85.0253C170.048 85.0009 169.932 84.9515 169.83 84.8804C169.38 84.6004 169.28 84.1604 169.55 83.5604C169.66 83.3004 170.36 82.2204 171.64 80.3304C172.92 78.4404 173.64 77.3304 173.77 77.0304C173.839 76.8873 173.941 76.7628 174.068 76.6671C174.195 76.5715 174.343 76.5074 174.5 76.4804C174.701 76.4373 174.909 76.4346 175.112 76.4723C175.314 76.5101 175.507 76.5876 175.68 76.7004C175.862 76.7949 176.022 76.9279 176.148 77.0902C176.274 77.2525 176.363 77.4402 176.41 77.6404C176.456 77.7998 176.462 77.9683 176.428 78.1307C176.393 78.2931 176.318 78.4442 176.21 78.5704L175.49 79.4704L178.57 80.4704C178.42 78.3504 178.3 76.9504 178.21 76.2604C173.81 76.4737 171.377 76.6071 170.91 76.6604C170.701 76.6901 170.488 76.6652 170.292 76.5881C170.096 76.511 169.923 76.3843 169.79 76.2204C169.482 75.8998 169.307 75.4747 169.3 75.0304C169.292 74.8174 169.326 74.605 169.402 74.4057C169.478 74.2064 169.593 74.0244 169.74 73.8704C169.876 73.714 170.045 73.5904 170.236 73.509C170.426 73.4276 170.633 73.3904 170.84 73.4004L173.09 73.4904C172.82 73.3404 172.64 72.9704 172.54 72.3704C172.49 71.9904 172.41 70.8704 172.27 69.0304C172.13 67.1904 172.05 65.9704 172.01 65.5704C171.98 65.3877 171.997 65.2006 172.058 65.0259C172.119 64.8513 172.223 64.6947 172.36 64.5704C172.509 64.4291 172.685 64.3198 172.877 64.2493C173.07 64.1788 173.275 64.1485 173.48 64.1604C173.772 64.1473 174.062 64.2129 174.32 64.3504C175 64.3504 176.48 64.4604 178.79 64.5504L183.58 64.7704C183.724 64.5913 183.909 64.4496 184.12 64.3573C184.331 64.265 184.56 64.2249 184.79 64.2404C185.214 64.2235 185.627 64.3744 185.94 64.6604C186.071 64.7887 186.169 64.9465 186.226 65.1204C186.283 65.2943 186.299 65.4795 186.27 65.6604C186.22 66.0904 186.13 67.1804 186 68.9404L185.76 72.1504C185.64 72.9604 185.33 73.3604 184.76 73.3604C184.19 73.3604 183.96 72.9904 183.82 72.2404C183.22 72.2404 181.64 72.3604 179.09 72.4604L174.34 72.7004C174.324 72.8657 174.267 73.0245 174.175 73.1624C174.082 73.3004 173.957 73.4131 173.81 73.4904C175.317 73.5504 177.983 73.6337 181.81 73.7404L187.53 73.9104C188.53 73.9704 189.07 74.2604 189.09 74.7704C189.11 75.2804 188.58 75.6604 187.55 75.7704C186.883 75.837 184.69 75.9537 180.97 76.1204L180.86 77.4404C184.32 77.5604 186.263 77.6637 186.69 77.7504C187.223 77.8704 187.493 78.1404 187.5 78.5604C187.5 78.9704 187.24 79.2504 186.71 79.4004C185.749 79.5402 184.781 79.627 183.81 79.6604L180.66 79.8604L180.56 81.1104Z" fill="#1E724E"/>
</g>
<defs>
<clipPath id="clip0_377_5349">
<rect width="258" height="447" fill="white"/>
</clipPath>
</defs>
</svg>
