<svg width="375" height="702" viewBox="0 0 375 702" fill="none" xmlns="http://www.w3.org/2000/svg">
<path d="M27.9099 47.5696C24.4799 40.0696 31.7299 2.11957 25.6999 2.17957C19.6699 2.23957 7.94993 13.4296 7.41993 25.5796C6.88993 37.7296 14.9999 52.9196 14.4999 59.6696C13.9999 66.4196 10.9099 69.4296 9.55993 69.6696C8.20993 69.9096 -2.44007 33.3796 -11.0801 31.7896C-19.7201 30.1996 -24.0101 40.2996 -22.8601 51.7896C-21.7101 63.2796 -0.270069 76.8396 1.33993 82.7896C2.94993 88.7396 -0.0800705 93.7896 -1.75007 92.4796C-3.42007 91.1696 -18.1801 72.4796 -25.4601 68.5696C-32.7401 64.6596 -39.0301 66.7096 -33.3001 78.5696C-27.5701 90.4296 -9.65007 99.0996 -9.12007 103.78C-8.59007 108.46 -11.2401 108.4 -13.3001 107.02C-15.3601 105.64 -27.7901 94.5696 -32.9301 91.6796C-38.0701 88.7896 -38.0801 99.9896 -37.1301 103.68C-36.1801 107.37 -28.2001 114.92 -25.3601 116.46C-22.5201 118 -17.5201 116.76 -16.2201 119.12C-14.9201 121.48 -20.7001 125.71 -20.7601 127.23C-20.8201 128.75 -15.3301 133.49 -13.5201 132.89C-11.7101 132.29 -10.8901 126.65 -8.08007 125.89C-5.27007 125.13 -4.82007 130.89 1.07993 132.82C6.97993 134.75 23.4899 134.82 27.3599 130.48C31.2299 126.14 6.35993 120.09 1.68993 116.25C-1.22007 113.09 -0.760071 109.63 2.30993 110.01C5.37993 110.39 39.3699 126.87 45.9999 123C52.6299 119.13 50.2499 118.7 46.7799 116C43.3099 113.3 16.2799 105.9 16.7999 100.93C17.3199 95.9596 53.7999 110.12 62.6299 105.13C71.4599 100.14 79.3999 91.9996 76.2299 87.7296C73.0599 83.4596 41.3499 90.7296 35.7099 84.7296C30.0699 78.7296 37.8599 81.7296 43.4699 80.2496C49.0799 78.7696 74.4099 77.9696 78.1399 73.4896C81.8699 69.0096 86.7099 65.3896 81.9999 60.8096C77.2899 56.2296 49.8399 65.5096 48.3699 61.6596C46.8999 57.8096 63.9999 56.6196 72.4799 48.9096C80.9599 41.1996 83.1499 28.0896 79.9199 26.4696C76.6899 24.8496 76.8399 24.9596 74.9199 27.4696C72.9999 29.9796 67.8199 39.4196 62.4499 42.8496C57.0799 46.2796 54.2199 49.6496 53.4499 47.7296C52.6799 45.8096 56.7399 40.6496 60.7299 37.2696C64.7199 33.8896 73.8299 27.0896 74.4999 23.3496C75.1699 19.6096 80.3299 7.26957 67.6899 1.63957C55.0499 -3.99044 48.2299 6.16956 44.1999 13.3396C40.1699 20.5096 38.9999 27.6996 36.6199 35.6796C34.2399 43.6596 29.4499 50.9296 27.9099 47.5796V47.5696Z" fill="#1E724E"/>
<path d="M310.46 112.18C313.91 108.48 348.79 114.57 356.71 120.99C357.06 126.52 354.84 135.76 356.49 139.75C358.35 134.21 363.31 123.32 363.31 123.32L381.15 133.15L376.55 152.87L387 137.32L401.36 149.59L394.81 167.47L405.72 155.67L418.14 172.89L409.42 192L419.73 180L426.45 190.64L422.22 206.49L429.39 200.13C429.39 200.13 436.07 212.13 434.73 219.66C433.39 227.19 432.46 233.91 430.31 235.8C428.16 237.69 412.66 237.11 406.52 234.8C400.38 232.49 395.94 230.52 395.94 230.52L400.57 227.72L387.12 226L376.94 216.45L387.8 216.37L371.46 211.6L363.06 197.13L379.72 196.13L358.07 191.13L348.89 178L365.36 176.06L343 171.85L333.75 156.79L348.65 156.04L329.58 151.67L323.37 137.34H334.54L319.49 130.09C319.49 130.09 314.97 120.23 310.07 115.47C307.85 113.6 310.52 112.2 310.52 112.2L310.46 112.18Z" fill="#00737F"/>
<path d="M89.23 167.3C85.74 163.54 50.29 169.67 42.23 176.17C41.87 181.78 44.11 191.17 42.42 195.17C40.54 189.55 35.51 178.48 35.51 178.48L17.37 188.48L22.01 208.48L11.41 192.7L-3.19998 205.13L3.43002 223.29L-7.62998 211.29L-20.27 228.75L-11.39 248.19L-21.85 236L-28.69 246.79L-24.42 262.89L-31.69 256.42C-31.69 256.42 -38.5 268.63 -37.14 276.24C-35.78 283.85 -34.85 290.7 -32.67 292.63C-30.49 294.56 -14.75 293.99 -8.50998 291.7C-2.26998 289.41 2.24002 287.37 2.24002 287.37L-2.45998 284.52L11.21 282.81L21.56 273.14L10.56 273.04L27.16 268.22L35.71 253.54L18.79 252.54L40.79 247.46L50.1 234L33.37 232L56.13 227.77L65.55 212.5L50.42 211.71L69.8 207.31L76.13 192.78H64.78L80.08 185.44C80.08 185.44 84.68 175.44 89.67 170.61C91.93 168.72 89.22 167.29 89.22 167.29L89.23 167.3Z" fill="#1E724E"/>
<path d="M31.57 309.69C28.82 302.1 38.92 265.69 33.03 265.27C27.14 264.85 14.83 274.81 13.35 286.62C11.87 298.43 18.61 313.88 17.53 320.41C16.45 326.94 13.26 329.63 11.92 329.81C10.58 329.99 3.11003 293.47 -5.17997 291.24C-13.47 289.01 -18.46 298.51 -18.25 309.75C-18.04 320.99 1.78003 336 2.87003 341.92C3.96003 347.84 0.610031 352.53 -0.909969 351.12C-2.42997 349.71 -15.33 330.3 -22.11 325.93C-28.89 321.56 -35.19 323.04 -30.55 335.08C-25.91 347.12 -9.13997 356.93 -8.99997 361.53C-8.85997 366.13 -11.44 365.86 -13.33 364.35C-15.22 362.84 -26.47 351.06 -31.25 347.83C-36.03 344.6 -36.93 355.52 -36.25 359.16C-35.57 362.8 -28.44 370.83 -25.8 372.56C-23.16 374.29 -18.18 373.48 -17.1 375.88C-16.02 378.28 -22 382 -22.22 383.43C-22.44 384.86 -17.43 389.96 -15.62 389.52C-13.81 389.08 -12.56 383.65 -9.75997 383.17C-6.95997 382.69 -6.97997 388.32 -1.37997 390.66C4.22003 393 20.3 394.43 24.42 390.47C28.54 386.51 4.74003 378.66 0.540031 374.55C-2.04997 371.23 -1.31997 367.9 1.64003 368.55C4.60003 369.2 36.43 387.93 43.15 384.72C49.87 381.51 47.64 380.87 44.46 377.94C41.28 375.01 15.58 365.66 16.46 360.85C17.34 356.04 51.79 372.76 60.8 368.6C69.81 364.44 78.19 357.13 75.45 352.72C72.71 348.31 41.21 352.89 36.18 346.61C31.15 340.33 38.51 343.82 44.11 342.86C49.71 341.9 74.45 343.1 78.44 339.03C82.43 334.96 87.44 331.82 83.21 326.97C78.98 322.12 51.49 328.97 50.36 325.12C49.23 321.27 66 321.38 74.91 314.54C83.82 307.7 86.97 295.09 83.91 293.26C80.85 291.43 81.03 291.54 78.91 293.83C76.79 296.12 71.04 304.91 65.53 307.83C60.02 310.75 56.97 313.83 56.4 311.83C55.83 309.83 60.17 305.19 64.33 302.21C68.49 299.23 78 293.38 78.92 289.79C79.84 286.2 85.92 274.58 74.01 268.09C62.1 261.6 54.67 271 50.18 277.62C45.69 284.24 44 291.2 41 298.79C38 306.38 32.79 313.08 31.57 309.69Z" fill="#00737F"/>
<path d="M33.17 518.83C30 509 44.56 462.9 37.05 462.1C29.54 461.3 13.34 473.48 10.91 488.5C8.48002 503.52 16.4 523.6 14.73 531.9C13.06 540.2 8.85002 543.5 7.13002 543.67C5.41002 543.84 -2.49998 496.81 -13 493.58C-23.5 490.35 -30.32 502.27 -30.56 516.66C-30.8 531.05 -6.12998 551.09 -4.99998 558.75C-3.86998 566.41 -8.36998 572.21 -10.25 570.34C-12.13 568.47 -27.75 543.06 -36.25 537.16C-44.75 531.26 -52.85 532.87 -47.45 548.48C-42.05 564.09 -21.07 577.4 -21.1 583.28C-21.13 589.16 -24.42 588.71 -26.77 586.69C-29.12 584.67 -42.97 569.1 -48.93 564.75C-54.89 560.4 -56.55 574.33 -55.93 579.02C-55.31 583.71 -46.47 594.3 -43.17 596.63C-39.87 598.96 -33.46 598.15 -32.17 601.27C-30.88 604.39 -38.7 608.81 -39 610.69C-39.3 612.57 -33.17 619.26 -30.83 618.78C-28.49 618.3 -26.64 611.41 -23.05 610.92C-19.46 610.43 -19.73 617.63 -12.68 620.92C-5.62998 624.21 14.88 626.73 20.32 621.85C25.76 616.97 -4.31998 605.85 -9.49998 600.42C-12.66 596.06 -11.58 591.83 -7.81998 592.75C-4.05998 593.67 35.79 619.12 44.53 615.32C53.27 611.52 50.45 610.59 46.53 606.71C42.61 602.83 10.16 589.71 11.53 583.58C12.9 577.45 56.18 600.41 67.88 595.5C79.58 590.59 90.64 581.62 87.33 575.85C84.02 570.08 43.53 574.51 37.39 566.25C31.25 557.99 40.5 562.79 47.7 561.81C54.9 560.83 86.49 563.5 91.78 558.47C97.07 553.44 103.62 549.65 98.43 543.27C93.24 536.89 57.77 544.41 56.5 539.41C55.23 534.41 76.65 535.41 88.34 527.05C100.03 518.69 104.64 502.72 100.87 500.25C97.1 497.78 97.26 497.92 94.46 500.75C91.66 503.58 83.92 514.51 76.74 518C69.56 521.49 65.52 525.25 64.88 522.75C64.24 520.25 70 514.43 75.46 510.8C80.92 507.17 93.24 500.08 94.62 495.53C96 490.98 104.22 476.4 89.32 467.53C74.42 458.66 64.47 470.31 58.41 478.64C52.35 486.97 49.89 495.73 45.72 505.29C41.55 514.85 34.57 523.19 33.16 518.8L33.17 518.83Z" fill="#00737F"/>
<path d="M-11.22 424.49C-9.32998 423.66 -9.15997 410.6 -5.28997 405.62C-1.41998 400.64 -2.63997 409.31 0.560026 407.91C3.76003 406.51 6.91002 393.53 16.22 387.55C18.31 386.2 19.57 387.9 19.01 389.96C18.45 392.02 16.92 394.08 19.09 395.29C21.26 396.5 24.54 388.75 29.72 385.96C34.9 383.17 37.24 383.96 38.05 385.6C38.86 387.24 35.7 388.53 37.71 389.6C39.72 390.67 43 386.85 46.84 385.34C50.68 383.83 53.84 382.54 55.03 384.09C56.22 385.64 53.28 386.41 55.14 388.09C57 389.77 62.46 383.85 67.14 382.31C71.82 380.77 68 385 70.09 386.8C72.18 388.6 75.93 385.71 78.92 386.4C81.91 387.09 80.69 389.26 83.77 391.55C86.85 393.84 92.77 392.44 94.12 394.03C95.47 395.62 91.96 396.8 90.12 402.81C88.28 408.82 90.12 412.58 87.98 416.3C85.84 420.02 77.19 423.3 77.35 425.63C77.51 427.96 84.83 425.18 83.66 427.63C82.0391 430.736 79.5747 433.321 76.55 435.09C73.55 436.68 68.43 437.09 67.88 438.8C67.33 440.51 74.14 440.65 73.63 442.25C72.86 444.84 62.07 447.49 60.51 450.25C58.95 453.01 67.29 454.46 64.97 456.09C62.65 457.72 53.9 457.31 51.76 459.71C49.62 462.11 59.27 461.44 57.46 464.22C55.65 467 52.33 468.11 48.34 469.08C44.35 470.05 40.17 469.02 39.41 471.61C38.65 474.2 48.41 475.61 46.1 477.61C43.79 479.61 32.49 476.39 30.45 478.23C28.41 480.07 36.45 481.16 32.45 483.23C28.45 485.3 16.45 482.52 14.62 485.41C12.79 488.3 25.68 486.97 21.05 490.82C16.42 494.67 0.810026 493.63 -3.94997 491.54C-15.43 487 -23.79 472.07 -25.25 464.4C-26.71 456.73 -26.25 456.29 -25.4 453.99C-24.55 451.69 -20.35 458.61 -21.23 452.25C-22.11 445.89 -25.4 444.12 -24.14 439.07C-22.88 434.02 -21.05 442.56 -20.6 436.48C-20.15 430.4 -20.51 422.38 -17.08 420.32C-11.7 417.09 -13.84 425.64 -11.23 424.5L-11.22 424.49Z" fill="#52B788"/>
<path d="M78.8001 397.07C69.8801 396.47 -4.3399 437.29 -12.3999 470.26C4.4901 444.33 78.8001 397.07 78.8001 397.07Z" fill="#4B9975"/>
<path d="M352.33 770.42C353.96 773.16 354.5 764.07 358.97 757.84C363.44 751.61 368.66 747.69 371.49 737.19C374.32 726.69 367.34 707.79 365.06 695.54C362.78 683.29 365.98 676.62 357.94 659.93C349.9 643.24 338.94 625.27 324.63 618.14C310.32 611.01 311.03 596.25 293.63 588.6C276.23 580.95 234.07 589.18 220.45 579.43C245.63 608.32 242.85 635.88 253.09 656.43C263.33 676.98 270.74 670.17 282.8 687.43C294.86 704.69 286.24 705.78 297.21 725.29C309.89 747.91 339.55 748.95 352.33 770.42Z" fill="#52B788"/>
<path d="M412.27 309.68C414 311.68 412.11 304.53 413.47 299.24C414.83 293.95 417.25 290.41 416.47 281.95C415.69 273.49 406.53 259.4 402.03 250.06C397.53 240.72 397.96 235.21 388.63 222.94C379.3 210.67 367.77 197.69 356.73 193.47C345.69 189.25 342.51 177.67 329.32 173.34C316.13 169.01 290.84 179.4 279.6 173.08C303.05 193.25 308.05 215.02 319.76 230.08C331.47 245.14 334.59 239.13 346.67 251.47C358.75 263.81 353.43 265.47 365.35 279.65C379.2 296.12 398.69 294.13 412.27 309.68Z" fill="#E2A14B"/>
<path d="M356.41 421.309C359.02 413.679 348.31 377.439 354.18 376.919C360.05 376.399 372.55 386.149 374.18 397.919C375.81 409.689 369.39 425.269 370.58 431.779C371.77 438.289 375.01 440.929 376.35 441.079C377.69 441.229 384.54 404.599 392.78 402.219C401.02 399.839 406.19 409.219 406.17 420.499C406.15 431.779 386.65 447.079 385.66 452.999C384.67 458.919 388.1 463.569 389.6 462.139C391.1 460.709 403.66 441.069 410.37 436.579C417.08 432.089 423.37 433.459 418.96 445.579C414.55 457.699 397.96 467.799 397.87 472.389C397.78 476.979 400.38 476.679 402.25 475.129C404.12 473.579 415.16 461.619 419.88 458.299C424.6 454.979 425.69 465.889 425.12 469.549C424.55 473.209 417.51 481.349 414.9 483.129C412.29 484.909 407.3 484.129 406.26 486.599C405.22 489.069 411.26 492.599 411.46 494.059C411.66 495.519 406.78 500.669 404.96 500.259C403.14 499.849 401.8 494.439 398.96 494.009C396.12 493.579 396.27 499.199 390.71 501.639C385.15 504.079 369.1 505.779 364.91 501.899C360.72 498.019 384.39 489.759 388.52 485.579C391.05 482.219 390.26 478.899 387.32 479.579C384.38 480.259 352.87 499.579 346.1 496.469C339.33 493.359 341.54 492.689 344.67 489.709C347.8 486.729 373.33 476.929 372.34 472.139C371.35 467.349 337.22 484.659 328.14 480.649C319.06 476.639 310.58 469.509 313.25 464.999C315.92 460.489 347.49 464.579 352.41 458.209C357.33 451.839 350.03 455.469 344.41 454.599C338.79 453.729 314.08 455.359 310.02 451.359C305.96 447.359 300.9 444.299 305.02 439.359C309.14 434.419 336.77 440.829 337.84 436.949C338.91 433.069 322.15 433.529 313.14 426.839C304.13 420.149 300.75 407.599 303.73 405.719C306.71 403.839 306.58 403.949 308.73 406.199C310.88 408.449 316.79 417.149 322.34 419.959C327.89 422.769 331 425.789 331.54 423.839C332.08 421.889 327.66 417.269 323.45 414.359C319.24 411.449 309.72 405.729 308.7 402.159C307.68 398.589 301.47 387.079 313.24 380.379C325.01 373.679 332.62 382.909 337.24 389.499C341.86 396.089 343.65 402.969 346.77 410.499C349.89 418.029 355.22 424.649 356.39 421.239L356.41 421.309Z" fill="#00737F"/>
<path d="M300.78 329.19C299.35 328.61 297.78 327.6 297.39 326C296.61 322.66 300.86 320.13 303.17 318.73C307.549 316.018 312.317 313.995 317.31 312.73L316.49 312.93C320.72 311.93 325.31 310.31 329.66 310.98C332.17 311.39 333.66 312.81 335.92 313.86C337.15 314.46 339.68 314.49 340.56 315.71C338.73 313.23 336.93 310.71 335.22 308.18C334.22 306.7 332.77 303.53 330.84 302.98C328.48 302.31 326.15 304.98 324.33 306.05C316.71 310.49 304.24 309.6 296.33 306.35C294.54 305.61 290.94 304.03 290.33 301.75C289.43 298.52 294.01 296.92 296.33 296.12C302.083 294.318 308.138 293.682 314.14 294.25C317.155 294.389 320.137 294.945 323 295.9C326.09 297.06 327.56 300 330.41 301.27C328.41 298.27 326.76 295.07 324.93 291.97C323.61 289.81 322.18 286.32 319.49 285.54C318.081 285.263 316.619 285.501 315.37 286.21C308.27 289.35 301.68 292.66 293.68 292.21C290.78 292.06 285.68 291.09 284.68 287.64C283.68 284.19 288.56 282.46 291.06 281.57C295.393 280.147 299.896 279.31 304.45 279.08C307.55 278.91 310.99 278.75 313.9 279.92C316.59 281.01 318.15 283.58 320.71 284.83C316.52 277 309.64 274.6 303 268.94C299.26 265.76 279.87 250.27 286.59 244.52C292.05 239.82 302.8 249.89 306.44 253.27C309.925 256.448 312.746 260.285 314.74 264.56C315.987 267.536 316.786 270.68 317.11 273.89C317.64 277.72 320.11 279.89 321.48 283.28C318.427 275.8 318.46 267.416 321.57 259.96C322.79 257.18 327.57 248.03 331.57 249.4C333.57 250.4 333.84 253.1 334.07 255.01C334.583 261.013 333.335 267.035 330.48 272.34C329.413 274.465 328.027 276.414 326.37 278.12C325.11 279.39 323.37 280.68 322.85 282.48C321.56 286.72 326.45 291.85 328.21 295.35C329.988 284.932 333.702 274.94 339.16 265.89C340.56 263.58 343.79 259.16 346.72 261.95C348.17 263.34 348.02 266.11 347.95 268.01C347.65 276.26 343.95 286.28 336.95 291.15C334.95 292.53 329.62 294 329.33 296.67C329.15 298.26 331.55 301.13 332.33 302.39C333.7 304.629 335.186 306.795 336.78 308.88C338.14 306.55 337.95 304.01 338.5 301.47C339.277 298.669 340.466 296 342.03 293.55C344.69 288.91 347.72 284.26 351.86 280.79C354.3 278.74 358.92 275.26 362.29 276.99C366.65 279.28 362.14 286.99 360.65 289.8C358.013 295.012 354.471 299.715 350.19 303.69C346.9 306.69 344.1 306.55 340.19 307.83C337.04 308.83 338.62 311.38 340.19 313.63C343.78 318.73 347.76 323.76 351.52 328.75C351.87 325.45 351.43 322.16 351.8 318.88C352.288 315.305 353.299 311.821 354.8 308.54C356.97 303.54 360.12 297.61 364.32 293.99C368.95 289.99 371.78 293.28 372.18 298.09C372.88 306.49 368.67 320.86 360.58 325.09C358.2 326.33 353.31 326.09 352.68 329.22C352.2 331.53 354.97 333.65 356.26 335.22C358.66 338.02 360.77 341.08 362.91 344.15C365.49 342.74 364.59 339.4 364.97 336.95C365.62 333.569 366.802 330.312 368.47 327.3C371.06 322.1 374.14 316.62 378.83 313.03C381.83 310.71 391.3 305.33 391.18 312.77C391.11 317.54 388.5 322.55 386.18 326.59C383.39 331.53 379.52 337.9 374.65 341C372.13 342.61 366.65 341.81 364.82 344C363.14 346 365.82 348.31 366.94 350.16C369.02 353.47 370.94 356.91 372.67 360.44C374.023 357.974 374.828 355.245 375.03 352.44C375.458 349.482 376.608 346.676 378.38 344.27C381.049 340.409 384.509 337.16 388.53 334.74C392.29 332.44 402.38 327.13 403.06 334.89C403.9 344.25 393.91 356.65 385.32 359.41C382.25 360.41 377.25 357.73 374.66 359.71C371.44 362.18 378.32 372.24 379.5 374.84C384.16 371.19 386.8 366.73 392.63 364.58C397.021 363.018 401.695 362.411 406.34 362.8C412.19 363.24 420.45 366.02 414.9 372.8C409.23 379.71 394.07 384.8 386.12 379.5C384.99 378.75 383.12 376.18 381.82 375.86C378.61 375.07 381.31 379.05 381.82 380.38C383.1 383.72 384.17 387.14 385.22 390.55C386.43 394.827 387.858 399.039 389.5 403.17C390 404.37 393.27 411.25 389.76 410.88C387.36 410.62 386.88 405.23 386.6 403.52C385.973 398.948 384.97 394.436 383.6 390.03C382.76 387.47 381.93 384.89 381.07 382.35C380.5 380.67 379.66 375.35 377.59 377.27C376.8 378 377 380.04 376.7 381.06C376.252 382.62 375.61 384.119 374.79 385.52C371.758 390.438 367.588 394.554 362.63 397.52C359.9 399.19 348.09 405.26 350.02 396.62C351.37 390.62 356.54 384.88 361.09 381.02C365.95 376.87 371.87 375.67 378.09 375.28C376.903 371.786 375.538 368.354 374 365C373.71 364.43 372.36 361.27 371.42 361.41C370.27 361.63 370.18 365.03 369.83 365.93C366.83 374.24 356.37 379.83 348.07 381.15C344.93 381.66 340.76 381.42 340.07 377.66C339.38 373.9 342.97 369.59 345.24 366.91C348.73 362.76 353.48 358.72 358.86 357.31C361.86 356.54 369.09 355.92 370.86 359.22C368.8 355.37 367.09 349.32 363.26 346.8C359.82 344.54 359.44 349.14 357.77 351.49C352.77 358.4 341.49 363.72 332.99 363.82C327.6 363.89 327.94 359.6 330.45 355.53C333.514 350.882 337.816 347.183 342.87 344.85C345.67 343.45 349.1 341.95 352.25 341.85C355.13 341.75 357.56 343.59 360.39 343.55C360.54 340.97 356.39 337.02 354.91 335.23C354.24 334.43 353.18 332.62 352.18 332.23C350.4 331.6 349.53 333.06 348.3 334.23C341.57 340.4 330.69 343.23 321.72 342.05C318.72 341.67 313.37 340.53 313.64 336.59C313.93 332.83 319.55 330.51 322.46 329.32C327.015 327.242 331.906 325.998 336.9 325.65C342.55 325.4 346.29 329.44 351.51 330.65C348.95 327.48 343.08 314.78 337.51 316.7C335.43 317.97 334.07 320.53 332 321.96C328.16 324.65 323.38 326.52 319 328.07C313.33 330.07 306.57 331.53 300.77 329.18L300.78 329.19Z" fill="#1E724E"/>
<path d="M233.86 707.709C232.86 705.099 245.12 692.359 246.14 683.859C247.16 675.359 240.07 684.859 238.32 680.489C236.57 676.119 245.91 660.579 242.63 645.919C241.9 642.619 239.06 643.059 237.63 645.589C236.2 648.119 235.72 651.589 232.47 650.649C229.22 649.709 233.47 639.149 231.12 631.519C228.77 623.889 225.77 622.419 223.43 623.239C221.09 624.059 222.9 628.309 219.99 627.379C217.08 626.449 217.51 619.689 215.25 614.569C212.99 609.449 211.18 605.199 208.54 605.569C205.9 605.939 208.01 609.479 204.6 609.329C201.19 609.179 201.6 598.259 198.53 592.329C195.46 586.399 195.09 594.159 191.4 593.889C187.71 593.619 186.81 587.269 183.27 585.089C179.73 582.909 178.84 586.159 173.68 585.429C168.52 584.699 164.11 577.659 161.34 577.949C158.57 578.239 160.78 582.689 156.85 590.259C152.92 597.829 147.5 599.639 146.05 605.259C144.6 610.879 149.81 622.259 147.4 624.389C144.99 626.519 140.62 616.819 139.4 620.289C137.999 624.839 137.912 629.692 139.15 634.289C140.56 638.709 145.07 643.959 143.98 646.139C142.89 648.319 136.18 641.949 135.14 643.979C133.42 647.209 141.29 660.049 140.14 664.199C138.99 668.349 129.58 661.799 130.27 665.569C130.96 669.339 139.78 677.299 139.56 681.659C139.34 686.019 130.67 676.159 129.76 680.579C128.85 684.999 131 689.229 133.92 693.969C136.84 698.709 141.86 701.699 140.13 704.969C138.4 708.239 127.61 700.219 127.97 704.359C128.33 708.499 142.26 716.159 142.47 719.889C142.68 723.619 133.93 717.029 135.75 722.789C137.57 728.549 151.83 737.339 150.86 741.899C149.89 746.459 138.71 732.899 139.5 740.969C140.29 749.039 156.34 762.969 162.89 765.459C178.24 772.099 200.57 765.649 209.29 759.639C218.01 753.629 218.03 752.809 219.36 749.739C220.69 746.669 210.08 749.379 217 744.079C223.92 738.779 228.77 740.219 232.38 734.149C235.99 728.079 226.07 734.569 231.43 728.279C236.79 721.989 244.79 714.599 243.43 709.339C241.32 701.099 235.23 711.339 233.8 707.789L233.86 707.709Z" fill="#00737F"/>
<path d="M201 736.869C198.21 707.969 188.66 640.759 172.78 603.159" stroke="white" stroke-width="1.72"/>
<path d="M196.09 699.889L162.52 689.889M198.72 711.759L224.46 684.999L198.72 711.759ZM195.46 692.779L210.79 661.659L195.46 692.779ZM185.35 641.849L205.55 628.449L185.35 641.849ZM180 624.999L166.69 620.319L180 624.999ZM190 666.749L160.6 647.829L190 666.749Z" stroke="white" stroke-width="1.72"/>
<path d="M-37.5599 215.839C-39.2199 217.149 -36.6699 211.789 -36.9599 207.399C-37.2499 203.009 -38.6299 199.849 -36.7799 193.279C-34.9299 186.709 -25.6099 176.929 -20.6899 170.219C-15.7699 163.509 -15.2799 159.089 -6.11995 150.779C3.04005 142.469 14.0001 133.929 23.3701 132.239C32.7401 130.549 36.9101 121.869 47.9401 120.419C58.9701 118.969 77.34 130.959 87.1301 127.639C65.6701 140.089 58.5101 156.549 47.0001 166.739C35.4901 176.929 34.0001 171.679 22.6401 179.629C11.2801 187.579 15.2901 189.689 3.80006 199.119C-9.50994 210.059 -24.5599 205.569 -37.5599 215.839Z" fill="#E2A14B"/>
<path d="M143.56 578.56C138.39 573.85 91.05 586.25 80.89 596.01C81.05 603.68 85.16 616.18 83.34 621.87C80.14 614.45 72.06 599.97 72.06 599.97L48.63 615.58L57.22 642.26L41 622L22.63 640.56L33.7 664.49L17.33 649.49L2.20002 674.64L16.47 700L0.89002 684.62L-7.10998 700.07L0.500021 721.46L-10.1 713.46C-10.1 713.46 -17.92 730.84 -15.21 741.02C-12.5 751.2 -10.45 760.42 -7.26998 762.79C-4.08998 765.16 17.18 762.58 25.37 758.79C33.56 755 39.44 751.67 39.44 751.67L32.74 748.33L51.07 744.43L64 730.1L49 731.23L71 722.79L80.9 701.86L57.85 702.43L87 693L98.2 673.76L75.29 673L105.66 664.64L116.66 642.8L96.06 643.46L121.82 635.25L128.73 614.77L113.36 616L133.25 604.27C133.25 604.27 138.34 590.14 144.54 583.02C147.38 580.19 143.54 578.56 143.54 578.56H143.56Z" fill="#1E724E"/>
<path d="M329 498.789C326.5 494.289 322 479.789 307.5 482.289C299 482.289 281 495.289 282 512.289C283 529.289 289.5 526.289 294 535.789C298.5 545.289 297.5 555.789 297.5 567.289C297.5 578.789 304 593.289 312.5 599.789C317.15 603.339 323.44 605.25 328.59 608.95C338.07 615.75 340.47 633.95 352.06 632.63C352.92 632.53 353.71 632.369 354.49 632.289C358.99 631.789 375.99 630.789 388.99 613.789C401.99 596.789 401.49 568.789 392.99 561.789C384.49 554.789 371.49 541.789 372.49 530.789C373.49 519.789 366.49 510.289 364.99 509.789C363.49 509.289 361.99 504.289 350.99 505.289C342.24 506.089 332.71 501.289 329 498.789Z" fill="#E2A14B"/>
<path d="M324.05 539.999L312.95 527.499M327.29 529.619L336.46 543.619L327.29 529.619ZM413.1 650.419L390 625.289L387.07 620.809L413.1 650.419ZM350 564.239L353.2 542.539L350 564.239ZM350 564.239L360 579.499L350 564.239ZM350 564.239L336.47 543.609L350 564.239ZM355.47 527.199L353.21 542.539L355.47 527.199ZM353.21 542.539L345.62 532.319L353.21 542.539ZM370 594.759L373.38 571.759L370 594.759ZM370 594.759L387.08 620.759L370 594.759ZM370 594.759L360 579.499L370 594.759ZM374.92 561.399L373.39 571.789L374.92 561.399ZM373.39 571.789L366.26 560.129L373.39 571.789ZM387.08 620.809L372.29 618.629L387.08 620.809ZM360 579.499L330.63 572.149L360 579.499ZM315.03 568.249L330.63 572.149L315.03 568.249ZM330.63 572.149L322.78 560.229L330.63 572.149ZM336.46 543.609L324.05 539.999L336.46 543.609ZM311.64 536.399L324.05 539.999L311.64 536.399Z" stroke="white" stroke-width="2" stroke-linecap="round"/>
<path d="M316 45.8395C313.14 42.9095 303.1 36.1595 308.32 25.6695C310.26 19.1795 324.32 8.41955 337.03 13.0595C349.74 17.6995 346.03 21.9796 352.22 27.5796C358.41 33.1796 366.68 34.8096 375.46 37.4396C384.24 40.0695 393.82 48.3296 396.84 56.2996C398.28 60.0896 398.48 64.5496 399.59 68.7996C402.27 79.0296 416.18 86.0296 412.05 95.7996C410.201 100.856 407.277 105.451 403.478 109.267C399.68 113.082 395.098 116.028 390.05 117.9C374.11 123.9 352.86 117.17 349.46 109.09C346.06 101.01 339.11 88.0895 330.46 86.3695C321.81 84.6495 316.19 77.1196 316.15 75.8596C316.11 74.5996 312.64 72.3195 315.91 64.1496C318.55 57.5796 317.06 49.2095 316 45.8395Z" fill="#E2A14B"/>
<path d="M359.83 54.17L354.55 42M351.24 53.06L358.24 64.39L351.24 53.06ZM409.49 155.68L399.13 130.56L396.89 126.93L409.49 155.68ZM368.57 81.1L351.83 76.1L368.57 81.1ZM368.57 81.1L376.21 93.46L368.57 81.1ZM368.57 81.1L358.24 64.39L368.57 81.1ZM340 72.56L351.83 76.1L340 72.56ZM351.83 76.1L347 67.17L351.83 76.1ZM383.83 105.82L366.11 100.52L383.83 105.82ZM383.83 105.82L396.83 126.92L383.83 105.82ZM383.83 105.82L376.19 93.46L383.83 105.82ZM358.1 98.13L366.1 100.52L358.1 98.13ZM366.1 100.52L360.1 91.45L366.1 100.52ZM396.87 126.92L400.28 115.52L396.87 126.92ZM376.19 93.46L380.78 69.79L376.19 93.46ZM383.22 57.22L380.78 69.79L383.22 57.22ZM380.78 69.79L374.78 60.11L380.78 69.79ZM358.18 64.38L359.77 54.21L358.18 64.38ZM361.42 44L359.83 54.17L361.42 44Z" stroke="white" stroke-width="2" stroke-linecap="round"/>
</svg>
