<svg width="258" height="593" viewBox="0 0 258 593" fill="none" xmlns="http://www.w3.org/2000/svg">
<g filter="url(#filter0_d_236:3322)">
<rect x="38.9549" y="463.607" width="211.235" height="37.8309" rx="11.9215" fill="white" stroke="#1E724E" stroke-width="2.16755"/>
<rect x="38.49" y="460.389" width="211.235" height="37.8309" rx="11.9215" fill="white" stroke="#1E724E" stroke-width="2.16755"/>
<path d="M145.169 475.246C145.273 475.389 145.306 475.544 145.267 475.713C145.228 476.012 145.15 476.791 145.033 478.051L144.819 480.331C144.624 480.851 144.299 481.11 143.845 481.11C143.416 481.11 143.104 480.851 142.909 480.331C142.883 480.136 142.831 479.623 142.753 478.792L142.559 476.765C139.363 478.701 137.532 479.779 137.064 480C136.337 480.363 135.824 480.292 135.525 479.785C135.2 479.279 135.356 478.805 135.992 478.363C136.291 478.155 137.136 477.519 138.525 476.454L141.994 473.823C139.837 473.927 138.285 474.018 137.337 474.096C136.96 474.148 136.629 474.018 136.343 473.706C136.07 473.408 135.934 473.044 135.934 472.615C135.921 472.2 136.051 471.849 136.324 471.563C136.583 471.277 136.902 471.141 137.278 471.154C137.785 471.18 140.006 471.258 143.942 471.388C147.761 471.505 149.976 471.583 150.586 471.622C151.482 471.674 151.937 471.94 151.95 472.42C151.95 472.927 151.502 473.226 150.606 473.317C150.216 473.369 148.677 473.466 145.988 473.609C146.196 474.323 145.994 474.83 145.384 475.129L145.169 475.246ZM139.636 486.02C140.337 486.059 141.714 486.124 143.767 486.215L147.761 486.391C147.631 484.611 147.54 483.474 147.488 482.981L143.65 483.156C141.74 483.234 140.467 483.293 139.831 483.332L139.636 486.02ZM148.735 481.13C149.138 481.13 149.469 481.253 149.729 481.5C149.989 481.76 150.099 482.059 150.06 482.396C150.008 482.773 149.93 483.656 149.826 485.046C149.709 486.566 149.638 487.43 149.612 487.638C149.482 488.352 149.196 488.709 148.755 488.709C148.3 488.709 148.014 488.391 147.897 487.754C147.352 487.793 145.942 487.858 143.669 487.949L139.422 488.164C139.305 488.631 139.045 488.865 138.642 488.865C138.188 488.865 137.895 488.508 137.766 487.793C137.727 487.482 137.649 486.585 137.532 485.105C137.415 483.559 137.337 482.624 137.298 482.299C137.259 481.961 137.369 481.669 137.629 481.422C137.889 481.175 138.22 481.052 138.623 481.052C138.883 481.052 139.116 481.104 139.324 481.208C139.922 481.247 141.266 481.305 143.357 481.383L147.683 481.578C147.943 481.279 148.293 481.13 148.735 481.13ZM152.086 478.772C152.411 479.123 152.47 479.474 152.262 479.824C152.015 480.214 151.632 480.324 151.112 480.156C150.878 480.091 150.06 479.649 148.657 478.831C147.124 477.934 146.3 477.46 146.183 477.408C145.923 477.278 145.761 477.051 145.696 476.726C145.631 476.376 145.722 476.018 145.968 475.655C146.215 475.317 146.501 475.116 146.826 475.051C147.137 474.999 147.417 475.07 147.663 475.265C150.482 477.447 151.956 478.616 152.086 478.772Z" fill="#1E724E"/>
</g>
<g filter="url(#filter1_d_236:3322)">
<rect x="25.5384" y="331.315" width="206.546" height="36.952" rx="11.9215" fill="white" stroke="#1E724E" stroke-width="2.16755"/>
<rect x="25.0838" y="328.168" width="206.546" height="36.952" rx="11.9215" fill="white" stroke="#1E724E" stroke-width="2.16755"/>
<path d="M123.879 343.648C124.541 343.687 125.905 343.745 127.97 343.823L131.965 343.999L131.867 342.615C131.257 342.667 129.912 342.739 127.834 342.83C125.587 342.934 124.281 342.998 123.918 343.024L123.879 343.648ZM131.672 340.043L124.093 340.375L124.054 340.94L131.75 341.212L131.672 340.043ZM129.198 353.137L135.745 355.144C136.641 355.403 137.037 355.8 136.933 356.332C136.829 356.852 136.29 357.034 135.316 356.878C134.679 356.787 132.705 356.391 129.393 355.689C126.002 354.962 124.015 354.553 123.431 354.462C123.132 354.423 122.878 354.299 122.671 354.091C121.618 355.338 120.995 356.066 120.8 356.274C120.436 356.702 120.053 356.787 119.651 356.527C119.248 356.28 119.163 355.89 119.397 355.358C119.501 355.124 120.118 354.169 121.248 352.494C122.391 350.805 123.021 349.831 123.138 349.571C123.268 349.311 123.482 349.149 123.781 349.084C124.119 349.006 124.47 349.071 124.833 349.279C125.197 349.5 125.411 349.779 125.476 350.117C125.554 350.415 125.496 350.688 125.301 350.935L124.658 351.734L127.386 352.572C127.256 350.701 127.152 349.461 127.074 348.85C123.177 349.032 121.021 349.149 120.605 349.201C120.229 349.253 119.897 349.123 119.612 348.811C119.339 348.525 119.196 348.175 119.183 347.759C119.17 347.356 119.3 347.012 119.573 346.726C119.832 346.441 120.157 346.304 120.547 346.317C120.352 346.304 121.014 346.33 122.534 346.395C122.3 346.265 122.138 345.934 122.047 345.402C122.008 345.064 121.93 344.077 121.813 342.44C121.696 340.751 121.618 339.732 121.58 339.381C121.541 339.043 121.644 338.757 121.891 338.524C122.138 338.277 122.469 338.153 122.885 338.153C123.184 338.153 123.431 338.212 123.625 338.329C124.223 338.368 125.541 338.426 127.581 338.504L131.828 338.699C132.062 338.387 132.419 338.231 132.9 338.231C133.315 338.231 133.653 338.355 133.913 338.602C134.16 338.848 134.257 339.141 134.205 339.478C134.166 339.855 134.088 340.823 133.971 342.381L133.757 345.226C133.653 345.941 133.374 346.298 132.919 346.298C132.491 346.298 132.211 345.967 132.081 345.304C131.549 345.343 130.153 345.408 127.892 345.499L123.684 345.713C123.593 346.09 123.437 346.324 123.216 346.415C124.554 346.467 126.918 346.538 130.308 346.629L135.374 346.785C136.284 346.837 136.745 347.09 136.758 347.545C136.758 348.038 136.303 348.331 135.394 348.422C134.796 348.487 132.854 348.59 129.568 348.733L129.471 349.902C132.536 350.006 134.257 350.097 134.634 350.175C135.102 350.279 135.342 350.519 135.355 350.896C135.355 351.26 135.121 351.507 134.653 351.636C134.407 351.701 133.549 351.779 132.081 351.87L129.295 352.046L129.198 353.137Z" fill="#1E724E"/>
</g>
<g filter="url(#filter2_d_236:3322)">
<rect x="11.2998" y="67.4327" width="244.4" height="32.8769" rx="6.01717" fill="#FEFEE3" stroke="#1E724E" stroke-width="2.86532"/>
<ellipse cx="19.2422" cy="75.9609" rx="3.51562" ry="3.51562" fill="#1E724E"/>
<ellipse cx="247.758" cy="75.9609" rx="3.51564" ry="3.51562" fill="#1E724E"/>
<ellipse cx="19.2422" cy="92.3672" rx="3.51562" ry="3.51563" fill="#1E724E"/>
<ellipse cx="247.758" cy="92.3672" rx="3.51564" ry="3.51563" fill="#1E724E"/>
<rect x="24.5156" y="79.4766" width="217.383" height="8.78906" rx="4.39453" fill="#1E724E"/>
<rect x="28.292" y="85.5967" width="209.244" height="114.322" rx="7.16329" fill="white" stroke="#1E724E" stroke-width="2.86532"/>
<g opacity="0.3">
<line x1="37.6928" y1="86.5078" x2="37.6928" y2="201.352" stroke="#1E724E" stroke-width="0.573063"/>
<line x1="49.4115" y1="86.5078" x2="49.4115" y2="201.352" stroke="#1E724E" stroke-width="0.573063"/>
<line x1="61.1303" y1="86.5078" x2="61.1303" y2="201.352" stroke="#1E724E" stroke-width="0.573063"/>
<line x1="72.849" y1="86.5078" x2="72.849" y2="201.352" stroke="#1E724E" stroke-width="0.573063"/>
<line x1="84.5678" y1="86.5078" x2="84.5678" y2="201.352" stroke="#1E724E" stroke-width="0.573063"/>
<line x1="96.2865" y1="86.5078" x2="96.2865" y2="201.352" stroke="#1E724E" stroke-width="0.573063"/>
<line x1="108.005" y1="86.5078" x2="108.005" y2="201.352" stroke="#1E724E" stroke-width="0.573063"/>
<line x1="119.724" y1="86.5078" x2="119.724" y2="201.352" stroke="#1E724E" stroke-width="0.573063"/>
<line x1="131.443" y1="86.5078" x2="131.443" y2="201.352" stroke="#1E724E" stroke-width="0.573063"/>
<line x1="143.162" y1="86.5078" x2="143.162" y2="201.352" stroke="#1E724E" stroke-width="0.573063"/>
<line x1="154.88" y1="86.5078" x2="154.88" y2="201.352" stroke="#1E724E" stroke-width="0.573063"/>
<line x1="166.599" y1="86.5078" x2="166.599" y2="201.352" stroke="#1E724E" stroke-width="0.573063"/>
<line x1="178.318" y1="86.5078" x2="178.318" y2="201.352" stroke="#1E724E" stroke-width="0.573063"/>
<line x1="190.037" y1="86.5078" x2="190.037" y2="201.352" stroke="#1E724E" stroke-width="0.573063"/>
<line x1="201.755" y1="86.5078" x2="201.755" y2="201.352" stroke="#1E724E" stroke-width="0.573063"/>
<line x1="213.474" y1="86.5078" x2="213.474" y2="201.352" stroke="#1E724E" stroke-width="0.573063"/>
<line x1="225.193" y1="86.5078" x2="225.193" y2="201.352" stroke="#1E724E" stroke-width="0.573063"/>
<line x1="29.7891" y1="95.5963" x2="237.211" y2="95.5963" stroke="#1E724E" stroke-width="0.573063"/>
<line x1="29.7891" y1="107.315" x2="237.211" y2="107.315" stroke="#1E724E" stroke-width="0.573063"/>
<line x1="29.7891" y1="119.034" x2="237.211" y2="119.034" stroke="#1E724E" stroke-width="0.573063"/>
<line x1="29.7891" y1="130.753" x2="237.211" y2="130.753" stroke="#1E724E" stroke-width="0.573063"/>
<line x1="29.7891" y1="142.471" x2="237.211" y2="142.471" stroke="#1E724E" stroke-width="0.573063"/>
<line x1="29.7891" y1="154.19" x2="237.211" y2="154.19" stroke="#1E724E" stroke-width="0.573063"/>
<line x1="29.7891" y1="165.909" x2="237.211" y2="165.909" stroke="#1E724E" stroke-width="0.573063"/>
<line x1="29.7891" y1="177.628" x2="237.211" y2="177.628" stroke="#1E724E" stroke-width="0.573063"/>
<line x1="29.7891" y1="189.346" x2="237.211" y2="189.346" stroke="#1E724E" stroke-width="0.573063"/>
<line x1="29.7891" y1="201.065" x2="237.211" y2="201.065" stroke="#1E724E" stroke-width="0.573063"/>
</g>
<path d="M64.4391 129.726C67.8866 129.873 69.7938 129.965 70.1605 130.002C70.6007 129.433 71.2975 129.314 72.2511 129.644C72.8196 129.846 73.2138 130.176 73.4339 130.634C73.6356 131.056 73.6264 131.441 73.4064 131.79L72.3061 133.632C71.7926 134.494 71.4259 135.081 71.2058 135.393C70.784 136.016 70.2614 136.191 69.6379 135.916C69.0144 135.677 68.7577 135.182 68.8677 134.43C68.9227 134.155 69.1153 133.477 69.4454 132.395C68.6202 132.468 67.2906 132.551 65.4568 132.642L62.1285 132.835L59.9279 135.723C59.4695 136.291 58.9377 136.411 58.3325 136.081C57.7457 135.769 57.5715 135.246 57.8099 134.513C57.9016 134.219 58.4884 133.119 59.5703 131.212C60.6706 129.268 61.2758 128.14 61.3858 127.828C61.5142 127.462 61.7892 127.223 62.211 127.113C62.6695 127.003 63.1646 127.086 63.6964 127.361C64.2282 127.636 64.5674 128.003 64.7142 128.461C64.8609 128.883 64.8058 129.259 64.5491 129.589L64.4391 129.726ZM70.2706 136.713C70.3439 136.823 70.9032 137.529 71.9485 138.831C72.8837 140.005 73.388 140.702 73.4614 140.922C73.6814 141.417 73.6264 141.82 73.2963 142.132C72.9113 142.517 72.4161 142.591 71.811 142.352C71.5909 142.261 70.9124 141.729 69.7754 140.757L67.7399 139.051C67.4465 138.831 67.3182 138.52 67.3548 138.116C67.4098 137.676 67.6574 137.245 68.0975 136.823C68.501 136.457 68.9136 136.273 69.3353 136.273C69.7388 136.255 70.0505 136.402 70.2706 136.713ZM60.1205 145.818C59.8454 145.616 59.717 145.323 59.7354 144.938C59.7537 144.498 59.9738 144.067 60.3955 143.645C60.799 143.242 61.2116 143.031 61.6334 143.012C62.0185 142.976 62.3119 143.104 62.5136 143.397C64.3107 145.8 65.1909 146.946 65.1543 146.836C65.3193 147.313 65.2643 147.707 64.9892 148.019C64.6225 148.404 64.1457 148.514 63.5589 148.349C63.3571 148.275 62.7887 147.872 61.8534 147.138C60.7898 146.313 60.2122 145.873 60.1205 145.818ZM62.4861 135.888C62.9812 136.347 62.9629 136.988 62.4311 137.814C62.266 138.07 61.7892 138.703 61.0007 139.712C60.1938 140.757 59.6895 141.426 59.4878 141.72C59.1944 142.123 58.8185 142.325 58.36 142.325C57.8649 142.343 57.3881 142.141 56.9297 141.72C56.5079 141.279 56.297 140.821 56.297 140.344C56.3153 139.867 56.5171 139.482 56.9022 139.189C57.1589 138.987 57.7915 138.455 58.8001 137.593C59.7721 136.768 60.3864 136.255 60.6431 136.053C61.3766 135.485 61.991 135.43 62.4861 135.888ZM66.3921 142.05C66.1904 143.113 65.4752 143.489 64.2465 143.177C63.5497 143.012 62.8528 142.801 62.156 142.545C61.5875 142.343 61.3675 141.976 61.4958 141.444C61.6242 141.004 61.9176 140.803 62.3761 140.839L63.6689 141.004L63.4763 137.814C63.3846 135.961 63.3205 134.898 63.2838 134.623C63.1187 133.614 63.7239 133.092 65.0993 133.055C65.7778 133.036 66.3187 133.183 66.7222 133.495C67.1256 133.807 67.2815 134.183 67.1898 134.623C67.0798 135.136 66.9422 136.374 66.7772 138.336C66.6121 140.335 66.4838 141.573 66.3921 142.05ZM49.1177 138.171C48.5859 137.768 48.5675 137.135 49.0626 136.273C49.3194 135.778 50.3005 134.348 52.0059 131.982C53.7663 129.543 54.7749 128.104 55.0317 127.663C55.2517 127.26 55.6185 127.049 56.132 127.031C56.6638 127.012 57.1681 127.187 57.6448 127.553L57.7549 127.636C58.2133 127.984 58.4976 128.424 58.6076 128.956C58.6993 129.47 58.5801 129.882 58.25 130.194C57.8099 130.634 56.9022 131.606 55.5268 133.11C55.9486 133.385 56.1136 133.743 56.0219 134.183C55.9669 134.641 55.8569 136.136 55.6918 138.666C55.5085 141.16 55.3893 142.636 55.3343 143.095C55.1142 143.938 54.7016 144.36 54.0964 144.36C53.528 144.36 53.1153 143.938 52.8586 143.095L52.391 136.576C51.7125 137.291 51.2907 137.722 51.1257 137.869C50.3738 138.529 49.732 138.657 49.2002 138.254L49.1177 138.171ZM53.6563 145.323C54.2065 145.635 54.3348 146.212 54.0414 147.056C53.9314 147.368 53.6288 148.083 53.1337 149.201C52.5835 150.467 52.2626 151.219 52.1709 151.457C52.0059 151.897 51.7125 152.181 51.2907 152.31C50.8506 152.438 50.3738 152.365 49.8603 152.09C49.3836 151.796 49.0902 151.43 48.9801 150.989C48.8884 150.568 48.9801 150.173 49.2552 149.807C51.3091 146.983 52.2351 145.69 52.0334 145.928C52.5652 145.231 53.1062 145.03 53.6563 145.323ZM56.4895 144.36C57.3881 144.305 57.9658 144.589 58.2225 145.213C59.3594 148.312 60.5331 150.137 61.7434 150.687C62.807 151.109 64.109 151.292 65.6494 151.237C65.8694 151.237 66.1262 151.219 66.4196 151.182C66.4563 150.999 66.4929 150.724 66.5296 150.357L66.6396 149.642C66.713 149.073 66.9055 148.78 67.2173 148.761L67.3273 148.734C67.6391 148.716 67.9233 149.064 68.18 149.779C68.6202 151.173 68.831 151.925 68.8127 152.035C68.7393 152.713 68.0333 153.153 66.6947 153.355C63.999 153.795 61.5875 153.52 59.4603 152.53C57.1681 151.375 55.646 149.146 54.8941 145.846C54.8024 145.442 54.885 145.103 55.1417 144.828C55.4168 144.553 55.8202 144.406 56.352 144.388L56.4895 144.36ZM73.9015 149.449C74.0115 149.944 73.8832 150.32 73.5164 150.577C73.058 150.87 72.572 150.861 72.0585 150.549C72.2236 150.641 71.105 149.486 68.7027 147.083C68.4643 146.827 68.3909 146.506 68.4826 146.121C68.5926 145.717 68.8861 145.35 69.3628 145.02C69.8213 144.727 70.2522 144.608 70.6557 144.663C71.0224 144.718 71.2883 144.901 71.4534 145.213L72.7737 147.358C73.4889 148.514 73.8648 149.211 73.9015 149.449ZM83.1989 135.2C84.1341 135.255 86.0596 135.338 88.9754 135.448L94.6143 135.696L94.4768 133.743C93.6149 133.816 91.7169 133.917 88.7828 134.045C85.6103 134.192 83.7674 134.283 83.2539 134.32L83.1989 135.2ZM94.2017 130.112L83.5015 130.579L83.4464 131.377L94.3117 131.762L94.2017 130.112ZM90.7083 148.596L99.9507 151.43C101.216 151.796 101.775 152.356 101.629 153.107C101.482 153.841 100.721 154.098 99.3455 153.878C98.447 153.749 95.6596 153.19 90.9834 152.2C86.1972 151.173 83.3914 150.595 82.5662 150.467C82.1444 150.412 81.7869 150.238 81.4934 149.944C80.0081 151.705 79.1278 152.732 78.8528 153.025C78.3393 153.63 77.7983 153.749 77.2299 153.383C76.6614 153.034 76.5422 152.484 76.8723 151.732C77.019 151.402 77.89 150.054 79.4854 147.689C81.0992 145.305 81.9886 143.929 82.1536 143.563C82.337 143.196 82.6396 142.967 83.0613 142.875C83.5381 142.765 84.0333 142.857 84.5467 143.15C85.0602 143.462 85.3628 143.856 85.4545 144.333C85.5645 144.754 85.482 145.14 85.2069 145.488L84.2992 146.616L88.1502 147.799C87.9668 145.158 87.8201 143.407 87.71 142.545C82.2086 142.801 79.1645 142.967 78.5777 143.04C78.0459 143.113 77.5783 142.93 77.1748 142.49C76.7897 142.086 76.588 141.591 76.5697 141.004C76.5513 140.436 76.7347 139.95 77.1198 139.546C77.4866 139.143 77.945 138.951 78.4952 138.969C78.2201 138.951 79.1553 138.987 81.3009 139.079C80.9708 138.895 80.7416 138.428 80.6132 137.676C80.5582 137.199 80.4482 135.806 80.2831 133.495C80.1181 131.111 80.0081 129.671 79.9531 129.176C79.898 128.7 80.0447 128.296 80.3932 127.966C80.7416 127.618 81.2092 127.443 81.796 127.443C82.2178 127.443 82.5662 127.526 82.8413 127.691C83.6848 127.746 85.5462 127.828 88.4252 127.939L94.4218 128.214C94.7518 127.773 95.2561 127.553 95.9346 127.553C96.5215 127.553 96.9983 127.728 97.365 128.076C97.7134 128.424 97.851 128.837 97.7776 129.314C97.7226 129.846 97.6126 131.212 97.4475 133.412L97.145 137.428C96.9983 138.437 96.604 138.941 95.9622 138.941C95.357 138.941 94.9627 138.474 94.7793 137.538C94.0275 137.593 92.0562 137.685 88.8653 137.814L82.9238 138.116C82.7954 138.648 82.5754 138.978 82.2636 139.106C84.1525 139.18 87.49 139.281 92.2762 139.409L99.428 139.629C100.712 139.702 101.363 140.06 101.381 140.702C101.381 141.399 100.739 141.811 99.4555 141.94C98.612 142.031 95.8705 142.178 91.2309 142.38L91.0934 144.03C95.4212 144.177 97.851 144.305 98.3828 144.415C99.0429 144.562 99.3822 144.901 99.4005 145.433C99.4005 145.946 99.0704 146.295 98.4103 146.478C98.0619 146.57 96.8515 146.68 94.7793 146.808L90.8458 147.056L90.7083 148.596ZM118.655 134.045C118.802 134.247 118.848 134.467 118.793 134.705C118.738 135.127 118.628 136.227 118.463 138.006L118.16 141.224C117.885 141.958 117.427 142.325 116.785 142.325C116.18 142.325 115.74 141.958 115.465 141.224C115.428 140.949 115.355 140.225 115.245 139.051L114.97 136.191C110.458 138.923 107.873 140.445 107.213 140.757C106.186 141.27 105.461 141.169 105.039 140.454C104.581 139.739 104.801 139.07 105.7 138.446C106.121 138.153 107.313 137.254 109.276 135.751L114.172 132.037C111.128 132.184 108.936 132.312 107.598 132.422C107.066 132.496 106.598 132.312 106.195 131.872C105.81 131.45 105.617 130.937 105.617 130.332C105.599 129.745 105.782 129.25 106.167 128.846C106.534 128.443 106.983 128.25 107.515 128.269C108.23 128.305 111.366 128.415 116.923 128.599C122.314 128.764 125.441 128.874 126.302 128.929C127.568 129.002 128.21 129.378 128.228 130.057C128.228 130.772 127.595 131.194 126.33 131.322C125.78 131.395 123.607 131.533 119.811 131.734C120.104 132.743 119.82 133.458 118.958 133.88L118.655 134.045ZM110.843 149.256C111.834 149.311 113.778 149.403 116.675 149.532L122.314 149.779C122.131 147.267 122.002 145.662 121.929 144.965L116.51 145.213C113.814 145.323 112.017 145.405 111.119 145.461L110.843 149.256ZM123.689 142.352C124.258 142.352 124.725 142.526 125.092 142.875C125.459 143.242 125.615 143.663 125.56 144.14C125.486 144.672 125.376 145.919 125.23 147.881C125.065 150.027 124.964 151.246 124.927 151.54C124.744 152.548 124.34 153.052 123.717 153.052C123.075 153.052 122.671 152.603 122.506 151.705C121.736 151.76 119.747 151.851 116.537 151.98L110.541 152.282C110.376 152.942 110.009 153.273 109.441 153.273C108.799 153.273 108.386 152.768 108.203 151.76C108.148 151.32 108.038 150.054 107.873 147.964C107.708 145.781 107.598 144.461 107.543 144.003C107.488 143.526 107.643 143.113 108.01 142.765C108.377 142.416 108.845 142.242 109.413 142.242C109.78 142.242 110.11 142.316 110.403 142.462C111.247 142.517 113.145 142.6 116.097 142.71L122.204 142.985C122.571 142.563 123.066 142.352 123.689 142.352ZM128.42 139.024C128.879 139.519 128.961 140.014 128.668 140.509C128.32 141.059 127.779 141.215 127.045 140.977C126.715 140.885 125.56 140.262 123.579 139.106C121.415 137.841 120.251 137.172 120.086 137.098C119.719 136.915 119.49 136.594 119.398 136.136C119.306 135.64 119.435 135.136 119.783 134.623C120.132 134.146 120.535 133.862 120.994 133.77C121.434 133.697 121.828 133.798 122.176 134.073C126.156 137.153 128.237 138.804 128.42 139.024ZM138.213 135.2C139.148 135.255 141.074 135.338 143.989 135.448L149.628 135.696L149.491 133.743C148.629 133.816 146.731 133.917 143.797 134.045C140.624 134.192 138.781 134.283 138.268 134.32L138.213 135.2ZM149.216 130.112L138.516 130.579L138.461 131.377L149.326 131.762L149.216 130.112ZM145.722 148.596L154.965 151.43C156.23 151.796 156.789 152.356 156.643 153.107C156.496 153.841 155.735 154.098 154.36 153.878C153.461 153.749 150.674 153.19 145.997 152.2C141.211 151.173 138.406 150.595 137.58 150.467C137.159 150.412 136.801 150.238 136.508 149.944C135.022 151.705 134.142 152.732 133.867 153.025C133.353 153.63 132.812 153.749 132.244 153.383C131.675 153.034 131.556 152.484 131.886 151.732C132.033 151.402 132.904 150.054 134.5 147.689C136.113 145.305 137.003 143.929 137.168 143.563C137.351 143.196 137.654 142.967 138.075 142.875C138.552 142.765 139.047 142.857 139.561 143.15C140.074 143.462 140.377 143.856 140.469 144.333C140.579 144.754 140.496 145.14 140.221 145.488L139.313 146.616L143.164 147.799C142.981 145.158 142.834 143.407 142.724 142.545C137.223 142.801 134.179 142.967 133.592 143.04C133.06 143.113 132.592 142.93 132.189 142.49C131.804 142.086 131.602 141.591 131.584 141.004C131.565 140.436 131.749 139.95 132.134 139.546C132.501 139.143 132.959 138.951 133.509 138.969C133.234 138.951 134.169 138.987 136.315 139.079C135.985 138.895 135.756 138.428 135.627 137.676C135.572 137.199 135.462 135.806 135.297 133.495C135.132 131.111 135.022 129.671 134.967 129.176C134.912 128.7 135.059 128.296 135.407 127.966C135.756 127.618 136.223 127.443 136.81 127.443C137.232 127.443 137.58 127.526 137.855 127.691C138.699 127.746 140.56 127.828 143.439 127.939L149.436 128.214C149.766 127.773 150.27 127.553 150.949 127.553C151.536 127.553 152.012 127.728 152.379 128.076C152.728 128.424 152.865 128.837 152.792 129.314C152.737 129.846 152.627 131.212 152.462 133.412L152.159 137.428C152.012 138.437 151.618 138.941 150.976 138.941C150.371 138.941 149.977 138.474 149.793 137.538C149.042 137.593 147.07 137.685 143.879 137.814L137.938 138.116C137.81 138.648 137.589 138.978 137.278 139.106C139.167 139.18 142.504 139.281 147.29 139.409L154.442 139.629C155.726 139.702 156.377 140.06 156.395 140.702C156.395 141.399 155.753 141.811 154.47 141.94C153.626 142.031 150.885 142.178 146.245 142.38L146.107 144.03C150.435 144.177 152.865 144.305 153.397 144.415C154.057 144.562 154.396 144.901 154.415 145.433C154.415 145.946 154.085 146.295 153.424 146.478C153.076 146.57 151.866 146.68 149.793 146.808L145.86 147.056L145.722 148.596ZM162.887 144.855C163.4 145.149 163.501 145.717 163.189 146.561C163.079 146.836 162.813 147.414 162.392 148.294L161.484 150.137C161.319 150.54 161.035 150.797 160.631 150.907C160.191 151.017 159.733 150.925 159.256 150.632C158.779 150.32 158.504 149.944 158.431 149.504C158.339 149.101 158.44 148.725 158.733 148.376L160.026 146.808C160.65 146.038 161.062 145.543 161.264 145.323C161.814 144.699 162.355 144.544 162.887 144.855ZM172.404 137.869C172.203 138.144 171.827 138.336 171.276 138.446C170.836 138.52 169.644 138.62 167.701 138.749L167.673 138.941C167.581 139.675 167.517 140.39 167.48 141.087C169.589 141.197 170.754 141.27 170.974 141.307C171.634 141.399 172.028 141.655 172.157 142.077L172.404 137.869ZM166.16 135.971C166.82 133.898 167.132 132.963 167.095 133.165C167.114 132.981 167.215 132.835 167.398 132.725L163.987 132.917C164.042 132.954 164.079 133.018 164.097 133.11L165.005 135.806V135.943L166.16 135.971ZM176.42 135.696C180.748 135.879 183.086 136.007 183.435 136.081C184.15 136.227 184.516 136.612 184.535 137.236C184.535 137.823 184.177 138.208 183.462 138.391C183.297 138.428 182.683 138.501 181.619 138.611C181.656 138.758 181.665 138.886 181.647 138.996C181.573 139.62 181.445 141.784 181.261 145.488C181.06 149.266 180.931 151.411 180.876 151.925C180.711 152.897 180.326 153.383 179.721 153.383C179.116 153.383 178.722 152.897 178.538 151.925C178.502 151.503 178.382 149.357 178.181 145.488C177.997 141.82 177.86 139.657 177.768 138.996V138.859L175.98 138.969C175.063 145.497 174.495 149.587 174.275 151.237C174.073 152.594 173.596 153.245 172.844 153.19C172.129 153.135 171.772 152.411 171.772 151.017C171.772 150.045 171.891 147.313 172.129 142.82C172.001 143.132 171.616 143.352 170.974 143.48C170.57 143.572 169.351 143.682 167.315 143.81L167.233 145.543C167.38 145.286 167.609 145.039 167.921 144.8C168.361 144.507 168.773 144.379 169.158 144.415C169.525 144.452 169.791 144.626 169.956 144.938C169.956 144.956 170.286 145.525 170.946 146.643C171.46 147.56 171.726 148.129 171.744 148.349C171.836 148.826 171.707 149.183 171.359 149.422C170.956 149.715 170.506 149.724 170.011 149.449C169.828 149.357 169.369 148.926 168.636 148.156L167.288 146.781C167.251 146.744 167.215 146.689 167.178 146.616C167.031 149.073 166.912 150.659 166.82 151.375C166.655 152.695 165.949 153.153 164.702 152.75C164.262 152.622 163.712 152.429 163.052 152.172C162.483 151.897 162.282 151.503 162.447 150.989C162.63 150.568 162.905 150.375 163.272 150.412C163.455 150.43 163.767 150.476 164.207 150.549L163.932 143.975C161.255 144.159 160.081 144.232 160.411 144.195C160.026 144.232 159.696 144.085 159.421 143.755C159.164 143.425 159.027 143.012 159.008 142.517C159.008 142.04 159.146 141.637 159.421 141.307C159.678 140.977 159.999 140.821 160.384 140.839C160.97 140.876 162.107 140.922 163.795 140.977C163.776 140.353 163.74 139.684 163.684 138.969C161.796 139.061 160.604 139.134 160.109 139.189C159.723 139.226 159.393 139.079 159.118 138.749C158.843 138.419 158.697 137.997 158.678 137.483C158.678 136.988 158.816 136.567 159.091 136.218C159.348 135.888 159.678 135.732 160.081 135.751L161.979 135.833L161.099 134.815C160.659 134.265 160.851 133.669 161.676 133.027L160.576 133.11C160.191 133.147 159.87 133.009 159.613 132.697C159.357 132.385 159.228 131.982 159.228 131.487C159.228 131.01 159.357 130.616 159.613 130.304C159.852 129.992 160.164 129.846 160.549 129.864C161.062 129.901 162.227 129.947 164.042 130.002C163.785 129.598 163.62 129.323 163.547 129.176C163.4 128.828 163.446 128.479 163.684 128.131C163.941 127.764 164.409 127.48 165.087 127.278C165.711 127.15 166.233 127.177 166.655 127.361C167.04 127.526 167.251 127.792 167.288 128.159C167.416 129.259 167.471 129.919 167.453 130.139C169.195 130.194 170.341 130.258 170.891 130.332C171.68 130.46 172.074 130.808 172.074 131.377C172.074 131.909 171.689 132.266 170.919 132.45L168.801 132.642C168.911 132.661 169.012 132.697 169.103 132.752L169.186 132.807C169.626 133.009 169.947 133.293 170.149 133.66C170.332 134.027 170.323 134.338 170.121 134.595C169.901 134.87 169.571 135.375 169.131 136.108C170.158 136.145 170.864 136.191 171.249 136.246C171.891 136.337 172.285 136.548 172.432 136.878C172.578 134.238 172.652 132.422 172.652 131.432C172.652 130.845 172.872 130.359 173.312 129.974C173.77 129.589 174.339 129.424 175.017 129.479C175.311 129.516 175.531 129.552 175.678 129.589L178.538 128.681C179.822 128.278 180.647 128.003 181.014 127.856C181.399 127.709 181.784 127.737 182.169 127.939C182.591 128.159 182.912 128.562 183.132 129.149C183.352 129.754 183.352 130.286 183.132 130.744C182.93 131.166 182.609 131.404 182.169 131.459C181.802 131.496 181.005 131.606 179.776 131.79C178.327 132.028 177.365 132.175 176.888 132.23L176.42 135.696ZM201.012 148.651L209.484 148.954C210.969 149.027 211.721 149.431 211.739 150.164C211.739 150.971 211.006 151.439 209.539 151.567C208.622 151.659 205.183 151.87 199.224 152.2C193.337 152.53 189.89 152.75 188.881 152.86C188.294 152.933 187.772 152.722 187.313 152.227C186.873 151.75 186.644 151.182 186.625 150.522C186.607 149.88 186.809 149.33 187.231 148.871C187.671 148.413 188.193 148.193 188.798 148.211C189.844 148.266 193.035 148.385 198.371 148.569L198.343 148.294C198.307 147.89 198.215 146.387 198.068 143.783C195.134 143.948 193.255 144.067 192.429 144.14C191.934 144.195 191.503 144.012 191.137 143.59C190.77 143.187 190.586 142.691 190.586 142.105C190.568 141.518 190.733 141.023 191.082 140.619C191.43 140.234 191.861 140.051 192.374 140.069C193.145 140.124 194.988 140.197 197.903 140.289L197.711 136.328C194.832 136.512 193.19 136.622 192.787 136.658C192.402 136.713 192.044 136.603 191.714 136.328C190.816 138.052 190.11 139.336 189.596 140.179C189.046 141.059 188.432 141.362 187.753 141.087L187.643 141.059C186.965 140.784 186.735 140.124 186.955 139.079C187.065 138.51 187.57 137.043 188.468 134.678C189.385 132.257 189.899 130.763 190.009 130.194C190.137 129.717 190.458 129.396 190.971 129.231C191.503 129.066 192.072 129.103 192.677 129.341L192.787 129.396C193.374 129.635 193.805 130.002 194.08 130.497C194.337 130.992 194.346 131.45 194.107 131.872L193.777 132.505L197.518 132.642C197.445 131.322 197.371 130.24 197.298 129.396C197.243 128.791 197.472 128.269 197.986 127.828C198.463 127.388 199.049 127.168 199.746 127.168C200.425 127.168 200.993 127.388 201.452 127.828C201.91 128.269 202.112 128.791 202.057 129.396L201.837 132.78C205.394 132.908 207.558 133.009 208.328 133.082C209.539 133.174 210.144 133.577 210.144 134.293C210.162 135.008 209.575 135.448 208.383 135.613C207.87 135.686 205.633 135.851 201.672 136.108L201.452 140.399C204.991 140.546 206.953 140.638 207.338 140.674C208.493 140.766 209.071 141.16 209.071 141.857C209.089 142.554 208.521 142.985 207.366 143.15C206.485 143.278 204.468 143.425 201.314 143.59C201.241 145.094 201.149 146.662 201.039 148.294L201.012 148.651Z" fill="#1E724E"/>
</g>
<path d="M90.2615 201H89.6885V256.289H90.2615V201Z" fill="#263238"/>
<path d="M114.926 276.745L112.921 280.497H67.0181L65.0181 276.745L84.5596 265.246H95.3848L114.926 276.745Z" fill="#FFC727"/>
<path d="M96.743 254.165L95.3848 265.245H84.5596L83.2014 254.165H96.743Z" fill="#FFC727"/>
<path d="M114.926 276.745L112.915 280.497H67.0181L65.0181 276.745H114.926Z" fill="#FFC727"/>
<path opacity="0.1" d="M114.926 276.745L112.915 280.497H67.0181L65.0181 276.745H114.926Z" fill="black"/>
<path opacity="0.1" d="M84.5595 265.246L84.2844 262.999L95.7801 262.005L95.3847 265.246H84.5595Z" fill="black"/>
<path d="M168.243 201H167.67V234.514H168.243V201Z" fill="#263238"/>
<path d="M192.908 254.964L190.903 258.716H145L143 254.964L162.542 243.465H173.367L192.908 254.964Z" fill="#FFC727"/>
<path d="M174.725 232.384L173.367 243.465H162.542L161.183 232.384H174.725Z" fill="#FFC727"/>
<path opacity="0.1" d="M162.541 243.465L162.266 241.219L173.762 240.225L173.367 243.465H162.541Z" fill="black"/>
<path d="M192.908 254.969L190.897 258.716H145L143 254.969H192.908Z" fill="#FFC727"/>
<path opacity="0.1" d="M192.908 254.969L190.897 258.716H145L143 254.969H192.908Z" fill="black"/>
<path opacity="0.2" d="M126.542 289.949C126.542 289.949 117.018 306 89.9693 306C62.9206 306 53.3962 289.949 53.3962 289.949L67.0352 280.501H112.881L126.542 289.949Z" fill="#FFC727"/>
<path opacity="0.2" d="M120.078 288.385C120.078 288.385 112.216 300.401 89.9751 300.401C67.7344 300.401 59.8662 288.385 59.8662 288.385L71.0926 280.501H108.852L120.078 288.385Z" fill="#FFC727"/>
<path d="M63.4703 12.1343C63.8579 14.8841 63.71 17.6829 63.0347 20.3766C62.7172 21.624 62.2945 22.8424 61.7713 24.0185C61.1179 25.5258 60.4296 26.9982 60.5951 28.6493C60.7563 28.7539 60.2074 28.7364 60.19 28.5752C55.7813 26.066 50.1267 25.6086 46.7331 21.5005C45.1256 19.5576 44.3153 17.0962 43.932 14.6305C43.4964 11.947 43.4005 8.96723 44.0932 6.33162C44.6726 4.0968 45.9795 1.9404 48.0836 0.842593C50.1877 -0.255212 53.0934 -0.189863 55.3762 0.520226C60.3207 2.04931 62.7733 7.36844 63.4703 12.1343Z" fill="#FFC727"/>
<path d="M65.7313 44.7722C65.1301 42.7639 64.5289 40.76 63.9103 38.7604C62.6992 34.8397 61.4446 30.9189 60.0506 27.0766C59.2199 24.7677 58.34 22.4792 57.4106 20.211C57.5151 18.7829 57.6911 17.3609 57.9377 15.9504C58.308 14.2428 58.8438 12.5917 59.3405 10.9188C59.3439 10.8966 59.3394 10.8738 59.3278 10.8546C59.3161 10.8353 59.298 10.8207 59.2767 10.8135C59.2554 10.8062 59.2322 10.8067 59.2112 10.8148C59.1902 10.8229 59.1727 10.8381 59.1619 10.8579C58.173 13.1624 56.8835 16.1116 56.8486 18.8387C55.7741 16.2772 54.6124 13.749 53.3635 11.2543C53.223 9.14745 53.2872 7.03196 53.5552 4.93753C53.5593 4.91789 53.5553 4.89746 53.5443 4.88071C53.5333 4.86396 53.516 4.85228 53.4964 4.84823C53.4768 4.84419 53.4563 4.84812 53.4396 4.85915C53.4228 4.87018 53.4111 4.88741 53.4071 4.90705C53.0304 6.74187 52.8841 8.61651 52.9715 10.4876C52.0247 8.61432 51.0227 6.76722 49.9656 4.94625C49.8697 4.78071 49.6432 4.94626 49.726 5.1118C51.3814 8.30066 52.9192 11.5592 54.3611 14.8614C52.3316 13.1001 49.9853 11.7414 47.4476 10.8579C47.3387 10.8186 47.2559 10.9755 47.3692 11.0234C50.1371 12.2124 52.6691 13.8886 54.8447 15.9722C55.8815 18.3886 56.869 20.8252 57.807 23.2822C55.0494 20.5769 51.2725 18.7995 47.6218 17.8455C47.4999 17.8106 47.465 18.0023 47.5826 18.0371C51.8083 19.3092 55.093 21.7052 58.308 24.5717C58.6827 25.5649 59.0486 26.5597 59.4058 27.5558C60.7708 31.3313 62.0676 35.1315 63.2961 38.9564C63.8769 40.789 64.4578 42.6245 65.0386 44.4629C65.6529 46.4407 66.1364 48.5274 66.938 50.4355C67.0164 50.6184 67.3431 50.5792 67.3039 50.357C66.9772 48.4795 66.2845 46.6193 65.7313 44.7722Z" fill="#263238"/>
<path d="M58.417 8.27464C57.6348 9.47678 57.0961 10.8207 56.8313 12.2302C56.8313 12.2694 56.8792 12.2912 56.8923 12.2302C57.3932 10.902 57.9751 9.60567 58.6348 8.34871C58.6828 8.2398 58.4911 8.16138 58.417 8.27464Z" fill="#263238"/>
<path d="M50.5539 17.4581C49.3265 16.7798 47.9863 16.3297 46.5983 16.1294C46.5591 16.1294 46.5373 16.1773 46.5983 16.1904C47.2343 16.4561 47.9052 16.626 48.5456 16.8874C49.186 17.1488 49.822 17.4363 50.4755 17.6628C50.5004 17.6656 50.5256 17.6601 50.547 17.647C50.5684 17.634 50.5849 17.6142 50.5939 17.5908C50.6028 17.5674 50.6038 17.5416 50.5965 17.5176C50.5893 17.4936 50.5743 17.4727 50.5539 17.4581Z" fill="#263238"/>
<path d="M48.3365 6.41009C47.938 6.10818 47.5121 5.84419 47.0644 5.62158C47.0497 5.61644 47.0337 5.61637 47.019 5.62139C47.0042 5.6264 46.9916 5.6362 46.983 5.64924C46.9745 5.66227 46.9706 5.67779 46.9719 5.69331C46.9733 5.70883 46.9797 5.72345 46.9904 5.73485C47.3813 6.04627 47.8015 6.31909 48.245 6.54949C48.3278 6.59741 48.4149 6.46236 48.3365 6.41009Z" fill="#263238"/>
<path d="M78.3387 27.1073C75.1629 28.0527 71.9696 28.9239 68.7938 29.8518C68.5194 29.9346 63.1306 19.6492 65.0909 14.3519C66.8858 9.4466 70.9895 5.77418 75.886 4.11004C78.1513 3.33897 80.9394 2.68987 83.3354 3.23877C85.4657 3.70926 86.9686 5.45182 87.6613 7.45575C88.6023 10.1785 88.2886 13.424 87.7746 16.2033C87.2997 18.7823 86.3544 21.3177 84.651 23.3434C82.9477 25.3691 80.8087 26.3755 78.3387 27.1073Z" fill="#FFC727"/>
<path d="M82.9345 17.3315C80.9275 18.3122 78.8459 19.1323 76.7093 19.7841C75.2835 20.1654 73.8931 20.6682 72.5533 21.2871C73.8951 18.2986 75.3675 15.3711 76.9097 12.4698C78.9615 11.8773 81.1179 10.9494 82.6688 9.49875C82.6815 9.482 82.688 9.4614 82.6873 9.4404C82.6866 9.4194 82.6786 9.3993 82.6648 9.38346C82.651 9.36762 82.6322 9.357 82.6115 9.3534C82.5908 9.34981 82.5695 9.35344 82.5512 9.3637C80.8609 10.5617 78.992 11.2805 77.1231 12.0864C77.5588 11.3066 77.9683 10.5269 78.4039 9.74707C78.5259 9.5336 78.2253 9.31143 78.0815 9.52925C76.4123 11.9525 74.9046 14.4833 73.5683 17.105C73.2283 14.807 73.1188 12.4807 73.2416 10.1609C73.2416 10.1043 73.1588 10.0999 73.1501 10.1609C72.7531 12.6904 72.7796 15.2682 73.2285 17.7889C72.1177 20.0107 71.1026 22.2891 70.1791 24.5936C69.8175 23.2083 69.347 21.8447 69.0334 20.4507C68.5621 18.4542 68.415 16.3949 68.5977 14.3518C68.5977 14.2908 68.5149 14.2864 68.5062 14.3518C67.9461 18.1444 68.4063 22.0178 69.8393 25.5738C69.3078 26.9591 68.8025 28.3531 68.3407 29.7515C65.9466 36.8708 64.5281 44.2816 64.1237 51.7817C64.1208 51.8175 64.1323 51.853 64.1556 51.8804C64.1789 51.9077 64.2121 51.9247 64.2479 51.9276C64.2837 51.9305 64.3192 51.9191 64.3466 51.8958C64.3739 51.8725 64.3909 51.8393 64.3938 51.8035C65.2225 44.4003 66.8078 37.1015 69.1248 30.0216C70.044 27.251 71.107 24.5631 72.2701 21.9275C74.1434 21.3699 76.0123 20.6206 77.855 19.9802C79.6978 19.3398 81.4926 18.6384 83.0042 17.4578C83.021 17.4486 83.0334 17.4331 83.0387 17.4147C83.044 17.3963 83.0418 17.3766 83.0325 17.3598C83.0233 17.3431 83.0078 17.3307 82.9894 17.3254C82.971 17.3201 82.9513 17.3223 82.9345 17.3315Z" fill="#263238"/>
<path d="M85.897 14.3429C83.9541 15.0356 82.1157 16.0027 80.1727 16.6997C80.0856 16.7346 80.1379 16.8783 80.2294 16.8609C82.2812 16.4253 84.3157 15.8023 85.9711 14.4562C86.0364 14.4039 85.9667 14.3211 85.897 14.3429Z" fill="#263238"/>
<path d="M70.0616 10.1521C70.0616 10.0519 69.9353 9.99093 69.9048 10.0955C69.3689 11.886 69.003 13.7853 69.5214 15.615C69.5252 15.63 69.534 15.6433 69.5462 15.6528C69.5584 15.6623 69.5735 15.6674 69.5889 15.6674C69.6044 15.6674 69.6194 15.6623 69.6317 15.6528C69.6439 15.6433 69.6526 15.63 69.6565 15.615C69.7305 13.7635 69.626 11.9687 70.0616 10.1521Z" fill="#263238"/>
<path d="M78.0643 6.01765C77.4437 6.90817 77.147 7.98441 77.2235 9.06711C77.2235 9.13246 77.3324 9.17602 77.3542 9.09325C77.5894 8.0695 77.9858 7.13724 78.2995 6.13963C78.3083 6.1096 78.3063 6.07747 78.294 6.04871C78.2817 6.01995 78.2598 5.99636 78.232 5.98196C78.2042 5.96756 78.1723 5.96324 78.1417 5.96975C78.1112 5.97626 78.0838 5.9932 78.0643 6.01765Z" fill="#263238"/>
<path d="M40.5602 31.6467C41.4925 34.6004 43.7055 38.6866 47.208 38.7171C49.4777 38.7389 51.7648 38.4688 54.0432 38.4383C56.4784 38.3991 58.9223 38.4035 61.3532 38.5516C61.5536 38.5516 61.0613 31.2503 55.202 27.6911C53.564 26.6935 51.5557 26.3842 49.6912 25.9747C47.5601 25.4685 45.3725 25.2401 43.1828 25.2951C41.8366 25.3474 40.7171 25.6349 40.2379 27.0115C39.7369 28.4535 40.1159 30.2396 40.5602 31.6467Z" fill="#FFC727"/>
<path d="M43.0825 27.9482C44.5071 28.3142 45.9403 28.7367 47.3692 29.1898C46.9975 28.7833 46.6034 28.3979 46.1886 28.0354C45.5744 27.5257 44.8817 27.1205 44.2413 26.6718C44.1891 26.637 44.2413 26.5281 44.2892 26.5585C45.6757 27.1327 46.8739 28.0834 47.7482 29.3031C49.5256 29.8781 51.2899 30.5141 52.9758 31.2112C54.1495 31.6919 55.2742 32.2842 56.3346 32.9798C55.993 32.2409 55.5863 31.5338 55.1192 30.867C54.3394 29.8563 53.2895 29.2987 52.2701 28.5799C52.2524 28.5664 52.2402 28.5468 52.2359 28.5249C52.2316 28.5031 52.2354 28.4804 52.2466 28.4611C52.2579 28.4418 52.2757 28.4273 52.2969 28.4203C52.3181 28.4133 52.3411 28.4143 52.3616 28.4231C53.4265 28.8857 54.383 29.5656 55.17 30.4193C55.9569 31.273 56.5569 32.2817 56.9314 33.3806C58.152 34.2556 59.2674 35.2686 60.2553 36.3996C64.1325 40.7995 67.182 46.6588 67.195 52.6358C67.195 52.7795 66.9685 52.8187 66.938 52.6706C65.8402 46.7329 63.4921 41.4007 59.5322 36.7917C59.2577 36.4693 58.9702 36.16 58.6609 35.8638C57.598 35.7185 56.5273 35.6385 55.4546 35.6242C54.2087 35.6242 52.9715 35.8071 51.7299 35.9073C49.6868 36.0772 47.4215 36.099 45.5787 35.0709C45.496 35.023 45.5526 34.8836 45.6441 34.9184C49.7565 36.4127 54.0693 34.5133 58.1904 35.4063C56.4245 33.7245 54.3547 32.3939 52.0915 31.4856L51.7125 31.3331C49.0725 31.6512 46.2845 32.3395 43.7142 31.4813C43.7015 31.474 43.6917 31.4627 43.6862 31.4492C43.6807 31.4356 43.6799 31.4207 43.6839 31.4066C43.6879 31.3926 43.6965 31.3803 43.7083 31.3717C43.7201 31.3631 43.7345 31.3588 43.7491 31.3593C46.2322 31.9822 48.6151 31.1981 51.0678 31.0761C48.3973 30.0349 45.6789 29.2116 42.9998 28.1791C42.8429 28.0876 42.8386 27.8872 43.0825 27.9482Z" fill="#263238"/>
<path d="M41.9152 30.5445C43.1895 30.7134 44.4723 30.8108 45.7575 30.8364C45.788 30.8364 45.7967 30.8843 45.7575 30.893C44.4644 31.1314 43.1324 31.0461 41.8803 30.6447C41.828 30.6273 41.8542 30.5358 41.9152 30.5445Z" fill="#263238"/>
<path d="M50.5929 28.0131C51.3028 28.3273 51.9483 28.7704 52.4966 29.32C52.562 29.381 52.4748 29.4986 52.4008 29.4463C52.0784 29.2111 51.743 29.0107 51.4119 28.7754C51.0906 28.5989 50.7807 28.4025 50.484 28.1873C50.4722 28.1693 50.4658 28.1482 50.4656 28.1266C50.4654 28.105 50.4713 28.0838 50.4828 28.0654C50.4942 28.0471 50.5107 28.0325 50.5302 28.0232C50.5497 28.0139 50.5714 28.0104 50.5929 28.0131Z" fill="#263238"/>
<path d="M71.2812 37.5235C71.2377 37.6237 71.3771 37.7152 71.4337 37.6107C71.4559 37.6414 71.4883 37.663 71.5252 37.6717C73.8832 38.2336 76.2735 38.6497 78.6827 38.9176C80.6213 39.0918 82.8518 39.1964 84.5507 38.0725C86.8466 36.5521 88.3582 32.4745 87.1166 29.8868C85.6486 26.8156 81.2181 28.4841 78.9964 29.5775C75.5761 31.2447 72.8468 34.0557 71.2812 37.5235Z" fill="#FFC727"/>
<path d="M69.5649 38.9478C70.8557 37.6979 72.2902 36.6055 73.8385 35.6936C74.9551 33.9242 76.4412 32.4173 78.1948 31.2763C78.2776 31.2196 78.3473 31.3503 78.2733 31.4113C76.8851 32.5191 75.6553 33.8119 74.6183 35.2536C76.3438 34.3104 78.1362 33.495 79.981 32.8141C80.6402 31.5923 81.6407 30.5887 82.8605 29.9258C82.8867 29.9258 82.9171 29.9258 82.891 29.965C81.8797 30.7303 80.9972 31.6524 80.2772 32.6964C81.3663 32.2913 82.4554 31.9123 83.5662 31.5464C83.6664 31.5115 83.7057 31.664 83.6098 31.6988C81.6538 32.4655 79.6499 33.2715 77.7113 34.2037C80.079 34.5733 82.4903 34.5659 84.8557 34.1819C84.8683 34.1805 84.8809 34.1836 84.8913 34.1907C84.9017 34.1978 84.9092 34.2085 84.9124 34.2207C84.9156 34.2329 84.9142 34.2458 84.9086 34.2571C84.903 34.2684 84.8935 34.2773 84.8819 34.2822C82.4133 35.014 79.7911 35.0532 77.3018 34.3954C76.0665 34.9975 74.8666 35.6694 73.7078 36.4081C74.6829 36.33 75.6643 36.4109 76.6135 36.6477C78.284 37.0403 79.9944 37.2377 81.7104 37.2358C81.7758 37.2358 81.7932 37.3403 81.7104 37.349C78.7481 37.8587 75.947 36.5126 72.9977 36.8655C71.9089 37.6051 70.8884 38.4405 69.9482 39.3617C68.1191 41.1936 66.6111 43.3202 65.4873 45.6523C64.2545 48.1703 63.5836 50.8364 62.586 53.4327C62.5767 53.4535 62.5604 53.4703 62.5399 53.4801C62.5194 53.49 62.4961 53.4922 62.4741 53.4865C62.4522 53.4807 62.4329 53.4673 62.4199 53.4487C62.4069 53.4301 62.4009 53.4075 62.403 53.3848C63.2786 48.2487 65.8315 42.5985 69.5649 38.9478Z" fill="#263238"/>
<path d="M78.4998 31.9164C78.6953 31.5671 78.9521 31.2557 79.2578 30.9972C79.5066 30.7289 79.8018 30.5075 80.1291 30.3438C80.1596 30.3438 80.177 30.3743 80.1595 30.3917C79.9156 30.6661 79.5802 30.8709 79.3188 31.1323C79.0574 31.3936 78.8352 31.7117 78.5651 31.973C78.5303 32.0079 78.478 31.9643 78.4998 31.9164Z" fill="#263238"/>
<path d="M83.3834 33.5111C83.819 33.3979 84.2895 33.4066 84.7338 33.3151C85.1762 33.2081 85.6125 33.0772 86.0407 32.923C86.053 32.9199 86.0659 32.9213 86.0772 32.927C86.0884 32.9326 86.0973 32.9422 86.102 32.9539C86.1068 32.9655 86.1072 32.9785 86.1031 32.9905C86.0991 33.0024 86.0908 33.0125 86.0799 33.0188C85.272 33.5165 84.3236 33.7368 83.379 33.6462C83.3641 33.6419 83.3511 33.6327 83.3419 33.6202C83.3328 33.6077 83.3281 33.5924 83.3286 33.5769C83.3291 33.5614 83.3348 33.5466 83.3447 33.5346C83.3546 33.5227 83.3682 33.5144 83.3834 33.5111Z" fill="#263238"/>
<path d="M57.3584 47.0596L57.7461 51.4769L59.0661 66.3844H70.7412L72.3922 51.4769L72.8758 47.0596H57.3584Z" fill="#455A64"/>
<path d="M57.3584 47.0596L57.7461 51.4769H72.3922L72.8758 47.0596H57.3584Z" fill="#263238"/>
<path d="M56.1997 49.438H74.0303V45.8571H56.1997V49.438Z" fill="#455A64"/>
<path d="M147.355 580.265C147.365 580.715 146.96 580.975 146.14 581.045C145.6 581.105 143.72 581.22 140.5 581.39C137.27 581.58 135.385 581.7 134.845 581.75C134.515 581.79 134.225 581.675 133.975 581.405C133.725 581.145 133.595 580.835 133.585 580.475C133.575 580.115 133.69 579.81 133.93 579.56C134.17 579.3 134.46 579.18 134.8 579.2L138.955 579.35C138.915 578.76 138.825 577.03 138.685 574.16C138.555 571.59 138.46 570.01 138.4 569.42C138.36 569.08 138.485 568.785 138.775 568.535C139.055 568.285 139.39 568.16 139.78 568.16C140.16 568.16 140.48 568.285 140.74 568.535C141 568.785 141.115 569.08 141.085 569.42C141.035 570.11 140.97 571.215 140.89 572.735C143.56 572.825 145.105 572.9 145.525 572.96C145.995 573.04 146.235 573.255 146.245 573.605C146.245 573.955 146.01 574.18 145.54 574.28C145.15 574.36 143.565 574.48 140.785 574.64C140.665 577.11 140.585 578.7 140.545 579.41C143.725 579.51 145.58 579.575 146.11 579.605C146.93 579.645 147.345 579.865 147.355 580.265ZM162.295 574.145C162.305 574.625 161.86 574.91 160.96 575C160.37 575.06 158.535 575.19 155.455 575.39C152.425 575.59 150.58 575.725 149.92 575.795C149.55 575.835 149.23 575.705 148.96 575.405C148.69 575.115 148.55 574.77 148.54 574.37C148.52 573.98 148.645 573.645 148.915 573.365C149.175 573.085 149.49 572.95 149.86 572.96C150.49 572.99 152.335 573.065 155.395 573.185C158.455 573.295 160.3 573.37 160.93 573.41C161.83 573.45 162.285 573.695 162.295 574.145ZM170.86 570.395C170.65 570.415 170.47 570.335 170.32 570.155C170.17 569.975 170.095 569.75 170.095 569.48C170.095 569.21 170.165 568.99 170.305 568.82C170.445 568.64 170.62 568.555 170.83 568.565L173.785 568.67C175.435 568.74 176.4 568.795 176.68 568.835C177.12 568.905 177.345 569.095 177.355 569.405C177.355 569.705 177.13 569.905 176.68 570.005C176.46 570.055 175.72 570.115 174.46 570.185C174.49 570.305 174.485 570.415 174.445 570.515L174.16 571.385L175.435 571.46C175.605 571.29 175.86 571.205 176.2 571.205C176.49 571.205 176.725 571.275 176.905 571.415C177.075 571.555 177.145 571.72 177.115 571.91C177.085 572.14 177.025 573.01 176.935 574.52C176.845 576.05 176.79 576.905 176.77 577.085C176.67 577.495 176.48 577.7 176.2 577.7C175.93 577.7 175.74 577.495 175.63 577.085C175.61 576.915 175.57 576.28 175.51 575.18L175.345 572.615L172.21 572.825L172.06 575.36C172.01 576.39 171.975 576.99 171.955 577.16C171.855 577.56 171.665 577.76 171.385 577.76C171.135 577.76 170.95 577.56 170.83 577.16C170.81 576.99 170.755 576.11 170.665 574.52C170.585 572.98 170.525 572.09 170.485 571.85C170.455 571.65 170.525 571.485 170.695 571.355C170.875 571.225 171.11 571.16 171.4 571.16C171.64 571.16 171.84 571.205 172 571.295L172.57 571.325V570.29C171.77 570.32 171.2 570.355 170.86 570.395ZM175.15 577.505C176.28 578.565 176.9 579.185 177.01 579.365C177.15 579.605 177.16 579.82 177.04 580.01C176.88 580.23 176.65 580.31 176.35 580.25C176.24 580.23 175.875 580.01 175.255 579.59C174.605 579.16 174.24 578.925 174.16 578.885C174 578.815 173.91 578.675 173.89 578.465C173.86 578.245 173.93 578.015 174.1 577.775C174.26 577.555 174.445 577.425 174.655 577.385C174.855 577.335 175.02 577.375 175.15 577.505ZM165.715 572.75C167.145 572.84 168.02 572.9 168.34 572.93L168.28 571.925L165.745 572.09L165.715 572.75ZM168.16 570.02L165.865 570.17L165.82 570.83L166.945 570.89C167.545 570.91 167.97 570.93 168.22 570.95L168.16 570.02ZM164.5 573.965C164.47 573.755 164.42 573.02 164.35 571.76L164.185 569.495C164.155 569.275 164.22 569.085 164.38 568.925C164.55 568.765 164.775 568.685 165.055 568.685C165.275 568.685 165.45 568.73 165.58 568.82L166.87 568.91C167.59 568.95 168.055 568.98 168.265 569C168.435 568.81 168.665 568.715 168.955 568.715C169.225 568.715 169.45 568.795 169.63 568.955C169.8 569.115 169.87 569.3 169.84 569.51C169.81 569.75 169.76 570.48 169.69 571.7C169.61 572.96 169.56 573.68 169.54 573.86C169.46 574.32 169.275 574.55 168.985 574.55C168.695 574.55 168.51 574.34 168.43 573.92L165.595 574.115C165.525 574.475 165.35 574.655 165.07 574.655C164.77 574.655 164.58 574.425 164.5 573.965ZM171.505 580.13C171.445 579.98 171.44 579.795 171.49 579.575C171.53 579.335 171.81 578.4 172.33 576.77C172.86 575.12 173.15 574.175 173.2 573.935C173.25 573.705 173.39 573.53 173.62 573.41C173.86 573.29 174.135 573.28 174.445 573.38C174.745 573.49 174.95 573.665 175.06 573.905C175.15 574.125 175.15 574.355 175.06 574.595C174.69 575.535 173.895 577.345 172.675 580.025C172.615 580.165 172.54 580.275 172.45 580.355L176.68 581.405C177.39 581.585 177.715 581.87 177.655 582.26C177.595 582.62 177.185 582.755 176.425 582.665C175.915 582.605 174.095 582.315 170.965 581.795C167.725 581.255 165.9 580.955 165.49 580.895C165.35 580.885 165.215 580.845 165.085 580.775C164.865 581.355 164.71 581.745 164.62 581.945C164.48 582.285 164.24 582.415 163.9 582.335C163.59 582.255 163.45 582 163.48 581.57C163.49 581.4 163.67 580.665 164.02 579.365C164.35 578.075 164.525 577.33 164.545 577.13C164.565 576.93 164.68 576.775 164.89 576.665C165.1 576.555 165.35 576.54 165.64 576.62C165.93 576.71 166.135 576.86 166.255 577.07C166.355 577.26 166.365 577.455 166.285 577.655L165.88 578.75L167.125 579.065L166.9 576.29C165.34 576.37 164.44 576.42 164.2 576.44C164.01 576.46 163.845 576.385 163.705 576.215C163.575 576.055 163.505 575.85 163.495 575.6C163.495 575.35 163.56 575.14 163.69 574.97C163.83 574.81 163.995 574.735 164.185 574.745C164.285 574.755 165.26 574.79 167.11 574.85C168.8 574.91 169.76 574.96 169.99 575C170.4 575.07 170.61 575.245 170.62 575.525C170.62 575.815 170.415 576 170.005 576.08C169.835 576.11 169.39 576.15 168.67 576.2L168.595 577.055C169.625 577.145 170.15 577.195 170.17 577.205C170.41 577.305 170.53 577.48 170.53 577.73C170.53 577.97 170.41 578.14 170.17 578.24C170.18 578.23 169.62 578.3 168.49 578.45L168.415 579.38L171.505 580.13Z" fill="white"/>
<path d="M93.2179 581.123C92.4139 579.182 92 577.101 92 575C92 570.757 93.6857 566.687 96.6863 563.686C99.6869 560.686 103.757 559 108 559C112.243 559 116.313 560.686 119.314 563.686C122.314 566.687 124 570.757 124 575C124 577.101 123.586 579.182 122.782 581.123C121.978 583.064 120.799 584.828 119.314 586.314C117.828 587.799 116.064 588.978 114.123 589.782C112.182 590.586 110.101 591 108 591C105.899 591 103.818 590.586 101.877 589.782C99.9359 588.978 98.172 587.799 96.6863 586.314C95.2006 584.828 94.022 583.064 93.2179 581.123Z" fill="#1E724E" stroke="#65B792" stroke-width="4"/>
<path d="M111.754 568.24C112.063 568.542 112.081 569.019 111.809 569.34L111.754 569.399L106.024 575L111.754 580.601C112.063 580.902 112.081 581.38 111.809 581.702L111.754 581.76C111.446 582.061 110.958 582.079 110.629 581.813L110.569 581.76L104.246 575.579C104.098 575.433 104.011 575.241 104.001 575.038C103.991 574.836 104.059 574.638 104.191 574.479L104.246 574.421L110.569 568.24C110.645 568.164 110.737 568.104 110.839 568.063C110.941 568.021 111.05 568 111.161 568C111.272 568 111.382 568.021 111.484 568.063C111.586 568.104 111.678 568.164 111.754 568.24Z" fill="white"/>
<defs>
<filter id="filter0_d_236:3322" x="34.1549" y="459.305" width="222.537" height="53.5126" filterUnits="userSpaceOnUse" color-interpolation-filters="sRGB">
<feFlood flood-opacity="0" result="BackgroundImageFix"/>
<feColorMatrix in="SourceAlpha" type="matrix" values="0 0 0 0 0 0 0 0 0 0 0 0 0 0 0 0 0 0 127 0" result="hardAlpha"/>
<feOffset dx="1.08377" dy="5.96075"/>
<feGaussianBlur stdDeviation="2.16755"/>
<feComposite in2="hardAlpha" operator="out"/>
<feColorMatrix type="matrix" values="0 0 0 0 0.121569 0 0 0 0 0.337255 0 0 0 0 0.227451 0 0 0 0.3 0"/>
<feBlend mode="normal" in2="BackgroundImageFix" result="effect1_dropShadow_236:3322"/>
<feBlend mode="normal" in="SourceGraphic" in2="effect1_dropShadow_236:3322" result="shape"/>
</filter>
<filter id="filter1_d_236:3322" x="20.7487" y="327.084" width="217.838" height="52.5629" filterUnits="userSpaceOnUse" color-interpolation-filters="sRGB">
<feFlood flood-opacity="0" result="BackgroundImageFix"/>
<feColorMatrix in="SourceAlpha" type="matrix" values="0 0 0 0 0 0 0 0 0 0 0 0 0 0 0 0 0 0 127 0" result="hardAlpha"/>
<feOffset dx="1.08377" dy="5.96075"/>
<feGaussianBlur stdDeviation="2.16755"/>
<feComposite in2="hardAlpha" operator="out"/>
<feColorMatrix type="matrix" values="0 0 0 0 0.121569 0 0 0 0 0.337255 0 0 0 0 0.227451 0 0 0 0.3 0"/>
<feBlend mode="normal" in2="BackgroundImageFix" result="effect1_dropShadow_236:3322"/>
<feBlend mode="normal" in="SourceGraphic" in2="effect1_dropShadow_236:3322" result="shape"/>
</filter>
<filter id="filter2_d_236:3322" x="0.12511" y="66" width="257.008" height="198.414" filterUnits="userSpaceOnUse" color-interpolation-filters="sRGB">
<feFlood flood-opacity="0" result="BackgroundImageFix"/>
<feColorMatrix in="SourceAlpha" type="matrix" values="0 0 0 0 0 0 0 0 0 0 0 0 0 0 0 0 0 0 127 0" result="hardAlpha"/>
<feOffset dx="-5.15757" dy="5.15757"/>
<feGaussianBlur stdDeviation="2.29225"/>
<feComposite in2="hardAlpha" operator="out"/>
<feColorMatrix type="matrix" values="0 0 0 0 0.121569 0 0 0 0 0.337255 0 0 0 0 0.227451 0 0 0 0.4 0"/>
<feBlend mode="normal" in2="BackgroundImageFix" result="effect1_dropShadow_236:3322"/>
<feBlend mode="normal" in="SourceGraphic" in2="effect1_dropShadow_236:3322" result="shape"/>
</filter>
</defs>
</svg>
