<svg width="268" height="44" viewBox="0 0 268 44" fill="none" xmlns="http://www.w3.org/2000/svg">
<rect x="0.623619" y="0.479088" width="266.852" height="42.6389" rx="14.8517" fill="black" stroke="black" stroke-width="0.958176"/>
<path d="M114.342 22.5143H107.928V20.7398H114.342V22.5143ZM116.032 19.2028H111.952V17.8754H116.955V16.3244H111.952V15.0948H110.262V19.2028H106.349V24.0513H116.032V19.2028ZM106.154 28.0894C106.894 27.3489 107.565 26.1332 107.97 25.0154L106.363 24.6242C105.972 25.6302 105.301 26.7341 104.617 27.3489L106.154 28.0894ZM108.655 25.1132C108.822 26.0774 108.934 27.3209 108.934 28.0475L110.625 27.8379C110.597 27.1113 110.443 25.9097 110.234 24.9595L108.655 25.1132ZM111.505 25.1272C111.91 26.0494 112.33 27.2511 112.483 27.9776L114.09 27.5585C113.922 26.8319 113.461 25.6721 113.028 24.7919L111.505 25.1272ZM114.342 25.0434C115.012 25.9795 115.767 27.2511 116.06 28.0475L117.667 27.4327C117.318 26.6083 116.507 25.3927 115.837 24.5124L114.342 25.0434ZM126.666 21.9554H131.975V20.2926H126.666V18.6718H131.053V17.023H126.666V15.0948H124.891V17.023H120.448V18.6718H124.891V20.2926H119.456V21.9554H124.891V25.8957H122.39V22.7798H120.601V27.5026H129.097V28.1593H130.829V22.7518H129.097V25.8957H126.666V21.9554ZM138.78 20.8795V20.4743V17.4702H141.98V20.8795H138.78ZM146.591 20.8795H143.726V17.4702H146.171V15.9052H134.379V17.4702H137.075V20.4603V20.8795H133.917V22.4724H136.936C136.67 24.1212 135.916 25.728 133.876 26.9576C134.295 27.2371 134.937 27.8239 135.217 28.2012C137.648 26.6782 138.431 24.5543 138.682 22.4724H141.98V28.1593H143.726V22.4724H146.591V20.8795ZM153.717 19.6918L153.884 21.2847C155.477 21.1729 157.671 21.0192 159.753 20.8516C159.907 21.2009 160.018 21.5222 160.102 21.8157L161.541 21.0472C161.206 19.9853 160.284 18.4343 159.418 17.2606L158.104 17.9313C158.412 18.3784 158.719 18.8814 159.012 19.3984C158.146 19.4403 157.294 19.4962 156.483 19.5381C157 18.3225 157.531 16.7995 157.978 15.4162L156.134 15.0948C155.869 16.4641 155.366 18.2666 154.863 19.6359L153.717 19.6918ZM152.152 19.3984C151.984 20.8236 151.719 22.0951 151.313 23.171C150.936 22.9055 150.559 22.654 150.196 22.4305C150.433 21.4803 150.685 20.4463 150.922 19.3984H152.152ZM152.809 17.8335L152.529 17.8754H151.258C151.453 16.9671 151.635 16.0729 151.789 15.2485L150.224 15.0948C150.084 15.9611 149.902 16.9113 149.707 17.8754H148.365V19.3984H149.385C149.036 21.0192 148.659 22.5702 148.323 23.716L149.665 24.4425L149.804 23.9535C150.084 24.1491 150.377 24.3727 150.657 24.5962C150.07 25.6163 149.301 26.3848 148.379 26.8738C148.701 27.1812 149.148 27.782 149.385 28.2012C150.419 27.5585 151.258 26.7201 151.914 25.6442C152.417 26.1053 152.85 26.5664 153.144 26.9576L154.136 25.6302C153.787 25.1831 153.256 24.6801 152.641 24.1771C153.27 22.5562 153.647 20.5302 153.801 17.9872L152.809 17.8335ZM159.11 23.8138V26.1053H156.176V23.8138H159.11ZM154.611 28.1453H156.176V27.6004H159.11V28.0894H160.759V22.3187H154.611V28.1453Z" fill="white"/>
</svg>
