<svg width="375" height="784" viewBox="0 0 375 784" fill="none" xmlns="http://www.w3.org/2000/svg">
<g clip-path="url(#clip0_236:7641)">
<path d="M297.92 699.48C300.44 689.72 284.06 645.23 291.21 644.12C298.36 643.01 314.54 654.22 317.66 668.81C320.78 683.4 314.25 703.41 316.29 711.46C318.33 719.51 322.54 722.56 324.2 722.64C325.86 722.72 330.95 676.35 340.84 672.72C350.73 669.09 357.89 680.46 358.84 694.54C359.79 708.62 337.25 729.32 336.57 736.87C335.89 744.42 340.51 749.87 342.22 747.99C343.93 746.11 357.56 720.52 365.37 714.37C373.18 708.22 381.05 709.44 376.7 724.95C372.35 740.46 353 754.42 353.3 760.18C353.6 765.94 356.76 765.35 358.91 763.27C361.06 761.19 373.51 745.34 378.99 740.82C384.47 736.3 386.79 749.82 386.42 754.48C386.05 759.14 378.16 769.85 375.12 772.27C372.08 774.69 365.9 774.18 364.84 777.27C363.78 780.36 371.5 784.36 371.84 786.19C372.18 788.02 366.7 794.84 364.44 794.47C362.18 794.1 360.04 787.47 356.57 787.12C353.1 786.77 353.74 793.83 347.15 797.32C340.56 800.81 321.05 804.21 315.56 799.68C310.07 795.15 338.33 782.95 343.02 777.39C345.81 772.99 344.56 768.89 341.02 769.96C337.48 771.03 300.61 797.69 292.02 794.35C283.43 791.01 286.1 789.99 289.66 786.01C293.22 782.03 323.66 767.75 321.98 761.83C320.3 755.91 280.08 780.27 268.6 775.97C257.12 771.67 246.11 763.42 249 757.62C251.89 751.82 290.91 754.38 296.36 746.03C301.81 737.68 293.2 742.78 286.25 742.14C279.3 741.5 249.16 745.5 243.83 740.81C238.5 736.12 232.02 732.7 236.66 726.22C241.3 719.74 275.66 725.55 276.66 720.6C277.66 715.65 257.13 717.6 245.49 709.9C233.85 702.2 228.59 686.81 232.07 684.22C235.55 681.63 235.41 681.78 238.24 684.43C241.07 687.08 249.09 697.49 256.15 700.57C263.21 703.65 267.29 707.17 267.77 704.7C268.25 702.23 262.43 696.79 257.01 693.48C251.59 690.17 239.41 683.77 237.84 679.38C236.27 674.99 227.63 661.08 241.44 651.77C255.25 642.46 265.44 653.4 271.65 661.28C277.86 669.16 280.71 677.63 285.22 686.81C289.73 695.99 296.84 703.81 297.97 699.48H297.92Z" fill="#00737F"/>
<path d="M433.27 624.32C431.02 622.65 434.76 605.32 431.15 597.58C427.54 589.84 426.53 601.65 422.72 598.83C418.91 596.01 418.72 577.91 408.19 567.17C405.83 564.75 403.65 566.61 403.77 569.51C403.89 572.41 405.28 575.59 402.04 576.51C398.8 577.43 396.82 566.22 390.82 560.96C384.82 555.7 381.48 556.04 379.92 557.96C378.36 559.88 382.14 562.55 379.18 563.29C376.22 564.03 373.02 558.05 368.4 554.89C363.78 551.73 360 549.06 357.95 550.75C355.9 552.44 359.56 554.35 356.58 556.02C353.6 557.69 348.19 548.19 342.46 544.74C336.73 541.29 340.46 548.1 337.22 549.82C333.98 551.54 329.83 546.61 325.68 546.61C321.53 546.61 322.47 549.85 317.68 551.94C312.89 554.03 305.46 550.37 303.25 552.08C301.04 553.79 305.25 556.4 305.91 564.91C306.57 573.42 302.91 577.81 304.65 583.39C306.39 588.97 316.83 595.92 315.9 599C314.97 602.08 306.15 596.14 306.96 599.71C308.165 604.302 310.64 608.46 314.1 611.71C317.62 614.71 324.23 616.81 324.44 619.25C324.65 621.69 315.6 619.79 315.79 622.07C316.03 625.72 329.48 632.5 330.71 636.62C331.94 640.74 320.46 640.11 323 643C325.54 645.89 337.26 648 339.37 651.79C341.48 655.58 328.92 651.79 330.47 656.03C332.02 660.27 336.08 662.73 341.06 665.22C346.04 667.71 351.88 667.62 352.06 671.22C352.24 674.82 338.91 673.78 341.4 677.1C343.89 680.42 359.76 679.61 361.9 682.67C364.04 685.73 353.14 684.74 357.72 688.67C362.3 692.6 379.05 692.58 380.63 696.96C382.21 701.34 365.53 695.66 370.48 702.15C375.43 708.64 396.38 711.99 403.26 710.66C419.81 708.22 435.4 690.99 439.65 681.29C443.9 671.59 443.49 670.88 443 667.58C442.51 664.28 434.92 672.16 438 664.02C441.08 655.88 446 654.54 445.85 647.48C445.7 640.42 440.71 651.16 441.96 642.98C443.21 634.8 446.12 624.31 442.2 620.55C436.07 614.65 436.31 626.61 433.2 624.3L433.27 624.32Z" fill="#E2A14B"/>
<path d="M420.7 666.4C403.11 643.29 359.61 591.18 326.32 567.58" stroke="white" stroke-width="1.72"/>
<path d="M397 637.58L363.22 646.78M405.53 646.26L413.32 609.94L405.53 646.26ZM392.77 631.81L389.42 597.28L392.77 631.81ZM357.36 593.83L367.48 571.83L357.36 593.83ZM343.94 582.38L330.16 585.38L343.94 582.38ZM374.38 612.62L339.38 612.01L374.38 612.62Z" stroke="white" stroke-width="1.72"/>
<path d="M342.59 527C341.93 524.62 326.49 522.24 321.23 516.81C315.97 511.38 326.04 514.29 324.92 510.27C323.8 506.25 308.92 500.34 303.42 488.27C302.17 485.57 304.42 484.36 306.75 485.37C309.08 486.38 311.28 488.54 313.08 486.16C314.88 483.78 306.25 478.61 303.81 472.01C301.37 465.41 302.71 462.77 304.81 462.09C306.91 461.41 307.89 465.37 309.44 463.16C310.99 460.95 307.07 456.44 305.93 451.63C304.79 446.82 303.78 442.87 305.82 441.71C307.86 440.55 308.28 444.17 310.6 442.25C312.92 440.33 306.8 432.87 305.77 427.05C304.74 421.23 309.16 426.5 311.61 424.34C314.06 422.18 311.29 417.23 312.61 413.82C313.93 410.41 316.29 412.2 319.52 408.94C322.75 405.68 322.09 398.37 324.19 397.1C326.29 395.83 327.11 400.1 333.92 403.35C340.73 406.6 345.49 404.94 349.54 408.15C353.59 411.36 356 422.15 358.81 422.3C361.62 422.45 359.53 413.37 362.22 415.16C365.625 417.602 368.273 420.953 369.86 424.83C371.23 428.68 370.86 434.83 372.8 435.73C374.74 436.631 376.04 428.62 377.85 429.49C380.78 430.84 382.12 444.06 385.12 446.37C388.12 448.68 391.25 439.04 392.78 442.06C394.31 445.08 392.37 455.38 394.86 458.32C397.35 461.26 398.16 449.71 401.16 452.32C404.16 454.93 404.91 459.05 405.39 463.94C405.87 468.83 403.95 473.61 406.89 474.94C409.83 476.27 413.15 464.94 415.1 468.02C417.05 471.1 411.37 483.931 413.21 486.671C415.05 489.41 417.68 480.1 419.47 485.12C421.26 490.14 415.95 503.93 419.07 506.6C422.19 509.27 422.77 493.75 426.55 499.88C430.33 506.01 426.48 524.32 423.22 529.57C415.99 542.43 396.87 549.831 387.54 550.271C378.21 550.711 377.76 550.15 375.18 548.701C372.6 547.251 381.5 543.49 373.82 543.47C366.14 543.45 363.49 547.041 357.72 544.711C351.95 542.381 362.38 541.641 355.25 540.081C348.12 538.521 338.56 537.611 336.69 533.201C333.77 526.29 343.54 530.26 342.62 526.97L342.59 527Z" fill="#52B788"/>
<path d="M325.2 415.79C323 426.26 358.91 521 396.6 536.1C368.73 511.74 325.2 415.79 325.2 415.79Z" fill="#4B9975"/>
<path d="M28.31 914C25.62 917.62 37.25 911.47 47.09 911.27C56.93 911.07 64.23 913.33 78.66 908.38C93.09 903.43 113.59 882.64 127.89 871.38C142.19 860.12 152.01 858.38 169.24 838.14C186.47 817.9 204 794 206.38 774.63C208.76 755.26 227.58 745.12 229.22 722.32C230.86 699.52 201.31 664.12 207.31 643.54C182.62 689.6 146.83 707.16 125.73 732.4C104.63 757.64 116.58 759.89 100.47 784.48C84.36 809.07 79.06 801.38 59.64 826.54C37.12 855.7 49.37 885.65 28.31 914Z" fill="#1E724E"/>
<path d="M22.1599 588.19C22.3799 586.7 22.9599 584.93 24.3999 584.19C27.3999 582.68 30.7599 586.14 32.6299 588.01C36.2014 591.559 39.2095 595.633 41.5499 600.09L41.1699 599.36C43.1699 603.14 45.6899 607.15 46.0599 611.44C46.2499 613.92 45.2499 615.71 44.7799 618.05C44.4899 619.36 45.0499 621.77 44.0999 622.89C46.0299 620.58 47.9699 618.29 50.0099 616.08C51.1899 614.8 53.8599 612.68 53.9299 610.71C54.0199 608.31 50.9299 606.71 49.5199 605.23C43.5199 599 41.5199 586.94 42.7599 578.62C43.0399 576.75 43.7599 572.96 45.7599 571.82C48.6099 570.23 51.1899 574.21 52.4899 576.26C55.5277 581.319 57.5299 586.931 58.3799 592.77C58.957 595.683 59.1286 598.661 58.8899 601.62C58.4799 604.89 55.9999 607 55.4799 610C57.8799 607.43 60.4799 605.1 63.0299 602.65C64.7699 600.9 67.7599 598.73 67.8799 596C67.8219 594.593 67.2572 593.254 66.2899 592.23C61.6699 586.23 57.0199 580.69 55.5499 572.98C55.0299 570.18 54.7599 565.09 57.8199 563.4C60.8799 561.71 63.6299 565.9 65.0499 568.07C67.4013 571.864 69.2374 575.953 70.5099 580.23C71.3899 583.14 72.3399 586.38 71.8999 589.41C71.4899 592.22 69.4099 594.3 68.8199 597.02C75.2499 591.19 75.9699 584.08 79.8199 576.46C81.9699 572.17 92.1799 550.16 99.1899 555.23C104.91 559.34 97.8399 571.88 95.4799 576.13C93.272 580.174 90.2844 583.739 86.6899 586.62C84.1573 588.491 81.3599 589.974 78.3899 591.02C74.8799 592.41 73.3899 595.24 70.4999 597.34C76.8707 592.7 84.8234 590.779 92.6099 592C95.5299 592.52 105.3 594.92 104.94 599.11C104.46 601.2 101.94 602.11 100.19 602.78C94.6116 604.648 88.6092 604.846 82.9199 603.35C80.6571 602.825 78.4885 601.954 76.4899 600.77C74.9999 599.87 73.3699 598.51 71.5399 598.43C67.2199 598.17 63.4899 604.01 60.5399 606.49C70.8328 605.793 81.1652 607.034 90.9999 610.15C93.5199 610.95 98.4499 613.01 96.4799 616.44C95.4799 618.14 92.8299 618.63 91.0099 619C83.1199 620.61 72.7699 619.44 66.5299 613.88C64.7699 612.33 62.1299 607.57 59.5299 607.88C57.9799 608.07 55.8199 611.02 54.7999 612.06C52.9917 613.88 51.2794 615.793 49.6699 617.79C52.1899 618.55 54.5499 617.79 57.0899 617.72C59.9245 617.816 62.729 618.335 65.4099 619.26C70.4099 620.72 75.5399 622.53 79.7799 625.67C82.2899 627.52 86.6499 631.12 85.7799 634.72C84.6199 639.4 76.3099 636.87 73.2499 636.11C67.6944 634.802 62.4156 632.516 57.6599 629.36C54.0799 626.91 53.5399 624.23 51.4199 620.77C49.7299 618.01 47.6999 620.09 45.9299 622.11C41.9299 626.7 38.0699 631.64 34.2099 636.37C37.4099 635.94 40.4399 634.77 43.6399 634.37C47.1454 634.02 50.6836 634.188 54.1399 634.87C59.3799 635.78 65.7299 637.42 70.1399 640.58C74.9999 644.06 72.5399 647.51 68.0699 649C60.2599 651.6 45.6699 650.91 39.7799 644.19C38.0499 642.19 37.1499 637.5 34.0399 637.63C31.7399 637.71 30.3699 640.83 29.1899 642.42C27.0899 645.35 24.6799 648.06 22.2599 650.81C24.1899 652.95 27.1599 651.32 29.5599 651.11C32.9305 650.943 36.3062 651.315 39.5599 652.21C45.0899 653.48 50.9899 655.14 55.4799 658.79C58.3799 661.15 65.6599 668.88 58.5799 670.48C54.0399 671.48 48.6899 670.19 44.3299 668.94C38.9999 667.43 32.0999 665.21 27.9999 661.29C25.8899 659.29 25.3899 653.89 22.8899 652.63C20.6099 651.49 19.0299 654.54 17.5399 656.07C14.8799 658.81 12.0599 661.4 9.11991 663.89C11.7858 664.613 14.5773 664.747 17.2999 664.28C20.2045 664.008 23.1314 664.458 25.8199 665.59C30.1005 667.244 33.9799 669.791 37.1999 673.06C40.2499 676.06 47.6199 684.48 40.4099 686.92C31.7299 689.92 17.6699 683.22 13.0599 675.69C11.3899 673.01 12.7899 667.62 10.3099 665.62C7.2299 663.13 -0.690094 671.99 -2.92009 673.71C1.61991 677.3 6.44991 678.79 9.83991 683.85C12.3379 687.671 13.9945 691.98 14.6999 696.49C15.6399 702.16 14.8999 710.66 7.23991 706.93C-0.630093 703.13 -8.92009 689.87 -5.76009 681.09C-5.31009 679.84 -3.30009 677.45 -3.30009 676.16C-3.30009 672.93 -6.44009 676.41 -7.59009 677.16C-10.4701 679.16 -13.4501 680.95 -16.4501 682.73C-20.2348 684.873 -23.9064 687.209 -27.4501 689.73C-28.4501 690.48 -34.2501 695.17 -34.7001 691.73C-35.0101 689.39 -30.0001 687.73 -28.4501 687.03C-24.2602 685.39 -20.2131 683.407 -16.3501 681.1C-14.1101 679.71 -11.8601 678.33 -9.65009 676.93C-8.19009 676 -3.36009 673.98 -5.65009 672.45C-6.53009 671.87 -8.41009 672.53 -9.45009 672.45C-11.0337 672.384 -12.6027 672.118 -14.1201 671.66C-19.4987 669.913 -24.3765 666.894 -28.3401 662.86C-30.5601 660.64 -39.0401 650.86 -30.4001 650.65C-24.4001 650.55 -17.7601 654.15 -13.0501 657.59C-7.99009 661.26 -5.49009 666.59 -3.68009 672.46C-0.647026 670.46 2.28024 668.304 5.08991 666C5.55991 665.6 8.23991 663.58 7.89991 662.72C7.41991 661.72 4.18991 662.38 3.23991 662.25C-5.33009 661.31 -13.0501 652.64 -16.2201 645.06C-17.4201 642.19 -18.1601 638.16 -14.7501 636.68C-11.3401 635.2 -6.43009 637.59 -3.36009 639.13C1.37991 641.49 6.30991 645.13 8.88991 649.88C10.3099 652.53 12.5799 659.3 9.88991 661.74C13.0599 658.89 18.4099 655.88 19.8899 651.65C21.2399 647.85 16.7899 648.55 14.1699 647.51C6.45991 644.36 -1.19009 634.83 -3.25009 626.77C-4.56009 621.65 -0.420094 620.99 4.02991 622.44C9.15056 624.288 13.6531 627.53 17.0299 631.8C19.0299 634.14 21.2199 637.06 22.0299 640.04C22.7899 642.75 21.6099 645.49 22.2899 648.18C24.7699 647.72 27.5599 642.88 28.9199 641.05C29.5299 640.23 30.9899 638.8 31.1099 637.76C31.2999 635.92 29.7099 635.43 28.3499 634.52C20.9399 629.52 15.7699 619.83 14.7899 611.03C14.4599 608.1 14.2999 602.74 18.0999 602.08C21.7299 601.49 25.2299 606.3 27.0299 608.8C30.0527 612.659 32.3592 617.028 33.8399 621.7C35.3799 627.01 32.4199 631.5 32.4499 636.75C34.8599 633.59 45.5499 625.08 42.4499 620.26C40.7599 618.57 38.0299 617.87 36.1899 616.26C32.7499 613.26 29.8799 609.11 27.3899 605.26C24.1799 600.33 21.2399 594.26 22.1199 588.17L22.1599 588.19Z" fill="#1E724E"/>
<path d="M75.47 402.28C82.7299 406.28 87.25 463.96 80.29 479.1C71.67 481.9 56.1199 482.1 50.4799 486.38C60.0099 487.08 79.29 490.51 79.29 490.51L71 522.76L37.89 523.49L66.79 533.77L53.15 561.5L22.15 558.39L45.27 570.87L23 597.54L-10.89 591.43L12.4 602.86L-1.73004 617.86L-28.57 617.61L-15.57 626.38C-15.57 626.38 -31.94 641.86 -44.35 642.77C-56.76 643.68 -67.85 644.96 -71.72 642.32C-75.59 639.68 -80.97 614.91 -79.88 604.27C-78.79 593.63 -77.39 585.78 -77.39 585.78L-71.07 591.98L-73.83 569.98L-62.83 549.98L-58.29 567.15L-57.37 539.34L-37.85 520.17L-29.54 546.17L-30.35 509.84L-13.21 489.91L-3.44004 515.21L-5.88004 478L14.23 457.23L21.47 480.51L20.64 448.51L40.82 432.85L45.39 450.54L50.77 423.76C50.77 423.76 64.56 412.6 70.11 402.9C72.17 398.63 75.47 402.28 75.47 402.28Z" fill="#00737F"/>
<path d="M291.9 286.83C288.76 284.42 293.99 294.71 294.01 303.36C294.03 312.01 291.94 318.36 296.01 331.12C300.08 343.88 318.07 362.18 327.73 374.9C337.39 387.62 338.8 396.27 356.27 411.71C373.74 427.15 394.55 442.88 411.49 445.29C428.43 447.7 437.07 464.36 457.05 466.14C477.03 467.92 508.56 442.54 526.54 448.14C486.54 425.76 471.62 394.08 449.8 375.14C427.98 356.2 425.8 366.69 404.48 352.14C383.16 337.59 390 333.11 368.24 315.67C343 295.46 316.51 305.75 291.9 286.83Z" fill="#1E724E"/>
<path d="M282.13 164.38C286.31 161.18 322.28 172.8 329.71 180.52C329.27 186.16 325.59 195.17 326.71 199.45C329.48 194.14 336.31 183.9 336.31 183.9L353.73 196.64L346 215.86L359.34 201.77L372.73 216.42L363.21 233.48L376.45 223.26L387.07 242.62L375.02 260.62L387.7 250L393.25 261.81L386.48 277.18L394.98 271.87C394.98 271.87 400.29 285.09 397.78 292.45C395.27 299.81 393.3 306.45 390.78 308.08C388.26 309.71 371.95 306.65 365.78 303.4C359.61 300.15 355.23 297.4 355.23 297.4L360.53 295.29L346.53 291.46L337.17 280.22L348.66 281.84L332.09 274.46L325.33 258.51L343.07 260.13L321 251.7L313.2 236.94L330.89 237.55L307.83 229.79L300.25 213.11L316 214.69L296.49 207.29L292.01 191.83L303.82 193.56L289 183.87C289 183.87 285.66 173.19 281.18 167.61C279.11 165.38 282.13 164.37 282.13 164.37V164.38Z" fill="#00737F"/>
<path d="M315.1 162.45C313.78 162.06 312.25 161.31 311.8 159.92C310.8 157.02 314.37 154.4 316.31 152.92C319.98 150.134 324.053 147.926 328.39 146.37L327.68 146.62C331.36 145.33 335.31 143.51 339.25 143.72C341.52 143.86 343.02 144.99 345.08 145.72C346.23 146.14 348.48 145.95 349.38 146.95C347.53 144.95 345.7 142.86 343.95 140.73C342.95 139.5 341.35 136.81 339.58 136.49C337.42 136.1 335.58 138.69 334.05 139.79C327.65 144.41 316.45 144.73 309.05 142.54C307.39 142.05 304.05 140.96 303.26 138.99C302.17 136.2 306.11 134.37 308.14 133.45C313.11 131.337 318.45 130.232 323.85 130.2C326.564 130.047 329.287 130.269 331.94 130.86C334.8 131.61 336.37 134.1 339.02 134.97C337.02 132.47 335.22 129.78 333.31 127.2C331.94 125.4 330.31 122.42 327.89 121.96C326.602 121.845 325.316 122.2 324.27 122.96C318.27 126.38 312.63 129.9 305.46 130.25C302.86 130.37 298.21 129.96 297.07 126.98C295.93 124 300.07 121.98 302.22 120.98C305.979 119.337 309.941 118.204 314 117.61C316.75 117.18 319.8 116.73 322.5 117.52C324.99 118.25 326.61 120.4 329.01 121.28C324.54 114.71 318.19 113.16 311.76 108.72C308.15 106.22 289.49 94.1903 294.97 88.4703C299.42 83.8103 309.9 91.8003 313.44 94.4703C316.827 96.9846 319.682 100.146 321.84 103.77C323.216 106.303 324.207 109.026 324.78 111.85C325.59 115.2 327.97 116.92 329.51 119.85C327.832 116.696 326.791 113.241 326.448 109.684C326.105 106.127 326.466 102.538 327.51 99.1203C328.35 96.5403 331.76 87.9903 335.51 88.8403C337.35 89.5403 337.86 91.9303 338.23 93.6103C339.216 98.9012 338.635 104.365 336.56 109.33C335.794 111.314 334.728 113.169 333.4 114.83C332.4 116.07 330.96 117.37 330.65 119.02C329.87 122.9 334.65 127.02 336.57 130.02C337.236 120.602 339.665 111.392 343.73 102.87C344.73 100.69 347.26 96.4803 350.12 98.7003C351.54 99.8003 351.64 102.28 351.75 103.98C352.21 111.34 349.83 120.56 344 125.52C342.37 126.92 337.72 128.71 337.7 131.1C337.7 132.53 340.07 134.86 340.89 135.91C342.313 137.781 343.831 139.577 345.44 141.29C346.44 139.1 346.05 136.86 346.32 134.55C346.765 131.992 347.591 129.514 348.77 127.2C350.77 122.84 353.02 118.44 356.4 114.98C358.4 112.98 362.21 109.44 365.4 110.68C369.49 112.32 366.15 119.54 365.07 122.21C363.179 127.052 360.447 131.52 357 135.41C354.33 138.34 351.82 138.49 348.42 139.98C345.7 141.16 347.33 143.27 348.94 145.13C352.59 149.35 356.58 153.46 360.38 157.56C360.38 154.56 359.72 151.71 359.76 148.76C359.888 145.536 360.492 142.349 361.55 139.3C363.04 134.67 365.33 129.11 368.75 125.52C372.52 121.52 375.34 124.23 376.12 128.47C377.49 135.88 375.01 149.02 368.17 153.47C366.17 154.79 361.78 155.01 361.49 157.84C361.27 159.93 363.93 161.57 365.22 162.84C367.61 165.11 369.76 167.65 371.94 170.19C374.12 168.71 373.02 165.82 373.14 163.61C373.419 160.546 374.181 157.545 375.4 154.72C377.25 149.87 379.51 144.72 383.4 141.12C385.91 138.79 393.84 133.17 394.4 139.79C394.76 144.04 392.88 148.72 391.2 152.52C389.2 157.15 386.26 163.17 382.2 166.35C380.09 168.01 375.2 167.78 373.7 169.89C372.38 171.81 374.94 173.64 376.14 175.18C378.29 177.94 380.27 180.83 382.14 183.8C383.131 181.477 383.605 178.965 383.53 176.44C383.653 173.775 384.432 171.181 385.8 168.89C387.841 165.22 390.639 162.026 394.01 159.52C397.16 157.14 405.69 151.52 407.01 158.37C408.59 166.61 400.78 178.52 393.37 181.74C390.73 182.91 386.02 180.97 383.89 182.95C381.24 185.43 388.27 193.76 389.55 195.95C393.38 192.29 395.34 188.1 400.35 185.67C404.129 183.892 408.244 182.937 412.42 182.87C417.67 182.74 425.29 184.48 420.94 190.96C416.5 197.61 403.43 203.44 395.87 199.47C394.8 198.91 392.87 196.78 391.71 196.62C388.78 196.2 391.54 199.5 392.11 200.62C393.55 203.48 394.8 206.41 396.04 209.36C397.496 213.056 399.141 216.674 400.97 220.2C401.52 221.2 405.04 227.05 401.89 227.03C399.73 227.03 398.82 222.26 398.42 220.77C397.466 216.764 396.181 212.844 394.58 209.05C393.58 206.85 392.64 204.63 391.65 202.45C390.99 201.01 389.78 196.37 388.1 198.24C387.46 198.96 387.82 200.75 387.64 201.69C387.378 203.116 386.938 204.504 386.33 205.82C384.068 210.476 380.717 214.516 376.56 217.6C374.27 219.33 364.28 225.77 365.23 217.92C365.9 212.47 370.01 206.92 373.72 203.07C377.72 198.95 382.86 197.36 388.39 196.46C386.963 193.457 385.38 190.53 383.65 187.69C383.35 187.21 381.86 184.53 381.03 184.69C380.03 184.99 380.25 188.01 380.03 188.85C378.09 196.5 369.26 202.4 361.98 204.31C359.23 205.04 355.48 205.2 354.57 201.91C353.66 198.62 356.45 194.48 358.23 191.91C360.97 187.91 364.86 183.91 369.53 182.17C372.11 181.17 378.53 180.02 380.4 182.8C378.22 179.56 376.17 174.33 372.53 172.44C369.26 170.74 369.33 174.86 368.05 177.1C364.22 183.69 354.61 189.42 347.05 190.26C342.25 190.8 342.17 186.96 344.05 183.12C346.335 178.762 349.778 175.118 354 172.59C356.37 171.1 359.3 169.46 362.1 169.11C364.66 168.77 366.99 170.18 369.51 169.9C369.41 167.59 365.37 164.45 363.89 162.99C363.22 162.34 362.11 160.83 361.19 160.59C359.54 160.19 358.9 161.59 357.9 162.68C352.45 168.76 342.99 172.22 334.9 171.99C332.2 171.92 327.32 171.38 327.21 167.85C327.13 164.49 331.94 161.93 334.43 160.6C338.315 158.351 342.573 156.817 347 156.07C352 155.35 355.71 158.6 360.47 159.24C357.91 156.65 351.55 145.88 346.79 148.09C345.05 149.41 344.06 151.8 342.34 153.25C338.956 155.919 335.238 158.135 331.28 159.84C326.4 162.12 320.51 164.02 315.12 162.45H315.1Z" fill="#1E724E"/>
<path d="M44.3001 364.67C52.9001 364.87 86.6901 342.67 89.0001 348.35C91.3101 354.03 85.1401 369.69 73.6101 375.12C62.0801 380.55 44.2001 379 37.9001 382.25C31.6001 385.5 29.9001 389.6 30.1401 390.99C30.3801 392.38 69.9201 387.62 74.8501 395.13C79.7801 402.64 71.7301 410.8 60.2201 414.36C48.7101 417.92 27.1301 403.17 20.7301 404.07C14.3301 404.97 10.6701 409.87 12.5901 410.92C14.5101 411.97 38.4001 418.33 45.0001 423.63C51.6001 428.93 52.1401 435.7 38.4101 435.1C24.6801 434.5 9.32012 421.1 4.60012 422.47C-0.119881 423.84 1.00012 426.35 3.14012 427.74C5.28012 429.13 20.8701 436.39 25.6901 440.07C30.5101 443.75 19.6901 448.31 15.7801 448.89C11.8701 449.47 1.41012 445 -1.18988 443C-3.78988 441 -4.56988 435.71 -7.35988 435.44C-10.1499 435.17 -11.9599 442.35 -13.3599 443.02C-14.7599 443.69 -21.5399 440.43 -21.6699 438.47C-21.7999 436.51 -16.6699 433.47 -17.0899 430.47C-17.5099 427.47 -23.2199 429.47 -27.3899 424.63C-31.5599 419.79 -38.1799 404.28 -35.4899 398.84C-32.7999 393.4 -17.1699 414.51 -11.6399 417.33C-7.43988 418.8 -4.27988 416.96 -5.84988 414.21C-7.41988 411.46 -36.7299 386.01 -35.6299 378.21C-34.5299 370.41 -33.1499 372.44 -29.1599 374.63C-25.1699 376.82 -7.39988 399.3 -2.79988 396.79C1.80012 394.28 -26.2999 365.58 -24.9999 355.21C-23.6999 344.84 -18.9199 334.03 -13.5499 335.29C-8.17988 336.55 -2.71988 369.48 5.27012 372.39C13.2601 375.3 7.35012 369.13 6.54012 363.23C5.73012 357.33 -3.45988 333.07 -0.589882 327.72C2.28012 322.37 3.86012 316.33 10.1401 318.93C16.4201 321.53 18.2701 351.23 22.5701 351.06C26.8701 350.89 21.3101 334.24 25.4101 323.06C29.5101 311.88 41.3601 304.57 44.1901 307C47.0201 309.43 46.8601 309.3 45.1901 312.17C43.5201 315.04 36.4501 323.72 35.2501 330.17C34.0501 336.62 31.9201 340.7 34.0701 340.62C36.2201 340.54 39.6101 334.62 41.3001 329.5C42.9901 324.38 45.9501 312.99 49.3001 310.84C52.6501 308.69 62.5301 298.84 72.9401 308.48C83.3501 318.12 76.2401 328.71 70.9401 335.42C65.6401 342.13 59.1001 346.1 52.3501 351.62C45.6001 357.14 40.4601 364.62 44.2901 364.67H44.3001Z" fill="#52B788"/>
<path d="M83.3701 167.12C88.9501 171.34 84.7701 220.06 76.8101 231.8C69.1501 233.03 55.9901 231.25 50.6401 234.06C58.5801 235.86 74.3901 241.18 74.3901 241.18L62.8901 267L34.8901 263.38L57.8901 275.65L42.4901 297L16.7601 290.45L34.5501 303.81L12.0801 323.21L-15.6799 313.79L2.32011 326.3L-11.6799 336.97L-34.2999 333.33L-24.5399 342.33C-24.5399 342.33 -40.5399 353.15 -51.0999 352.33C-61.6599 351.51 -71.2399 351.16 -74.0999 348.46C-76.9599 345.76 -78.0999 324.46 -75.7199 315.68C-73.3399 306.9 -71.0599 300.58 -71.0599 300.58L-66.5799 306.58L-65.8599 287.88L-53.8599 272.61L-52.4099 287.51L-47.7799 264.44L-28.6499 250.94L-25.2399 273.68L-20.8999 243.28L-3.66989 228.85L1.08011 251.19L4.17011 219.87L24.0701 205.1L27.0001 225.45L30.7301 198.68L49.9301 188.2L51.3401 203.53L59.5901 181.88C59.5901 181.88 72.7301 174.33 78.7601 167C81.0901 163.7 83.3701 167.16 83.3701 167.16V167.12Z" fill="#1E724E"/>
<path d="M49.46 93.6104C51.46 90.2904 55.09 79.5103 65.91 81.6703C72.28 81.8403 85.51 91.9503 84.42 104.67C83.33 117.39 78.51 115 74.95 122C71.39 129 71.95 136.92 71.69 145.54C71.43 154.16 66.3 164.9 59.79 169.6C56.18 172.21 51.33 173.52 47.35 176.27C40.28 181.17 38.24 194.49 29.7 193.45C28.97 193.36 28.3 193.2 27.7 193.11C22.6475 192.685 17.7477 191.168 13.3397 188.662C8.93156 186.157 5.12044 182.724 2.16998 178.6C-7.23001 165.6 -6.29002 144.6 0.169984 139.54C6.62998 134.48 16.69 124.98 16.17 116.72C15.65 108.46 21.08 101.47 22.17 101.13C23.26 100.79 24.61 97.0704 32.84 98.0004C39.42 98.8104 46.66 95.4104 49.46 93.6104Z" fill="#E2A14B"/>
<path d="M52.3799 124.6L60.9499 115.45M50.1499 116.75L42.9999 127.05L50.1499 116.75ZM-16.6001 205.57L1.2099 187.2L3.4999 183.9L-16.6001 205.57ZM32.4399 142.24L30.4399 125.91L32.4399 142.24ZM32.4399 142.24L24.6299 153.48L32.4399 142.24ZM32.4399 142.24L42.9999 127.05L32.4399 142.24ZM29.0999 114.37L30.4799 125.91L29.0999 114.37ZM30.4799 125.91L36.3799 118.41L30.4799 125.91ZM16.8199 164.72L14.7499 147.44L16.8199 164.72ZM16.8199 164.72L3.4999 183.9L16.8199 164.72ZM16.8299 164.72L24.6399 153.48L16.8299 164.72ZM13.8099 139.62L14.7499 147.44L13.8099 139.62ZM14.7499 147.44L20.3299 138.84L14.7499 147.44ZM3.4999 183.9L14.6299 182.56L3.4999 183.9ZM24.6299 153.48L46.7899 148.56L24.6299 153.48ZM58.5599 146L46.7899 148.61L58.5599 146ZM46.7899 148.61L52.9099 139.83L46.7899 148.61ZM42.9999 127.05L52.3799 124.6L42.9999 127.05ZM61.7599 122.15L52.3799 124.6L61.7599 122.15Z" stroke="white" stroke-width="1.47" stroke-linecap="round"/>
<path d="M117.23 689.81C120.6 685.81 132.75 676.25 125.1 663.38C122.01 655.3 103.1 642.91 87.32 650.04C71.54 657.17 76.74 662.26 69.32 669.99C61.9 677.72 51.6 680.58 40.67 684.76C29.74 688.94 18.32 700.39 15.23 710.83C13.51 716.63 14.03 723.43 12.29 729.76C9.20005 741 -6.93995 749.63 -1.75995 760.09C-1.31995 760.98 -0.819951 761.76 -0.409951 762.56C1.70005 766.66 8.83005 782.45 29.71 788.63C50.59 794.81 77 784.16 80.6 773.54C84.2 762.92 91.8 745.84 102.6 742.79C113.4 739.74 119.91 729.64 119.84 728.03C119.77 726.42 123.98 723.18 119.03 713.09C115.09 705 116.18 694.21 117.23 689.81Z" fill="#E2A14B"/>
<path d="M76.2299 700L84.0799 685M87.2799 699.36L77.2799 713.16L87.2799 699.36ZM3.62988 824.82L19.1299 793.75L22.3199 789.33L3.62988 824.82ZM62.6199 733.51L84.4099 728.66L62.6199 733.51ZM62.6199 733.51L51.7499 748.57L62.6199 733.51ZM62.6199 733.51L77.3199 713.16L62.6199 733.51ZM99.8099 725.24L84.4099 728.66L99.8099 725.24ZM84.4099 728.66L91.4099 717.73L84.4099 728.66ZM40.8799 763.63L63.9399 758.5L40.8799 763.63ZM40.8799 763.63L22.3199 789.33L40.8799 763.63ZM40.8799 763.63L51.7499 748.57L40.8799 763.63ZM74.3699 756.18L63.9499 758.5L74.3699 756.18ZM63.9499 758.5L72.4499 747.5L63.9499 758.5ZM22.3299 789.33L18.9999 774.48L22.3299 789.33ZM51.7299 748.57L48.0699 718L51.7299 748.57ZM46.0699 701.76L48.0699 718L46.0699 701.76ZM48.0699 718L56.5499 706.21L48.0699 718ZM77.3199 713.21L76.2299 700L77.3199 713.21ZM75.1399 686.89L76.2299 700L75.1399 686.89Z" stroke="white" stroke-width="2" stroke-linecap="round"/>
</g>
<defs>
<clipPath id="clip0_236:7641">
<rect width="375" height="784" fill="white"/>
</clipPath>
</defs>
</svg>
