<svg width="375" height="753" viewBox="0 0 375 753" fill="none" xmlns="http://www.w3.org/2000/svg">
<g clip-path="url(#clip0_236:8607)">
<path d="M-0.840118 65.5502C-0.930119 64.0602 -0.74012 62.2402 0.499882 61.2602C3.06988 59.1802 7.04988 61.8202 9.23988 63.2602C13.4255 65.9474 17.1756 69.2591 20.3599 73.0802L19.8399 72.4502C22.5099 75.7002 25.8399 79.0302 27.0699 83.1002C27.7699 85.4502 27.1799 87.3902 27.1999 89.7502C27.1999 91.0702 28.1999 93.2802 27.5499 94.5702C28.9399 91.9402 30.3399 89.3202 31.8399 86.7702C32.7099 85.2902 34.8399 82.6902 34.5099 80.7702C34.0999 78.4402 30.7999 77.5302 29.1099 76.3902C22.0499 71.6102 17.5899 60.3902 17.1099 52.0902C16.9999 50.2302 16.8599 46.4202 18.5599 44.9102C20.9999 42.7702 24.2799 46.0802 25.9999 47.8002C29.9813 52.0552 33.0779 57.0587 35.1099 62.5202C36.2583 65.2279 37.0256 68.0817 37.3899 71.0002C37.6899 74.1802 35.7499 76.6902 35.8499 79.7002C37.6299 76.7002 39.6999 73.9302 41.6099 71.0402C42.9299 68.9902 45.3599 66.2702 44.9099 63.6102C44.5635 62.2647 43.7433 61.0894 42.5999 60.3002C36.8899 55.3902 31.2499 51.0002 28.2399 43.9002C27.1499 41.3102 25.8499 36.4502 28.4399 34.1802C31.0299 31.9102 34.5699 35.3902 36.4399 37.1802C39.4956 40.3557 42.1153 43.9237 44.2299 47.7902C45.6799 50.4202 47.2299 53.3502 47.4699 56.3702C47.6599 59.1702 46.0799 61.6002 46.0699 64.3702C51.0699 57.3702 50.2899 50.3702 52.4099 42.2402C53.5999 37.6502 58.8899 14.2402 66.7099 17.7302C73.0799 20.5102 68.8599 34.0902 67.4599 38.6802C66.1729 43.059 64.028 47.1381 61.1499 50.6802C59.095 53.0224 56.702 55.0447 54.0499 56.6802C50.9499 58.7502 50.0499 61.7902 47.7399 64.4202C50.3093 61.5404 53.4212 59.1953 56.8975 57.5189C60.3739 55.8425 64.1466 54.8677 67.9999 54.6502C70.9199 54.5502 80.8499 54.8402 81.3799 58.9602C81.3799 61.0802 79.1199 62.4902 77.5599 63.4802C72.5601 66.4409 66.8044 67.8763 60.9999 67.6102C58.7038 67.571 56.4273 67.1798 54.2499 66.4502C52.6199 65.8902 50.7699 64.9202 48.9899 65.2102C44.7699 65.8602 42.3699 72.2702 40.0699 75.2702C49.8625 72.4559 60.0966 71.5061 70.2399 72.4702C72.8399 72.7202 78.0199 73.6802 76.8299 77.4102C76.2399 79.2502 73.7599 80.2802 72.0799 81.0202C64.7899 84.2102 54.5599 85.2202 47.3799 81.1502C45.3799 80.0102 41.8299 75.9702 39.3799 76.8302C37.9299 77.3302 36.4399 80.6302 35.6799 81.8302C34.3133 83.9637 33.0583 86.1667 31.9199 88.4302C34.5099 88.6402 36.6299 87.4302 39.0699 86.8302C41.8257 86.3345 44.6401 86.2536 47.4199 86.5902C52.5599 86.9602 57.8799 87.6502 62.6299 89.8002C65.4399 91.0702 70.3899 93.6302 70.3099 97.3002C70.1599 102.06 61.6099 101.3 58.4999 101.24C52.8649 101.127 47.295 100.013 42.0499 97.9502C38.0499 96.3302 37.0499 93.8502 34.2399 90.9502C32.0399 88.6302 30.4999 91.0702 29.2399 93.3802C26.3199 98.6402 23.6299 104.21 20.8799 109.58C23.8799 108.5 26.5599 106.75 29.5699 105.69C32.8785 104.628 36.3254 104.059 39.7999 104C45.0499 103.8 51.5199 104.06 56.4299 106.2C61.8399 108.56 60.1799 112.4 56.1699 114.76C49.1699 118.89 34.9399 121.24 27.8599 115.98C25.7799 114.42 23.9399 110.07 20.9599 110.83C18.7599 111.38 18.0799 114.68 17.2699 116.46C15.8499 119.72 14.0799 122.84 12.2699 125.99C14.5799 127.65 17.0999 125.47 19.3799 124.77C22.5863 123.918 25.9076 123.581 29.2199 123.77C34.8199 123.85 40.8699 124.23 45.9599 126.82C49.2499 128.5 57.8799 134.46 51.3799 137.46C47.2099 139.4 41.7699 139.22 37.2999 138.93C31.8499 138.57 24.6799 137.86 19.9499 134.93C17.4899 133.41 15.8999 128.33 13.2199 127.62C10.8199 127 9.91988 130.26 8.79988 132C6.79988 135.2 4.60988 138.28 2.28988 141.3C5.02078 141.447 7.7508 140.996 10.2899 139.98C13.0386 139.115 15.9587 138.943 18.7899 139.48C23.2633 140.19 27.5345 141.843 31.3199 144.33C34.8999 146.64 43.7399 153.2 37.3199 157.05C29.5499 161.7 14.5899 158.19 8.58988 151.87C6.41988 149.62 6.64988 144.14 3.84988 142.71C0.299881 141 -5.55012 151.19 -7.30012 153.31C-2.17012 155.84 2.79988 156.31 7.11988 160.45C10.322 163.62 12.8137 167.434 14.4299 171.64C16.5099 176.92 17.5599 185.28 9.42988 183.27C0.999882 181.23 -9.75012 170.15 -8.52012 161C-8.35012 159.7 -6.90012 157 -7.17012 155.73C-7.83012 152.6 -10.1701 156.62 -11.0901 157.63C-13.4501 160.14 -15.9701 162.51 -18.4901 164.85C-21.696 167.691 -24.7534 170.695 -27.6501 173.85C-28.4801 174.79 -33.0801 180.52 -34.2301 177.31C-35.0101 175.12 -30.5301 172.43 -29.1701 171.48C-25.4659 169.03 -21.9706 166.277 -18.7201 163.25C-16.8501 161.45 -14.9601 159.64 -13.1201 157.83C-11.9001 156.63 -7.66012 153.68 -10.1701 152.67C-11.1701 152.29 -12.8201 153.32 -13.8301 153.49C-15.3756 153.753 -16.9479 153.82 -18.5101 153.69C-24.0677 153.119 -29.4054 151.215 -34.0701 148.14C-36.6701 146.46 -46.9001 138.72 -38.5901 136.78C-32.8201 135.44 -25.6601 137.54 -20.4001 139.89C-14.7501 142.38 -11.2301 147.03 -8.27012 152.3C-5.75587 149.742 -3.376 147.055 -1.14012 144.25C-0.770119 143.76 1.39988 141.25 0.859882 140.5C0.179882 139.59 -2.80012 140.94 -3.73012 141.01C-12.2001 141.88 -21.4501 135.11 -26.0801 128.44C-27.8401 125.92 -29.3901 122.18 -26.3901 120.04C-23.3901 117.9 -18.1701 119.19 -14.8801 120.04C-9.81012 121.34 -4.31012 123.79 -0.820118 127.88C1.09988 130.14 4.68988 136.21 2.56988 139.13C5.03988 135.72 9.56988 131.7 10.1499 127.31C10.6699 123.36 6.50988 124.96 3.76988 124.5C-4.32012 123.06 -13.6901 115.44 -17.3501 108.09C-19.6801 103.42 -15.8101 101.93 -11.2201 102.41C-5.89397 103.133 -0.875488 105.329 3.26988 108.75C5.65988 110.6 8.39988 112.96 9.79988 115.67C11.0899 118.14 10.5199 121.02 11.7399 123.47C14.0399 122.47 15.7399 117.26 16.6599 115.21C17.0699 114.29 18.1999 112.61 18.0999 111.58C17.8999 109.76 16.2699 109.58 14.7699 109.02C6.58988 105.75 -0.430119 97.4502 -3.23012 89.1502C-4.16012 86.3902 -5.42012 81.2502 -1.88012 79.8302C1.49988 78.5002 5.87988 82.4302 8.11988 84.4602C11.8342 87.5462 14.9668 91.2715 17.3699 95.4602C19.9599 100.27 18.0299 105.22 19.1499 110.28C20.8199 106.73 29.3799 96.2802 25.3899 92.2802C23.3899 91.0002 20.6199 90.8902 18.5099 89.6802C14.6399 87.5302 10.9999 84.1602 7.81988 81.0002C3.69988 76.8902 -0.410118 71.6202 -0.81012 65.5802L-0.840118 65.5502Z" fill="#1E724E"/>
<path d="M73.3 188C70.7881 187.993 68.2897 188.368 65.89 189.11L60.11 182.54C63.7734 178.485 65.8165 173.224 65.85 167.76C65.85 154.44 53.57 143.63 38.42 143.63C23.27 143.63 11 154.47 11 167.8C11 181.13 23.28 191.93 38.44 191.93C45.1325 191.982 51.6444 189.761 56.91 185.63L62.26 190.63C57.03 193.34 53.59 197.94 53.59 203.15C53.59 209.8 59.2 215.44 66.98 217.47L63.84 226.47L71.76 218.24C72.27 218.24 72.76 218.29 73.31 218.29C84.19 218.29 93.01 211.53 93.01 203.19C93.01 194.85 84.18 188 73.3 188Z" fill="#263238" stroke="#263238" stroke-width="0.62" stroke-miterlimit="10"/>
<path d="M71.29 186.37C68.7848 186.365 66.2933 186.739 63.9 187.48L58.12 180.91C61.7886 176.858 63.8357 171.596 63.87 166.13C63.87 152.8 51.58 142 36.43 142C21.28 142 9 152.8 9 166.13C9 179.46 21.28 190.26 36.43 190.26C43.1181 190.326 49.6303 188.119 54.9 184L60.26 189C55.03 191.72 51.59 196.31 51.59 201.52C51.59 208.17 57.2 213.81 64.98 215.84L61.84 224.84L69.75 216.63C70.26 216.63 70.75 216.68 71.3 216.68C82.18 216.68 91 209.92 91 201.57C91 193.22 82.17 186.37 71.29 186.37Z" fill="white" stroke="#263238" stroke-width="0.62" stroke-miterlimit="10"/>
<path d="M65.06 202.22C65.0621 201.813 64.9229 201.417 64.666 201.101C64.4092 200.785 64.0507 200.568 63.6516 200.487C63.2525 200.405 62.8376 200.465 62.4775 200.655C62.1174 200.846 61.8345 201.155 61.677 201.531C61.5195 201.906 61.4971 202.325 61.6137 202.715C61.7303 203.105 61.9786 203.443 62.3164 203.671C62.6541 203.898 63.0604 204.002 63.4659 203.963C63.8713 203.925 64.251 203.747 64.54 203.46C64.8706 203.132 65.0576 202.686 65.06 202.22Z" fill="#3A6951"/>
<path d="M73.5 202.22C73.502 201.813 73.3628 201.417 73.106 201.101C72.8491 200.785 72.4906 200.568 72.0915 200.487C71.6925 200.405 71.2775 200.465 70.9174 200.655C70.5573 200.846 70.2744 201.155 70.1169 201.531C69.9594 201.906 69.937 202.325 70.0536 202.715C70.1702 203.105 70.4186 203.443 70.7563 203.671C71.0941 203.898 71.5003 204.002 71.9058 203.963C72.3113 203.925 72.6909 203.747 72.98 203.46C73.3106 203.132 73.4976 202.686 73.5 202.22Z" fill="#3A6951"/>
<path d="M81.9499 202.22C81.952 201.813 81.8128 201.417 81.5559 201.101C81.2991 200.785 80.9406 200.568 80.5415 200.487C80.1424 200.405 79.7275 200.465 79.3674 200.655C79.0073 200.846 78.7244 201.155 78.5669 201.531C78.4094 201.906 78.387 202.325 78.5036 202.715C78.6202 203.105 78.8685 203.443 79.2063 203.671C79.544 203.898 79.9503 204.002 80.3558 203.963C80.7612 203.925 81.1409 203.747 81.4299 203.46C81.7605 203.132 81.9475 202.686 81.9499 202.22Z" fill="#3A6951"/>
<path opacity="0.8" d="M21.91 161.46C22.1339 161.453 22.352 161.532 22.52 161.68C22.5969 161.749 22.6569 161.834 22.6951 161.929C22.7333 162.025 22.7487 162.128 22.74 162.23C22.7 162.557 22.6366 163.754 22.55 165.82C22.4633 167.887 22.4033 169.074 22.37 169.38C22.33 169.88 22.17 170.13 21.89 170.13C21.61 170.13 21.4433 169.88 21.39 169.38C21.39 169.194 21.3333 168.057 21.22 165.97L19.43 166.08L17.63 166.19C17.5433 168.117 17.4866 169.18 17.46 169.38C17.42 169.88 17.26 170.13 16.98 170.13C16.7 170.13 16.5333 169.88 16.48 169.38C16.48 169.094 16.42 167.907 16.3 165.82C16.18 163.734 16.12 162.537 16.12 162.23C16.108 162.127 16.1229 162.022 16.1632 161.925C16.2035 161.829 16.2678 161.745 16.35 161.68C16.526 161.532 16.7501 161.454 16.98 161.46C17.2039 161.453 17.422 161.532 17.59 161.68C17.6671 161.748 17.7266 161.834 17.7632 161.929C17.7998 162.025 17.8124 162.129 17.8 162.23C17.7533 162.684 17.71 163.554 17.67 164.84L19.44 164.94L21.17 165.05C21.1166 163.557 21.07 162.617 21.03 162.23C21.018 162.127 21.0329 162.022 21.0732 161.925C21.1135 161.829 21.1778 161.745 21.26 161.68C21.4412 161.528 21.6733 161.449 21.91 161.46ZM24.69 169.39C24.69 169.104 24.63 167.92 24.51 165.84C24.39 163.76 24.33 162.567 24.33 162.26C24.3157 162.159 24.3285 162.056 24.3672 161.961C24.4058 161.866 24.4689 161.783 24.55 161.72C24.7281 161.569 24.9566 161.491 25.19 161.5C25.414 161.492 25.6326 161.571 25.8 161.72C25.8755 161.788 25.9347 161.871 25.9728 161.965C26.011 162.058 26.0271 162.16 26.02 162.26C26.02 162.554 25.9733 163.51 25.88 165.13C25.8 167.037 25.7433 168.23 25.71 168.71L27.65 168.82L29.58 168.93C29.58 168.55 29.5233 167.39 29.41 165.45C29.33 163.63 29.27 162.564 29.23 162.25C29.2157 162.149 29.2285 162.046 29.2672 161.951C29.3058 161.856 29.3689 161.773 29.45 161.71C29.6339 161.563 29.8641 161.485 30.1 161.49C30.324 161.482 30.5426 161.561 30.71 161.71C30.7855 161.778 30.8447 161.861 30.8828 161.955C30.921 162.048 30.9371 162.15 30.93 162.25C30.89 162.57 30.83 163.714 30.75 165.68C30.67 167.647 30.61 168.787 30.57 169.1C30.56 169.222 30.5399 169.342 30.51 169.46C30.5008 169.542 30.4657 169.62 30.41 169.68C30.3738 169.732 30.3259 169.774 30.2703 169.804C30.2147 169.833 30.1529 169.849 30.09 169.85H29.97L27.64 169.98C26.3066 170.047 25.5233 170.1 25.29 170.14C25.2184 170.153 25.1448 170.146 25.0765 170.122C25.0081 170.097 24.9473 170.055 24.9 170L24.81 169.89C24.7345 169.763 24.6931 169.618 24.69 169.47V169.39ZM37.51 161.63C37.7246 161.616 37.939 161.661 38.13 161.76C38.194 161.791 38.2458 161.842 38.2767 161.905C38.3076 161.969 38.3158 162.041 38.3 162.11C38.3 162.23 38.26 162.534 38.18 163.02C38.1553 163.316 38.1152 163.609 38.06 163.9C38.0335 164.022 37.9623 164.13 37.8606 164.202C37.7588 164.274 37.6338 164.306 37.51 164.29C37.3898 164.298 37.2707 164.264 37.1736 164.192C37.0766 164.121 37.008 164.018 36.98 163.9C36.98 163.847 36.9233 163.417 36.81 162.61C35.6166 162.677 34.7566 162.734 34.23 162.78C34.17 163.64 34.1333 164.127 34.12 164.24L36.12 165.11C37.06 165.504 37.62 165.754 37.8 165.86C37.9074 165.914 38.0053 165.985 38.09 166.07C38.1434 166.117 38.1843 166.176 38.2088 166.242C38.2333 166.309 38.2405 166.38 38.23 166.45C38.23 166.63 38.1833 167.13 38.09 167.95C37.9966 168.77 37.9666 169.257 38 169.41C38.0069 169.457 38.0069 169.504 38 169.55C37.9962 169.597 37.9815 169.642 37.9572 169.682C37.9329 169.722 37.8996 169.756 37.86 169.78C37.7778 169.843 37.6817 169.884 37.58 169.9H37.52L35.52 170.02C34.3533 170.087 33.6666 170.14 33.46 170.18C33.4148 170.189 33.3684 170.188 33.3236 170.178C33.2789 170.168 33.2367 170.148 33.2 170.12C33.1159 170.085 33.0423 170.029 32.9862 169.957C32.9302 169.886 32.8936 169.8 32.88 169.71C32.8118 169.303 32.7651 168.893 32.74 168.48C32.68 167.814 32.6366 167.394 32.61 167.22C32.5917 167.147 32.5997 167.07 32.6326 167.003C32.6655 166.935 32.7212 166.881 32.79 166.85C32.9859 166.748 33.2038 166.694 33.425 166.694C33.6461 166.694 33.864 166.748 34.06 166.85C34.1244 166.885 34.1758 166.94 34.2065 167.007C34.2371 167.074 34.2454 167.149 34.23 167.22C34.23 167.374 34.1833 167.89 34.09 168.77L35.49 168.86L36.9 168.95C36.9 168.75 36.86 168.297 36.78 167.59C36.7266 166.997 36.6866 166.61 36.66 166.43C34.66 165.824 33.5866 165.49 33.44 165.43H33.37C33.2725 165.39 33.1877 165.324 33.1244 165.24C33.0611 165.155 33.0216 165.055 33.01 164.95C33.01 164.77 32.92 164.26 32.87 163.45C32.82 162.64 32.75 162.12 32.71 161.92C32.6953 161.838 32.7068 161.754 32.7426 161.678C32.7785 161.603 32.837 161.541 32.91 161.5C33.104 161.369 33.3361 161.306 33.57 161.32H33.86C34.0333 161.32 34.5966 161.36 35.55 161.44L37.51 161.63ZM41.87 162.88C40.9166 162.927 40.25 162.97 39.87 163.01C39.7824 163.022 39.6934 163.009 39.6124 162.974C39.5315 162.939 39.4615 162.882 39.41 162.81C39.2745 162.64 39.2036 162.428 39.21 162.21C39.2001 161.999 39.2717 161.791 39.41 161.63C39.4627 161.561 39.5331 161.506 39.614 161.473C39.6949 161.439 39.7833 161.428 39.87 161.44L42.7 161.6L45.5 161.76C45.9066 161.827 46.11 161.98 46.11 162.22C46.11 162.46 45.9066 162.62 45.5 162.7L43.5 162.81V162.91C43.46 163.217 43.4 164.304 43.32 166.17C43.24 168.037 43.1833 169.12 43.15 169.42C43.0966 169.887 42.9333 170.12 42.66 170.12C42.3866 170.12 42.22 169.887 42.16 169.42C42.16 169.154 42.1033 168.074 41.99 166.18C41.8766 164.287 41.8166 163.197 41.81 162.91L41.87 162.88ZM48.3 166.46L49.86 166.55L51.41 166.63C51.41 166.424 51.3833 166.09 51.33 165.63L51.26 164.63L49.81 164.71L48.37 164.79L48.3 166.46ZM52.3 167.09C52.3 167.237 52.16 167.347 51.88 167.42L50.34 167.52L48.34 167.63L48.18 169L52.32 169.21C52.62 169.27 52.77 169.397 52.77 169.59C52.77 169.784 52.62 169.91 52.32 169.97L50.07 170.08C48.7366 170.147 47.9733 170.19 47.78 170.21C47.7128 170.224 47.6434 170.218 47.5796 170.193C47.5158 170.168 47.4605 170.126 47.42 170.07C47.3205 169.931 47.2712 169.762 47.28 169.59V169.53C47.28 169.27 47.2366 168.347 47.15 166.76C47.0633 165.174 47.0133 164.29 47 164.11C46.96 163.804 47.13 163.614 47.51 163.54C47.5788 163.522 47.6511 163.522 47.72 163.54C47.8866 163.54 48.6 163.584 49.86 163.67L51.95 163.78C52.35 163.82 52.5233 163.97 52.47 164.23C52.47 164.357 52.4333 164.83 52.36 165.65C52.2866 166.47 52.26 166.92 52.28 167L52.3 167.09ZM57.34 164C57.464 164.134 57.535 164.308 57.54 164.49C57.5435 164.563 57.5267 164.635 57.4913 164.699C57.456 164.763 57.4036 164.815 57.34 164.85C57.2533 164.897 56.92 165.114 56.34 165.5C55.76 165.887 55.4066 166.104 55.28 166.15C55.2 168.184 55.14 169.32 55.1 169.56C55.0466 169.934 54.9066 170.12 54.68 170.12C54.4533 170.12 54.31 169.934 54.25 169.56C54.25 169.36 54.2033 168.467 54.11 166.88C54.0166 165.294 53.9633 164.39 53.95 164.17C53.9397 164.09 53.952 164.008 53.9856 163.934C54.0191 163.859 54.0725 163.796 54.14 163.75C54.2985 163.636 54.4893 163.574 54.685 163.574C54.8807 163.574 55.0714 163.636 55.23 163.75C55.2921 163.8 55.3405 163.864 55.3703 163.938C55.4 164.012 55.4103 164.092 55.4 164.17C55.4 164.384 55.4 164.607 55.4 164.84L56.55 163.84C56.5993 163.789 56.6614 163.752 56.73 163.732C56.7986 163.713 56.871 163.712 56.94 163.73C57.1212 163.773 57.283 163.875 57.4 164.02L57.34 164Z" fill="#094325"/>
<path d="M85.3901 381.73C91.2801 385.86 89.5401 436.26 82.0501 448.73C74.3201 450.3 60.8401 449 55.5401 452.11C63.7201 453.65 80.0701 458.5 80.0701 458.5L69.7001 485.55L41.0001 482.94L65.0001 494.67L50.4901 517.33L24.0001 511.61L42.7901 524.67L20.9001 545.57L-7.82988 537L11.1701 549.17L-2.50987 560.71L-25.7099 557.87L-15.3199 566.73C-15.3199 566.73 -30.9999 578.51 -41.8399 578.09C-52.6799 577.67 -62.3899 577.68 -65.4799 575.03C-68.5699 572.38 -70.7999 550.4 -68.8099 541.3C-66.8199 532.2 -64.8099 525.55 -64.8099 525.55L-59.9499 531.55L-60.1799 512.24L-48.7499 496L-46.4999 511.31L-42.9799 487.31L-24.2099 472.63L-19.5699 495.94L-16.7199 464.42L0.0801239 448.86L6.08012 471.71L7.61012 439.29L27.0401 423.29L31.0401 444.15L33.4501 416.4L52.4501 404.82L54.6701 420.57L61.9501 397.92C61.9501 397.92 74.9501 389.61 80.7301 381.76C82.8901 378.25 85.3901 381.73 85.3901 381.73Z" fill="#00737F"/>
<path d="M85.3899 689.48C95.8099 690.12 135.91 662.38 138.92 670.01C141.93 677.64 135.02 697.89 121.27 704.5C107.52 711.11 85.7999 708.3 78.2699 712.3C70.7399 716.3 68.8399 721.6 69.1999 723.44C69.5599 725.28 117.2 720.77 123.48 730.86C129.76 740.95 120.27 751.32 106.48 755.48C92.6899 759.64 65.9999 739.31 58.2999 740.21C50.5999 741.11 46.2999 747.39 48.6899 748.85C51.0799 750.31 80.2099 759.73 88.4199 767C96.6299 774.27 97.5099 783.18 80.8599 781.78C64.2099 780.38 45.1199 762 39.4499 763.68C33.7799 765.36 35.1999 768.62 37.8499 770.53C40.4999 772.44 59.6299 782.68 65.6099 787.73C71.59 792.78 58.6099 798.29 53.9399 798.89C49.27 799.49 36.3899 793.15 33.1599 790.34C29.9299 787.53 28.8099 780.61 25.4099 780.13C22.0099 779.65 20.0899 789 18.4099 789.83C16.7299 790.66 8.40995 786.07 8.17995 783.49C7.94995 780.91 13.9999 777.1 13.3999 773.21C12.7999 769.32 5.94995 771.57 0.709949 765.08C-4.53005 758.59 -13.1001 737.85 -10.0001 730.83C-6.90005 723.81 12.7499 752.24 19.5499 756.18C24.6899 758.29 28.4499 756.02 26.4399 752.34C24.43 748.66 -12.0001 713.92 -11.0001 703.76C-10.0001 693.6 -8.21005 696.29 -3.29005 699.34C1.62995 702.39 23.9999 732.73 29.4799 729.63C34.9599 726.53 -0.0600519 687.54 1.18995 674C2.43995 660.46 7.77995 646.44 14.3299 648.34C20.8799 650.24 28.6899 693.75 38.4799 697.93C48.2699 702.11 40.8799 693.74 39.6799 685.93C38.4799 678.12 26.4799 645.85 29.7599 638.93C33.0399 632.01 34.7599 624.16 42.4299 627.85C50.0999 631.54 53.4299 670.65 58.6499 670.63C63.8699 670.61 56.5 648.49 61.06 634C65.6199 619.51 79.64 610.36 83.16 613.62C86.6799 616.88 86.4799 616.76 84.5899 620.46C82.6999 624.16 74.4299 635.25 73.2199 643.7C72.0099 652.15 69.5799 657.4 72.2199 657.38C74.8599 657.36 78.7099 649.77 80.5699 643.09C82.4299 636.41 85.5699 621.6 89.5699 618.92C93.5699 616.24 105.14 603.69 118.11 616.86C131.08 630.03 122.84 643.59 116.62 652.18C110.4 660.77 102.69 665.72 94.7199 672.68C86.7499 679.64 80.7399 689.19 85.3899 689.48Z" fill="#00737F"/>
<path d="M417.44 847C419.69 850.26 417.87 838.86 420.51 830.62C423.15 822.38 427.09 816.97 427.08 803.62C427.07 790.27 415.62 767.3 410.34 752.23C405.06 737.16 406.34 728.5 394.48 708.45C382.62 688.4 367.62 667.04 352.24 659.55C336.86 652.06 333.76 633.55 315.24 625.73C296.72 617.91 258.99 632.38 243.59 621.55C274.83 655.14 279.25 689.84 294.21 714.55C309.17 739.26 314.44 729.95 330.28 750.32C346.12 770.69 338.28 772.9 353.61 796.18C371.49 823.08 399.83 821.42 417.44 847Z" fill="#1E724E"/>
<path d="M273.27 721.32C271.02 719.65 274.76 702.32 271.15 694.58C267.54 686.84 266.53 698.65 262.72 695.83C258.91 693.01 258.72 674.91 248.19 664.17C245.83 661.75 243.65 663.61 243.77 666.51C243.89 669.41 245.28 672.59 242.04 673.51C238.8 674.43 236.82 663.22 230.82 657.96C224.82 652.7 221.48 653.04 219.92 654.96C218.36 656.88 222.14 659.55 219.18 660.29C216.22 661.03 213.02 655.05 208.4 651.89C203.78 648.73 200 646.06 197.95 647.75C195.9 649.44 199.56 651.35 196.58 653.02C193.6 654.69 188.19 645.19 182.46 641.74C176.73 638.29 180.46 645.1 177.22 646.82C173.98 648.54 169.83 643.61 165.67 643.61C161.51 643.61 162.46 646.85 157.67 648.94C152.88 651.03 145.44 647.37 143.24 649.08C141.04 650.79 145.24 653.4 145.9 661.91C146.56 670.42 142.9 674.81 144.64 680.39C146.38 685.97 156.83 692.92 155.9 696C154.97 699.08 146.15 693.14 146.96 696.71C148.165 701.302 150.64 705.46 154.1 708.71C157.62 711.71 164.23 713.81 164.44 716.25C164.65 718.69 155.6 716.79 155.79 719.07C156.03 722.72 169.48 729.5 170.71 733.62C171.94 737.74 160.46 737.11 163 740C165.54 742.89 177.26 745 179.37 748.79C181.48 752.58 168.92 748.79 170.46 753.03C172 757.27 176.07 759.73 181.05 762.22C186.03 764.71 191.87 764.62 192.05 768.22C192.23 771.82 178.9 770.78 181.39 774.1C183.88 777.42 199.75 776.61 201.89 779.67C204.03 782.73 193.13 781.74 197.71 785.67C202.29 789.6 219.04 789.58 220.62 793.96C222.2 798.34 205.52 792.66 210.47 799.15C215.42 805.64 236.37 808.99 243.25 807.66C259.8 805.22 275.39 787.99 279.64 778.29C283.89 768.59 283.48 767.88 282.99 764.58C282.5 761.28 274.91 769.16 277.99 761.02C281.07 752.88 285.99 751.54 285.84 744.48C285.69 737.42 280.7 748.16 281.95 739.98C283.2 731.8 286.11 721.31 282.19 717.55C276.15 711.67 276.39 723.63 273.27 721.32Z" fill="#E2A14B"/>
<path d="M260.7 763.4C243.11 740.29 199.61 688.18 166.32 664.58" stroke="white" stroke-width="1.72"/>
<path d="M237 734.58L203.22 743.78M245.53 743.26L253.32 706.94L245.53 743.26ZM232.77 728.81L229.43 694.28L232.77 728.81ZM197.37 690.83L207.49 668.83L197.37 690.83ZM183.95 679.38L170.17 682.38L183.95 679.38ZM214.39 709.62L179.39 709.01L214.39 709.62Z" stroke="white" stroke-width="1.72"/>
<path d="M361.46 293.72H305.74C304.978 293.721 304.224 293.872 303.521 294.165C302.818 294.458 302.179 294.886 301.642 295.426C301.104 295.965 300.678 296.605 300.388 297.309C300.097 298.014 299.949 298.768 299.95 299.53V332.73C299.95 333.491 300.1 334.246 300.391 334.949C300.683 335.653 301.11 336.292 301.649 336.831C302.187 337.37 302.827 337.797 303.53 338.088C304.234 338.38 304.988 338.53 305.75 338.53H334.83L342.13 352.6L343.46 338.53H361.46C362.222 338.53 362.976 338.38 363.68 338.088C364.383 337.797 365.023 337.37 365.561 336.831C366.1 336.292 366.527 335.653 366.818 334.949C367.11 334.246 367.26 333.491 367.26 332.73V299.53C367.261 298.767 367.112 298.012 366.821 297.307C366.53 296.602 366.103 295.962 365.565 295.422C365.026 294.882 364.386 294.454 363.682 294.162C362.977 293.87 362.222 293.72 361.46 293.72Z" fill="#263238" stroke="#263238" stroke-width="0.56" stroke-linecap="round" stroke-linejoin="round"/>
<path d="M359.52 291H303.8C303.038 291 302.284 291.15 301.58 291.441C300.877 291.733 300.237 292.16 299.699 292.699C299.16 293.237 298.733 293.877 298.441 294.58C298.15 295.284 298 296.038 298 296.8V330C298 330.762 298.15 331.516 298.441 332.22C298.733 332.923 299.16 333.563 299.699 334.101C300.237 334.64 300.877 335.067 301.58 335.358C302.284 335.65 303.038 335.8 303.8 335.8H332.88L340.19 349.87L341.52 335.8H359.52C361.058 335.8 362.534 335.189 363.621 334.101C364.709 333.014 365.32 331.538 365.32 330V296.8C365.32 295.262 364.709 293.787 363.621 292.699C362.534 291.611 361.058 291 359.52 291Z" fill="white" stroke="#263238" stroke-width="0.56" stroke-miterlimit="10"/>
<path d="M297 148C292.63 151.54 297.23 190.57 303.93 199.8C310.12 200.59 320.64 198.8 325.02 200.94C318.68 202.59 306.12 207.27 306.12 207.27L316.02 227.73L338.46 224.1L320.32 234.55L333.18 251.34L353.69 245.42L339.69 256.61L358.24 271.61L380.3 263.33L366.12 273.84L377.64 282.06L395.72 278.56L388.17 286C388.17 286 401.27 294.28 409.77 293.35C418.27 292.42 425.92 291.89 428.19 289.65C430.46 287.41 430.79 270.23 428.65 263.27C426.51 256.31 424.52 251.27 424.52 251.27L421.08 256.19L420.02 241.19L409.95 229.19L409.16 241.19L404.85 222.77L389.13 212.42L387 230.82L382.73 206.5L368.52 195.35L365.28 213.42L362 188.33L345.62 177L343.82 193.42L340.14 172L324.44 164.07L323.71 176.43L316.53 159.25C316.53 159.25 305.74 153.53 300.71 147.75C298.75 145.15 297 148 297 148Z" fill="#1E724E"/>
<path d="M354 170.82C353.07 169 340.21 169.63 335.07 166.12C329.93 162.61 338.54 163.29 336.97 160.22C335.4 157.15 322.43 154.84 315.97 146.03C314.52 144.03 316.11 142.71 318.18 143.14C320.25 143.57 322.36 144.95 323.42 142.74C324.48 140.53 316.65 137.74 313.59 132.84C310.53 127.94 311.17 125.56 312.74 124.66C314.31 123.76 315.74 126.8 316.66 124.76C317.58 122.72 313.66 119.76 311.92 116.03C310.18 112.3 308.74 109.31 310.19 108.03C311.64 106.75 312.58 109.61 314.14 107.68C315.7 105.75 309.52 100.73 307.73 96.2004C305.94 91.6704 310.38 95.2004 312 93.0404C313.62 90.8804 310.57 87.3504 311.07 84.3804C311.57 81.4104 313.78 82.4604 315.84 79.2904C317.9 76.1204 316.17 70.2904 317.66 68.9504C319.15 67.6104 320.52 70.9504 326.55 72.3904C332.58 73.8304 336.16 71.7704 339.96 73.6904C343.76 75.6104 347.48 83.9004 349.78 83.5904C352.08 83.2804 348.89 76.2604 351.35 77.2604C354.505 78.6692 357.198 80.9395 359.12 83.8104C360.86 86.7004 361.58 91.6804 363.3 92.1304C365.02 92.5804 364.74 85.8504 366.35 86.2604C368.94 86.8704 372.2 97.3204 375.01 98.6904C377.82 100.06 378.75 91.7604 380.49 93.9504C382.23 96.1404 382.36 104.77 384.85 106.74C387.34 108.71 386.1 99.2404 388.95 100.86C391.8 102.48 393.09 105.68 394.28 109.55C395.47 113.42 394.71 117.55 397.28 118.19C399.85 118.83 400.68 109.06 402.77 111.24C404.86 113.42 402.39 124.71 404.32 126.61C406.25 128.51 406.85 120.61 409.12 124.32C411.39 128.03 409.38 140.09 412.34 141.74C415.3 143.39 413.21 130.74 417.27 135.08C421.33 139.42 421.27 154.83 419.48 159.61C415.76 171.19 401.54 180.32 394.07 182.22C386.6 184.12 386.15 183.73 383.83 182.99C381.51 182.25 388.08 177.74 381.83 178.99C375.58 180.24 374.08 183.58 369.03 182.65C363.98 181.72 372.28 179.4 366.27 179.32C360.26 179.24 352.38 180.08 350.14 176.83C346.68 171.73 355.23 173.32 354 170.82Z" fill="#52B788"/>
<path d="M321.54 83.8496C321.49 92.6596 366.14 163.28 399.08 169.23C372.53 154.16 321.54 83.8496 321.54 83.8496Z" fill="#4B9975"/>
<path d="M286 365.46C284 363.14 292 366.63 298.41 366.14C304.82 365.65 309.41 363.63 319.16 366.14C328.91 368.65 343.6 381.64 353.66 388.48C363.72 395.32 370.22 395.92 382.78 408.73C395.34 421.54 408.32 436.97 411.15 450.13C413.98 463.29 426.9 469.13 429.47 484.7C432.04 500.27 415.12 526.56 420.38 540.36C401.27 510.22 376.8 500.36 361.38 484.36C345.96 468.36 353.61 466.01 341.5 450.11C329.39 434.21 326.44 439.84 312.14 423.75C295.59 405.08 301.59 383.67 286 365.46Z" fill="#00737F"/>
<path d="M365.32 550.95C370.74 542.13 368.12 493.5 375.48 494.58C382.84 495.66 395.33 511.58 393.97 526.82C392.61 542.06 380.16 559.75 379.72 568.27C379.28 576.79 382.5 581.05 384.1 581.64C385.7 582.23 404.73 538.24 415.53 537.64C426.33 537.04 429.93 550.4 426.64 564.51C423.35 578.62 394.93 592.15 392 599.35C389.07 606.55 391.93 613.35 394.18 611.97C396.43 610.59 417.54 589.64 427.07 585.97C436.6 582.3 443.96 585.87 435 599.79C426.04 613.71 402.76 621.52 401.35 627.28C399.94 633.04 403.19 633.4 405.93 632.01C408.67 630.62 425.68 618.83 432.44 616.01C439.2 613.19 437.36 627.24 435.6 631.66C433.84 636.08 422.84 644.25 419.13 645.66C415.42 647.07 409.5 644.75 407.52 647.49C405.54 650.23 411.91 656.49 411.74 658.37C411.57 660.25 404.08 665.3 401.97 664.25C399.86 663.2 399.78 656.02 396.47 654.65C393.16 653.28 391.67 660.38 384.14 661.82C376.61 663.26 356.43 660.69 352.42 654.59C348.41 648.49 379.83 645.06 386.11 641.01C390.19 637.53 390.19 633.13 386.38 633.1C382.57 633.07 338.33 648.1 330.92 642.23C323.51 636.36 326.43 636.15 331.12 633.33C335.81 630.51 369.98 625.68 370.12 619.33C370.26 612.98 323.41 624.76 313.45 617.07C303.49 609.38 295.12 597.9 299.69 593.07C304.26 588.24 341.81 602.56 349.69 596.01C357.57 589.46 347.57 591.87 340.94 589.13C334.31 586.39 303.52 581.21 299.7 574.99C295.88 568.77 290.56 563.46 297.07 558.5C303.58 553.54 335.58 569.65 338.07 565.08C340.56 560.51 319.82 556.19 310.71 545.15C301.6 534.11 301 517.53 305.25 516C309.5 514.47 309.25 514.62 311.25 518.07C313.25 521.52 317.96 534.17 323.95 539.34C329.94 544.51 332.88 549.19 334.1 546.91C335.32 544.63 331.25 537.53 326.93 532.64C322.61 527.75 312.59 517.81 312.38 513C312.17 508.19 307.9 492 324.27 487C340.64 482 347.27 495.85 351.04 505.47C354.81 515.09 354.99 524.26 356.64 534.63C358.29 545 362.9 554.89 365.32 550.95Z" fill="#E2A14B"/>
<path d="M5.5399 394.51L4.6499 399.64L12.5599 400.21V395.21L5.5399 394.51Z" fill="#FF725E"/>
<path d="M9.09006 394.58C9.14147 395.361 9.1113 396.145 9.00006 396.92C8.9506 397.703 8.82671 398.48 8.63006 399.24C8.59518 398.457 8.6421 397.673 8.77006 396.9C8.80245 396.118 8.9096 395.341 9.09006 394.58Z" fill="#263238"/>
<path d="M12.5601 399.66C12.1783 399.673 11.7963 399.646 11.4201 399.58L8.67006 399.28C7.60006 399.15 6.67006 399.03 5.93006 398.91C5.54867 398.868 5.17307 398.784 4.81006 398.66C5.19164 398.654 5.57301 398.681 5.95006 398.74L8.70006 399.05C9.77006 399.17 10.7001 399.3 11.4401 399.43C11.821 399.463 12.1969 399.54 12.5601 399.66Z" fill="#263238"/>
<path d="M38.17 398.61L39.17 394.12L30.78 392.17L29.24 398.72L29.75 398.88C32.04 399.55 41.42 402.1 43.08 401.99C44.93 401.86 38.17 398.61 38.17 398.61Z" fill="#FF725E"/>
<path d="M32.3 399.37C32.3318 398.646 32.1009 397.936 31.65 397.37C31.1995 396.804 30.5542 396.426 29.84 396.31L29.3 398.66L32.3 399.37Z" fill="#EBEBEB"/>
<path d="M41.44 400.33C41.44 400.33 43.77 401.63 43.36 401.97C42.95 402.31 33.36 400.08 29.24 398.73L29.29 398.55L40.44 401.24C40.44 401.24 41 400.23 41.44 400.33Z" fill="#EBEBEB"/>
<path d="M29.1699 398.51H29.3199L29.7299 398.63L31.2399 399.05C32.5199 399.39 34.2399 399.85 36.2399 400.31C38.2399 400.77 39.9999 401.14 41.2899 401.4L42.8299 401.69L43.2499 401.76H43.3999H43.2499L42.8299 401.67L41.2999 401.35C40.0099 401.08 38.2199 400.69 36.2999 400.23C34.3799 399.77 32.5599 399.33 31.2999 399.02L29.7799 398.63L29.3699 398.53L29.1699 398.51Z" fill="#263238"/>
<path d="M40.4199 401.36C40.545 401.124 40.696 400.903 40.8699 400.7C41.0722 400.52 41.2935 400.363 41.5299 400.23C41.2524 400.285 40.9979 400.422 40.7997 400.623C40.6016 400.825 40.4692 401.082 40.4199 401.36Z" fill="#263238"/>
<path d="M38.24 399.54C38.3637 399.464 38.4778 399.373 38.58 399.27C38.75 399.1 38.86 398.96 38.85 398.94C38.84 398.92 38.68 399.04 38.51 399.2C38.34 399.36 38.22 399.51 38.24 399.54Z" fill="#263238"/>
<path d="M37.6399 399C37.7635 398.991 37.8816 398.946 37.9799 398.87C38.1599 398.74 38.2799 398.67 38.2699 398.65C38.2599 398.63 38.0999 398.65 37.9299 398.78C37.7599 398.91 37.6299 399 37.6399 399Z" fill="#263238"/>
<path d="M37.3999 398.13C37.5273 398.212 37.6703 398.266 37.8199 398.29C37.9644 398.339 38.1174 398.36 38.2699 398.35C38.1439 398.265 38.0002 398.21 37.8499 398.19C37.5999 398.12 37.3999 398.1 37.3999 398.13Z" fill="#263238"/>
<path d="M37.3799 397.53C37.5107 397.647 37.6638 397.735 37.8299 397.79C37.9993 397.843 38.1805 397.843 38.3499 397.79C38.1915 397.725 38.0275 397.675 37.8599 397.64C37.7025 397.593 37.5421 397.556 37.3799 397.53Z" fill="#263238"/>
<path d="M38.6899 398.86C38.8617 398.932 39.0441 398.976 39.2299 398.99C39.4295 399.008 39.6303 399.008 39.8299 398.99C39.9514 398.98 40.0719 398.96 40.1899 398.93C40.2628 398.908 40.3239 398.857 40.3599 398.79C40.3711 398.751 40.3711 398.709 40.3599 398.67C40.3688 398.634 40.3688 398.596 40.3599 398.56C40.1795 398.408 39.951 398.324 39.7149 398.324C39.4788 398.324 39.2504 398.408 39.0699 398.56C38.962 398.647 38.8734 398.756 38.8099 398.88C38.8099 398.97 38.7599 399.02 38.8099 399.02C38.903 398.868 39.0214 398.732 39.1599 398.62C39.3148 398.507 39.4987 398.441 39.6899 398.43C39.9068 398.415 40.1211 398.483 40.2899 398.62C40.3599 398.7 40.2899 398.79 40.1999 398.83C40.0918 398.859 39.9814 398.879 39.8699 398.89C39.6703 398.908 39.4696 398.908 39.2699 398.89C38.8999 398.89 38.6999 398.85 38.6899 398.86Z" fill="#263238"/>
<path d="M38.8299 398.92C38.9239 398.823 38.9775 398.695 38.9799 398.56C38.9948 398.415 38.9778 398.268 38.9299 398.13C38.8599 397.98 38.7799 397.79 38.5399 397.75C38.4843 397.751 38.431 397.773 38.3899 397.81C38.3479 397.849 38.3228 397.903 38.3199 397.96C38.3009 398.046 38.3009 398.134 38.3199 398.22C38.364 398.357 38.4245 398.488 38.4999 398.61C38.5633 398.725 38.6522 398.824 38.7599 398.9C38.6905 398.794 38.627 398.683 38.5699 398.57C38.5077 398.452 38.4574 398.328 38.4199 398.2C38.4199 398.07 38.4199 397.85 38.5099 397.86C38.5999 397.87 38.7499 398.05 38.8099 398.17C38.859 398.294 38.8828 398.427 38.8799 398.56C38.8738 398.681 38.8571 398.802 38.8299 398.92Z" fill="#263238"/>
<path d="M29.8799 396.24C30.0849 396.273 30.286 396.327 30.4799 396.4C30.965 396.566 31.3929 396.867 31.7134 397.267C32.034 397.668 32.2339 398.151 32.2899 398.66C32.3163 398.873 32.3163 399.088 32.2899 399.3C32.2987 399.244 32.2987 399.187 32.2899 399.13C32.3034 398.971 32.3034 398.81 32.2899 398.65C32.2516 398.124 32.0556 397.621 31.7274 397.207C31.3992 396.793 30.9541 396.488 30.4499 396.33C30.3003 396.282 30.1462 396.248 29.9899 396.23L29.8799 396.24Z" fill="#263238"/>
<path d="M31.56 393C31.3677 393.556 31.2108 394.124 31.09 394.7C30.9348 395.269 30.8113 395.847 30.72 396.43C30.914 395.871 31.071 395.3 31.19 394.72C31.345 394.154 31.4686 393.58 31.56 393Z" fill="#455A64"/>
<path d="M33.5801 398.79C33.9634 398.979 34.3703 399.117 34.7901 399.2C35.1959 399.321 35.6166 399.385 36.0401 399.39C36.0401 399.39 35.4901 399.27 34.8301 399.11C34.1701 398.95 33.5801 398.77 33.5801 398.79Z" fill="#263238"/>
<path d="M31.9001 398.41C31.8865 398.499 31.8865 398.59 31.9001 398.68C31.9001 398.82 31.9001 398.93 31.9601 398.94C32.0201 398.95 32.0301 398.82 31.9601 398.66C31.8901 398.5 31.9301 398.39 31.9001 398.41Z" fill="#263238"/>
<path d="M31.47 397.49C31.4733 397.568 31.4975 397.644 31.54 397.71C31.61 397.82 31.68 397.9 31.7 397.88C31.72 397.86 31.7 397.76 31.63 397.66C31.56 397.56 31.49 397.48 31.47 397.49Z" fill="#263238"/>
<path d="M30.6599 396.93C30.6599 396.93 30.7699 396.98 30.8899 397.06C31.0099 397.14 31.0699 397.22 31.0999 397.2C31.1299 397.18 31.0999 397.06 30.9399 396.96C30.7799 396.86 30.6599 396.9 30.6599 396.93Z" fill="#263238"/>
<path d="M30.0601 396.62C30.0621 396.646 30.0717 396.672 30.0876 396.693C30.1036 396.714 30.1252 396.73 30.1501 396.74C30.2401 396.74 30.2801 396.8 30.2901 396.74C30.3001 396.68 30.2901 396.66 30.2101 396.62C30.1301 396.58 30.0801 396.6 30.0601 396.62Z" fill="#263238"/>
<path d="M81.8999 230.25C81.2999 229.34 77.3399 231.77 76.9899 231.96C76.6399 232.15 76.3899 231.64 76.6899 231.5C77.1599 231.29 81.9699 228.94 81.3599 228.04C81.0199 227.54 80.1499 228.23 80.1499 228.23C80.1499 228.23 75.7999 230.75 75.5299 230.31C75.2599 229.87 77.7499 228.31 78.6299 227.83C79.5099 227.35 79.6299 226.77 79.1099 226.55C78.7499 226.4 76.0099 227.76 75.1099 228.26C74.2099 228.76 71.9199 230.11 72.5199 228.5C72.7741 227.964 72.9183 227.383 72.9441 226.79C72.9698 226.197 72.8766 225.606 72.6699 225.05C72.5888 224.969 72.4835 224.916 72.3699 224.9C72.2871 224.888 72.2027 224.896 72.1234 224.922C72.044 224.949 71.9719 224.994 71.9128 225.053C71.8537 225.112 71.8091 225.184 71.7825 225.263C71.756 225.343 71.7483 225.427 71.7599 225.51C71.7428 226.09 71.6487 226.665 71.4799 227.22C71.3751 227.679 71.1702 228.109 70.8799 228.48L70.4099 229.02L69.9599 229.62C69.3899 230.3 69.1099 230.69 69.1099 230.69L46.4099 259.49L47.6199 271.49L73.9999 235.62C75.6928 235.2 77.3619 234.689 78.9999 234.09C81.3699 233.09 81.2899 232.88 81.1199 232.64C80.6799 231.95 76.8899 234.21 77.4299 233.24C77.9699 232.27 82.3799 230.95 81.8999 230.25Z" fill="#E5BAAB"/>
<path d="M17.5401 250.86L20.7101 232.3C21.0701 231.84 21.5901 231.16 22.1901 230.3C22.4651 229.913 22.8031 229.575 23.1901 229.3C23.673 228.937 24.2049 228.644 24.7701 228.43C24.8713 228.399 24.9617 228.34 25.0309 228.26C25.1 228.18 25.1451 228.082 25.1608 227.977C25.1765 227.872 25.1622 227.766 25.1196 227.669C25.077 227.572 25.0078 227.489 24.9201 227.43C24.4501 227.25 22.9201 227.61 21.5901 228.75C20.2601 229.89 20.7601 227.13 20.9401 226.13C21.1201 225.13 21.5401 221.98 21.2501 221.67C20.9601 221.36 20.3101 221.57 20.1601 222.58C20.0101 223.59 19.3301 226.58 18.8001 226.47C18.2701 226.36 19.2501 221.23 19.2501 221.23C19.2501 221.23 19.6401 220.17 19.0301 220.02C17.9401 219.73 17.3001 225.26 17.2501 225.78C17.2501 226.15 16.6501 226.04 16.6901 225.65C16.7301 225.26 17.7801 220.56 16.6901 220.26C15.8401 220.02 16.1301 224.8 15.3701 225.65C14.6101 226.5 15.5201 222.02 14.7001 221.82C14.3901 221.75 14.1601 221.74 14.0001 224.4C13.9811 226.313 14.0612 228.225 14.2401 230.13C14.1101 230.82 10.4601 250.82 10.2401 253.81C10.0201 256.8 20.2401 274.45 20.2401 274.45L27.3301 267.19L17.5401 250.86Z" fill="#E5BAAB"/>
<path d="M13 262.91C12.75 263.45 17.23 269.72 19.51 274.48L21.51 287.72C19.21 291.95 16.56 296.85 15.29 302.28C24.39 306.51 34.75 306.02 44.7 304.09L42.61 289.48L46.06 275L54.65 264.64L48.4 256.33L41.57 263.62L38.35 264.42C34.6136 265.079 30.7694 264.734 27.21 263.42L22.58 257.42L13 262.91Z" fill="#FF725E"/>
<path d="M34.9999 286.89C34.5735 287.159 34.108 287.362 33.6199 287.49C32.448 287.883 31.2254 288.106 29.9899 288.15C28.7576 288.194 27.5252 288.063 26.3299 287.76C25.8292 287.661 25.3469 287.486 24.8999 287.24C26.559 287.646 28.2617 287.848 29.9699 287.84C31.6789 287.728 33.368 287.409 34.9999 286.89Z" fill="#263238"/>
<path d="M48.3699 272.45C48.2769 272.553 48.1649 272.638 48.0399 272.7C47.7274 272.895 47.3914 273.049 47.0399 273.16C45.8052 273.542 44.4697 273.426 43.3199 272.835C42.1701 272.244 41.2977 271.226 40.8899 270C40.7563 269.643 40.6755 269.269 40.6499 268.89V268.47C40.7655 268.961 40.9091 269.445 41.0799 269.92C41.5277 271.042 42.367 271.965 43.4425 272.516C44.518 273.068 45.7569 273.211 46.9299 272.92C47.8499 272.74 48.3399 272.4 48.3699 272.45Z" fill="#263238"/>
<path d="M53.48 265.89C53.169 265.464 52.8947 265.013 52.66 264.54C52.18 263.7 51.51 262.54 50.72 261.28C49.93 260.02 49.18 258.91 48.63 258.11C48.3053 257.693 48.0176 257.248 47.77 256.78C48.1496 257.143 48.4852 257.549 48.77 257.99C49.37 258.76 50.15 259.86 50.94 261.13C51.73 262.4 52.38 263.58 52.81 264.46C53.0856 264.911 53.3103 265.39 53.48 265.89Z" fill="#263238"/>
<path d="M23.5 258.4C23.0521 258.721 22.577 259.002 22.08 259.24L18.62 261.16L15.19 263.16C14.7315 263.464 14.2461 263.725 13.74 263.94C14.1517 263.563 14.6007 263.228 15.08 262.94C15.93 262.38 17.08 261.64 18.47 260.88C19.86 260.12 21.08 259.48 21.99 259.07C22.4701 258.798 22.9759 258.574 23.5 258.4Z" fill="#263238"/>
<path d="M21.0701 270C20.9833 270.522 20.8356 271.032 20.6301 271.52C20.5197 272.035 20.3485 272.535 20.1201 273.01C20.048 272.471 20.1205 271.922 20.3301 271.42C20.4436 270.888 20.6993 270.398 21.0701 270Z" fill="#263238"/>
<path d="M36.76 264.38C36.65 263.03 36.59 261.5 36.59 261.5C37.5059 261.257 38.3077 260.701 38.8558 259.928C39.4039 259.155 39.6637 258.215 39.59 257.27C39.35 253.84 38.11 245.98 38.11 245.98L31.68 243.7L25.74 249.79L29 266.71L35.15 266.31C35.616 266.26 36.0443 266.03 36.3446 265.67C36.6449 265.31 36.7938 264.848 36.76 264.38Z" fill="#E5BAAB"/>
<path d="M35.87 255.24C35.8778 255.293 35.8778 255.347 35.87 255.4C35.8291 255.46 35.7759 255.511 35.7138 255.549C35.6517 255.587 35.5822 255.611 35.51 255.62C35.2805 255.586 35.0651 255.489 34.8883 255.338C34.7115 255.188 34.5804 254.991 34.51 254.77C34.4155 254.529 34.3778 254.269 34.4 254.01C34.3979 253.899 34.4244 253.789 34.4769 253.691C34.5294 253.593 34.6062 253.51 34.7 253.45H34.83H34.96C35.0226 253.471 35.0757 253.514 35.11 253.57C35.17 253.67 35.11 253.73 35.11 253.73C35.11 253.73 35.11 253.68 35.03 253.62C34.989 253.587 34.9378 253.569 34.885 253.569C34.8322 253.569 34.781 253.587 34.74 253.62C34.6737 253.676 34.6219 253.747 34.5888 253.827C34.5557 253.907 34.5424 253.994 34.55 254.08C34.5438 254.309 34.5847 254.537 34.67 254.75C34.85 255.2 35.22 255.54 35.51 255.54C35.6262 255.539 35.7373 255.492 35.82 255.41C35.84 255.29 35.86 255.24 35.87 255.24Z" fill="#D78776"/>
<path d="M37.2499 243.33L37.3799 243.51C36.192 242.671 34.7306 242.314 33.2899 242.51C31.7833 242.581 30.3038 242.937 28.9299 243.56C28.5599 243.73 28.1899 243.9 27.8299 244.08C28.026 243.768 28.1807 243.432 28.2899 243.08C28.4701 242.538 28.4826 241.954 28.3256 241.404C28.1686 240.855 27.8494 240.365 27.4099 240C26.9169 239.684 26.3259 239.557 25.7467 239.644C25.1674 239.73 24.6392 240.024 24.2599 240.47C23.9086 240.939 23.7187 241.509 23.7187 242.095C23.7187 242.681 23.9086 243.251 24.2599 243.72C24.5189 244.053 24.8451 244.327 25.2173 244.525C25.5895 244.723 25.9993 244.841 26.4199 244.87C26.1799 245.03 25.9399 245.2 25.7199 245.38C24.7762 246.173 24.0669 247.209 23.6686 248.375C23.2704 249.542 23.1982 250.795 23.4599 252C23.637 252.651 23.8678 253.287 24.1499 253.9C24.1965 254.444 24.173 254.992 24.0799 255.53C23.9756 256.19 23.7165 256.816 23.3236 257.356C22.9308 257.897 22.4155 258.337 21.8199 258.64C21.3649 258.775 20.9495 259.018 20.6099 259.35C20.4714 259.579 20.3982 259.842 20.3982 260.11C20.3982 260.378 20.4714 260.641 20.6099 260.87C20.8488 261.277 21.1694 261.63 21.5515 261.907C21.9335 262.184 22.3688 262.379 22.8299 262.48L23.2699 262.56C23.1655 263.288 23.2587 264.03 23.5399 264.71C24.1396 265.671 25.0072 266.436 26.0359 266.91C27.0646 267.384 28.2096 267.548 29.3299 267.38L29.4199 265.78L30.0199 267.59C30.0199 267.59 32.0199 268.35 36.5899 266.29C38.1099 265.59 35.8799 260.08 35.8799 260.08C35.5376 259.668 35.291 259.185 35.1579 258.666C35.0247 258.148 35.0083 257.606 35.1099 257.08C34.1099 257.2 33.2199 254.7 33.4199 253.87C33.4973 253.445 33.7147 253.059 34.0374 252.773C34.36 252.486 34.7693 252.316 35.1999 252.29C35.5799 252.29 35.4799 254.29 36.4799 254.03C37.3199 254.03 37.0099 252.46 37.2699 251.68C37.8699 249.97 39.0099 247.58 38.5899 245.82C39.9199 244.24 38.5999 242.33 37.2499 243.33Z" fill="#263238"/>
<path d="M21.7301 248.85C21.5284 248.48 21.4748 248.048 21.5801 247.64C21.651 247.201 21.8259 246.787 22.0901 246.43C22.4046 245.961 22.8651 245.61 23.4001 245.43C23.9178 245.307 24.4479 245.243 24.9801 245.24C25.3838 245.232 25.7779 245.114 26.1201 244.9C26.2737 244.798 26.4058 244.667 26.5088 244.515C26.6117 244.362 26.6835 244.19 26.7201 244.01C26.7609 244.116 26.7609 244.234 26.7201 244.34C26.6502 244.64 26.4722 244.903 26.2201 245.08C25.8567 245.349 25.4219 245.506 24.9701 245.53C24.4616 245.542 23.9557 245.606 23.4601 245.72C23.0379 245.871 22.6606 246.126 22.3634 246.461C22.0662 246.797 21.8587 247.202 21.7601 247.64C21.7057 248.041 21.6957 248.447 21.7301 248.85Z" fill="#263238"/>
<path d="M36.1701 266C36.4366 265.615 36.6739 265.211 36.8801 264.79C37.0907 264.277 37.1923 263.726 37.1785 263.172C37.1647 262.617 37.0359 262.072 36.8001 261.57C36.4984 261.024 36.1645 260.496 35.8001 259.99C35.492 259.554 35.265 259.066 35.1301 258.55C35.047 258.316 35.0173 258.066 35.0433 257.818C35.0692 257.571 35.1501 257.332 35.2801 257.12C35.1957 257.579 35.2197 258.052 35.3501 258.5C35.5084 258.977 35.7413 259.426 36.0401 259.83C36.427 260.338 36.7779 260.873 37.0901 261.43C37.3839 262.026 37.5183 262.687 37.4801 263.35C37.4512 263.884 37.3187 264.407 37.0901 264.89C36.938 265.213 36.7355 265.51 36.4901 265.77C36.3001 266 36.1801 266 36.1701 266Z" fill="#263238"/>
<path d="M15.6101 302.42L2.83008 395.08L15.5301 395.47C15.5301 395.47 28.5301 313.9 29.3301 314.38C30.1301 314.86 38.8401 349.58 38.4601 351.71C38.2401 352.92 28.4601 394.56 29.1601 394.39C29.8601 394.22 41.4101 395.39 41.4101 395.39C41.4101 395.39 51.4101 351.6 51.2201 350.54C50.8801 347.96 44.3301 301.28 44.3301 301.28L15.6101 302.42Z" fill="#263238"/>
<path d="M34.1 315.5C33.5655 315.478 33.0352 315.394 32.52 315.25C29.9995 314.699 27.543 313.888 25.19 312.83C24.6941 312.636 24.2213 312.388 23.78 312.09C24.2979 312.226 24.8031 312.407 25.29 312.63C26.21 312.99 27.48 313.46 28.92 313.94C30.36 314.42 31.65 314.79 32.6 315.05C33.1114 315.159 33.613 315.31 34.1 315.5Z" fill="#455A64"/>
<path d="M37.63 395C37.71 395 37.71 395.36 37.63 395.77C37.55 396.18 37.4 396.49 37.32 396.48C37.24 396.47 37.24 396.12 37.32 395.71C37.4 395.3 37.55 395 37.63 395Z" fill="#455A64"/>
<path d="M38.8999 389.18C38.9119 390.185 38.7072 391.181 38.2999 392.1C38.2505 391.597 38.3049 391.09 38.4599 390.61C38.5093 390.108 38.6589 389.622 38.8999 389.18Z" fill="#455A64"/>
<path d="M40.1701 383.36C40.1769 384.365 39.9725 385.36 39.5701 386.28C39.5612 385.276 39.7657 384.28 40.1701 383.36Z" fill="#455A64"/>
<path d="M41.44 377.5C41.4894 378.002 41.4349 378.51 41.28 378.99C41.2213 379.493 41.0614 379.98 40.81 380.42C40.7591 379.918 40.8136 379.41 40.97 378.93C41.027 378.426 41.187 377.939 41.44 377.5Z" fill="#455A64"/>
<path d="M42.7001 371.69C42.7057 372.692 42.5013 373.683 42.1001 374.6C42.0926 373.599 42.2971 372.607 42.7001 371.69Z" fill="#455A64"/>
<path d="M44.0001 365.86C43.9978 366.867 43.7831 367.862 43.3701 368.78C43.3725 367.774 43.5872 366.779 44.0001 365.86Z" fill="#455A64"/>
<path d="M45.2299 360C45.2785 360.502 45.224 361.009 45.0699 361.49C45.014 361.994 44.8539 362.481 44.5999 362.92C44.5968 361.919 44.8011 360.928 45.1999 360.01L45.2299 360Z" fill="#455A64"/>
<path d="M46.5001 354.2C46.4981 355.207 46.2834 356.202 45.8701 357.12C45.8725 356.113 46.0872 355.118 46.5001 354.2Z" fill="#455A64"/>
<path d="M46.8801 348.33C47.0979 348.787 47.2204 349.284 47.2401 349.79C47.2964 350.164 47.3298 350.542 47.3401 350.92C47.2601 351.14 47.2001 351.26 47.1601 351.25C47.1201 351.24 47.1601 351.1 47.1601 350.87C47.0666 350.505 46.9964 350.134 46.9501 349.76C46.8328 349.293 46.809 348.807 46.8801 348.33Z" fill="#455A64"/>
<path d="M46 342.43C46.2201 342.886 46.3427 343.383 46.36 343.89C46.4672 344.384 46.4672 344.895 46.36 345.39C46.1403 344.933 46.0177 344.436 46 343.93C45.8926 343.435 45.8926 342.924 46 342.43Z" fill="#455A64"/>
<path d="M45.2099 336.51C45.5607 337.469 45.7005 338.492 45.6199 339.51C45.402 339.053 45.2795 338.556 45.2599 338.05C45.138 337.545 45.1209 337.021 45.2099 336.51Z" fill="#455A64"/>
<path d="M44.39 330.6C44.6082 331.057 44.7307 331.553 44.75 332.06C44.85 332.555 44.85 333.065 44.75 333.56C44.3993 332.601 44.2594 331.577 44.34 330.56L44.39 330.6Z" fill="#455A64"/>
<path d="M43.5801 324.69C43.7999 325.147 43.9225 325.644 43.9401 326.15C44.0473 326.645 44.0473 327.156 43.9401 327.65C43.7235 327.193 43.6011 326.696 43.5801 326.19C43.4766 325.696 43.4766 325.185 43.5801 324.69Z" fill="#455A64"/>
<path d="M42.75 318.78C43.1008 319.739 43.2406 320.762 43.16 321.78C42.9402 321.324 42.8176 320.827 42.8 320.32C42.6763 319.816 42.6593 319.291 42.75 318.78Z" fill="#455A64"/>
<path d="M41.9399 312.87C42.1581 313.327 42.2806 313.824 42.2999 314.33C42.4035 314.825 42.4035 315.335 42.2999 315.83C42.0821 315.373 41.9596 314.876 41.9399 314.37C41.84 313.875 41.84 313.365 41.9399 312.87Z" fill="#455A64"/>
<path d="M41.3199 308.42C41.4099 308.42 41.5299 308.74 41.5799 309.15C41.6299 309.56 41.5799 309.91 41.5799 309.92C41.5799 309.93 41.3699 309.6 41.3199 309.19C41.2699 308.78 41.2399 308.43 41.3199 308.42Z" fill="#455A64"/>
<path d="M27.8601 396.11L41.9601 396.94L42.7001 392.94L28.6501 392.38L27.8601 396.11Z" fill="#455A64"/>
<path d="M2 395.08L16.1 395.9L16.84 391.9L2.79 391.34L2 395.08Z" fill="#455A64"/>
<path d="M26.6999 314.86C26.6199 314.86 26.6199 314.49 26.6999 314.09C26.7799 313.69 26.9199 313.36 26.9999 313.38C27.0799 313.4 27.0899 313.74 26.9999 314.15C26.9099 314.56 26.7799 314.88 26.6999 314.86Z" fill="#455A64"/>
<path d="M25.51 320.67C25.4579 320.168 25.509 319.661 25.66 319.18C25.71 318.68 25.8632 318.197 26.11 317.76C26.1206 318.762 25.9159 319.754 25.51 320.67Z" fill="#455A64"/>
<path d="M24.3401 326.5C24.281 326 24.3252 325.493 24.4701 325.01C24.519 324.509 24.6686 324.022 24.9101 323.58C24.9763 324.08 24.9319 324.589 24.7801 325.07C24.7343 325.572 24.5845 326.059 24.3401 326.5Z" fill="#455A64"/>
<path d="M23.2099 332.33C23.1493 331.83 23.1936 331.322 23.3399 330.84C23.3868 330.338 23.5366 329.852 23.7799 329.41C23.8405 329.91 23.7962 330.418 23.6499 330.9C23.6016 331.402 23.4519 331.888 23.2099 332.33Z" fill="#455A64"/>
<path d="M22.09 338.16C22.0274 337.661 22.0682 337.153 22.21 336.67C22.255 336.169 22.4013 335.683 22.64 335.24C22.7114 335.739 22.6738 336.247 22.53 336.73C22.486 337.233 22.3361 337.72 22.09 338.16Z" fill="#455A64"/>
<path d="M20.9999 344C20.9658 343 21.1466 342.004 21.5299 341.08C21.597 341.579 21.5595 342.086 21.4199 342.57C21.3784 343.07 21.2355 343.557 20.9999 344Z" fill="#455A64"/>
<path d="M20.0001 349.85C19.9617 348.848 20.1355 347.85 20.5101 346.92C20.5477 347.922 20.3739 348.92 20.0001 349.85Z" fill="#455A64"/>
<path d="M19 355.7C18.9625 354.699 19.1327 353.701 19.5 352.77C19.5778 353.267 19.5471 353.775 19.41 354.26C19.3778 354.763 19.238 355.254 19 355.7Z" fill="#455A64"/>
<path d="M18.0001 361.55C17.9177 361.054 17.9451 360.545 18.0801 360.06C18.109 359.558 18.2418 359.068 18.4701 358.62C18.5452 359.117 18.5179 359.624 18.3901 360.11C18.3615 360.612 18.2287 361.102 18.0001 361.55Z" fill="#455A64"/>
<path d="M17.11 367.42C17.0537 366.423 17.207 365.425 17.56 364.49C17.6175 365.488 17.4642 366.486 17.11 367.42Z" fill="#455A64"/>
<path d="M16.2301 373.3C16.1507 372.805 16.1711 372.298 16.2901 371.81C16.3093 371.306 16.4354 370.812 16.6601 370.36C16.7395 370.856 16.7191 371.363 16.6001 371.85C16.5809 372.354 16.4547 372.849 16.2301 373.3Z" fill="#455A64"/>
<path d="M15.4399 379.17C15.3351 378.679 15.3351 378.171 15.4399 377.68C15.4606 377.181 15.5831 376.691 15.7999 376.24C15.903 376.732 15.903 377.239 15.7999 377.73C15.7776 378.23 15.6552 378.719 15.4399 379.17Z" fill="#455A64"/>
<path d="M14.63 385.05C14.5237 384.559 14.5237 384.051 14.63 383.56C14.6459 383.058 14.7651 382.565 14.98 382.11C15.0604 383.106 14.931 384.108 14.6 385.05H14.63Z" fill="#455A64"/>
<path d="M13.89 391C13.7975 390.002 13.9203 388.996 14.25 388.05C14.3511 388.541 14.3511 389.048 14.25 389.54C14.2375 390.047 14.1147 390.545 13.89 391Z" fill="#455A64"/>
<path d="M13.3701 395.4C13.2901 395.4 13.2601 395.05 13.3001 394.63C13.3401 394.21 13.4601 393.89 13.5401 393.9C13.6201 393.91 13.6501 394.26 13.6101 394.67C13.5701 395.08 13.4601 395.41 13.3701 395.4Z" fill="#455A64"/>
<path d="M46.79 351.5C45.5642 351.5 44.3392 351.436 43.1199 351.31C41.8924 351.283 40.6673 351.189 39.45 351.03C41.9064 350.822 44.38 350.981 46.79 351.5Z" fill="#455A64"/>
<path d="M46.0999 350C44.0692 350.437 41.9775 350.515 39.9199 350.23C40.9454 350.11 41.9776 350.057 43.0099 350.07C44.0373 349.98 45.0695 349.956 46.0999 350Z" fill="#455A64"/>
<path d="M14.1099 354.4C12.9539 352.868 11.9681 351.215 11.1699 349.47C12.3259 351.002 13.3117 352.655 14.1099 354.4Z" fill="#455A64"/>
<path d="M44.7 304.78V305.2C44.6456 305.583 44.562 305.961 44.45 306.33C44.295 306.896 44.0031 307.414 43.6 307.84C43.3368 308.096 43.0228 308.295 42.6784 308.422C42.3339 308.55 41.9666 308.603 41.6 308.58C40.8893 308.543 40.1913 308.377 39.54 308.09C38.9997 307.875 38.4994 307.571 38.06 307.19C37.6265 306.863 37.3392 306.378 37.26 305.84C37.4978 306.283 37.8167 306.676 38.2 307C38.6357 307.34 39.1215 307.61 39.64 307.8C40.2759 308.064 40.9525 308.216 41.64 308.25C41.9687 308.274 42.2988 308.23 42.61 308.122C42.9213 308.014 43.2071 307.843 43.45 307.62C43.8365 307.232 44.1275 306.76 44.3 306.24C44.4093 305.747 44.5428 305.26 44.7 304.78Z" fill="#455A64"/>
<path d="M26.9999 313.41C26.911 313.343 26.8274 313.27 26.7499 313.19C26.5069 312.998 26.2826 312.784 26.0799 312.55C25.7594 312.206 25.4991 311.81 25.3099 311.38C25.2065 310.816 25.1796 310.241 25.2299 309.67C25.2999 308.46 25.4399 307.42 25.5399 306.67C25.5724 306.259 25.653 305.853 25.7799 305.46C25.7837 306.886 25.707 308.312 25.5499 309.73C25.488 310.265 25.488 310.805 25.5499 311.34C25.7172 311.739 25.9393 312.112 26.2099 312.45C26.3953 312.692 26.5957 312.923 26.8099 313.14C26.9999 313.33 26.9999 313.37 26.9999 313.41Z" fill="#455A64"/>
<path d="M338.55 307C342.88 310.38 336.63 323.15 331 323.21C325.37 323.27 319.12 310.38 323.45 307C326.88 304.32 329.88 307.89 331 310.08C332.12 307.85 335.12 304.28 338.55 307Z" fill="#F76262"/>
<path d="M83.87 561C86.94 557.79 97.73 550.39 91.98 539.09C89.81 532.09 74.52 520.58 60.77 525.74C47.02 530.9 51.15 535.49 44.48 541.62C37.81 547.75 28.9 549.62 19.48 552.53C10.06 555.44 -0.26997 564.53 -3.45997 573.17C-5.45997 578.55 -5.12997 585.17 -7.70997 590.84C-11.25 598.68 -22.59 603.54 -21.09 612.01C-20.7388 613.406 -20.2077 614.751 -19.51 616.01C-17.95 619.59 -12.79 633.33 4.49003 639.7C21.77 646.07 44.74 638.52 48.33 629.7C51.92 620.88 59.3 607 68.61 605C77.92 603 84 594.83 84 593.47C84 592.11 87.76 589.6 84.14 580.79C81.22 573.75 82.75 564.68 83.87 561Z" fill="#E2A14B"/>
<path d="M48.6599 567.36L56.1199 555.03M57.9999 567.45L48.8199 578.57L57.9999 567.45ZM-19.6001 668.92L-4.7601 643.5L-1.8201 639.94L-19.6001 668.92ZM35.3099 594.94L53.9999 592.06L35.3099 594.94ZM35.3099 595L25.3099 607.13L35.3099 595ZM35.3099 595L48.8499 578.6L35.3099 595ZM67.1999 590L53.9999 592L67.1999 590ZM53.9999 592L60.4799 583.14L53.9999 592ZM15.2799 619.14L35.0599 616.07L15.2799 619.14ZM15.2799 619.14L-1.8201 639.85L15.2799 619.14ZM15.2799 619.14L25.2799 607.01L15.2799 619.14ZM43.9999 614.77L35.0599 616.16L43.9999 614.77ZM35.0599 616.16L42.8499 607.32L35.0599 616.16ZM-1.8201 639.94L-3.8201 627.21L-1.8201 639.94ZM25.2899 607.1L23.8599 581L25.2899 607.1ZM23.0999 567.16L23.8599 581L23.0999 567.16ZM23.8599 581L31.6799 571.5L23.8599 581ZM48.8599 578.5L48.6599 567.36L48.8599 578.5ZM48.4599 556.22L48.6599 567.36L48.4599 556.22Z" stroke="white" stroke-width="1.47" stroke-linecap="round"/>
</g>
<defs>
<clipPath id="clip0_236:8607">
<rect width="375" height="753" fill="white"/>
</clipPath>
</defs>
</svg>
