<svg width="375" height="750" viewBox="0 0 375 750" fill="none" xmlns="http://www.w3.org/2000/svg">
<g clip-path="url(#clip0_236:7513)">
<path d="M91.32 683.55C89.79 684.06 44.72 684.1 43.07 683.04C42.43 682.64 45.33 639.89 45.33 639.89L74 639.81L71.31 668.42C71.31 668.42 88.11 675.92 89.82 677.28C91.53 678.64 92.85 683 91.32 683.55Z" fill="#D3766A"/>
<path d="M91.32 683.55C89.79 684.06 44.72 684.1 43.07 683.04C42.87 682.92 42.71 678.59 43.3 672.93C51.48 674.12 80.75 677.93 82.99 676.55C84.55 675.55 83.11 674.16 81.8 673.22C84.5379 674.428 87.2085 675.783 89.8 677.28C91.5 678.63 92.85 683 91.32 683.55Z" fill="#263238"/>
<path d="M73.45 661.52L41.86 661.83C41.86 661.83 47.13 594.51 46.86 593.23C46.52 591.58 44.59 584.13 42 574.4C41.23 571.4 40.33 568.09 39.42 564.7C37 555.55 34.31 545.55 32 536.84C28.48 523.79 25.72 513.66 25.72 513.66L52.5 513.39C52.5 513.39 55.72 523.24 59.78 536.07C66.4 556.92 75.24 585.64 76.16 592.61C77.6 603.92 73.45 661.52 73.45 661.52Z" fill="#263238"/>
<path d="M72 656.15C67.18 656.09 68.56 656.04 63.73 656.05C61.37 656.05 45.85 656.05 43.65 656.46C43.65 656.46 43.65 656.55 43.65 656.56C45.88 656.9 61.37 656.61 63.73 656.56C68.56 656.47 67.17 656.44 72 656.29C72.0106 656.277 72.0164 656.262 72.0164 656.245C72.0164 656.229 72.0106 656.213 72 656.2V656.15Z" fill="#37474F"/>
<path d="M52.7599 588.66C51.6799 584.11 50.0899 579.66 48.6899 575.18C45.8633 566.107 43.0199 557.047 40.1599 548L35.8499 534.4C35.1199 532.11 34.3899 529.82 33.6499 527.54C32.9099 525.26 32.1199 523.1 31.4499 520.83C31.1799 519.91 31.0499 520.42 31.3899 521.57C32.0799 523.92 32.7599 526.27 33.4699 528.57C34.8699 533.237 36.2833 537.873 37.7099 542.48C40.5366 551.707 43.3899 560.927 46.2699 570.14C47.7033 574.767 49.1433 579.39 50.5899 584.01C51.3206 586.207 51.9118 588.448 52.3599 590.72C52.7545 593.095 52.872 595.508 52.7099 597.91C52.4499 602.74 51.9399 607.57 51.5499 612.4C51.1599 617.23 50.7499 622.06 50.3499 626.92C49.5499 636.54 49.1099 639.65 48.3499 649.27C48.2499 650.49 48.1566 651.707 48.0699 652.92C48.0699 653.33 48.6599 653.29 48.6999 652.92C49.6399 643.4 49.9999 640.38 50.7999 630.85C51.5999 621.32 52.3899 611.85 53.1799 602.39C53.3799 600.01 53.6099 597.63 53.5799 595.23C53.5493 593.019 53.2675 590.818 52.7399 588.67L52.7599 588.66Z" fill="#37474F"/>
<path d="M49.4101 513.43C47.7001 527.82 44.4101 554.82 42.0301 574.36C35.7601 550.72 25.6801 513.66 25.6801 513.66L49.4101 513.43Z" fill="#37474F"/>
<path d="M57.69 684.41C56.16 684.92 11.1 684.96 9.43996 683.9C8.79996 683.5 9.74996 640.78 9.74996 640.78L38.42 640.69L37.69 669.28C37.69 669.28 54.49 676.78 56.2 678.14C57.91 679.5 59.22 683.9 57.69 684.41Z" fill="#D3766A"/>
<path d="M57.6899 684.41C56.1699 684.92 11.0999 684.96 9.43994 683.9C9.23994 683.78 9.18994 679.56 9.21994 673.79C17.3999 674.98 47.1199 678.79 49.3299 677.41C50.8899 676.41 49.4499 675.02 48.1399 674.07C50.8834 675.266 53.5547 676.622 56.1399 678.13C57.8699 679.49 59.2199 683.9 57.6899 684.41Z" fill="#263238"/>
<path d="M51.59 513.41C51.59 513.41 51.1 526.23 48.27 536.41C48.04 537.25 47.8 538.08 47.55 538.87C44.8756 539.971 42.3053 541.31 39.87 542.87C39.87 542.87 39.67 553.18 39.47 564.67C39.26 577.53 39.04 591.86 39.15 594.9C39.53 606.27 38.7 661.7 38.7 661.7L7.12 662.14C7.12 662.14 11.9 599.36 11.82 595.2C11.69 588.52 12.82 540.2 12.53 539.15C8.52999 525 16.89 513.72 16.89 513.72L51.59 513.41Z" fill="#263238"/>
<path d="M48.8299 538.09C45.6952 539.431 42.6837 541.044 39.8299 542.91C39.818 542.916 39.8074 542.924 39.7988 542.935C39.7903 542.945 39.7838 542.957 39.7799 542.97C39.7767 542.989 39.7787 543.009 39.7857 543.027C39.7927 543.045 39.8044 543.062 39.8197 543.074C39.835 543.086 39.8533 543.094 39.8727 543.097C39.892 543.1 39.9118 543.097 39.9299 543.09C42.9299 541.58 46.0599 540.09 49.0099 538.45C49.0485 538.42 49.0756 538.378 49.0865 538.331C49.0975 538.283 49.0916 538.233 49.0699 538.19C49.047 538.149 49.0108 538.116 48.9673 538.098C48.9237 538.08 48.8754 538.077 48.8299 538.09Z" fill="#37474F"/>
<path d="M44 533.84C44.08 532.393 44.1766 530.946 44.29 529.5C44.55 526.21 44.86 522.9 45.4 519.64C45.4 519.39 45.8 519.48 45.79 519.73C45.59 522.29 45.32 524.84 45.12 527.4C44.92 529.96 44.62 532.5 44.6 535.05C44.6 535.79 44.66 537.11 45.6 537.32C46.87 537.59 47.45 535.92 47.74 535.01C48.4404 532.723 48.9489 530.381 49.26 528.01C49.65 525.33 49.84 522.6 50.07 519.9C50.07 519.8 50.24 519.81 50.24 519.9C50.29 525.26 50.24 530.9 48.34 535.9C48.1991 536.423 47.9192 536.898 47.5301 537.274C47.141 537.651 46.6572 537.916 46.13 538.04H46.07C46.0776 538.069 46.0776 538.1 46.07 538.13C46.0582 538.282 46.0314 538.433 45.99 538.58C46.0033 538.719 46.0066 538.86 46 539C46 539.26 45.92 539.53 45.85 539.79C45.8475 539.815 45.8401 539.839 45.8281 539.862C45.8161 539.884 45.7997 539.904 45.78 539.92C45.7623 539.937 45.7413 539.952 45.7181 539.961C45.6949 539.971 45.6701 539.976 45.645 539.976C45.6198 539.976 45.595 539.971 45.5718 539.961C45.5486 539.952 45.5276 539.937 45.51 539.92C45.4921 539.875 45.4921 539.825 45.51 539.78C45.4775 539.767 45.4495 539.745 45.4299 539.717C45.4102 539.688 45.3998 539.654 45.4 539.62C45.4164 539.107 45.5283 538.602 45.73 538.13C45.4196 538.069 45.1293 537.932 44.8849 537.731C44.6406 537.531 44.4499 537.272 44.33 536.98C43.9706 535.974 43.8575 534.898 44 533.84Z" fill="#37474F"/>
<path d="M17.4 541C17.0453 538.851 16.578 536.721 16 534.62C14.91 529.81 15.9 524.97 17 520.25C17.0084 520.228 17.0084 520.203 17 520.18C16.9805 520.174 16.9595 520.174 16.94 520.18H16.87C16.8658 520.197 16.8658 520.214 16.87 520.23C15.77 524.23 14.66 528.33 15.14 532.55C15.4556 534.532 15.8796 536.495 16.41 538.43C16.8715 540.545 17.0796 542.707 17.03 544.87C16.98 549.16 16.74 553.45 16.59 557.73L16 570.93C15.3867 588.39 14.8167 605.85 14.29 623.31C13.98 633.09 13.7 642.88 13.51 652.66C13.5152 652.673 13.5242 652.685 13.5358 652.692C13.5473 652.7 13.561 652.704 13.575 652.704C13.589 652.704 13.6027 652.7 13.6143 652.692C13.6258 652.685 13.6348 652.673 13.64 652.66C14.51 635.2 15.1 617.76 15.73 600.27C16.36 582.78 16.94 565.52 17.51 548.15C17.648 545.768 17.6112 543.378 17.4 541Z" fill="#37474F"/>
<path d="M31 520.44C30.69 521.93 30.46 523.44 30.06 524.94C29.7748 526.31 29.0304 527.541 27.95 528.43C26.8252 529.233 25.5326 529.77 24.17 530C22.3574 530.354 20.4982 530.402 18.67 530.14C18.59 530.14 18.56 530.24 18.67 530.26C19.67 530.45 20.57 530.77 21.54 530.88C22.4791 531.026 23.4314 531.07 24.38 531.01C25.9601 530.895 27.4706 530.314 28.72 529.34C29.8676 528.316 30.627 526.928 30.87 525.41C31.158 523.759 31.2819 522.085 31.24 520.41C31.22 520.34 31 520.32 31 520.44Z" fill="#37474F"/>
<path d="M24.9999 449.17C21.3399 454.4 21.3599 461.82 21.3599 461.82C21.3599 461.82 18.3599 469.89 20.2799 473.65C20.794 474.723 21.56 475.655 22.5126 476.367C23.4651 477.079 24.5758 477.55 25.7499 477.74L24.9999 475.61C24.9999 475.61 26.9299 478.18 31.8899 478.51C36.8499 478.84 42.8899 476.23 45.8899 473.98C47.6643 472.664 49.0667 470.911 49.9599 468.89L49.2999 472.3C50.8212 471.851 52.2083 471.034 53.3386 469.921C54.4688 468.809 55.3073 467.434 55.7799 465.92C57.6599 460.51 48.5199 454.86 47.5699 453.43C46.6199 452 43.8199 441.08 32.4799 445.06C32.4299 445.06 27.5299 445.59 24.9999 449.17Z" fill="#263238"/>
<path d="M24 477.77C22.534 477.268 21.2568 476.33 20.34 475.08C19.3641 473.877 18.8248 472.379 18.81 470.83C18.9243 468.995 19.3716 467.196 20.13 465.52C20.8 463.75 21.58 462.03 22.24 460.25C22.24 460.15 22.13 460.1 22.08 460.18C21.2703 461.58 20.5424 463.026 19.9 464.51C19.2023 465.887 18.6654 467.34 18.3 468.84C17.9655 470.223 18.0314 471.673 18.49 473.02C18.9184 474.108 19.6048 475.076 20.49 475.84C21.5604 476.657 22.7338 477.33 23.98 477.84C24.06 477.92 24.12 477.8 24 477.77Z" fill="#263238"/>
<path d="M56.18 461.77C56.0325 460.202 55.4038 458.717 54.38 457.52C53.2784 456.407 51.9476 455.547 50.48 455C48.786 454.428 47.2392 453.489 45.95 452.25C45.9 452.2 45.82 452.25 45.86 452.34C47.78 454.61 50.8 455.34 53.06 457.11C54.2711 458.158 55.1343 459.55 55.5345 461.101C55.9347 462.651 55.8529 464.287 55.3 465.79C54.6533 467.659 53.574 469.348 52.15 470.72C54.62 468.46 56.57 465.22 56.18 461.77Z" fill="#263238"/>
<path d="M37.88 483C43.5 495.45 56.83 511.22 60.33 512.73C63.83 514.24 85.5 513.33 91.63 511.68C94.12 511.03 91.63 492.96 88.91 493.28C79.91 494.28 64.96 494.62 64.3 494.28C62.67 493.38 51.59 484.87 44.3 478.15C35.37 470 35.61 478 37.88 483Z" fill="#D3766A"/>
<path d="M84.7 492.65L86.41 515C86.41 515 64.89 515.53 59.49 513C54.09 510.47 40.15 489.05 37.49 482.63C34.83 476.21 36.25 471.11 43.72 477.22C51.19 483.33 63.92 493.64 64.52 493.74C65.12 493.84 84.7 492.65 84.7 492.65Z" fill="#FFC727"/>
<path d="M37.56 478.61C37.5709 478.844 37.4888 479.074 37.3315 479.248C37.1741 479.422 36.9544 479.527 36.72 479.54H36.51C36.3865 478.988 36.3129 478.425 36.29 477.86C36.3934 477.811 36.5057 477.784 36.62 477.78C36.8545 477.766 37.085 477.846 37.261 478.001C37.4371 478.157 37.5446 478.375 37.56 478.61ZM44.82 478.17V478.24C44.8251 478.358 44.8536 478.473 44.9038 478.58C44.9539 478.687 45.0248 478.782 45.1123 478.861C45.1997 478.94 45.302 479.001 45.4132 479.041C45.5244 479.08 45.6423 479.097 45.76 479.09H45.92L44.82 478.17ZM46.36 490.81C46.1825 490.82 46.012 490.883 45.87 490.99C45.7356 491.091 45.6327 491.228 45.5731 491.386C45.5136 491.543 45.5 491.714 45.5337 491.879C45.5675 492.044 45.6474 492.196 45.764 492.317C45.8807 492.439 46.0294 492.525 46.1928 492.565C46.3562 492.605 46.5277 492.598 46.6874 492.545C46.847 492.492 46.9883 492.394 47.0948 492.264C47.2013 492.133 47.2687 491.976 47.2891 491.808C47.3095 491.641 47.2821 491.472 47.21 491.32C47.1635 491.199 47.0919 491.09 47 491C46.8256 490.841 46.5954 490.759 46.36 490.77V490.81ZM55.41 490.36C55.2886 490.366 55.1696 490.397 55.06 490.45C54.8409 490.554 54.672 490.741 54.59 490.97C54.5271 491.142 54.5173 491.33 54.5618 491.508C54.6064 491.686 54.7033 491.847 54.84 491.97C55.0196 492.134 55.257 492.22 55.5 492.21C55.6175 492.206 55.733 492.178 55.84 492.13C56.003 492.053 56.1395 491.93 56.2324 491.776C56.3253 491.621 56.3703 491.443 56.3617 491.263C56.3531 491.083 56.2914 490.91 56.1843 490.765C56.0772 490.62 55.9295 490.511 55.76 490.45C55.6445 490.427 55.5256 490.427 55.41 490.45V490.36ZM41.52 484.36C41.3899 484.368 41.2631 484.404 41.1486 484.467C41.0342 484.529 40.9348 484.616 40.8577 484.721C40.7805 484.826 40.7273 484.947 40.702 485.075C40.6766 485.203 40.6797 485.335 40.711 485.462C40.7423 485.588 40.801 485.706 40.883 485.808C40.965 485.909 41.0682 485.991 41.1855 486.048C41.3027 486.105 41.4311 486.136 41.5615 486.138C41.6919 486.14 41.8211 486.113 41.94 486.06C42.1214 485.971 42.2667 485.823 42.3517 485.64C42.4368 485.457 42.4563 485.25 42.4071 485.055C42.3579 484.859 42.2429 484.686 42.0814 484.565C41.9199 484.444 41.7217 484.382 41.52 484.39V484.36ZM50.52 483.91C50.3439 483.918 50.1741 483.978 50.0323 484.083C49.8905 484.188 49.783 484.333 49.7235 484.499C49.6641 484.665 49.6552 484.845 49.6982 485.016C49.7412 485.187 49.834 485.341 49.9648 485.459C50.0957 485.578 50.2587 485.654 50.4333 485.68C50.6078 485.705 50.7859 485.678 50.945 485.602C51.1042 485.526 51.2371 485.404 51.327 485.253C51.4169 485.101 51.4598 484.926 51.45 484.75C51.4296 484.521 51.3214 484.309 51.1481 484.158C50.9747 484.007 50.7497 483.929 50.52 483.94V483.91ZM56.03 503.85C55.8542 503.859 55.685 503.92 55.5439 504.025C55.4027 504.13 55.2959 504.275 55.237 504.441C55.1782 504.607 55.1698 504.787 55.2131 504.957C55.2563 505.128 55.3492 505.282 55.48 505.4C55.5863 505.5 55.7157 505.571 55.8566 505.609C55.9974 505.646 56.1454 505.648 56.2872 505.614C56.4289 505.58 56.56 505.512 56.6687 505.414C56.7774 505.317 56.8603 505.195 56.9099 505.058C56.9595 504.921 56.9742 504.773 56.9529 504.629C56.9315 504.485 56.8746 504.348 56.7874 504.232C56.7002 504.115 56.5853 504.022 56.4531 503.96C56.3209 503.899 56.1755 503.871 56.03 503.88V503.85ZM65.08 503.4C64.858 503.397 64.6419 503.472 64.4694 503.612C64.2969 503.752 64.1789 503.947 64.1358 504.165C64.0927 504.383 64.1272 504.609 64.2335 504.804C64.3397 504.999 64.5109 505.151 64.7173 505.233C64.9237 505.315 65.1523 505.322 65.3633 505.253C65.5744 505.183 65.7545 505.043 65.8725 504.855C65.9905 504.666 66.0388 504.443 66.0092 504.223C65.9795 504.003 65.8736 503.8 65.71 503.65C65.5406 503.488 65.3146 503.398 65.08 503.4ZM74.08 502.95C73.858 502.947 73.6419 503.022 73.4694 503.162C73.2969 503.302 73.1789 503.497 73.1358 503.715C73.0927 503.933 73.1272 504.159 73.2335 504.354C73.3397 504.549 73.5109 504.701 73.7173 504.783C73.9237 504.865 74.1523 504.872 74.3633 504.803C74.5744 504.733 74.7545 504.593 74.8725 504.405C74.9905 504.216 75.0388 503.993 75.0092 503.773C74.9795 503.553 74.8736 503.35 74.71 503.2C74.5406 503.038 74.3146 502.948 74.08 502.95ZM83.08 502.5C82.8432 502.511 82.6204 502.615 82.46 502.79C82.3215 502.942 82.24 503.137 82.2293 503.343C82.2187 503.548 82.2795 503.751 82.4015 503.917C82.5236 504.083 82.6992 504.201 82.8986 504.252C83.098 504.302 83.3088 504.282 83.4952 504.195C83.6816 504.108 83.832 503.959 83.9208 503.773C84.0097 503.588 84.0315 503.377 83.9826 503.177C83.9336 502.977 83.817 502.801 83.6524 502.677C83.4879 502.554 83.2856 502.491 83.08 502.5ZM51.08 497.42C50.9043 497.428 50.7349 497.488 50.5932 497.592C50.4515 497.697 50.3439 497.841 50.284 498.006C50.2241 498.171 50.2146 498.351 50.2567 498.522C50.2988 498.693 50.3906 498.847 50.5205 498.966C50.6503 499.085 50.8125 499.162 50.9864 499.189C51.1603 499.215 51.3382 499.19 51.4977 499.115C51.6571 499.041 51.7908 498.921 51.882 498.77C51.9732 498.62 52.0178 498.446 52.01 498.27C52.0024 498.154 51.972 498.041 51.9206 497.937C51.8692 497.833 51.7978 497.741 51.7104 497.665C51.6231 497.588 51.5215 497.53 51.4116 497.493C51.3018 497.456 51.1857 497.442 51.07 497.45L51.08 497.42ZM60.08 496.97C59.8605 496.97 59.648 497.048 59.4796 497.189C59.3112 497.33 59.1974 497.525 59.1579 497.741C59.1185 497.957 59.1559 498.18 59.2637 498.371C59.3715 498.563 59.5428 498.71 59.748 498.788C59.9532 498.866 60.1793 498.87 60.387 498.799C60.5948 498.728 60.7711 498.587 60.8853 498.399C60.9996 498.212 61.0446 497.99 61.0126 497.773C60.9806 497.556 60.8735 497.356 60.71 497.21C60.5396 497.05 60.3134 496.964 60.08 496.97ZM69.08 496.53C68.8605 496.53 68.6481 496.608 68.4796 496.749C68.3112 496.89 68.1974 497.085 68.1579 497.301C68.1185 497.517 68.1559 497.74 68.2637 497.931C68.3715 498.123 68.5428 498.27 68.748 498.348C68.9532 498.426 69.1793 498.43 69.387 498.359C69.5948 498.288 69.7711 498.147 69.8853 497.959C69.9996 497.772 70.0446 497.55 70.0126 497.333C69.9806 497.116 69.8735 496.916 69.71 496.77C69.5396 496.61 69.3134 496.524 69.08 496.53ZM78.08 496.08C77.8605 496.08 77.6481 496.158 77.4796 496.299C77.3112 496.44 77.1974 496.635 77.1579 496.851C77.1185 497.067 77.1559 497.29 77.2637 497.481C77.3715 497.673 77.5428 497.82 77.748 497.898C77.9532 497.976 78.1793 497.98 78.387 497.909C78.5948 497.838 78.7711 497.697 78.8853 497.509C78.9996 497.322 79.0446 497.1 79.0126 496.883C78.9806 496.666 78.8735 496.466 78.71 496.32C78.5396 496.16 78.3134 496.074 78.08 496.08ZM61 510.55C60.7774 510.547 60.5609 510.623 60.3883 510.764C60.2158 510.904 60.0982 511.101 60.056 511.32C60.0138 511.538 60.0497 511.765 60.1576 511.96C60.2654 512.155 60.4382 512.305 60.6458 512.386C60.8535 512.466 61.0828 512.471 61.2936 512.399C61.5045 512.328 61.6836 512.185 61.7996 511.995C61.9156 511.805 61.9612 511.58 61.9284 511.36C61.8956 511.14 61.7864 510.938 61.62 510.79C61.4516 510.634 61.2298 510.548 61 510.55ZM70 510.1C69.7774 510.097 69.5609 510.173 69.3883 510.314C69.2158 510.454 69.0982 510.651 69.056 510.87C69.0138 511.088 69.0497 511.315 69.1576 511.51C69.2654 511.705 69.4382 511.855 69.6458 511.936C69.8535 512.016 70.0828 512.021 70.2936 511.95C70.5045 511.878 70.6836 511.735 70.7996 511.545C70.9156 511.355 70.9612 511.13 70.9284 510.91C70.8956 510.689 70.7864 510.488 70.62 510.34C70.4516 510.184 70.2298 510.098 70 510.1ZM79 509.65C78.7632 509.661 78.5404 509.765 78.38 509.94C78.2415 510.092 78.16 510.287 78.1493 510.493C78.1387 510.698 78.1995 510.901 78.3215 511.067C78.4436 511.233 78.6192 511.351 78.8186 511.402C79.018 511.452 79.2288 511.432 79.4152 511.345C79.6016 511.258 79.752 511.109 79.8409 510.923C79.9297 510.738 79.9515 510.527 79.9026 510.327C79.8536 510.127 79.737 509.951 79.5724 509.827C79.4079 509.704 79.2056 509.641 79 509.65Z" fill="white"/>
<path opacity="0.1" d="M70.58 514.79C65.93 514.52 61.58 514 59.47 513.06C54.06 510.55 40.13 489.06 37.47 482.68C35.77 478.5 35.76 474.88 38.02 474.51L70.58 514.79Z" fill="black"/>
<path d="M81 513.85C80.76 511.85 80.27 505.85 80.16 504.26C80.01 501.02 79.81 497.75 79.91 494.5C79.9146 494.489 79.9223 494.48 79.9321 494.474C79.9419 494.467 79.9533 494.464 79.965 494.464C79.9766 494.464 79.9881 494.467 79.9978 494.474C80.0076 494.48 80.0153 494.489 80.02 494.5C80.47 497.67 80.63 500.89 80.82 504.09C80.92 505.69 81.18 512.99 81.07 513.86C81.09 513.89 81 513.91 81 513.85Z" fill="#263238"/>
<path d="M51.1699 503.82L56.68 520.6L50.4199 521.03L47.27 514.92L44.45 521.42C33 522.15 16.83 523.11 11.2 523C11.2 523 16.97 489.21 26.11 478.11C30.69 472.56 36.4499 472.64 40.2599 476.11C41.2599 476.99 51.26 487.88 52.77 493.38C54.09 498.25 51.1699 503.82 51.1699 503.82Z" fill="#FFC727"/>
<path d="M53.1 494.54C52.7177 492.472 51.9439 490.497 50.82 488.72C50.7451 488.526 50.6548 488.339 50.55 488.16C50.46 487.97 50.37 487.77 50.27 487.58C49.8833 486.826 49.49 486.09 49.09 485.37C49.36 485.95 49.64 486.52 49.92 487.1L50.26 487.78C50.07 487.48 49.87 487.2 49.66 486.92C48.696 485.589 47.6577 484.313 46.55 483.1H46.48C48.1597 485.317 49.6706 487.656 51 490.1C52.2381 492.554 52.8334 495.282 52.73 498.03C52.6372 499.612 52.2999 501.17 51.73 502.65C53.047 500.139 53.507 497.266 53.04 494.47L53.1 494.54Z" fill="#263238"/>
<path d="M28.5501 479.05C28.5577 479.203 28.5254 479.356 28.4564 479.494C28.3874 479.631 28.2839 479.748 28.1562 479.834C28.0284 479.919 27.8807 479.97 27.7274 479.981C27.5741 479.993 27.4204 479.964 27.2814 479.899C27.1423 479.833 27.0227 479.733 26.934 479.607C26.8454 479.482 26.7908 479.335 26.7755 479.182C26.7603 479.029 26.7849 478.875 26.8471 478.734C26.9092 478.594 27.0067 478.472 27.1301 478.38C27.2594 478.284 27.4125 478.224 27.5729 478.208C27.7334 478.192 27.8951 478.22 28.0409 478.289C28.1867 478.358 28.3111 478.465 28.4008 478.599C28.4905 478.733 28.5421 478.889 28.5501 479.05ZM36.6601 477.76C36.4825 477.77 36.312 477.833 36.1701 477.94C36.0356 478.041 35.9327 478.178 35.8731 478.336C35.8136 478.493 35.8 478.664 35.8338 478.829C35.8675 478.994 35.9474 479.146 36.0641 479.267C36.1807 479.389 36.3294 479.474 36.4928 479.515C36.6562 479.555 36.8277 479.548 36.9874 479.495C37.1471 479.442 37.2883 479.344 37.3948 479.214C37.5013 479.083 37.5687 478.925 37.5891 478.758C37.6095 478.591 37.5821 478.422 37.5101 478.27C37.4588 478.164 37.3875 478.069 37.3001 477.99C37.1256 477.831 36.8954 477.749 36.6601 477.76ZM19.2401 492.18H19.0701C18.9001 492.64 18.7401 493.11 18.5801 493.59C18.6741 493.712 18.7982 493.807 18.9402 493.867C19.0822 493.926 19.2372 493.948 19.3901 493.93C19.6127 493.896 19.8143 493.779 19.9542 493.603C20.0942 493.427 20.1622 493.204 20.1444 492.98C20.1267 492.755 20.0245 492.546 19.8586 492.394C19.6926 492.242 19.4752 492.158 19.2501 492.16L19.2401 492.18ZM28.2401 491.73C28.0343 491.739 27.8383 491.82 27.6855 491.958C27.5326 492.096 27.4323 492.283 27.4018 492.487C27.3712 492.69 27.4122 492.898 27.5178 493.075C27.6234 493.252 27.7871 493.387 27.9809 493.456C28.1747 493.526 28.3867 493.526 28.5807 493.457C28.7747 493.388 28.9387 493.254 29.0448 493.077C29.1509 492.901 29.1924 492.693 29.1624 492.489C29.1323 492.285 29.0326 492.098 28.8801 491.96C28.705 491.802 28.4753 491.72 28.2401 491.73ZM37.2401 491.28C37.0939 491.287 36.9517 491.33 36.8263 491.406C36.7008 491.481 36.5958 491.586 36.5206 491.712C36.4455 491.837 36.4024 491.979 36.3954 492.126C36.3883 492.272 36.4174 492.417 36.4801 492.55C36.5304 492.656 36.6013 492.752 36.6889 492.831C36.7764 492.91 36.8788 492.971 36.9901 493.01C37.114 493.053 37.2458 493.068 37.3762 493.054C37.5066 493.04 37.6322 492.997 37.7442 492.929C37.8562 492.861 37.9518 492.769 38.024 492.659C38.0963 492.55 38.1435 492.426 38.1623 492.296C38.181 492.166 38.1709 492.034 38.1325 491.909C38.0942 491.783 38.0286 491.668 37.9405 491.571C37.8524 491.474 37.7439 491.397 37.6228 491.347C37.5017 491.297 37.371 491.274 37.2401 491.28ZM46.2401 490.8C46.0625 490.81 45.892 490.873 45.7501 490.98C45.6156 491.081 45.5127 491.218 45.4532 491.376C45.3936 491.533 45.38 491.704 45.4138 491.869C45.4475 492.034 45.5274 492.186 45.6441 492.307C45.7607 492.429 45.9094 492.515 46.0728 492.555C46.2363 492.595 46.4077 492.588 46.5674 492.535C46.7271 492.482 46.8683 492.384 46.9748 492.254C47.0813 492.123 47.1487 491.965 47.1691 491.798C47.1895 491.631 47.1621 491.462 47.0901 491.31C47.0398 491.203 46.9688 491.108 46.8812 491.029C46.7937 490.95 46.6913 490.889 46.5801 490.85C46.471 490.811 46.3555 490.794 46.2401 490.8ZM23.3001 485.28C23.1682 485.286 23.0394 485.321 22.9229 485.384C22.8064 485.446 22.7053 485.533 22.6267 485.639C22.5482 485.745 22.4943 485.868 22.4688 485.997C22.4433 486.127 22.447 486.26 22.4796 486.388C22.5121 486.516 22.5727 486.635 22.657 486.737C22.7413 486.839 22.8471 486.92 22.9668 486.976C23.0865 487.031 23.2171 487.06 23.3491 487.059C23.4811 487.058 23.6112 487.027 23.7301 486.97C23.917 486.885 24.0682 486.738 24.1568 486.553C24.2455 486.368 24.2659 486.157 24.2144 485.959C24.163 485.76 24.043 485.586 23.8757 485.467C23.7084 485.349 23.5045 485.293 23.3001 485.31V485.28ZM32.3001 484.83C32.1242 484.839 31.955 484.9 31.8139 485.005C31.6727 485.11 31.5659 485.255 31.5071 485.421C31.4482 485.587 31.4398 485.767 31.4831 485.937C31.5264 486.108 31.6193 486.262 31.7501 486.38C31.8563 486.48 31.9857 486.551 32.1266 486.589C32.2675 486.626 32.4154 486.628 32.5572 486.594C32.6989 486.56 32.83 486.492 32.9387 486.394C33.0474 486.297 33.1303 486.175 33.1799 486.038C33.2295 485.901 33.2442 485.753 33.2229 485.609C33.2015 485.465 33.1446 485.328 33.0574 485.212C32.9702 485.095 32.8553 485.002 32.7231 484.94C32.5909 484.879 32.4456 484.851 32.3001 484.86V484.83ZM41.3501 484.38C41.128 484.377 40.912 484.452 40.7395 484.592C40.567 484.732 40.4489 484.927 40.4058 485.145C40.3627 485.363 40.3972 485.589 40.5035 485.784C40.6097 485.979 40.7809 486.131 40.9873 486.213C41.1937 486.295 41.4223 486.302 41.6333 486.233C41.8444 486.163 42.0245 486.023 42.1425 485.834C42.2605 485.646 42.3089 485.423 42.2792 485.203C42.2495 484.983 42.1437 484.78 41.9801 484.63C41.8107 484.468 41.5846 484.378 41.3501 484.38ZM19.9101 505.7C19.688 505.707 19.4767 505.797 19.3177 505.953C19.1588 506.108 19.0637 506.317 19.0512 506.539C19.0387 506.761 19.1096 506.979 19.25 507.152C19.3904 507.324 19.5902 507.437 19.8101 507.47C19.9832 507.497 20.1605 507.472 20.3201 507.4C20.5089 507.314 20.6621 507.166 20.7531 506.98C20.8442 506.794 20.8674 506.581 20.8188 506.38C20.7702 506.179 20.6529 506 20.487 505.876C20.3211 505.752 20.117 505.69 19.9101 505.7ZM28.9101 505.25C28.7926 505.254 28.6771 505.281 28.5701 505.33C28.4029 505.405 28.2631 505.53 28.1697 505.688C28.0762 505.845 28.0337 506.028 28.0479 506.21C28.0621 506.393 28.1324 506.567 28.2491 506.708C28.3658 506.85 28.5233 506.951 28.7001 507C28.8241 507.044 28.9565 507.06 29.0876 507.047C29.2187 507.034 29.3453 506.992 29.4582 506.924C29.5711 506.856 29.6675 506.764 29.7404 506.654C29.8134 506.545 29.8611 506.42 29.8801 506.29C29.8963 506.161 29.8841 506.029 29.8441 505.905C29.8041 505.781 29.7374 505.668 29.6488 505.572C29.5601 505.477 29.4515 505.402 29.3308 505.353C29.2101 505.305 29.0801 505.283 28.9501 505.29L28.9101 505.25ZM37.9101 504.8C37.7342 504.809 37.565 504.87 37.4239 504.975C37.2827 505.08 37.1759 505.225 37.1171 505.391C37.0582 505.557 37.0498 505.737 37.0931 505.907C37.1364 506.078 37.2293 506.232 37.3601 506.35C37.5113 506.475 37.6997 506.547 37.8958 506.553C38.092 506.56 38.285 506.502 38.4447 506.388C38.6044 506.274 38.7219 506.11 38.779 505.923C38.836 505.735 38.8294 505.533 38.7601 505.35C38.7097 505.243 38.6388 505.148 38.5512 505.069C38.4637 504.99 38.3613 504.929 38.2501 504.89C38.141 504.851 38.0255 504.834 37.9101 504.84V504.8ZM46.9101 504.35C46.7782 504.356 46.6494 504.392 46.5329 504.454C46.4164 504.516 46.3153 504.603 46.2367 504.709C46.1582 504.815 46.1042 504.938 46.0788 505.067C46.0533 505.197 46.057 505.33 46.0896 505.458C46.1221 505.586 46.1827 505.705 46.267 505.807C46.3513 505.909 46.4571 505.99 46.5768 506.046C46.6965 506.101 46.8271 506.13 46.9591 506.129C47.0911 506.128 47.2212 506.097 47.3401 506.04C47.5246 505.95 47.6726 505.8 47.7591 505.614C47.8456 505.428 47.8652 505.218 47.8146 505.019C47.7641 504.821 47.6464 504.645 47.4816 504.523C47.3168 504.401 47.1149 504.34 46.9101 504.35ZM24.1001 498.84C23.8943 498.849 23.6983 498.93 23.5455 499.068C23.3926 499.206 23.2923 499.393 23.2618 499.597C23.2312 499.8 23.2722 500.008 23.3778 500.185C23.4834 500.362 23.6471 500.497 23.8409 500.566C24.0347 500.636 24.2467 500.636 24.4407 500.567C24.6347 500.498 24.7987 500.364 24.9048 500.187C25.0109 500.011 25.0524 499.803 25.0224 499.599C24.9923 499.395 24.8926 499.208 24.7401 499.07C24.565 498.912 24.3353 498.83 24.1001 498.84ZM33.1001 498.39C32.8633 498.401 32.6405 498.505 32.4801 498.68C32.3415 498.832 32.26 499.027 32.2493 499.233C32.2387 499.438 32.2995 499.641 32.4216 499.807C32.5436 499.972 32.7192 500.091 32.9186 500.141C33.118 500.192 33.3288 500.172 33.5152 500.085C33.7016 499.998 33.852 499.849 33.9409 499.663C34.0297 499.478 34.0515 499.267 34.0026 499.067C33.9537 498.867 33.837 498.691 33.6724 498.567C33.5079 498.444 33.3056 498.381 33.1001 498.39ZM42.1001 497.94C41.9225 497.95 41.752 498.013 41.6101 498.12C41.4408 498.248 41.3229 498.432 41.2777 498.64C41.2325 498.847 41.2629 499.064 41.3635 499.251C41.4641 499.438 41.6283 499.583 41.8263 499.659C42.0244 499.736 42.2432 499.739 42.4435 499.669C42.6437 499.598 42.8121 499.458 42.9182 499.274C43.0243 499.09 43.0611 498.874 43.0221 498.666C42.983 498.457 42.8707 498.269 42.7053 498.136C42.5398 498.003 42.3323 497.933 42.1201 497.94H42.1001ZM51.1501 497.49C50.9734 497.497 50.8029 497.557 50.6602 497.661C50.5176 497.766 50.4093 497.91 50.3493 498.077C50.2892 498.243 50.28 498.423 50.3229 498.595C50.3658 498.766 50.4588 498.921 50.5901 499.04C50.677 499.119 50.779 499.18 50.8901 499.22C51.0278 499.269 51.1756 499.284 51.3204 499.263C51.4652 499.241 51.6026 499.185 51.7202 499.098C51.8379 499.011 51.9323 498.896 51.9951 498.764C52.0579 498.632 52.087 498.486 52.0801 498.34C52.0756 498.222 52.0476 498.107 51.9978 498C51.948 497.894 51.8774 497.798 51.7901 497.72C51.6156 497.561 51.3854 497.479 51.1501 497.49ZM11.7501 519.71C11.6201 520.38 11.5101 520.96 11.4301 521.43H11.5301C11.7429 521.428 11.9478 521.349 12.1069 521.208C12.266 521.066 12.3685 520.872 12.3953 520.661C12.4222 520.45 12.3716 520.236 12.253 520.059C12.1343 519.883 11.9556 519.755 11.7501 519.7V519.71ZM20.4801 519.26C20.3042 519.269 20.135 519.33 19.9939 519.435C19.8527 519.54 19.7459 519.685 19.6871 519.851C19.6282 520.017 19.6198 520.197 19.6631 520.367C19.7064 520.538 19.7993 520.692 19.9301 520.81C20.0813 520.935 20.2697 521.006 20.4658 521.013C20.662 521.02 20.855 520.962 21.0147 520.848C21.1744 520.734 21.2919 520.57 21.349 520.383C21.406 520.195 21.3994 519.993 21.3301 519.81C21.2795 519.703 21.2081 519.608 21.1201 519.53C20.9456 519.371 20.7154 519.289 20.4801 519.3V519.26ZM29.5301 518.81C29.3539 518.818 29.1841 518.878 29.0423 518.983C28.9005 519.088 28.7931 519.233 28.7336 519.399C28.6741 519.565 28.6653 519.745 28.7082 519.916C28.7512 520.087 28.844 520.241 28.9749 520.359C29.1057 520.477 29.2688 520.554 29.4433 520.58C29.6178 520.605 29.7959 520.578 29.955 520.502C30.1142 520.426 30.2471 520.304 30.337 520.153C30.427 520.001 30.4698 519.826 30.4601 519.65C30.4595 519.53 30.4344 519.411 30.3863 519.301C30.3381 519.191 30.2679 519.092 30.1801 519.01C30.0936 518.928 29.9914 518.864 29.8797 518.823C29.7679 518.782 29.649 518.764 29.5301 518.77V518.81ZM38.6101 518.33C38.4339 518.338 38.2641 518.398 38.1223 518.503C37.9805 518.608 37.8731 518.753 37.8136 518.919C37.7541 519.085 37.7453 519.265 37.7882 519.436C37.8312 519.607 37.924 519.761 38.0549 519.879C38.1857 519.997 38.3488 520.074 38.5233 520.1C38.6978 520.125 38.8759 520.098 39.035 520.022C39.1942 519.946 39.3271 519.824 39.417 519.673C39.507 519.521 39.5498 519.346 39.5401 519.17C39.5349 519.053 39.5067 518.939 39.4571 518.833C39.4074 518.728 39.3373 518.633 39.2507 518.555C39.1642 518.477 39.063 518.417 38.953 518.378C38.843 518.339 38.7265 518.323 38.6101 518.33ZM56.0001 518.18C55.9927 518.246 55.9927 518.313 56.0001 518.38C56.0116 518.604 56.1082 518.815 56.2701 518.97L56.0001 518.18ZM15.8101 512.81C15.588 512.817 15.3767 512.907 15.2177 513.063C15.0588 513.218 14.9637 513.427 14.9512 513.649C14.9387 513.871 15.0096 514.089 15.15 514.262C15.2904 514.434 15.4902 514.547 15.7101 514.58C15.9005 514.609 16.0952 514.575 16.265 514.484C16.4348 514.393 16.5705 514.25 16.6516 514.075C16.7328 513.9 16.7551 513.704 16.7151 513.515C16.6752 513.327 16.5751 513.157 16.4301 513.03C16.3401 512.951 16.2355 512.891 16.1222 512.853C16.0089 512.816 15.8892 512.801 15.7701 512.81H15.8101ZM24.8101 512.36C24.5949 512.359 24.3868 512.436 24.2242 512.577C24.0615 512.718 23.9555 512.913 23.9255 513.126C23.8956 513.339 23.9439 513.556 24.0614 513.736C24.179 513.916 24.3578 514.048 24.5649 514.106C24.7719 514.165 24.9931 514.146 25.1876 514.054C25.3821 513.962 25.5366 513.803 25.6227 513.606C25.7087 513.408 25.7204 513.187 25.6555 512.982C25.5907 512.776 25.4538 512.602 25.2701 512.49C25.1304 512.409 24.9714 512.367 24.8101 512.37V512.36ZM33.8101 511.91C33.6065 511.923 33.4138 512.007 33.265 512.146C33.1163 512.286 33.0207 512.473 32.9946 512.675C32.9685 512.878 33.0135 513.083 33.1219 513.256C33.2304 513.428 33.3955 513.558 33.5891 513.623C33.7826 513.687 33.9926 513.683 34.183 513.609C34.3735 513.536 34.5326 513.399 34.6331 513.222C34.7336 513.044 34.7694 512.837 34.7341 512.636C34.6989 512.435 34.595 512.253 34.4401 512.12C34.3502 512.039 34.2446 511.978 34.1301 511.94C34.0113 511.915 33.8888 511.915 33.7701 511.94L33.8101 511.91ZM42.8101 511.46C42.6165 511.469 42.4311 511.541 42.2814 511.664C42.1318 511.787 42.0259 511.955 41.9795 512.143C41.9331 512.331 41.9487 512.529 42.0239 512.708C42.0991 512.887 42.23 513.036 42.397 513.134C42.564 513.233 42.7583 513.274 42.951 513.253C43.1436 513.232 43.3243 513.15 43.4662 513.018C43.6081 512.886 43.7037 512.712 43.7386 512.521C43.7735 512.33 43.746 512.133 43.6601 511.96C43.5804 511.798 43.4539 511.664 43.297 511.574C43.1401 511.485 42.96 511.445 42.7801 511.46H42.8101ZM51.8101 511.01C51.6342 511.019 51.465 511.08 51.3239 511.185C51.1827 511.29 51.0759 511.435 51.0171 511.601C50.9582 511.767 50.9498 511.947 50.9931 512.117C51.0364 512.288 51.1293 512.442 51.2601 512.56C51.348 512.637 51.4504 512.697 51.5614 512.735C51.6723 512.772 51.7896 512.788 51.9066 512.781C52.0236 512.773 52.138 512.743 52.2433 512.691C52.3485 512.64 52.4426 512.568 52.5201 512.48C52.5975 512.392 52.6569 512.289 52.6948 512.178C52.7327 512.068 52.7484 511.95 52.741 511.833C52.7336 511.716 52.7032 511.602 52.6515 511.497C52.5999 511.391 52.528 511.297 52.4401 511.22C52.3489 511.14 52.2426 511.079 52.1275 511.041C52.0124 511.004 51.8908 510.989 51.7701 511L51.8101 511.01Z" fill="white"/>
<path d="M38.17 478.74C39.28 480.67 40.36 482.61 41.39 484.58C42.42 486.55 43.39 488.58 44.28 490.58C44.7302 491.603 45.1209 492.652 45.45 493.72C45.7303 494.811 45.8714 495.934 45.87 497.06C45.8948 499.306 45.5294 501.539 44.79 503.66V503.56C45.23 505.45 45.65 507.34 46.07 509.23C46.49 511.12 46.85 513.01 47.3 514.91C46.82 513.04 46.3 511.17 45.86 509.28C45.42 507.39 44.92 505.53 44.47 503.64V503.54C45.1692 501.453 45.5074 499.261 45.47 497.06C45.4936 495.96 45.376 494.861 45.12 493.79C44.8089 492.732 44.4349 491.694 44 490.68C43.14 488.68 42.19 486.68 41.21 484.68C40.23 482.68 39.23 480.7 38.17 478.74Z" fill="#263238"/>
<path d="M41.69 487.49C41.7214 487.563 41.7375 487.641 41.7375 487.72C41.7375 487.799 41.7214 487.877 41.69 487.95C41.652 488.019 41.6005 488.079 41.5387 488.127C41.4768 488.175 41.4058 488.21 41.33 488.23C41.2541 488.245 41.1759 488.245 41.1 488.23C41.0221 488.218 40.9474 488.191 40.88 488.15C40.8131 488.109 40.7552 488.054 40.71 487.99C40.6651 487.924 40.6345 487.849 40.62 487.77C40.5844 487.656 40.5845 487.533 40.6202 487.419C40.656 487.305 40.7256 487.204 40.82 487.13C40.8711 487.076 40.9322 487.031 41 487C41.114 486.974 41.2333 486.983 41.3421 487.026C41.451 487.068 41.5444 487.143 41.61 487.24C41.6536 487.303 41.6842 487.375 41.7 487.45L41.69 487.49Z" fill="#263238"/>
<path d="M43.87 493.22C43.9081 493.333 43.9103 493.456 43.8763 493.57C43.8423 493.685 43.7737 493.786 43.68 493.86C43.6182 493.911 43.5467 493.948 43.47 493.97C43.392 493.989 43.3108 493.992 43.2316 493.978C43.1524 493.965 43.0769 493.935 43.01 493.89C42.9419 493.846 42.8839 493.788 42.84 493.72C42.7951 493.654 42.7645 493.579 42.75 493.5C42.7344 493.424 42.7344 493.346 42.75 493.27C42.761 493.195 42.787 493.122 42.8265 493.057C42.866 492.991 42.9182 492.935 42.98 492.89C43.0393 492.844 43.1073 492.81 43.18 492.79C43.3285 492.754 43.4853 492.777 43.6164 492.856C43.7475 492.935 43.8422 493.062 43.88 493.21L43.87 493.22Z" fill="#263238"/>
<path d="M44.37 499.11C44.4037 499.258 44.3789 499.414 44.3006 499.544C44.2224 499.675 44.0968 499.77 43.95 499.81C43.8015 499.846 43.6447 499.822 43.5136 499.744C43.3825 499.665 43.2878 499.538 43.25 499.39C43.2193 499.279 43.2229 499.161 43.2604 499.052C43.2979 498.943 43.3675 498.848 43.46 498.78C43.5193 498.733 43.5873 498.699 43.66 498.68C43.8085 498.643 43.9653 498.667 44.0964 498.746C44.2275 498.824 44.3222 498.952 44.36 499.1L44.37 499.11Z" fill="#263238"/>
<path d="M43.61 505.09C43.63 505.163 43.635 505.24 43.6247 505.316C43.6144 505.391 43.589 505.464 43.55 505.53C43.5122 505.596 43.4611 505.654 43.4 505.7C43.3162 505.763 43.2166 505.803 43.1119 505.814C43.0072 505.826 42.9014 505.808 42.8058 505.764C42.7102 505.72 42.6284 505.651 42.5693 505.564C42.5101 505.476 42.4758 505.375 42.47 505.27C42.4663 505.185 42.4813 505.1 42.514 505.021C42.5467 504.943 42.5963 504.872 42.6593 504.815C42.7223 504.758 42.7972 504.715 42.8785 504.69C42.9599 504.665 43.0457 504.658 43.13 504.67C43.2436 504.686 43.3498 504.735 43.4353 504.812C43.5207 504.888 43.5815 504.989 43.61 505.1V505.09Z" fill="#263238"/>
<path d="M45.08 510.86C45.0967 510.939 45.0967 511.021 45.08 511.1C45.0729 511.18 45.0491 511.259 45.0099 511.33C44.9719 511.401 44.9194 511.464 44.8556 511.514C44.7919 511.564 44.7184 511.6 44.6399 511.62C44.5608 511.636 44.4791 511.636 44.4 511.62C44.3211 511.606 44.2461 511.575 44.18 511.53C44.1122 511.485 44.0543 511.427 44.0099 511.36C43.9511 511.293 43.9082 511.215 43.8845 511.129C43.8609 511.044 43.8571 510.954 43.8736 510.867C43.89 510.78 43.9262 510.698 43.9793 510.627C44.0324 510.556 44.1011 510.498 44.18 510.458C44.259 510.418 44.3461 510.396 44.4347 510.395C44.5233 510.393 44.6111 510.412 44.6912 510.45C44.7713 510.488 44.8417 510.544 44.897 510.613C44.9522 510.682 44.9909 510.763 45.0099 510.85L45.08 510.86Z" fill="#263238"/>
<path d="M32 481.9C29.44 485.26 2.53003 503.95 1.28003 504.9C-2.15997 507.47 -17.3 508.1 -14.62 498.38C-11.94 488.66 15 478.76 26.55 475.54C34.85 473.27 36.73 475.65 32 481.9Z" fill="#FFC727"/>
<path d="M19.5 479.5C19.5088 479.706 19.4461 479.908 19.3226 480.072C19.1991 480.237 19.0224 480.354 18.8225 480.403C18.6227 480.451 18.412 480.43 18.2264 480.341C18.0409 480.252 17.8918 480.102 17.8046 479.915C17.7175 479.729 17.6976 479.518 17.7483 479.319C17.7991 479.119 17.9173 478.944 18.083 478.821C18.2486 478.699 18.4515 478.639 18.6569 478.649C18.8624 478.66 19.0579 478.741 19.21 478.88C19.2982 478.958 19.3697 479.053 19.42 479.16C19.4691 479.267 19.4963 479.382 19.5 479.5ZM27.61 478.21C27.4325 478.22 27.262 478.283 27.12 478.39C26.9856 478.491 26.8826 478.629 26.8231 478.786C26.7636 478.943 26.7499 479.115 26.7837 479.279C26.8175 479.444 26.8974 479.596 27.014 479.718C27.1307 479.839 27.2793 479.925 27.4428 479.965C27.6062 480.005 27.7777 479.998 27.9374 479.945C28.097 479.892 28.2383 479.794 28.3448 479.664C28.4513 479.534 28.5186 479.376 28.539 479.209C28.5594 479.042 28.532 478.872 28.46 478.72C28.4088 478.614 28.3375 478.519 28.25 478.44C28.0755 478.282 27.8454 478.199 27.61 478.21ZM-7.86 493.52C-8.03659 493.527 -8.20717 493.586 -8.35 493.69C-8.49299 493.796 -8.60097 493.942 -8.66 494.11C-8.71177 494.279 -8.71177 494.461 -8.66 494.63C-8.61545 494.8 -8.5215 494.953 -8.39 495.07C-8.25867 495.188 -8.09505 495.265 -7.92 495.29C-7.74583 495.315 -7.56818 495.287 -7.41 495.21C-7.25117 495.134 -7.1188 495.012 -7.03 494.86C-6.94168 494.709 -6.89994 494.535 -6.91 494.36C-6.91467 494.235 -6.94532 494.112 -7 494C-7.05373 493.893 -7.12856 493.798 -7.22 493.72C-7.31006 493.64 -7.41553 493.578 -7.53 493.54C-7.64881 493.516 -7.7712 493.516 -7.89 493.54L-7.86 493.52ZM1.14 493.07C0.916549 493.073 0.702455 493.16 0.540253 493.314C0.378051 493.468 0.279613 493.677 0.264498 493.9C0.249382 494.123 0.318694 494.343 0.458664 494.517C0.598634 494.692 0.799016 494.807 1.02 494.84C1.14257 494.858 1.2675 494.85 1.3868 494.816C1.5061 494.783 1.61714 494.725 1.71282 494.647C1.8085 494.568 1.88671 494.47 1.94244 494.36C1.99818 494.249 2.03022 494.128 2.03651 494.004C2.0428 493.881 2.0232 493.757 1.97897 493.641C1.93474 493.526 1.86685 493.42 1.77964 493.333C1.69244 493.245 1.58783 493.176 1.47252 493.131C1.35721 493.085 1.23374 493.065 1.11 493.07H1.14ZM10.19 492.62C10.0131 492.628 9.84246 492.688 9.69995 492.793C9.55744 492.898 9.44952 493.043 9.39 493.21C9.34702 493.334 9.33181 493.465 9.34543 493.595C9.35905 493.725 9.40117 493.851 9.4688 493.963C9.53643 494.075 9.6279 494.17 9.7367 494.243C9.84551 494.315 9.96898 494.363 10.0983 494.383C10.2277 494.402 10.3597 494.393 10.485 494.355C10.6104 494.318 10.7259 494.253 10.8235 494.166C10.921 494.079 10.9981 493.972 11.0494 493.851C11.1007 493.731 11.1248 493.601 11.12 493.47C11.1088 493.351 11.0739 493.235 11.0173 493.129C10.9607 493.023 10.8836 492.93 10.7904 492.855C10.6973 492.779 10.59 492.723 10.4748 492.69C10.3597 492.656 10.2391 492.646 10.12 492.66L10.19 492.62ZM18.6 492.5L18.97 492.24C18.8102 492.283 18.6673 492.374 18.56 492.5H18.6ZM-2.8 487.34L-4.28 488.19C-4.1502 488.303 -3.99042 488.376 -3.82 488.4C-3.64911 488.422 -3.47541 488.395 -3.32 488.32C-3.16289 488.246 -3.0308 488.128 -2.94 487.98C-2.85008 487.833 -2.80492 487.662 -2.81 487.49C-2.80235 487.437 -2.80235 487.383 -2.81 487.33L-2.8 487.34ZM5.35 486.2C5.23253 486.204 5.11702 486.231 5.01 486.28C4.90368 486.331 4.80851 486.402 4.73 486.49C4.65052 486.577 4.58931 486.679 4.55 486.79C4.4816 486.961 4.46796 487.149 4.51094 487.328C4.55393 487.507 4.65143 487.669 4.79 487.79C4.87741 487.869 4.9793 487.93 5.09 487.97C5.19901 488.009 5.31449 488.026 5.43 488.02C5.54737 488.015 5.66258 487.987 5.76899 487.937C5.8754 487.887 5.97091 487.817 6.05 487.73C6.20836 487.556 6.29107 487.325 6.28 487.09C6.27433 486.969 6.24389 486.851 6.19055 486.743C6.13722 486.634 6.06214 486.538 5.97 486.46C5.877 486.378 5.76801 486.317 5.65 486.28C5.53119 486.256 5.4088 486.256 5.29 486.28L5.35 486.2ZM14.35 485.75C14.1458 485.761 13.9519 485.843 13.8016 485.982C13.6512 486.12 13.5538 486.307 13.5261 486.509C13.4983 486.712 13.542 486.918 13.6496 487.092C13.7572 487.266 13.922 487.397 14.1156 487.462C14.3093 487.528 14.5198 487.524 14.7109 487.451C14.902 487.378 15.0618 487.241 15.1629 487.064C15.264 486.886 15.3 486.679 15.2648 486.477C15.2296 486.276 15.1254 486.093 14.97 485.96C14.8792 485.883 14.7738 485.825 14.66 485.79C14.5413 485.765 14.4187 485.765 14.3 485.79L14.35 485.75ZM23.35 485.3C23.1742 485.309 23.005 485.37 22.8638 485.475C22.7227 485.58 22.6159 485.725 22.557 485.891C22.4981 486.057 22.4898 486.237 22.533 486.407C22.5763 486.578 22.6692 486.732 22.8 486.85C22.953 486.995 23.1525 487.081 23.363 487.093C23.5735 487.104 23.7813 487.041 23.9493 486.913C24.1174 486.786 24.2348 486.603 24.2808 486.398C24.3267 486.192 24.298 485.977 24.2 485.79C24.1469 485.679 24.0721 485.581 23.98 485.5C23.8872 485.42 23.7789 485.36 23.6619 485.324C23.5449 485.288 23.4217 485.276 23.3 485.29L23.35 485.3ZM-12.21 500.61C-12.3877 500.62 -12.5583 500.682 -12.7 500.79C-12.843 500.896 -12.951 501.042 -13.01 501.21C-13.0618 501.379 -13.0618 501.561 -13.01 501.73C-12.9655 501.9 -12.8715 502.053 -12.74 502.17C-12.6087 502.288 -12.445 502.365 -12.27 502.39C-12.0958 502.414 -11.9185 502.386 -11.76 502.31C-11.6015 502.233 -11.4693 502.112 -11.38 501.96C-11.2917 501.809 -11.2499 501.635 -11.26 501.46C-11.2671 501.342 -11.2977 501.226 -11.35 501.12C-11.4008 501.014 -11.4722 500.918 -11.56 500.84C-11.6473 500.761 -11.7492 500.7 -11.86 500.66C-11.9723 500.638 -12.0877 500.638 -12.2 500.66L-12.21 500.61ZM-3.21 500.19C-3.38778 500.199 -3.55864 500.262 -3.7 500.37C-3.84299 500.476 -3.95097 500.622 -4.01 500.79C-4.06177 500.959 -4.06177 501.141 -4.01 501.31C-3.96545 501.48 -3.8715 501.633 -3.74 501.75C-3.60867 501.868 -3.44505 501.945 -3.27 501.97C-3.09584 501.994 -2.91854 501.966 -2.76 501.89C-2.60152 501.813 -2.46928 501.692 -2.38 501.54C-2.29168 501.389 -2.24994 501.215 -2.26 501.04C-2.27642 500.805 -2.38411 500.586 -2.56 500.43C-2.73505 500.273 -2.9648 500.19 -3.2 500.2L-3.21 500.19ZM5.79 499.74C5.55477 499.755 5.335 499.863 5.17793 500.038C5.02085 500.214 4.93901 500.444 4.95 500.68C4.95995 500.901 5.05299 501.111 5.21055 501.266C5.36811 501.422 5.5786 501.513 5.8 501.52H6L6.87 500.91C6.89334 500.805 6.89334 500.695 6.87 500.59C6.86507 500.356 6.76806 500.133 6.6 499.97C6.43119 499.807 6.20475 499.717 5.97 499.72L5.79 499.74Z" fill="white"/>
<path d="M32.0001 475.5C32.2401 476.24 36.2101 480.57 39.5201 480.08C40.5901 479.91 39.9601 473.99 39.9601 473.99L40.0101 473.54L40.7501 467.27L33.0701 463.38L31.9701 462.88C31.9701 462.88 31.8801 464.61 31.7901 466.76V467.42C31.7901 467.74 31.7901 468.07 31.7901 468.42C31.7901 468.77 31.7901 468.91 31.7901 469.16V469.94C31.7337 471.796 31.8039 473.653 32.0001 475.5Z" fill="#D3766A"/>
<path d="M31.79 466.77C32.5863 468.426 33.7329 469.889 35.1505 471.058C36.5681 472.227 38.2228 473.074 40 473.54L40.74 467.27L33.06 463.38L31.96 462.88C31.96 462.88 31.88 464.61 31.79 466.77Z" fill="#263238"/>
<path d="M48.86 457.89C49.75 468.89 43.24 470.72 40.86 470.89C38.7 471.06 31.31 471.37 29.29 460.47C27.27 449.57 32.08 445.68 37 445C41.92 444.32 48 446.84 48.86 457.89Z" fill="#D3766A"/>
<path d="M47.59 457.09C47.3501 457.211 47.103 457.318 46.85 457.41C46.6298 457.549 46.3698 457.612 46.11 457.59C46.0247 457.567 45.9495 457.516 45.8969 457.445C45.8442 457.375 45.8171 457.288 45.82 457.2C45.8537 457.029 45.9314 456.87 46.0454 456.738C46.1594 456.607 46.3058 456.507 46.47 456.45C46.7781 456.292 47.1317 456.246 47.47 456.32C47.5464 456.345 47.6138 456.392 47.6642 456.455C47.7146 456.518 47.7459 456.594 47.7543 456.674C47.7628 456.754 47.748 456.835 47.7118 456.907C47.6755 456.979 47.6194 457.039 47.55 457.08L47.59 457.09Z" fill="#263238"/>
<path d="M39.9199 456C40.1679 455.987 40.415 455.961 40.6599 455.92C40.9245 455.922 41.1833 455.842 41.3999 455.69C41.4512 455.619 41.4788 455.533 41.4788 455.445C41.4788 455.357 41.4512 455.271 41.3999 455.2C41.2848 455.066 41.1363 454.965 40.9694 454.907C40.8026 454.849 40.6233 454.836 40.4499 454.87C40.0757 454.879 39.7187 455.029 39.4499 455.29C39.387 455.353 39.3459 455.435 39.3324 455.523C39.319 455.611 39.334 455.701 39.3752 455.78C39.4164 455.859 39.4817 455.923 39.5617 455.963C39.6416 456.002 39.7321 456.015 39.8199 456H39.9199Z" fill="#263238"/>
<path d="M41.49 458.77C41.49 458.77 41.43 458.77 41.43 458.84C41.43 459.58 41.43 460.48 40.71 460.75C41.56 460.64 41.66 459.48 41.49 458.77Z" fill="#263238"/>
<path d="M40.79 458C39.56 457.94 39.53 460.4 40.67 460.45C41.81 460.5 41.81 458 40.79 458Z" fill="#263238"/>
<path d="M40.33 458.11C40.12 458.24 39.9 458.49 39.64 458.51C39.38 458.53 39.12 458.28 38.89 458.03C38.89 458.5 39.06 459.03 39.55 459.03C40.04 459.03 40.35 458.69 40.47 458.21C40.47 458.21 40.4 458.06 40.33 458.11Z" fill="#263238"/>
<path d="M44.5999 461.88C44.5999 461.88 44.7499 463.02 44.7599 463.55C44.2551 463.672 43.7268 463.655 43.2305 463.502C42.7343 463.349 42.2885 463.065 41.9399 462.68C41.9399 462.63 41.9399 462.57 42.0199 462.6C42.7064 463.073 43.5271 463.311 44.3599 463.28C44.3599 463.13 44.0299 461.33 44.1099 461.28C44.5274 461.318 44.9378 461.412 45.3299 461.56C45.0799 459.17 44.4399 456.84 44.2199 454.46C44.9915 456.932 45.5141 459.474 45.7799 462.05C45.9199 462.38 44.8199 462 44.5999 461.88Z" fill="#263238"/>
<path d="M44 463.51C43.6998 463.881 43.3112 464.17 42.87 464.35C42.629 464.425 42.371 464.425 42.13 464.35C41.58 464.19 41.57 463.69 41.68 463.26C41.7435 463.035 41.8306 462.817 41.94 462.61C42.5145 463.12 43.2356 463.435 44 463.51Z" fill="#263238"/>
<path d="M42.89 464.35C42.649 464.424 42.391 464.424 42.15 464.35C41.6 464.19 41.59 463.69 41.7 463.26C41.9928 463.279 42.2702 463.398 42.4865 463.596C42.7029 463.794 42.8452 464.06 42.89 464.35Z" fill="#FF9ABB"/>
<path d="M48.2 458.31C48.0108 458.26 47.8156 458.236 47.62 458.24C47.4189 458.246 47.22 458.283 47.03 458.35C46.8318 458.417 46.6485 458.523 46.49 458.66C46.3267 458.805 46.2 458.986 46.12 459.19L45.98 459.56L46.37 459.47C46.6422 459.406 46.9205 459.373 47.2 459.37C47.4904 459.36 47.7787 459.422 48.04 459.55C47.8432 459.288 47.553 459.112 47.23 459.06C46.9006 458.987 46.5593 458.987 46.23 459.06L46.47 459.33C46.6036 459.038 46.833 458.802 47.12 458.66C47.4373 458.499 47.7732 458.378 48.12 458.3L48.2 458.31Z" fill="#263238"/>
<path d="M47.27 460C46.9653 459.964 46.6664 459.89 46.38 459.78C46.32 459.78 46.06 459.6 46.07 459.55C46.0828 459.4 46.1164 459.252 46.17 459.11C46.0742 459.241 46.0092 459.391 45.98 459.55C46.0095 459.631 46.0561 459.703 46.1165 459.764C46.1769 459.824 46.2498 459.871 46.33 459.9C46.6297 460.013 46.9532 460.048 47.27 460Z" fill="#263238"/>
<path d="M29.6 461C30.82 460.87 33.86 457.35 33.68 451.42C33.68 451.42 33.47 456.75 33.1 457.55C32.73 458.35 34.8 455.55 34.73 450.79C36.2776 451.795 37.9614 452.573 39.73 453.1C42.01 453.63 43.39 453.54 43.55 453.37C43.71 453.2 40.34 452.3 39.4 451.31C39.4 451.31 45.53 453.82 48.33 453.9C48.65 453.9 48.72 447.32 44.33 444.73C39.94 442.14 33.33 445.46 31.56 447.31C31.56 447.31 29.43 447.71 27.26 450.98C25.09 454.25 28.28 461.16 29.6 461Z" fill="#263238"/>
<path d="M31.1 461.2C31.1 461.2 28.71 457.72 27.1 458.58C25.49 459.44 27.31 464.46 29.1 465.16C29.3304 465.265 29.5796 465.322 29.8327 465.329C30.0858 465.335 30.3376 465.29 30.573 465.197C30.8083 465.103 31.0224 464.963 31.2023 464.785C31.3822 464.607 31.5243 464.394 31.62 464.16L31.1 461.2Z" fill="#D3766A"/>
<path d="M27.6801 460V460.05C28.2729 460.352 28.7957 460.775 29.2143 461.291C29.633 461.808 29.9382 462.407 30.1101 463.05C30.0391 462.918 29.9393 462.804 29.8181 462.715C29.697 462.627 29.5575 462.567 29.4101 462.54C29.2633 462.51 29.1115 462.513 28.9661 462.549C28.8207 462.586 28.6854 462.654 28.5701 462.75V462.82C28.7978 462.745 29.0437 462.744 29.272 462.818C29.5004 462.891 29.6993 463.036 29.8401 463.23C30.0754 463.541 30.2765 463.876 30.4401 464.23C30.5001 464.35 30.7101 464.29 30.6601 464.15C30.7201 462.49 29.4501 460.18 27.6801 460Z" fill="#263238"/>
<path d="M40 474L38.69 479.25L31.69 473.83L30.23 476.07C30.23 476.07 37.68 485.23 37.67 484.78L39.11 480.21L42.48 482.78L41.19 475.37L40 474Z" fill="#FFC727"/>
<path d="M42 479.09C41.75 477.87 41.52 476.63 41.22 475.39C41.22 475.39 41.14 475.34 41.14 475.39C41.06 476.62 42.05 481.32 42.2 482.39C42.06 482.28 39.1 480.15 39.08 480.19C38.5079 481.615 38.027 483.075 37.64 484.56C36.46 483.09 31.54 477.42 30.2 476.08C30.2 476.08 30.1 476.08 30.13 476.13C31.21 477.69 37.6 485.21 37.64 485.13C38.2211 483.55 38.7218 481.941 39.14 480.31C40.2569 481.299 41.4397 482.211 42.68 483.04C42.522 481.696 42.295 480.361 42 479.04V479.09Z" fill="#263238"/>
<path d="M89 511.17C86.85 510.31 86.53 495.11 88.37 493.62C89.0349 493.198 89.7506 492.862 90.5 492.62C92.9211 490.395 95.0032 487.828 96.68 485C98.57 481.56 100.98 476.24 102.87 477.18C105.62 478.55 103.39 485.65 101.87 489.64C103.686 489.266 105.557 489.249 107.38 489.59C111.33 490.87 107.86 509.22 103.88 510.72C100.11 512.09 91.19 512 89 511.17Z" fill="#D3766A"/>
<path d="M96.84 457.34L35.41 493.57L35.79 494.21L97.22 458L96.84 457.34Z" fill="#263238"/>
<path d="M35.36 497.08V496.91L36.13 493.98L30.58 497.25L29.75 500.37L35.36 497.08Z" fill="#263238"/>
<path d="M27.15 495.9L30.25 496.62L35.79 493.34C34.7462 493.221 33.7194 492.983 32.73 492.63L27.15 495.9Z" fill="#263238"/>
<path d="M96.67 460.73L96.32 458.07L94.15 456.47L100.46 455.62L96.67 460.73Z" fill="#263238"/>
<path d="M51.8 418L47.86 437L43.86 456L35.86 494L35.74 493.78L73.23 505.78L91.97 511.78L110.7 517.85L91.9 511.87L73.14 505.92L35.62 494H35.46V493.83L43.59 455.9L47.66 436.9L51.8 418Z" fill="#263238"/>
<path d="M107.72 517.48C106 515 106.88 512 106 508.4C105.09 504.6 101.51 482.4 97.24 469.49C95.55 464.38 91.12 462.58 90.41 461.36C89.8 460.36 89.97 455.44 87.19 452.36C78.32 442.75 60.26 428.48 57.19 425.68C54.42 423.15 51.43 422.57 50.09 419.83C47.9 415.39 51.9 412.46 55.09 417.83C58.28 423.2 86.72 445.55 89.77 450.73C91.5567 453.596 92.5346 456.893 92.6 460.27C92.6 460.27 95.75 460.86 98.81 466.04C101.87 471.22 108.81 508.81 111.93 514.18C115.05 519.55 110.55 521.55 107.72 517.48Z" fill="#FFC727"/>
<path opacity="0.3" d="M107.72 517.48C106 515 106.88 512 106 508.4C105.09 504.6 101.51 482.4 97.24 469.49C95.55 464.38 91.12 462.58 90.41 461.36C89.8 460.36 89.97 455.44 87.19 452.36C78.32 442.75 60.26 428.48 57.19 425.68C54.42 423.15 51.43 422.57 50.09 419.83C47.9 415.39 51.9 412.46 55.09 417.83C58.28 423.2 86.72 445.55 89.77 450.73C91.5567 453.596 92.5346 456.893 92.6 460.27C92.6 460.27 95.75 460.86 98.81 466.04C101.87 471.22 108.81 508.81 111.93 514.18C115.05 519.55 110.55 521.55 107.72 517.48Z" fill="black"/>
<path d="M100.92 488.78C99.59 490.48 102.35 491.07 102.35 491.07C102.35 491.07 98.17 491.17 97.47 493.45C96.77 495.73 100.16 496.25 100.41 496.3C100.19 496.3 96.34 496.5 95.88 498.86C95.42 501.22 98.88 501.35 99.1 501.34C98.89 501.42 96.18 502.42 96.23 504.34C96.33 507.56 103.35 505.19 105.64 506.47C105.64 506.47 103.95 510.59 103.93 510.72C103.91 510.85 110.66 508.61 112.18 505.44C112.414 504.981 112.482 504.456 112.373 503.953C112.263 503.45 111.983 503 111.58 502.68C111.58 502.68 113.8 502.24 114.24 500.39C114.46 499.39 113.13 498.25 113.13 498.25C113.633 498.123 114.092 497.86 114.455 497.49C114.819 497.119 115.073 496.656 115.19 496.15C115.208 495.689 115.108 495.232 114.9 494.821C114.691 494.409 114.382 494.058 114 493.8C114 493.8 115.53 492.6 115.31 491.16C114.92 488.21 103.77 485.13 100.92 488.78Z" fill="#D3766A"/>
<path d="M113.2 498.15C113.2 498.15 113.27 498.1 113.2 498.07C109.265 495.906 104.686 495.221 100.29 496.14C100.14 496.14 100.04 496.37 100.22 496.33C103.25 495.86 109.69 496.86 113.2 498.15Z" fill="#263238"/>
<path d="M98.82 501.51C103.048 500.792 107.388 501.136 111.45 502.51C111.5 502.51 111.52 502.44 111.45 502.42C109.347 501.324 107.037 500.68 104.67 500.53C102.653 500.291 100.609 500.584 98.74 501.38C98.71 501.42 98.72 501.53 98.82 501.51Z" fill="#263238"/>
<path d="M102.3 491C102.14 491 102.3 491.22 102.19 491.25C101.55 491.35 97.71 492.25 97.62 493.68C97.55 494.8 99.01 495.68 99.7 495.79L101.45 496.08L99.71 496.41C98.9334 496.54 98.1834 496.797 97.49 497.17C97.1617 497.329 96.8708 497.555 96.6364 497.834C96.4019 498.113 96.2294 498.439 96.13 498.79C96.0403 499.119 96.067 499.469 96.2055 499.78C96.3439 500.092 96.5857 500.346 96.89 500.5C97.5818 500.841 98.3502 500.996 99.12 500.95H101.22L99.22 501.66C98.6765 501.847 98.159 502.102 97.68 502.42C97.2156 502.715 96.8472 503.139 96.62 503.64C96.538 503.871 96.5207 504.119 96.5701 504.359C96.6195 504.599 96.7336 504.821 96.9 505C97.3274 505.35 97.843 505.575 98.39 505.65C99.5891 505.818 100.799 505.891 102.01 505.87C102.624 505.85 103.239 505.87 103.85 505.93C104.472 505.931 105.086 506.067 105.65 506.33C105.07 506.138 104.459 506.06 103.85 506.1C103.23 506.1 102.63 506.1 102.01 506.18C100.776 506.294 99.534 506.294 98.3 506.18C97.63 506.123 96.9909 505.873 96.46 505.46C96.2012 505.205 96.0219 504.88 95.9438 504.525C95.8657 504.17 95.8922 503.8 96.02 503.46C96.2785 502.828 96.721 502.288 97.29 501.91C97.8165 501.531 98.3917 501.225 99 501L99.14 501.67C98.2435 501.733 97.3464 501.557 96.54 501.16C96.0922 500.931 95.7386 500.552 95.54 500.09C95.3663 499.633 95.335 499.135 95.45 498.66C95.5753 498.216 95.7935 497.804 96.09 497.45C96.3865 497.097 96.7546 496.811 97.17 496.61C97.9325 496.202 98.7568 495.921 99.61 495.78V496.4C98.73 496.22 96.99 495.4 96.87 493.67C97.07 491.37 101.52 491 102.3 491Z" fill="#263238"/>
<path d="M102.35 491.06C101.938 490.876 101.557 490.629 101.22 490.33C101.076 490.211 100.967 490.055 100.907 489.878C100.847 489.701 100.838 489.511 100.88 489.33C101.002 488.955 101.231 488.624 101.54 488.38C101.86 488.09 102.22 487.8 102.6 487.52C102.125 487.58 101.669 487.741 101.26 487.99C101.02 488.113 100.808 488.284 100.636 488.492C100.464 488.7 100.336 488.941 100.26 489.2C100.203 489.479 100.235 489.769 100.351 490.029C100.468 490.29 100.663 490.506 100.91 490.65C101.329 490.918 101.824 491.044 102.32 491.01L102.35 491.06Z" fill="#263238"/>
<path d="M10.88 489.27C13.24 489.58 23.09 504.85 19.77 505.97C4.14996 511.25 -8.36004 507.97 -11.31 506.59C-15.18 504.78 -15.67 499.46 -14.14 497.12C-11.93 493.73 8.53996 489 10.88 489.27Z" fill="#D3766A"/>
<path d="M35.17 484.46C35.4754 484.966 35.6181 485.554 35.5787 486.144C35.5394 486.735 35.3199 487.298 34.95 487.76C35.8509 488.194 36.5749 488.925 37 489.83C37.68 491.46 35.42 493.25 35.42 493.25C36.2723 493.886 36.9134 494.764 37.26 495.77C37.75 497.4 35.72 499.53 35.72 499.53C36.1829 500.544 36.2646 501.691 35.95 502.76C34.95 505.59 30.55 506.64 27.73 507.33C24.91 508.02 16.28 507.33 14.62 507.39L9.98999 489.39C9.98999 489.39 21.73 482.68 25.16 482.34C28.11 482 33.94 482.57 35.17 484.46Z" fill="#D3766A"/>
<path d="M35.33 493C34.6077 492.97 33.8846 493.038 33.18 493.2C32.44 493.32 31.7 493.46 30.91 493.61C29.43 493.91 27.91 494.23 26.42 494.61C26.35 494.61 26.36 494.73 26.42 494.71C27.9 494.42 29.42 494.15 30.94 493.92L33.22 493.6C33.9422 493.549 34.6565 493.418 35.35 493.21C35.3696 493.215 35.3904 493.215 35.41 493.21C35.4177 493.187 35.4177 493.163 35.41 493.14C35.4177 493.117 35.4177 493.093 35.41 493.07H35.35L35.33 493Z" fill="#263238"/>
<path d="M35.7 499.54C35.0449 499.527 34.3924 499.625 33.77 499.83L31.72 500.27C30.36 500.55 28.99 500.83 27.61 501.05C27.6027 501.06 27.5988 501.073 27.5988 501.085C27.5988 501.098 27.6027 501.11 27.61 501.12C29.01 500.88 30.42 500.67 31.82 500.42L33.88 500.05C34.5183 499.995 35.1415 499.825 35.72 499.55C35.72 499.55 35.73 499.55 35.7 499.54Z" fill="#263238"/>
<path d="M8.54003 489L12.6 510.48C12.6 510.48 -7.68997 511.63 -13.32 505.26C-17.07 501.02 -14.83 497.68 -13.88 496.6C-12.64 495.28 -4.37997 491.37 8.54003 489Z" fill="#FFC727"/>
<path d="M-6.99996 494.36C-6.98889 494.595 -7.0716 494.825 -7.22996 495C-7.30848 495.088 -7.40365 495.159 -7.50996 495.21C-7.61628 495.262 -7.73181 495.293 -7.84996 495.3C-8.08533 495.311 -8.31549 495.228 -8.48996 495.07C-8.57683 494.991 -8.64718 494.895 -8.69695 494.789C-8.74672 494.683 -8.77494 494.567 -8.77996 494.45C-8.78694 494.316 -8.76298 494.183 -8.70996 494.06C-8.65878 493.937 -8.5801 493.828 -8.47996 493.74L-7.90996 493.51C-7.6768 493.505 -7.45094 493.591 -7.27996 493.75C-7.10777 493.908 -7.00377 494.127 -6.98996 494.36H-6.99996ZM1.11004 493.07C0.889519 493.083 0.681718 493.178 0.527039 493.335C0.372359 493.493 0.281856 493.703 0.273127 493.923C0.264398 494.144 0.338065 494.36 0.479807 494.529C0.621549 494.699 0.821234 494.81 1.04004 494.84C1.2142 494.864 1.39149 494.836 1.55004 494.76C1.7357 494.67 1.88452 494.519 1.97108 494.332C2.05763 494.145 2.07656 493.934 2.02462 493.734C1.97268 493.535 1.8531 493.359 1.68629 493.238C1.51949 493.117 1.31581 493.058 1.11004 493.07ZM9.32004 493.4C9.31271 493.46 9.31271 493.52 9.32004 493.58C9.32737 493.718 9.36859 493.852 9.44003 493.97L9.32004 493.4ZM-7.22996 507C-7.3475 507.004 -7.46311 507.031 -7.56996 507.08C-7.67642 507.13 -7.77163 507.202 -7.84996 507.29C-7.92922 507.377 -7.9904 507.479 -8.02996 507.59C-8.06881 507.699 -8.0858 507.814 -8.07996 507.93C-8.07098 508.14 -7.98562 508.339 -7.83996 508.49C-7.55996 508.58 -7.28996 508.67 -6.99996 508.75C-6.79584 508.705 -6.61479 508.588 -6.48996 508.42C-6.3658 508.253 -6.3055 508.047 -6.31996 507.84C-6.32904 507.608 -6.42971 507.388 -6.59996 507.23C-6.77194 507.074 -6.99801 506.992 -7.22996 507ZM1.77004 506.55C1.5942 506.559 1.42501 506.62 1.28385 506.725C1.1427 506.83 1.03592 506.975 0.977047 507.141C0.918169 507.307 0.909828 507.487 0.953081 507.657C0.996334 507.828 1.08924 507.982 1.22004 508.1C1.32875 508.198 1.45995 508.268 1.602 508.303C1.74406 508.338 1.89259 508.337 2.03445 508.301C2.1763 508.266 2.30711 508.195 2.41527 508.097C2.52344 507.998 2.60563 507.874 2.65457 507.736C2.70351 507.598 2.71768 507.451 2.69584 507.306C2.67399 507.161 2.6168 507.024 2.52934 506.907C2.44187 506.789 2.32682 506.696 2.19437 506.633C2.06193 506.571 1.91618 506.542 1.77004 506.55ZM10.77 506.1C10.5492 506.111 10.3402 506.203 10.1838 506.359C10.0275 506.516 9.93485 506.725 9.92405 506.945C9.91324 507.166 9.98503 507.383 10.1254 507.554C10.2658 507.725 10.4647 507.837 10.6835 507.869C10.9022 507.902 11.1251 507.851 11.3087 507.728C11.4924 507.605 11.6236 507.418 11.6768 507.203C11.73 506.989 11.7015 506.762 11.5967 506.567C11.4919 506.372 11.3185 506.224 11.11 506.15C11.001 506.111 10.8855 506.094 10.77 506.1ZM-12.17 500.57C-12.3476 500.58 -12.5183 500.642 -12.66 500.75C-12.803 500.856 -12.9109 501.002 -12.97 501.17C-13.0217 501.339 -13.0217 501.52 -12.97 501.69C-12.9254 501.86 -12.8315 502.013 -12.7 502.13C-12.5686 502.248 -12.405 502.325 -12.23 502.35C-12.0558 502.374 -11.8785 502.346 -11.72 502.27C-11.5618 502.193 -11.4297 502.071 -11.34 501.92C-11.2516 501.769 -11.2099 501.595 -11.22 501.42C-11.227 501.302 -11.2576 501.186 -11.31 501.08C-11.3607 500.974 -11.4321 500.878 -11.52 500.8C-11.6071 500.721 -11.709 500.66 -11.82 500.62C-11.9322 500.598 -12.0477 500.598 -12.16 500.62L-12.17 500.57ZM-3.16996 500.15C-3.34774 500.159 -3.5186 500.222 -3.65996 500.33C-3.80296 500.436 -3.91093 500.582 -3.96996 500.75C-4.02173 500.919 -4.02173 501.1 -3.96996 501.27C-3.92541 501.44 -3.83146 501.593 -3.69996 501.71C-3.56863 501.828 -3.40501 501.905 -3.22996 501.93C-3.0558 501.954 -2.8785 501.926 -2.71996 501.85C-2.56148 501.773 -2.42924 501.652 -2.33996 501.5C-2.25164 501.349 -2.2099 501.175 -2.21996 501C-2.23638 500.765 -2.34407 500.546 -2.51996 500.39C-2.69501 500.233 -2.92476 500.15 -3.15996 500.16L-3.16996 500.15ZM5.83004 499.7C5.7131 499.706 5.59857 499.736 5.49301 499.786C5.38746 499.837 5.29296 499.908 5.21492 499.996C5.13688 500.083 5.07685 500.185 5.03826 500.295C4.99967 500.406 4.98328 500.523 4.99004 500.64C5.00018 500.816 5.06214 500.984 5.16808 501.125C5.27402 501.265 5.4192 501.371 5.58529 501.429C5.75137 501.487 5.9309 501.494 6.10121 501.45C6.27152 501.406 6.42498 501.313 6.54219 501.182C6.6594 501.05 6.73512 500.888 6.75977 500.713C6.78442 500.539 6.75691 500.362 6.68071 500.203C6.60451 500.045 6.48304 499.912 6.33163 499.823C6.18023 499.733 6.00568 499.69 5.83004 499.7Z" fill="white"/>
<path d="M-9.11996 493.78C-3.52873 491.405 2.35793 489.797 8.38004 489C8.54004 489 8.62004 489.18 8.52004 489.19C2.51949 490.247 -3.37653 491.83 -9.09996 493.92C-9.15996 493.94 -9.16996 493.8 -9.11996 493.78Z" fill="#263238"/>
<path d="M7.26003 509.75C6.83003 507.83 5.75003 502.21 5.52003 500.7C5.04003 497.62 4.52003 494.53 4.29003 491.43C4.28605 491.421 4.28441 491.411 4.28525 491.401C4.28609 491.391 4.28938 491.381 4.29484 491.373C4.3003 491.365 4.30774 491.358 4.31651 491.353C4.32527 491.348 4.33507 491.346 4.34503 491.346C4.35499 491.346 4.3648 491.348 4.37356 491.353C4.38232 491.358 4.38977 491.365 4.39523 491.373C4.40068 491.381 4.40398 491.391 4.40482 491.401C4.40566 491.411 4.40401 491.421 4.40003 491.43C5.17003 494.43 5.63003 497.43 6.14003 500.48C6.39003 501.96 7.38003 508.95 7.37003 509.76C7.35003 509.8 7.27003 509.83 7.26003 509.75Z" fill="#263238"/>
<path d="M86.5 680.67C95.37 681.98 133.19 663.33 134.85 669.55C136.51 675.77 128.1 691.13 115.48 695.25C102.86 699.37 84.56 695.47 77.62 698.03C70.68 700.59 68.39 704.6 68.47 706.03C68.55 707.46 110.05 707.67 114.18 716.08C118.31 724.49 108.93 731.89 96.57 734.08C84.21 736.27 63.78 718.28 57 718.38C50.22 718.48 45.84 723.09 47.69 724.38C49.54 725.67 73.43 735.38 79.59 741.71C85.75 748.04 85.42 755.12 71.29 752.71C57.16 750.3 43 734.5 38 735.34C33 736.18 33.75 738.89 35.79 740.6C37.83 742.31 53 751.83 57.52 756.26C62.04 760.69 50.25 764.01 46.13 764.11C42.01 764.21 31.76 758.24 29.33 755.78C26.9 753.32 26.78 747.78 23.92 747.16C21.06 746.54 18.27 753.71 16.69 754.23C15.11 754.75 8.56002 750.5 8.69002 748.45C8.82002 746.4 14.5 743.9 14.46 740.8C14.42 737.7 8.26002 738.93 4.55002 733.42C0.840022 727.91 -3.99998 711 -0.499978 705.7C3.00002 700.4 16.43 724.28 21.78 727.9C25.94 729.96 29.44 728.46 28.17 725.42C26.9 722.38 -0.129978 692.27 2.00002 684.37C4.13002 676.47 5.31002 678.73 9.16002 681.5C13.01 684.27 28.49 709.84 33.57 707.83C38.65 705.82 13.34 672.49 16.06 661.93C18.78 651.37 25.06 640.81 30.47 642.81C35.88 644.81 37.26 679.58 45.15 683.62C53.04 687.66 47.73 680.52 47.65 674.31C47.57 668.1 41.21 641.82 44.86 636.66C48.51 631.5 50.93 625.45 57.09 628.95C63.25 632.45 61.33 663.41 65.8 663.8C70.27 664.19 66.66 646.24 72.35 635.23C78.04 624.22 91.2 618.11 93.82 620.95C96.44 623.79 96.29 623.67 94.21 626.43C92.13 629.19 83.68 637.25 81.61 643.79C79.54 650.33 76.81 654.26 79.04 654.45C81.27 654.64 85.55 649 88 643.88C90.45 638.76 94.95 627.4 98.68 625.6C102.41 623.8 113.92 614.86 123.45 626.21C132.98 637.56 124.25 647.56 117.86 653.82C111.47 660.08 104.24 663.37 96.55 668.21C88.86 673.05 82.55 680.09 86.55 680.67H86.5Z" fill="#00737F"/>
<path d="M313.91 293.68H342V292.5H313.91V293.68Z" fill="#455A64"/>
<path d="M340.91 293.68L354.69 291V289.82L340.91 292.49V293.68Z" fill="#455A64"/>
<path d="M309.5 318.4H307.35L319.23 257.94H324.59L309.5 318.4Z" fill="#455A64"/>
<path d="M319.23 257.92H324.59L321.4 270.71C319.888 270.264 318.416 269.692 317 269L319.23 257.92Z" fill="#37474F"/>
<path d="M347.08 318.4H349.23L334.14 257.94H328.78L347.08 318.4Z" fill="#455A64"/>
<path d="M334.14 257.92L337.37 270.84C335.925 271.248 334.451 271.542 332.96 271.72L328.79 257.92H334.14Z" fill="#37474F"/>
<path d="M365 318.4H367.15L341 254.66H335.64L365 318.4Z" fill="#455A64"/>
<path d="M346 266.8C344.816 267.614 343.577 268.342 342.29 268.98L335.68 254.65H341L346 266.8Z" fill="#37474F"/>
<path d="M360.94 246.35C367.94 229.03 361.65 210.22 346.94 204.35C332.23 198.48 314.74 207.72 307.79 225.03C300.84 242.34 307.08 261.16 321.79 267.03C336.5 272.9 354 263.67 360.94 246.35Z" fill="#FFC727"/>
<path d="M333.08 202.15L339.88 202.65L328.72 268.71L321.92 268.21L333.08 202.15Z" fill="#FFC727"/>
<g opacity="0.1">
<path opacity="0.1" d="M360.94 246.351C367.94 229.031 361.65 210.221 346.94 204.351C332.23 198.481 314.74 207.721 307.79 225.031C300.84 242.341 307.08 261.161 321.79 267.031C336.5 272.901 354 263.671 360.94 246.351Z" fill="black"/>
<path opacity="0.1" d="M333.08 202.15L339.88 202.65L328.72 268.71L321.92 268.21L333.08 202.15Z" fill="black"/>
</g>
<path d="M354.68 245.89C361.68 228.58 355.39 209.76 340.68 203.89C325.97 198.02 308.48 207.26 301.53 224.57C294.58 241.88 300.82 260.7 315.53 266.57C330.24 272.44 347.72 263.2 354.68 245.89Z" fill="#FFC727"/>
<path d="M348.84 243.54C354.27 230.03 349.39 215.36 337.95 210.76C326.51 206.16 312.83 213.39 307.41 226.89C301.99 240.39 306.86 255.07 318.3 259.67C329.74 264.27 343.41 257 348.84 243.54Z" fill="white"/>
<path d="M343.07 241.22C346.98 231.48 343.47 220.9 335.22 217.59C326.97 214.28 317.11 219.48 313.22 229.22C309.33 238.96 312.82 249.54 321.07 252.86C329.32 256.18 339.15 251 343.07 241.22Z" fill="#FFC727"/>
<path d="M337.22 238.87C339.6 232.94 337.46 226.5 332.44 224.48C327.42 222.46 321.44 225.63 319.03 231.56C316.62 237.49 318.79 243.93 323.81 245.95C328.83 247.97 334.84 244.8 337.22 238.87Z" fill="white"/>
<path d="M332.62 234.68C332.646 235.991 332.207 237.269 331.382 238.289C330.557 239.308 329.398 240.003 328.11 240.25C325.63 240.55 323.64 238.56 323.66 235.79C323.646 234.482 324.089 233.21 324.912 232.193C325.735 231.176 326.887 230.478 328.17 230.22C330.64 229.87 332.63 231.9 332.62 234.68Z" fill="#FFC727"/>
<path d="M276.21 201.06L276.02 201.55L322.67 220.29L322.87 219.8L276.21 201.06Z" fill="#263238"/>
<path d="M274.24 202.56L274.34 202.51L276.34 201.68L272.11 200L270 200.88L274.24 202.56Z" fill="#263238"/>
<path d="M271.37 197.46L272.28 199.52L276.49 201.21C276.108 200.581 275.799 199.91 275.57 199.21L271.37 197.46Z" fill="#263238"/>
<path d="M323.82 219.57L323.13 221.15H320.89L322.23 219.81V217.92L323.82 219.57Z" fill="#263238"/>
<path d="M313.33 192L312.99 192.4L351.2 225.08L351.54 224.68L313.33 192Z" fill="#263238"/>
<path d="M310.45 191.74H310.57L312.7 191.57L309.24 188.64L306.96 188.8L310.45 191.74Z" fill="#263238"/>
<path d="M309.34 186L309.58 188.22L313.04 191.16C312.877 190.431 312.797 189.687 312.8 188.94L309.34 186Z" fill="#263238"/>
<path d="M352.35 224L351.45 225L348.83 224.18L350.52 223.33L351.08 221.52L352.35 224Z" fill="#263238"/>
<path d="M284 262.14L283.6 262.35L303.67 300.59L304.07 300.38L284 262.14Z" fill="#263238"/>
<path d="M281.87 262H281.97L283.72 262.55L281.91 259.1L280.04 258.5L281.87 262Z" fill="#263238"/>
<path d="M282.82 257.09L282.3 258.94L284.11 262.39C284.215 261.758 284.393 261.141 284.64 260.55L282.82 257.09Z" fill="#263238"/>
<path d="M304.81 300.56H302.46L302 300.19L303.63 300.06L304.63 298.8L304.81 300.56Z" fill="#263238"/>
<path d="M352.72 110.85C357.66 105.36 357.94 70.9598 363.98 72.6398C370.02 74.3198 379.57 87.0398 377.68 97.5698C375.79 108.1 364.57 118.89 363.78 124.81C362.99 130.73 365.44 134.12 366.78 134.73C368.12 135.34 386 106.93 395 107.9C404 108.87 406.29 118.66 402.85 128.13C399.41 137.6 375.18 143.46 372.37 148.13C369.56 152.8 371.6 157.92 373.54 157.25C375.48 156.58 394 144.57 402.11 143.2C410.22 141.83 416.11 145.27 407.98 153.88C399.85 162.49 380.17 165.02 378.71 168.88C377.25 172.74 379.92 173.4 382.26 172.77C384.6 172.14 399.26 166.03 405.03 164.95C410.8 163.87 408.54 173.44 406.86 176.32C405.18 179.2 395.65 183.52 392.5 184.08C389.35 184.64 384.57 182.22 382.79 183.89C381.01 185.56 385.97 190.73 385.74 192.05C385.51 193.37 379.05 195.94 377.35 194.93C375.65 193.92 375.95 188.93 373.27 187.51C370.59 186.09 369 190.91 362.69 191C356.38 191.09 339.78 186.7 336.77 181.92C333.76 177.14 359.97 178.71 365.37 176.68C368.92 174.76 369.15 171.68 365.99 171.17C362.83 170.66 325.41 175.59 319.57 170.54C313.73 165.49 316.16 165.72 320.19 164.33C324.22 162.94 352.78 163.89 353.24 159.5C353.7 155.11 314.24 157.39 306.39 150.74C298.54 144.09 292.17 134.99 296.2 132.19C300.23 129.39 330.62 144.19 337.48 140.58C344.34 136.97 335.93 137.41 330.58 134.65C325.23 131.89 300 124.33 297.12 119.49C294.24 114.65 290.12 110.25 295.77 107.61C301.42 104.97 327.12 120.3 329.37 117.4C331.62 114.5 314.7 108.86 307.71 99.9998C300.72 91.1398 301.15 79.3198 304.71 78.8098C308.27 78.2998 308.1 78.3498 309.57 81.0198C311.04 83.6898 314.31 93.1198 319 97.4998C323.69 101.88 325.91 105.5 327 104.09C328.09 102.68 325.11 97.1498 321.78 93.1898C318.45 89.2298 310.7 80.9998 310.77 77.5798C310.84 74.1598 308.12 62.2598 321.94 60.8598C335.76 59.4598 340.57 69.9998 343.19 77.1898C345.81 84.3798 345.51 90.8598 346.36 98.3298C347.21 105.8 350.53 113.33 352.73 110.85H352.72Z" fill="#00737F"/>
<path d="M305.11 429.36C299.77 432.1 295.57 473.91 300.39 485.01C306.62 487.19 317.93 487.64 321.97 490.81C315.03 491.15 300.97 493.3 300.97 493.3L306.53 516.85L330.57 518L309.38 525L318.84 545.36L341.44 543.65L324.44 552.3L340.2 572.04L364.95 568.2L347.83 576L357.83 587.1L377.36 587.39L367.77 593.52C367.77 593.52 379.44 605.04 388.45 605.91C397.46 606.78 405.51 607.91 408.37 606.06C411.23 604.21 415.53 586.33 414.9 578.59C414.27 570.85 413.38 565.13 413.38 565.13L408.68 569.52L411.03 553.6L403.35 538.9L399.78 551.28L399.55 531.08L385.65 516.83L379.2 535.54L380.36 509.19L368.2 494.43L360.69 512.61L363.05 485.67L348.75 470.25L343.16 487L344.26 463.82L329.83 452.11L326.23 464.86L322.74 445.33C322.74 445.33 312.88 437 309 429.9C307.57 426.77 305.11 429.35 305.11 429.35V429.36Z" fill="#00737F"/>
<path d="M134.44 742.64C135.59 740.34 125.37 727.71 125.11 719.85C124.85 711.99 130.58 721.27 132.53 717.39C134.48 713.51 127.18 698.57 131.34 685.39C132.27 682.39 134.83 683.06 135.93 685.49C137.03 687.92 137.2 691.1 140.25 690.49C143.3 689.88 140.25 679.9 143.01 673.1C145.77 666.3 148.63 665.21 150.7 666.1C152.77 666.99 150.78 670.78 153.52 670.16C156.26 669.54 156.4 663.32 158.88 658.82C161.36 654.32 163.35 650.57 165.73 651.1C168.11 651.63 165.9 654.72 169.04 654.86C172.18 655 172.67 644.98 175.95 639.77C179.23 634.56 178.95 641.72 182.35 641.77C185.75 641.82 187.08 636.08 190.48 634.37C193.88 632.66 194.48 635.7 199.22 635.44C203.96 635.18 208.59 629.1 211.1 629.58C213.61 630.06 211.23 633.96 214.23 641.2C217.23 648.44 222.03 650.53 222.9 655.82C223.77 661.11 218.11 671.09 220.14 673.21C222.17 675.33 226.94 666.83 227.76 670.09C228.674 674.351 228.369 678.784 226.88 682.88C225.24 686.81 220.69 691.25 221.52 693.33C222.35 695.41 228.98 690.12 229.78 692.06C231.1 695.15 222.87 706.27 223.57 710.15C224.27 714.03 233.42 708.8 232.48 712.15C231.54 715.5 222.85 722.15 222.7 726.15C222.55 730.15 231.27 721.83 231.75 725.94C232.23 730.05 229.93 733.75 226.88 737.85C223.83 741.95 219.01 744.29 220.33 747.38C221.65 750.47 232.16 744.04 231.5 747.79C230.84 751.54 217.5 757.44 217 760.79C216.5 764.14 225 758.86 222.91 763.98C220.82 769.1 207.04 775.98 207.57 780.25C208.1 784.52 219.41 772.94 218.03 780.31C216.65 787.68 200.88 799.29 194.69 801C180.12 805.84 160.22 798.17 152.69 792C145.16 785.83 145.24 785.06 144.27 782.14C143.3 779.22 152.79 782.55 146.88 777.14C140.97 771.73 136.42 772.67 133.61 766.83C130.8 760.99 139.35 767.72 134.94 761.53C130.53 755.34 123.86 748 125.5 743.29C128.08 735.92 132.83 745.82 134.43 742.64H134.44Z" fill="#4B9975"/>
<path d="M198.85 644.8C189.85 651.32 151.2 749.44 169.69 787.43C165.25 749.16 198.85 644.8 198.85 644.8Z" fill="#1E724E"/>
<path d="M1.89996 183.64C2.08996 182.11 2.63996 180.3 4.08996 179.55C7.08996 177.94 10.63 181.38 12.58 183.25C16.3194 186.783 19.4962 190.867 22 195.36L21.6 194.62C23.69 198.43 26.4 202.46 26.88 206.83C27.14 209.35 26.16 211.21 25.73 213.61C25.47 214.95 26.09 217.4 25.16 218.61C27.08 216.21 29 213.82 31.02 211.52C32.19 210.19 34.86 207.96 34.89 205.95C34.89 203.5 31.75 201.95 30.26 200.46C24.02 194.25 21.65 181.98 22.72 173.46C22.97 171.55 23.56 167.66 25.58 166.46C28.45 164.76 31.18 168.76 32.58 170.83C35.8033 175.92 37.9822 181.601 38.99 187.54C39.646 190.493 39.8917 193.521 39.72 196.54C39.41 199.82 36.95 202 36.47 205.08C38.85 202.4 41.47 199.96 44 197.4C45.73 195.57 48.73 193.28 48.79 190.49C48.6801 189.035 48.0437 187.67 47 186.65C42.14 180.65 37.26 175.09 35.58 167.27C34.98 164.43 34.58 159.27 37.66 157.44C40.74 155.61 43.66 159.85 45.15 162.03C47.6395 165.846 49.6101 169.975 51.01 174.31C52.01 177.26 53.01 180.54 52.65 183.64C52.3 186.52 50.22 188.64 49.65 191.48C56.07 185.38 56.65 178.11 60.36 170.23C62.46 165.8 72.36 143.09 79.61 148.1C85.5399 152.16 78.61 165.1 76.33 169.52C74.1737 173.701 71.2099 177.413 67.61 180.44C65.0714 182.41 62.2539 183.99 59.25 185.13C55.71 186.63 54.25 189.56 51.35 191.77C57.7529 186.9 65.8278 184.77 73.8 185.85C76.8 186.31 86.8 188.52 86.55 192.85C86.11 195 83.55 195.99 81.79 196.71C76.1427 198.752 70.022 199.1 64.18 197.71C61.856 197.228 59.62 196.392 57.55 195.23C56 194.34 54.31 193 52.45 192.96C48.04 192.8 44.37 198.85 41.45 201.45C51.9361 200.49 62.5094 201.508 72.62 204.45C75.21 205.21 80.2899 207.19 78.36 210.73C77.36 212.49 74.69 213.05 72.84 213.48C64.84 215.31 54.24 214.36 47.74 208.84C45.91 207.29 43.1 202.5 40.46 202.91C38.89 203.14 36.75 206.2 35.74 207.29C33.9404 209.201 32.2415 211.203 30.65 213.29C33.24 214 35.65 213.16 38.22 213.04C41.1158 213.069 43.991 213.53 46.75 214.41C51.9 215.78 57.16 217.5 61.57 220.61C64.18 222.44 68.71 226 67.92 229.7C66.85 234.5 58.31 232.12 55.17 231.42C49.47 230.219 44.0287 228.015 39.1 224.91C35.39 222.5 34.77 219.77 32.53 216.29C30.74 213.51 28.71 215.69 26.96 217.79C22.96 222.57 19.17 227.71 15.34 232.62C18.6 232.1 21.66 230.84 24.91 230.35C28.48 229.909 32.0955 229.997 35.64 230.61C41.01 231.42 47.53 232.93 52.1 236.05C57.1 239.49 54.71 243.05 50.19 244.69C42.28 247.53 27.38 247.17 21.19 240.46C19.38 238.46 18.35 233.7 15.19 233.9C12.85 234.03 11.52 237.26 10.36 238.9C8.28996 241.9 5.88996 244.76 3.48996 247.62C5.48996 249.75 8.48996 248.02 10.94 247.75C14.3623 247.506 17.8018 247.807 21.13 248.64C26.8 249.8 32.87 251.36 37.53 254.97C40.53 257.31 48.16 265.02 40.98 266.82C36.37 267.98 30.88 266.76 26.4 265.59C21 264.09 13.9 262 9.65996 258.09C7.45996 256.09 6.81996 250.6 4.22996 249.37C1.87996 248.26 0.32996 251.37 -1.15004 253.01C-3.79004 255.87 -6.62004 258.58 -9.55004 261.19C-6.81408 261.861 -3.96499 261.93 -1.20004 261.39C1.75534 261.043 4.75088 261.431 7.51996 262.52C11.927 264.106 15.9461 266.611 19.31 269.87C22.5 272.87 30.21 281.28 22.92 283.94C14.13 287.16 -0.380039 280.72 -5.26004 273.14C-7.03004 270.44 -5.73004 264.91 -8.26004 262.93C-11.47 260.46 -19.37 269.7 -21.56 271.5C-16.84 275.06 -11.87 276.5 -8.30004 281.5C-5.66031 285.339 -3.8673 289.696 -3.04004 294.28C-1.95004 300.04 -2.49004 308.73 -10.41 305.11C-18.53 301.42 -27.31 288.11 -24.3 279.06C-23.87 277.78 -21.88 275.29 -21.91 273.97C-21.98 270.67 -25.11 274.3 -26.26 275.14C-29.15 277.24 -32.15 279.14 -35.17 281.04C-38.9608 283.31 -42.6323 285.773 -46.17 288.42C-47.17 289.21 -52.97 294.14 -53.52 290.66C-53.89 288.28 -48.83 286.42 -47.25 285.71C-43.012 283.938 -38.9281 281.817 -35.04 279.37C-32.79 277.9 -30.53 276.43 -28.3 274.95C-26.83 273.95 -21.95 271.79 -24.3 270.28C-25.21 269.7 -27.12 270.43 -28.18 270.4C-29.7997 270.369 -31.409 270.133 -32.97 269.7C-38.499 268.049 -43.5483 265.088 -47.69 261.07C-50.01 258.86 -58.89 249.07 -50.09 248.66C-43.98 248.42 -37.09 251.93 -32.22 255.33C-26.97 258.95 -24.28 264.33 -22.3 270.28C-19.2547 268.167 -16.3208 265.897 -13.51 263.48C-13.04 263.06 -10.35 260.94 -10.73 260.06C-11.24 259 -14.53 259.8 -15.49 259.69C-24.26 258.94 -32.35 250.28 -35.76 242.61C-37.06 239.71 -37.91 235.61 -34.46 234.02C-31.01 232.43 -25.95 234.75 -22.78 236.24C-17.88 238.54 -12.78 242.09 -10.02 246.92C-8.51004 249.59 -6.02004 256.44 -8.75004 259C-5.58004 256 -0.200043 252.81 1.24996 248.47C2.53996 244.56 -1.99004 245.38 -4.68004 244.38C-12.62 241.38 -20.68 231.81 -22.95 223.64C-24.41 218.45 -20.2 217.64 -15.63 219.05C-10.3608 220.814 -5.68868 224.014 -2.14004 228.29C-0.0700417 230.63 2.25996 233.56 3.14996 236.57C3.98996 239.32 2.84996 242.15 3.61996 244.87C6.13996 244.35 8.86996 239.33 10.21 237.44C10.81 236.58 12.27 235.09 12.37 234.03C12.52 232.15 10.89 231.69 9.47996 230.79C1.69996 225.92 -3.81004 216.14 -5.00004 207.18C-5.41004 204.18 -5.70004 198.73 -1.83004 197.97C1.85996 197.28 5.53996 202.11 7.44996 204.61C10.6274 208.475 13.0863 212.878 14.71 217.61C16.41 223 13.5 227.61 13.66 233.01C16.04 229.73 26.75 220.78 23.47 215.94C21.71 214.26 18.9 213.61 16.99 211.94C13.41 208.94 10.38 204.8 7.73996 200.94C4.34996 195.94 1.19996 189.83 1.94996 183.63L1.89996 183.64Z" fill="#1E724E"/>
<path d="M358.78 700.26C356.73 698.52 361.38 682.17 358.4 674.51C355.42 666.85 353.72 678.12 350.25 675.19C346.78 672.26 347.68 654.9 338.25 643.96C336.14 641.5 333.93 643.15 333.87 645.96C333.81 648.77 334.95 651.88 331.78 652.58C328.61 653.28 327.44 642.37 322 637C316.56 631.63 313.36 631.71 311.74 633.46C310.12 635.21 313.58 637.99 310.74 638.52C307.9 639.05 305.16 633.12 300.93 629.81C296.7 626.5 293.24 623.71 291.17 625.2C289.1 626.69 292.49 628.75 289.53 630.2C286.57 631.65 281.98 622.2 276.69 618.52C271.4 614.84 274.6 621.62 271.35 623.07C268.1 624.52 264.46 619.54 260.49 619.29C256.52 619.04 257.22 622.2 252.49 623.91C247.76 625.62 240.87 621.65 238.66 623.15C236.45 624.65 240.33 627.41 240.42 635.61C240.51 643.81 236.74 647.78 238.08 653.24C239.42 658.7 248.96 665.96 247.88 668.83C246.8 671.7 238.72 665.49 239.27 668.96C240.14 673.435 242.254 677.573 245.37 680.9C248.56 684 254.76 686.41 254.81 688.76C254.86 691.11 246.31 688.76 246.35 690.93C246.35 694.44 258.83 701.76 259.75 705.79C260.67 709.82 249.75 708.53 252.01 711.41C254.27 714.29 265.37 717.04 267.15 720.84C268.93 724.64 257.15 720.2 258.36 724.35C259.57 728.5 263.36 731.12 267.94 733.81C272.52 736.5 278.16 736.81 278.15 740.28C278.14 743.75 265.4 741.92 267.58 745.28C269.76 748.64 285.01 748.81 286.88 751.88C288.75 754.95 278.36 753.32 282.5 757.37C286.64 761.42 302.7 762.43 303.94 766.72C305.18 771.01 289.55 764.55 293.94 771.07C298.33 777.59 318.15 782.07 324.82 781.24C340.82 779.92 356.82 764.37 361.49 755.34C366.16 746.31 365.81 745.61 365.54 742.41C365.27 739.21 357.54 746.3 360.98 738.69C364.42 731.08 369.2 730.1 369.52 723.33C369.84 716.56 364.37 726.54 366.06 718.78C367.75 711.02 371.19 701.15 367.67 697.3C362.16 691.3 361.67 702.74 358.81 700.3L358.78 700.26Z" fill="#E2A14B"/>
<path d="M342 745.32C325.93 721.13 285.86 666.32 254.14 640.66" stroke="white" stroke-width="1.72"/>
<path d="M320.26 715L285.96 722M328.2 724.25L338.3 688.51L328.2 724.25ZM316.39 709L315.26 674.33L316.39 709ZM283.49 668.83L295 647.51L283.49 668.83ZM270.83 656.51L256.88 658.65L270.83 656.51ZM299.26 688.65L264.42 685.8L299.26 688.65Z" stroke="white" stroke-width="1.72"/>
<path d="M405.09 697.87C406.82 699.72 404.17 692.28 404.46 686.27C404.75 680.26 406.2 675.94 404.28 666.86C402.36 657.78 392.66 644.09 387.55 634.72C382.44 625.35 381.93 619.27 372.4 607.6C362.87 595.93 351.4 583.87 341.74 581.29C332.08 578.71 327.66 566.66 316.19 564.35C304.72 562.04 285.61 577.99 275.44 573.15C297.75 590.86 305.19 613.68 317.11 628C329.03 642.32 330.65 635.16 342.44 646.41C354.23 657.66 350.13 660.41 362.08 673.73C375.92 689.13 391.57 683.4 405.09 697.87Z" fill="#1E724E"/>
<path d="M-57.38 450C-59.38 451.59 -51.84 449.72 -46.06 450.78C-40.28 451.84 -36.28 453.89 -27.24 452.99C-18.2 452.09 -3.67999 443.6 6.00001 439.37C15.68 435.14 21.69 435.37 34.21 426.78C46.73 418.19 59.88 407.64 63.61 397.78C67.34 387.92 79.61 384.78 83.28 372.98C86.95 361.18 74 339.08 80 329C60 350.26 36.94 355.27 21.54 366C6.14001 376.73 12.88 379.41 0.480007 390.43C-11.92 401.45 -14.09 396.79 -28.52 407.72C-45.18 420.4 -41.63 437.58 -57.38 450Z" fill="#00737F"/>
<path d="M-28 109.82C-26.33 108.21 -31.24 94.4095 -29.11 87.6495C-26.98 80.8895 -24.88 90.4995 -22.11 87.7795C-19.34 85.0595 -21.03 70.1795 -13.56 60.2495C-11.88 58.0195 -9.88999 59.3095 -9.68999 61.6995C-9.48999 64.0895 -10.29 66.8495 -7.52999 67.2795C-4.76999 67.7095 -4.34999 58.2795 0.0200119 53.2795C4.39001 48.2795 7.16002 48.2795 8.64001 49.6595C10.12 51.0395 7.31001 53.6595 9.82001 53.9595C12.33 54.2595 14.31 48.9595 17.77 45.9595C21.23 42.9595 24.04 40.2795 25.91 41.4495C27.78 42.6195 24.97 44.5795 27.6 45.6295C30.23 46.6795 33.6 38.3095 37.99 34.8695C42.38 31.4295 39.99 37.4195 42.83 38.4795C45.67 39.5395 48.55 35.0495 51.96 34.6195C55.37 34.1895 54.96 36.9395 59.07 38.1495C63.18 39.3595 68.93 35.5595 70.92 36.7295C72.91 37.8995 69.72 40.4895 70.1 47.5495C70.48 54.6095 73.94 57.8095 73.1 62.5495C72.26 67.2895 64.46 74.0995 65.55 76.5495C66.64 78.9995 73.24 73.1595 72.96 76.1795C72.4649 80.0708 70.8846 83.7441 68.4 86.7795C65.83 89.6295 60.63 92.0495 60.72 94.0695C60.81 96.0895 68.03 93.5695 68.12 95.4595C68.31 98.4595 58 105.46 57.43 108.99C56.86 112.52 66.21 110.79 64.43 113.39C62.65 115.99 53.26 118.98 51.93 122.39C50.6 125.8 60.51 121.28 59.69 124.92C58.87 128.56 55.8 131.02 51.98 133.59C48.16 136.16 43.36 136.71 43.56 139.73C43.76 142.75 54.62 140.43 52.93 143.42C51.24 146.41 38.13 147.42 36.7 150.17C35.27 152.92 44.11 150.93 40.77 154.65C37.43 158.37 23.68 160.13 22.86 163.89C22.04 167.65 35.11 161.22 31.74 167.07C28.37 172.92 11.53 177.9 5.74001 177.55C-8.09999 177.31 -22.72 164.82 -27.26 157.32C-31.8 149.82 -31.52 149.19 -31.47 146.42C-31.42 143.65 -24.35 149.32 -27.76 142.96C-31.17 136.6 -35.32 136 -36 130.19C-36.68 124.38 -31.39 132.66 -33.28 126.09C-35.17 119.52 -38.68 111.21 -35.87 107.7C-31.47 102.21 -30.39 112.04 -28.08 109.82H-28Z" fill="#52B788"/>
<path d="M56.0001 45.9004C46.3801 48.7504 -15.8299 120.61 -11.4799 158.45C-3.78994 124.58 56.0001 45.9004 56.0001 45.9004Z" fill="#4B9975"/>
<path d="M65.6 299.77C68.55 297.18 78.6 291.48 74.42 281.08C73.05 274.75 60.42 263.44 47.94 266.93C35.46 270.42 38.72 274.78 32.37 279.67C26.02 284.56 18 285.51 9.46004 287.37C0.920044 289.23 -8.85996 296.37 -12.33 303.8C-13.98 307.31 -14.5 311.56 -15.88 315.52C-19.19 325.09 -32.99 330.75 -29.76 340.35C-28.3692 345.312 -25.918 349.913 -22.5754 353.836C-19.2329 357.759 -15.0788 360.909 -10.4 363.07C4.37004 370.01 25.15 365.07 29 357.64C32.85 350.21 40.43 338.39 48.79 337.35C57.15 336.31 63.1 329.56 63.23 328.35C63.36 327.14 66.84 325.23 64.32 317.19C62.29 310.78 64.33 302.9 65.6 299.77Z" fill="#E2A14B"/>
<path d="M34.0699 302.68L41.59 292.39M42.34 303.45L33.3999 312.54L42.34 303.45ZM-33.8 386.92L-18.8 365.66L-15.94 362.75L-33.8 386.92ZM20.2099 326L36.8999 324.87L20.2099 326ZM20.2099 326L10.4599 335.92L20.2099 326ZM20.2099 326L33.3999 312.55L20.2099 326ZM48.6899 324L36.8999 324.8L48.6899 324ZM36.8999 324.8L43.2899 317.49L36.8999 324.8ZM0.699951 345.81L18.36 344.62L0.699951 345.81ZM0.699951 345.81L-15.9501 362.75L0.699951 345.81ZM0.699951 345.81L10.4599 335.89L0.699951 345.81ZM26.36 344.08L18.36 344.62L26.36 344.08ZM18.36 344.62L25.8999 337.42L18.36 344.62ZM-15.9501 362.75L-16.72 351.38L-15.9501 362.75ZM10.45 335.89L11.18 312.82L10.45 335.89ZM11.57 300.57L11.18 312.82L11.57 300.57ZM11.18 312.82L18.7999 305L11.18 312.82ZM33.3999 312.51L34.0699 302.68L33.3999 312.51ZM34.74 292.85L34.0699 302.68L34.74 292.85Z" stroke="white" stroke-width="2" stroke-linecap="round"/>
<path d="M337.75 353.62C336.02 350.1 333.16 338.88 322.02 340.21C315.55 339.88 301.33 349.07 301.43 362.06C301.53 375.05 306.59 373.06 309.65 380.42C312.71 387.78 311.53 395.79 311.08 404.54C310.63 413.29 315.01 424.59 321.23 429.88C324.23 432.39 328.15 434.01 331.62 436.37C339.99 442.07 341.84 456.87 351.95 456.27C357.104 456.227 362.188 455.066 366.85 452.867C371.512 450.667 375.64 447.481 378.95 443.53C389.51 431.09 390.23 409.75 384.03 404.09C377.83 398.43 368.44 388.02 369.63 379.68C370.82 371.34 365.86 363.83 364.74 363.4C363.62 362.97 362.67 359.09 354.25 359.4C347.52 359.7 340.44 355.67 337.75 353.62Z" fill="#E2A14B"/>
<path d="M332.31 384.83L324.31 374.83M335.21 377L341.65 388L335.21 377ZM395.83 472.33L379.23 452.33L377.17 448.81L395.83 472.33ZM351.17 404.28L354.45 387.88L351.17 404.28ZM351.17 404.28L358.17 416.28L351.17 404.28ZM351.17 404.28L341.65 388L351.17 404.28ZM356.75 376.25L354.43 387.84L356.75 376.25ZM354.43 387.84L349 379.8L354.43 387.84ZM365.15 428.3L368.67 411L365.15 428.3ZM365.19 428.36L377.19 448.86L365.19 428.36ZM365.19 428.36L358.19 416.36L365.19 428.36ZM370.26 403.16L368.67 411L370.26 403.16ZM368.67 411L363.67 401.84L368.67 411ZM377.15 448.84L366 446.58L377.15 448.84ZM358.16 416.3L336.08 409.56L358.16 416.3ZM324.37 406L336.1 409.58L324.37 406ZM336.1 409.58L330.59 400.19L336.1 409.58ZM341.65 388L332.34 384.77L341.65 388ZM323 381.6L332.31 384.83L323 381.6Z" stroke="white" stroke-width="2" stroke-linecap="round"/>
</g>
<defs>
<clipPath id="clip0_236:7513">
<rect width="375" height="750" fill="white"/>
</clipPath>
</defs>
</svg>
