<svg width="375" height="753" viewBox="0 0 375 753" fill="none" xmlns="http://www.w3.org/2000/svg">
<g clip-path="url(#clip0_308_3935)">
<path d="M-0.799942 65.5C-0.89994 64 -0.699944 62.2 0.500057 61.2C3.10006 59.1 7.00006 61.8 9.20006 63.2C13.4001 65.9 17.1001 69.2 20.3001 73L19.8001 72.4C22.5001 75.6 25.8001 79 27.0001 83.1C27.7001 85.5 27.1001 87.4 27.1001 89.8C27.1001 91.1 28.1001 93.3 27.4001 94.6C28.8001 92 30.2001 89.4 31.7001 86.8C32.6001 85.3 34.7001 82.7 34.4001 80.8C34.0001 78.5 30.7001 77.6 29.0001 76.4C21.9001 71.6 17.5001 60.4 17.0001 52.1C16.9001 50.2 16.7001 46.4 18.5001 44.9C20.9001 42.8 24.2001 46.1 25.9001 47.8C29.9001 52.1 33.0001 57.1 35.0001 62.5C36.2001 65.2 36.9001 68 37.3001 70.9C37.6001 74.1 35.7001 76.6 35.8001 79.6C37.6001 76.6 39.6001 73.8 41.6001 70.9C42.9001 68.8 45.4001 66.1 44.9001 63.5C44.7001 62.1 43.6001 61.1 42.6001 60.2C36.9001 55.3 31.3001 51 28.2001 43.8C27.1001 41.2 25.8001 36.3 28.4001 34.1C31.0001 31.8 34.5001 35.3 36.4001 37.1C39.5001 40.3 42.1001 43.8 44.2001 47.7C45.7001 50.3 47.2001 53.3 47.4001 56.3C47.6001 59.1 46.0001 61.5 46.0001 64.3C51.0001 57.3 50.2001 50.3 52.3001 42.2C53.5001 37.6 58.8001 14.2 66.6001 17.7C73.0001 20.5 68.8001 34.1 67.4001 38.6C66.1001 43 64.0001 47 61.1001 50.6C59.0001 52.9 56.7001 54.9 54.0001 56.6C50.9001 58.7 50.0001 61.7 47.7001 64.3C52.9001 58.5 60.2001 55 68.0001 54.6C70.9001 54.5 80.9001 54.8 81.4001 58.9C81.4001 61 79.1001 62.4 77.6001 63.4C72.7001 66.5 66.8001 67.7 61.0001 67.5C58.7001 67.5 56.4001 67.1 54.3001 66.3C52.7001 65.7 50.8001 64.8 49.0001 65.1C44.8001 65.7 42.4001 72.2 40.1001 75.2C49.9001 72.4 60.1001 71.4 70.3001 72.4C72.9001 72.7 78.1001 73.6 76.9001 77.3C76.3001 79.1 73.8001 80.2 72.2001 80.9C64.9001 84.1 54.7001 85.1 47.5001 81C45.5001 79.9 41.9001 75.8 39.5001 76.7C38.0001 77.2 36.6001 80.5 35.8001 81.7C34.4001 83.8 33.2001 86 32.0001 88.3C34.6001 88.5 36.7001 87.3 39.2001 86.7C42.0001 86.1 44.8001 86.3 47.6001 86.5C52.7001 86.9 58.1001 87.6 62.8001 89.7C65.6001 91 70.6001 93.5 70.5001 97.2C70.3001 102 61.8001 101.2 58.7001 101.1C53.1001 101 47.5001 99.9 42.3001 97.8C38.3001 96.2 37.3001 93.7 34.5001 90.8C32.3001 88.5 30.8001 90.9 29.5001 93.2C26.6001 98.5 23.9001 104 21.1001 109.4C24.1001 108.3 26.8001 106.6 29.8001 105.5C33.1001 104.4 36.6001 103.9 40.0001 103.8C45.3001 103.6 51.7001 103.9 56.6001 106C62.0001 108.4 60.4001 112.2 56.3001 114.6C49.3001 118.7 35.1001 121.1 28.0001 115.8C25.9001 114.2 24.1001 109.9 21.1001 110.7C18.9001 111.3 18.2001 114.6 17.4001 116.3C16.0001 119.6 14.2001 122.7 12.4001 125.8C14.7001 127.5 17.2001 125.3 19.5001 124.6C22.7001 123.6 26.1001 123.6 29.3001 123.6C34.9001 123.7 40.9001 124.1 46.0001 126.7C49.3001 128.4 57.9001 134.3 51.4001 137.3C47.2001 139.2 41.8001 139.1 37.3001 138.8C31.8001 138.4 24.7001 137.7 19.9001 134.8C17.4001 133.3 15.8001 128.2 13.2001 127.5C10.8001 126.9 9.90006 130.1 8.70006 131.9C6.70006 135.1 4.50006 138.2 2.20006 141.2C4.90006 141.3 7.60006 140.9 10.2001 139.9C12.9001 139 15.9001 138.9 18.7001 139.4C23.2001 140.1 27.4001 141.8 31.2001 144.3C34.8001 146.6 43.6001 153.2 37.2001 157C29.4001 161.7 14.5001 158.1 8.50006 151.8C6.30006 149.6 6.60006 144.1 3.80006 142.6C0.300056 140.8 -5.49994 151 -7.29994 153.2C-2.19994 155.7 2.80006 156.2 7.10006 160.3C10.3001 163.5 12.8001 167.3 14.4001 171.5C16.5001 176.8 17.5001 185.1 9.40006 183.1C1.00006 181.2 -9.69994 170.1 -8.49994 161C-8.29994 159.7 -6.89994 157 -7.09994 155.7C-7.79994 152.6 -10.0999 156.6 -10.9999 157.6C-13.3999 160.1 -15.8999 162.5 -18.3999 164.8C-21.4999 167.7 -24.6999 170.6 -27.5999 173.8C-28.3999 174.7 -32.9999 180.5 -34.1999 177.3C-34.9999 175.1 -30.4999 172.4 -29.0999 171.5C-25.3999 169 -21.8999 166.3 -18.5999 163.3C-16.6999 161.5 -14.7999 159.7 -12.9999 157.9C-11.7999 156.7 -7.49994 153.8 -10.0999 152.7C-11.0999 152.3 -12.7999 153.3 -13.7999 153.5C-15.2999 153.8 -16.8999 153.8 -18.4999 153.7C-23.8999 153.3 -29.4999 151.1 -34.0999 148.2C-36.6999 146.5 -46.8999 138.8 -38.5999 136.8C-32.7999 135.5 -25.6999 137.6 -20.3999 139.9C-14.7999 142.4 -11.1999 147 -8.29994 152.3C-5.89994 149.6 -3.29994 147.1 -1.19994 144.2C-0.799942 143.7 1.30006 141.2 0.800056 140.4C0.100056 139.5 -2.89994 140.8 -3.79994 140.9C-12.2999 141.8 -21.4999 135 -26.1999 128.3C-27.9999 125.8 -29.4999 122 -26.4999 119.9C-23.4999 117.8 -18.2999 119.1 -14.9999 119.9C-9.89994 121.2 -4.39994 123.6 -0.899944 127.7C1.00006 130 4.60006 136 2.50006 139C5.00006 135.6 9.50006 131.6 10.1001 127.2C10.6001 123.3 6.50006 124.8 3.70006 124.4C-4.39994 123 -13.7999 115.3 -17.3999 108C-19.6999 103.3 -15.8999 101.8 -11.2999 102.3C-5.99994 102.9 -0.999943 105.4 3.20006 108.6C5.60006 110.4 8.30006 112.8 9.70006 115.5C11.0001 118 10.4001 120.9 11.6001 123.3C13.9001 122.3 15.6001 117.1 16.5001 115C16.9001 114.1 18.0001 112.4 17.9001 111.4C17.7001 109.6 16.1001 109.4 14.6001 108.8C6.40006 105.5 -0.599945 97.2 -3.39994 88.9C-4.29995 86.1 -5.59994 81 -2.09994 79.6C1.30006 78.3 5.70006 82.2 7.90006 84.2C11.6001 87.3 14.8001 91 17.2001 95.2C19.8001 100 17.9001 105 19.0001 110C20.7001 106.4 29.2001 96 25.2001 92C23.2001 90.7 20.4001 90.6 18.3001 89.4C14.6001 87.5 11.0001 84.2 7.80006 81C3.70006 76.9 -0.39994 71.6 -0.799942 65.5Z" fill="#1E724E"/>
<path d="M27.3001 278.5L26.2001 277.6V277.5V277.6L18.9001 271.8L22.0001 266.7L14.5001 261.2C14.5001 261.6 7.50012 272 8.50012 274C9.80012 276.9 18.9001 282.6 22.7001 284.9C21.7001 285 20.7001 285.2 19.7001 285.5C18.7001 285.8 21.8001 286.6 22.6001 286.8C22.9001 286.9 23.5001 286.4 24.1001 285.8L24.3001 285.9L24.5001 285.4C25.2001 284.7 25.8001 284 26.4001 283.2C26.6001 282.4 26.6001 281.5 26.5001 280.7L27.3001 278.5Z" fill="#FFBE9D"/>
<path d="M49.7 276L50.7999 275.1V275V275.1L59.0999 269.8L51.0999 263.3L58 257.3C63.4 261.1 70.5 266.1 68.5 271.5C67.4 274.5 58.0999 280.2 54.2999 282.4C55.2999 282.5 56.2999 282.7 57.2999 283C58.1999 283.3 55.2 284.1 54.4 284.3C54.1 284.4 53.5 283.9 52.9 283.3L52.7 283.4L52.5 282.9C51.8 282.2 51.1999 281.5 50.5999 280.7C50.3999 279.9 50.4 279 50.5 278.2L49.7 276Z" fill="#FFBE9D"/>
<path d="M36.7001 251.4C37.4001 251.5 38.1001 251.4 38.7001 251.1C39.4001 250.9 40 250.5 40.5 250.1C41 249.7 41.4001 249.1 41.7001 248.5C42.0001 247.9 42.2001 247.2 42.2001 246.5C42.3001 243.7 42.4001 240.9 42.4001 240.9C42.4001 240.9 46.6 240.5 47 236.3C47.4 232.1 47.2001 222.4 47.2001 222.4C44.9001 221.2 42.3001 220.7 39.7001 220.9C37.1001 221.1 34.6001 221.9 32.4001 223.4L31.8 223.8L32 246.4C32 247.7 32.5001 248.9 33.4001 249.9C34.2001 250.7 35.4001 251.3 36.7001 251.4Z" fill="#FFBE9D"/>
<path d="M36.5 216.8C34 216.7 31.6 218.4 30.4 220.5C29.2 222.6 29 224.9 28.8 227.3C28.7 231.9 28.8 236.4 29.1 241C29.1 241.3 29.2 241.7 29.4 242C29.7 242.3 30.1 242.4 30.5 242.4C38.3 243.5 46.2 243.5 54 242.4C54.5 241.5 53.8 240.4 53 239.7C52.2 239 51.1 238.3 50.8 237.3C50.3 235.7 51.9 234 51.3 232.5C50.8 231.3 49.3 230.8 48.8 229.7C47.9 227.8 50.2 225.5 49.2 223.7C48.7 222.7 47.4 222.3 46.7 221.5C46 220.8 45.7 219.8 45.1 219.1C44 217.9 42.5 217.2 40.9 217.1C39.5 216.7 38 216.6 36.5 216.8Z" fill="#263238"/>
<path d="M30.5 221.6C29.4 222.1 28.9 223.4 28.8 224.6C28.6 225.8 28.7 227.1 28.2 228.2C27.7 229.3 26.6 230.3 26.3 231.5C25.9 233.1 27 235.1 26 236.4C25.4 237.3 24.1 237.5 23.4 238.3C22.3 239.3 22.4 241.1 22.6 242.5L36.6 242.4" fill="#263238"/>
<path d="M35.5999 220.1C36.3999 220.1 37.1999 219.8 37.7999 219.2C38.3999 218.6 38.6999 217.9 38.6999 217C38.6999 216.2 38.2999 215.4 37.7999 214.8C37.1999 214.2 36.4999 213.8 35.6999 213.7C34.8999 213.6 34.0999 213.8 33.3999 214.2C32.6999 214.6 32.0999 215.2 31.7999 215.9C31.4999 216.6 31.3999 217.3 31.5999 218.1C31.8999 218.8 32.3999 219.4 32.9999 219.7C33.6999 220.1 34.3999 220.3 35.1999 220.3C35.9999 220.3 36.6999 220.1 37.3999 219.7" fill="#263238"/>
<path d="M38.4001 217.4C38.5001 217.8 38.4001 218.2 38.2001 218.5C37.9001 219.4 37.2001 220 36.4001 220.4C35.6001 220.8 34.6001 220.8 33.8001 220.5C33.2001 220.3 32.8001 220 32.9001 219.9C32.9001 219.9 33.3001 220.1 33.9001 220.2C34.7001 220.4 35.6001 220.4 36.3001 220C37.1001 219.7 37.7001 219 38.0001 218.3C38.3001 217.8 38.3001 217.4 38.4001 217.4Z" fill="#FF725E"/>
<path d="M52.9001 266.4L49.4001 262.7L48.2001 268.2L48.4001 272.5C48.4001 272.7 53.0001 284 53.0001 284C54.9001 288.3 55.6001 292.9 55.2001 297.6L21.8001 296.6C21.8001 296.6 22.3001 286.9 26.0001 280.5C27.7001 277.6 27.3001 273.2 26.5001 269.9C26.2001 268.8 25.9001 267.1 25.8001 266V265.8L24.1001 268.9L13.6001 261.4C17.0001 254.9 22.0001 248.2 22.6001 247.7C24.8001 245.9 27.5001 244.9 30.3001 244.8L43.3001 244.9C44.0001 245 44.7001 245.1 45.3001 245.3C46.9001 245.4 49.7001 246.8 52.8001 249.7C55.4001 252.2 58.4001 255.3 61.5001 257.5L52.9001 266.4Z" fill="#455A64"/>
<path d="M31.3 245.1C31.3 245.1 31.4 245.2 31.5 245.3C31.7 245.5 31.8 245.7 32 245.9C32.6 246.7 32.9 247.6 33.1 248.6C33.2 249.3 33.2 250.1 32.9 250.8C32.7 251.5 32.3 252.1 31.8 252.7C31.2 253.3 30.4 253.8 29.5 254C28.6 254.2 27.7 254 26.8 254.2C26.4 254.3 26 254.4 25.6 254.7C25.3 255 25 255.3 24.8 255.7C24.4 256.5 24.2 257.3 23.7 258C23.5 258.4 23.2 258.7 22.8 258.9C22.5 259.1 22.1 259.2 21.7 259.2C21 259.2 20.3 259 19.8 258.6C18.9 258.1 18.2 257.5 17.5 256.8C17.3 256.6 17.2 256.4 17.1 256.2C17 256 17 256 17 256C17 256 17.2 256.3 17.7 256.8C18.3 257.5 19.1 258.1 20 258.5C20.6 258.8 21.2 259 21.8 259C22.1 259 22.5 258.9 22.8 258.7C23.1 258.5 23.4 258.2 23.6 257.9C24 257.3 24.3 256.4 24.7 255.6C24.9 255.2 25.2 254.8 25.5 254.5C25.9 254.2 26.3 254 26.8 253.9C27.8 253.8 28.7 253.9 29.5 253.8C30.3 253.6 31 253.2 31.6 252.6C32.1 252.1 32.5 251.4 32.7 250.7C32.9 250.1 32.9 249.4 32.9 248.8C32.8 247.9 32.5 246.9 32 246.1C31.5 245.4 31.3 245.1 31.3 245.1Z" fill="#F5F5F5"/>
<path d="M32.3999 259.6C32.5999 259.5 32.7999 259.5 32.9999 259.5C33.4999 259.5 34.0999 259.7 34.4999 260C34.7999 260.2 35.0999 260.5 35.1999 260.9C35.3999 261.3 35.4999 261.7 35.3999 262.2C35.3999 262.7 35.1999 263.2 34.7999 263.6C34.4999 264 33.9999 264.3 33.4999 264.4C32.9999 264.5 32.4999 264.5 31.9999 264.3C31.4999 264.1 31.0999 263.8 30.7999 263.4C30.4999 263 30.3999 262.6 30.3999 262.2C30.3999 261.8 30.4999 261.4 30.5999 261.1C30.7999 260.6 31.1999 260.2 31.6999 259.9C31.9999 259.7 32.1999 259.6 32.3999 259.6C32.3999 259.6 32.1999 259.7 31.8999 259.9C31.4999 260.2 31.1999 260.6 30.9999 261.1C30.8999 261.4 30.7999 261.8 30.7999 262.2C30.7999 262.6 30.9999 262.9 31.1999 263.2C31.4999 263.6 31.7999 263.9 32.1999 264C32.5999 264.2 33.0999 264.2 33.4999 264.1C33.8999 264 34.2999 263.7 34.5999 263.4C34.8999 263.1 35.0999 262.6 35.0999 262.2C35.0999 261.8 35.0999 261.5 34.9999 261.1C34.8999 260.8 34.5999 260.5 34.2999 260.3C33.8999 260 33.3999 259.8 32.8999 259.7C32.5999 259.6 32.3999 259.7 32.3999 259.6Z" fill="#F5F5F5"/>
<path d="M55.9 253.3C55.6 253.5 55.4 253.6 55.1 253.7C54.4 254.1 53.6 254.4 52.8 254.6C51.6 255 50.3 255 49.1 254.6C48.4 254.4 47.7 253.9 47.2 253.4C46.7 252.8 46.4 252.1 45.9 251.5C45.7 251.2 45.4 251 45 250.9C44.7 250.8 44.3 250.8 43.9 250.8C43.2 250.9 42.4 251 41.7 250.9C41.1 250.8 40.5 250.5 40 250.1C39.5 249.7 39.1 249.2 38.9 248.6C38.6 247.8 38.6 246.9 38.9 246.1C39 245.9 39.1 245.7 39.2 245.5C39.3 245.4 39.3 245.3 39.4 245.3C39.3 245.6 39.2 245.9 39.1 246.1C38.9 246.9 38.9 247.7 39.2 248.5C39.4 249 39.8 249.5 40.3 249.9C40.8 250.3 41.3 250.5 41.9 250.6C42.6 250.6 43.3 250.6 44 250.4C44.4 250.3 44.8 250.4 45.2 250.5C45.6 250.7 45.9 250.9 46.2 251.3C46.7 251.9 47 252.7 47.5 253.2C48 253.7 48.5 254.1 49.2 254.3C50.3 254.7 51.6 254.7 52.7 254.3C53.5 254.1 54.3 253.8 55 253.5C55.3 253.5 55.6 253.3 55.9 253.3Z" fill="#F5F5F5"/>
<path d="M51.3 278.8C51.3 278.9 51.3 278.9 51.3 278.8C51.2 279 51.2 279 51.1 279.1C50.9 279.4 50.6 279.7 50.3 279.9C49.8 280.3 49.2 280.5 48.6 280.7C47.8 280.9 46.9 280.8 46.2 280.5C45.3 280.1 44.5 279.5 44 278.6C43.4 277.7 43 276.6 42 276.1C41.5 275.8 40.9 275.7 40.3 275.6C39.6 275.5 39 275.2 38.5 274.8C38 274.3 37.6 273.7 37.5 273C37.3 272.3 37.4 271.6 37.7 271C38 270.4 38.5 269.8 39 269.4C39.5 269 40.1 268.6 40.6 268.2C41.1 267.8 41.5 267.3 41.7 266.8C41.9 266.2 41.9 265.7 41.8 265.1C41.7 264.5 41.7 263.9 41.6 263.4C41.6 262.8 41.8 262.3 42.1 261.8C42.4 261.4 42.8 261 43.2 260.8C43.6 260.5 44.1 260.4 44.6 260.3C45.4 260.2 46.3 260.4 47 260.8C47.5 261.1 48 261.4 48.5 261.9C48.8 262.2 49 262.5 49.3 262.8C49.4 262.9 49.5 263 49.5 263.1C49.5 263.1 49.2 262.7 48.4 262C48 261.6 47.5 261.3 46.9 261C46.2 260.6 45.4 260.5 44.6 260.6C44.1 260.7 43.7 260.8 43.3 261C42.9 261.2 42.5 261.6 42.3 262C42 262.4 41.9 263 41.9 263.5C41.9 264.1 42 264.6 42.1 265.2C42.2 265.8 42.2 266.5 42 267.1C41.8 267.7 41.4 268.3 40.8 268.7C40.3 269.1 39.7 269.5 39.2 269.9C38.7 270.3 38.2 270.8 37.9 271.3C37.7 271.9 37.6 272.5 37.8 273.1C37.9 273.7 38.3 274.3 38.7 274.7C39.6 275.6 41 275.3 42.1 276C42.6 276.3 43 276.8 43.3 277.3C43.6 277.8 43.9 278.3 44.1 278.7C44.6 279.5 45.3 280.2 46.2 280.5C46.9 280.8 47.7 280.9 48.5 280.7C49.1 280.6 49.6 280.4 50.1 280C50.6 279.6 51 279.2 51.3 278.8Z" fill="#F5F5F5"/>
<path d="M36.3001 286.5C36.5001 286.3 36.6001 286.1 36.6001 285.9C36.6001 285.6 36.6001 285.2 36.4001 284.9C36.3001 284.6 36.1001 284.3 35.8001 284.1C35.5001 283.7 35.1001 283.3 34.9001 282.9C34.6001 282.4 34.5001 281.8 34.6001 281.2C34.7001 280 35.2001 278.7 35.1001 277.4C35.1001 277.1 35.0001 276.8 34.9001 276.5C34.8001 276.2 34.6001 276 34.3001 275.8C33.8001 275.5 33.2001 275.3 32.6001 275.4C31.5001 275.5 30.4001 275.9 29.5001 275.9C29.1001 275.9 28.8001 275.9 28.4001 275.8C28.1001 275.7 27.7001 275.5 27.5001 275.3C27.4001 275.2 27.2001 275 27.2001 274.8C27.1001 274.7 27.1001 274.6 27.1001 274.6C27.2001 274.8 27.4001 275 27.6001 275.2C28.1001 275.6 28.8001 275.8 29.5001 275.7C30.4001 275.7 31.4001 275.2 32.6001 275.1C33.3001 275 33.9001 275.2 34.5001 275.6C34.8001 275.8 35.0001 276.1 35.2001 276.4C35.4001 276.7 35.5001 277.1 35.5001 277.4C35.6001 278.8 35.0001 280.1 35.0001 281.2C34.9001 281.7 35.0001 282.3 35.2001 282.8C35.4001 283.2 35.7001 283.6 36.0001 284C36.3001 284.3 36.5001 284.7 36.6001 285.1C36.7001 285.4 36.7001 285.7 36.7001 286C36.7001 286.4 36.3001 286.5 36.3001 286.5Z" fill="#F5F5F5"/>
<path d="M23.1 289.6C22.5 290.6 -2.5 384.4 -2.5 384.4L6.3 387.2L39.9 298L23.1 289.6Z" fill="#FFBE9D"/>
<path d="M38.3 297.1L56.8 386.4L67 386.8L55.3 292.3L38.3 297.1Z" fill="#FFBE9D"/>
<path d="M23.5001 286.3L5.1001 352.2L18.7001 357.8L38.3001 302.4L50.1001 360L64.4001 357.2L54.7001 287.3L53.4001 287.1C52.6001 287 51.8001 287 51.0001 287.2L50.1001 287.4C49.1001 287.6 48.0001 287.6 47.0001 287.4L46.4001 287.2C45.5001 287 44.5001 287 43.5001 287.2L41.9001 287.5C40.7001 287.7 39.5001 287.7 38.4001 287.3L36.8001 286.8C35.7001 286.4 34.6001 286.3 33.5001 286.5L32.0001 286.8C31.2001 286.9 30.3001 286.9 29.5001 286.8L27.0001 286.3C26.0001 286.1 24.9001 286.1 23.8001 286.2L23.5001 286.3Z" fill="#263238"/>
<path d="M48.4001 298.8C48.1001 298.9 47.9001 299 47.6001 299C47.1001 299.1 46.3001 299.3 45.3001 299.5C43.3001 299.9 40.6001 300.4 37.6001 300.8C34.6001 301.2 31.8001 301.5 29.9001 301.7C28.9001 301.8 28.1001 301.9 27.5001 301.9C27.2001 301.9 26.9001 301.9 26.6001 301.9C26.9001 301.8 27.2001 301.8 27.5001 301.8L29.8001 301.5C31.8001 301.3 34.5001 300.9 37.5001 300.5C40.5001 300.1 43.2001 299.6 45.2001 299.3L47.5001 298.9C47.9001 298.9 48.1001 298.8 48.4001 298.8Z" fill="#455A64"/>
<path d="M67.6 386.9V385.8L56.8 386.1L56.9001 389.6H57.6C60.6 389.7 72.7 389.8 74.6 389.2C76.7 388.5 67.6 386.9 67.6 386.9Z" fill="#FF725E"/>
<g opacity="0.6">
<path opacity="0.6" d="M60.7001 389.4C60.5001 388.5 60 387.8 59.3 387.3C58.6 386.8 57.7 386.6 56.8 386.7L56.9001 389.5L60.7001 389.4Z" fill="white"/>
</g>
<g opacity="0.6">
<path opacity="0.6" d="M72 387.8C72 387.8 75.2001 388.6 74.8001 389.1C74.4001 389.6 62.2 389.9 56.8 389.6V389.4L71.1 389.1C71.1 389.1 71.4 387.8 72 387.8Z" fill="white"/>
</g>
<path d="M56.7 389.4C56.8 389.4 56.8 389.4 56.9 389.4H57.4H59.2999C60.8999 389.4 63.1999 389.4 65.6999 389.3C68.1999 389.2 70.4999 389.1 72.0999 389L74 388.9H74.5C74.6 388.9 74.5999 388.9 74.6999 388.9H74.5H74L72.0999 389C70.4999 389.1 68.1999 389.2 65.6999 389.2C63.1999 389.3 60.8999 389.3 59.2999 389.3H57.4H56.9L56.7 389.4Z" fill="#263238"/>
<path d="M71.1001 389.3C71.2001 389 71.3001 388.7 71.4001 388.4C71.6001 388.1 71.8001 387.9 72.0001 387.7C71.7001 387.8 71.4001 388 71.2001 388.3C71.1001 388.6 71.1001 388.9 71.1001 389.3Z" fill="#263238"/>
<path d="M67.8999 387.9C67.8999 387.9 68.0999 387.7 68.1999 387.5C68.3999 387.3 68.3999 387.1 68.3999 387C68.3999 387 68.1999 387.2 68.0999 387.4C67.9999 387.6 67.8999 387.8 67.8999 387.9Z" fill="#263238"/>
<path d="M67 387.5C67 387.5 67.2 387.4 67.4 387.3C67.6 387.1 67.7 387 67.7 387C67.7 387 67.5 387.1 67.3 387.2C67.1 387.3 67 387.4 67 387.5Z" fill="#263238"/>
<path d="M66.5 386.5C66.7 386.6 66.9 386.6 67.1 386.6C67.3 386.6 67.5 386.6 67.7 386.5C67.5 386.4 67.3 386.4 67.1 386.4C66.8 386.4 66.6 386.5 66.5 386.5Z" fill="#263238"/>
<path d="M66.3 385.9C66.7 386.1 67.2 386.1 67.6 386C67.4 386 67.2 386 67 386C66.7 385.9 66.5 385.9 66.3 385.9Z" fill="#263238"/>
<path d="M68.3 387C68.5 387 68.8 387 69 387C69.2 387 69.5 386.9 69.7 386.8C69.8 386.8 70 386.7 70.1 386.6L70.2 386.5C70.2 386.5 70.2 386.4 70.3 386.4V386.3L70.2 386.2C69.9 386.1 69.6 386.1 69.4 386.1C69.2 386.1 68.9 386.3 68.7 386.6C68.6 386.7 68.5 386.9 68.5 387C68.5 387.1 68.5 387.1 68.5 387.2C68.6 387 68.7 386.8 68.8 386.6C69 386.4 69.2 386.3 69.4 386.2C69.7 386.1 70 386.1 70.2 386.2C70.3 386.3 70.3 386.4 70.2 386.5C70.1 386.6 70 386.6 69.8 386.7C69.6 386.8 69.3 386.8 69.1 386.9C68.5 387 68.3 387 68.3 387Z" fill="#263238"/>
<path d="M68.3999 387C68.3999 386.9 68.4999 386.9 68.4999 386.8C68.4999 386.7 68.4999 386.6 68.4999 386.6C68.4999 386.4 68.3999 386.3 68.2999 386.1C68.1999 386 68.1999 385.9 68.0999 385.9C67.9999 385.8 67.8999 385.8 67.7999 385.8H67.6999C67.6999 385.8 67.5999 385.8 67.5999 385.9V386V386.1C67.5999 386.2 67.6999 386.3 67.6999 386.4C67.7999 386.5 67.8999 386.7 67.9999 386.8C68.0999 386.9 68.1999 387 68.3999 387C68.2999 387 68.1999 386.9 67.9999 386.7C67.8999 386.6 67.7999 386.5 67.6999 386.3C67.5999 386.2 67.4999 385.9 67.6999 385.9C67.8999 385.9 67.9999 386 68.1999 386.2C68.2999 386.3 68.3999 386.5 68.3999 386.6C68.3999 386.7 68.3999 386.9 68.3999 387Z" fill="#263238"/>
<path d="M56.8 386.6C56.8 386.6 57.1 386.6 57.6 386.6C58.2 386.7 58.8 386.9 59.3 387.2C59.8 387.5 60.2001 388 60.4001 388.6C60.6001 389 60.6 389.3 60.6 389.3C60.6 389.2 60.6 389.2 60.6 389.1C60.6 388.9 60.5 388.7 60.5 388.6C60.3 388 59.9001 387.5 59.4001 387.1C58.9001 386.7 58.2 386.5 57.6 386.5C57.4 386.5 57.2 386.5 57 386.5C57 386.6 56.9 386.6 56.8 386.6Z" fill="#263238"/>
<path d="M62.1001 388.4C63.1001 388.6 64.2001 388.5 65.2001 388.3C65.2001 388.3 64.5001 388.3 63.6001 388.3C62.8001 388.4 62.1001 388.4 62.1001 388.4Z" fill="#263238"/>
<path d="M60 388.5C60 388.5 60.1 388.6 60.1 388.8C60.2 388.9 60.2 389.1 60.3 389.1C60.3 389.1 60.4 388.9 60.3 388.8C60.1 388.5 60 388.4 60 388.5Z" fill="#263238"/>
<path d="M59.1001 387.6C59.1001 387.6 59.2001 387.7 59.3001 387.8C59.4001 387.9 59.5001 388 59.5001 387.9C59.5001 387.9 59.5001 387.8 59.3001 387.7C59.3001 387.6 59.2001 387.5 59.1001 387.6Z" fill="#263238"/>
<path d="M58 387.2C58 387.2 58.1 387.2 58.3 387.3C58.5 387.4 58.6 387.4 58.6 387.4C58.6 387.4 58.5 387.2 58.3 387.2C58.1 387.2 58 387.1 58 387.2Z" fill="#263238"/>
<path d="M57.2 387L57.2999 387.1C57.3999 387.1 57.5 387.1 57.5 387.1L57.4 387C57.3 387 57.2 387 57.2 387Z" fill="#263238"/>
<path d="M-2.4 382.5L-4 389.5H6.8L7.3 384.9L-2.4 382.5Z" fill="#FF725E"/>
<path d="M6.99995 388.5C6.49995 388.6 5.99995 388.6 5.39995 388.6C4.39995 388.6 3.09995 388.6 1.59995 388.5L-2.20005 388.3C-2.70005 388.3 -3.20005 388.3 -3.80005 388.2C-3.30005 388.1 -2.80005 388.1 -2.20005 388.1C-1.20005 388.1 0.0999513 388.1 1.59995 388.2L5.39995 388.4C5.89995 388.4 6.39995 388.4 6.99995 388.5Z" fill="#263238"/>
<path d="M2.3999 383.9C2.4999 384.7 2.4999 385.4 2.3999 386.2C2.3999 387 2.2999 387.7 2.0999 388.5C1.9999 387.7 1.9999 387 2.0999 386.2C2.0999 385.4 2.1999 384.6 2.3999 383.9Z" fill="#263238"/>
<path opacity="0.6" d="M-4 389.5H6.8L6.9 388.5L-3.8 388.2L-4 389.4" fill="white"/>
<path d="M73.3 188C70.8 188 68.3 188.4 65.9 189.1L60.1 182.5C63.8 178.4 65.8 173.2 65.8 167.7C65.8 154.4 53.5 143.6 38.4 143.6C23.3 143.6 11 154.5 11 167.8C11 181.1 23.3 191.9 38.4 191.9C45.1 192 51.6 189.7 56.9 185.6L62.3 190.6C57.1 193.3 53.6 197.9 53.6 203.1C53.6 209.7 59.2 215.4 67 217.4L63.9 226.4L71.8 218.2C72.3 218.2 72.8 218.3 73.4 218.3C84.3 218.3 93.1 211.5 93.1 203.2C93 194.8 84.2 188 73.3 188Z" fill="#263238" stroke="#263238" stroke-width="0.6188" stroke-miterlimit="10"/>
<path d="M71.3 186.4C68.8 186.4 66.3 186.8 63.9 187.5L58.1 180.9C61.8 176.8 63.8 171.6 63.8 166.1C63.8 152.8 51.5 142 36.4 142C21.3 142 9 152.8 9 166.1C9 179.4 21.3 190.2 36.4 190.2C43.1 190.3 49.6 188 54.9 183.9L60.3 188.9C55.1 191.6 51.6 196.2 51.6 201.4C51.6 208 57.2 213.7 65 215.7L61.9 224.7L69.8 216.5C70.3 216.5 70.8 216.6 71.3 216.6C82.2 216.6 91 209.8 91 201.5C91 193.1 82.2 186.4 71.3 186.4Z" fill="white" stroke="#263238" stroke-width="0.6188" stroke-miterlimit="10"/>
<path d="M65.1 202.2C65.1 201.9 65 201.5 64.8 201.2C64.6 200.9 64.3 200.7 64 200.6C63.7 200.5 63.3 200.4 63 200.5C62.7 200.6 62.3 200.7 62.1 201C61.9 201.2 61.7 201.6 61.6 201.9C61.5 202.2 61.6 202.6 61.7 202.9C61.8 203.2 62.1 203.5 62.3 203.7C62.6 203.9 62.9 204 63.3 204C63.8 204 64.2 203.8 64.5 203.5C64.9 203.1 65.1 202.7 65.1 202.2Z" fill="#3A6951"/>
<path d="M73.4999 202.2C73.4999 201.9 73.3999 201.5 73.1999 201.2C72.9999 200.9 72.6999 200.7 72.3999 200.6C72.0999 200.5 71.6999 200.4 71.3999 200.5C71.0999 200.6 70.6999 200.7 70.4999 201C70.2999 201.2 70.0999 201.6 69.9999 201.9C69.8999 202.2 69.9999 202.6 70.0999 202.9C70.1999 203.2 70.4999 203.5 70.6999 203.7C70.9999 203.9 71.2999 204 71.6999 204C72.1999 204 72.5999 203.8 72.8999 203.5C73.2999 203.1 73.4999 202.7 73.4999 202.2Z" fill="#3A6951"/>
<path d="M81.9001 202.2C81.9001 201.9 81.8001 201.5 81.6001 201.2C81.4001 200.9 81.1001 200.7 80.8001 200.6C80.5001 200.5 80.1001 200.4 79.8001 200.5C79.5001 200.6 79.1001 200.7 78.9001 201C78.7001 201.2 78.5001 201.6 78.4001 201.9C78.3001 202.2 78.4001 202.6 78.5001 202.9C78.6001 203.2 78.9001 203.5 79.1001 203.7C79.4001 203.9 79.7001 204 80.1001 204C80.6001 204 81.0001 203.8 81.3001 203.5C81.8001 203.1 81.9001 202.7 81.9001 202.2Z" fill="#3A6951"/>
<path opacity="0.8" d="M29.8 162.8C29.9 162.7 30.2 162.6 30.5 162.6C30.8 162.6 30.9001 162.6 31.1 162.7C31.2001 162.8 31.3001 162.9 31.2001 163C31.2001 163.1 31.1 163.5 31.1 164C31 164.6 31 164.9 31 165C30.9 165.2 30.7 165.4 30.5 165.4C30.3 165.4 30.1 165.3 30 165C30 165 29.9 164.5 29.9 163.7C29.5 163.7 28.3 163.8 26.4 163.9C24.5 164 23.5001 164 23.2001 164.1C23.2001 164.5 23.1 164.9 23.1 165.1C23 165.4 22.8001 165.5 22.6 165.5C22.4 165.5 22.2 165.4 22.1 165.1C22.1 165 22 164.7 22 164C21.9 163.4 21.9 163 21.9 162.9C21.9 162.8 21.9 162.7 22 162.6C22.1 162.5 22.3001 162.5 22.6 162.5C22.9 162.5 23.1001 162.6 23.2001 162.7H23.8L23.4 162.1C23.3 162 23.3 161.8 23.4 161.7C23.5 161.5 23.6 161.4 23.9 161.2C24.1 161.1 24.4 161.1 24.5 161.1C24.7 161.1 24.8 161.2 24.8 161.4C25.1 162.3 25.2001 162.8 25.2001 162.7H26.3L25.8 161.6C25.7 161.5 25.7 161.3 25.8 161.2C25.9 161 26.1 160.9 26.3 160.8C26.5 160.7 26.8 160.7 26.9 160.8C27.1 160.9 27.2001 161 27.2001 161.1C27.3001 162 27.4 162.5 27.4 162.6V162.7H28.1V162.6C28.1 162.5 28.2 162.3 28.5 161.8C28.7 161.4 28.8 161.1 28.9 161C29 160.9 29.1001 160.8 29.2001 160.8C29.3001 160.8 29.6 160.8 29.8 161C30 161.1 30.1 161.3 30.2001 161.4C30.3001 161.6 30.2001 161.7 30.1 161.8C30 161.9 29.9 162 29.8 162.2C29.6 162.5 29.4 162.6 29.4 162.7L29.8 162.8ZM26.7001 166.3L27.2001 165.8C25.2001 165.9 24.1 166 24 166C23.8 166 23.7 166 23.6 165.8C23.5001 165.7 23.4 165.5 23.4 165.3C23.4 165.1 23.4 164.9 23.6 164.8C23.7 164.7 23.8 164.6 24 164.6C24.1 164.6 24.8 164.6 26 164.7C27.2 164.7 27.9 164.8 28.3 164.8C28.4 164.7 28.6 164.6 28.8 164.7C29 164.7 29.2 164.8 29.4 165C29.6 165.2 29.7001 165.4 29.7001 165.6C29.7001 165.8 29.6 166 29.4 166.1L27.7001 167.2C29.5001 167.3 30.6 167.3 31 167.3C31.6 167.3 31.8 167.5 31.8 167.7C31.8 168 31.5 168.2 31 168.2C30.7 168.2 29.6 168.3 27.6 168.4C27.6 169.2 27.5 169.8 27.3 170.4C27.2 171 27 171.3 26.8 171.3C26.7 171.3 26.6 171.3 26.5 171.3C26.5 171.3 26.2001 171.2 25.7001 171C25.3001 170.8 25 170.7 24.9 170.7C24.7 170.6 24.6 170.4 24.6 170.2C24.7 170 24.8 169.9 25 169.9L26.1 170.1C26.1 169.5 26.1 169 26.1 168.5C23.8001 168.6 22.5001 168.7 22.2001 168.7C22.0001 168.7 21.8 168.7 21.6 168.5C21.4 168.3 21.3 168.1 21.3 167.9C21.3 167.7 21.4 167.5 21.5 167.3C21.7 167.1 21.9 167 22.1 167.1C22.3001 167.1 23.5 167.2 25.8 167.2C25.8 167 25.8 166.8 25.9 166.7C26 166.6 26.2 166.5 26.5 166.4H26.7001V166.3ZM38.6 169.4L42 169.5C42.6 169.5 42.9001 169.7 42.9001 170C42.9001 170.3 42.6 170.5 42 170.6C41.6 170.6 40.2 170.7 37.8 170.9C35.4 171 34 171.1 33.6 171.2C33.4 171.2 33.2 171.1 33 170.9C32.8 170.7 32.7001 170.5 32.7001 170.2C32.7001 169.9 32.8001 169.7 32.9001 169.5C33.1001 169.3 33.3 169.2 33.5 169.2C33.9 169.2 35.2001 169.3 37.4001 169.3V169.2C37.4001 169 37.3 168.4 37.3 167.4C36.1 167.5 35.4 167.5 35 167.5C34.8 167.5 34.6 167.4 34.5 167.3C34.4 167.1 34.3 166.9 34.3 166.7C34.3 166.5 34.4 166.3 34.5 166.1C34.6 165.9 34.8 165.9 35 165.9C35.3 165.9 36.1 166 37.2001 166L37.1 164.4C35.9 164.5 35.3 164.5 35.1 164.5C34.9 164.5 34.8001 164.5 34.7001 164.4C34.3001 165.1 34.1 165.6 33.8 166C33.6 166.4 33.3 166.5 33.1 166.4C32.8 166.3 32.7 166 32.8 165.6C32.8 165.4 33.0001 164.8 33.4001 163.8C33.8001 162.8 34 162.2 34 162C34.1 161.8 34.2001 161.7 34.4001 161.6C34.6001 161.5 34.8 161.5 35.1 161.6C35.3 161.7 35.5 161.8 35.6 162C35.7 162.2 35.7 162.4 35.6 162.6L35.5 162.9L37 163C37 162.5 36.9001 162 36.9001 161.7C36.9001 161.5 37.0001 161.2 37.2001 161.1C37.4001 160.9 37.6001 160.8 37.9001 160.8C38.2001 160.8 38.4 160.9 38.6 161.1C38.8 161.3 38.9 161.5 38.8 161.7L38.7001 163.1C40.1 163.2 41 163.2 41.3 163.2C41.8 163.2 42 163.4 42 163.7C42 164 41.8 164.2 41.3 164.2C41.1 164.2 40.2 164.3 38.6 164.4L38.5 166.1C39.9 166.2 40.7001 166.2 40.9001 166.2C41.4001 166.2 41.6 166.4 41.6 166.7C41.6 167 41.4001 167.2 40.9001 167.2C40.5001 167.3 39.7001 167.3 38.4001 167.4C38.4001 168 38.3 168.6 38.3 169.3L38.6 169.4ZM50.2001 168.9C50.1 168.8 50 168.6 50.1 168.4C50.1 168.2 50.3 168 50.5 167.9C50.7001 167.8 50.9 167.7 51.1 167.7C51.3 167.7 51.4 167.8 51.5 168L52.3 169.2C52.7 169.8 53 170.2 53 170.4C53.1 170.7 53.0001 170.9 52.9001 171C52.7001 171.2 52.4001 171.2 52.2001 171C52.1 170.9 51.8001 170.7 51.4001 170.2C51.3001 170.2 51.3001 170.3 51.2001 170.3C50.9001 170.4 50.1 170.5 48.7001 170.7L46.1 171.1C45.9 171.1 45.7001 171.1 45.5 171C45.3 170.9 45.2001 170.7 45.2001 170.4C45.2001 170.2 45.2 169.9 45.3 169.8C45.4 169.6 45.6 169.5 45.8 169.5C45.9 169.4 46.3 168.9 47 168C46.1 168 45.5 168.1 45.2001 168.1C45 168.1 44.8 168 44.6 167.9C44.4 167.7 44.4 167.5 44.3 167.3C44.3 167.1 44.4 166.8 44.5 166.7C44.7001 166.5 44.9 166.4 45.1 166.4C45.5 166.4 46.8 166.5 49 166.5C51.3 166.6 52.6001 166.6 52.9001 166.6C53.4001 166.6 53.7001 166.8 53.7001 167.1C53.7001 167.4 53.4001 167.6 52.9001 167.6C52.6001 167.6 51.3 167.7 49 167.8C49 168 48.9 168.1 48.8 168.2L47.6 169.3C48.7 169.2 49.6001 169.2 50.4001 169.2L50.2001 168.9ZM54.1 165.3C53.9 165.5 53.6001 165.5 53.2001 165.3C53 165.2 52.3 164.8 51.3 164.2C50.2 163.6 49.6 163.2 49.3 163.1C49.2 163 49 162.9 49 162.8C48.7001 163 48.1 163.4 47.2001 164.1C49.6 164.2 50.9001 164.3 51.2001 164.3C51.6 164.4 51.8 164.5 51.8 164.8C51.8 165.1 51.6 165.2 51.2001 165.3C50.9001 165.3 50.3 165.4 49.1 165.5C47.7 165.6 47 165.6 47 165.6C46.8 165.6 46.7 165.5 46.6 165.4C46.5 165.3 46.4001 165.1 46.4001 164.8C46.4001 164.7 46.4001 164.6 46.4001 164.6C45.7001 165.1 45.2 165.5 45.1 165.5C44.7 165.7 44.4001 165.7 44.2001 165.5C44 165.2 44.1001 165 44.4001 164.7C44.6001 164.5 45.3 163.9 46.6 162.7C47.9 161.5 48.6 160.9 48.8 160.7C49 160.6 49.2001 160.5 49.4001 160.5C49.6001 160.5 49.8 160.6 50 160.8C50.2001 161 50.3001 161.3 50.2001 161.5L52 162.8C53 163.5 53.5 164 53.8 164.1C54.1 164.8 54.2 165 54.1 165.3Z" fill="#094325"/>
<path d="M85.4 381.7C91.3 385.8 89.6 436.2 82.1 448.7C74.4 450.3 60.9 449 55.6 452.1C63.8 453.6 80.1 458.5 80.1 458.5L69.7 485.6L41 482.9L65 494.6L50.5 517.3L24 511.6L42.8 524.7L20.9 545.6L-7.79997 537L11.2 549.2L-2.49997 560.8L-25.7 558L-15.3 566.9C-15.3 566.9 -31 578.7 -41.8 578.3C-52.6 577.9 -62.3 577.9 -65.4 575.2C-68.5 572.5 -70.7 550.6 -68.7 541.5C-66.7 532.4 -64.7 525.7 -64.7 525.7L-59.8 531.7L-60 512.4L-48.5 496.2L-46.3 511.5L-42.8 487.5L-24 472.8L-19.4 496.1L-16.5 464.6L0.300026 449L6.30003 471.8L7.80003 439.4L27.2 423.4L31.2 444.3L33.6 416.5L52.6 404.9L54.8 420.7L62.1 398C62.1 398 75.1 389.7 80.9 381.8C82.9 378.3 85.4 381.7 85.4 381.7Z" fill="#00737F"/>
<path d="M85.4 689.5C95.8 690.1 135.9 662.4 138.9 670C141.9 677.6 135 697.9 121.2 704.5C107.4 711.1 85.7 708.3 78.2 712.3C70.7 716.3 68.8 721.6 69.1 723.4C69.5 725.2 117.1 720.7 123.4 730.8C129.6 740.9 120.2 751.3 106.4 755.4C92.6 759.6 65.9 739.2 58.2 740.1C50.5 741 46.2 747.3 48.6 748.7C51 750.2 80.1 759.6 88.3 766.8C96.5 774.1 97.4 783 80.7 781.6C64 780.2 45 761.9 39.3 763.5C33.6 765.1 35.1 768.4 37.7 770.4C40.4 772.3 59.5 782.6 65.5 787.6C71.5 792.7 58.5 798.2 53.8 798.8C49.1 799.4 36.3 793.1 33 790.2C29.8 787.4 28.6 780.5 25.2 780C21.8 779.5 19.9 788.9 18.2 789.7C16.5 790.5 8.19997 785.9 7.99997 783.4C7.79996 780.8 13.9 777 13.3 773.1C12.7 769.2 5.79996 771.5 0.599965 765C-4.60003 758.5 -13.2 737.8 -10.1 730.8C-7.00004 723.8 12.7 752.2 19.5 756.2C24.6 758.3 28.4 756 26.4 752.4C24.4 748.7 -12 714 -11 703.8C-9.90004 693.6 -8.20004 696.3 -3.30003 699.4C1.59997 702.4 24 732.8 29.4 729.7C35 726.5 -0.100036 687.5 1.19996 674C2.39996 660.4 7.79996 646.4 14.3 648.3C20.9 650.2 28.7 693.7 38.4 697.9C48.1 702.1 40.8 693.7 39.6 685.9C38.4 678.1 26.4 645.8 29.7 638.9C33 632 34.7 624.1 42.4 627.8C50.1 631.5 53.4 670.6 58.6 670.6C63.8 670.6 56.5 648.4 61 634C65.6 619.5 79.6 610.4 83.1 613.6C86.6 616.9 86.4 616.7 84.5 620.4C82.6 624.1 74.3 635.2 73.1 643.6C71.9 652 69.5 657.3 72.1 657.3C74.7 657.3 78.6 649.7 80.5 643C82.4 636.3 85.5 621.5 89.5 618.8C93.5 616.1 105.1 603.6 118 616.7C131 629.9 122.7 643.4 116.5 652C110.3 660.6 102.6 665.5 94.6 672.5C86.7 679.6 80.7 689.2 85.4 689.5Z" fill="#00737F"/>
<path d="M417.4 847C419.6 850.3 417.8 838.9 420.5 830.6C423.2 822.3 427.1 817 427.1 803.6C427.1 790.2 415.6 767.3 410.4 752.2C405.1 737.1 406.4 728.5 394.5 708.4C382.6 688.3 367.6 667 352.3 659.5C336.9 652 333.8 633.5 315.3 625.7C296.8 617.9 259 632.3 243.7 621.5C274.9 655.1 279.4 689.8 294.3 714.5C309.3 739.2 314.5 729.9 330.4 750.3C346.2 770.7 338.4 772.9 353.7 796.2C371.5 823.1 399.8 821.4 417.4 847Z" fill="#1E724E"/>
<path d="M273.3 721.3C271 719.6 274.8 702.3 271.2 694.6C267.6 686.8 266.6 698.7 262.8 695.8C259 693 258.8 674.9 248.3 664.1C245.9 661.7 243.8 663.5 243.9 666.4C244 669.3 245.4 672.5 242.2 673.4C239 674.3 237 663.1 231 657.8C225 652.5 221.7 652.9 220.1 654.8C218.5 656.7 222.3 659.4 219.4 660.1C216.4 660.8 213.2 654.9 208.6 651.7C204 648.5 200.2 645.9 198.1 647.6C196 649.3 199.7 651.2 196.7 652.9C193.7 654.6 188.3 645.1 182.6 641.6C176.9 638.1 180.6 645 177.4 646.7C174.1 648.4 170 643.5 165.9 643.5C161.7 643.5 162.7 646.7 157.9 648.8C153.1 650.9 145.7 647.2 143.5 648.9C141.3 650.6 145.5 653.2 146.2 661.7C146.8 670.2 143.2 674.6 144.9 680.2C146.7 685.8 157.1 692.7 156.1 695.8C155.2 698.9 146.4 692.9 147.2 696.5C148 700.1 150.8 705.5 154.3 708.5C157.8 711.5 164.4 713.6 164.6 716C164.8 718.4 155.8 716.5 155.9 718.8C156.1 722.5 169.6 729.2 170.8 733.3C172 737.4 160.6 736.8 163.1 739.7C165.7 742.5 177.4 744.7 179.5 748.5C181.6 752.3 169 748.5 170.6 752.7C172.1 756.9 176.2 759.4 181.2 761.9C186.2 764.4 192 764.3 192.2 767.9C192.4 771.5 179.1 770.5 181.5 773.8C184 777.1 199.9 776.3 202 779.4C204.1 782.5 193.2 781.5 197.8 785.4C202.4 789.3 219.1 789.3 220.7 793.7C222.3 798.1 205.6 792.4 210.6 798.9C215.6 805.4 236.5 808.7 243.4 807.4C259.9 805 275.5 787.7 279.8 778C284.1 768.3 283.6 767.6 283.1 764.3C282.6 761 275 768.9 278.1 760.7C281.2 752.6 286.1 751.2 285.9 744.2C285.8 737.1 280.8 747.9 282 739.7C283.2 731.5 286.2 721 282.2 717.3C276.1 711.7 276.4 723.6 273.3 721.3Z" fill="#E2A14B"/>
<path d="M260.7 763.4C243.1 740.3 199.6 688.2 166.3 664.6" stroke="white" stroke-width="1.7192"/>
<path d="M237 734.6L203.2 743.8M245.5 743.3L253.3 707L245.5 743.3ZM232.8 728.8L229.5 694.3L232.8 728.8ZM197.4 690.8L207.5 668.8L197.4 690.8ZM183.9 679.4L170.1 682.4L183.9 679.4ZM214.4 709.6L179.4 709L214.4 709.6Z" stroke="white" stroke-width="1.7192"/>
<path d="M361.5 293.7H305.8C305 293.7 304.3 293.9 303.6 294.1C302.9 294.3 302.3 294.8 301.7 295.4C301.2 295.9 300.7 296.6 300.4 297.3C300.1 298 300 298.8 300 299.5V332.7C300 333.5 300.1 334.2 300.4 334.9C300.7 335.6 301.1 336.2 301.7 336.8C302.2 337.3 302.9 337.8 303.6 338.1C304.3 338.4 305.1 338.5 305.8 338.5H334.9L342.2 352.6L343.5 338.5H361.5C362.3 338.5 363 338.3 363.7 338.1C364.4 337.8 365 337.4 365.6 336.8C366.1 336.3 366.6 335.6 366.9 334.9C367.2 334.2 367.3 333.4 367.3 332.7V299.5C367.3 298.7 367.2 298 366.9 297.3C366.6 296.6 366.2 296 365.6 295.4C365.1 294.9 364.4 294.4 363.7 294.1C363 293.9 362.2 293.7 361.5 293.7Z" fill="#263238" stroke="#263238" stroke-width="0.557" stroke-linecap="round" stroke-linejoin="round"/>
<path d="M359.5 291H303.8C302.3 291 300.8 291.6 299.7 292.7C298.6 293.8 298 295.3 298 296.8V330C298 331.5 298.6 333 299.7 334.1C300.8 335.2 302.3 335.8 303.8 335.8H332.9L340.2 349.9L341.5 335.8H359.5C361 335.8 362.5 335.2 363.6 334.1C364.7 333 365.3 331.5 365.3 330V296.8C365.3 295.3 364.7 293.8 363.6 292.7C362.5 291.6 361.1 291 359.5 291Z" fill="white" stroke="#263238" stroke-width="0.557" stroke-miterlimit="10"/>
<path opacity="0.8" d="M318.1 302.8C318.1 303.7 318 305.3 317.9 307.7L321.5 307.9C321.5 307.5 321.4 306.6 321.4 305.3C321.3 303.9 321.3 303 321.3 302.7C319.8 302.7 318.7 302.7 318.1 302.8ZM322 301.6C322.3 301.6 322.5 301.7 322.6 301.8C322.8 301.9 322.8 302.1 322.8 302.3C322.8 302.5 322.7 303.5 322.6 305.3C322.5 307 322.5 308 322.4 308.2C322.4 308.3 322.4 308.4 322.3 308.5C322.3 308.6 322.2 308.6 322.2 308.7C322.1 308.8 322.1 308.8 322 308.8C322 308.8 322 308.8 321.9 308.8H321.8C321.7 308.8 321.1 308.9 320 308.9C318.8 309 318 309 317.7 309C317.7 310 317.6 310.6 317.6 310.9C317.6 311.5 317.4 311.7 317.1 311.7C316.8 311.7 316.6 311.4 316.6 310.9C316.6 310.6 316.5 309.1 316.4 306.5C316.3 303.9 316.2 302.4 316.2 302.1C316.2 301.9 316.3 301.7 316.5 301.5C316.7 301.3 316.9 301.3 317.2 301.3H317.3C317.4 301.3 317.4 301.3 317.5 301.3C317.7 301.3 318.4 301.4 319.5 301.4L322 301.6ZM325.4 300.8C325.1 300.8 324.9 300.7 324.7 300.5C324.5 300.3 324.4 300 324.4 299.8C324.4 299.6 324.5 299.3 324.7 299.1C324.9 298.9 325.2 298.8 325.4 298.8C325.7 298.8 325.9 298.9 326.1 299.1C326.3 299.3 326.4 299.5 326.4 299.8C326.4 300.1 326.3 300.3 326.1 300.5C325.9 300.7 325.6 300.8 325.4 300.8ZM325.4 309.1C325.1 309.1 324.9 308.9 324.8 308.4C324.8 308.2 324.7 307.1 324.6 305.2C324.5 303.4 324.5 302.3 324.4 302C324.4 301.8 324.4 301.6 324.6 301.5C324.8 301.4 325 301.3 325.3 301.3C325.6 301.3 325.8 301.4 326 301.5C326.2 301.7 326.2 301.8 326.2 302C326.2 302.3 326.1 303.3 326 305.2C325.9 307.1 325.9 308.1 325.8 308.4C325.9 308.9 325.7 309.1 325.4 309.1ZM333.5 301.4C333.7 301.5 333.9 301.6 334 301.8C334.1 302 334.1 302.2 334 302.4L332.7 305.6C331.9 307.4 331.5 308.5 331.3 308.7C331.1 309 330.9 309.2 330.7 309.2C330.5 309.2 330.3 309 330.1 308.6C330 308.4 329.6 307.3 328.8 305.6C328.1 303.8 327.6 302.8 327.5 302.5C327.4 302.3 327.4 302.1 327.5 301.8C327.6 301.6 327.8 301.4 328 301.4H328.1C328.3 301.3 328.6 301.3 328.8 301.4C329 301.5 329.2 301.7 329.2 301.9C329.2 301.8 329.7 303.4 330.8 306.9C331.9 303.5 332.4 301.9 332.4 301.8C332.4 301.6 332.6 301.4 332.8 301.4C333 301.4 333.2 301.2 333.5 301.4ZM336.7 302.8C336.7 303.1 336.6 303.9 336.6 305.3L336.5 307.8L339.9 308C339.9 307.6 339.8 306.7 339.8 305.3C339.7 303.9 339.7 303 339.7 302.6C338.5 302.6 337.5 302.7 336.7 302.8ZM340.4 301.6C340.7 301.6 340.9 301.7 341 301.8C341.2 301.9 341.2 302.1 341.2 302.3C341.2 302.5 341.1 303.5 341 305.3C340.9 307.1 340.9 308.1 340.8 308.3V308.4V308.5C340.8 308.6 340.8 308.7 340.7 308.8C340.6 308.9 340.5 309 340.4 309H340.3C340.1 309 339.4 309.1 338 309.1C336.8 309.2 336.1 309.2 335.9 309.2C335.7 309.2 335.5 309.1 335.4 308.8C335.4 308.7 335.3 308.6 335.3 308.5C335.3 308.3 335.2 307.2 335.1 305.3C335 303.4 335 302.3 334.9 302.1C334.9 301.9 334.9 301.7 335.1 301.6C335.3 301.5 335.5 301.4 335.8 301.4C335.9 301.4 336 301.4 336.1 301.4C336.4 301.4 337.1 301.5 338.2 301.5L340.4 301.6ZM347 307.9C347.3 308 347.4 308.2 347.4 308.4C347.4 308.6 347.3 308.8 347 308.9C346.9 308.9 346.5 309 345.8 309C345.1 309.1 344.7 309.1 344.5 309.1C344.4 309.1 344.3 309.1 344.2 309C344 308.9 343.9 308.6 343.9 308.3C343.9 308 343.8 306.3 343.7 303.3C343.2 303.3 342.9 303.4 342.8 303.4C342.6 303.4 342.5 303.4 342.4 303.2C342.3 303 342.2 302.8 342.2 302.6C342.2 302.4 342.3 302.2 342.4 302C342.5 301.9 342.6 301.8 342.8 301.8L343.6 301.9C343.5 300.6 343.5 299.9 343.5 299.8C343.5 299.6 343.6 299.4 343.8 299.2C344 299 344.2 299 344.5 299C344.8 299 345 299.1 345.2 299.2C345.4 299.4 345.5 299.6 345.4 299.8C345.4 300.1 345.3 300.9 345.3 302C346.4 302.1 347 302.1 347 302.1C347.3 302.2 347.5 302.3 347.5 302.6C347.5 302.9 347.3 303 347 303.1C346.9 303.1 346.4 303.1 345.2 303.2C345.1 305.9 345 307.4 345 307.7C346.4 307.8 347 307.9 347 307.9ZM313.5 320.7C313.7 320.8 314.3 321.1 315.3 321.7C316.3 322.2 316.9 322.6 317.1 322.7C317.2 322.8 317.3 322.8 317.3 322.9C317.4 323 317.5 323.1 317.4 323.2C317.4 323.3 317.3 323.7 317.3 324.4C317.2 325.1 317.2 325.5 317.2 325.5C317.1 325.7 317 325.9 316.8 325.9H316.7C316.6 325.9 315.9 326 314.7 326C313.5 326.1 312.8 326.1 312.7 326.1C312.5 326.1 312.3 326 312.2 325.8V325.7C312.2 325.6 312.1 325.3 312.1 324.8C312 324.3 312 323.9 312 323.8C311.9 323.5 312.2 323.3 312.8 323.3C313.1 323.3 313.3 323.3 313.4 323.4C313.5 323.5 313.6 323.6 313.5 323.7L313.4 324.6C314.5 324.7 315.4 324.7 316.1 324.8C316 323.7 315.9 323.1 315.9 323C315.5 322.9 314.9 322.6 314.1 322.3L312.7 321.8C312.6 321.8 312.5 321.7 312.4 321.5C312.4 321.6 312.4 321.5 312.3 321.3C312.3 321.2 312.2 320.7 312.2 320C312.1 319.2 312.1 318.8 312.1 318.6C312 318.3 312.2 318.1 312.7 318.1C312.8 318.1 312.8 318.1 312.9 318.1C313 318.1 313.1 318.1 313.2 318.1C313.5 318.1 314.1 318.2 314.9 318.2L316.7 318.3C317 318.3 317.2 318.3 317.3 318.4C317.4 318.5 317.5 318.6 317.4 318.7C317.4 318.8 317.3 319.1 317.3 319.5C317.2 320 317.2 320.2 317.2 320.3C317.1 320.5 316.9 320.7 316.7 320.7C316.5 320.7 316.3 320.6 316.2 320.3C316.2 320.2 316.1 319.9 316 319.2C314.8 319.3 313.9 319.3 313.6 319.3L313.5 320.7ZM322.9 324.9C323.2 325 323.3 325.2 323.3 325.4C323.3 325.6 323.2 325.8 322.9 325.9C322.8 325.9 322.4 326 321.7 326C321 326.1 320.6 326.1 320.4 326.1C320.3 326.1 320.2 326.1 320.1 326C319.9 325.9 319.8 325.6 319.8 325.3C319.8 325 319.7 323.3 319.6 320.3C319.1 320.3 318.8 320.4 318.7 320.4C318.5 320.4 318.4 320.4 318.3 320.2C318.2 320 318.1 319.8 318.1 319.6C318.1 319.4 318.2 319.2 318.3 319C318.4 318.9 318.5 318.8 318.7 318.8L319.5 318.9C319.4 317.6 319.4 316.9 319.4 316.8C319.4 316.6 319.5 316.4 319.7 316.2C319.9 316 320.1 316 320.4 316C320.7 316 320.9 316.1 321.1 316.2C321.3 316.4 321.4 316.6 321.3 316.8C321.3 317.1 321.2 317.9 321.2 319C322.3 319.1 322.9 319.1 322.9 319.1C323.2 319.2 323.4 319.3 323.4 319.6C323.4 319.9 323.2 320 322.9 320.1C322.8 320.1 322.3 320.1 321.1 320.2C321 322.9 320.9 324.4 320.9 324.7C322.4 324.8 323 324.9 322.9 324.9ZM329.7 318.3C330 318.3 330.2 318.4 330.3 318.5C330.5 318.6 330.5 318.8 330.5 319C330.5 319.2 330.4 320.3 330.3 322.1C330.2 323.9 330.2 325 330.1 325.2C330.1 325.3 330.1 325.4 330 325.5C330 325.6 329.9 325.7 329.8 325.8C329.8 325.8 329.7 325.8 329.7 325.9L329.5 326L327.4 326.1C326.1 326.2 325.4 326.2 325.2 326.3C325.1 326.3 325.1 326.3 325 326.3C324.8 326.2 324.7 326 324.6 325.6C324.6 325.4 324.5 324.3 324.4 322.4C324.3 320.5 324.3 319.4 324.2 319.1C324.2 318.9 324.2 318.7 324.4 318.6C324.6 318.5 324.8 318.4 325 318.4C325.3 318.4 325.5 318.5 325.6 318.6C325.8 318.7 325.8 318.9 325.8 319.1C325.8 319.3 325.7 320.2 325.7 321.6C325.6 323.5 325.6 324.6 325.6 324.9C325.4 324.9 326.5 324.9 328.8 325.1C328.8 324.7 328.7 323.7 328.6 321.9C328.5 320.3 328.5 319.3 328.4 319.1C328.4 318.9 328.4 318.7 328.6 318.6C329.2 318.4 329.4 318.3 329.7 318.3ZM337.7 325C337.7 324.6 337.6 322.8 337.5 319.6L335.7 319.7C334.7 319.7 334.1 319.8 333.7 319.8C333.7 320.1 333.6 320.9 333.6 322.3L333.5 324.8C333.9 324.8 334.6 324.9 335.7 324.9L337.7 325ZM332.8 318.4C332.9 318.4 333 318.4 333 318.4C333.3 318.4 334 318.5 335.1 318.5L337.3 318.6C337.3 317.6 337.2 316.9 337.2 316.6C337.2 316.4 337.3 316.2 337.5 316C337.7 315.8 337.9 315.8 338.2 315.8C338.5 315.8 338.7 315.9 338.9 316C339.1 316.2 339.2 316.4 339.1 316.6C339.1 316.9 339 318.3 338.9 320.8C338.8 323.3 338.7 324.7 338.7 325C338.7 325.5 338.5 325.8 338.2 325.8H338.1C338 325.8 337.1 325.9 335.5 325.9C333.9 326 333 326 332.9 326.1C332.8 326.1 332.8 326.1 332.7 326.1C332.6 326.1 332.6 326 332.5 325.9C332.4 325.7 332.3 325.6 332.3 325.3C332.3 325 332.2 323.9 332.1 322C332 320.2 332 319.1 331.9 318.9C331.9 318.6 332 318.3 332.5 318.2C332.6 318.4 332.7 318.4 332.8 318.4ZM341.9 317.8C341.6 317.8 341.4 317.7 341.2 317.5C341 317.3 340.9 317 340.9 316.8C340.9 316.6 341 316.3 341.2 316.1C341.4 315.9 341.7 315.8 341.9 315.8C342.2 315.8 342.4 315.9 342.6 316.1C342.8 316.3 342.9 316.5 342.9 316.8C342.9 317.1 342.8 317.3 342.6 317.5C342.4 317.7 342.1 317.8 341.9 317.8ZM341.9 326.1C341.6 326.1 341.4 325.9 341.3 325.4C341.3 325.2 341.2 324.1 341.1 322.2C341 320.4 341 319.3 340.9 319C340.9 318.8 340.9 318.6 341.1 318.5C341.3 318.4 341.5 318.3 341.8 318.3C342.1 318.3 342.3 318.4 342.5 318.5C342.7 318.7 342.7 318.8 342.7 319C342.7 319.3 342.6 320.3 342.5 322.2C342.4 324.1 342.4 325.1 342.3 325.4C342.4 325.9 342.2 326.1 341.9 326.1ZM346.4 319.8C346.4 320.1 346.3 320.9 346.3 322.3L346.2 324.8L349.6 325C349.6 324.6 349.5 323.7 349.5 322.3C349.4 320.9 349.4 320 349.4 319.6C348.2 319.6 347.2 319.7 346.4 319.8ZM350.1 318.6C350.4 318.6 350.6 318.7 350.7 318.8C350.9 318.9 350.9 319.1 350.9 319.3C350.9 319.5 350.8 320.5 350.7 322.3C350.6 324.1 350.6 325.1 350.5 325.3V325.4V325.5C350.5 325.6 350.5 325.7 350.4 325.8C350.3 325.9 350.2 326 350.1 326H350C349.8 326 349.1 326.1 347.7 326.1C346.5 326.2 345.8 326.2 345.6 326.2C345.4 326.2 345.2 326.1 345.1 325.8C345.1 325.7 345 325.6 345 325.5C345 325.3 344.9 324.2 344.8 322.3C344.7 320.4 344.7 319.3 344.6 319.1C344.6 318.9 344.6 318.7 344.8 318.6C345 318.5 345.2 318.4 345.5 318.4C345.6 318.4 345.7 318.4 345.8 318.4C346.1 318.4 346.8 318.5 347.9 318.5L350.1 318.6Z" fill="#094325"/>
<path d="M297 148C292.6 151.5 297.2 190.6 303.9 199.8C310.1 200.6 320.6 198.8 325 200.9C318.7 202.6 306.1 207.2 306.1 207.2L316 227.7L338.4 224.1L320.3 234.5L333.2 251.3L353.7 245.4L339.7 256.6L358.2 271.6L380.3 263.3L366.1 273.8L377.6 282L395.7 278.5L388.1 286C388.1 286 401.2 294.3 409.7 293.3C418.2 292.4 425.8 291.8 428.1 289.6C430.4 287.4 430.7 270.2 428.6 263.2C426.5 256.2 424.5 251.2 424.5 251.2L421.1 256.1L420 241.1L409.9 229.1L409.1 241.1L404.8 222.7L389.1 212.3L386.9 230.7L382.6 206.4L368.4 195.3L365.2 213.4L361.9 188.3L345.6 177L343.8 193.4L340.1 172L324.4 164.1L323.7 176.5L316.5 159.3C316.5 159.3 305.7 153.6 300.7 147.8C298.8 145.2 297 148 297 148Z" fill="#1E724E"/>
<path d="M354 170.8C353.1 169 340.2 169.6 335.1 166.1C330 162.6 338.6 163.3 337 160.2C335.4 157.1 322.5 154.8 316 146C314.5 144 316.1 142.7 318.2 143.1C320.3 143.5 322.4 144.9 323.4 142.7C324.5 140.5 316.6 137.7 313.6 132.8C310.5 127.9 311.2 125.5 312.7 124.6C314.3 123.7 315.7 126.7 316.6 124.7C317.5 122.7 313.6 119.7 311.9 116C310.2 112.3 308.7 109.3 310.2 108C311.7 106.7 312.6 109.6 314.1 107.6C315.7 105.7 309.5 100.7 307.7 96.1003C305.9 91.6003 310.3 95.1003 312 92.9003C313.6 90.8003 310.6 87.2003 311.1 84.2003C311.6 81.2003 313.8 82.3003 315.9 79.1003C318 75.9003 316.2 70.1003 317.7 68.8003C319.2 67.4003 320.6 70.8003 326.6 72.2003C332.6 73.7003 336.2 71.6003 340 73.5003C343.8 75.4003 347.5 83.7003 349.8 83.4003C352.1 83.1003 348.9 76.1003 351.4 77.1003C353.9 78.1003 357.4 80.8003 359.2 83.6003C360.9 86.5003 361.7 91.5003 363.4 91.9003C365.1 92.3003 364.8 85.6003 366.5 86.0003C369.1 86.6003 372.4 97.1003 375.2 98.4003C378 99.8003 378.9 91.5002 380.7 93.7003C382.4 95.9003 382.6 104.5 385.1 106.5C387.6 108.5 386.3 99.0003 389.2 100.6C392.1 102.2 393.3 105.4 394.5 109.3C395.7 113.2 394.9 117.3 397.5 117.9C400.1 118.5 400.9 108.8 403 111C405.1 113.2 402.6 124.5 404.6 126.4C406.5 128.3 407.1 120.4 409.4 124.1C411.7 127.9 409.7 139.9 412.6 141.5C415.6 143.1 413.5 130.5 417.5 134.8C421.6 139.1 421.5 154.6 419.7 159.3C416 170.9 401.8 180 394.3 181.9C386.8 183.8 386.4 183.4 384.1 182.7C381.8 182 388.3 177.4 382.1 178.7C375.9 180 374.3 183.3 369.3 182.4C364.3 181.5 372.6 179.2 366.5 179.1C360.5 179 352.6 179.9 350.4 176.6C346.7 171.7 355.2 173.3 354 170.8Z" fill="#52B788"/>
<path d="M321.5 83.7998C321.4 92.5998 366.1 163.2 399 169.2C372.5 154.2 321.5 83.7998 321.5 83.7998Z" fill="#4B9975"/>
<path d="M286 365.5C284 363.2 292 366.7 298.4 366.2C304.8 365.7 309.4 363.7 319.2 366.2C328.9 368.7 343.6 381.7 353.7 388.5C363.8 395.3 370.3 395.9 382.8 408.8C395.4 421.6 408.3 437 411.2 450.2C414 463.4 427 469.2 429.5 484.8C432.1 500.4 415.2 526.7 420.4 540.5C401.3 510.4 376.8 500.5 361.4 484.5C346 468.5 353.6 466.2 341.5 450.2C329.4 434.3 326.4 439.9 312.1 423.8C295.6 405.1 301.6 383.7 286 365.5Z" fill="#00737F"/>
<path d="M365.3 550.9C370.7 542.1 368.1 493.5 375.5 494.5C382.9 495.6 395.3 511.5 394 526.7C392.6 542 380.2 559.6 379.8 568.2C379.4 576.7 382.6 581 384.2 581.6C385.8 582.2 404.8 538.2 415.6 537.6C426.4 537 430 550.4 426.7 564.5C423.4 578.6 395 592.1 392 599.3C389.1 606.5 391.9 613.3 394.2 611.9C396.5 610.5 417.6 589.6 427.1 585.9C436.6 582.2 444 585.8 435 599.7C426 613.6 402.8 621.4 401.4 627.2C400 633 403.2 633.3 406 631.9C408.7 630.5 425.8 618.7 432.5 615.9C439.3 613.1 437.4 627.1 435.7 631.6C433.9 636 422.9 644.2 419.2 645.6C415.5 647.1 409.6 644.7 407.6 647.4C405.6 650.1 412 656.4 411.8 658.3C411.6 660.2 404.1 665.2 402 664.2C399.9 663.2 399.8 656 396.5 654.6C393.2 653.2 391.7 660.3 384.2 661.8C376.7 663.2 356.5 660.7 352.5 654.6C348.5 648.5 379.9 645.1 386.2 641C390.3 637.5 390.3 633.1 386.5 633.1C382.7 633.1 338.4 648.1 331 642.2C323.6 636.3 326.5 636.1 331.2 633.3C335.9 630.5 370.1 625.6 370.2 619.3C370.4 613 323.5 624.7 313.5 617C303.5 609.3 295.2 597.8 299.7 593C304.3 588.2 341.8 602.5 349.7 595.9C357.6 589.3 347.6 591.8 341 589C334.4 586.3 303.6 581.1 299.8 574.9C296 568.7 290.7 563.4 297.2 558.4C303.7 553.4 335.7 569.5 338.2 565C340.6 560.4 320 556.1 310.8 545.1C301.7 534.1 301.2 517.3 305.4 515.8C309.6 514.3 309.4 514.4 311.4 517.9C313.4 521.4 318.1 534 324.1 539.2C330.1 544.4 333 549.1 334.3 546.8C335.5 544.5 331.4 537.4 327.1 532.5C322.8 527.6 312.8 517.6 312.5 512.9C312.3 508.1 308 491.8 324.4 486.9C340.8 481.9 347.4 495.8 351.2 505.4C354.9 515 355.1 524.2 356.8 534.6C358.3 545 362.9 554.9 365.3 550.9Z" fill="#E2A14B"/>
<path d="M79.0959 565.551C82.1659 562.341 92.9559 554.941 87.2059 543.641C85.0359 536.641 69.7459 525.131 55.9959 530.291C42.2459 535.451 46.3759 540.041 39.7059 546.171C33.0359 552.301 24.1259 554.171 14.7059 557.081C5.28586 559.991 -5.04414 569.081 -8.23414 577.721C-10.2341 583.101 -9.90414 589.721 -12.4841 595.391C-16.0241 603.231 -27.3641 608.091 -25.8641 616.561C-25.5129 617.957 -24.9818 619.302 -24.2841 620.561C-22.7241 624.141 -17.5641 637.881 -0.284142 644.251C16.9959 650.621 39.9659 643.071 43.5559 634.251C47.1459 625.431 54.5259 611.551 63.8359 609.551C73.1459 607.551 79.2259 599.381 79.2259 598.021C79.2259 596.661 82.9859 594.151 79.3659 585.341C76.4459 578.301 77.9759 569.231 79.0959 565.551Z" fill="#E2A14B"/>
<path d="M43.8857 571.911L51.3457 559.581M53.2257 572.001L44.0457 583.121L53.2257 572.001ZM-24.3743 673.471L-9.53427 648.051L-6.59427 644.491L-24.3743 673.471ZM30.5357 599.491L49.2257 596.611L30.5357 599.491ZM30.5357 599.551L20.5357 611.681L30.5357 599.551ZM30.5357 599.551L44.0757 583.151L30.5357 599.551ZM62.4257 594.551L49.2257 596.551L62.4257 594.551ZM49.2257 596.551L55.7057 587.691L49.2257 596.551ZM10.5057 623.691L30.2857 620.621L10.5057 623.691ZM10.5057 623.691L-6.59427 644.401L10.5057 623.691ZM10.5057 623.691L20.5057 611.561L10.5057 623.691ZM39.2257 619.321L30.2857 620.711L39.2257 619.321ZM30.2857 620.711L38.0757 611.871L30.2857 620.711ZM-6.59427 644.491L-8.59427 631.761L-6.59427 644.491ZM20.5157 611.651L19.0857 585.551L20.5157 611.651ZM18.3257 571.711L19.0857 585.551L18.3257 571.711ZM19.0857 585.551L26.9057 576.051L19.0857 585.551ZM44.0857 583.051L43.8857 571.911L44.0857 583.051ZM43.6857 560.771L43.8857 571.911L43.6857 560.771Z" stroke="white" stroke-width="1.47" stroke-linecap="round"/>
</g>
<defs>
<clipPath id="clip0_308_3935">
<rect width="375" height="753" fill="white"/>
</clipPath>
</defs>
</svg>
