<svg width="375" height="748" viewBox="0 0 375 748" fill="none" xmlns="http://www.w3.org/2000/svg">
<g clip-path="url(#clip0_236:6600)">
<path d="M228.34 619.42C236.42 616.03 294 648.42 304.26 663.42C301.78 672.12 292.76 684.83 293.43 692.02C299.77 684.77 314.51 671.34 314.51 671.34L340.21 698.18L321.21 725.36L348.21 708.44L366.48 736.71L345 759.82L370.63 748.94L382.74 783.53L356.74 807.07L381.46 795.43L387.28 816.17L371.06 837.68L387.13 832.68C387.13 832.68 392.13 855.55 385.58 866.13C379.03 876.71 373.67 886.46 368.86 887.95C364.05 889.44 337.29 878.32 327.86 870.8C318.43 863.28 311.76 857.26 311.76 857.26L321.42 856.02L298.86 844.52L286.39 823.18L305.39 830.18L279.49 812.09L272.88 784.37L302.54 793.87L267.54 771.87L258.8 745.6L288.68 753.49L251.89 732.3L244.11 703.12L270.56 711.79L239.66 692.52L236.79 666.47L256.33 673.82L234.06 652.82C234.06 652.82 231.66 634.72 225.74 624.2C222.9 619.88 228.34 619.48 228.34 619.48V619.42Z" fill="#00737F"/>
<path d="M352.92 321.55C356.02 311.99 341.92 267.11 349.19 266.34C356.46 265.57 372.29 277.44 374.63 292.06C376.97 306.68 369.25 326.21 370.87 334.29C372.49 342.37 376.59 345.58 378.27 345.75C379.95 345.92 387.69 300.16 397.92 297.03C408.15 293.9 414.78 305.5 415 319.5C415.22 333.5 391.17 353 390.06 360.42C388.95 367.84 393.33 373.52 395.17 371.71C397.01 369.9 412.25 345.18 420.51 339.45C428.77 333.72 436.69 335.29 431.41 350.45C426.13 365.61 405.67 378.56 405.7 384.28C405.73 390 408.93 389.57 411.22 387.6C413.51 385.63 427.02 370.5 432.84 366.27C438.66 362.04 440.25 375.6 439.61 380.16C438.97 384.72 430.38 395.02 427.16 397.28C423.94 399.54 417.7 398.74 416.46 401.79C415.22 404.84 422.81 409.13 423.11 410.96C423.41 412.79 417.42 419.29 415.11 418.82C412.8 418.35 411.04 411.64 407.54 411.16C404.04 410.68 404.3 417.68 397.42 420.84C390.54 424 370.56 426.46 365.26 421.71C359.96 416.96 389.26 406.18 394.34 400.89C397.42 396.65 396.34 392.53 392.71 393.42C389.08 394.31 350.19 419.03 341.71 415.33C333.23 411.63 335.95 410.73 339.78 406.95C343.61 403.17 375.24 390.43 373.9 384.48C372.56 378.53 330.38 400.85 319 396.05C307.62 391.25 296.83 382.53 300.07 376.91C303.31 371.29 342.75 375.65 348.74 367.62C354.73 359.59 345.74 364.25 338.74 363.29C331.74 362.33 300.94 364.89 295.79 359.99C290.64 355.09 284.26 351.4 289.33 345.19C294.4 338.98 328.94 346.34 330.19 341.48C331.44 336.62 310.56 337.56 299.19 329.42C287.82 321.28 283.33 305.74 287.01 303.33C290.69 300.92 290.53 301.07 293.26 303.82C295.99 306.57 303.54 317.27 310.53 320.66C317.52 324.05 321.45 327.73 322.08 325.3C322.71 322.87 317.08 317.2 311.79 313.67C306.5 310.14 294.48 303.22 293.14 298.8C291.8 294.38 283.81 280.18 298.33 271.59C312.85 263 322.54 274.32 328.43 282.43C334.32 290.54 336.71 299.07 340.77 308.37C344.83 317.67 351.61 325.8 352.99 321.53L352.92 321.55Z" fill="#00737F"/>
<path d="M273.88 570C271.57 567.15 281.02 571.6 288.74 571.21C296.46 570.82 302.04 568.54 313.62 571.84C325.2 575.14 342.43 591.2 354.26 599.71C366.09 608.22 373.88 609.15 388.52 624.91C403.16 640.67 418.23 659.57 421.21 675.44C424.19 691.31 439.49 698.68 442.06 717.44C444.63 736.2 423.53 767.17 429.39 783.87C407.39 747.13 378.39 734.59 360.47 714.87C342.55 695.15 351.74 692.63 337.73 673.18C323.72 653.73 320 660.43 303.38 640.69C284.1 617.81 292 592.34 273.88 570Z" fill="#E2A14B"/>
<path d="M79.8499 671C91.1999 668.93 136.06 634 139.06 640C142.06 646 133.74 665.74 118.46 675.16C103.18 684.58 79.5799 687.67 71.2299 693.16C62.8799 698.65 60.5699 703.8 60.8899 705.35C61.2099 706.9 113.46 690.61 119.89 697.96C126.32 705.31 115.6 716.96 100.37 724.19C85.1399 731.42 56.7899 720.26 48.3299 723C39.8699 725.74 34.9999 732.5 37.4999 733.18C39.9999 733.86 71.4999 734.72 80.1899 739.04C88.8799 743.36 89.4999 751.04 71.3599 754.11C53.2199 757.18 33.0799 745.81 26.8299 748.71C20.5799 751.61 21.9999 754.19 24.8299 755.2C27.6599 756.21 48.1599 760.37 54.4899 763.32C60.8199 766.27 46.4899 774.48 41.3199 776.23C36.1499 777.98 22.3799 775.66 18.9999 774C15.6199 772.34 14.6199 766.48 10.9299 766.93C7.23994 767.38 4.77994 776.17 2.86994 777.35C0.959942 778.53 -7.91006 776.58 -8.06006 774.35C-8.21006 772.12 -1.42006 767.18 -1.93006 763.88C-2.44006 760.58 -10.0101 764.34 -15.4801 759.88C-20.9501 755.42 -29.4801 739.28 -25.9001 732.26C-22.3201 725.24 -1.90006 745.4 5.39994 747.15C10.9299 747.7 15.1299 744.71 13.0799 741.97C11.0299 739.23 -27.4101 717.77 -25.9201 708.48C-24.4301 699.19 -22.5901 701.13 -17.3401 702.57C-12.0901 704.01 11.1499 725.19 17.2399 721.03C23.3299 716.87 -13.4001 691.32 -11.5201 679C-9.64006 666.68 -3.27006 652.85 3.80994 652.84C10.8899 652.83 17.7499 689.44 28.2899 690.63C38.8299 691.82 31.0799 686.29 30.0599 679.69C29.0399 673.09 17.1799 647.52 21.0599 640.55C24.9399 633.58 27.0599 626.16 35.3199 627.46C43.5799 628.76 45.7199 662.61 51.3999 661.25C57.0799 659.89 49.8999 642.14 55.3999 628.11C60.8999 614.08 76.5999 602.34 80.3099 604.34C84.0199 606.34 83.8199 606.27 81.6099 610.04C79.3999 613.81 69.9399 625.75 68.2999 633.56C66.6599 641.37 63.7999 646.65 66.6299 646C69.4599 645.35 74.0099 637.58 76.2999 631.16C78.5899 624.74 82.6199 610.79 87.0499 607.39C91.4799 603.99 104.64 589.87 118.3 598.21C131.96 606.55 122.44 620.72 115.3 629.94C108.16 639.16 99.5699 645.55 90.5999 653.77C81.6299 661.99 74.7799 672 79.8499 671Z" fill="#E2A14B"/>
<path d="M-84.9 676.6C-87.11 679.21 -78.01 675.12 -70.55 675.44C-63.09 675.76 -57.68 677.84 -46.55 674.79C-35.42 671.74 -18.83 657 -7.45996 649.2C3.91004 641.4 11.43 640.51 25.46 626.06C39.49 611.61 53.91 594.29 56.66 579.77C59.41 565.25 74.15 558.47 76.49 541.3C78.83 524.13 58.2 495.89 63.74 480.6C42.81 514.25 14.87 525.8 -2.32996 543.87C-19.53 561.94 -10.59 564.24 -24 582.06C-37.41 599.88 -41 593.81 -57 611.9C-75.39 632.88 -67.59 656.14 -84.9 676.6Z" fill="#1E724E"/>
<path d="M23.16 934.66C20.53 938.93 32.85 930.66 43.79 929.01C54.73 927.36 63.08 928.73 78.64 921.34C94.2 913.95 114.94 888.7 129.72 874.57C144.5 860.44 155.26 857.11 172.41 832.97C189.56 808.83 206.64 780.57 207.41 759.51C208.18 738.45 228.05 724.83 227.58 700.18C227.11 675.53 190.67 641.91 195.28 619C172.42 671.91 134.35 695.91 113.39 726C92.43 756.09 105.97 756.77 90.5 785.43C75.03 814.09 68.36 806.64 49.27 836.43C27.11 870.9 43.75 901.19 23.16 934.66Z" fill="#1E724E"/>
<path d="M301 504.58C299.27 503.98 297.3 502.91 296.78 501.04C295.64 497.15 300.49 493.89 303.14 492.04C308.147 488.555 313.657 485.857 319.48 484.04L318.48 484.33C323.41 482.83 328.74 480.66 333.93 481.16C336.93 481.47 338.83 483.06 341.52 484.16C343.01 484.79 346 484.66 347.14 486.03C344.81 483.22 342.51 480.41 340.33 477.51C339.07 475.83 337.13 472.19 334.81 471.66C331.98 471.03 329.39 474.34 327.32 475.66C318.59 481.4 303.79 481.18 294.17 477.86C292.01 477.11 287.64 475.48 286.73 472.86C285.46 469.12 290.73 466.92 293.5 465.86C300.187 463.355 307.304 462.202 314.44 462.47C318.031 462.425 321.612 462.876 325.08 463.81C328.82 464.97 330.75 468.35 334.2 469.65C331.67 466.23 329.48 462.58 327.11 459.05C325.41 456.6 323.48 452.56 320.26 451.82C318.53 451.41 316.94 452.12 315.43 452.88C307.24 457.05 299.66 461.38 290.16 461.44C286.72 461.44 280.6 460.64 279.26 456.64C277.92 452.64 283.51 450.27 286.41 449.06C291.44 447.094 296.71 445.806 302.08 445.23C305.73 444.82 309.8 444.41 313.31 445.59C316.56 446.69 318.58 449.59 321.69 450.92C316.16 441.99 307.86 439.57 299.63 433.34C295 429.83 271.04 412.86 278.63 405.63C284.78 399.73 298.16 410.89 302.69 414.63C307.02 418.147 310.609 422.487 313.25 427.4C314.922 430.824 316.075 434.477 316.67 438.24C317.55 442.72 320.6 445.12 322.46 449.02C318.36 440.408 317.846 430.521 321.03 421.53C322.29 418.17 327.29 407.07 332.2 408.42C334.59 409.42 335.13 412.64 335.52 414.87C336.69 421.87 335.27 429.15 332.41 435.54C331.285 438.12 329.771 440.511 327.92 442.63C326.52 444.21 324.55 445.85 324.04 448C322.79 453.08 328.91 458.81 331.23 462.83C332.644 450.426 336.375 438.397 342.23 427.37C343.74 424.55 347.23 419.13 350.91 422.23C352.72 423.77 352.72 427.05 352.76 429.3C352.94 439.05 349.28 451.1 341.29 457.3C339.05 459.05 332.81 461.15 332.64 464.3C332.53 466.18 335.56 469.41 336.57 470.84C338.342 473.39 340.244 475.847 342.27 478.2C343.72 475.36 343.33 472.39 343.82 469.35C344.556 465.996 345.79 462.77 347.48 459.78C350.32 454.13 353.6 448.45 358.26 444.08C361.01 441.5 366.26 437.08 370.35 438.91C375.66 441.32 370.83 450.66 369.26 454.12C366.485 460.444 362.608 466.223 357.81 471.19C354.11 474.91 350.81 474.97 346.22 476.73C342.57 478.13 344.6 481.01 346.61 483.56C351.19 489.34 356.23 495 361.01 500.64C361.2 496.73 360.47 492.88 360.69 488.98C361.042 484.73 362.019 480.555 363.59 476.59C365.83 470.59 369.17 463.35 373.9 458.8C379.11 453.8 382.67 457.47 383.47 463.12C384.85 472.98 380.82 490.2 371.53 495.73C368.79 497.35 363 497.39 362.46 501.12C362.05 503.87 365.46 506.19 367.09 507.94C370.09 511.08 372.81 514.55 375.55 518.03C378.55 516.2 377.23 512.32 377.55 509.41C377.9 505.34 379.47 501.49 381.05 497.8C383.78 491.5 387.05 484.8 392.37 480.3C395.82 477.37 406.61 470.4 406.96 479.17C407.19 484.8 404.44 490.87 401.96 495.8C398.96 501.8 394.82 509.58 389.27 513.55C386.39 515.62 379.89 515.03 377.84 517.73C375.98 520.19 379.27 522.73 380.76 524.85C383.44 528.61 385.9 532.55 388.22 536.59C389.664 533.575 390.435 530.283 390.48 526.94C390.793 523.424 391.972 520.04 393.91 517.09C396.816 512.361 400.696 508.305 405.29 505.19C409.59 502.19 421.17 495.3 422.49 504.41C424.1 515.41 413.1 530.67 403.12 534.49C399.56 535.89 393.46 533.05 390.53 535.55C386.88 538.67 395.69 550.09 397.26 553.07C402.53 548.46 405.36 543.07 412.12 540.07C417.214 537.942 422.702 536.919 428.22 537.07C435.17 537.2 445.12 539.94 439.01 548.24C432.76 556.77 415.16 563.72 405.41 558.04C404.02 557.23 401.62 554.32 400.08 554.04C396.23 553.31 399.69 557.83 400.38 559.37C402.11 563.23 403.6 567.18 405.07 571.14C406.781 576.105 408.747 580.978 410.96 585.74C411.63 587.12 415.96 595.02 411.78 594.82C408.93 594.68 408 588.34 407.56 586.35C406.529 581.004 405.057 575.753 403.16 570.65C402 567.65 400.85 564.7 399.66 561.76C398.88 559.82 397.53 553.63 395.21 556C394.32 556.92 394.7 559.31 394.41 560.53C393.973 562.404 393.301 564.215 392.41 565.92C389.41 571.92 384.28 577.1 378.82 580.92C375.7 583.07 362.13 591 363.82 580.69C365.02 573.54 370.76 566.41 375.89 561.56C381.37 556.34 388.29 554.56 395.64 553.67C393.962 549.66 392.08 545.738 390 541.92C389.62 541.27 387.81 537.64 386.71 537.86C385.36 538.2 385.49 542.2 385.12 543.3C382.12 553.3 370.12 560.58 360.39 562.68C356.71 563.48 351.76 563.48 350.74 559.09C349.72 554.7 353.65 549.39 356.15 546.09C360.01 540.97 365.36 535.89 371.63 533.87C375.09 532.76 383.63 531.55 385.96 535.33C383.27 530.93 380.85 523.9 376.16 521.19C371.94 518.75 371.79 524.19 369.98 527.08C364.55 535.56 351.52 542.58 341.48 543.26C335.1 543.7 335.23 538.62 337.93 533.65C341.08 527.87 346.23 523.46 351.93 520.24C355.15 518.4 359.11 516.41 362.83 516.11C366.23 515.8 369.23 517.81 372.57 517.58C372.57 514.58 367.42 510.15 365.57 508.13C364.72 507.23 363.35 505.13 362.14 504.8C359.99 504.17 359.06 505.95 357.68 507.37C350.13 515.09 337.44 519.12 326.75 518.37C323.19 518.12 316.75 517.13 316.83 512.46C316.92 508.01 323.42 504.91 326.83 503.3C332.051 500.553 337.719 498.758 343.57 498C350.23 497.33 354.93 501.84 361.18 503C357.95 499.44 350.18 484.84 343.75 487.48C341.37 489.12 339.93 492.22 337.58 494.04C333.21 497.46 327.68 499.98 322.58 502.11C316.01 504.85 308.11 507.01 301.09 504.63L301 504.58Z" fill="#1E724E"/>
<path d="M32.11 329.84C40.11 329.32 68.64 304.84 71.54 310.23C74.44 315.62 70.74 331.37 60.73 337.61C50.72 343.85 33.89 343.83 28.46 347.52C23.03 351.21 21.98 355.35 22.39 356.69C22.8 358.03 58.93 350.11 64.5 357.04C70.07 363.97 63.64 372.59 53.41 377.04C43.18 381.49 21.18 368.86 15.35 370.27C9.52 371.68 6.75 376.76 8.67 377.62C10.59 378.48 33.67 382.72 40.48 387.33C47.29 391.94 48.7 398.47 35.85 399C23 399.53 7 387.74 2.77 389.49C-1.46 391.24 -0.0899963 393.58 2.09 394.75C4.27 395.92 19.71 401.75 24.67 404.91C29.63 408.07 20.17 413.44 16.61 414.33C13.05 415.22 2.73 411.74 3.8147e-06 410C-2.73 408.26 -4.09 403.17 -6.73 403.13C-9.37 403.09 -10.11 410.25 -11.36 411.02C-12.61 411.79 -19.31 409.17 -19.68 407.27C-20.05 405.37 -15.68 401.96 -16.46 399.12C-17.24 396.28 -22.29 398.61 -26.8 394.27C-31.31 389.93 -39.5 375.27 -37.7 369.79C-35.9 364.31 -18.62 383.56 -13.11 385.85C-9.01 386.93 -6.31 384.85 -8.11 382.33C-9.91 379.81 -40.51 357.38 -40.5 349.71C-40.49 342.04 -38.95 343.88 -34.95 345.71C-30.95 347.54 -11.49 367.98 -7.54 365.15C-3.59 362.32 -33.43 336.62 -33.54 326.39C-33.65 316.16 -30.66 305.23 -25.54 306.02C-20.42 306.81 -11.01 338.48 -3.19 340.65C4.63 342.82 -1.68 337.3 -3.19 331.65C-4.7 326 -16.42 303.05 -14.46 297.65C-12.5 292.25 -11.77 286 -5.59 288C0.590004 290 6.19 318.83 10.17 318.32C14.15 317.81 6.8 302.02 9.17 290.8C11.54 279.58 21.54 271.41 24.48 273.51C27.42 275.61 27.27 275.51 26.11 278.51C24.95 281.51 19.49 290.51 19.23 296.91C18.97 303.31 17.51 307.46 19.5 307.2C21.49 306.94 23.87 300.91 24.77 295.75C25.67 290.59 26.94 279.26 29.77 276.89C32.6 274.52 40.5 264.06 51.45 272.63C62.4 281.2 57.16 292.09 53.07 299.08C48.98 306.07 43.47 310.5 37.92 316.44C32.37 322.38 28.55 330.07 32.13 329.84H32.11Z" fill="#00737F"/>
<path d="M294.61 128.86C289.61 132.73 290.81 177.46 297.14 188.25C303.73 189.39 315.23 187.77 319.73 190.35C312.73 192 298.78 196.87 298.78 196.87L307.49 220.6L332 217.3L311.47 228.54L323.72 248.19L346.36 242.19L330.27 254.44L348.81 272.27L373.35 263.65L357.1 275.12L368.72 284.93L388.52 281.61L379.62 289.84C379.62 289.84 392.94 299.78 402.17 299.04C411.4 298.3 419.69 297.98 422.35 295.51C425.01 293.04 427 273.44 425.35 265.42C423.7 257.4 422.05 251.55 422.05 251.55L417.87 257L418.16 239.83L408.46 225.83L406.46 239.51L403.57 218.32L387.63 205.91L383.56 226.78L381.28 198.86L367 185.61L361.79 206.12L360.64 177.36L344.2 163.79L340.7 182.46L338.77 157.88L322.63 148.24L320.63 162.32L314.53 142.44C314.53 142.44 303.46 135.5 298.59 128.72C296.73 125.72 294.59 128.87 294.59 128.87L294.61 128.86Z" fill="#1E724E"/>
<path d="M76.6301 28.4298C72.0301 25.3098 36.2501 40.4298 29.3801 49.2598C30.3801 55.2598 35.03 64.6598 34.26 69.3498C30.9 63.8698 22.9001 53.3498 22.9001 53.3498L6.26005 68.3198L16.0501 88.3198L1.00005 74.2398L-11.3199 90.9398L0.110052 108.53L-14.4699 98.5298L-23.4699 120.07L-9.35995 138.46L-23.3599 128.07L-27.9099 141.14L-19.4699 157.14L-28.7099 152.07C-28.7099 152.07 -32.8699 166.64 -29.5799 174.35C-26.2899 182.06 -23.5799 189.09 -20.8599 190.59C-18.1399 192.09 -1.67995 187.66 4.33005 183.72C10.34 179.78 14.5701 176.52 14.5701 176.52L8.92005 174.65L22.9201 169.51L31.4301 156.76L19.8001 159.35L36.0001 150.23L41.3901 132.63L23.3901 135.68L45.2801 124.95L51.8501 108.54L33.76 110.54L56.6701 100.54L62.8301 81.9998L46.7201 84.8898L66.0001 75.5098L69.1201 58.5998L57.1701 61.3298L71.4601 49.8398C71.4601 49.8398 73.8501 38.1398 77.9101 31.8398C79.8201 29.2898 76.6201 28.4398 76.6201 28.4398L76.6301 28.4298Z" fill="#00737F"/>
<path d="M5.21996 422C5.55995 420.51 6.26996 418.76 7.78996 418.15C10.93 416.84 14.1 420.59 15.86 422.63C19.2184 426.506 21.9635 430.873 24 435.58L23.67 434.81C25.38 438.81 27.67 443.04 27.74 447.43C27.74 449.96 26.61 451.7 25.95 454.04C25.56 455.35 25.95 457.83 24.95 458.9C27.0799 456.7 29.22 454.52 31.44 452.42C32.73 451.21 35.59 449.25 35.81 447.27C36.0799 444.85 33.07 442.99 31.74 441.38C26.14 434.62 24.96 422.23 26.85 413.88C27.28 412.01 28.24 408.2 30.36 407.2C33.36 405.79 35.7 410.02 36.86 412.2C39.5692 417.554 41.1872 423.394 41.6199 429.38C41.9875 432.372 41.9404 435.4 41.4799 438.38C40.8599 441.61 38.21 443.53 37.4799 446.54C40.1 444.11 42.95 441.94 45.68 439.64C47.52 438 50.71 436 51 433.28C51.0458 431.849 50.5735 430.45 49.67 429.34C45.43 422.88 41.1099 416.95 40.1899 409.02C39.8599 406.14 39.9699 400.96 43.1899 399.47C46.41 397.98 48.8999 402.47 50.1899 404.74C52.2951 408.762 53.8555 413.046 54.83 417.48C55.51 420.48 56.2299 423.85 55.56 426.9C54.9399 429.72 52.67 431.67 51.88 434.39C58.88 428.95 60.09 421.79 64.54 414.39C67.04 410.2 79.0199 388.62 85.7599 394.28C91.2599 398.87 83.17 411.08 80.4599 415.21C77.9228 419.151 74.6293 422.55 70.7699 425.21C68.0513 426.902 65.0955 428.179 62 429C58.34 430.15 56.61 432.91 53.53 434.83C60.3475 430.607 68.5632 429.265 76.3699 431.1C79.2899 431.84 89.0199 435 88.3699 439.22C87.7299 441.31 85.1199 442.05 83.28 442.59C77.4844 444.075 71.3811 443.835 65.72 441.9C63.4645 441.199 61.3297 440.157 59.39 438.81C57.94 437.81 56.3899 436.29 54.5499 436.07C50.1899 435.49 45.97 441.14 42.83 443.44C53.3251 443.484 63.7186 445.499 73.47 449.38C75.96 450.38 80.81 452.83 78.56 456.16C77.44 457.81 74.7 458.16 72.83 458.36C64.71 459.41 54.2999 457.46 48.38 451.36C46.71 449.65 44.38 444.63 41.7299 444.78C40.1499 444.86 37.7299 447.69 36.63 448.67C34.6602 450.384 32.781 452.2 31 454.11C33.5 455.11 36 454.46 38.54 454.59C41.4091 454.895 44.2167 455.626 46.8699 456.76C51.8699 458.61 56.8699 460.83 60.9799 464.32C63.39 466.38 67.55 470.32 66.41 473.95C64.89 478.61 56.64 475.43 53.6 474.44C48.0631 472.701 42.8793 469.992 38.29 466.44C34.84 463.69 34.49 460.93 32.59 457.27C31.0799 454.34 28.86 456.27 26.92 458.27C22.5099 462.63 18.25 467.36 13.97 471.87C17.25 471.67 20.41 470.71 23.68 470.53C27.2641 470.435 30.8426 470.87 34.2999 471.82C39.5499 473.14 45.87 475.26 50.11 478.82C54.78 482.71 52.03 486.03 47.39 487.21C39.28 489.27 24.52 487.49 19.0499 480.21C17.4399 478.07 16.88 473.21 13.71 473.13C11.37 473.04 9.70995 476.13 8.43996 477.63C6.09996 480.45 3.43996 483.01 0.789955 485.63C2.58995 487.94 5.71996 486.51 8.16995 486.48C11.5801 486.564 14.9552 487.189 18.17 488.33C23.68 490.03 29.5499 492.15 33.84 496.18C36.6099 498.79 43.42 507.18 36.13 508.26C31.45 508.97 26.13 507.26 21.78 505.64C16.49 503.71 9.60995 500.94 5.77995 496.64C3.77995 494.43 3.67995 488.94 1.22995 487.48C-1.00005 486.15 -2.83005 489.13 -4.45005 490.57C-7.35005 493.16 -10.45 495.57 -13.57 497.88C-10.9186 498.809 -8.09661 499.15 -5.30005 498.88C-2.33201 498.832 0.601749 499.519 3.23996 500.88C7.46186 502.871 11.2116 505.738 14.24 509.29C17.11 512.61 23.96 521.65 16.47 523.59C7.46996 525.95 -6.33005 518.16 -10.45 510.18C-11.95 507.33 -10.13 501.98 -12.45 499.76C-15.4 497 -24.12 505.41 -26.45 506.99C-22.11 510.99 -17.31 512.83 -14.25 518.21C-11.9969 522.27 -10.6334 526.762 -10.25 531.39C-9.72005 537.21 -11.09 545.78 -18.59 541.39C-26.29 536.95 -33.72 522.89 -29.87 514.22C-29.32 512.99 -27.11 510.71 -27.01 509.4C-26.76 506.12 -30.21 509.4 -31.44 510.14C-34.5 511.94 -37.67 513.55 -40.84 515.14C-44.8319 517.028 -48.7237 519.121 -52.5 521.41C-53.59 522.1 -59.8 526.41 -60.01 522.93C-60.15 520.53 -54.95 519.17 -53.32 518.62C-48.9492 517.267 -44.698 515.554 -40.61 513.5C-38.24 512.26 -35.85 511.02 -33.51 509.76C-31.96 508.93 -26.91 507.23 -29.11 505.51C-29.96 504.85 -31.92 505.39 -32.97 505.26C-34.5722 505.075 -36.1446 504.688 -37.65 504.11C-42.9815 501.934 -47.7088 498.504 -51.43 494.11C-53.52 491.7 -61.43 481.11 -52.62 481.57C-46.53 481.91 -40.05 486.06 -35.53 489.89C-30.67 493.98 -28.53 499.6 -27.12 505.67C-23.8966 503.863 -20.7691 501.89 -17.75 499.76C-17.24 499.39 -14.37 497.54 -14.66 496.64C-15.07 495.54 -18.4 496.02 -19.35 495.82C-28 494.25 -35.2 484.88 -37.85 477C-38.85 474 -39.31 469.86 -35.74 468.61C-32.17 467.36 -27.37 470.14 -24.36 471.93C-19.72 474.68 -14.99 478.69 -12.73 483.74C-11.48 486.53 -9.73005 493.57 -12.63 495.84C-9.20005 493.19 -3.55005 490.52 -1.72005 486.35C-0.0700455 482.6 -4.64005 482.98 -7.21004 481.73C-14.8 477.97 -21.86 467.73 -23.35 459.41C-24.35 454.12 -20.05 453.76 -15.65 455.56C-10.5928 457.808 -6.26372 461.424 -3.15005 466C-1.32005 468.52 0.709957 471.65 1.30996 474.72C1.87996 477.53 0.479954 480.22 0.979954 483C3.52995 482.72 6.70995 478 8.22995 476.26C8.90995 475.47 10.5 474.13 10.7 473.09C11.03 471.24 9.45995 470.63 8.13995 469.6C0.999954 464 -3.56005 453.72 -3.90005 444.72C-4.02005 441.72 -3.78005 436.27 0.0999527 435.89C3.82995 435.56 7.01995 440.7 8.66995 443.36C11.4669 447.494 13.4991 452.097 14.67 456.95C15.84 462.46 12.51 466.79 12.15 472.12C14.83 469.12 26.31 461.25 23.51 456.12C21.92 454.28 19.2 453.37 17.46 451.57C14.2 448.23 11.5799 443.85 9.33995 439.79C6.44995 434.55 3.90996 428.15 5.25996 422.07L5.21996 422Z" fill="#E2A14B"/>
<path d="M351.88 152.76C350.88 150.85 337.62 152.31 332.19 148.81C326.76 145.31 335.66 145.52 333.93 142.29C332.2 139.06 318.75 137.29 311.77 128.16C310.2 126.1 311.77 124.54 313.94 124.89C316.11 125.24 318.32 126.6 319.33 124.13C320.34 121.66 312.17 119.13 308.84 113.98C305.51 108.83 306.08 106.22 307.66 105.16C309.24 104.1 310.86 107.3 311.66 105.03C312.46 102.76 308.36 99.7397 306.45 95.8397C304.54 91.9397 302.92 88.7397 304.38 87.2697C305.84 85.7997 306.91 88.8397 308.44 86.6397C309.97 84.4397 303.44 79.3797 301.44 74.5697C299.44 69.7597 304.13 73.3197 305.73 70.8797C307.33 68.4397 304.05 64.7897 304.45 61.5297C304.85 58.2697 307.17 59.2797 309.18 55.7197C311.19 52.1597 309.18 45.9797 310.67 44.3897C312.16 42.7997 313.67 46.3897 319.96 47.5797C326.25 48.7697 329.84 46.3197 333.83 48.1697C337.82 50.0197 341.96 58.7897 344.32 58.3197C346.68 57.8497 343.13 50.4097 345.71 51.3197C349.045 52.698 351.905 55.0196 353.94 57.9997C355.84 60.9997 356.77 66.3997 358.55 66.7697C360.33 67.1397 359.8 59.8697 361.48 60.2097C364.17 60.7097 367.92 71.8597 370.87 73.2097C373.82 74.5597 374.47 65.4597 376.34 67.7297C378.21 69.9997 378.66 79.3697 381.34 81.3497C384.02 83.3297 382.34 73.1297 385.34 74.7097C388.34 76.2897 389.79 79.7097 391.16 83.8197C392.53 87.9297 391.9 92.5297 394.6 93.0197C397.3 93.5097 397.77 82.8997 400 85.1397C402.23 87.3797 400.1 99.7897 402.17 101.73C404.24 103.67 404.54 94.9997 407 98.9297C409.46 102.86 407.86 116.04 411 117.65C414.14 119.26 411.49 105.65 415.84 110.12C420.19 114.59 420.67 131.32 419.02 136.62C415.62 149.42 401.29 160.2 393.67 162.72C386.05 165.24 385.56 164.85 383.14 164.18C380.72 163.51 387.32 158.18 380.97 159.95C374.62 161.72 373.15 165.41 367.91 164.71C362.67 164.01 371.14 160.98 364.91 161.26C358.68 161.54 350.62 162.93 348.2 159.54C344.4 154.22 353.27 155.43 351.86 152.78L351.88 152.76Z" fill="#52B788"/>
<path d="M315.25 60.3301C315.52 69.9001 364.16 143.83 398.33 148.33C370.42 133.55 315.25 60.3301 315.25 60.3301Z" fill="#4B9975"/>
<path d="M69.86 193.78C72.4 190.96 81.41 184.35 76.2 174.86C74.2 168.94 60.8 159.52 49.2 164.29C37.6 169.06 41.2 172.87 35.71 178.29C30.22 183.71 22.62 185.52 14.61 188.29C6.60002 191.06 -1.92998 199 -4.41998 206.48C-5.60998 210.04 -5.61998 214.17 -6.48998 218.13C-8.57998 227.68 -21.17 234.68 -16.99 243.51C-15.0935 248.113 -12.2201 252.25 -8.56846 255.634C-4.91681 259.018 -0.573944 261.568 4.16002 263.11C19.16 268.11 38.49 261.04 41.33 253.44C44.17 245.84 50.1 233.68 58 231.74C65.9 229.8 70.84 222.65 70.83 221.49C70.82 220.33 73.94 218.08 70.61 210.66C67.94 204.72 69 196.93 69.86 193.78Z" fill="#E2A14B"/>
<path d="M40 200.18L46 189.45M48 199.95L40.46 209.69L48 199.95ZM-15.54 288.69L-3.54004 266.59L-1.13004 263.47L-15.54 288.69ZM29.3 224L45.18 221L29.3 224ZM29.3 224L21.07 234.63L29.3 224ZM29.3 224L40.43 209.64L29.3 224ZM56.43 218.93L45.21 221.03L56.43 218.93ZM45.21 221.03L50.51 213.3L45.21 221.03ZM12.87 245.3L29.68 242.15L12.87 245.3ZM12.87 245.3L-1.13004 263.43L12.87 245.3ZM12.87 245.3L21.1 234.68L12.87 245.3ZM37.28 240.74L29.68 242.16L37.28 240.74ZM29.68 242.16L36.1 234.4L29.68 242.16ZM-1.17004 263.4L-3.17004 252.58L-1.17004 263.4ZM21.14 234.64L19.22 212.43L21.14 234.64ZM18.22 200.63L19.22 212.43L18.22 200.63ZM19.22 212.43L25.64 204.11L19.22 212.43ZM40.49 209.65L40 200.18L40.49 209.65ZM39.53 190.67L40 200.18L39.53 190.67Z" stroke="white" stroke-width="2" stroke-linecap="round"/>
</g>
<defs>
<clipPath id="clip0_236:6600">
<rect width="375" height="748" fill="white"/>
</clipPath>
</defs>
</svg>
