<svg xmlns="http://www.w3.org/2000/svg" xmlns:xlink="http://www.w3.org/1999/xlink" viewBox="0 0 125.81 170.68"><defs><linearGradient id="未命名的渐变_301" x1="-6.58" y1="130.64" x2="45.9" y2="78.16" gradientUnits="userSpaceOnUse"><stop offset=".03" stop-color="#8c7184"/><stop offset="1" stop-color="#364fc0"/><stop offset="1"/></linearGradient><linearGradient id="未命名的渐变_301-2" x1="79.91" y1="130.64" x2="132.39" y2="78.16" xlink:href="#未命名的渐变_301"/><linearGradient id="未命名的渐变_301-3" x1="14.13" y1="139.91" x2="111.68" y2="42.35" xlink:href="#未命名的渐变_301"/><linearGradient id="未命名的渐变_301-4" x1="23.83" y1="72.69" x2="102.05" y2="-5.52" xlink:href="#未命名的渐变_301"/><linearGradient id="未命名的渐变_301-5" x1="36.84" y1="62.39" x2="45.72" y2="53.51" xlink:href="#未命名的渐变_301"/><linearGradient id="未命名的渐变_301-6" x1="80.09" y1="62.39" x2="88.97" y2="53.51" xlink:href="#未命名的渐变_301"/><clipPath id="clip-path" transform="translate(0 -.07)"><path style="fill:none" d="M0 0h126v171H0z"/></clipPath><style>.cls-2{clip-path:url(#clip-path)}.cls-7{fill:#fff4ab}</style></defs><g id="图层_2" data-name="图层 2"><g id="图层_1-2" data-name="图层 1"><path d="M0 104.4c0 17.38 3.75 33.45 9.83 42.14s13.57 8.7 19.66 0 9.83-24.76 9.83-42.14-3.75-33.4-9.83-42.14-13.58-8.7-19.66 0S0 87 0 104.4z" transform="translate(0 -.07)" style="fill:url(#未命名的渐变_301)" class="cls-2"/><path d="M86.49 104.4c0 17.38 3.75 33.45 9.83 42.14s13.58 8.7 19.66 0 9.83-24.76 9.83-42.14S122.06 71 116 62.26s-13.58-8.7-19.66 0S86.49 87 86.49 104.4z" transform="translate(0 -.07)" style="fill:url(#未命名的渐变_301-2)"/><g class="cls-2"><path d="M62.9 170.75c-26 0-47.17-23.76-47.17-53.08V64.59c0-29.32 21.12-53.08 47.17-53.08s47.18 23.76 47.18 53.08v53.08c0 29.32-21.12 53.08-47.18 53.08z" transform="translate(0 -.07)" style="fill:url(#未命名的渐变_301-3)"/><path d="M110.08 64.59 70.77 38.05l32.6-36.68a3.61 3.61 0 0 1 4.28-1 4.47 4.47 0 0 1 2.43 4.09zm-94.35 0 36.64-28.75-29.9-34.29a3.62 3.62 0 0 0-4.3-1 4.45 4.45 0 0 0-2.44 4.09z" transform="translate(0 -.07)" style="fill:url(#未命名的渐变_301-4)"/></g><path class="cls-7" d="M25.56 58c0 9.78 7 17.7 15.72 17.7S57 67.73 57 58s-7-17.74-15.72-17.74S25.56 48.18 25.56 58z" transform="translate(0 -.07)"/><path d="M35.38 58c0 3.67 2.64 6.64 5.9 6.64s5.9-3 5.9-6.64-2.64-6.63-5.9-6.63-5.9 3-5.9 6.63z" transform="translate(0 -.07)" style="fill:url(#未命名的渐变_301-5)"/><path class="cls-7" d="M68.8 58c0 9.78 7 17.7 15.73 17.7s15.72-7.92 15.72-17.7-7-17.69-15.72-17.69S68.8 48.18 68.8 58z" transform="translate(0 -.07)"/><path d="M78.63 58c0 3.67 2.64 6.64 5.9 6.64s5.9-3 5.9-6.64-2.65-6.63-5.9-6.63-5.9 3-5.9 6.63z" transform="translate(0 -.07)" style="fill:url(#未命名的渐变_301-6)"/><path class="cls-7" d="M62.9 100 55 82.28c0-3.18 15.73-3.18 15.73 0z" transform="translate(0 -.07)"/></g></g></svg>