<svg xmlns="http://www.w3.org/2000/svg" viewBox="0 0 57.27 46.24"><defs><style>.cls-1{fill:#2c2c2c;}</style></defs><g id="图层_2" data-name="图层 2"><g id="图层_1-2" data-name="图层 1"><g id="图层_4" data-name="图层 4"><path class="cls-1" d="M4.27,6.25A6.5,6.5,0,0,0,11,12.5a6.49,6.49,0,0,0,6.7-6.25A6.49,6.49,0,0,0,11,0,6.5,6.5,0,0,0,4.27,6.25Z"/><path class="cls-1" d="M39.58,6.25A6.72,6.72,0,0,0,53,6.25a6.72,6.72,0,0,0-13.41,0Z"/><path class="cls-1" d="M28.63,46.24C8.3,46.24.92,35.82.7,35.41A4.15,4.15,0,0,1,2,29.57a4.51,4.51,0,0,1,6,1.25c.45.42,5.59,7.08,20.56,7.08C43.83,37.9,49,31,49,30.82a4.8,4.8,0,0,1,6.26-1.25,4.11,4.11,0,0,1,1.34,5.84C56.35,35.61,49,46.24,28.63,46.24Z"/></g></g></g></svg>